<?xml version="1.0" encoding="utf-8"?>
<svg viewBox="0 0 512 512" xmlns="http://www.w3.org/2000/svg">
  <path opacity="1.000000" stroke="none" d=" M248.000000,0.999998 C336.314087,1.000000 424.628174,1.000000 512.971130,1.000000 C512.971130,171.610199 512.971130,342.220428 512.971130,512.915283 C342.427032,512.915283 171.854004,512.915283 1.140484,512.915283 C1.140484,342.333405 1.140484,171.666718 1.140484,1.000000 C58.428204,1.000000 115.749092,1.000000 173.593658,1.375180 C166.967422,4.764884 159.749908,7.630210 152.683960,10.830196 C142.984833,15.222683 133.974747,20.851778 127.332787,29.276129 C121.217926,37.031937 116.073006,45.544956 110.156647,53.467400 C106.127518,58.862720 101.696945,63.995472 97.079407,68.900658 C94.152626,72.009781 90.410057,74.334061 87.288055,77.280235 C82.535744,81.764900 81.622635,87.409836 84.060806,93.235405 C86.441933,98.924660 91.402382,101.437607 97.396065,101.997246 C112.561432,103.413254 123.549248,96.113777 132.028610,84.587418 C136.994980,77.836395 140.609970,70.098427 145.490997,63.275219 C149.673447,57.428547 154.016235,51.222664 159.646484,46.976952 C174.817581,35.536556 192.706894,32.373730 211.318161,33.076878 C221.653458,33.467350 228.558685,43.518589 226.741882,53.742512 C223.961914,69.386330 213.470352,79.639297 202.579559,89.657448 C196.429123,95.315086 191.339127,101.652908 188.034042,109.353592 C183.908798,118.965309 184.024139,128.754654 187.359848,138.649841 C176.060013,136.805725 165.625381,139.385117 155.134048,141.390778 C153.383484,141.725433 151.477356,142.250992 149.815216,141.891846 C127.533882,137.077255 105.502335,131.533905 85.152878,120.708405 C78.824730,117.341972 72.122330,116.707375 65.132195,119.861526 C56.960594,123.548790 56.040653,131.561844 53.052204,138.398270 C52.873985,138.805969 52.973713,139.419937 53.128391,139.875320 C54.673756,144.425018 55.953007,149.158997 60.860611,151.478317 C67.666855,154.694931 74.287643,158.401581 81.310837,161.037964 C91.102737,164.713669 101.193161,167.594116 111.344528,170.875885 C108.934456,173.513397 105.863029,175.841370 104.176743,178.926468 C100.163528,186.268707 96.929237,194.031738 93.143570,201.504868 C90.056671,207.598587 89.491295,213.676651 91.991776,220.317017 C86.251831,229.885773 86.251831,229.885773 93.960678,234.422943 C95.083824,236.989273 95.899811,239.365921 97.254112,241.380722 C102.375465,248.999954 107.671494,256.501770 112.786072,264.375244 C111.736000,266.151550 110.802010,267.600098 109.808479,269.140961 C100.604515,264.064026 91.702415,259.051147 82.693390,254.238373 C79.425453,252.492569 75.640022,251.263229 73.061440,255.140762 C70.050858,259.667908 67.481255,264.504272 64.935455,269.320221 C62.128433,274.630371 62.406216,275.165131 67.846298,277.954407 C77.786652,283.051147 87.720253,288.161041 97.852615,293.366089 C94.762871,298.484863 91.893005,303.286865 88.976418,308.060303 C84.503304,315.381195 80.141846,322.776886 75.435204,329.945282 C73.567719,332.789551 73.460655,334.420410 76.562424,336.341644 C85.272842,341.736908 93.797653,347.430786 102.457489,352.909180 C106.240791,355.302551 109.621635,354.313812 111.862808,350.410126 C113.012489,348.407623 114.093300,346.364532 115.278320,344.383514 C120.667725,335.373932 126.083122,326.379913 131.614532,317.171600 C136.926239,320.474060 141.942917,323.593079 147.286819,326.915527 C146.587128,328.437042 146.040878,329.780243 145.370468,331.058350 C139.579147,342.098236 133.760864,353.123993 127.962685,364.160309 C126.899147,366.184631 126.084244,368.106476 128.981476,369.493652 C139.411667,374.487518 149.725906,379.733490 160.260635,384.493164 C163.514603,385.963348 166.313812,384.823608 168.197800,380.997070 C172.844940,371.558319 177.997543,362.368378 183.105743,353.379211 C185.136444,356.782715 186.918655,359.944458 188.910110,362.968445 C190.366287,365.179657 191.719193,367.745575 193.787170,369.205994 C197.772461,372.020447 202.265228,374.107849 206.467117,376.630707 C207.377716,377.177429 208.592163,378.305359 208.571426,379.138275 C208.443878,384.259369 209.262787,389.905914 207.376129,394.366455 C204.367477,401.479614 205.950912,408.303589 206.391541,415.200256 C206.609421,418.610840 208.255386,422.077789 209.853668,425.214294 C211.740341,428.916656 214.274078,432.289307 216.815277,436.254272 C214.473709,437.108276 213.260910,437.567841 212.036621,437.994385 C204.502960,440.618958 196.642365,442.566040 189.510010,446.018341 C179.703323,450.765137 178.438141,461.411469 186.412628,467.740662 C188.391525,469.311279 191.081497,470.313416 193.597412,470.824036 C205.287064,473.196594 216.565582,471.115570 227.539673,466.977966 C242.032288,461.513794 251.659485,451.921478 254.096115,435.975372 C255.164627,428.982697 256.750305,422.046906 258.521790,415.194000 C259.288330,412.228699 260.452515,410.100800 265.154755,411.272461 C274.122192,413.506927 283.475067,414.194550 292.469940,415.495728 C299.089264,429.862000 306.376678,444.285980 312.377899,459.226562 C315.963257,468.152618 318.246704,477.773834 319.774139,487.297699 C320.916870,494.422638 321.120697,500.410400 329.758636,503.218170 C338.694580,506.122833 346.320496,504.836975 353.464752,499.738617 C355.635193,498.189728 357.506531,494.889740 357.737671,492.236908 C358.198090,486.953339 357.956238,481.466522 357.010864,476.243561 C356.115082,471.294769 354.239197,466.454620 352.287781,461.778046 C345.309631,445.054596 344.717590,427.746155 347.353424,410.287506 C353.076843,420.889191 358.513153,431.312561 363.937561,441.742157 C372.063660,457.366394 387.420013,464.970520 404.583160,461.465759 C407.486359,460.872925 408.832520,461.695953 410.307129,463.778961 C415.139008,470.604523 422.252380,473.191833 429.866028,471.268036 C443.526764,467.816254 456.520325,463.362762 467.459106,452.987976 C474.687592,446.132233 476.382782,439.654449 475.065491,430.833130 C474.712555,428.469513 475.313995,425.670898 476.317413,423.451965 C479.338654,416.771362 481.401794,409.679749 479.520020,402.695496 C474.205627,382.970764 464.050537,365.254852 455.520081,347.038757 C457.905273,346.825714 460.028961,347.042542 461.798859,346.352173 C465.220215,345.017670 470.232269,343.963806 469.585022,339.501007 C469.182953,336.728668 465.685822,333.588562 462.809784,332.161865 C456.838959,329.199982 450.356659,327.269165 444.002258,324.561768 C439.707489,316.343933 435.491577,308.480682 431.283661,300.613220 C427.122528,292.833252 420.577118,288.305786 412.196808,285.814789 C410.017426,285.166962 408.281433,282.797607 406.513184,281.045959 C403.173798,277.737946 400.500824,273.361908 396.584686,271.109772 C387.018616,265.608398 376.937012,267.950867 367.318695,271.549072 C361.296112,273.802094 355.399994,276.589508 349.834015,279.806549 C345.112854,282.535278 339.302704,284.512512 337.629395,290.996948 C334.144012,288.157440 331.452911,283.873230 327.813782,282.798126 C319.960297,280.478058 320.719543,275.026337 321.025116,269.300629 C321.130066,267.333710 321.804718,265.358246 321.668274,263.425598 C321.394501,259.547516 321.741119,255.123123 319.951782,252.001984 C318.305542,249.130569 318.797394,247.318527 319.583282,244.820557 C321.798309,237.779877 324.755371,230.825562 325.819061,223.601501 C327.798950,210.155457 328.700409,196.547348 329.892700,182.992783 C330.043182,181.282181 329.295654,179.474503 328.867676,177.735535 C328.294037,175.404465 327.575836,173.108826 327.008545,170.776337 C325.261505,163.593430 325.988617,155.570526 318.978424,150.283325 C315.745514,147.845001 311.949127,144.967941 310.622925,141.453964 C308.407928,135.585022 304.751587,131.245392 300.634277,126.906914 C299.967987,126.204803 300.170288,123.719635 300.903778,122.814293 C304.028625,118.957207 307.404083,115.286926 310.869446,111.724907 C322.894989,99.363876 333.743134,86.059273 341.455292,70.596329 C343.320984,66.855652 343.517853,61.551403 342.579559,57.395714 C341.933716,54.535286 337.952484,52.467705 335.557556,49.954697 C329.266754,43.353870 315.740875,42.665466 309.473450,49.238098 C306.129181,52.745277 303.743225,57.207275 301.139984,61.372841 C290.837250,77.858597 277.908844,92.133469 264.604523,106.205696 C259.425995,111.683090 252.445801,110.823425 246.747040,113.930061 C244.539108,115.133690 241.944473,115.627899 239.376831,116.313461 C239.227676,116.181625 238.916260,115.933563 238.944702,115.544991 C240.502899,111.751694 241.516159,107.970558 243.667389,105.018753 C248.501282,98.385986 254.472076,92.536781 258.927338,85.684174 C264.822021,76.617584 267.416870,66.410522 268.319794,55.414665 C269.525269,40.734692 267.448761,27.143637 259.330322,14.843633 C256.062744,9.893007 251.806366,5.595012 248.000000,0.999998 z" style="fill: none; fill-rule: nonzero;"/>
  <path fill="#525252" opacity="1.000000" stroke="none" d=" M347.061005,410.112000 C344.717590,427.746155 345.309631,445.054596 352.287781,461.778046 C354.239197,466.454620 356.115082,471.294769 357.010864,476.243561 C357.956238,481.466522 358.198090,486.953339 357.737671,492.236908 C357.506531,494.889740 355.635193,498.189728 353.464752,499.738617 C346.320496,504.836975 338.694580,506.122833 329.758636,503.218170 C321.120697,500.410400 320.916870,494.422638 319.774139,487.297699 C318.246704,477.773834 315.963257,468.152618 312.377899,459.226562 C306.376678,444.285980 299.089264,429.862000 292.469940,415.495728 C283.475067,414.194550 274.122192,413.506927 265.154755,411.272461 C260.452515,410.100800 259.288330,412.228699 258.521790,415.194000 C256.750305,422.046906 255.164627,428.982697 254.096115,435.975372 C251.659485,451.921478 242.032288,461.513794 227.539673,466.977966 C216.565582,471.115570 205.287064,473.196594 193.597412,470.824036 C191.081497,470.313416 188.391525,469.311279 186.412628,467.740662 C178.438141,461.411469 179.703323,450.765137 189.510010,446.018341 C196.642365,442.566040 204.502960,440.618958 212.036621,437.994385 C213.260910,437.567841 214.473709,437.108276 216.815277,436.254272 C214.274078,432.289307 211.740341,428.916656 209.853668,425.214294 C208.255386,422.077789 206.609421,418.610840 206.391541,415.200256 C205.950912,408.303589 204.367477,401.479614 207.376129,394.366455 C209.262787,389.905914 208.443878,384.259369 208.571426,379.138275 C208.592163,378.305359 207.377716,377.177429 206.467117,376.630707 C202.265228,374.107849 197.772461,372.020447 193.787170,369.205994 C191.719193,367.745575 190.366287,365.179657 188.910110,362.968445 C186.918655,359.944458 185.136444,356.782715 183.075012,353.040558 C183.243362,350.593964 183.601257,348.786865 184.243073,347.161469 C184.968582,347.839539 185.424698,348.323700 185.849487,348.834015 C192.456024,356.770416 196.176834,367.304230 206.915451,371.535675 C210.254822,372.851501 213.446136,374.889740 216.245087,377.163666 C223.778320,383.283783 231.037506,389.740082 238.455063,396.004211 C244.402420,401.026855 250.492523,405.742249 259.112457,403.355194 C259.704620,403.191193 260.686768,403.170746 261.019836,403.524261 C266.897614,409.761993 274.558655,407.790131 281.720917,408.156799 C282.997986,408.222198 284.913361,408.205994 285.408905,408.963501 C287.347656,411.927094 289.804016,410.765411 291.350403,409.408813 C292.447937,408.445984 292.872772,405.869476 292.526581,404.240997 C289.588440,390.419861 289.600311,376.455109 290.186310,362.460052 C290.249084,360.960480 291.192108,359.497772 291.726807,358.017944 C292.269226,358.108032 292.811676,358.198120 293.354126,358.288208 C293.457733,360.123901 293.826019,361.989227 293.624298,363.790741 C291.432892,383.361664 293.789001,402.450806 300.965149,420.679596 C307.057404,436.155121 314.254761,451.196198 321.021240,466.403595 C321.307098,467.046051 322.180481,467.427063 322.836975,468.291260 C324.106750,477.485718 325.143463,486.348541 326.626221,495.136108 C327.161011,498.305481 330.445526,498.672729 331.891998,496.620331 C333.804169,493.907104 334.455750,490.270142 335.453278,486.971008 C335.721252,486.084717 335.278351,484.983429 335.161774,483.980835 C335.561584,483.810822 335.961395,483.640808 336.361206,483.470795 C337.161591,484.688995 338.803192,486.058716 338.615784,487.098999 C337.830811,491.456573 336.497681,495.715454 335.208008,500.607330 C336.565552,500.386200 338.741425,500.481262 340.494049,499.666168 C347.042603,496.620575 343.940369,489.876831 345.343201,484.534607 C348.381653,487.638458 348.381653,487.638458 347.317200,498.209991 C352.160919,495.137939 352.834473,490.574280 352.801849,485.938934 C352.710449,472.942291 345.950562,461.892181 342.047974,449.582642 C342.069214,448.315186 342.057037,447.483002 342.028625,446.651367 C341.666565,436.067688 341.033661,425.484863 341.005310,414.900330 C340.968781,401.258423 342.142914,387.523590 335.560730,374.777405 C335.241272,374.158875 335.718170,373.129089 335.824249,372.290802 C337.981628,373.643005 339.579468,375.229156 340.019867,377.089294 C341.581329,383.684479 342.715057,390.379974 344.086548,397.021820 C344.429932,398.684723 344.819305,401.532288 345.598511,401.680939 C347.700928,402.081970 351.146301,402.130280 352.052673,400.872711 C354.881805,396.947357 357.271912,392.519409 358.823181,387.944214 C359.514404,385.905457 357.793732,383.048920 357.061371,380.141327 C359.098572,380.571442 360.615265,380.891663 362.131927,381.211884 C362.584595,384.354340 363.400085,387.275391 365.323761,388.773224 C374.727661,396.095398 385.409058,400.975372 397.217041,404.291382 C401.535767,405.043549 406.086914,406.964233 408.304718,400.951294 C411.701294,395.074738 414.713654,389.257294 417.803925,383.481537 C418.713898,381.780731 419.709198,380.091309 420.900452,378.582214 C423.738586,374.986908 426.954041,371.668945 429.580444,367.932037 C433.083191,362.948273 433.452881,357.131439 434.226959,351.164246 C435.070984,344.658173 435.087952,338.720062 431.307281,333.535339 C426.986542,327.609955 421.892029,322.248779 416.635925,316.055908 C415.347473,321.288330 413.901794,325.263824 413.496460,329.342743 C413.097382,333.358429 412.944183,337.742126 414.161407,341.483337 C415.520355,345.660065 414.459045,346.907715 410.294678,347.502930 C410.286163,343.166687 407.530731,342.076874 404.052094,341.364471 C401.418335,340.825134 398.998535,339.298309 396.376770,338.629242 C392.823090,337.722351 389.056885,336.380188 385.595276,336.838104 C383.385284,337.130432 382.037445,337.890289 380.855103,335.620270 C379.545227,333.105408 380.445129,331.611908 382.546082,329.723419 C388.043396,324.782166 393.127258,319.380920 399.493774,313.051727 C395.169006,311.853302 391.778870,309.702423 389.775208,310.610565 C385.587402,312.508667 382.741638,310.554688 379.457672,309.182678 C376.256073,307.845062 372.865692,305.038147 369.890350,305.425720 C359.213013,306.816711 350.452576,302.224976 341.364899,298.132568 C338.573364,296.875488 335.487030,296.273224 332.535675,295.371094 C332.265717,295.911591 331.995728,296.452087 331.725739,296.992554 C329.555267,290.271057 325.800232,285.416046 318.531586,283.934875 C317.388336,283.701935 316.590271,280.964111 315.949829,279.264862 C314.990753,276.720306 314.312775,274.069855 313.811310,271.222076 C316.418304,264.542633 318.646393,258.183502 313.130737,252.037155 C312.335693,251.151230 312.336487,248.895645 312.833740,247.607758 C317.456940,235.633499 320.502075,223.501312 321.937714,210.552826 C323.845154,193.349380 324.510468,176.572983 318.974152,160.057846 C316.828552,153.657455 311.980194,149.140823 305.943665,145.611908 C305.078918,143.075928 304.303802,140.885651 303.433136,138.734055 C300.869965,132.399857 296.225128,129.264313 288.858978,129.413300 C289.920471,127.732216 290.578766,126.279984 291.595459,125.150291 C296.046295,120.204803 300.847015,115.555153 305.067230,110.425056 C314.036285,99.522308 322.918976,88.534981 331.412476,77.262428 C334.153778,73.624207 335.903748,69.107376 337.474243,64.763626 C338.575928,61.716568 338.676819,58.256886 335.023163,56.361439 C333.139526,59.400372 331.406036,62.197090 329.672516,64.993805 C329.038635,64.681725 328.404724,64.369637 327.770813,64.057556 C328.716553,61.624676 329.814087,59.237907 330.570587,56.747555 C331.574280,53.443512 329.945404,51.536083 326.922333,50.209820 C323.740997,63.368996 322.348236,65.550529 317.317627,65.059311 C318.937103,62.657543 321.035736,60.544582 321.865692,58.015320 C322.602081,55.771255 321.929565,53.064880 321.878998,50.562576 C319.314514,51.081493 316.133636,50.837986 314.329102,52.296886 C311.579102,54.520149 309.653442,57.834496 307.609222,60.842831 C304.433136,65.516922 301.617493,70.440514 298.357758,75.052422 C286.694366,91.553886 272.707184,105.976387 257.957947,119.696182 C257.784515,119.857521 257.329620,119.716270 256.884705,119.716270 C256.246918,118.598724 255.583008,117.435417 254.129700,114.888916 C252.864487,117.264091 251.994080,118.898109 251.123657,120.532135 C250.830658,119.967506 250.537659,119.402870 250.244675,118.838242 C248.188782,119.192619 246.007614,119.232384 244.111298,119.987503 C242.108719,120.784912 240.377731,122.264282 238.528107,123.445732 C238.317810,123.123070 238.107513,122.800415 237.897217,122.477753 C237.458649,123.593628 237.020081,124.709503 236.581512,125.825371 C233.004898,124.212967 230.436005,126.623550 227.394897,127.804382 C221.514969,130.087463 215.150681,131.207840 209.442245,133.808884 C206.932510,134.952469 205.153870,136.380020 202.257782,135.321136 C201.594360,135.078583 199.860992,136.342682 199.362671,137.299957 C196.237701,143.302963 190.305359,143.927750 185.052277,143.392136 C180.637344,142.941986 176.121796,147.928726 171.959045,143.117615 C171.883698,143.030533 171.378082,143.357025 171.059509,143.432663 C167.815414,144.202774 164.568466,144.960892 161.322327,145.722351 C159.701477,146.022842 157.925919,147.706680 156.447678,147.476990 C148.901443,146.304398 141.231903,145.278976 133.975876,143.014954 C117.021355,137.724869 100.278282,131.757050 83.239807,125.747116 C78.810524,124.455833 74.594337,122.746292 70.370506,122.727242 C66.653648,122.710472 65.655678,126.065842 68.171989,128.743332 C70.209511,130.911377 73.165619,132.358978 75.936943,133.647049 C77.968208,134.591141 80.192909,134.886398 78.825462,137.609467 C71.965973,136.383530 66.354942,133.970612 63.358841,126.165688 C62.299351,128.575821 60.875519,130.492630 61.296627,131.074722 C63.747288,134.462234 66.631279,137.536255 70.162758,141.638458 C67.686989,140.839066 65.942268,140.454376 64.362137,139.716980 C62.666286,138.925583 61.125149,137.802673 59.393806,136.749817 C57.861053,143.258286 62.668064,149.018768 68.947617,149.217041 C72.071899,151.377594 74.964462,153.832642 78.297226,154.860870 C96.374390,160.438126 114.565086,165.646805 132.701401,171.033905 C134.512436,171.571823 136.220551,172.456329 137.976425,173.179977 C137.755188,173.865295 137.533951,174.550598 137.312698,175.235901 C133.268509,174.313965 129.261307,173.104141 125.166260,172.577850 C122.702904,172.261246 119.539818,172.185837 117.683601,173.454315 C114.052979,175.935379 110.190598,178.910233 108.093620,182.623459 C104.129211,189.643417 101.053764,197.220367 98.208328,204.791153 C97.014153,207.968445 97.344971,211.718903 96.926010,215.547211 C95.300674,217.257721 93.731819,218.629822 92.162971,220.001923 C89.491295,213.676651 90.056671,207.598587 93.143570,201.504868 C96.929237,194.031738 100.163528,186.268707 104.176743,178.926468 C105.863029,175.841370 108.934456,173.513397 111.344528,170.875885 C101.193161,167.594116 91.102737,164.713669 81.310837,161.037964 C74.287643,158.401581 67.666855,154.694931 60.860611,151.478317 C55.953007,149.158997 54.673756,144.425018 53.128391,139.875320 C52.973713,139.419937 52.873985,138.805969 53.052204,138.398270 C56.040653,131.561844 56.960594,123.548790 65.132195,119.861526 C72.122330,116.707375 78.824730,117.341972 85.152878,120.708405 C105.502335,131.533905 127.533882,137.077255 149.815216,141.891846 C151.477356,142.250992 153.383484,141.725433 155.134048,141.390778 C165.625381,139.385117 176.060013,136.805725 187.359848,138.649841 C184.024139,128.754654 183.908798,118.965309 188.034042,109.353592 C191.339127,101.652908 196.429123,95.315086 202.579559,89.657448 C213.470352,79.639297 223.961914,69.386330 226.741882,53.742512 C228.558685,43.518589 221.653458,33.467350 211.318161,33.076878 C192.706894,32.373730 174.817581,35.536556 159.646484,46.976952 C154.016235,51.222664 149.673447,57.428547 145.490997,63.275219 C140.609970,70.098427 136.994980,77.836395 132.028610,84.587418 C123.549248,96.113777 112.561432,103.413254 97.396065,101.997246 C91.402382,101.437607 86.441933,98.924660 84.060806,93.235405 C81.622635,87.409836 82.535744,81.764900 87.288055,77.280235 C90.410057,74.334061 94.152626,72.009781 97.079407,68.900658 C101.696945,63.995472 106.127518,58.862720 110.156647,53.467400 C116.073006,45.544956 121.217926,37.031937 127.332787,29.276129 C133.974747,20.851778 142.984833,15.222683 152.683960,10.830196 C159.749908,7.630210 166.967422,4.764884 174.058685,1.375180 C180.021149,1.000000 186.042297,1.000000 192.269714,1.241520 C183.356186,4.580804 174.189453,7.547984 165.126358,10.803661 C146.562332,17.472303 131.347488,28.206182 121.697777,46.052849 C118.642570,51.703308 114.320892,56.670525 110.561272,61.937916 C108.747971,64.478439 106.894051,66.989960 104.701996,69.612061 C99.868446,73.362732 94.999443,76.637459 91.013672,80.765076 C86.039185,85.916595 87.565285,92.797951 93.775238,96.195976 C101.600632,100.477966 117.973839,95.447136 121.971733,87.497452 C122.166519,87.110107 121.961716,86.521805 122.300674,86.024429 C126.700806,80.883827 131.471313,76.155937 134.641724,70.526825 C142.444153,56.673489 150.942520,43.848087 166.148148,36.931557 C179.784256,30.728939 194.208694,28.450108 208.908096,28.315237 C226.868103,28.150448 233.934204,40.879841 231.988937,54.460793 C230.627945,63.962681 226.626709,72.316505 220.071655,79.292160 C214.367905,85.361900 208.186035,90.983315 202.502213,97.070595 C192.811478,107.449242 188.389175,119.505890 191.902039,133.748795 C192.260193,135.200943 193.103775,136.533386 194.166290,138.918472 C197.205307,133.961319 199.618744,129.596909 205.526138,131.922485 C205.943069,132.086624 206.675629,131.355255 207.292084,131.120987 C212.283020,129.224365 217.368576,127.546585 222.253830,125.410080 C227.584671,123.078712 234.173782,121.919914 233.588760,113.514297 C233.432983,111.276169 234.898178,108.632355 236.285309,106.638168 C239.600861,101.871552 243.014771,97.108864 246.918564,92.827477 C261.117798,77.254822 265.246277,58.728550 262.577179,38.521381 C260.341217,21.593275 251.487259,8.812224 236.000000,1.000000 C239.692902,1.000000 243.385818,1.000000 247.539368,0.999998 C251.806366,5.595012 256.062744,9.893007 259.330322,14.843633 C267.448761,27.143637 269.525269,40.734692 268.319794,55.414665 C267.416870,66.410522 264.822021,76.617584 258.927338,85.684174 C254.472076,92.536781 248.501282,98.385986 243.667389,105.018753 C241.516159,107.970558 240.502899,111.751694 238.727585,115.677353 C238.500809,116.626381 238.519608,117.054474 238.538406,117.482567 C238.867599,117.136810 239.196808,116.791046 239.526001,116.445297 C241.944473,115.627899 244.539108,115.133690 246.747040,113.930061 C252.445801,110.823425 259.425995,111.683090 264.604523,106.205696 C277.908844,92.133469 290.837250,77.858597 301.139984,61.372841 C303.743225,57.207275 306.129181,52.745277 309.473450,49.238098 C315.740875,42.665466 329.266754,43.353870 335.557556,49.954697 C337.952484,52.467705 341.933716,54.535286 342.579559,57.395714 C343.517853,61.551403 343.320984,66.855652 341.455292,70.596329 C333.743134,86.059273 322.894989,99.363876 310.869446,111.724907 C307.404083,115.286926 304.028625,118.957207 300.903778,122.814293 C300.170288,123.719635 299.967987,126.204803 300.634277,126.906914 C304.751587,131.245392 308.407928,135.585022 310.622925,141.453964 C311.949127,144.967941 315.745514,147.845001 318.978424,150.283325 C325.988617,155.570526 325.261505,163.593430 327.008545,170.776337 C327.575836,173.108826 328.294037,175.404465 328.867676,177.735535 C329.295654,179.474503 330.043182,181.282181 329.892700,182.992783 C328.700409,196.547348 327.798950,210.155457 325.819061,223.601501 C324.755371,230.825562 321.798309,237.779877 319.583282,244.820557 C318.797394,247.318527 318.305542,249.130569 319.951782,252.001984 C321.741119,255.123123 321.394501,259.547516 321.668274,263.425598 C321.804718,265.358246 321.130066,267.333710 321.025116,269.300629 C320.719543,275.026337 319.960297,280.478058 327.813782,282.798126 C331.452911,283.873230 334.144012,288.157440 337.773071,291.276733 C339.439545,292.370728 340.597931,293.174774 341.950928,294.278748 C344.774689,295.759644 347.403839,296.940643 350.271057,298.324402 C351.316040,298.689209 352.123016,298.851227 353.169342,299.271057 C355.891815,300.253326 358.374939,300.977844 361.117676,301.975677 C363.809753,302.179230 366.242188,302.109436 369.091370,302.017395 C373.188904,303.399567 376.864319,304.818359 380.552795,306.202332 C382.391418,306.892212 384.919098,308.623169 385.988708,307.979126 C390.266907,305.403259 393.699310,307.610596 397.151794,309.237549 C400.179108,310.664154 402.243439,310.495026 405.166870,308.459686 C407.485992,306.845032 411.664551,305.914307 414.064789,306.930420 C416.766541,308.074219 418.909576,311.477631 420.401855,314.360718 C424.735168,322.732513 429.481628,325.741150 438.833405,325.183777 C440.767822,325.205475 442.426208,325.059967 444.084595,324.914490 C450.356659,327.269165 456.838959,329.199982 462.809784,332.161865 C465.685822,333.588562 469.182953,336.728668 469.585022,339.501007 C470.232269,343.963806 465.220215,345.017670 461.798859,346.352173 C460.028961,347.042542 457.905273,346.825714 455.078583,347.016418 C452.745667,347.030182 451.275543,347.046295 449.410370,347.052551 C445.931213,347.665466 442.756836,348.026520 439.808716,349.043457 C438.673126,349.435211 437.212830,351.405670 437.327484,352.508514 C438.370117,362.538513 433.330475,370.617737 427.212311,376.981476 C422.195831,382.199310 419.646393,388.334259 415.796448,394.235657 C415.066681,395.999969 414.568817,397.608429 413.835510,399.514465 C411.117462,405.205750 407.087585,408.260101 400.974213,408.190369 C399.023285,408.168121 397.071808,408.190521 394.926453,407.935791 C390.373474,406.148132 386.014587,404.617157 381.417542,402.860840 C375.131989,399.070435 369.084686,395.505371 363.064819,391.963593 C363.092285,391.986847 363.059296,392.050812 362.986023,391.893677 C362.639893,391.811737 362.367096,391.886932 361.835632,392.252808 C361.373566,394.374237 361.170135,396.205017 360.590881,397.986969 C357.413666,400.634888 354.612274,403.331604 351.432892,406.036987 C348.195801,405.900513 346.800964,407.193542 347.061005,410.112000 M412.004120,317.998474 C412.004120,317.998474 412.056885,318.040588 412.590210,317.548370 C412.575531,314.911407 412.560822,312.274475 412.546112,309.637512 C410.866333,309.845062 408.616394,309.431183 407.600922,310.362793 C401.782837,315.700714 396.257935,321.358246 390.164886,327.220184 C389.417023,328.056274 388.669189,328.892365 387.618683,330.060333 C387.757416,330.401031 387.896149,330.741699 388.722900,331.174805 C395.154724,332.761841 401.586578,334.348877 408.634460,335.529022 C409.779236,329.692139 410.923981,323.855225 412.004120,317.998474 M451.758881,332.678558 C446.074280,329.321777 439.835541,328.717194 433.202301,328.293457 C435.328766,334.482544 437.220245,339.987793 439.294769,346.025696 C443.220917,344.911560 447.281830,343.759155 452.127869,342.929199 C456.609467,343.373627 460.767090,342.796539 465.452393,338.337158 C460.397003,336.405426 456.311005,334.844086 451.758881,332.678558 M209.696823,443.326965 C206.200363,444.836273 202.703903,446.345612 198.410248,447.825470 C197.883850,447.892792 197.357452,447.960144 196.116547,447.997406 C194.106674,449.647369 192.096802,451.297302 189.344177,453.093719 C185.975632,456.945251 186.018143,461.463684 189.981155,464.111694 C192.235489,465.617981 195.235260,467.038116 197.793137,466.870972 C206.020905,466.333557 214.494156,466.056641 222.323364,463.785492 C232.496567,460.834320 242.172745,455.660889 245.559677,444.489349 C249.201508,432.477051 251.788864,420.145020 254.950027,407.497589 C242.303345,406.287354 235.046295,396.761780 226.223953,389.688843 C222.566193,386.756439 218.978317,383.736847 214.563980,380.102692 C213.852234,383.334839 213.151138,385.211975 213.074646,387.114197 C212.857056,392.525696 213.285751,397.987030 212.743103,403.356262 C211.834610,412.345367 213.475754,420.494293 218.762756,427.909821 C219.796112,429.359222 219.935074,431.448486 220.974823,432.890564 C222.150803,434.521576 223.857330,435.777588 225.372726,437.153107 C226.110184,437.822479 226.937592,438.392731 227.870789,439.122406 C221.658325,440.559998 216.016983,441.865448 209.696823,443.326965 z"/>
  <path fill="#1C1C1C" opacity="1.000000" stroke="none" d=" M105.058517,69.514618 C106.894051,66.989960 108.747971,64.478439 110.561272,61.937916 C114.320892,56.670525 118.642570,51.703308 121.697777,46.052849 C131.347488,28.206182 146.562332,17.472303 165.126358,10.803661 C174.189453,7.547984 183.356186,4.580804 192.738007,1.241520 C207.020889,1.000000 221.041794,1.000000 235.531342,1.000000 C251.487259,8.812224 260.341217,21.593275 262.577179,38.521381 C265.246277,58.728550 261.117798,77.254822 246.918564,92.827477 C243.014771,97.108864 239.600861,101.871552 236.285309,106.638168 C234.898178,108.632355 233.432983,111.276169 233.588760,113.514297 C234.173782,121.919914 227.584671,123.078712 222.253830,125.410080 C217.368576,127.546585 212.283020,129.224365 207.292084,131.120987 C206.675629,131.355255 205.943069,132.086624 205.526138,131.922485 C199.618744,129.596909 197.205307,133.961319 194.166290,138.918472 C193.103775,136.533386 192.260193,135.200943 191.902039,133.748795 C188.389175,119.505890 192.811478,107.449242 202.502213,97.070595 C208.186035,90.983315 214.367905,85.361900 220.071655,79.292160 C226.626709,72.316505 230.627945,63.962681 231.988937,54.460793 C233.934204,40.879841 226.868103,28.150448 208.908096,28.315237 C194.208694,28.450108 179.784256,30.728939 166.148148,36.931557 C150.942520,43.848087 142.444153,56.673489 134.641724,70.526825 C131.471313,76.155937 126.700806,80.883827 122.094452,85.752724 C117.759338,78.387024 112.856094,72.458076 105.058517,69.514618 z"/>
  <path fill="#4A7146" opacity="1.000000" stroke="none" d=" M91.991776,220.317017 C93.731819,218.629822 95.300674,217.257721 97.189423,215.315369 C102.208206,207.751602 102.195442,207.778091 109.683250,211.386627 C116.432884,214.639374 123.224426,217.805084 129.979355,221.046967 C136.314774,224.087524 136.269760,224.088242 140.008865,217.943604 C147.191284,206.140488 154.573593,194.455017 161.532425,182.522171 C163.704651,178.797272 165.707809,178.705750 169.118561,180.528168 C176.604355,184.527954 184.162201,188.418640 191.865112,191.976044 C196.070877,193.918381 196.717987,196.080505 194.524673,200.110184 C187.361359,213.271164 180.538315,226.617081 173.412628,239.799011 C171.771622,242.834747 172.184402,244.570236 175.232880,246.153015 C179.069519,248.144989 182.797928,250.365555 186.459824,252.667587 C189.412918,254.524048 191.291428,254.412674 193.228165,251.023468 C200.412766,238.450607 207.973358,226.092957 215.202347,213.544800 C216.982758,210.454330 218.596603,209.465073 221.852875,211.568115 C229.542679,216.534454 237.322189,221.368469 245.176437,226.070587 C248.610001,228.126175 249.093414,230.217667 247.145065,233.793686 C240.215347,246.512497 233.718491,259.467590 226.756668,272.168182 C224.719849,275.884033 225.566406,277.579254 228.953537,279.632660 C236.210449,284.032043 243.140060,288.967682 250.315720,293.506622 C252.841873,295.104553 253.268051,296.763885 251.840881,299.278625 C249.458176,303.477020 247.235489,307.765869 244.879868,311.980011 C241.533508,317.966522 241.046951,318.044495 235.004730,314.310028 C228.066345,310.021759 221.171219,305.654449 214.089981,301.614746 C212.851013,300.907898 209.738708,301.024902 209.269135,301.816254 C205.300751,308.503815 201.745392,315.436462 197.995590,322.426666 C198.947998,323.190033 199.523056,323.792419 200.216766,324.185333 C208.037018,328.614716 215.817886,333.119324 223.737488,337.364685 C226.886459,339.052673 227.866302,340.914062 225.961716,344.109161 C224.258057,346.967224 222.758194,349.945892 221.118790,352.843262 C216.347961,361.274841 216.263016,361.408997 207.615326,356.755127 C201.318848,353.366516 195.289078,349.485535 189.063721,345.959442 C187.268158,344.942505 185.012573,343.454285 183.959137,346.979736 C183.601257,348.786865 183.243362,350.593964 182.916199,352.739746 C177.997543,362.368378 172.844940,371.558319 168.197800,380.997070 C166.313812,384.823608 163.514603,385.963348 160.260635,384.493164 C149.725906,379.733490 139.411667,374.487518 128.981476,369.493652 C126.084244,368.106476 126.899147,366.184631 127.962685,364.160309 C133.760864,353.123993 139.579147,342.098236 145.370468,331.058350 C146.040878,329.780243 146.587128,328.437042 147.286819,326.915527 C141.942917,323.593079 136.926239,320.474060 131.614532,317.171600 C126.083122,326.379913 120.667725,335.373932 115.278320,344.383514 C114.093300,346.364532 113.012489,348.407623 111.862808,350.410126 C109.621635,354.313812 106.240791,355.302551 102.457489,352.909180 C93.797653,347.430786 85.272842,341.736908 76.562424,336.341644 C73.460655,334.420410 73.567719,332.789551 75.435204,329.945282 C80.141846,322.776886 84.503304,315.381195 88.976418,308.060303 C91.893005,303.286865 94.762871,298.484863 97.852615,293.366089 C87.720253,288.161041 77.786652,283.051147 67.846298,277.954407 C62.406216,275.165131 62.128433,274.630371 64.935455,269.320221 C67.481255,264.504272 70.050858,259.667908 73.061440,255.140762 C75.640022,251.263229 79.425453,252.492569 82.693390,254.238373 C91.702415,259.051147 100.604515,264.064026 109.808479,269.140961 C110.802010,267.600098 111.736000,266.151550 113.146210,264.350586 C114.758957,262.799042 115.895477,261.599945 117.303848,260.154602 C119.178612,257.034546 121.053123,254.267960 122.250832,251.234222 C122.730446,250.019379 122.213928,247.326965 121.308289,246.823914 C114.994347,243.316696 108.459267,240.207596 101.989388,236.992004 C101.983742,237.013031 102.027161,237.016525 101.917236,236.780518 C101.529770,236.338593 101.252228,236.132690 100.717010,235.670517 C98.273132,234.965195 96.086922,234.516159 93.900703,234.067123 C86.251831,229.885773 86.251831,229.885773 91.991776,220.317017 M117.505318,268.042877 C112.728134,276.713715 114.948433,278.491150 103.970207,272.070618 C96.929665,267.953033 89.750458,264.053131 82.466766,260.386658 C80.973221,259.634827 77.721184,259.597565 77.024773,260.531769 C74.304901,264.180481 72.285530,268.351349 69.801292,272.684723 C80.540154,278.313324 90.622238,283.780243 100.884659,288.884583 C104.858902,290.861328 105.463982,292.713440 103.020317,296.522308 C96.368263,306.890503 89.993454,317.440857 83.733673,328.051727 C82.826042,329.590210 82.281357,333.019165 83.051537,333.597015 C87.784637,337.148163 92.944000,340.131165 98.160400,343.428986 C99.313835,341.739227 100.091774,340.689514 100.776634,339.582214 C106.995422,329.527283 113.297363,319.521606 119.351547,309.368317 C121.479744,305.799225 123.552597,305.420624 126.971970,307.658600 C134.633072,312.672791 142.397232,317.545349 150.298019,322.170502 C154.017502,324.347900 154.431854,326.469208 152.407654,330.206360 C146.776443,340.602966 141.427475,351.156616 136.204163,361.765015 C135.515305,363.164124 135.555023,366.348511 136.365982,366.826996 C141.451065,369.827362 146.850525,372.294952 152.428360,375.079834 C158.855240,362.634552 164.978943,350.820740 171.059372,338.984680 C174.481262,332.323669 174.419083,332.356781 180.804184,336.213745 C190.175858,341.874634 199.595490,347.456116 209.418228,353.324432 C211.552200,349.603790 213.267365,346.216461 215.357361,343.078796 C217.531647,339.814575 216.988647,337.993164 213.451965,336.080200 C204.668655,331.329315 196.123962,326.138763 187.449326,321.184448 C185.001526,319.786499 183.443222,318.497009 185.399384,315.355835 C189.886887,308.149811 194.217102,300.838165 198.363403,293.430695 C200.308899,289.955017 202.298615,289.685669 205.515427,291.763397 C211.246994,295.465424 217.094406,299.008423 223.047119,302.343506 C236.343140,309.792755 233.304123,312.091309 241.732666,296.778168 C243.032944,294.415802 242.809601,293.014465 240.426651,291.491821 C232.427261,286.380402 224.761383,280.716217 216.567001,275.953278 C212.197189,273.413330 212.221985,271.243744 214.363708,267.294556 C221.190979,254.705597 227.625977,241.904388 234.388123,229.279236 C236.027405,226.218658 236.204544,224.320038 232.655899,222.591339 C229.232651,220.923752 226.044006,218.721542 222.909943,216.528854 C219.987122,214.483963 218.486801,215.183121 216.740646,218.231659 C209.458832,230.944626 201.816528,243.450790 194.496582,256.142456 C192.712234,259.236267 191.024124,259.497803 188.103607,257.759094 C179.949585,252.904724 171.640961,248.310913 163.446030,243.524124 C158.050171,240.372284 158.114395,239.848236 161.212631,234.142120 C168.126205,221.409195 174.934769,208.617767 181.595642,195.751572 C182.205063,194.574402 182.005936,191.750275 181.226837,191.282593 C176.281433,188.314011 171.067230,185.793274 165.860352,183.082581 C164.800537,184.532166 163.941406,185.547684 163.255936,186.669327 C155.615234,199.171982 147.894073,211.627747 140.450180,224.246902 C138.403122,227.717133 136.511002,228.457733 132.873138,226.533081 C126.696274,223.265167 120.245529,220.519028 113.954170,217.462479 C103.496536,212.381836 103.512459,212.352127 97.794807,222.207291 C97.460670,222.783218 97.125885,223.367142 96.718994,223.891098 C94.437386,226.829254 94.996040,228.620193 98.453140,230.361511 C107.522537,234.929749 116.375854,239.924942 125.373940,244.637985 C128.014404,246.021011 128.589127,247.647079 127.133514,250.260483 C123.973701,255.933594 120.934349,261.673798 117.505318,268.042877 M164.839401,374.343658 C169.762848,365.099579 174.597748,355.806854 179.644043,346.630341 C182.520767,341.399109 182.509872,341.022003 175.859833,338.094025 C169.294571,350.731659 162.701248,363.423370 156.160706,376.013428 C159.886215,379.219635 162.728546,380.053314 164.839401,374.343658 M170.496597,237.044098 C177.649124,223.765060 184.801651,210.486023 192.101334,196.933762 C189.204758,194.934570 187.112976,193.961777 185.242432,197.452621 C178.492340,210.049820 171.610916,222.578003 165.031357,235.263092 C164.396591,236.486908 165.510971,238.617981 165.813385,240.327896 C167.261993,239.452759 168.710587,238.577637 170.496597,237.044098 M217.609238,269.878387 C218.451080,271.283112 219.292938,272.687836 220.572784,274.823395 C222.290802,272.337830 223.370193,271.072662 224.125427,269.637024 C230.483215,257.551453 236.771530,245.429337 243.103851,233.330322 C245.130966,229.457199 242.531738,228.488541 239.394424,227.264175 C232.154236,241.394470 225.023849,255.310455 217.609238,269.878387 M113.154411,326.642944 C110.114601,331.577972 107.102531,336.530426 104.021645,341.439697 C102.750824,343.464691 101.018806,345.768921 104.165192,347.124908 C105.128807,347.540161 107.831734,345.675659 108.717583,344.229828 C114.425919,334.913086 119.907852,325.454956 125.295738,315.947876 C125.951881,314.790070 125.602699,313.062561 125.719421,311.599060 C124.259392,312.173737 122.207642,312.326965 121.444595,313.398132 C118.568161,317.436340 116.110909,321.773163 113.154411,326.642944 M189.406204,316.597443 C192.286041,320.789368 194.165619,321.070618 196.485718,317.094299 C200.149033,310.815887 203.398346,304.295929 206.848251,297.830658 C204.340424,294.930267 202.171890,294.318878 200.103241,297.867188 C196.596054,303.883026 193.098648,309.904602 189.406204,316.597443 M239.607834,308.038300 C239.244537,309.195496 238.881256,310.352722 238.517960,311.509918 C239.057800,311.686981 239.597641,311.864044 240.137497,312.041107 C243.394745,307.434723 246.289841,302.648895 247.948700,297.250641 C247.404861,296.964996 246.861023,296.679382 246.317184,296.393768 C244.219971,300.082245 242.122742,303.770691 239.607834,308.038300 M216.495193,348.023132 C215.407867,350.441254 214.320557,352.859344 213.233231,355.277466 C213.825272,355.565491 214.417328,355.853516 215.009369,356.141541 C217.675049,351.423370 220.340714,346.705200 223.006393,341.987030 C222.413849,341.606018 221.821320,341.225006 221.228790,340.843994 C219.764374,343.019196 218.299942,345.194397 216.495193,348.023132 z"/>
  <path fill="#38374F" opacity="1.000000" stroke="none" d=" M449.805450,347.062408 C451.275543,347.046295 452.745667,347.030182 454.657288,347.036407 C464.050537,365.254852 474.205627,382.970764 479.520020,402.695496 C481.401794,409.679749 479.338654,416.771362 476.317413,423.451965 C475.313995,425.670898 474.712555,428.469513 475.065491,430.833130 C476.382782,439.654449 474.687592,446.132233 467.459106,452.987976 C456.520325,463.362762 443.526764,467.816254 429.866028,471.268036 C422.252380,473.191833 415.139008,470.604523 410.307129,463.778961 C408.832520,461.695953 407.486359,460.872925 404.583160,461.465759 C387.420013,464.970520 372.063660,457.366394 363.937561,441.742157 C358.513153,431.312561 353.076843,420.889191 347.353424,410.287506 C346.800964,407.193542 348.195801,405.900513 351.568573,406.368774 C352.648590,407.896637 353.172699,409.123474 353.787842,410.302826 C359.707581,421.652405 364.942078,433.436707 371.757233,444.221710 C379.626953,456.675537 391.812958,460.808624 405.588440,456.247345 C420.412201,451.339050 435.074219,445.825104 449.446808,439.727020 C455.426544,437.189850 461.035095,433.057495 465.822845,428.589996 C474.292755,420.686646 477.059448,410.712982 473.197235,399.430389 C471.636292,394.870453 470.037476,390.295044 468.032013,385.921051 C462.069397,372.916412 455.896271,360.008270 449.805450,347.062408 M470.183319,435.648163 C469.944031,434.087036 469.704773,432.525879 469.465485,430.964752 C468.978241,430.766602 468.491028,430.568451 468.003815,430.370300 C466.213684,432.921906 463.364136,435.283447 462.864838,438.066650 C461.961761,443.100922 459.845123,447.106537 455.630035,449.425446 C449.248749,452.936035 442.668182,456.291931 435.802032,458.622833 C432.556274,459.724670 427.474426,459.608276 424.951172,457.727417 C420.466064,454.384186 417.235809,455.713043 413.333374,457.633972 C416.685059,465.300629 422.638275,468.990082 430.155457,466.801514 C441.671234,463.448822 452.866180,459.074829 462.430603,451.466400 C467.232025,447.646881 470.228546,442.860901 470.183319,435.648163 M455.482574,445.951172 C456.864716,443.913269 458.246857,441.875336 459.628998,439.837402 C459.317719,439.635468 459.006470,439.433502 458.695190,439.231567 C447.532135,444.037262 436.369049,448.842957 425.205963,453.648682 C425.196960,454.250671 425.187958,454.852692 425.178955,455.454712 C428.201630,455.699005 431.611908,456.964325 434.172821,455.992188 C441.273132,453.296967 448.019684,449.669861 455.482574,445.951172 z"/>
  <path fill="#393850" opacity="1.000000" stroke="none" d=" M368.674622,302.039673 C366.242188,302.109436 363.809753,302.179230 361.377319,301.753601 C371.040924,297.032684 380.704529,292.807129 391.687225,288.004791 C389.048309,285.575958 387.414154,283.113159 385.145020,282.156372 C377.113770,278.770050 355.580048,289.659546 353.105865,298.035797 C353.012665,298.351410 352.987061,298.686981 352.929962,299.013275 C352.123016,298.851227 351.316040,298.689209 350.305481,297.954041 C351.471069,294.973358 352.310181,291.927612 354.303711,290.271790 C361.832336,284.018555 370.578217,279.975677 380.281525,278.445953 C384.599792,277.765167 388.495422,279.219513 391.341003,282.819122 C395.307037,287.836060 395.312592,287.831665 401.954102,285.098999 C397.873505,275.235596 390.525208,270.885315 380.397614,272.611755 C367.838531,274.752594 357.013580,280.964691 346.549347,287.770935 C344.480835,289.116364 343.330200,291.872986 341.756287,293.978821 C340.597931,293.174774 339.439545,292.370728 338.137512,291.286896 C339.302704,284.512512 345.112854,282.535278 349.834015,279.806549 C355.399994,276.589508 361.296112,273.802094 367.318695,271.549072 C376.937012,267.950867 387.018616,265.608398 396.584686,271.109772 C400.500824,273.361908 403.173798,277.737946 406.513184,281.045959 C408.281433,282.797607 410.017426,285.166962 412.196808,285.814789 C420.577118,288.305786 427.122528,292.833252 431.283661,300.613220 C435.491577,308.480682 439.707489,316.343933 444.002258,324.561768 C442.426208,325.059967 440.767822,325.205475 438.730652,324.811859 C433.530334,315.755096 429.322479,306.805420 423.715759,298.840424 C418.032928,290.767242 409.034607,286.921844 399.524719,289.638824 C388.925537,292.667053 378.931885,297.814636 368.674622,302.039673 z"/>
  <path fill="#515151" opacity="1.000000" stroke="none" d=" M93.960678,234.422943 C96.086922,234.516159 98.273132,234.965195 100.835419,235.905228 C101.483383,236.602982 101.755272,236.809753 102.027161,237.016525 C102.027161,237.016525 101.983742,237.013031 101.950478,237.367157 C105.596695,246.186691 109.947037,254.205017 117.031998,260.400848 C115.895477,261.599945 114.758957,262.799042 113.262299,264.022827 C107.671494,256.501770 102.375465,248.999954 97.254112,241.380722 C95.899811,239.365921 95.083824,236.989273 93.960678,234.422943 z"/>
  <path fill="#1C1C1C" opacity="1.000000" stroke="none" d=" M184.243088,347.161469 C185.012573,343.454285 187.268158,344.942505 189.063721,345.959442 C195.289078,349.485535 201.318848,353.366516 207.615326,356.755127 C216.263016,361.408997 216.347961,361.274841 221.118790,352.843262 C222.758194,349.945892 224.258057,346.967224 225.961716,344.109161 C227.866302,340.914062 226.886459,339.052673 223.737488,337.364685 C215.817886,333.119324 208.037018,328.614716 200.216766,324.185333 C199.523056,323.792419 198.947998,323.190033 197.995590,322.426666 C201.745392,315.436462 205.300751,308.503815 209.269135,301.816254 C209.738708,301.024902 212.851013,300.907898 214.089981,301.614746 C221.171219,305.654449 228.066345,310.021759 235.004730,314.310028 C241.046951,318.044495 241.533508,317.966522 244.879868,311.980011 C247.235489,307.765869 249.458176,303.477020 251.840881,299.278625 C253.268051,296.763885 252.841873,295.104553 250.315720,293.506622 C243.140060,288.967682 236.210449,284.032043 228.953537,279.632660 C225.566406,277.579254 224.719849,275.884033 226.756668,272.168182 C233.718491,259.467590 240.215347,246.512497 247.145065,233.793686 C249.093414,230.217667 248.610001,228.126175 245.176437,226.070587 C237.322189,221.368469 229.542679,216.534454 221.852875,211.568115 C218.596603,209.465073 216.982758,210.454330 215.202347,213.544800 C207.973358,226.092957 200.412766,238.450607 193.228165,251.023468 C191.291428,254.412674 189.412918,254.524048 186.459824,252.667587 C182.797928,250.365555 179.069519,248.144989 175.232880,246.153015 C172.184402,244.570236 171.771622,242.834747 173.412628,239.799011 C180.538315,226.617081 187.361359,213.271164 194.524673,200.110184 C196.717987,196.080505 196.070877,193.918381 191.865112,191.976044 C184.162201,188.418640 176.604355,184.527954 169.118561,180.528168 C165.707809,178.705750 163.704651,178.797272 161.532425,182.522171 C154.573593,194.455017 147.191284,206.140488 140.008865,217.943604 C136.269760,224.088242 136.314774,224.087524 129.979355,221.046967 C123.224426,217.805084 116.432884,214.639374 109.683250,211.386627 C102.195442,207.778091 102.208206,207.751602 97.245903,214.976959 C97.344971,211.718903 97.014153,207.968445 98.208328,204.791153 C101.053764,197.220367 104.129211,189.643417 108.093620,182.623459 C110.190598,178.910233 114.052979,175.935379 117.683601,173.454315 C119.539818,172.185837 122.702904,172.261246 125.166260,172.577850 C129.261307,173.104141 133.268509,174.313965 137.312698,175.235901 C137.533951,174.550598 137.755188,173.865295 137.976425,173.179977 C136.220551,172.456329 134.512436,171.571823 132.701401,171.033905 C114.565086,165.646805 96.374390,160.438126 78.297226,154.860870 C74.964462,153.832642 72.071899,151.377594 69.189857,148.989655 C72.626862,144.870605 75.850166,141.343002 79.142609,137.473953 C80.624367,133.442917 82.036972,129.753311 83.449577,126.063713 C100.278282,131.757050 117.021355,137.724869 133.975876,143.014954 C141.231903,145.278976 148.901443,146.304398 156.447678,147.476990 C157.925919,147.706680 159.701477,146.022842 161.322327,145.722351 C164.568466,144.960892 167.815414,144.202774 171.059509,143.432663 C171.378082,143.357025 171.883698,143.030533 171.959045,143.117615 C176.121796,147.928726 180.637344,142.941986 185.052277,143.392136 C190.305359,143.927750 196.237701,143.302963 199.362671,137.299957 C199.860992,136.342682 201.594360,135.078583 202.257782,135.321136 C205.153870,136.380020 206.932510,134.952469 209.442245,133.808884 C215.150681,131.207840 221.514969,130.087463 227.394897,127.804382 C230.436005,126.623550 233.004898,124.212967 236.581512,125.825371 C237.020081,124.709503 237.458649,123.593628 237.897217,122.477753 C238.107513,122.800415 238.317810,123.123070 238.528107,123.445732 C240.377731,122.264282 242.108719,120.784912 244.111298,119.987503 C246.007614,119.232384 248.188782,119.192619 250.244675,118.838242 C250.537659,119.402870 250.830658,119.967506 251.123657,120.532135 C251.994080,118.898109 252.864487,117.264091 254.129700,114.888916 C255.583008,117.435417 256.246918,118.598724 256.884705,119.716270 C257.329620,119.716270 257.784515,119.857521 257.957947,119.696182 C272.707184,105.976387 286.694366,91.553886 298.357758,75.052422 C301.617493,70.440514 304.433136,65.516922 307.609222,60.842831 C309.653442,57.834496 311.579102,54.520149 314.329102,52.296886 C316.133636,50.837986 319.314514,51.081493 321.878998,50.562576 C321.929565,53.064880 322.602081,55.771255 321.865692,58.015320 C321.035736,60.544582 318.937103,62.657543 317.317627,65.059311 C322.348236,65.550529 323.740997,63.368996 326.922333,50.209820 C329.945404,51.536083 331.574280,53.443512 330.570587,56.747555 C329.814087,59.237907 328.716553,61.624676 327.770813,64.057556 C328.404724,64.369637 329.038635,64.681725 329.672516,64.993805 C331.406036,62.197090 333.139526,59.400372 335.023163,56.361439 C338.676819,58.256886 338.575928,61.716568 337.474243,64.763626 C335.903748,69.107376 334.153778,73.624207 331.412476,77.262428 C322.918976,88.534981 314.036285,99.522308 305.067230,110.425056 C300.847015,115.555153 296.046295,120.204803 291.595459,125.150291 C290.578766,126.279984 289.920471,127.732216 288.858978,129.413300 C296.225128,129.264313 300.869965,132.399857 303.433136,138.734055 C304.303802,140.885651 305.078918,143.075928 305.715759,145.855591 C295.876190,153.664444 293.338318,163.921631 295.046906,174.899307 C297.681854,191.829147 296.898987,207.898895 290.722015,224.231415 C286.526337,235.325211 287.361755,247.573425 292.081085,258.891846 C295.956329,268.185791 303.970154,272.642181 313.515228,271.464417 C314.312775,274.069855 314.990753,276.720306 315.949829,279.264862 C316.590271,280.964111 317.388336,283.701935 318.531586,283.934875 C325.800232,285.416046 329.555267,290.271057 331.725739,296.992554 C331.995728,296.452087 332.265717,295.911591 332.535675,295.371094 C335.487030,296.273224 338.573364,296.875488 341.364899,298.132568 C350.452576,302.224976 359.213013,306.816711 369.890350,305.425720 C372.865692,305.038147 376.256073,307.845062 379.457672,309.182678 C382.741638,310.554688 385.587402,312.508667 389.775208,310.610565 C391.778870,309.702423 395.169006,311.853302 399.493774,313.051727 C393.127258,319.380920 388.043396,324.782166 382.546082,329.723419 C380.445129,331.611908 379.545227,333.105408 380.855103,335.620270 C382.037445,337.890289 383.385284,337.130432 385.595276,336.838104 C389.056885,336.380188 392.823090,337.722351 396.376770,338.629242 C398.998535,339.298309 401.418335,340.825134 404.052094,341.364471 C407.530731,342.076874 410.286163,343.166687 410.294678,347.502930 C414.459045,346.907715 415.520355,345.660065 414.161407,341.483337 C412.944183,337.742126 413.097382,333.358429 413.496460,329.342743 C413.901794,325.263824 415.347473,321.288330 416.635925,316.055908 C421.892029,322.248779 426.986542,327.609955 431.307281,333.535339 C435.087952,338.720062 435.070984,344.658173 434.226959,351.164246 C433.452881,357.131439 433.083191,362.948273 429.580444,367.932037 C426.954041,371.668945 423.738586,374.986908 420.900452,378.582214 C419.709198,380.091309 418.713898,381.780731 417.803925,383.481537 C414.713654,389.257294 411.701294,395.074738 408.028473,400.753662 C404.664551,399.541809 401.931305,398.452576 399.198090,397.363342 C398.446411,399.568665 397.694733,401.773987 396.943054,403.979309 C385.409058,400.975372 374.727661,396.095398 365.323761,388.773224 C363.400085,387.275391 362.584595,384.354340 362.131927,381.211884 C360.615265,380.891663 359.098572,380.571442 357.061371,380.141327 C357.793732,383.048920 359.514404,385.905457 358.823181,387.944214 C357.271912,392.519409 354.881805,396.947357 352.052673,400.872711 C351.146301,402.130280 347.700928,402.081970 345.598511,401.680939 C344.819305,401.532288 344.429932,398.684723 344.086548,397.021820 C342.715057,390.379974 341.581329,383.684479 340.019867,377.089294 C339.579468,375.229156 337.981628,373.643005 335.824249,372.290802 C335.718170,373.129089 335.241272,374.158875 335.560730,374.777405 C342.142914,387.523590 340.968781,401.258423 341.005310,414.900330 C341.033661,425.484863 341.666565,436.067688 342.028625,446.651367 C342.057037,447.483002 342.069214,448.315186 341.654907,449.626099 C335.485291,450.281830 331.955383,452.951660 331.006592,458.827454 C330.872040,459.660645 329.829010,460.793274 329.011841,460.993652 C325.272766,461.910583 323.608368,464.499664 322.780151,467.929871 C322.180481,467.427063 321.307098,467.046051 321.021240,466.403595 C314.254761,451.196198 307.057404,436.155121 300.965149,420.679596 C293.789001,402.450806 291.432892,383.361664 293.624298,363.790741 C293.826019,361.989227 293.457733,360.123901 293.354126,358.288208 C292.811676,358.198120 292.269226,358.108032 291.726807,358.017944 C291.192108,359.497772 290.249084,360.960480 290.186310,362.460052 C289.600311,376.455109 289.588440,390.419861 292.526581,404.240997 C292.872772,405.869476 292.447937,408.445984 291.350403,409.408813 C289.804016,410.765411 287.347656,411.927094 285.408905,408.963501 C284.913361,408.205994 282.997986,408.222198 281.720917,408.156799 C274.558655,407.790131 266.897614,409.761993 261.019836,403.524261 C260.686768,403.170746 259.704620,403.191193 259.112457,403.355194 C250.492523,405.742249 244.402420,401.026855 238.455063,396.004211 C231.037506,389.740082 223.778320,383.283783 216.245087,377.163666 C213.446136,374.889740 210.254822,372.851501 206.915451,371.535675 C196.176834,367.304230 192.456024,356.770416 185.849487,348.834015 C185.424698,348.323700 184.968582,347.839539 184.243088,347.161469 M388.873566,377.360229 C390.621796,379.942688 392.352600,382.537170 394.123901,385.103699 C395.479126,387.067261 397.200714,388.038574 398.726776,385.516815 C400.760406,382.156433 397.213531,373.626068 393.472473,372.336334 C389.918060,371.110962 388.359344,372.476624 388.873566,377.360229 M377.578278,378.733246 C374.826019,371.969757 368.092834,370.440704 362.421936,367.514862 C367.267578,371.146637 372.113251,374.778412 377.578278,378.733246 M379.460144,379.493713 C379.460144,379.493713 379.494598,379.536987 379.460144,379.493713 z"/>
  <path fill="#A9B8EF" opacity="1.000000" stroke="none" d=" M449.410370,347.052551 C455.896271,360.008270 462.069397,372.916412 468.032013,385.921051 C470.037476,390.295044 471.636292,394.870453 473.197235,399.430389 C477.059448,410.712982 474.292755,420.686646 465.822845,428.589996 C461.035095,433.057495 455.426544,437.189850 449.446808,439.727020 C435.074219,445.825104 420.412201,451.339050 405.588440,456.247345 C391.812958,460.808624 379.626953,456.675537 371.757233,444.221710 C364.942078,433.436707 359.707581,421.652405 353.787842,410.302826 C353.172699,409.123474 352.648590,407.896637 351.946533,406.360107 C354.612274,403.331604 357.413666,400.634888 360.700745,398.321350 C364.891663,403.997681 368.188934,409.647614 372.417633,414.483032 C376.596100,419.260986 382.428009,421.984436 388.919403,421.503540 C398.106567,420.822968 406.459656,417.408722 413.430206,411.345886 C419.543854,406.028381 420.030212,401.304047 416.028320,394.079773 C419.646393,388.334259 422.195831,382.199310 427.212311,376.981476 C433.330475,370.617737 438.370117,362.538513 437.327484,352.508514 C437.212830,351.405670 438.673126,349.435211 439.808716,349.043457 C442.756836,348.026520 445.931213,347.665466 449.410370,347.052551 M429.224457,417.723480 C433.964935,418.812408 437.851715,417.525970 440.200195,413.173126 C442.195465,409.474884 442.064758,405.245667 438.767365,402.753998 C436.322876,400.906799 432.168335,399.501801 429.489655,400.299072 C426.830078,401.090729 424.059845,404.560455 423.138763,407.433044 C421.732727,411.818085 424.270203,415.371765 429.224457,417.723480 z"/>
  <path fill="#ECE6E6" opacity="1.000000" stroke="none" d=" M313.811310,271.222076 C303.970154,272.642181 295.956329,268.185791 292.081085,258.891846 C287.361755,247.573425 286.526337,235.325211 290.722015,224.231415 C296.898987,207.898895 297.681854,191.829147 295.046906,174.899307 C293.338318,163.921631 295.876190,153.664444 305.761719,146.218994 C311.980194,149.140823 316.828552,153.657455 318.974152,160.057846 C324.510468,176.572983 323.845154,193.349380 321.937714,210.552826 C320.502075,223.501312 317.456940,235.633499 312.833740,247.607758 C312.336487,248.895645 312.335693,251.151230 313.130737,252.037155 C318.646393,258.183502 316.418304,264.542633 313.811310,271.222076 z"/>
  <path fill="#1C1C1C" opacity="1.000000" stroke="none" d=" M196.831055,448.027496 C197.357452,447.960144 197.883850,447.892792 199.065796,448.021118 C200.809982,449.130280 201.898621,450.043762 202.894989,451.365967 C201.691925,451.912537 200.239807,451.664246 199.547852,452.275909 C198.423233,453.270142 197.623108,454.760101 197.069366,456.189392 C196.912781,456.593536 198.346558,458.187622 198.612991,458.086151 C200.050247,457.538727 201.615936,456.871124 202.614655,455.770630 C203.452682,454.847198 203.574188,453.273499 204.177811,451.589355 C210.961456,451.164215 211.825653,450.015381 210.375656,443.170898 C216.016983,441.865448 221.658325,440.559998 227.870789,439.122406 C226.937592,438.392731 226.110184,437.822479 225.372726,437.153107 C223.857330,435.777588 222.150803,434.521576 220.974823,432.890564 C219.935074,431.448486 219.796112,429.359222 218.762756,427.909821 C213.475754,420.494293 211.834610,412.345367 212.743103,403.356262 C213.285751,397.987030 212.857056,392.525696 213.074646,387.114197 C213.151138,385.211975 213.852234,383.334839 214.563980,380.102692 C218.978317,383.736847 222.566193,386.756439 226.223953,389.688843 C235.046295,396.761780 242.303345,406.287354 254.950027,407.497589 C251.788864,420.145020 249.201508,432.477051 245.559677,444.489349 C242.172745,455.660889 232.496567,460.834320 222.323364,463.785492 C214.494156,466.056641 206.020905,466.333557 197.793137,466.870972 C195.235260,467.038116 192.235489,465.617981 189.981155,464.111694 C186.018143,461.463684 185.975632,456.945251 190.005737,453.171265 C194.622650,453.752228 196.801086,452.157990 196.831055,448.027496 z"/>
  <path fill="#E9E2E2" opacity="1.000000" stroke="none" d=" M322.836975,468.291260 C323.608368,464.499664 325.272766,461.910583 329.011841,460.993652 C329.829010,460.793274 330.872040,459.660645 331.006592,458.827454 C331.955383,452.951660 335.485291,450.281830 341.613983,450.061584 C345.950562,461.892181 352.710449,472.942291 352.801849,485.938934 C352.834473,490.574280 352.160919,495.137939 347.317200,498.209991 C348.381653,487.638458 348.381653,487.638458 345.343201,484.534607 C343.940369,489.876831 347.042603,496.620575 340.494049,499.666168 C338.741425,500.481262 336.565552,500.386200 335.208008,500.607330 C336.497681,495.715454 337.830811,491.456573 338.615784,487.098999 C338.803192,486.058716 337.161591,484.688995 336.361206,483.470795 C335.961395,483.640808 335.561584,483.810822 335.161774,483.980835 C335.278351,484.983429 335.721252,486.084717 335.453278,486.971008 C334.455750,490.270142 333.804169,493.907104 331.891998,496.620331 C330.445526,498.672729 327.161011,498.305481 326.626221,495.136108 C325.143463,486.348541 324.106750,477.485718 322.836975,468.291260 z"/>
  <path fill="#A8B6EC" opacity="1.000000" stroke="none" d=" M369.091370,302.017426 C378.931885,297.814636 388.925537,292.667053 399.524719,289.638824 C409.034607,286.921844 418.032928,290.767242 423.715759,298.840424 C429.322479,306.805420 433.530334,315.755096 438.454651,324.644653 C429.481628,325.741150 424.735168,322.732513 420.401855,314.360718 C418.909576,311.477631 416.766541,308.074219 414.064789,306.930420 C411.664551,305.914307 407.485992,306.845032 405.166870,308.459686 C402.243439,310.495026 400.179108,310.664154 397.151794,309.237549 C393.699310,307.610596 390.266907,305.403259 385.988708,307.979126 C384.919098,308.623169 382.391418,306.892212 380.552795,306.202332 C376.864319,304.818359 373.188904,303.399567 369.091370,302.017426 z"/>
  <path fill="#EBE4E4" opacity="1.000000" stroke="none" d=" M104.701996,69.612061 C112.856094,72.458076 117.759338,78.387024 121.736771,85.755379 C121.961716,86.521805 122.166519,87.110107 121.971733,87.497452 C117.973839,95.447136 101.600632,100.477966 93.775238,96.195976 C87.565285,92.797951 86.039185,85.916595 91.013672,80.765076 C94.999443,76.637459 99.868446,73.362732 104.701996,69.612061 z"/>
  <path fill="#A4B2E7" opacity="1.000000" stroke="none" d=" M341.950928,294.278748 C343.330200,291.872986 344.480835,289.116364 346.549347,287.770935 C357.013580,280.964691 367.838531,274.752594 380.397614,272.611755 C390.525208,270.885315 397.873505,275.235596 401.954102,285.098999 C395.312592,287.831665 395.307037,287.836060 391.341003,282.819122 C388.495422,279.219513 384.599792,277.765167 380.281525,278.445953 C370.578217,279.975677 361.832336,284.018555 354.303711,290.271790 C352.310181,291.927612 351.471069,294.973358 350.067444,297.751282 C347.403839,296.940643 344.774689,295.759644 341.950928,294.278748 z"/>
  <path fill="#8D9DE2" opacity="1.000000" stroke="none" d=" M353.169342,299.271057 C352.987061,298.686981 353.012665,298.351410 353.105865,298.035797 C355.580048,289.659546 377.113770,278.770050 385.145020,282.156372 C387.414154,283.113159 389.048309,285.575958 391.687225,288.004791 C380.704529,292.807129 371.040924,297.032684 361.117676,301.480286 C358.374939,300.977844 355.891815,300.253326 353.169342,299.271057 z"/>
  <path fill="#C3CFEA" opacity="1.000000" stroke="none" d=" M395.120605,408.192474 C397.071808,408.190521 399.023285,408.168121 400.974213,408.190369 C407.087585,408.260101 411.117462,405.205750 413.953461,399.863342 C412.751007,402.838531 411.920593,406.890228 409.489777,408.453644 C404.274780,411.807892 398.363922,414.236420 392.492157,416.366364 C387.348572,418.232178 382.199890,416.899689 377.812073,413.719025 C370.297119,408.271515 365.632324,400.781281 363.037354,391.940338 C369.084686,395.505371 375.131989,399.070435 381.507324,403.211121 C386.118195,411.733398 389.006531,412.691254 395.120605,408.192474 z"/>
  <path fill="#3D3C54" opacity="1.000000" stroke="none" d=" M363.064819,391.963593 C365.632324,400.781281 370.297119,408.271515 377.812073,413.719025 C382.199890,416.899689 387.348572,418.232178 392.492157,416.366364 C398.363922,414.236420 404.274780,411.807892 409.489777,408.453644 C411.920593,406.890228 412.751007,402.838531 414.188904,399.565765 C414.568817,397.608429 415.066681,395.999969 415.796448,394.235657 C420.030212,401.304047 419.543854,406.028381 413.430206,411.345886 C406.459656,417.408722 398.106567,420.822968 388.919403,421.503540 C382.428009,421.984436 376.596100,419.260986 372.417633,414.483032 C368.188934,409.647614 364.891663,403.997681 361.076569,398.370148 C361.170135,396.205017 361.373566,394.374237 362.073578,392.311096 C362.570160,392.078705 363.059296,392.050812 363.059296,392.050812 C363.059296,392.050812 363.092285,391.986847 363.064819,391.963593 z"/>
  <path fill="#282828" opacity="1.000000" stroke="none" d=" M408.018402,335.935913 C401.586578,334.348877 395.154724,332.761841 388.352325,330.789612 C387.961609,330.179108 387.941467,329.953766 387.921326,329.728455 C388.669189,328.892365 389.417023,328.056274 390.789001,327.050110 C395.715454,323.416229 399.951691,319.865112 404.353119,316.532135 C406.085968,315.219910 408.187683,314.394745 410.121429,313.347748 C410.766571,314.912018 411.411713,316.476318 412.056885,318.040588 C412.056885,318.040588 412.004120,317.998474 411.776306,318.264221 C410.371796,324.331970 409.195099,330.133942 408.018402,335.935913 z"/>
  <path fill="#1E1E1E" opacity="1.000000" stroke="none" d=" M451.342712,342.606750 C447.281830,343.759155 443.220917,344.911560 439.294769,346.025696 C437.220245,339.987793 435.328766,334.482544 433.202301,328.293457 C439.835541,328.717194 446.074280,329.321777 451.897583,333.355530 C451.805115,336.890564 451.573914,339.748657 451.342712,342.606750 z"/>
  <path fill="#E5DEDE" opacity="1.000000" stroke="none" d=" M79.073463,137.815399 C75.850166,141.343002 72.626862,144.870605 69.161316,148.625595 C62.668064,149.018768 57.861053,143.258286 59.393806,136.749817 C61.125149,137.802673 62.666286,138.925583 64.362137,139.716980 C65.942268,140.454376 67.686989,140.839066 70.162758,141.638458 C66.631279,137.536255 63.747288,134.462234 61.296627,131.074722 C60.875519,130.492630 62.299351,128.575821 63.358841,126.165688 C66.354942,133.970612 71.965973,136.383530 78.824631,137.575424 C79.098244,137.865311 79.073463,137.815399 79.073463,137.815399 z"/>
  <path fill="#E5DFDF" opacity="1.000000" stroke="none" d=" M79.142609,137.473953 C79.073463,137.815399 79.098244,137.865311 79.099075,137.899353 C80.192909,134.886398 77.968208,134.591141 75.936943,133.647049 C73.165619,132.358978 70.209511,130.911377 68.171989,128.743332 C65.655678,126.065842 66.653648,122.710472 70.370506,122.727242 C74.594337,122.746292 78.810524,124.455833 83.239807,125.747116 C82.036972,129.753311 80.624367,133.442917 79.142609,137.473953 z"/>
  <path fill="#E4DDDD" opacity="1.000000" stroke="none" d=" M451.735291,342.767975 C451.573914,339.748657 451.805115,336.890564 452.130646,333.657593 C456.311005,334.844086 460.397003,336.405426 465.452393,338.337158 C460.767090,342.796539 456.609467,343.373627 451.735291,342.767975 z"/>
  <path fill="#202020" opacity="1.000000" stroke="none" d=" M412.323547,317.794495 C411.411713,316.476318 410.766571,314.912018 410.121429,313.347748 C408.187683,314.394745 406.085968,315.219910 404.353119,316.532135 C399.951691,319.865112 395.715454,323.416229 391.023315,326.893677 C396.257935,321.358246 401.782837,315.700714 407.600922,310.362793 C408.616394,309.431183 410.866333,309.845062 412.546143,309.637512 C412.560822,312.274475 412.575531,314.911407 412.323547,317.794495 z"/>
  <path fill="#E9CFE1" opacity="1.000000" stroke="none" d=" M210.036240,443.248932 C211.825653,450.015381 210.961456,451.164215 204.171417,451.615570 C204.000168,452.040192 204.053406,452.024445 204.237030,451.673889 C203.936066,451.189819 203.451492,451.056335 202.955353,450.946106 C202.943802,450.969360 202.987259,450.957275 202.987259,450.957275 C201.898621,450.043762 200.809982,449.130280 199.464386,448.035828 C202.703903,446.345612 206.200363,444.836273 210.036240,443.248932 z"/>
  <path fill="#EAD0E2" opacity="1.000000" stroke="none" d=" M397.217041,404.291382 C397.694733,401.773987 398.446411,399.568665 399.198090,397.363342 C401.931305,398.452576 404.664551,399.541809 407.674011,400.828674 C406.086914,406.964233 401.535767,405.043549 397.217041,404.291382 z"/>
  <path fill="#403F56" opacity="1.000000" stroke="none" d=" M394.926453,407.935791 C389.006531,412.691254 386.118195,411.733398 381.745544,403.436462 C386.014587,404.617157 390.373474,406.148132 394.926453,407.935791 z"/>
  <path fill="#202020" opacity="1.000000" stroke="none" d=" M408.326416,335.732483 C409.195099,330.133942 410.371796,324.331970 411.808624,318.274170 C410.923981,323.855225 409.779236,329.692139 408.326416,335.732483 z"/>
  <path fill="#D3BDCD" opacity="1.000000" stroke="none" d=" M196.473801,448.012451 C196.801086,452.157990 194.622650,453.752228 190.377121,453.098022 C192.096802,451.297302 194.106674,449.647369 196.473801,448.012451 z"/>
  <path fill="#000000" opacity="1.000000" stroke="none" d=" M239.376831,116.313461 C239.196808,116.791046 238.867599,117.136810 238.538406,117.482567 C238.519608,117.054474 238.500809,116.626381 238.699142,116.065926 C238.916260,115.933563 239.227676,116.181625 239.376831,116.313461 z"/>
  <path fill="#C3CFEA" opacity="1.000000" stroke="none" d=" M362.986023,391.893677 C363.059296,392.050812 362.570160,392.078705 362.332214,392.020386 C362.367096,391.886932 362.639893,391.811737 362.986023,391.893677 z"/>
  <path fill="#202020" opacity="1.000000" stroke="none" d=" M387.770020,329.894409 C387.941467,329.953766 387.961609,330.179108 388.008301,330.743408 C387.896149,330.741699 387.757416,330.401031 387.770020,329.894409 z"/>
  <path fill="#74AE81" opacity="1.000000" stroke="none" d=" M117.675537,267.714722 C120.934349,261.673798 123.973701,255.933594 127.133514,250.260483 C128.589127,247.647079 128.014404,246.021011 125.373940,244.637985 C116.375854,239.924942 107.522537,234.929749 98.453140,230.361511 C94.996040,228.620193 94.437386,226.829254 96.718994,223.891098 C97.125885,223.367142 97.460670,222.783218 97.794807,222.207291 C103.512459,212.352127 103.496536,212.381836 113.954170,217.462479 C120.245529,220.519028 126.696274,223.265167 132.873138,226.533081 C136.511002,228.457733 138.403122,227.717133 140.450180,224.246902 C147.894073,211.627747 155.615234,199.171982 163.255936,186.669327 C163.941406,185.547684 164.800537,184.532166 165.860352,183.082581 C171.067230,185.793274 176.281433,188.314011 181.226837,191.282593 C182.005936,191.750275 182.205063,194.574402 181.595642,195.751572 C174.934769,208.617767 168.126205,221.409195 161.212631,234.142120 C158.114395,239.848236 158.050171,240.372284 163.446030,243.524124 C171.640961,248.310913 179.949585,252.904724 188.103607,257.759094 C191.024124,259.497803 192.712234,259.236267 194.496582,256.142456 C201.816528,243.450790 209.458832,230.944626 216.740646,218.231659 C218.486801,215.183121 219.987122,214.483963 222.909943,216.528854 C226.044006,218.721542 229.232651,220.923752 232.655899,222.591339 C236.204544,224.320038 236.027405,226.218658 234.388123,229.279236 C227.625977,241.904388 221.190979,254.705597 214.363708,267.294556 C212.221985,271.243744 212.197189,273.413330 216.567001,275.953278 C224.761383,280.716217 232.427261,286.380402 240.426651,291.491821 C242.809601,293.014465 243.032944,294.415802 241.732666,296.778168 C233.304123,312.091309 236.343140,309.792755 223.047119,302.343506 C217.094406,299.008423 211.246994,295.465424 205.515427,291.763397 C202.298615,289.685669 200.308899,289.955017 198.363403,293.430695 C194.217102,300.838165 189.886887,308.149811 185.399384,315.355835 C183.443222,318.497009 185.001526,319.786499 187.449326,321.184448 C196.123962,326.138763 204.668655,331.329315 213.451965,336.080200 C216.988647,337.993164 217.531647,339.814575 215.357361,343.078796 C213.267365,346.216461 211.552200,349.603790 209.418228,353.324432 C199.595490,347.456116 190.175858,341.874634 180.804184,336.213745 C174.419083,332.356781 174.481262,332.323669 171.059372,338.984680 C164.978943,350.820740 158.855240,362.634552 152.428360,375.079834 C146.850525,372.294952 141.451065,369.827362 136.365982,366.826996 C135.555023,366.348511 135.515305,363.164124 136.204163,361.765015 C141.427475,351.156616 146.776443,340.602966 152.407654,330.206360 C154.431854,326.469208 154.017502,324.347900 150.298019,322.170502 C142.397232,317.545349 134.633072,312.672791 126.971970,307.658600 C123.552597,305.420624 121.479744,305.799225 119.351547,309.368317 C113.297363,319.521606 106.995422,329.527283 100.776634,339.582214 C100.091774,340.689514 99.313835,341.739227 98.160400,343.428986 C92.944000,340.131165 87.784637,337.148163 83.051537,333.597015 C82.281357,333.019165 82.826042,329.590210 83.733673,328.051727 C89.993454,317.440857 96.368263,306.890503 103.020317,296.522308 C105.463982,292.713440 104.858902,290.861328 100.884659,288.884583 C90.622238,283.780243 80.540154,278.313324 69.801292,272.684723 C72.285530,268.351349 74.304901,264.180481 77.024773,260.531769 C77.721184,259.597565 80.973221,259.634827 82.466766,260.386658 C89.750458,264.053131 96.929665,267.953033 103.970207,272.070618 C114.948433,278.491150 112.728134,276.713715 117.675537,267.714722 M130.938660,288.542542 C140.953079,294.448029 151.024399,300.260284 160.948746,306.313446 C164.099091,308.234924 165.662888,307.266663 167.243774,304.419495 C171.436035,296.869080 175.626968,289.308075 180.154968,281.958588 C182.072052,278.846924 181.353806,277.307312 178.487000,275.654541 C168.414856,269.847778 158.392746,263.952576 148.412704,257.988770 C145.218750,256.080139 143.506042,257.544434 142.028244,260.207855 C137.757080,267.905731 133.345276,275.530273 129.314743,283.351654 C128.732361,284.481781 129.941925,286.535339 130.938660,288.542542 z"/>
  <path fill="#557F5E" opacity="1.000000" stroke="none" d=" M164.671646,374.673553 C162.728546,380.053314 159.886215,379.219635 156.160706,376.013428 C162.701248,363.423370 169.294571,350.731659 175.859833,338.094025 C182.509872,341.022003 182.520767,341.399109 179.644043,346.630341 C174.597748,355.806854 169.762848,365.099579 164.671646,374.673553 z"/>
  <path fill="#557F5E" opacity="1.000000" stroke="none" d=" M170.327896,237.373291 C168.710587,238.577637 167.261993,239.452759 165.813385,240.327896 C165.510971,238.617981 164.396591,236.486908 165.031357,235.263092 C171.610916,222.578003 178.492340,210.049820 185.242432,197.452621 C187.112976,193.961777 189.204758,194.934570 192.101334,196.933762 C184.801651,210.486023 177.649124,223.765060 170.327896,237.373291 z"/>
  <path fill="#547F5E" opacity="1.000000" stroke="none" d=" M217.751343,269.552429 C225.023849,255.310455 232.154236,241.394470 239.394424,227.264175 C242.531738,228.488541 245.130966,229.457199 243.103851,233.330322 C236.771530,245.429337 230.483215,257.551453 224.125427,269.637024 C223.370193,271.072662 222.290802,272.337830 220.572784,274.823395 C219.292938,272.687836 218.451080,271.283112 217.751343,269.552429 z"/>
  <path fill="#1D1E1D" opacity="1.000000" stroke="none" d=" M117.303856,260.154602 C109.947037,254.205017 105.596695,246.186691 101.956123,237.346130 C108.459267,240.207596 114.994347,243.316696 121.308289,246.823914 C122.213928,247.326965 122.730446,250.019379 122.250832,251.234222 C121.053123,254.267960 119.178612,257.034546 117.303856,260.154602 z"/>
  <path fill="#547F5E" opacity="1.000000" stroke="none" d=" M113.325562,326.320557 C116.110909,321.773163 118.568161,317.436340 121.444595,313.398132 C122.207642,312.326965 124.259392,312.173737 125.719421,311.599060 C125.602699,313.062561 125.951881,314.790070 125.295738,315.947876 C119.907852,325.454956 114.425919,334.913086 108.717583,344.229828 C107.831734,345.675659 105.128807,347.540161 104.165192,347.124908 C101.018806,345.768921 102.750824,343.464691 104.021645,341.439697 C107.102531,336.530426 110.114601,331.577972 113.325562,326.320557 z"/>
  <path fill="#547F5E" opacity="1.000000" stroke="none" d=" M189.501663,316.260620 C193.098648,309.904602 196.596054,303.883026 200.103241,297.867188 C202.171890,294.318878 204.340424,294.930267 206.848251,297.830658 C203.398346,304.295929 200.149033,310.815887 196.485718,317.094299 C194.165619,321.070618 192.286041,320.789368 189.501663,316.260620 z"/>
  <path fill="#537E5C" opacity="1.000000" stroke="none" d=" M239.816681,307.748718 C242.122742,303.770691 244.219971,300.082245 246.317184,296.393768 C246.861023,296.679382 247.404861,296.964996 247.948700,297.250641 C246.289841,302.648895 243.394745,307.434723 240.137497,312.041107 C239.597641,311.864044 239.057800,311.686981 238.517960,311.509918 C238.881256,310.352722 239.244537,309.195496 239.816681,307.748718 z"/>
  <path fill="#537E5C" opacity="1.000000" stroke="none" d=" M216.665359,347.696381 C218.299942,345.194397 219.764374,343.019196 221.228790,340.843994 C221.821320,341.225006 222.413849,341.606018 223.006393,341.987030 C220.340714,346.705200 217.675049,351.423370 215.009369,356.141541 C214.417328,355.853516 213.825272,355.565491 213.233231,355.277466 C214.320557,352.859344 215.407867,350.441254 216.665359,347.696381 z"/>
  <path fill="#1D1E1D" opacity="1.000000" stroke="none" d=" M101.917236,236.780518 C101.755272,236.809753 101.483383,236.602982 101.093094,236.161499 C101.252228,236.132690 101.529770,236.338593 101.917236,236.780518 z"/>
  <path fill="#A4B2E7" opacity="1.000000" stroke="none" d=" M470.184692,436.081116 C470.228546,442.860901 467.232025,447.646881 462.430603,451.466400 C452.866180,459.074829 441.671234,463.448822 430.155457,466.801514 C422.638275,468.990082 416.685059,465.300629 413.333374,457.633972 C417.235809,455.713043 420.466064,454.384186 424.951172,457.727417 C427.474426,459.608276 432.556274,459.724670 435.802032,458.622833 C442.668182,456.291931 449.248749,452.936035 455.630035,449.425446 C459.845123,447.106537 461.961761,443.100922 462.864838,438.066650 C463.364136,435.283447 466.213684,432.921906 468.003815,430.370300 C468.491028,430.568451 468.978241,430.766602 469.465485,430.964752 C469.704773,432.525879 469.944031,434.087036 470.184692,436.081116 z"/>
  <path fill="#8999DC" opacity="1.000000" stroke="none" d=" M455.194305,446.181091 C448.019684,449.669861 441.273132,453.296967 434.172821,455.992188 C431.611908,456.964325 428.201630,455.699005 425.178955,455.454712 C425.187958,454.852692 425.196960,454.250671 425.205963,453.648682 C436.369049,448.842957 447.532135,444.037262 458.695190,439.231567 C459.006470,439.433502 459.317719,439.635468 459.628998,439.837402 C458.246857,441.875336 456.864716,443.913269 455.194305,446.181091 z"/>
  <path fill="#4E4E4E" opacity="1.000000" stroke="none" d=" M388.668701,377.042419 C388.359344,372.476624 389.918060,371.110962 393.472473,372.336334 C397.213531,373.626068 400.760406,382.156433 398.726776,385.516815 C397.200714,388.038574 395.479126,387.067261 394.123901,385.103699 C392.352600,382.537170 390.621796,379.942688 388.668701,377.042419 z"/>
  <path fill="#8F8B8B" opacity="1.000000" stroke="none" d=" M377.268585,378.571716 C372.113251,374.778412 367.267578,371.146637 362.421936,367.514862 C368.092834,370.440704 374.826019,371.969757 377.268585,378.571716 z"/>
  <path fill="#8F8B8B" opacity="1.000000" stroke="none" d=" M379.477356,379.515350 C379.494598,379.536987 379.460144,379.493713 379.477356,379.515350 z"/>
  <path fill="#35344B" opacity="1.000000" stroke="none" d=" M428.854187,417.572205 C424.270203,415.371765 421.732727,411.818085 423.138763,407.433044 C424.059845,404.560455 426.830078,401.090729 429.489655,400.299072 C432.168335,399.501801 436.322876,400.906799 438.767365,402.753998 C442.064758,405.245667 442.195465,409.474884 440.200195,413.173126 C437.851715,417.525970 433.964935,418.812408 428.854187,417.572205 z"/>
  <path fill="#E4CBDC" opacity="1.000000" stroke="none" d=" M204.006561,452.013977 C203.574188,453.273499 203.452682,454.847198 202.614655,455.770630 C201.615936,456.871124 200.050247,457.538727 198.612991,458.086151 C198.346558,458.187622 196.912781,456.593536 197.069366,456.189392 C197.623108,454.760101 198.423233,453.270142 199.547852,452.275909 C200.239807,451.664246 201.691925,451.912537 202.894989,451.365967 C202.987259,450.957275 202.943802,450.969360 202.738098,451.330780 C203.039413,451.802948 203.546417,451.913696 204.053406,452.024414 C204.053406,452.024445 204.000168,452.040192 204.006561,452.013977 z"/>
  <path fill="#1C1C1C" opacity="1.000000" stroke="none" d=" M204.237030,451.673859 C203.546417,451.913696 203.039413,451.802948 202.749664,451.307526 C203.451492,451.056335 203.936066,451.189819 204.237030,451.673859 z"/>
  <path fill="#4A7047" opacity="1.000000" stroke="none" d=" M130.630463,288.352051 C129.941925,286.535339 128.732361,284.481781 129.314743,283.351654 C133.345276,275.530273 137.757080,267.905731 142.028244,260.207855 C143.506042,257.544434 145.218750,256.080139 148.412704,257.988770 C158.392746,263.952576 168.414856,269.847778 178.487000,275.654541 C181.353806,277.307312 182.072052,278.846924 180.154968,281.958588 C175.626968,289.308075 171.436035,296.869080 167.243774,304.419495 C165.662888,307.266663 164.099091,308.234924 160.948746,306.313446 C151.024399,300.260284 140.953079,294.448029 130.630463,288.352051 M145.757736,287.297943 C144.757965,289.094940 142.631699,290.965454 145.578094,292.764526 C151.362473,296.296600 157.230225,299.692047 163.466583,303.382599 C168.212448,295.164917 172.657608,287.467896 177.341263,279.357910 C171.130676,275.663849 165.504913,272.145874 159.661819,269.036224 C158.831436,268.594299 156.353134,269.748016 155.649048,270.824707 C152.280167,275.976318 149.259705,281.355713 145.757736,287.297943 M151.876038,264.434082 C146.322433,261.165375 146.250229,261.121704 142.849762,266.742523 C140.010254,271.436035 137.436523,276.290100 134.606552,280.989624 C133.120102,283.458008 132.553894,285.178223 135.727020,287.035187 C138.675613,288.760773 140.584473,289.330933 142.508179,285.861176 C145.732285,280.045837 149.298645,274.420044 152.511154,268.598724 C153.046158,267.629242 152.517715,266.072968 151.876038,264.434082 z"/>
  <path fill="#1C1D1C" opacity="1.000000" stroke="none" d=" M145.936584,286.976074 C149.259705,281.355713 152.280167,275.976318 155.649048,270.824707 C156.353134,269.748016 158.831436,268.594299 159.661819,269.036224 C165.504913,272.145874 171.130676,275.663849 177.341263,279.357910 C172.657608,287.467896 168.212448,295.164917 163.466583,303.382599 C157.230225,299.692047 151.362473,296.296600 145.578094,292.764526 C142.631699,290.965454 144.757965,289.094940 145.936584,286.976074 z"/>
  <path fill="#557F5E" opacity="1.000000" stroke="none" d=" M152.178375,264.610962 C152.517715,266.072968 153.046158,267.629242 152.511154,268.598724 C149.298645,274.420044 145.732285,280.045837 142.508179,285.861176 C140.584473,289.330933 138.675613,288.760773 135.727020,287.035187 C132.553894,285.178223 133.120102,283.458008 134.606552,280.989624 C137.436523,276.290100 140.010254,271.436035 142.849762,266.742523 C146.250229,261.121704 146.322433,261.165375 152.178375,264.610962 z"/>
</svg>