<?xml version="1.0" standalone="no"?>
<!DOCTYPE svg PUBLIC "-//W3C//DTD SVG 1.1//EN" "http://www.w3.org/Graphics/SVG/1.1/DTD/svg11.dtd" >
<svg xmlns="http://www.w3.org/2000/svg" xmlns:xlink="http://www.w3.org/1999/xlink" version="1.1">
<metadata>
Created by FontForge 20201107 at Fri Apr  1 07:00:00 2022
 By Unknown
Copyright (c) October 2022 Discord Inc.
</metadata>
<defs>
<font id="ggsans-ExtraBoldItalic" horiz-adv-x="0" >
  <font-face 
    font-family="gg sans ExtraBold"
    font-weight="800"
    font-style="italic"
    font-stretch="normal"
    units-per-em="1000"
    panose-1="0 0 9 0 0 0 0 0 0 0"
    ascent="800"
    descent="-200"
    x-height="470"
    cap-height="690"
    bbox="-472 -215 1108 1101"
    underline-thickness="50"
    underline-position="-100"
    slope="-12"
    unicode-range="U+0020-FB02"
  />
<missing-glyph horiz-adv-x="600" 
 />
    <glyph glyph-name="f_i.liga" unicode="fi" horiz-adv-x="647" 
d="M41 0l72 341h-69l28 129h69l19 90q20 96 73 140t146 44q28 0 48 -4t40 -12l-27 -129q-24 15 -59 15q-58 0 -71 -61l-18 -83h117l-28 -129h-116l-72 -341h-152zM530 561q-24 24 -24 65t24 65.5t66 24.5t65.5 -24t23.5 -66q0 -41 -23.5 -65t-65.5 -24t-66 24zM539 0h-152
l100 470h152z" />
    <glyph glyph-name="f_l.liga" unicode="fl" horiz-adv-x="691" 
d="M41 0l72 341h-69l28 129h69l19 90q20 96 73 140t146 44q28 0 48 -4t40 -12l-27 -129q-24 15 -59 15q-58 0 -71 -61l-18 -83h117l-28 -129h-116l-72 -341h-152zM449 18.5q-32 32.5 -32 94.5q0 35 8 70l116 547h152l-117 -550q-2 -14 -2 -19q0 -19 9.5 -30t27.5 -11t31 8
l-27 -127q-30 -15 -71 -15q-63 0 -95 32.5z" />
    <glyph glyph-name=".notdef" horiz-adv-x="600" 
 />
    <glyph glyph-name="glyph1" horiz-adv-x="600" 
 />
    <glyph glyph-name="space" unicode=" " horiz-adv-x="220" 
 />
    <glyph glyph-name="A" unicode="A" horiz-adv-x="709" 
d="M653 0h-168l-16 124h-264l-67 -124h-182l404 690h178zM419 520l-137 -254h169z" />
    <glyph glyph-name="Aacute" unicode="&#xc1;" horiz-adv-x="709" 
d="M653 0h-168l-16 124h-264l-67 -124h-182l404 690h178zM419 520l-137 -254h169zM531 766h-125l86 144h177z" />
    <glyph glyph-name="Abreve" unicode="&#x102;" horiz-adv-x="709" 
d="M653 0h-168l-16 124h-264l-67 -124h-182l404 690h178zM419 520l-137 -254h169zM384 797q-36 31 -36 82q0 15 3 31h100q-2 -10 -2 -15q0 -19 10 -30.5t27 -11.5q23 0 38 15.5t20 41.5h100q-15 -74 -53.5 -109t-106.5 -35q-64 0 -100 31z" />
    <glyph glyph-name="uni1EAE" unicode="&#x1eae;" horiz-adv-x="709" 
d="M653 0h-168l-16 124h-264l-67 -124h-182l404 690h178zM419 520l-137 -254h169zM384 797q-36 31 -36 82q0 15 3 31h100q-2 -10 -2 -15q0 -19 10 -30.5t27 -11.5q23 0 38 15.5t20 41.5h100q-15 -74 -53.5 -109t-106.5 -35q-64 0 -100 31zM561 943h-125l86 144h177z" />
    <glyph glyph-name="uni1EB6" unicode="&#x1eb6;" horiz-adv-x="709" 
d="M653 0h-168l-16 124h-264l-67 -124h-182l404 690h178zM419 520l-137 -254h169zM222 -175q-21 21 -21 58q0 36 21 57t58 21q36 0 57 -21t21 -57q0 -37 -21 -58t-57 -21q-37 0 -58 21zM384 797q-36 31 -36 82q0 15 3 31h100q-2 -10 -2 -15q0 -19 10 -30.5t27 -11.5
q23 0 38 15.5t20 41.5h100q-15 -74 -53.5 -109t-106.5 -35q-64 0 -100 31z" />
    <glyph glyph-name="uni1EB0" unicode="&#x1eb0;" horiz-adv-x="709" 
d="M653 0h-168l-16 124h-264l-67 -124h-182l404 690h178zM419 520l-137 -254h169zM384 797q-36 31 -36 82q0 15 3 31h100q-2 -10 -2 -15q0 -19 10 -30.5t27 -11.5q23 0 38 15.5t20 41.5h100q-15 -74 -53.5 -109t-106.5 -35q-64 0 -100 31zM562 943h-118l-86 144h173z" />
    <glyph glyph-name="uni1EB2" unicode="&#x1eb2;" horiz-adv-x="709" 
d="M653 0h-168l-16 124h-264l-67 -124h-182l404 690h178zM419 520l-137 -254h169zM386 797q-36 31 -36 82q0 15 3 31h100q-2 -10 -2 -15q0 -19 10 -30.5t27 -11.5q23 0 38 15.5t20 41.5h100q-15 -74 -53.5 -109t-106.5 -35q-64 0 -100 31zM459 960q20 20 20 36q0 9 -6 14
t-17 5q-16 0 -33 -10l-24 72q16 10 40.5 17t51.5 7q49 0 73 -21t24 -58t-18.5 -61.5t-58.5 -43.5z" />
    <glyph glyph-name="uni1EB4" unicode="&#x1eb4;" horiz-adv-x="709" 
d="M653 0h-168l-16 124h-264l-67 -124h-182l404 690h178zM419 520l-137 -254h169zM384 797q-36 31 -36 82q0 15 3 31h100q-2 -10 -2 -15q0 -19 10 -30.5t27 -11.5q23 0 38 15.5t20 41.5h100q-15 -74 -53.5 -109t-106.5 -35q-64 0 -100 31zM544.5 958.5q-16.5 5.5 -35.5 15.5
q-2 1 -16 7.5t-27 6.5t-29.5 -8t-31.5 -25l-61 53q42 76 124 76q23 0 39 -4.5t33 -12.5q13 -7 22.5 -10t22.5 -3q33 0 62 33l48 -67q-23 -36 -47 -51.5t-65 -15.5q-22 0 -38.5 5.5z" />
    <glyph glyph-name="Acircumflex" unicode="&#xc2;" horiz-adv-x="709" 
d="M653 0h-168l-16 124h-264l-67 -124h-182l404 690h178zM419 520l-137 -254h169zM426 766h-119l140 144h96l83 -144h-108l-36 55z" />
    <glyph glyph-name="uni1EA4" unicode="&#x1ea4;" horiz-adv-x="709" 
d="M653 0h-168l-16 124h-264l-67 -124h-182l404 690h178zM419 520l-137 -254h169zM668 910h-101l66 144h150zM426 766h-119l140 144h96l83 -144h-108l-36 55z" />
    <glyph glyph-name="uni1EAC" unicode="&#x1eac;" horiz-adv-x="709" 
d="M653 0h-168l-16 124h-264l-67 -124h-182l404 690h178zM419 520l-137 -254h169zM222 -175q-21 21 -21 58q0 36 21 57t58 21q36 0 57 -21t21 -57q0 -37 -21 -58t-57 -21q-37 0 -58 21zM426 766h-119l140 144h96l83 -144h-108l-36 55z" />
    <glyph glyph-name="uni1EA6" unicode="&#x1ea6;" horiz-adv-x="709" 
d="M653 0h-168l-16 124h-264l-67 -124h-182l404 690h178zM419 520l-137 -254h169zM681 910h-94l-65 144h141zM426 766h-119l140 144h96l83 -144h-108l-36 55z" />
    <glyph glyph-name="uni1EA8" unicode="&#x1ea8;" horiz-adv-x="709" 
d="M653 0h-168l-16 124h-264l-67 -124h-182l404 690h178zM419 520l-137 -254h169zM573 921q9 6 14 15.5t5 16.5q0 19 -23 19q-15 0 -36 -9l-22 71q15 11 39 17.5t51 6.5q50 0 76 -20t26 -58q0 -37 -18.5 -62t-58.5 -48zM424 766h-119l140 144h96l83 -144h-108l-36 55z" />
    <glyph glyph-name="uni1EAA" unicode="&#x1eaa;" horiz-adv-x="709" 
d="M653 0h-168l-16 124h-264l-67 -124h-182l404 690h178zM419 520l-137 -254h169zM341 984q22 40 52.5 59t74.5 19q23 0 39.5 -5t33.5 -13q26 -12 42 -12q20 0 31 6t32 27l43 -67q-18 -37 -43.5 -50.5t-67.5 -13.5q-21 0 -38 5t-37 14q-28 13 -42 13q-18 0 -34 -8t-35 -25z
M431 766h-119l140 144h96l83 -144h-108l-36 55z" />
    <glyph glyph-name="Adieresis" unicode="&#xc4;" horiz-adv-x="709" 
d="M653 0h-168l-16 124h-264l-67 -124h-182l404 690h178zM419 520l-137 -254h169zM335.5 795.5q-19.5 19.5 -19.5 54.5t19.5 55t55.5 20q35 0 54.5 -20t19.5 -55t-19.5 -54.5t-54.5 -19.5q-36 0 -55.5 19.5zM524 795.5q-20 19.5 -20 54.5t20 55t55 20t55 -20t20 -55
t-20 -54.5t-55 -19.5t-55 19.5z" />
    <glyph glyph-name="uni1EA0" unicode="&#x1ea0;" horiz-adv-x="709" 
d="M653 0h-168l-16 124h-264l-67 -124h-182l404 690h178zM419 520l-137 -254h169zM222 -175q-21 21 -21 58q0 36 21 57t58 21q36 0 57 -21t21 -57q0 -37 -21 -58t-57 -21q-37 0 -58 21z" />
    <glyph glyph-name="Agrave" unicode="&#xc0;" horiz-adv-x="709" 
d="M653 0h-168l-16 124h-264l-67 -124h-182l404 690h178zM419 520l-137 -254h169zM526 766h-118l-86 144h173z" />
    <glyph glyph-name="uni1EA2" unicode="&#x1ea2;" horiz-adv-x="709" 
d="M653 0h-168l-16 124h-264l-67 -124h-182l404 690h178zM419 520l-137 -254h169zM455 786q20 20 20 36q0 9 -6 14t-17 5q-16 0 -33 -10l-24 72q16 10 40.5 17t51.5 7q49 0 73 -21t24 -58t-18.5 -61.5t-58.5 -43.5z" />
    <glyph glyph-name="Amacron" unicode="&#x100;" horiz-adv-x="709" 
d="M653 0h-168l-16 124h-264l-67 -124h-182l404 690h178zM419 520l-137 -254h169zM607 801h-267l24 109h267z" />
    <glyph glyph-name="Aogonek" unicode="&#x104;" horiz-adv-x="709" 
d="M591 -99q6 -6 15 -6q11 0 23 6v-85q-19 -12 -68 -12q-39 0 -61 24t-22 65q0 31 15 59.5t43 47.5h-51l-16 124h-264l-67 -124h-182l404 690h178l115 -690q-28 -17 -48 -40t-20 -42q0 -11 6 -17zM419 520l-137 -254h169z" />
    <glyph glyph-name="Aring" unicode="&#xc5;" horiz-adv-x="709" 
d="M653 0h-168l-16 124h-264l-67 -124h-182l404 690h178zM419 520l-137 -254h169zM405.5 775q-23.5 23 -23.5 58q0 50 32 82.5t88 32.5q39 0 62.5 -23t23.5 -58q0 -50 -32 -82.5t-88 -32.5q-39 0 -62.5 23zM508 826.5q11 13.5 11 32.5q0 12 -7 20t-19 8q-20 0 -30.5 -13.5
t-10.5 -32.5q0 -12 6.5 -20t18.5 -8q20 0 31 13.5z" />
    <glyph glyph-name="Atilde" unicode="&#xc3;" horiz-adv-x="709" 
d="M653 0h-168l-16 124h-264l-67 -124h-182l404 690h178zM419 520l-137 -254h169zM507.5 798.5q-16.5 5.5 -35.5 15.5q-2 1 -16 7.5t-27 6.5t-29.5 -8t-31.5 -25l-61 53q42 76 124 76q23 0 39 -4.5t33 -12.5q13 -7 22.5 -10t22.5 -3q33 0 62 33l48 -67q-23 -36 -47 -51.5
t-65 -15.5q-22 0 -38.5 5.5z" />
    <glyph glyph-name="AE" unicode="&#xc6;" horiz-adv-x="1035" 
d="M1081 690l-30 -145h-320l-25 -116h272l-31 -145h-272l-30 -139h327l-30 -145h-488l26 124h-236l-89 -124h-199l514 690h611zM546 545l-200 -279h164l59 279h-23z" />
    <glyph glyph-name="AEacute" unicode="&#x1fc;" horiz-adv-x="1035" 
d="M1081 690l-30 -145h-320l-25 -116h272l-31 -145h-272l-30 -139h327l-30 -145h-488l26 124h-236l-89 -124h-199l514 690h611zM546 545l-200 -279h164l59 279h-23zM839 766h-125l86 144h177z" />
    <glyph glyph-name="B" unicode="B" horiz-adv-x="628" 
d="M16 0l146 690h261q95 0 146.5 -42t51.5 -117q0 -64 -36 -108t-98 -62q103 -33 103 -143q0 -103 -70.5 -160.5t-200.5 -57.5h-303zM365 419q98 0 98 79q0 57 -76 57h-92l-29 -136h99zM316 135q53 0 83 21t30 62q0 66 -88 66h-104l-32 -149h111z" />
    <glyph glyph-name="C" unicode="C" horiz-adv-x="662" 
d="M183 19q-61 33 -94.5 96t-33.5 152q0 124 48 223.5t139.5 156.5t216.5 57q94 0 156 -35t89 -105l-136 -81q-14 35 -48.5 55.5t-83.5 20.5q-66 0 -116 -38t-77 -100t-27 -133q0 -78 34.5 -117.5t96.5 -39.5q43 0 82.5 22.5t67.5 62.5l113 -90q-50 -71 -116.5 -105.5
t-170.5 -34.5q-79 0 -140 33z" />
    <glyph glyph-name="Cacute" unicode="&#x106;" horiz-adv-x="662" 
d="M183 19q-61 33 -94.5 96t-33.5 152q0 124 48 223.5t139.5 156.5t216.5 57q94 0 156 -35t89 -105l-136 -81q-14 35 -48.5 55.5t-83.5 20.5q-66 0 -116 -38t-77 -100t-27 -133q0 -78 34.5 -117.5t96.5 -39.5q43 0 82.5 22.5t67.5 62.5l113 -90q-50 -71 -116.5 -105.5
t-170.5 -34.5q-79 0 -140 33zM544 766h-125l86 144h177z" />
    <glyph glyph-name="Ccaron" unicode="&#x10c;" horiz-adv-x="662" 
d="M183 19q-61 33 -94.5 96t-33.5 152q0 124 48 223.5t139.5 156.5t216.5 57q94 0 156 -35t89 -105l-136 -81q-14 35 -48.5 55.5t-83.5 20.5q-66 0 -116 -38t-77 -100t-27 -133q0 -78 34.5 -117.5t96.5 -39.5q43 0 82.5 22.5t67.5 62.5l113 -90q-50 -71 -116.5 -105.5
t-170.5 -34.5q-79 0 -140 33zM529 766h-96l-83 144h108l36 -55l56 55h119z" />
    <glyph glyph-name="Ccedilla" unicode="&#xc7;" horiz-adv-x="662" 
d="M429.5 153.5q39.5 22.5 67.5 62.5l113 -90q-47 -67 -109 -101.5t-156 -38.5l-32 -34q39 0 60.5 -18t21.5 -53q0 -96 -126 -96q-28 0 -48 3t-39 11l30 70q27 -12 55 -12q13 0 21 4.5t8 13.5q0 17 -22 17q-6 0 -13 -1.5t-12 -4.5l-39 34l49 72q-95 18 -149.5 89.5
t-54.5 185.5q0 124 48 223.5t139.5 156.5t216.5 57q94 0 156 -35t89 -105l-136 -81q-14 35 -48.5 55.5t-83.5 20.5q-66 0 -116 -38t-77 -100t-27 -133q0 -78 34.5 -117.5t96.5 -39.5q43 0 82.5 22.5z" />
    <glyph glyph-name="Ccircumflex" unicode="&#x108;" horiz-adv-x="662" 
d="M183 19q-61 33 -94.5 96t-33.5 152q0 124 48 223.5t139.5 156.5t216.5 57q94 0 156 -35t89 -105l-136 -81q-14 35 -48.5 55.5t-83.5 20.5q-66 0 -116 -38t-77 -100t-27 -133q0 -78 34.5 -117.5t96.5 -39.5q43 0 82.5 22.5t67.5 62.5l113 -90q-50 -71 -116.5 -105.5
t-170.5 -34.5q-79 0 -140 33zM439 766h-119l140 144h96l83 -144h-108l-36 55z" />
    <glyph glyph-name="Cdotaccent" unicode="&#x10a;" horiz-adv-x="662" 
d="M183 19q-61 33 -94.5 96t-33.5 152q0 124 48 223.5t139.5 156.5t216.5 57q94 0 156 -35t89 -105l-136 -81q-14 35 -48.5 55.5t-83.5 20.5q-66 0 -116 -38t-77 -100t-27 -133q0 -78 34.5 -117.5t96.5 -39.5q43 0 82.5 22.5t67.5 62.5l113 -90q-50 -71 -116.5 -105.5
t-170.5 -34.5q-79 0 -140 33zM431 781q-24 24 -24 65t24 65.5t66 24.5t65.5 -24t23.5 -66q0 -41 -23.5 -65t-65.5 -24t-66 24z" />
    <glyph glyph-name="D" unicode="D" horiz-adv-x="677" 
d="M16 0l146 690h222q88 0 152 -34t97.5 -97t33.5 -148q0 -124 -47 -216.5t-140.5 -143.5t-228.5 -51h-235zM288 145q69 0 118.5 34t74.5 91t25 124q0 76 -35.5 113.5t-96.5 37.5h-81l-86 -400h81z" />
    <glyph glyph-name="Eth" unicode="&#xd0;" horiz-adv-x="695" 
d="M402 690q88 0 152 -34t97.5 -97t33.5 -148q0 -124 -47 -216.5t-140.5 -143.5t-228.5 -51h-235l59 279h-65l28 133h65l59 278h222zM306 145q69 0 118.5 34t74.5 91t25 124q0 76 -35.5 113.5t-96.5 37.5h-81l-29 -133h153l-28 -133h-153l-29 -134h81z" />
    <glyph glyph-name="Dcaron" unicode="&#x10e;" horiz-adv-x="677" 
d="M16 0l146 690h222q88 0 152 -34t97.5 -97t33.5 -148q0 -124 -47 -216.5t-140.5 -143.5t-228.5 -51h-235zM288 145q69 0 118.5 34t74.5 91t25 124q0 76 -35.5 113.5t-96.5 37.5h-81l-86 -400h81zM439 766h-96l-83 144h108l36 -55l56 55h119z" />
    <glyph glyph-name="Dcroat" unicode="&#x110;" horiz-adv-x="695" 
d="M402 690q88 0 152 -34t97.5 -97t33.5 -148q0 -124 -47 -216.5t-140.5 -143.5t-228.5 -51h-235l59 279h-65l28 133h65l59 278h222zM306 145q69 0 118.5 34t74.5 91t25 124q0 76 -35.5 113.5t-96.5 37.5h-81l-29 -133h153l-28 -133h-153l-29 -134h81z" />
    <glyph glyph-name="E" unicode="E" horiz-adv-x="597" 
d="M504 0h-488l146 690h482l-30 -145h-321l-25 -116h273l-31 -145h-273l-30 -139h327z" />
    <glyph glyph-name="Eacute" unicode="&#xc9;" horiz-adv-x="597" 
d="M504 0h-488l146 690h482l-30 -145h-321l-25 -116h273l-31 -145h-273l-30 -139h327zM483 766h-125l86 144h177z" />
    <glyph glyph-name="Ebreve" unicode="&#x114;" horiz-adv-x="597" 
d="M504 0h-488l146 690h482l-30 -145h-321l-25 -116h273l-31 -145h-273l-30 -139h327zM336 797q-36 31 -36 82q0 15 3 31h100q-2 -10 -2 -15q0 -19 10 -30.5t27 -11.5q23 0 38 15.5t20 41.5h100q-15 -74 -53.5 -109t-106.5 -35q-64 0 -100 31z" />
    <glyph glyph-name="Ecaron" unicode="&#x11a;" horiz-adv-x="597" 
d="M504 0h-488l146 690h482l-30 -145h-321l-25 -116h273l-31 -145h-273l-30 -139h327zM468 766h-96l-83 144h108l36 -55l56 55h119z" />
    <glyph glyph-name="Ecircumflex" unicode="&#xca;" horiz-adv-x="597" 
d="M504 0h-488l146 690h482l-30 -145h-321l-25 -116h273l-31 -145h-273l-30 -139h327zM378 766h-119l140 144h96l83 -144h-108l-36 55z" />
    <glyph glyph-name="uni1EBE" unicode="&#x1ebe;" horiz-adv-x="597" 
d="M504 0h-488l146 690h482l-30 -145h-321l-25 -116h273l-31 -145h-273l-30 -139h327zM620 910h-101l66 144h150zM378 766h-119l140 144h96l83 -144h-108l-36 55z" />
    <glyph glyph-name="uni1EC6" unicode="&#x1ec6;" horiz-adv-x="597" 
d="M504 0h-488l146 690h482l-30 -145h-321l-25 -116h273l-31 -145h-273l-30 -139h327zM171 -175q-21 21 -21 58q0 36 21 57t58 21q36 0 57 -21t21 -57q0 -37 -21 -58t-57 -21q-37 0 -58 21zM378 766h-119l140 144h96l83 -144h-108l-36 55z" />
    <glyph glyph-name="uni1EC0" unicode="&#x1ec0;" horiz-adv-x="597" 
d="M504 0h-488l146 690h482l-30 -145h-321l-25 -116h273l-31 -145h-273l-30 -139h327zM633 910h-94l-65 144h141zM378 766h-119l140 144h96l83 -144h-108l-36 55z" />
    <glyph glyph-name="uni1EC2" unicode="&#x1ec2;" horiz-adv-x="597" 
d="M504 0h-488l146 690h482l-30 -145h-321l-25 -116h273l-31 -145h-273l-30 -139h327zM525 921q9 6 14 15.5t5 16.5q0 19 -23 19q-15 0 -36 -9l-22 71q15 11 39 17.5t51 6.5q50 0 76 -20t26 -58q0 -37 -18.5 -62t-58.5 -48zM376 766h-119l140 144h96l83 -144h-108l-36 55z
" />
    <glyph glyph-name="uni1EC4" unicode="&#x1ec4;" horiz-adv-x="597" 
d="M504 0h-488l146 690h482l-30 -145h-321l-25 -116h273l-31 -145h-273l-30 -139h327zM293 984q22 40 52.5 59t74.5 19q23 0 39.5 -5t33.5 -13q26 -12 42 -12q20 0 31 6t32 27l43 -67q-18 -37 -43.5 -50.5t-67.5 -13.5q-21 0 -38 5t-37 14q-28 13 -42 13q-18 0 -34 -8
t-35 -25zM383 766h-119l140 144h96l83 -144h-108l-36 55z" />
    <glyph glyph-name="Edieresis" unicode="&#xcb;" horiz-adv-x="597" 
d="M504 0h-488l146 690h482l-30 -145h-321l-25 -116h273l-31 -145h-273l-30 -139h327zM287.5 795.5q-19.5 19.5 -19.5 54.5t19.5 55t55.5 20q35 0 54.5 -20t19.5 -55t-19.5 -54.5t-54.5 -19.5q-36 0 -55.5 19.5zM476 795.5q-20 19.5 -20 54.5t20 55t55 20t55 -20t20 -55
t-20 -54.5t-55 -19.5t-55 19.5z" />
    <glyph glyph-name="Edotaccent" unicode="&#x116;" horiz-adv-x="597" 
d="M504 0h-488l146 690h482l-30 -145h-321l-25 -116h273l-31 -145h-273l-30 -139h327zM370 781q-24 24 -24 65t24 65.5t66 24.5t65.5 -24t23.5 -66q0 -41 -23.5 -65t-65.5 -24t-66 24z" />
    <glyph glyph-name="uni1EB8" unicode="&#x1eb8;" horiz-adv-x="597" 
d="M504 0h-488l146 690h482l-30 -145h-321l-25 -116h273l-31 -145h-273l-30 -139h327zM171 -175q-21 21 -21 58q0 36 21 57t58 21q36 0 57 -21t21 -57q0 -37 -21 -58t-57 -21q-37 0 -58 21z" />
    <glyph glyph-name="Egrave" unicode="&#xc8;" horiz-adv-x="597" 
d="M504 0h-488l146 690h482l-30 -145h-321l-25 -116h273l-31 -145h-273l-30 -139h327zM478 766h-118l-86 144h173z" />
    <glyph glyph-name="uni1EBA" unicode="&#x1eba;" horiz-adv-x="597" 
d="M504 0h-488l146 690h482l-30 -145h-321l-25 -116h273l-31 -145h-273l-30 -139h327zM407 786q20 20 20 36q0 9 -6 14t-17 5q-16 0 -33 -10l-24 72q16 10 40.5 17t51.5 7q49 0 73 -21t24 -58t-18.5 -61.5t-58.5 -43.5z" />
    <glyph glyph-name="Emacron" unicode="&#x112;" horiz-adv-x="597" 
d="M504 0h-488l146 690h482l-30 -145h-321l-25 -116h273l-31 -145h-273l-30 -139h327zM559 801h-267l24 109h267z" />
    <glyph glyph-name="Eogonek" unicode="&#x118;" horiz-adv-x="597" 
d="M614 545h-321l-25 -116h273l-31 -145h-273l-30 -139h327l-30 -145q-28 -17 -48 -40t-20 -42q0 -11 6 -17t15 -6q11 0 23 6v-85q-19 -12 -68 -12q-39 0 -61 24t-22 65q0 31 15 59.5t43 47.5h-371l146 690h482z" />
    <glyph glyph-name="uni1EBC" unicode="&#x1ebc;" horiz-adv-x="597" 
d="M504 0h-488l146 690h482l-30 -145h-321l-25 -116h273l-31 -145h-273l-30 -139h327zM459.5 798.5q-16.5 5.5 -35.5 15.5q-2 1 -16 7.5t-27 6.5t-29.5 -8t-31.5 -25l-61 53q42 76 124 76q23 0 39 -4.5t33 -12.5q13 -7 22.5 -10t22.5 -3q33 0 62 33l48 -67
q-23 -36 -47 -51.5t-65 -15.5q-22 0 -38.5 5.5z" />
    <glyph glyph-name="F" unicode="F" horiz-adv-x="569" 
d="M177 0h-161l146 690h472l-30 -145h-311l-31 -143h250l-31 -145h-250z" />
    <glyph glyph-name="G" unicode="G" horiz-adv-x="714" 
d="M173 20.5q-54 34.5 -86 99t-32 151.5q0 125 51.5 223.5t145.5 154t218 55.5q90 0 154.5 -38t89.5 -107l-135 -82q-16 39 -52 60.5t-82 21.5q-70 0 -122 -38t-80 -98t-28 -126q0 -83 38 -124.5t104 -41.5q36 0 69 13.5t57 37.5l16 73h-149l29 139h306l-83 -394h-129v62
q-32 -38 -76 -57t-106 -19q-64 0 -118 34.5z" />
    <glyph glyph-name="Gbreve" unicode="&#x11e;" horiz-adv-x="714" 
d="M173 20.5q-54 34.5 -86 99t-32 151.5q0 125 51.5 223.5t145.5 154t218 55.5q90 0 154.5 -38t89.5 -107l-135 -82q-16 39 -52 60.5t-82 21.5q-70 0 -122 -38t-80 -98t-28 -126q0 -83 38 -124.5t104 -41.5q36 0 69 13.5t57 37.5l16 73h-149l29 139h306l-83 -394h-129v62
q-32 -38 -76 -57t-106 -19q-64 0 -118 34.5zM397 797q-36 31 -36 82q0 15 3 31h100q-2 -10 -2 -15q0 -19 10 -30.5t27 -11.5q23 0 38 15.5t20 41.5h100q-15 -74 -53.5 -109t-106.5 -35q-64 0 -100 31z" />
    <glyph glyph-name="Gcircumflex" unicode="&#x11c;" horiz-adv-x="714" 
d="M173 20.5q-54 34.5 -86 99t-32 151.5q0 125 51.5 223.5t145.5 154t218 55.5q90 0 154.5 -38t89.5 -107l-135 -82q-16 39 -52 60.5t-82 21.5q-70 0 -122 -38t-80 -98t-28 -126q0 -83 38 -124.5t104 -41.5q36 0 69 13.5t57 37.5l16 73h-149l29 139h306l-83 -394h-129v62
q-32 -38 -76 -57t-106 -19q-64 0 -118 34.5zM439 766h-119l140 144h96l83 -144h-108l-36 55z" />
    <glyph glyph-name="uni0122" unicode="&#x122;" horiz-adv-x="714" 
d="M173 20.5q-54 34.5 -86 99t-32 151.5q0 125 51.5 223.5t145.5 154t218 55.5q90 0 154.5 -38t89.5 -107l-135 -82q-16 39 -52 60.5t-82 21.5q-70 0 -122 -38t-80 -98t-28 -126q0 -83 38 -124.5t104 -41.5q36 0 69 13.5t57 37.5l16 73h-149l29 139h306l-83 -394h-129v62
q-32 -38 -76 -57t-106 -19q-64 0 -118 34.5zM214 -166q42 4 61 18q-19 0 -30 11.5t-11 28.5q0 27 20.5 42.5t52.5 15.5q29 0 44 -15t15 -43q0 -88 -129 -107z" />
    <glyph glyph-name="Gdotaccent" unicode="&#x120;" horiz-adv-x="714" 
d="M173 20.5q-54 34.5 -86 99t-32 151.5q0 125 51.5 223.5t145.5 154t218 55.5q90 0 154.5 -38t89.5 -107l-135 -82q-16 39 -52 60.5t-82 21.5q-70 0 -122 -38t-80 -98t-28 -126q0 -83 38 -124.5t104 -41.5q36 0 69 13.5t57 37.5l16 73h-149l29 139h306l-83 -394h-129v62
q-32 -38 -76 -57t-106 -19q-64 0 -118 34.5zM431 781q-24 24 -24 65t24 65.5t66 24.5t65.5 -24t23.5 -66q0 -41 -23.5 -65t-65.5 -24t-66 24z" />
    <glyph glyph-name="H" unicode="H" horiz-adv-x="708" 
d="M177 0h-161l146 690h161l-57 -268h255l57 268h161l-146 -690h-161l59 277h-255z" />
    <glyph glyph-name="Hbar" unicode="&#x126;" horiz-adv-x="745" 
d="M743 625h71l-29 -133h-70l-104 -492h-161l59 277h-255l-59 -277h-161l104 492h-70l29 133h69l14 65h161l-14 -65h255l14 65h161zM284 419h255l15 73h-255z" />
    <glyph glyph-name="Hcircumflex" unicode="&#x124;" horiz-adv-x="708" 
d="M177 0h-161l146 690h161l-57 -268h255l57 268h161l-146 -690h-161l59 277h-255zM426 766h-119l140 144h96l83 -144h-108l-36 55z" />
    <glyph glyph-name="I" unicode="I" horiz-adv-x="292" 
d="M177 0h-161l146 690h161z" />
    <glyph glyph-name="IJ" unicode="&#x132;" horiz-adv-x="852" 
d="M177 0h-161l146 690h161zM366 21q-55 35 -74 91l124 93q12 -33 37 -53.5t62 -20.5q89 0 112 112l95 447h161l-93 -439q-19 -91 -53.5 -149t-93.5 -87t-150 -29q-72 0 -127 35z" />
    <glyph glyph-name="Iacute" unicode="&#xcd;" horiz-adv-x="292" 
d="M177 0h-161l146 690h161zM323 766h-125l86 144h177z" />
    <glyph glyph-name="Ibreve" unicode="&#x12c;" horiz-adv-x="292" 
d="M177 0h-161l146 690h161zM176 797q-36 31 -36 82q0 15 3 31h100q-2 -10 -2 -15q0 -19 10 -30.5t27 -11.5q23 0 38 15.5t20 41.5h100q-15 -74 -53.5 -109t-106.5 -35q-64 0 -100 31z" />
    <glyph glyph-name="Icircumflex" unicode="&#xce;" horiz-adv-x="292" 
d="M177 0h-161l146 690h161zM218 766h-119l140 144h96l83 -144h-108l-36 55z" />
    <glyph glyph-name="Idieresis" unicode="&#xcf;" horiz-adv-x="292" 
d="M177 0h-161l146 690h161zM127.5 795.5q-19.5 19.5 -19.5 54.5t19.5 55t55.5 20q35 0 54.5 -20t19.5 -55t-19.5 -54.5t-54.5 -19.5q-36 0 -55.5 19.5zM316 795.5q-20 19.5 -20 54.5t20 55t55 20t55 -20t20 -55t-20 -54.5t-55 -19.5t-55 19.5z" />
    <glyph glyph-name="Idotaccent" unicode="&#x130;" horiz-adv-x="292" 
d="M177 0h-161l146 690h161zM210 781q-24 24 -24 65t24 65.5t66 24.5t65.5 -24t23.5 -66q0 -41 -23.5 -65t-65.5 -24t-66 24z" />
    <glyph glyph-name="uni1ECA" unicode="&#x1eca;" horiz-adv-x="292" 
d="M177 0h-161l146 690h161zM14 -175q-21 21 -21 58q0 36 21 57t58 21q36 0 57 -21t21 -57q0 -37 -21 -58t-57 -21q-37 0 -58 21z" />
    <glyph glyph-name="Igrave" unicode="&#xcc;" horiz-adv-x="292" 
d="M177 0h-161l146 690h161zM318 766h-118l-86 144h173z" />
    <glyph glyph-name="uni1EC8" unicode="&#x1ec8;" horiz-adv-x="292" 
d="M177 0h-161l146 690h161zM247 786q20 20 20 36q0 9 -6 14t-17 5q-16 0 -33 -10l-24 72q16 10 40.5 17t51.5 7q49 0 73 -21t24 -58t-18.5 -61.5t-58.5 -43.5z" />
    <glyph glyph-name="Imacron" unicode="&#x12a;" horiz-adv-x="292" 
d="M177 0h-161l146 690h161zM399 801h-267l24 109h267z" />
    <glyph glyph-name="Iogonek" unicode="&#x12e;" horiz-adv-x="292" 
d="M177 0q-28 -17 -48 -40t-20 -42q0 -11 6 -17t15 -6q11 0 23 6v-85q-19 -12 -68 -12q-39 0 -61 24t-22 65q0 31 15 59.5t43 47.5h-44l146 690h161z" />
    <glyph glyph-name="Itilde" unicode="&#x128;" horiz-adv-x="292" 
d="M177 0h-161l146 690h161zM299.5 798.5q-16.5 5.5 -35.5 15.5q-2 1 -16 7.5t-27 6.5t-29.5 -8t-31.5 -25l-61 53q42 76 124 76q23 0 39 -4.5t33 -12.5q13 -7 22.5 -10t22.5 -3q33 0 62 33l48 -67q-23 -36 -47 -51.5t-65 -15.5q-22 0 -38.5 5.5z" />
    <glyph glyph-name="J" unicode="J" horiz-adv-x="560" 
d="M74 21q-55 35 -74 91l124 93q12 -33 37 -53.5t62 -20.5q89 0 112 112l95 447h161l-93 -439q-19 -91 -53.5 -149t-93.5 -87t-150 -29q-72 0 -127 35z" />
    <glyph glyph-name="Jcircumflex" unicode="&#x134;" horiz-adv-x="560" 
d="M74 21q-55 35 -74 91l124 93q12 -33 37 -53.5t62 -20.5q89 0 112 112l95 447h161l-93 -439q-19 -91 -53.5 -149t-93.5 -87t-150 -29q-72 0 -127 35zM486 766h-119l140 144h96l83 -144h-108l-36 55z" />
    <glyph glyph-name="K" unicode="K" horiz-adv-x="674" 
d="M16 0l146 690h161l-49 -233l269 233h213l-307 -278q56 -77 95.5 -183.5t53.5 -228.5h-180q-3 79 -29.5 150.5t-71.5 145.5l-94 -80l-46 -216h-161z" />
    <glyph glyph-name="uni0136" unicode="&#x136;" horiz-adv-x="674" 
d="M16 0l146 690h161l-49 -233l269 233h213l-307 -278q56 -77 95.5 -183.5t53.5 -228.5h-180q-3 79 -29.5 150.5t-71.5 145.5l-94 -80l-46 -216h-161zM175 -166q42 4 61 18q-19 0 -30 11.5t-11 28.5q0 27 20.5 42.5t52.5 15.5q29 0 44 -15t15 -43q0 -88 -129 -107z" />
    <glyph glyph-name="L" unicode="L" horiz-adv-x="576" 
d="M488 0h-472l146 690h161l-116 -545h311z" />
    <glyph glyph-name="Lacute" unicode="&#x139;" horiz-adv-x="576" 
d="M488 0h-472l146 690h161l-116 -545h311zM323 766h-125l86 144h177z" />
    <glyph glyph-name="Lcaron" unicode="&#x13d;" horiz-adv-x="576" 
d="M488 0h-472l146 690h161l-116 -545h311zM440 464q40 19 65.5 36t37.5 37q-26 0 -45.5 21t-19.5 52q0 38 26 63t65 25q36 0 56 -21.5t20 -65.5q0 -66 -38 -114.5t-106 -94.5z" />
    <glyph glyph-name="uni013B" unicode="&#x13b;" horiz-adv-x="576" 
d="M488 0h-472l146 690h161l-116 -545h311zM148 -166q42 4 61 18q-19 0 -30 11.5t-11 28.5q0 27 20.5 42.5t52.5 15.5q29 0 44 -15t15 -43q0 -88 -129 -107z" />
    <glyph glyph-name="Ldot" unicode="&#x13f;" horiz-adv-x="576" 
d="M488 0h-472l146 690h161l-116 -545h311zM443.5 275.5q-26.5 26.5 -26.5 69.5q0 44 26.5 70t69.5 26t69.5 -26.5t26.5 -69.5t-26.5 -69.5t-69.5 -26.5t-69.5 26.5z" />
    <glyph glyph-name="Lslash" unicode="&#x141;" horiz-adv-x="591" 
d="M244 247l-22 -102h311l-30 -145h-472l36 172l-76 -32l33 153l76 33l77 364h161l-61 -289l155 67l-31 -154z" />
    <glyph glyph-name="M" unicode="M" horiz-adv-x="897" 
d="M151 0h-165l223 690h227l22 -391l187 391h235l-69 -690h-164l52 491l-192 -393h-170l-30 393z" />
    <glyph glyph-name="N" unicode="N" horiz-adv-x="735" 
d="M174 0h-158l146 690h201l144 -481l101 481h158l-146 -690h-200l-144 482z" />
    <glyph glyph-name="Nacute" unicode="&#x143;" horiz-adv-x="735" 
d="M174 0h-158l146 690h201l144 -481l101 481h158l-146 -690h-200l-144 482zM544 766h-125l86 144h177z" />
    <glyph glyph-name="Ncaron" unicode="&#x147;" horiz-adv-x="735" 
d="M174 0h-158l146 690h201l144 -481l101 481h158l-146 -690h-200l-144 482zM529 766h-96l-83 144h108l36 -55l56 55h119z" />
    <glyph glyph-name="uni0145" unicode="&#x145;" horiz-adv-x="735" 
d="M174 0h-158l146 690h201l144 -481l101 481h158l-146 -690h-200l-144 482zM214 -166q42 4 61 18q-19 0 -30 11.5t-11 28.5q0 27 20.5 42.5t52.5 15.5q29 0 44 -15t15 -43q0 -88 -129 -107z" />
    <glyph glyph-name="Eng" unicode="&#x14a;" horiz-adv-x="734" 
d="M319 -200.5q-28 3.5 -41 8.5l31 148q11 -7 30.5 -12.5t36.5 -5.5q72 0 86 65l-187 480l-102 -483h-158l147 690h201l154 -429l91 429h158l-143 -675q-17 -79 -42.5 -125.5t-74 -70t-130.5 -23.5q-29 0 -57 3.5z" />
    <glyph glyph-name="Ntilde" unicode="&#xd1;" horiz-adv-x="735" 
d="M174 0h-158l146 690h201l144 -481l101 481h158l-146 -690h-200l-144 482zM520.5 798.5q-16.5 5.5 -35.5 15.5q-2 1 -16 7.5t-27 6.5t-29.5 -8t-31.5 -25l-61 53q42 76 124 76q23 0 39 -4.5t33 -12.5q13 -7 22.5 -10t22.5 -3q33 0 62 33l48 -67q-23 -36 -47 -51.5
t-65 -15.5q-22 0 -38.5 5.5z" />
    <glyph glyph-name="O" unicode="O" horiz-adv-x="723" 
d="M122.5 57.5q-69.5 71.5 -69.5 203.5q0 124 48.5 225t139 159.5t209.5 58.5q126 0 196 -71.5t70 -203.5q0 -124 -49 -225t-139 -159.5t-210 -58.5q-126 0 -195.5 71.5zM454 170q49 39 74.5 102.5t25.5 134.5q0 73 -33 112.5t-92 39.5q-66 0 -114.5 -39t-74 -102.5
t-25.5 -134.5q0 -73 32.5 -112.5t91.5 -39.5q66 0 115 39z" />
    <glyph glyph-name="Oacute" unicode="&#xd3;" horiz-adv-x="723" 
d="M122.5 57.5q-69.5 71.5 -69.5 203.5q0 124 48.5 225t139 159.5t209.5 58.5q126 0 196 -71.5t70 -203.5q0 -124 -49 -225t-139 -159.5t-210 -58.5q-126 0 -195.5 71.5zM454 170q49 39 74.5 102.5t25.5 134.5q0 73 -33 112.5t-92 39.5q-66 0 -114.5 -39t-74 -102.5
t-25.5 -134.5q0 -73 32.5 -112.5t91.5 -39.5q66 0 115 39zM537 766h-125l86 144h177z" />
    <glyph glyph-name="Obreve" unicode="&#x14e;" horiz-adv-x="723" 
d="M122.5 57.5q-69.5 71.5 -69.5 203.5q0 124 48.5 225t139 159.5t209.5 58.5q126 0 196 -71.5t70 -203.5q0 -124 -49 -225t-139 -159.5t-210 -58.5q-126 0 -195.5 71.5zM454 170q49 39 74.5 102.5t25.5 134.5q0 73 -33 112.5t-92 39.5q-66 0 -114.5 -39t-74 -102.5
t-25.5 -134.5q0 -73 32.5 -112.5t91.5 -39.5q66 0 115 39zM390 797q-36 31 -36 82q0 15 3 31h100q-2 -10 -2 -15q0 -19 10 -30.5t27 -11.5q23 0 38 15.5t20 41.5h100q-15 -74 -53.5 -109t-106.5 -35q-64 0 -100 31z" />
    <glyph glyph-name="Ocircumflex" unicode="&#xd4;" horiz-adv-x="723" 
d="M122.5 57.5q-69.5 71.5 -69.5 203.5q0 124 48.5 225t139 159.5t209.5 58.5q126 0 196 -71.5t70 -203.5q0 -124 -49 -225t-139 -159.5t-210 -58.5q-126 0 -195.5 71.5zM454 170q49 39 74.5 102.5t25.5 134.5q0 73 -33 112.5t-92 39.5q-66 0 -114.5 -39t-74 -102.5
t-25.5 -134.5q0 -73 32.5 -112.5t91.5 -39.5q66 0 115 39zM432 766h-119l140 144h96l83 -144h-108l-36 55z" />
    <glyph glyph-name="uni1ED0" unicode="&#x1ed0;" horiz-adv-x="723" 
d="M122.5 57.5q-69.5 71.5 -69.5 203.5q0 124 48.5 225t139 159.5t209.5 58.5q126 0 196 -71.5t70 -203.5q0 -124 -49 -225t-139 -159.5t-210 -58.5q-126 0 -195.5 71.5zM454 170q49 39 74.5 102.5t25.5 134.5q0 73 -33 112.5t-92 39.5q-66 0 -114.5 -39t-74 -102.5
t-25.5 -134.5q0 -73 32.5 -112.5t91.5 -39.5q66 0 115 39zM674 910h-101l66 144h150zM432 766h-119l140 144h96l83 -144h-108l-36 55z" />
    <glyph glyph-name="uni1ED8" unicode="&#x1ed8;" horiz-adv-x="723" 
d="M122.5 57.5q-69.5 71.5 -69.5 203.5q0 124 48.5 225t139 159.5t209.5 58.5q126 0 196 -71.5t70 -203.5q0 -124 -49 -225t-139 -159.5t-210 -58.5q-126 0 -195.5 71.5zM454 170q49 39 74.5 102.5t25.5 134.5q0 73 -33 112.5t-92 39.5q-66 0 -114.5 -39t-74 -102.5
t-25.5 -134.5q0 -73 32.5 -112.5t91.5 -39.5q66 0 115 39zM228 -175q-21 21 -21 58q0 36 21 57t58 21q36 0 57 -21t21 -57q0 -37 -21 -58t-57 -21q-37 0 -58 21zM432 766h-119l140 144h96l83 -144h-108l-36 55z" />
    <glyph glyph-name="uni1ED2" unicode="&#x1ed2;" horiz-adv-x="723" 
d="M122.5 57.5q-69.5 71.5 -69.5 203.5q0 124 48.5 225t139 159.5t209.5 58.5q126 0 196 -71.5t70 -203.5q0 -124 -49 -225t-139 -159.5t-210 -58.5q-126 0 -195.5 71.5zM454 170q49 39 74.5 102.5t25.5 134.5q0 73 -33 112.5t-92 39.5q-66 0 -114.5 -39t-74 -102.5
t-25.5 -134.5q0 -73 32.5 -112.5t91.5 -39.5q66 0 115 39zM687 910h-94l-65 144h141zM432 766h-119l140 144h96l83 -144h-108l-36 55z" />
    <glyph glyph-name="uni1ED4" unicode="&#x1ed4;" horiz-adv-x="723" 
d="M122.5 57.5q-69.5 71.5 -69.5 203.5q0 124 48.5 225t139 159.5t209.5 58.5q126 0 196 -71.5t70 -203.5q0 -124 -49 -225t-139 -159.5t-210 -58.5q-126 0 -195.5 71.5zM454 170q49 39 74.5 102.5t25.5 134.5q0 73 -33 112.5t-92 39.5q-66 0 -114.5 -39t-74 -102.5
t-25.5 -134.5q0 -73 32.5 -112.5t91.5 -39.5q66 0 115 39zM579 921q9 6 14 15.5t5 16.5q0 19 -23 19q-15 0 -36 -9l-22 71q15 11 39 17.5t51 6.5q50 0 76 -20t26 -58q0 -37 -18.5 -62t-58.5 -48zM430 766h-119l140 144h96l83 -144h-108l-36 55z" />
    <glyph glyph-name="uni1ED6" unicode="&#x1ed6;" horiz-adv-x="723" 
d="M122.5 57.5q-69.5 71.5 -69.5 203.5q0 124 48.5 225t139 159.5t209.5 58.5q126 0 196 -71.5t70 -203.5q0 -124 -49 -225t-139 -159.5t-210 -58.5q-126 0 -195.5 71.5zM454 170q49 39 74.5 102.5t25.5 134.5q0 73 -33 112.5t-92 39.5q-66 0 -114.5 -39t-74 -102.5
t-25.5 -134.5q0 -73 32.5 -112.5t91.5 -39.5q66 0 115 39zM347 984q22 40 52.5 59t74.5 19q23 0 39.5 -5t33.5 -13q26 -12 42 -12q20 0 31 6t32 27l43 -67q-18 -37 -43.5 -50.5t-67.5 -13.5q-21 0 -38 5t-37 14q-28 13 -42 13q-18 0 -34 -8t-35 -25zM437 766h-119l140 144
h96l83 -144h-108l-36 55z" />
    <glyph glyph-name="Odieresis" unicode="&#xd6;" horiz-adv-x="723" 
d="M122.5 57.5q-69.5 71.5 -69.5 203.5q0 124 48.5 225t139 159.5t209.5 58.5q126 0 196 -71.5t70 -203.5q0 -124 -49 -225t-139 -159.5t-210 -58.5q-126 0 -195.5 71.5zM454 170q49 39 74.5 102.5t25.5 134.5q0 73 -33 112.5t-92 39.5q-66 0 -114.5 -39t-74 -102.5
t-25.5 -134.5q0 -73 32.5 -112.5t91.5 -39.5q66 0 115 39zM341.5 795.5q-19.5 19.5 -19.5 54.5t19.5 55t55.5 20q35 0 54.5 -20t19.5 -55t-19.5 -54.5t-54.5 -19.5q-36 0 -55.5 19.5zM530 795.5q-20 19.5 -20 54.5t20 55t55 20t55 -20t20 -55t-20 -54.5t-55 -19.5t-55 19.5z
" />
    <glyph glyph-name="uni1ECC" unicode="&#x1ecc;" horiz-adv-x="723" 
d="M122.5 57.5q-69.5 71.5 -69.5 203.5q0 124 48.5 225t139 159.5t209.5 58.5q126 0 196 -71.5t70 -203.5q0 -124 -49 -225t-139 -159.5t-210 -58.5q-126 0 -195.5 71.5zM454 170q49 39 74.5 102.5t25.5 134.5q0 73 -33 112.5t-92 39.5q-66 0 -114.5 -39t-74 -102.5
t-25.5 -134.5q0 -73 32.5 -112.5t91.5 -39.5q66 0 115 39zM228 -175q-21 21 -21 58q0 36 21 57t58 21q36 0 57 -21t21 -57q0 -37 -21 -58t-57 -21q-37 0 -58 21z" />
    <glyph glyph-name="Ograve" unicode="&#xd2;" horiz-adv-x="723" 
d="M122.5 57.5q-69.5 71.5 -69.5 203.5q0 124 48.5 225t139 159.5t209.5 58.5q126 0 196 -71.5t70 -203.5q0 -124 -49 -225t-139 -159.5t-210 -58.5q-126 0 -195.5 71.5zM454 170q49 39 74.5 102.5t25.5 134.5q0 73 -33 112.5t-92 39.5q-66 0 -114.5 -39t-74 -102.5
t-25.5 -134.5q0 -73 32.5 -112.5t91.5 -39.5q66 0 115 39zM532 766h-118l-86 144h173z" />
    <glyph glyph-name="uni1ECE" unicode="&#x1ece;" horiz-adv-x="723" 
d="M122.5 57.5q-69.5 71.5 -69.5 203.5q0 124 48.5 225t139 159.5t209.5 58.5q126 0 196 -71.5t70 -203.5q0 -124 -49 -225t-139 -159.5t-210 -58.5q-126 0 -195.5 71.5zM454 170q49 39 74.5 102.5t25.5 134.5q0 73 -33 112.5t-92 39.5q-66 0 -114.5 -39t-74 -102.5
t-25.5 -134.5q0 -73 32.5 -112.5t91.5 -39.5q66 0 115 39zM461 786q20 20 20 36q0 9 -6 14t-17 5q-16 0 -33 -10l-24 72q16 10 40.5 17t51.5 7q49 0 73 -21t24 -58t-18.5 -61.5t-58.5 -43.5z" />
    <glyph glyph-name="Ohorn" unicode="&#x1a0;" horiz-adv-x="723" 
d="M688 834h126l-11 -50q-18 -85 -49.5 -127.5t-89.5 -56.5q52 -75 52 -183q0 -119 -49 -217.5t-139.5 -156t-209.5 -57.5q-126 0 -195.5 71.5t-69.5 203.5q0 124 48.5 225t139 159.5t209.5 58.5h147q65 0 79 71zM454 170q49 39 74.5 102.5t25.5 134.5q0 73 -33 112.5
t-92 39.5q-66 0 -114.5 -39t-74 -102.5t-25.5 -134.5q0 -73 32.5 -112.5t91.5 -39.5q66 0 115 39z" />
    <glyph glyph-name="uni1EDA" unicode="&#x1eda;" horiz-adv-x="723" 
d="M688 834h126l-11 -50q-18 -85 -49.5 -127.5t-89.5 -56.5q52 -75 52 -183q0 -119 -49 -217.5t-139.5 -156t-209.5 -57.5q-126 0 -195.5 71.5t-69.5 203.5q0 124 48.5 225t139 159.5t209.5 58.5h147q65 0 79 71zM454 170q49 39 74.5 102.5t25.5 134.5q0 73 -33 112.5
t-92 39.5q-66 0 -114.5 -39t-74 -102.5t-25.5 -134.5q0 -73 32.5 -112.5t91.5 -39.5q66 0 115 39zM537 766h-125l86 144h177z" />
    <glyph glyph-name="uni1EE2" unicode="&#x1ee2;" horiz-adv-x="723" 
d="M688 834h126l-11 -50q-18 -85 -49.5 -127.5t-89.5 -56.5q52 -75 52 -183q0 -119 -49 -217.5t-139.5 -156t-209.5 -57.5q-126 0 -195.5 71.5t-69.5 203.5q0 124 48.5 225t139 159.5t209.5 58.5h147q65 0 79 71zM454 170q49 39 74.5 102.5t25.5 134.5q0 73 -33 112.5
t-92 39.5q-66 0 -114.5 -39t-74 -102.5t-25.5 -134.5q0 -73 32.5 -112.5t91.5 -39.5q66 0 115 39zM228 -175q-21 21 -21 58q0 36 21 57t58 21q36 0 57 -21t21 -57q0 -37 -21 -58t-57 -21q-37 0 -58 21z" />
    <glyph glyph-name="uni1EDC" unicode="&#x1edc;" horiz-adv-x="723" 
d="M688 834h126l-11 -50q-18 -85 -49.5 -127.5t-89.5 -56.5q52 -75 52 -183q0 -119 -49 -217.5t-139.5 -156t-209.5 -57.5q-126 0 -195.5 71.5t-69.5 203.5q0 124 48.5 225t139 159.5t209.5 58.5h147q65 0 79 71zM454 170q49 39 74.5 102.5t25.5 134.5q0 73 -33 112.5
t-92 39.5q-66 0 -114.5 -39t-74 -102.5t-25.5 -134.5q0 -73 32.5 -112.5t91.5 -39.5q66 0 115 39zM532 766h-118l-86 144h173z" />
    <glyph glyph-name="uni1EDE" unicode="&#x1ede;" horiz-adv-x="723" 
d="M688 834h126l-11 -50q-18 -85 -49.5 -127.5t-89.5 -56.5q52 -75 52 -183q0 -119 -49 -217.5t-139.5 -156t-209.5 -57.5q-126 0 -195.5 71.5t-69.5 203.5q0 124 48.5 225t139 159.5t209.5 58.5h147q65 0 79 71zM454 170q49 39 74.5 102.5t25.5 134.5q0 73 -33 112.5
t-92 39.5q-66 0 -114.5 -39t-74 -102.5t-25.5 -134.5q0 -73 32.5 -112.5t91.5 -39.5q66 0 115 39zM461 786q20 20 20 36q0 9 -6 14t-17 5q-16 0 -33 -10l-24 72q16 10 40.5 17t51.5 7q49 0 73 -21t24 -58t-18.5 -61.5t-58.5 -43.5z" />
    <glyph glyph-name="uni1EE0" unicode="&#x1ee0;" horiz-adv-x="723" 
d="M688 834h126l-11 -50q-18 -85 -49.5 -127.5t-89.5 -56.5q52 -75 52 -183q0 -119 -49 -217.5t-139.5 -156t-209.5 -57.5q-126 0 -195.5 71.5t-69.5 203.5q0 124 48.5 225t139 159.5t209.5 58.5h147q65 0 79 71zM454 170q49 39 74.5 102.5t25.5 134.5q0 73 -33 112.5
t-92 39.5q-66 0 -114.5 -39t-74 -102.5t-25.5 -134.5q0 -73 32.5 -112.5t91.5 -39.5q66 0 115 39zM513.5 798.5q-16.5 5.5 -35.5 15.5q-2 1 -16 7.5t-27 6.5t-29.5 -8t-31.5 -25l-61 53q42 76 124 76q23 0 39 -4.5t33 -12.5q13 -7 22.5 -10t22.5 -3q33 0 62 33l48 -67
q-23 -36 -47 -51.5t-65 -15.5q-22 0 -38.5 5.5z" />
    <glyph glyph-name="Ohungarumlaut" unicode="&#x150;" horiz-adv-x="723" 
d="M122.5 57.5q-69.5 71.5 -69.5 203.5q0 124 48.5 225t139 159.5t209.5 58.5q126 0 196 -71.5t70 -203.5q0 -124 -49 -225t-139 -159.5t-210 -58.5q-126 0 -195.5 71.5zM454 170q49 39 74.5 102.5t25.5 134.5q0 73 -33 112.5t-92 39.5q-66 0 -114.5 -39t-74 -102.5
t-25.5 -134.5q0 -73 32.5 -112.5t91.5 -39.5q66 0 115 39zM426 766h-109l68 144h147zM625 766h-109l68 144h148z" />
    <glyph glyph-name="Omacron" unicode="&#x14c;" horiz-adv-x="723" 
d="M122.5 57.5q-69.5 71.5 -69.5 203.5q0 124 48.5 225t139 159.5t209.5 58.5q126 0 196 -71.5t70 -203.5q0 -124 -49 -225t-139 -159.5t-210 -58.5q-126 0 -195.5 71.5zM454 170q49 39 74.5 102.5t25.5 134.5q0 73 -33 112.5t-92 39.5q-66 0 -114.5 -39t-74 -102.5
t-25.5 -134.5q0 -73 32.5 -112.5t91.5 -39.5q66 0 115 39zM613 801h-267l24 109h267z" />
    <glyph glyph-name="Oslash" unicode="&#xd8;" horiz-adv-x="722" 
d="M635 643q39 -35 60 -89t21 -125q0 -124 -49 -225t-139 -159.5t-210 -58.5q-41 0 -72 7l-62 -103h-146l95 158q-80 71 -80 213q0 124 48.5 225t139 159.5t209.5 58.5q40 0 71 -7l62 103h146zM227 206l211 353h-9q-66 0 -114.5 -39t-74 -102.5t-25.5 -134.5q0 -44 12 -77z
M454 170q49 39 74.5 102.5t25.5 134.5q0 43 -13 79l-212 -355h10q66 0 115 39z" />
    <glyph glyph-name="Otilde" unicode="&#xd5;" horiz-adv-x="723" 
d="M122.5 57.5q-69.5 71.5 -69.5 203.5q0 124 48.5 225t139 159.5t209.5 58.5q126 0 196 -71.5t70 -203.5q0 -124 -49 -225t-139 -159.5t-210 -58.5q-126 0 -195.5 71.5zM454 170q49 39 74.5 102.5t25.5 134.5q0 73 -33 112.5t-92 39.5q-66 0 -114.5 -39t-74 -102.5
t-25.5 -134.5q0 -73 32.5 -112.5t91.5 -39.5q66 0 115 39zM513.5 798.5q-16.5 5.5 -35.5 15.5q-2 1 -16 7.5t-27 6.5t-29.5 -8t-31.5 -25l-61 53q42 76 124 76q23 0 39 -4.5t33 -12.5q13 -7 22.5 -10t22.5 -3q33 0 62 33l48 -67q-23 -36 -47 -51.5t-65 -15.5
q-22 0 -38.5 5.5z" />
    <glyph glyph-name="OE" unicode="&#x152;" horiz-adv-x="1062" 
d="M181.5 19.5q-59.5 33.5 -93 97t-33.5 149.5q0 118 42 217.5t129.5 160t216.5 60.5q57 0 102.5 -19t69.5 -55l12 60h481l-30 -145h-320l-25 -116h272l-31 -145h-272l-30 -139h327l-30 -145h-488l11 54q-34 -36 -77.5 -52t-99.5 -16q-74 0 -133.5 33.5zM462 169.5
q49 38.5 75 101t26 132.5q0 75 -33.5 115.5t-94.5 40.5q-67 0 -116.5 -38.5t-75 -100t-25.5 -131.5q0 -76 34 -117t93 -41q68 0 117 38.5z" />
    <glyph glyph-name="P" unicode="P" horiz-adv-x="646" 
d="M16 0l146 690h276q106 0 166.5 -52.5t60.5 -149.5q0 -74 -30.5 -133t-94.5 -93.5t-160 -34.5h-155l-48 -227h-161zM379 372q54 0 87 28.5t33 73.5q0 71 -83 71h-123l-37 -173h123z" />
    <glyph glyph-name="Thorn" unicode="&#xde;" horiz-adv-x="651" 
d="M16 0l146 690h161l-24 -113h120q106 0 166.5 -52.5t60.5 -149.5q0 -74 -30.5 -133t-94.5 -93.5t-160 -34.5h-160l-24 -114h-161zM360 259q54 0 87 28.5t33 73.5q0 71 -83 71h-129l-36 -173h128z" />
    <glyph glyph-name="Q" unicode="Q" horiz-adv-x="723" 
d="M189 11q-64 30 -100 94t-36 156q0 124 48.5 225t139 159.5t209.5 58.5q126 0 196 -71.5t70 -203.5q0 -135 -57 -241.5t-159 -159.5l114 -28l-36 -169zM454 170q49 39 74.5 102.5t25.5 134.5q0 73 -33 112.5t-92 39.5q-66 0 -114.5 -39t-74 -102.5t-25.5 -134.5
q0 -73 32.5 -112.5t91.5 -39.5q66 0 115 39z" />
    <glyph glyph-name="R" unicode="R" horiz-adv-x="653" 
d="M16 0l146 690h283q107 0 163 -53t56 -150q0 -78 -43.5 -138.5t-126.5 -87.5q74 -119 84 -261h-178q-7 126 -69 243h-103l-51 -243h-161zM378 387q55 0 87 23.5t32 64.5q0 70 -85 70h-119l-34 -158h119z" />
    <glyph glyph-name="Racute" unicode="&#x154;" horiz-adv-x="653" 
d="M16 0l146 690h283q107 0 163 -53t56 -150q0 -78 -43.5 -138.5t-126.5 -87.5q74 -119 84 -261h-178q-7 126 -69 243h-103l-51 -243h-161zM378 387q55 0 87 23.5t32 64.5q0 70 -85 70h-119l-34 -158h119zM503 766h-125l86 144h177z" />
    <glyph glyph-name="Rcaron" unicode="&#x158;" horiz-adv-x="653" 
d="M16 0l146 690h283q107 0 163 -53t56 -150q0 -78 -43.5 -138.5t-126.5 -87.5q74 -119 84 -261h-178q-7 126 -69 243h-103l-51 -243h-161zM378 387q55 0 87 23.5t32 64.5q0 70 -85 70h-119l-34 -158h119zM488 766h-96l-83 144h108l36 -55l56 55h119z" />
    <glyph glyph-name="uni0156" unicode="&#x156;" horiz-adv-x="653" 
d="M16 0l146 690h283q107 0 163 -53t56 -150q0 -78 -43.5 -138.5t-126.5 -87.5q74 -119 84 -261h-178q-7 126 -69 243h-103l-51 -243h-161zM378 387q55 0 87 23.5t32 64.5q0 70 -85 70h-119l-34 -158h119zM173 -166q42 4 61 18q-19 0 -30 11.5t-11 28.5q0 27 20.5 42.5
t52.5 15.5q29 0 44 -15t15 -43q0 -88 -129 -107z" />
    <glyph glyph-name="S" unicode="S" horiz-adv-x="592" 
d="M-4 125l130 92q27 -46 61 -69t80 -23q57 0 91.5 22t34.5 61q0 29 -27 45.5t-94 35.5q-80 23 -127 66.5t-47 124.5q0 66 34.5 117t99.5 79t154 28q96 0 153 -35t87 -97l-130 -90q-21 42 -52.5 65.5t-70.5 23.5q-52 0 -81.5 -19t-29.5 -49t26.5 -46.5t88.5 -35.5
q94 -29 138.5 -72.5t44.5 -126.5q0 -69 -35 -122.5t-102.5 -83.5t-161.5 -30q-195 0 -265 139z" />
    <glyph glyph-name="Sacute" unicode="&#x15a;" horiz-adv-x="592" 
d="M-4 125l130 92q27 -46 61 -69t80 -23q57 0 91.5 22t34.5 61q0 29 -27 45.5t-94 35.5q-80 23 -127 66.5t-47 124.5q0 66 34.5 117t99.5 79t154 28q96 0 153 -35t87 -97l-130 -90q-21 42 -52.5 65.5t-70.5 23.5q-52 0 -81.5 -19t-29.5 -49t26.5 -46.5t88.5 -35.5
q94 -29 138.5 -72.5t44.5 -126.5q0 -69 -35 -122.5t-102.5 -83.5t-161.5 -30q-195 0 -265 139zM472 766h-125l86 144h177z" />
    <glyph glyph-name="Scaron" unicode="&#x160;" horiz-adv-x="592" 
d="M-4 125l130 92q27 -46 61 -69t80 -23q57 0 91.5 22t34.5 61q0 29 -27 45.5t-94 35.5q-80 23 -127 66.5t-47 124.5q0 66 34.5 117t99.5 79t154 28q96 0 153 -35t87 -97l-130 -90q-21 42 -52.5 65.5t-70.5 23.5q-52 0 -81.5 -19t-29.5 -49t26.5 -46.5t88.5 -35.5
q94 -29 138.5 -72.5t44.5 -126.5q0 -69 -35 -122.5t-102.5 -83.5t-161.5 -30q-195 0 -265 139zM457 766h-96l-83 144h108l36 -55l56 55h119z" />
    <glyph glyph-name="Scedilla" unicode="&#x15e;" horiz-adv-x="592" 
d="M515.5 348.5q44.5 -43.5 44.5 -126.5q0 -68 -34 -120.5t-98.5 -83t-154.5 -32.5l-32 -34q39 0 60.5 -18t21.5 -53q0 -96 -126 -96q-28 0 -48 3t-39 11l30 70q27 -12 55 -12q13 0 21 4.5t8 13.5q0 17 -22 17q-6 0 -13 -1.5t-12 -4.5l-39 34l49 72q-135 21 -191 133l130 92
q27 -46 61 -69t80 -23q57 0 91.5 22t34.5 61q0 29 -27 45.5t-94 35.5q-80 23 -127 66.5t-47 124.5q0 66 34.5 117t99.5 79t154 28q96 0 153 -35t87 -97l-130 -90q-21 42 -52.5 65.5t-70.5 23.5q-52 0 -81.5 -19t-29.5 -49t26.5 -46.5t88.5 -35.5q94 -29 138.5 -72.5z" />
    <glyph glyph-name="Scircumflex" unicode="&#x15c;" horiz-adv-x="592" 
d="M-4 125l130 92q27 -46 61 -69t80 -23q57 0 91.5 22t34.5 61q0 29 -27 45.5t-94 35.5q-80 23 -127 66.5t-47 124.5q0 66 34.5 117t99.5 79t154 28q96 0 153 -35t87 -97l-130 -90q-21 42 -52.5 65.5t-70.5 23.5q-52 0 -81.5 -19t-29.5 -49t26.5 -46.5t88.5 -35.5
q94 -29 138.5 -72.5t44.5 -126.5q0 -69 -35 -122.5t-102.5 -83.5t-161.5 -30q-195 0 -265 139zM367 766h-119l140 144h96l83 -144h-108l-36 55z" />
    <glyph glyph-name="uni0218" unicode="&#x218;" horiz-adv-x="592" 
d="M-4 125l130 92q27 -46 61 -69t80 -23q57 0 91.5 22t34.5 61q0 29 -27 45.5t-94 35.5q-80 23 -127 66.5t-47 124.5q0 66 34.5 117t99.5 79t154 28q96 0 153 -35t87 -97l-130 -90q-21 42 -52.5 65.5t-70.5 23.5q-52 0 -81.5 -19t-29.5 -49t26.5 -46.5t88.5 -35.5
q94 -29 138.5 -72.5t44.5 -126.5q0 -69 -35 -122.5t-102.5 -83.5t-161.5 -30q-195 0 -265 139zM142 -166q42 4 61 18q-19 0 -30 11.5t-11 28.5q0 27 20.5 42.5t52.5 15.5q29 0 44 -15t15 -43q0 -88 -129 -107z" />
    <glyph glyph-name="uni1E9E" unicode="&#x1e9e;" horiz-adv-x="657" 
d="M241 4l29 137q32 -20 71 -20q52 0 81 25t29 67q0 38 -22.5 57t-63.5 19h-62l26 125l132 131h-98q-31 0 -55.5 -20t-31.5 -55l-100 -470h-161l102 477q15 72 44.5 118t83.5 70.5t142 24.5h284l-31 -144l-142 -147q54 -21 84 -58.5t30 -105.5q0 -113 -67.5 -181t-196.5 -68
q-61 0 -107 18z" />
    <glyph glyph-name="T" unicode="T" horiz-adv-x="622" 
d="M342 0h-161l115 545h-196l30 145h555l-30 -145h-198z" />
    <glyph glyph-name="Tbar" unicode="&#x166;" horiz-adv-x="622" 
d="M685 690l-30 -145h-198l-32 -152h128l-27 -129h-128l-56 -264h-161l56 264h-128l27 129h128l32 152h-196l30 145h555z" />
    <glyph glyph-name="Tcaron" unicode="&#x164;" horiz-adv-x="622" 
d="M342 0h-161l115 545h-196l30 145h555l-30 -145h-198zM473 766h-96l-83 144h108l36 -55l56 55h119z" />
    <glyph glyph-name="uni0162" unicode="&#x162;" horiz-adv-x="622" 
d="M342 0h-161l115 545h-196l30 145h555l-30 -145h-198zM257 -48q39 0 60.5 -18t21.5 -53q0 -96 -126 -96q-28 0 -48 3t-39 11l30 70q27 -12 55 -12q13 0 21 4.5t8 13.5q0 17 -22 17q-6 0 -13 -1.5t-12 -4.5l-39 34l55 80h93z" />
    <glyph glyph-name="uni021A" unicode="&#x21a;" horiz-adv-x="622" 
d="M342 0h-161l115 545h-196l30 145h555l-30 -145h-198zM158 -166q42 4 61 18q-19 0 -30 11.5t-11 28.5q0 27 20.5 42.5t52.5 15.5q29 0 44 -15t15 -43q0 -88 -129 -107z" />
    <glyph glyph-name="U" unicode="U" horiz-adv-x="689" 
d="M128 41q-60 55 -60 161q0 49 11 98l83 390h161l-89 -417q-5 -27 -5 -44q0 -48 26.5 -73t71.5 -25q56 0 91.5 34.5t51.5 107.5l89 417h161l-89 -420q-32 -153 -112.5 -218.5t-221.5 -65.5q-109 0 -169 55z" />
    <glyph glyph-name="Uacute" unicode="&#xda;" horiz-adv-x="689" 
d="M128 41q-60 55 -60 161q0 49 11 98l83 390h161l-89 -417q-5 -27 -5 -44q0 -48 26.5 -73t71.5 -25q56 0 91.5 34.5t51.5 107.5l89 417h161l-89 -420q-32 -153 -112.5 -218.5t-221.5 -65.5q-109 0 -169 55zM521 766h-125l86 144h177z" />
    <glyph glyph-name="Ubreve" unicode="&#x16c;" horiz-adv-x="689" 
d="M128 41q-60 55 -60 161q0 49 11 98l83 390h161l-89 -417q-5 -27 -5 -44q0 -48 26.5 -73t71.5 -25q56 0 91.5 34.5t51.5 107.5l89 417h161l-89 -420q-32 -153 -112.5 -218.5t-221.5 -65.5q-109 0 -169 55zM374 797q-36 31 -36 82q0 15 3 31h100q-2 -10 -2 -15
q0 -19 10 -30.5t27 -11.5q23 0 38 15.5t20 41.5h100q-15 -74 -53.5 -109t-106.5 -35q-64 0 -100 31z" />
    <glyph glyph-name="Ucircumflex" unicode="&#xdb;" horiz-adv-x="689" 
d="M128 41q-60 55 -60 161q0 49 11 98l83 390h161l-89 -417q-5 -27 -5 -44q0 -48 26.5 -73t71.5 -25q56 0 91.5 34.5t51.5 107.5l89 417h161l-89 -420q-32 -153 -112.5 -218.5t-221.5 -65.5q-109 0 -169 55zM416 766h-119l140 144h96l83 -144h-108l-36 55z" />
    <glyph glyph-name="Udieresis" unicode="&#xdc;" horiz-adv-x="689" 
d="M128 41q-60 55 -60 161q0 49 11 98l83 390h161l-89 -417q-5 -27 -5 -44q0 -48 26.5 -73t71.5 -25q56 0 91.5 34.5t51.5 107.5l89 417h161l-89 -420q-32 -153 -112.5 -218.5t-221.5 -65.5q-109 0 -169 55zM325.5 795.5q-19.5 19.5 -19.5 54.5t19.5 55t55.5 20
q35 0 54.5 -20t19.5 -55t-19.5 -54.5t-54.5 -19.5q-36 0 -55.5 19.5zM514 795.5q-20 19.5 -20 54.5t20 55t55 20t55 -20t20 -55t-20 -54.5t-55 -19.5t-55 19.5z" />
    <glyph glyph-name="uni1EE4" unicode="&#x1ee4;" horiz-adv-x="689" 
d="M128 41q-60 55 -60 161q0 49 11 98l83 390h161l-89 -417q-5 -27 -5 -44q0 -48 26.5 -73t71.5 -25q56 0 91.5 34.5t51.5 107.5l89 417h161l-89 -420q-32 -153 -112.5 -218.5t-221.5 -65.5q-109 0 -169 55zM211 -175q-21 21 -21 58q0 36 21 57t58 21q36 0 57 -21t21 -57
q0 -37 -21 -58t-57 -21q-37 0 -58 21z" />
    <glyph glyph-name="Ugrave" unicode="&#xd9;" horiz-adv-x="689" 
d="M128 41q-60 55 -60 161q0 49 11 98l83 390h161l-89 -417q-5 -27 -5 -44q0 -48 26.5 -73t71.5 -25q56 0 91.5 34.5t51.5 107.5l89 417h161l-89 -420q-32 -153 -112.5 -218.5t-221.5 -65.5q-109 0 -169 55zM516 766h-118l-86 144h173z" />
    <glyph glyph-name="uni1EE6" unicode="&#x1ee6;" horiz-adv-x="689" 
d="M128 41q-60 55 -60 161q0 49 11 98l83 390h161l-89 -417q-5 -27 -5 -44q0 -48 26.5 -73t71.5 -25q56 0 91.5 34.5t51.5 107.5l89 417h161l-89 -420q-32 -153 -112.5 -218.5t-221.5 -65.5q-109 0 -169 55zM445 786q20 20 20 36q0 9 -6 14t-17 5q-16 0 -33 -10l-24 72
q16 10 40.5 17t51.5 7q49 0 73 -21t24 -58t-18.5 -61.5t-58.5 -43.5z" />
    <glyph glyph-name="Uhorn" unicode="&#x1af;" horiz-adv-x="689" 
d="M783 820h126l-17 -75q-14 -64 -34.5 -98.5t-58 -50.5t-103.5 -18l-65 -308q-32 -153 -112.5 -218.5t-221.5 -65.5q-109 0 -169 55t-60 161q0 49 11 98l83 390h161l-89 -417q-5 -27 -5 -44q0 -48 26.5 -73t71.5 -25q56 0 91.5 34.5t51.5 107.5l89 417h133q31 0 50.5 17
t27.5 54z" />
    <glyph glyph-name="uni1EE8" unicode="&#x1ee8;" horiz-adv-x="689" 
d="M783 820h126l-17 -75q-14 -64 -34.5 -98.5t-58 -50.5t-103.5 -18l-65 -308q-32 -153 -112.5 -218.5t-221.5 -65.5q-109 0 -169 55t-60 161q0 49 11 98l83 390h161l-89 -417q-5 -27 -5 -44q0 -48 26.5 -73t71.5 -25q56 0 91.5 34.5t51.5 107.5l89 417h133q31 0 50.5 17
t27.5 54zM521 766h-125l86 144h177z" />
    <glyph glyph-name="uni1EF0" unicode="&#x1ef0;" horiz-adv-x="689" 
d="M783 820h126l-17 -75q-14 -64 -34.5 -98.5t-58 -50.5t-103.5 -18l-65 -308q-32 -153 -112.5 -218.5t-221.5 -65.5q-109 0 -169 55t-60 161q0 49 11 98l83 390h161l-89 -417q-5 -27 -5 -44q0 -48 26.5 -73t71.5 -25q56 0 91.5 34.5t51.5 107.5l89 417h133q31 0 50.5 17
t27.5 54zM211 -175q-21 21 -21 58q0 36 21 57t58 21q36 0 57 -21t21 -57q0 -37 -21 -58t-57 -21q-37 0 -58 21z" />
    <glyph glyph-name="uni1EEA" unicode="&#x1eea;" horiz-adv-x="689" 
d="M783 820h126l-17 -75q-14 -64 -34.5 -98.5t-58 -50.5t-103.5 -18l-65 -308q-32 -153 -112.5 -218.5t-221.5 -65.5q-109 0 -169 55t-60 161q0 49 11 98l83 390h161l-89 -417q-5 -27 -5 -44q0 -48 26.5 -73t71.5 -25q56 0 91.5 34.5t51.5 107.5l89 417h133q31 0 50.5 17
t27.5 54zM516 766h-118l-86 144h173z" />
    <glyph glyph-name="uni1EEC" unicode="&#x1eec;" horiz-adv-x="689" 
d="M783 820h126l-17 -75q-14 -64 -34.5 -98.5t-58 -50.5t-103.5 -18l-65 -308q-32 -153 -112.5 -218.5t-221.5 -65.5q-109 0 -169 55t-60 161q0 49 11 98l83 390h161l-89 -417q-5 -27 -5 -44q0 -48 26.5 -73t71.5 -25q56 0 91.5 34.5t51.5 107.5l89 417h133q31 0 50.5 17
t27.5 54zM445 786q20 20 20 36q0 9 -6 14t-17 5q-16 0 -33 -10l-24 72q16 10 40.5 17t51.5 7q49 0 73 -21t24 -58t-18.5 -61.5t-58.5 -43.5z" />
    <glyph glyph-name="uni1EEE" unicode="&#x1eee;" horiz-adv-x="689" 
d="M783 820h126l-17 -75q-14 -64 -34.5 -98.5t-58 -50.5t-103.5 -18l-65 -308q-32 -153 -112.5 -218.5t-221.5 -65.5q-109 0 -169 55t-60 161q0 49 11 98l83 390h161l-89 -417q-5 -27 -5 -44q0 -48 26.5 -73t71.5 -25q56 0 91.5 34.5t51.5 107.5l89 417h133q31 0 50.5 17
t27.5 54zM497.5 798.5q-16.5 5.5 -35.5 15.5q-2 1 -16 7.5t-27 6.5t-29.5 -8t-31.5 -25l-61 53q42 76 124 76q23 0 39 -4.5t33 -12.5q13 -7 22.5 -10t22.5 -3q33 0 62 33l48 -67q-23 -36 -47 -51.5t-65 -15.5q-22 0 -38.5 5.5z" />
    <glyph glyph-name="Uhungarumlaut" unicode="&#x170;" horiz-adv-x="689" 
d="M128 41q-60 55 -60 161q0 49 11 98l83 390h161l-89 -417q-5 -27 -5 -44q0 -48 26.5 -73t71.5 -25q56 0 91.5 34.5t51.5 107.5l89 417h161l-89 -420q-32 -153 -112.5 -218.5t-221.5 -65.5q-109 0 -169 55zM410 766h-109l68 144h147zM609 766h-109l68 144h148z" />
    <glyph glyph-name="Umacron" unicode="&#x16a;" horiz-adv-x="689" 
d="M128 41q-60 55 -60 161q0 49 11 98l83 390h161l-89 -417q-5 -27 -5 -44q0 -48 26.5 -73t71.5 -25q56 0 91.5 34.5t51.5 107.5l89 417h161l-89 -420q-32 -153 -112.5 -218.5t-221.5 -65.5q-109 0 -169 55zM597 801h-267l24 109h267z" />
    <glyph glyph-name="Uogonek" unicode="&#x172;" horiz-adv-x="689" 
d="M559 690h161l-89 -420q-27 -126 -85.5 -192t-155.5 -84q-25 -17 -41.5 -37.5t-16.5 -38.5q0 -11 6 -17t15 -6q11 0 23 6v-85q-20 -12 -68 -12q-39 0 -61 24t-22 65q0 26 10.5 51t31.5 43q-96 8 -147.5 62.5t-51.5 152.5q0 43 11 98l83 390h161l-89 -417q-5 -27 -5 -44
q0 -48 26.5 -73t71.5 -25q56 0 91.5 34.5t51.5 107.5z" />
    <glyph glyph-name="Uring" unicode="&#x16e;" horiz-adv-x="689" 
d="M128 41q-60 55 -60 161q0 49 11 98l83 390h161l-89 -417q-5 -27 -5 -44q0 -48 26.5 -73t71.5 -25q56 0 91.5 34.5t51.5 107.5l89 417h161l-89 -420q-32 -153 -112.5 -218.5t-221.5 -65.5q-109 0 -169 55zM395.5 775q-23.5 23 -23.5 58q0 50 32 82.5t88 32.5
q39 0 62.5 -23t23.5 -58q0 -50 -32 -82.5t-88 -32.5q-39 0 -62.5 23zM498 826.5q11 13.5 11 32.5q0 12 -7 20t-19 8q-20 0 -30.5 -13.5t-10.5 -32.5q0 -12 6.5 -20t18.5 -8q20 0 31 13.5z" />
    <glyph glyph-name="Utilde" unicode="&#x168;" horiz-adv-x="689" 
d="M128 41q-60 55 -60 161q0 49 11 98l83 390h161l-89 -417q-5 -27 -5 -44q0 -48 26.5 -73t71.5 -25q56 0 91.5 34.5t51.5 107.5l89 417h161l-89 -420q-32 -153 -112.5 -218.5t-221.5 -65.5q-109 0 -169 55zM497.5 798.5q-16.5 5.5 -35.5 15.5q-2 1 -16 7.5t-27 6.5
t-29.5 -8t-31.5 -25l-61 53q42 76 124 76q23 0 39 -4.5t33 -12.5q13 -7 22.5 -10t22.5 -3q33 0 62 33l48 -67q-23 -36 -47 -51.5t-65 -15.5q-22 0 -38.5 5.5z" />
    <glyph glyph-name="V" unicode="V" horiz-adv-x="688" 
d="M383 0h-173l-98 690h174l49 -466l249 466h186z" />
    <glyph glyph-name="W" unicode="W" horiz-adv-x="883" 
d="M284 0h-171l-1 690h165l-12 -435l166 335h180l24 -335l170 435h160l-288 -690h-163l-30 400z" />
    <glyph glyph-name="Wacute" unicode="&#x1e82;" horiz-adv-x="883" 
d="M284 0h-171l-1 690h165l-12 -435l166 335h180l24 -335l170 435h160l-288 -690h-163l-30 400zM619 766h-125l86 144h177z" />
    <glyph glyph-name="Wcircumflex" unicode="&#x174;" horiz-adv-x="883" 
d="M284 0h-171l-1 690h165l-12 -435l166 335h180l24 -335l170 435h160l-288 -690h-163l-30 400zM514 766h-119l140 144h96l83 -144h-108l-36 55z" />
    <glyph glyph-name="Wdieresis" unicode="&#x1e84;" horiz-adv-x="883" 
d="M284 0h-171l-1 690h165l-12 -435l166 335h180l24 -335l170 435h160l-288 -690h-163l-30 400zM423.5 795.5q-19.5 19.5 -19.5 54.5t19.5 55t55.5 20q35 0 54.5 -20t19.5 -55t-19.5 -54.5t-54.5 -19.5q-36 0 -55.5 19.5zM612 795.5q-20 19.5 -20 54.5t20 55t55 20t55 -20
t20 -55t-20 -54.5t-55 -19.5t-55 19.5z" />
    <glyph glyph-name="Wgrave" unicode="&#x1e80;" horiz-adv-x="883" 
d="M284 0h-171l-1 690h165l-12 -435l166 335h180l24 -335l170 435h160l-288 -690h-163l-30 400zM614 766h-118l-86 144h173z" />
    <glyph glyph-name="X" unicode="X" horiz-adv-x="673" 
d="M160 0h-202l306 365l-136 325h180l74 -206l160 206h196l-279 -338l156 -352h-186l-87 229z" />
    <glyph glyph-name="Y" unicode="Y" horiz-adv-x="655" 
d="M359 0h-161l64 305l-152 385h165l91 -237l189 237h184l-318 -395z" />
    <glyph glyph-name="Yacute" unicode="&#xdd;" horiz-adv-x="655" 
d="M359 0h-161l64 305l-152 385h165l91 -237l189 237h184l-318 -395zM505 766h-125l86 144h177z" />
    <glyph glyph-name="Ycircumflex" unicode="&#x176;" horiz-adv-x="655" 
d="M359 0h-161l64 305l-152 385h165l91 -237l189 237h184l-318 -395zM400 766h-119l140 144h96l83 -144h-108l-36 55z" />
    <glyph glyph-name="Ydieresis" unicode="&#x178;" horiz-adv-x="655" 
d="M359 0h-161l64 305l-152 385h165l91 -237l189 237h184l-318 -395zM309.5 795.5q-19.5 19.5 -19.5 54.5t19.5 55t55.5 20q35 0 54.5 -20t19.5 -55t-19.5 -54.5t-54.5 -19.5q-36 0 -55.5 19.5zM498 795.5q-20 19.5 -20 54.5t20 55t55 20t55 -20t20 -55t-20 -54.5t-55 -19.5
t-55 19.5z" />
    <glyph glyph-name="uni1EF4" unicode="&#x1ef4;" horiz-adv-x="655" 
d="M359 0h-161l64 305l-152 385h165l91 -237l189 237h184l-318 -395zM196 -175q-21 21 -21 58q0 36 21 57t58 21q36 0 57 -21t21 -57q0 -37 -21 -58t-57 -21q-37 0 -58 21z" />
    <glyph glyph-name="Ygrave" unicode="&#x1ef2;" horiz-adv-x="655" 
d="M359 0h-161l64 305l-152 385h165l91 -237l189 237h184l-318 -395zM500 766h-118l-86 144h173z" />
    <glyph glyph-name="uni1EF6" unicode="&#x1ef6;" horiz-adv-x="655" 
d="M359 0h-161l64 305l-152 385h165l91 -237l189 237h184l-318 -395zM429 786q20 20 20 36q0 9 -6 14t-17 5q-16 0 -33 -10l-24 72q16 10 40.5 17t51.5 7q49 0 73 -21t24 -58t-18.5 -61.5t-58.5 -43.5z" />
    <glyph glyph-name="uni1EF8" unicode="&#x1ef8;" horiz-adv-x="655" 
d="M359 0h-161l64 305l-152 385h165l91 -237l189 237h184l-318 -395zM481.5 798.5q-16.5 5.5 -35.5 15.5q-2 1 -16 7.5t-27 6.5t-29.5 -8t-31.5 -25l-61 53q42 76 124 76q23 0 39 -4.5t33 -12.5q13 -7 22.5 -10t22.5 -3q33 0 62 33l48 -67q-23 -36 -47 -51.5t-65 -15.5
q-22 0 -38.5 5.5z" />
    <glyph glyph-name="Z" unicode="Z" horiz-adv-x="596" 
d="M502 0h-508l29 136l379 409h-281l30 145h485l-29 -136l-377 -409h302z" />
    <glyph glyph-name="Zacute" unicode="&#x179;" horiz-adv-x="596" 
d="M502 0h-508l29 136l379 409h-281l30 145h485l-29 -136l-377 -409h302zM474 766h-125l86 144h177z" />
    <glyph glyph-name="Zcaron" unicode="&#x17d;" horiz-adv-x="596" 
d="M502 0h-508l29 136l379 409h-281l30 145h485l-29 -136l-377 -409h302zM459 766h-96l-83 144h108l36 -55l56 55h119z" />
    <glyph glyph-name="Zdotaccent" unicode="&#x17b;" horiz-adv-x="596" 
d="M502 0h-508l29 136l379 409h-281l30 145h485l-29 -136l-377 -409h302zM361 781q-24 24 -24 65t24 65.5t66 24.5t65.5 -24t23.5 -66q0 -41 -23.5 -65t-65.5 -24t-66 24z" />
    <glyph glyph-name="uni01B5" unicode="&#x1b5;" horiz-adv-x="596" 
d="M151 690h485l-29 -136l-133 -144h69l-28 -129h-160l-125 -136h302l-30 -145h-508l29 136l134 145h-59l28 129h151l125 135h-281z" />
    <glyph glyph-name="glyph177" horiz-adv-x="674" 
d="M541 690h214l-321 -288l164 -402h-183l-113 284l-80 -72l-45 -212h-161l146 690h161l-50 -236z" />
    <glyph glyph-name="glyph178" horiz-adv-x="674" 
d="M541 690h214l-321 -288l164 -402h-183l-113 284l-80 -72l-45 -212h-161l146 690h161l-50 -236zM175 -166q42 4 61 18q-19 0 -30 11.5t-11 28.5q0 27 20.5 42.5t52.5 15.5q29 0 44 -15t15 -43q0 -88 -129 -107z" />
    <glyph glyph-name="glyph179" horiz-adv-x="663" 
d="M629 345.5q-45 -61.5 -131 -86.5l90 -259h-171l-86 243h-103l-51 -243h-161l146 690h293q107 0 163 -53t56 -150q0 -80 -45 -141.5zM388 387q55 0 87 23.5t32 64.5q0 70 -85 70h-129l-34 -158h129z" />
    <glyph glyph-name="glyph180" horiz-adv-x="663" 
d="M629 345.5q-45 -61.5 -131 -86.5l90 -259h-171l-86 243h-103l-51 -243h-161l146 690h293q107 0 163 -53t56 -150q0 -80 -45 -141.5zM388 387q55 0 87 23.5t32 64.5q0 70 -85 70h-129l-34 -158h129zM503 766h-125l86 144h177z" />
    <glyph glyph-name="glyph181" horiz-adv-x="663" 
d="M629 345.5q-45 -61.5 -131 -86.5l90 -259h-171l-86 243h-103l-51 -243h-161l146 690h293q107 0 163 -53t56 -150q0 -80 -45 -141.5zM388 387q55 0 87 23.5t32 64.5q0 70 -85 70h-129l-34 -158h129zM488 766h-96l-83 144h108l36 -55l56 55h119z" />
    <glyph glyph-name="glyph182" horiz-adv-x="663" 
d="M629 345.5q-45 -61.5 -131 -86.5l90 -259h-171l-86 243h-103l-51 -243h-161l146 690h293q107 0 163 -53t56 -150q0 -80 -45 -141.5zM388 387q55 0 87 23.5t32 64.5q0 70 -85 70h-129l-34 -158h129zM173 -166q42 4 61 18q-19 0 -30 11.5t-11 28.5q0 27 20.5 42.5
t52.5 15.5q29 0 44 -15t15 -43q0 -88 -129 -107z" />
    <glyph glyph-name="glyph183" horiz-adv-x="897" 
d="M151 0h-165l223 690h227l-11 -489l220 489h235l-69 -690h-164l52 491l-222 -491h-170v491z" />
    <glyph glyph-name="glyph184" horiz-adv-x="883" 
d="M284 0h-171l-1 690h165l-12 -435l183 435h180l7 -435l170 435h160l-288 -690h-163l-13 500z" />
    <glyph glyph-name="glyph185" horiz-adv-x="883" 
d="M284 0h-171l-1 690h165l-12 -435l183 435h180l7 -435l170 435h160l-288 -690h-163l-13 500zM619 766h-125l86 144h177z" />
    <glyph glyph-name="glyph186" horiz-adv-x="883" 
d="M284 0h-171l-1 690h165l-12 -435l183 435h180l7 -435l170 435h160l-288 -690h-163l-13 500zM514 766h-119l140 144h96l83 -144h-108l-36 55z" />
    <glyph glyph-name="glyph187" horiz-adv-x="883" 
d="M284 0h-171l-1 690h165l-12 -435l183 435h180l7 -435l170 435h160l-288 -690h-163l-13 500zM423.5 795.5q-19.5 19.5 -19.5 54.5t19.5 55t55.5 20q35 0 54.5 -20t19.5 -55t-19.5 -54.5t-54.5 -19.5q-36 0 -55.5 19.5zM612 795.5q-20 19.5 -20 54.5t20 55t55 20t55 -20
t20 -55t-20 -54.5t-55 -19.5t-55 19.5z" />
    <glyph glyph-name="glyph188" horiz-adv-x="883" 
d="M284 0h-171l-1 690h165l-12 -435l183 435h180l7 -435l170 435h160l-288 -690h-163l-13 500zM614 766h-118l-86 144h173z" />
    <glyph glyph-name="a" unicode="a" horiz-adv-x="532" 
d="M57.5 21.5q-35.5 35.5 -35.5 92.5q0 92 80.5 132.5t228.5 41.5q2 12 2 17q0 26 -17.5 41t-48.5 15q-63 0 -122 -48l-61 98q85 73 214 73q93 0 142 -39t49 -109q0 -23 -6 -50l-61 -286h-142v47q-39 -61 -132 -61q-55 0 -90.5 35.5zM258.5 112q19.5 10 41.5 28l12 56
q-71 0 -105 -15.5t-34 -41.5q0 -18 11.5 -27.5t31.5 -9.5q23 0 42.5 10z" />
    <glyph glyph-name="aacute" unicode="&#xe1;" horiz-adv-x="532" 
d="M57.5 21.5q-35.5 35.5 -35.5 92.5q0 92 80.5 132.5t228.5 41.5q2 12 2 17q0 26 -17.5 41t-48.5 15q-63 0 -122 -48l-61 98q85 73 214 73q93 0 142 -39t49 -109q0 -23 -6 -50l-61 -286h-142v47q-39 -61 -132 -61q-55 0 -90.5 35.5zM258.5 112q19.5 10 41.5 28l12 56
q-71 0 -105 -15.5t-34 -41.5q0 -18 11.5 -27.5t31.5 -9.5q23 0 42.5 10zM397 546h-125l86 144h177z" />
    <glyph glyph-name="abreve" unicode="&#x103;" horiz-adv-x="532" 
d="M57.5 21.5q-35.5 35.5 -35.5 92.5q0 92 80.5 132.5t228.5 41.5q2 12 2 17q0 26 -17.5 41t-48.5 15q-63 0 -122 -48l-61 98q85 73 214 73q93 0 142 -39t49 -109q0 -23 -6 -50l-61 -286h-142v47q-39 -61 -132 -61q-55 0 -90.5 35.5zM258.5 112q19.5 10 41.5 28l12 56
q-71 0 -105 -15.5t-34 -41.5q0 -18 11.5 -27.5t31.5 -9.5q23 0 42.5 10zM250 577q-36 31 -36 82q0 15 3 31h100q-2 -10 -2 -15q0 -19 10 -30.5t27 -11.5q23 0 38 15.5t20 41.5h100q-15 -74 -53.5 -109t-106.5 -35q-64 0 -100 31z" />
    <glyph glyph-name="uni1EAF" unicode="&#x1eaf;" horiz-adv-x="532" 
d="M57.5 21.5q-35.5 35.5 -35.5 92.5q0 92 80.5 132.5t228.5 41.5q2 12 2 17q0 26 -17.5 41t-48.5 15q-63 0 -122 -48l-61 98q85 73 214 73q93 0 142 -39t49 -109q0 -23 -6 -50l-61 -286h-142v47q-39 -61 -132 -61q-55 0 -90.5 35.5zM258.5 112q19.5 10 41.5 28l12 56
q-71 0 -105 -15.5t-34 -41.5q0 -18 11.5 -27.5t31.5 -9.5q23 0 42.5 10zM250 577q-36 31 -36 82q0 15 3 31h100q-2 -10 -2 -15q0 -19 10 -30.5t27 -11.5q23 0 38 15.5t20 41.5h100q-15 -74 -53.5 -109t-106.5 -35q-64 0 -100 31zM427 723h-125l86 144h177z" />
    <glyph glyph-name="uni1EB7" unicode="&#x1eb7;" horiz-adv-x="532" 
d="M57.5 21.5q-35.5 35.5 -35.5 92.5q0 92 80.5 132.5t228.5 41.5q2 12 2 17q0 26 -17.5 41t-48.5 15q-63 0 -122 -48l-61 98q85 73 214 73q93 0 142 -39t49 -109q0 -23 -6 -50l-61 -286h-142v47q-39 -61 -132 -61q-55 0 -90.5 35.5zM258.5 112q19.5 10 41.5 28l12 56
q-71 0 -105 -15.5t-34 -41.5q0 -18 11.5 -27.5t31.5 -9.5q23 0 42.5 10zM134 -175q-21 21 -21 58q0 36 21 57t58 21q36 0 57 -21t21 -57q0 -37 -21 -58t-57 -21q-37 0 -58 21zM250 577q-36 31 -36 82q0 15 3 31h100q-2 -10 -2 -15q0 -19 10 -30.5t27 -11.5q23 0 38 15.5
t20 41.5h100q-15 -74 -53.5 -109t-106.5 -35q-64 0 -100 31z" />
    <glyph glyph-name="uni1EB1" unicode="&#x1eb1;" horiz-adv-x="532" 
d="M57.5 21.5q-35.5 35.5 -35.5 92.5q0 92 80.5 132.5t228.5 41.5q2 12 2 17q0 26 -17.5 41t-48.5 15q-63 0 -122 -48l-61 98q85 73 214 73q93 0 142 -39t49 -109q0 -23 -6 -50l-61 -286h-142v47q-39 -61 -132 -61q-55 0 -90.5 35.5zM258.5 112q19.5 10 41.5 28l12 56
q-71 0 -105 -15.5t-34 -41.5q0 -18 11.5 -27.5t31.5 -9.5q23 0 42.5 10zM250 577q-36 31 -36 82q0 15 3 31h100q-2 -10 -2 -15q0 -19 10 -30.5t27 -11.5q23 0 38 15.5t20 41.5h100q-15 -74 -53.5 -109t-106.5 -35q-64 0 -100 31zM428 723h-118l-86 144h173z" />
    <glyph glyph-name="uni1EB3" unicode="&#x1eb3;" horiz-adv-x="532" 
d="M57.5 21.5q-35.5 35.5 -35.5 92.5q0 92 80.5 132.5t228.5 41.5q2 12 2 17q0 26 -17.5 41t-48.5 15q-63 0 -122 -48l-61 98q85 73 214 73q93 0 142 -39t49 -109q0 -23 -6 -50l-61 -286h-142v47q-39 -61 -132 -61q-55 0 -90.5 35.5zM258.5 112q19.5 10 41.5 28l12 56
q-71 0 -105 -15.5t-34 -41.5q0 -18 11.5 -27.5t31.5 -9.5q23 0 42.5 10zM252 577q-36 31 -36 82q0 15 3 31h100q-2 -10 -2 -15q0 -19 10 -30.5t27 -11.5q23 0 38 15.5t20 41.5h100q-15 -74 -53.5 -109t-106.5 -35q-64 0 -100 31zM325 740q20 20 20 36q0 9 -6 14t-17 5
q-16 0 -33 -10l-24 72q16 10 40.5 17t51.5 7q49 0 73 -21t24 -58t-18.5 -61.5t-58.5 -43.5z" />
    <glyph glyph-name="uni1EB5" unicode="&#x1eb5;" horiz-adv-x="532" 
d="M57.5 21.5q-35.5 35.5 -35.5 92.5q0 92 80.5 132.5t228.5 41.5q2 12 2 17q0 26 -17.5 41t-48.5 15q-63 0 -122 -48l-61 98q85 73 214 73q93 0 142 -39t49 -109q0 -23 -6 -50l-61 -286h-142v47q-39 -61 -132 -61q-55 0 -90.5 35.5zM258.5 112q19.5 10 41.5 28l12 56
q-71 0 -105 -15.5t-34 -41.5q0 -18 11.5 -27.5t31.5 -9.5q23 0 42.5 10zM250 577q-36 31 -36 82q0 15 3 31h100q-2 -10 -2 -15q0 -19 10 -30.5t27 -11.5q23 0 38 15.5t20 41.5h100q-15 -74 -53.5 -109t-106.5 -35q-64 0 -100 31zM410.5 738.5q-16.5 5.5 -35.5 15.5
q-2 1 -16 7.5t-27 6.5t-29.5 -8t-31.5 -25l-61 53q42 76 124 76q23 0 39 -4.5t33 -12.5q13 -7 22.5 -10t22.5 -3q33 0 62 33l48 -67q-23 -36 -47 -51.5t-65 -15.5q-22 0 -38.5 5.5z" />
    <glyph glyph-name="acircumflex" unicode="&#xe2;" horiz-adv-x="532" 
d="M57.5 21.5q-35.5 35.5 -35.5 92.5q0 92 80.5 132.5t228.5 41.5q2 12 2 17q0 26 -17.5 41t-48.5 15q-63 0 -122 -48l-61 98q85 73 214 73q93 0 142 -39t49 -109q0 -23 -6 -50l-61 -286h-142v47q-39 -61 -132 -61q-55 0 -90.5 35.5zM258.5 112q19.5 10 41.5 28l12 56
q-71 0 -105 -15.5t-34 -41.5q0 -18 11.5 -27.5t31.5 -9.5q23 0 42.5 10zM292 546h-119l140 144h96l83 -144h-108l-36 55z" />
    <glyph glyph-name="uni1EA5" unicode="&#x1ea5;" horiz-adv-x="532" 
d="M57.5 21.5q-35.5 35.5 -35.5 92.5q0 92 80.5 132.5t228.5 41.5q2 12 2 17q0 26 -17.5 41t-48.5 15q-63 0 -122 -48l-61 98q85 73 214 73q93 0 142 -39t49 -109q0 -23 -6 -50l-61 -286h-142v47q-39 -61 -132 -61q-55 0 -90.5 35.5zM258.5 112q19.5 10 41.5 28l12 56
q-71 0 -105 -15.5t-34 -41.5q0 -18 11.5 -27.5t31.5 -9.5q23 0 42.5 10zM534 690h-101l66 144h150zM292 546h-119l140 144h96l83 -144h-108l-36 55z" />
    <glyph glyph-name="uni1EAD" unicode="&#x1ead;" horiz-adv-x="532" 
d="M57.5 21.5q-35.5 35.5 -35.5 92.5q0 92 80.5 132.5t228.5 41.5q2 12 2 17q0 26 -17.5 41t-48.5 15q-63 0 -122 -48l-61 98q85 73 214 73q93 0 142 -39t49 -109q0 -23 -6 -50l-61 -286h-142v47q-39 -61 -132 -61q-55 0 -90.5 35.5zM258.5 112q19.5 10 41.5 28l12 56
q-71 0 -105 -15.5t-34 -41.5q0 -18 11.5 -27.5t31.5 -9.5q23 0 42.5 10zM134 -175q-21 21 -21 58q0 36 21 57t58 21q36 0 57 -21t21 -57q0 -37 -21 -58t-57 -21q-37 0 -58 21zM292 546h-119l140 144h96l83 -144h-108l-36 55z" />
    <glyph glyph-name="uni1EA7" unicode="&#x1ea7;" horiz-adv-x="532" 
d="M57.5 21.5q-35.5 35.5 -35.5 92.5q0 92 80.5 132.5t228.5 41.5q2 12 2 17q0 26 -17.5 41t-48.5 15q-63 0 -122 -48l-61 98q85 73 214 73q93 0 142 -39t49 -109q0 -23 -6 -50l-61 -286h-142v47q-39 -61 -132 -61q-55 0 -90.5 35.5zM258.5 112q19.5 10 41.5 28l12 56
q-71 0 -105 -15.5t-34 -41.5q0 -18 11.5 -27.5t31.5 -9.5q23 0 42.5 10zM547 690h-94l-65 144h141zM292 546h-119l140 144h96l83 -144h-108l-36 55z" />
    <glyph glyph-name="uni1EA9" unicode="&#x1ea9;" horiz-adv-x="532" 
d="M57.5 21.5q-35.5 35.5 -35.5 92.5q0 92 80.5 132.5t228.5 41.5q2 12 2 17q0 26 -17.5 41t-48.5 15q-63 0 -122 -48l-61 98q85 73 214 73q93 0 142 -39t49 -109q0 -23 -6 -50l-61 -286h-142v47q-39 -61 -132 -61q-55 0 -90.5 35.5zM258.5 112q19.5 10 41.5 28l12 56
q-71 0 -105 -15.5t-34 -41.5q0 -18 11.5 -27.5t31.5 -9.5q23 0 42.5 10zM439 701q9 6 14 15.5t5 16.5q0 19 -23 19q-15 0 -36 -9l-22 71q15 11 39 17.5t51 6.5q50 0 76 -20t26 -58q0 -37 -18.5 -62t-58.5 -48zM290 546h-119l140 144h96l83 -144h-108l-36 55z" />
    <glyph glyph-name="uni1EAB" unicode="&#x1eab;" horiz-adv-x="532" 
d="M57.5 21.5q-35.5 35.5 -35.5 92.5q0 92 80.5 132.5t228.5 41.5q2 12 2 17q0 26 -17.5 41t-48.5 15q-63 0 -122 -48l-61 98q85 73 214 73q93 0 142 -39t49 -109q0 -23 -6 -50l-61 -286h-142v47q-39 -61 -132 -61q-55 0 -90.5 35.5zM258.5 112q19.5 10 41.5 28l12 56
q-71 0 -105 -15.5t-34 -41.5q0 -18 11.5 -27.5t31.5 -9.5q23 0 42.5 10zM207 764q22 40 52.5 59t74.5 19q23 0 39.5 -5t33.5 -13q26 -12 42 -12q20 0 31 6t32 27l43 -67q-18 -37 -43.5 -50.5t-67.5 -13.5q-21 0 -38 5t-37 14q-28 13 -42 13q-18 0 -34 -8t-35 -25zM297 546
h-119l140 144h96l83 -144h-108l-36 55z" />
    <glyph glyph-name="adieresis" unicode="&#xe4;" horiz-adv-x="532" 
d="M57.5 21.5q-35.5 35.5 -35.5 92.5q0 92 80.5 132.5t228.5 41.5q2 12 2 17q0 26 -17.5 41t-48.5 15q-63 0 -122 -48l-61 98q85 73 214 73q93 0 142 -39t49 -109q0 -23 -6 -50l-61 -286h-142v47q-39 -61 -132 -61q-55 0 -90.5 35.5zM258.5 112q19.5 10 41.5 28l12 56
q-71 0 -105 -15.5t-34 -41.5q0 -18 11.5 -27.5t31.5 -9.5q23 0 42.5 10zM201.5 575.5q-19.5 19.5 -19.5 54.5t19.5 55t55.5 20q35 0 54.5 -20t19.5 -55t-19.5 -54.5t-54.5 -19.5q-36 0 -55.5 19.5zM390 575.5q-20 19.5 -20 54.5t20 55t55 20t55 -20t20 -55t-20 -54.5
t-55 -19.5t-55 19.5z" />
    <glyph glyph-name="uni1EA1" unicode="&#x1ea1;" horiz-adv-x="532" 
d="M57.5 21.5q-35.5 35.5 -35.5 92.5q0 92 80.5 132.5t228.5 41.5q2 12 2 17q0 26 -17.5 41t-48.5 15q-63 0 -122 -48l-61 98q85 73 214 73q93 0 142 -39t49 -109q0 -23 -6 -50l-61 -286h-142v47q-39 -61 -132 -61q-55 0 -90.5 35.5zM258.5 112q19.5 10 41.5 28l12 56
q-71 0 -105 -15.5t-34 -41.5q0 -18 11.5 -27.5t31.5 -9.5q23 0 42.5 10zM134 -175q-21 21 -21 58q0 36 21 57t58 21q36 0 57 -21t21 -57q0 -37 -21 -58t-57 -21q-37 0 -58 21z" />
    <glyph glyph-name="agrave" unicode="&#xe0;" horiz-adv-x="532" 
d="M57.5 21.5q-35.5 35.5 -35.5 92.5q0 92 80.5 132.5t228.5 41.5q2 12 2 17q0 26 -17.5 41t-48.5 15q-63 0 -122 -48l-61 98q85 73 214 73q93 0 142 -39t49 -109q0 -23 -6 -50l-61 -286h-142v47q-39 -61 -132 -61q-55 0 -90.5 35.5zM258.5 112q19.5 10 41.5 28l12 56
q-71 0 -105 -15.5t-34 -41.5q0 -18 11.5 -27.5t31.5 -9.5q23 0 42.5 10zM392 546h-118l-86 144h173z" />
    <glyph glyph-name="uni1EA3" unicode="&#x1ea3;" horiz-adv-x="532" 
d="M57.5 21.5q-35.5 35.5 -35.5 92.5q0 92 80.5 132.5t228.5 41.5q2 12 2 17q0 26 -17.5 41t-48.5 15q-63 0 -122 -48l-61 98q85 73 214 73q93 0 142 -39t49 -109q0 -23 -6 -50l-61 -286h-142v47q-39 -61 -132 -61q-55 0 -90.5 35.5zM258.5 112q19.5 10 41.5 28l12 56
q-71 0 -105 -15.5t-34 -41.5q0 -18 11.5 -27.5t31.5 -9.5q23 0 42.5 10zM321 566q20 20 20 36q0 9 -6 14t-17 5q-16 0 -33 -10l-24 72q16 10 40.5 17t51.5 7q49 0 73 -21t24 -58t-18.5 -61.5t-58.5 -43.5z" />
    <glyph glyph-name="amacron" unicode="&#x101;" horiz-adv-x="532" 
d="M57.5 21.5q-35.5 35.5 -35.5 92.5q0 92 80.5 132.5t228.5 41.5q2 12 2 17q0 26 -17.5 41t-48.5 15q-63 0 -122 -48l-61 98q85 73 214 73q93 0 142 -39t49 -109q0 -23 -6 -50l-61 -286h-142v47q-39 -61 -132 -61q-55 0 -90.5 35.5zM258.5 112q19.5 10 41.5 28l12 56
q-71 0 -105 -15.5t-34 -41.5q0 -18 11.5 -27.5t31.5 -9.5q23 0 42.5 10zM473 581h-267l24 109h267z" />
    <glyph glyph-name="aogonek" unicode="&#x105;" horiz-adv-x="532" 
d="M440 445q49 -39 49 -109q0 -23 -6 -50l-61 -286h2q-28 -17 -48 -40t-20 -42q0 -11 6 -17t15 -6q11 0 23 6v-85q-19 -12 -68 -12q-39 0 -61 24t-22 65q0 31 15 59.5t43 47.5h-27v47q-39 -61 -132 -61q-55 0 -90.5 35.5t-35.5 92.5q0 92 80.5 132.5t228.5 41.5q2 12 2 17
q0 26 -17.5 41t-48.5 15q-63 0 -122 -48l-61 98q85 73 214 73q93 0 142 -39zM258.5 112q19.5 10 41.5 28l12 56q-71 0 -105 -15.5t-34 -41.5q0 -18 11.5 -27.5t31.5 -9.5q23 0 42.5 10z" />
    <glyph glyph-name="aring" unicode="&#xe5;" horiz-adv-x="532" 
d="M57.5 21.5q-35.5 35.5 -35.5 92.5q0 92 80.5 132.5t228.5 41.5q2 12 2 17q0 26 -17.5 41t-48.5 15q-63 0 -122 -48l-61 98q85 73 214 73q93 0 142 -39t49 -109q0 -23 -6 -50l-61 -286h-142v47q-39 -61 -132 -61q-55 0 -90.5 35.5zM258.5 112q19.5 10 41.5 28l12 56
q-71 0 -105 -15.5t-34 -41.5q0 -18 11.5 -27.5t31.5 -9.5q23 0 42.5 10zM271.5 555q-23.5 23 -23.5 58q0 50 32 82.5t88 32.5q39 0 62.5 -23t23.5 -58q0 -50 -32 -82.5t-88 -32.5q-39 0 -62.5 23zM374 606.5q11 13.5 11 32.5q0 12 -7 20t-19 8q-20 0 -30.5 -13.5
t-10.5 -32.5q0 -12 6.5 -20t18.5 -8q20 0 31 13.5z" />
    <glyph glyph-name="atilde" unicode="&#xe3;" horiz-adv-x="532" 
d="M57.5 21.5q-35.5 35.5 -35.5 92.5q0 92 80.5 132.5t228.5 41.5q2 12 2 17q0 26 -17.5 41t-48.5 15q-63 0 -122 -48l-61 98q85 73 214 73q93 0 142 -39t49 -109q0 -23 -6 -50l-61 -286h-142v47q-39 -61 -132 -61q-55 0 -90.5 35.5zM258.5 112q19.5 10 41.5 28l12 56
q-71 0 -105 -15.5t-34 -41.5q0 -18 11.5 -27.5t31.5 -9.5q23 0 42.5 10zM373.5 578.5q-16.5 5.5 -35.5 15.5q-2 1 -16 7.5t-27 6.5t-29.5 -8t-31.5 -25l-61 53q42 76 124 76q23 0 39 -4.5t33 -12.5q13 -7 22.5 -10t22.5 -3q33 0 62 33l48 -67q-23 -36 -47 -51.5t-65 -15.5
q-22 0 -38.5 5.5z" />
    <glyph glyph-name="ae" unicode="&#xe6;" horiz-adv-x="830" 
d="M62.5 20.5q-40.5 34.5 -40.5 93.5q0 92 80.5 132.5t228.5 41.5q2 12 2 17q0 26 -17.5 41t-48.5 15q-63 0 -122 -48l-61 98q85 73 214 73q98 0 147 -43q70 43 163 43q91 0 142.5 -50.5t51.5 -136.5q0 -48 -18 -105h-314q4 -42 28 -64t66 -22q31 0 58.5 11.5t55.5 34.5
l62 -103q-70 -63 -197 -63q-62 0 -110.5 23.5t-76.5 67.5q-30 -41 -74.5 -66t-103.5 -25q-75 0 -115.5 34.5zM673 294q0 36 -20 55.5t-59 19.5q-37 0 -64 -20.5t-43 -54.5h186zM256.5 112q20.5 10 43.5 28l12 56q-68 -1 -103.5 -18t-35.5 -44q0 -15 11 -23.5t29 -8.5
q23 0 43.5 10z" />
    <glyph glyph-name="aeacute" unicode="&#x1fd;" horiz-adv-x="830" 
d="M62.5 20.5q-40.5 34.5 -40.5 93.5q0 92 80.5 132.5t228.5 41.5q2 12 2 17q0 26 -17.5 41t-48.5 15q-63 0 -122 -48l-61 98q85 73 214 73q98 0 147 -43q70 43 163 43q91 0 142.5 -50.5t51.5 -136.5q0 -48 -18 -105h-314q4 -42 28 -64t66 -22q31 0 58.5 11.5t55.5 34.5
l62 -103q-70 -63 -197 -63q-62 0 -110.5 23.5t-76.5 67.5q-30 -41 -74.5 -66t-103.5 -25q-75 0 -115.5 34.5zM673 294q0 36 -20 55.5t-59 19.5q-37 0 -64 -20.5t-43 -54.5h186zM256.5 112q20.5 10 43.5 28l12 56q-68 -1 -103.5 -18t-35.5 -44q0 -15 11 -23.5t29 -8.5
q23 0 43.5 10zM545 546h-125l86 144h177z" />
    <glyph glyph-name="b" unicode="b" horiz-adv-x="572" 
d="M206 0.5q-30 14.5 -52 42.5l-17 -43h-129l155 730h152l-58 -274q51 28 109 28q75 0 123 -53.5t48 -151.5q0 -75 -28.5 -142t-86.5 -109t-142 -42q-44 0 -74 14.5zM348.5 160q33.5 44 33.5 103q0 41 -20.5 66t-58.5 25q-43 0 -74 -27l-39 -183q22 -28 63 -28q62 0 95.5 44
z" />
    <glyph glyph-name="c" unicode="c" horiz-adv-x="515" 
d="M92 35.5q-57 49.5 -57 153.5q0 89 35 155.5t102 103t160 36.5q137 0 185 -103l-121 -71q-13 22 -33 33.5t-52 11.5q-35 0 -63.5 -21.5t-44.5 -56t-16 -71.5q0 -42 22.5 -66t57.5 -24q28 0 48.5 12.5t42.5 37.5l97 -86q-33 -47 -83.5 -70.5t-130.5 -23.5q-92 0 -149 49.5z
" />
    <glyph glyph-name="cacute" unicode="&#x107;" horiz-adv-x="515" 
d="M92 35.5q-57 49.5 -57 153.5q0 89 35 155.5t102 103t160 36.5q137 0 185 -103l-121 -71q-13 22 -33 33.5t-52 11.5q-35 0 -63.5 -21.5t-44.5 -56t-16 -71.5q0 -42 22.5 -66t57.5 -24q28 0 48.5 12.5t42.5 37.5l97 -86q-33 -47 -83.5 -70.5t-130.5 -23.5q-92 0 -149 49.5z
M415 546h-125l86 144h177z" />
    <glyph glyph-name="ccaron" unicode="&#x10d;" horiz-adv-x="515" 
d="M92 35.5q-57 49.5 -57 153.5q0 89 35 155.5t102 103t160 36.5q137 0 185 -103l-121 -71q-13 22 -33 33.5t-52 11.5q-35 0 -63.5 -21.5t-44.5 -56t-16 -71.5q0 -42 22.5 -66t57.5 -24q28 0 48.5 12.5t42.5 37.5l97 -86q-33 -47 -83.5 -70.5t-130.5 -23.5q-92 0 -149 49.5z
M400 546h-96l-83 144h108l36 -55l56 55h119z" />
    <glyph glyph-name="ccedilla" unicode="&#xe7;" horiz-adv-x="515" 
d="M315.5 128.5q20.5 12.5 42.5 37.5l97 -86q-31 -43 -76.5 -66.5t-116.5 -27.5l-32 -34q39 0 60.5 -18t21.5 -53q0 -96 -126 -96q-28 0 -48 3t-39 11l30 70q27 -12 55 -12q13 0 21 4.5t8 13.5q0 17 -22 17q-6 0 -13 -1.5t-12 -4.5l-39 34l50 73q-66 15 -104 63.5t-38 132.5
q0 89 35 155.5t102 103t160 36.5q137 0 185 -103l-121 -71q-13 22 -33 33.5t-52 11.5q-35 0 -63.5 -21.5t-44.5 -56t-16 -71.5q0 -42 22.5 -66t57.5 -24q28 0 48.5 12.5z" />
    <glyph glyph-name="ccircumflex" unicode="&#x109;" horiz-adv-x="515" 
d="M92 35.5q-57 49.5 -57 153.5q0 89 35 155.5t102 103t160 36.5q137 0 185 -103l-121 -71q-13 22 -33 33.5t-52 11.5q-35 0 -63.5 -21.5t-44.5 -56t-16 -71.5q0 -42 22.5 -66t57.5 -24q28 0 48.5 12.5t42.5 37.5l97 -86q-33 -47 -83.5 -70.5t-130.5 -23.5q-92 0 -149 49.5z
M310 546h-119l140 144h96l83 -144h-108l-36 55z" />
    <glyph glyph-name="cdotaccent" unicode="&#x10b;" horiz-adv-x="515" 
d="M92 35.5q-57 49.5 -57 153.5q0 89 35 155.5t102 103t160 36.5q137 0 185 -103l-121 -71q-13 22 -33 33.5t-52 11.5q-35 0 -63.5 -21.5t-44.5 -56t-16 -71.5q0 -42 22.5 -66t57.5 -24q28 0 48.5 12.5t42.5 37.5l97 -86q-33 -47 -83.5 -70.5t-130.5 -23.5q-92 0 -149 49.5z
M302 561q-24 24 -24 65t24 65.5t66 24.5t65.5 -24t23.5 -66q0 -41 -23.5 -65t-65.5 -24t-66 24z" />
    <glyph glyph-name="d" unicode="d" horiz-adv-x="574" 
d="M84 40.5q-49 54.5 -49 155.5q0 72 30.5 138.5t90.5 108t144 41.5q67 0 109 -33l59 279h152l-155 -730h-127v39q-26 -26 -56.5 -39.5t-72.5 -13.5q-76 0 -125 54.5zM343 142l39 183q-28 29 -68 29q-37 0 -65 -21.5t-43 -55t-15 -68.5q0 -42 23.5 -67.5t58.5 -25.5
q36 0 70 26z" />
    <glyph glyph-name="eth" unicode="&#xf0;" horiz-adv-x="552" 
d="M588 621l-99 -40q50 -97 50 -231q0 -100 -31.5 -182t-101 -132t-179.5 -50q-93 0 -149.5 52.5t-56.5 146.5q0 69 29.5 128.5t87 95t138.5 35.5q37 0 65 -8t42 -23q-2 55 -35 110l-136 -55l-33 87l104 42q-32 25 -64 40l112 96q62 -34 101 -75l121 49zM327.5 156
q32.5 40 42.5 118q-9 19 -30.5 30.5t-51.5 11.5q-34 0 -59.5 -17.5t-39 -46t-13.5 -58.5q0 -36 20 -57t53 -21q46 0 78.5 40z" />
    <glyph glyph-name="dcaron" unicode="&#x10f;" horiz-adv-x="735" 
d="M84 40.5q-49 54.5 -49 155.5q0 72 30.5 138.5t90.5 108t144 41.5q67 0 109 -33l59 279h152l-155 -730h-127v39q-26 -26 -56.5 -39.5t-72.5 -13.5q-76 0 -125 54.5zM343 142l39 183q-28 29 -68 29q-37 0 -65 -21.5t-43 -55t-15 -68.5q0 -42 23.5 -67.5t58.5 -25.5
q36 0 70 26zM610 464q40 19 65.5 36t37.5 37q-26 0 -45.5 21t-19.5 52q0 38 26 63t65 25q36 0 56 -21.5t20 -65.5q0 -66 -38 -114.5t-106 -94.5z" />
    <glyph glyph-name="dcroat" unicode="&#x111;" horiz-adv-x="566" 
d="M657 659l-24 -115h-59l-116 -544h-127v39q-26 -26 -56.5 -39.5t-72.5 -13.5q-76 0 -125 54.5t-49 155.5q0 72 30.5 138.5t90.5 108t144 41.5q67 0 109 -33l19 93h-132l24 115h133l15 71h152l-15 -71h59zM336 142l39 183q-28 29 -68 29q-37 0 -65 -21.5t-43 -55t-15 -68.5
q0 -42 23.5 -67.5t58.5 -25.5q36 0 70 26z" />
    <glyph glyph-name="e" unicode="e" horiz-adv-x="544" 
d="M97 43q-61 57 -61 161q0 76 33.5 139.5t98.5 102t154 38.5q91 0 142.5 -50.5t51.5 -136.5q0 -48 -18 -105h-314q4 -42 28 -64t66 -22q31 0 58.5 11.5t55.5 34.5l62 -103q-70 -63 -197 -63q-99 0 -160 57zM387 294q0 36 -20 55.5t-59 19.5q-37 0 -64 -20.5t-43 -54.5h186z
" />
    <glyph glyph-name="eacute" unicode="&#xe9;" horiz-adv-x="544" 
d="M97 43q-61 57 -61 161q0 76 33.5 139.5t98.5 102t154 38.5q91 0 142.5 -50.5t51.5 -136.5q0 -48 -18 -105h-314q4 -42 28 -64t66 -22q31 0 58.5 11.5t55.5 34.5l62 -103q-70 -63 -197 -63q-99 0 -160 57zM387 294q0 36 -20 55.5t-59 19.5q-37 0 -64 -20.5t-43 -54.5h186z
M410 546h-125l86 144h177z" />
    <glyph glyph-name="ebreve" unicode="&#x115;" horiz-adv-x="544" 
d="M97 43q-61 57 -61 161q0 76 33.5 139.5t98.5 102t154 38.5q91 0 142.5 -50.5t51.5 -136.5q0 -48 -18 -105h-314q4 -42 28 -64t66 -22q31 0 58.5 11.5t55.5 34.5l62 -103q-70 -63 -197 -63q-99 0 -160 57zM387 294q0 36 -20 55.5t-59 19.5q-37 0 -64 -20.5t-43 -54.5h186z
M263 577q-36 31 -36 82q0 15 3 31h100q-2 -10 -2 -15q0 -19 10 -30.5t27 -11.5q23 0 38 15.5t20 41.5h100q-15 -74 -53.5 -109t-106.5 -35q-64 0 -100 31z" />
    <glyph glyph-name="ecaron" unicode="&#x11b;" horiz-adv-x="544" 
d="M97 43q-61 57 -61 161q0 76 33.5 139.5t98.5 102t154 38.5q91 0 142.5 -50.5t51.5 -136.5q0 -48 -18 -105h-314q4 -42 28 -64t66 -22q31 0 58.5 11.5t55.5 34.5l62 -103q-70 -63 -197 -63q-99 0 -160 57zM387 294q0 36 -20 55.5t-59 19.5q-37 0 -64 -20.5t-43 -54.5h186z
M395 546h-96l-83 144h108l36 -55l56 55h119z" />
    <glyph glyph-name="ecircumflex" unicode="&#xea;" horiz-adv-x="544" 
d="M97 43q-61 57 -61 161q0 76 33.5 139.5t98.5 102t154 38.5q91 0 142.5 -50.5t51.5 -136.5q0 -48 -18 -105h-314q4 -42 28 -64t66 -22q31 0 58.5 11.5t55.5 34.5l62 -103q-70 -63 -197 -63q-99 0 -160 57zM387 294q0 36 -20 55.5t-59 19.5q-37 0 -64 -20.5t-43 -54.5h186z
M305 546h-119l140 144h96l83 -144h-108l-36 55z" />
    <glyph glyph-name="uni1EBF" unicode="&#x1ebf;" horiz-adv-x="544" 
d="M97 43q-61 57 -61 161q0 76 33.5 139.5t98.5 102t154 38.5q91 0 142.5 -50.5t51.5 -136.5q0 -48 -18 -105h-314q4 -42 28 -64t66 -22q31 0 58.5 11.5t55.5 34.5l62 -103q-70 -63 -197 -63q-99 0 -160 57zM387 294q0 36 -20 55.5t-59 19.5q-37 0 -64 -20.5t-43 -54.5h186z
M547 690h-101l66 144h150zM305 546h-119l140 144h96l83 -144h-108l-36 55z" />
    <glyph glyph-name="uni1EC7" unicode="&#x1ec7;" horiz-adv-x="544" 
d="M97 43q-61 57 -61 161q0 76 33.5 139.5t98.5 102t154 38.5q91 0 142.5 -50.5t51.5 -136.5q0 -48 -18 -105h-314q4 -42 28 -64t66 -22q31 0 58.5 11.5t55.5 34.5l62 -103q-70 -63 -197 -63q-99 0 -160 57zM387 294q0 36 -20 55.5t-59 19.5q-37 0 -64 -20.5t-43 -54.5h186z
M154 -175q-21 21 -21 58q0 36 21 57t58 21q36 0 57 -21t21 -57q0 -37 -21 -58t-57 -21q-37 0 -58 21zM305 546h-119l140 144h96l83 -144h-108l-36 55z" />
    <glyph glyph-name="uni1EC1" unicode="&#x1ec1;" horiz-adv-x="544" 
d="M97 43q-61 57 -61 161q0 76 33.5 139.5t98.5 102t154 38.5q91 0 142.5 -50.5t51.5 -136.5q0 -48 -18 -105h-314q4 -42 28 -64t66 -22q31 0 58.5 11.5t55.5 34.5l62 -103q-70 -63 -197 -63q-99 0 -160 57zM387 294q0 36 -20 55.5t-59 19.5q-37 0 -64 -20.5t-43 -54.5h186z
M560 690h-94l-65 144h141zM305 546h-119l140 144h96l83 -144h-108l-36 55z" />
    <glyph glyph-name="uni1EC3" unicode="&#x1ec3;" horiz-adv-x="544" 
d="M97 43q-61 57 -61 161q0 76 33.5 139.5t98.5 102t154 38.5q91 0 142.5 -50.5t51.5 -136.5q0 -48 -18 -105h-314q4 -42 28 -64t66 -22q31 0 58.5 11.5t55.5 34.5l62 -103q-70 -63 -197 -63q-99 0 -160 57zM387 294q0 36 -20 55.5t-59 19.5q-37 0 -64 -20.5t-43 -54.5h186z
M452 701q9 6 14 15.5t5 16.5q0 19 -23 19q-15 0 -36 -9l-22 71q15 11 39 17.5t51 6.5q50 0 76 -20t26 -58q0 -37 -18.5 -62t-58.5 -48zM303 546h-119l140 144h96l83 -144h-108l-36 55z" />
    <glyph glyph-name="uni1EC5" unicode="&#x1ec5;" horiz-adv-x="544" 
d="M97 43q-61 57 -61 161q0 76 33.5 139.5t98.5 102t154 38.5q91 0 142.5 -50.5t51.5 -136.5q0 -48 -18 -105h-314q4 -42 28 -64t66 -22q31 0 58.5 11.5t55.5 34.5l62 -103q-70 -63 -197 -63q-99 0 -160 57zM387 294q0 36 -20 55.5t-59 19.5q-37 0 -64 -20.5t-43 -54.5h186z
M220 764q22 40 52.5 59t74.5 19q23 0 39.5 -5t33.5 -13q26 -12 42 -12q20 0 31 6t32 27l43 -67q-18 -37 -43.5 -50.5t-67.5 -13.5q-21 0 -38 5t-37 14q-28 13 -42 13q-18 0 -34 -8t-35 -25zM310 546h-119l140 144h96l83 -144h-108l-36 55z" />
    <glyph glyph-name="edieresis" unicode="&#xeb;" horiz-adv-x="544" 
d="M97 43q-61 57 -61 161q0 76 33.5 139.5t98.5 102t154 38.5q91 0 142.5 -50.5t51.5 -136.5q0 -48 -18 -105h-314q4 -42 28 -64t66 -22q31 0 58.5 11.5t55.5 34.5l62 -103q-70 -63 -197 -63q-99 0 -160 57zM387 294q0 36 -20 55.5t-59 19.5q-37 0 -64 -20.5t-43 -54.5h186z
M214.5 575.5q-19.5 19.5 -19.5 54.5t19.5 55t55.5 20q35 0 54.5 -20t19.5 -55t-19.5 -54.5t-54.5 -19.5q-36 0 -55.5 19.5zM403 575.5q-20 19.5 -20 54.5t20 55t55 20t55 -20t20 -55t-20 -54.5t-55 -19.5t-55 19.5z" />
    <glyph glyph-name="edotaccent" unicode="&#x117;" horiz-adv-x="544" 
d="M97 43q-61 57 -61 161q0 76 33.5 139.5t98.5 102t154 38.5q91 0 142.5 -50.5t51.5 -136.5q0 -48 -18 -105h-314q4 -42 28 -64t66 -22q31 0 58.5 11.5t55.5 34.5l62 -103q-70 -63 -197 -63q-99 0 -160 57zM387 294q0 36 -20 55.5t-59 19.5q-37 0 -64 -20.5t-43 -54.5h186z
M297 561q-24 24 -24 65t24 65.5t66 24.5t65.5 -24t23.5 -66q0 -41 -23.5 -65t-65.5 -24t-66 24z" />
    <glyph glyph-name="uni1EB9" unicode="&#x1eb9;" horiz-adv-x="544" 
d="M97 43q-61 57 -61 161q0 76 33.5 139.5t98.5 102t154 38.5q91 0 142.5 -50.5t51.5 -136.5q0 -48 -18 -105h-314q4 -42 28 -64t66 -22q31 0 58.5 11.5t55.5 34.5l62 -103q-70 -63 -197 -63q-99 0 -160 57zM387 294q0 36 -20 55.5t-59 19.5q-37 0 -64 -20.5t-43 -54.5h186z
M154 -175q-21 21 -21 58q0 36 21 57t58 21q36 0 57 -21t21 -57q0 -37 -21 -58t-57 -21q-37 0 -58 21z" />
    <glyph glyph-name="egrave" unicode="&#xe8;" horiz-adv-x="544" 
d="M97 43q-61 57 -61 161q0 76 33.5 139.5t98.5 102t154 38.5q91 0 142.5 -50.5t51.5 -136.5q0 -48 -18 -105h-314q4 -42 28 -64t66 -22q31 0 58.5 11.5t55.5 34.5l62 -103q-70 -63 -197 -63q-99 0 -160 57zM387 294q0 36 -20 55.5t-59 19.5q-37 0 -64 -20.5t-43 -54.5h186z
M405 546h-118l-86 144h173z" />
    <glyph glyph-name="uni1EBB" unicode="&#x1ebb;" horiz-adv-x="544" 
d="M97 43q-61 57 -61 161q0 76 33.5 139.5t98.5 102t154 38.5q91 0 142.5 -50.5t51.5 -136.5q0 -48 -18 -105h-314q4 -42 28 -64t66 -22q31 0 58.5 11.5t55.5 34.5l62 -103q-70 -63 -197 -63q-99 0 -160 57zM387 294q0 36 -20 55.5t-59 19.5q-37 0 -64 -20.5t-43 -54.5h186z
M334 566q20 20 20 36q0 9 -6 14t-17 5q-16 0 -33 -10l-24 72q16 10 40.5 17t51.5 7q49 0 73 -21t24 -58t-18.5 -61.5t-58.5 -43.5z" />
    <glyph glyph-name="emacron" unicode="&#x113;" horiz-adv-x="544" 
d="M97 43q-61 57 -61 161q0 76 33.5 139.5t98.5 102t154 38.5q91 0 142.5 -50.5t51.5 -136.5q0 -48 -18 -105h-314q4 -42 28 -64t66 -22q31 0 58.5 11.5t55.5 34.5l62 -103q-70 -63 -197 -63q-99 0 -160 57zM387 294q0 36 -20 55.5t-59 19.5q-37 0 -64 -20.5t-43 -54.5h186z
M486 581h-267l24 109h267z" />
    <glyph glyph-name="eogonek" unicode="&#x119;" horiz-adv-x="544" 
d="M464.5 433.5q51.5 -50.5 51.5 -136.5q0 -48 -18 -105h-314q4 -42 28 -64t66 -22q31 0 58.5 11.5t55.5 34.5l62 -103q-45 -42 -118 -56q-24 -17 -40.5 -37.5t-16.5 -37.5q0 -11 6 -17t15 -6q11 0 23 6v-85q-19 -12 -68 -12q-39 0 -61 24t-22 65q0 27 11.5 52t32.5 44
q-82 12 -131 67t-49 148q0 76 33.5 139.5t98.5 102t154 38.5q91 0 142.5 -50.5zM387 294q0 36 -20 55.5t-59 19.5q-37 0 -64 -20.5t-43 -54.5h186z" />
    <glyph glyph-name="uni1EBD" unicode="&#x1ebd;" horiz-adv-x="544" 
d="M97 43q-61 57 -61 161q0 76 33.5 139.5t98.5 102t154 38.5q91 0 142.5 -50.5t51.5 -136.5q0 -48 -18 -105h-314q4 -42 28 -64t66 -22q31 0 58.5 11.5t55.5 34.5l62 -103q-70 -63 -197 -63q-99 0 -160 57zM387 294q0 36 -20 55.5t-59 19.5q-37 0 -64 -20.5t-43 -54.5h186z
M386.5 578.5q-16.5 5.5 -35.5 15.5q-2 1 -16 7.5t-27 6.5t-29.5 -8t-31.5 -25l-61 53q42 76 124 76q23 0 39 -4.5t33 -12.5q13 -7 22.5 -10t22.5 -3q33 0 62 33l48 -67q-23 -36 -47 -51.5t-65 -15.5q-22 0 -38.5 5.5z" />
    <glyph glyph-name="f" unicode="f" horiz-adv-x="378" 
d="M41 0l72 341h-69l28 129h69l19 90q20 96 73 140t146 44q28 0 48 -4t40 -12l-27 -129q-24 15 -59 15q-58 0 -71 -61l-18 -83h117l-28 -129h-116l-72 -341h-152z" />
    <glyph glyph-name="g" unicode="g" horiz-adv-x="524" 
d="M22.5 -173q-56.5 31 -56.5 90q0 75 73 112q-19 25 -19 61q0 39 26.5 72t68.5 45q-32 38 -32 93q0 54 27 95.5t78 65t120 23.5q44 0 80 -14l98 94l70 -91l-95 -63q20 -34 20 -76q0 -54 -27 -95.5t-77.5 -65t-119.5 -23.5q-42 0 -75 12q-26 -9 -26 -26q0 -25 44 -25h86
q73 0 118.5 -33.5t45.5 -96.5q0 -90 -78.5 -137.5t-201.5 -47.5q-91 0 -147.5 31zM323 275q21 24 21 57q0 23 -13.5 37t-35.5 14q-33 0 -54 -24t-21 -57q0 -23 13.5 -37t35.5 -14q33 0 54 24zM284.5 -88.5q29.5 13.5 29.5 40.5q0 14 -10.5 22.5t-28.5 8.5h-115q-28 0 -45 4
q-18 -16 -18 -36q0 -24 25 -38.5t70 -14.5q63 0 92.5 13.5z" />
    <glyph glyph-name="gbreve" unicode="&#x11f;" horiz-adv-x="524" 
d="M22.5 -173q-56.5 31 -56.5 90q0 75 73 112q-19 25 -19 61q0 39 26.5 72t68.5 45q-32 38 -32 93q0 54 27 95.5t78 65t120 23.5q44 0 80 -14l98 94l70 -91l-95 -63q20 -34 20 -76q0 -54 -27 -95.5t-77.5 -65t-119.5 -23.5q-42 0 -75 12q-26 -9 -26 -26q0 -25 44 -25h86
q73 0 118.5 -33.5t45.5 -96.5q0 -90 -78.5 -137.5t-201.5 -47.5q-91 0 -147.5 31zM323 275q21 24 21 57q0 23 -13.5 37t-35.5 14q-33 0 -54 -24t-21 -57q0 -23 13.5 -37t35.5 -14q33 0 54 24zM284.5 -88.5q29.5 13.5 29.5 40.5q0 14 -10.5 22.5t-28.5 8.5h-115q-28 0 -45 4
q-18 -16 -18 -36q0 -24 25 -38.5t70 -14.5q63 0 92.5 13.5zM237 577q-36 31 -36 82q0 15 3 31h100q-2 -10 -2 -15q0 -19 10 -30.5t27 -11.5q23 0 38 15.5t20 41.5h100q-15 -74 -53.5 -109t-106.5 -35q-64 0 -100 31z" />
    <glyph glyph-name="gcircumflex" unicode="&#x11d;" horiz-adv-x="524" 
d="M22.5 -173q-56.5 31 -56.5 90q0 75 73 112q-19 25 -19 61q0 39 26.5 72t68.5 45q-32 38 -32 93q0 54 27 95.5t78 65t120 23.5q44 0 80 -14l98 94l70 -91l-95 -63q20 -34 20 -76q0 -54 -27 -95.5t-77.5 -65t-119.5 -23.5q-42 0 -75 12q-26 -9 -26 -26q0 -25 44 -25h86
q73 0 118.5 -33.5t45.5 -96.5q0 -90 -78.5 -137.5t-201.5 -47.5q-91 0 -147.5 31zM323 275q21 24 21 57q0 23 -13.5 37t-35.5 14q-33 0 -54 -24t-21 -57q0 -23 13.5 -37t35.5 -14q33 0 54 24zM284.5 -88.5q29.5 13.5 29.5 40.5q0 14 -10.5 22.5t-28.5 8.5h-115q-28 0 -45 4
q-18 -16 -18 -36q0 -24 25 -38.5t70 -14.5q63 0 92.5 13.5zM249 546h-119l140 144h96l83 -144h-108l-36 55z" />
    <glyph glyph-name="uni0123" unicode="&#x123;" horiz-adv-x="524" 
d="M22.5 -173q-56.5 31 -56.5 90q0 75 73 112q-19 25 -19 61q0 39 26.5 72t68.5 45q-32 38 -32 93q0 54 27 95.5t78 65t120 23.5q44 0 80 -14l98 94l70 -91l-95 -63q20 -34 20 -76q0 -54 -27 -95.5t-77.5 -65t-119.5 -23.5q-42 0 -75 12q-26 -9 -26 -26q0 -25 44 -25h86
q73 0 118.5 -33.5t45.5 -96.5q0 -90 -78.5 -137.5t-201.5 -47.5q-91 0 -147.5 31zM323 275q21 24 21 57q0 23 -13.5 37t-35.5 14q-33 0 -54 -24t-21 -57q0 -23 13.5 -37t35.5 -14q33 0 54 24zM284.5 -88.5q29.5 13.5 29.5 40.5q0 14 -10.5 22.5t-28.5 8.5h-115q-28 0 -45 4
q-18 -16 -18 -36q0 -24 25 -38.5t70 -14.5q63 0 92.5 13.5zM283 550.5q-15 14.5 -15 41.5q0 32 17.5 57t44 38.5t52.5 13.5l28 -48q-43 -6 -64 -19q18 -1 29.5 -14t11.5 -32q0 -24 -16.5 -38t-47.5 -14q-25 0 -40 14.5z" />
    <glyph glyph-name="gdotaccent" unicode="&#x121;" horiz-adv-x="524" 
d="M22.5 -173q-56.5 31 -56.5 90q0 75 73 112q-19 25 -19 61q0 39 26.5 72t68.5 45q-32 38 -32 93q0 54 27 95.5t78 65t120 23.5q44 0 80 -14l98 94l70 -91l-95 -63q20 -34 20 -76q0 -54 -27 -95.5t-77.5 -65t-119.5 -23.5q-42 0 -75 12q-26 -9 -26 -26q0 -25 44 -25h86
q73 0 118.5 -33.5t45.5 -96.5q0 -90 -78.5 -137.5t-201.5 -47.5q-91 0 -147.5 31zM323 275q21 24 21 57q0 23 -13.5 37t-35.5 14q-33 0 -54 -24t-21 -57q0 -23 13.5 -37t35.5 -14q33 0 54 24zM284.5 -88.5q29.5 13.5 29.5 40.5q0 14 -10.5 22.5t-28.5 8.5h-115q-28 0 -45 4
q-18 -16 -18 -36q0 -24 25 -38.5t70 -14.5q63 0 92.5 13.5zM271 561q-24 24 -24 65t24 65.5t66 24.5t65.5 -24t23.5 -66q0 -41 -23.5 -65t-65.5 -24t-66 24z" />
    <glyph glyph-name="h" unicode="h" horiz-adv-x="565" 
d="M8 0l156 730h152l-69 -323q47 77 142 77q66 0 101 -37t35 -100q0 -26 -6 -55l-63 -292h-152l61 287q2 10 2 14q0 24 -16 38.5t-44 14.5q-49 0 -82 -51l-65 -303h-152z" />
    <glyph glyph-name="hbar" unicode="&#x127;" horiz-adv-x="565" 
d="M490 447q35 -37 35 -100q0 -26 -6 -55l-63 -292h-152l61 287q2 10 2 14q0 24 -16 38.5t-44 14.5q-49 0 -82 -51l-65 -303h-152l116 544h-59l24 115h60l15 71h152l-15 -71h133l-24 -115h-134l-29 -137q47 77 142 77q66 0 101 -37z" />
    <glyph glyph-name="hcircumflex" unicode="&#x125;" horiz-adv-x="565" 
d="M8 0l156 730h152l-69 -323q47 77 142 77q66 0 101 -37t35 -100q0 -26 -6 -55l-63 -292h-152l61 287q2 10 2 14q0 24 -16 38.5t-44 14.5q-49 0 -82 -51l-65 -303h-152zM215 806h-119l140 144h96l83 -144h-108l-36 55z" />
    <glyph glyph-name="i" unicode="i" horiz-adv-x="269" 
d="M152 561q-24 24 -24 65t24 65.5t66 24.5t65.5 -24t23.5 -66q0 -41 -23.5 -65t-65.5 -24t-66 24zM161 0h-152l100 470h152z" />
    <glyph glyph-name="dotlessi" unicode="&#x131;" horiz-adv-x="268" 
d="M160 0h-152l100 470h152z" />
    <glyph glyph-name="iacute" unicode="&#xed;" horiz-adv-x="268" 
d="M160 0h-152l100 470h152zM264 546h-125l86 144h177z" />
    <glyph glyph-name="ibreve" unicode="&#x12d;" horiz-adv-x="268" 
d="M160 0h-152l100 470h152zM117 577q-36 31 -36 82q0 15 3 31h100q-2 -10 -2 -15q0 -19 10 -30.5t27 -11.5q23 0 38 15.5t20 41.5h100q-15 -74 -53.5 -109t-106.5 -35q-64 0 -100 31z" />
    <glyph glyph-name="icircumflex" unicode="&#xee;" horiz-adv-x="268" 
d="M160 0h-152l100 470h152zM159 546h-119l140 144h96l83 -144h-108l-36 55z" />
    <glyph glyph-name="idieresis" unicode="&#xef;" horiz-adv-x="268" 
d="M160 0h-152l100 470h152zM68.5 575.5q-19.5 19.5 -19.5 54.5t19.5 55t55.5 20q35 0 54.5 -20t19.5 -55t-19.5 -54.5t-54.5 -19.5q-36 0 -55.5 19.5zM257 575.5q-20 19.5 -20 54.5t20 55t55 20t55 -20t20 -55t-20 -54.5t-55 -19.5t-55 19.5z" />
    <glyph glyph-name="i.locl" horiz-adv-x="268" 
d="M160 0h-152l100 470h152zM151 561q-24 24 -24 65t24 65.5t66 24.5t65.5 -24t23.5 -66q0 -41 -23.5 -65t-65.5 -24t-66 24z" />
    <glyph glyph-name="uni1ECB" unicode="&#x1ecb;" horiz-adv-x="269" 
d="M152 561q-24 24 -24 65t24 65.5t66 24.5t65.5 -24t23.5 -66q0 -41 -23.5 -65t-65.5 -24t-66 24zM161 0h-152l100 470h152zM2 -175q-21 21 -21 58q0 36 21 57t58 21q36 0 57 -21t21 -57q0 -37 -21 -58t-57 -21q-37 0 -58 21z" />
    <glyph glyph-name="igrave" unicode="&#xec;" horiz-adv-x="268" 
d="M160 0h-152l100 470h152zM259 546h-118l-86 144h173z" />
    <glyph glyph-name="uni1EC9" unicode="&#x1ec9;" horiz-adv-x="268" 
d="M160 0h-152l100 470h152zM188 566q20 20 20 36q0 9 -6 14t-17 5q-16 0 -33 -10l-24 72q16 10 40.5 17t51.5 7q49 0 73 -21t24 -58t-18.5 -61.5t-58.5 -43.5z" />
    <glyph glyph-name="ij" unicode="&#x133;" horiz-adv-x="538" 
d="M152 561q-24 24 -24 65t24 65.5t66 24.5t65.5 -24t23.5 -66q0 -41 -23.5 -65t-65.5 -24t-66 24zM161 0h-152l100 470h152zM421 561q-24 24 -24 65t24 65.5t66 24.5t65.5 -24t23.5 -66q0 -41 -23.5 -65t-65.5 -24t-66 24zM158 -194l31 140q6 -4 17 -6.5t21 -2.5
q22 0 32 11t16 39l102 483h152l-104 -492q-14 -68 -36 -107t-62 -57t-107 -18q-36 0 -62 10z" />
    <glyph glyph-name="imacron" unicode="&#x12b;" horiz-adv-x="268" 
d="M160 0h-152l100 470h152zM340 581h-267l24 109h267z" />
    <glyph glyph-name="iogonek" unicode="&#x12f;" horiz-adv-x="268" 
d="M282.5 692q23.5 -24 23.5 -66q0 -41 -23.5 -65t-65.5 -24t-66 24t-24 65t24 65.5t66 24.5t65.5 -24zM8 0l100 470h152l-100 -470q-28 -17 -48 -40t-20 -42q0 -11 6 -17t15 -6q11 0 23 6v-85q-20 -12 -68 -12q-39 0 -61 24t-22 65q0 31 15 59.5t43 47.5h-35z" />
    <glyph glyph-name="itilde" unicode="&#x129;" horiz-adv-x="268" 
d="M160 0h-152l100 470h152zM240.5 578.5q-16.5 5.5 -35.5 15.5q-2 1 -16 7.5t-27 6.5t-29.5 -8t-31.5 -25l-61 53q42 76 124 76q23 0 39 -4.5t33 -12.5q13 -7 22.5 -10t22.5 -3q33 0 62 33l48 -67q-23 -36 -47 -51.5t-65 -15.5q-22 0 -38.5 5.5z" />
    <glyph glyph-name="j" unicode="j" horiz-adv-x="269" 
d="M152 561q-24 24 -24 65t24 65.5t66 24.5t65.5 -24t23.5 -66q0 -41 -23.5 -65t-65.5 -24t-66 24zM-111 -194l31 140q6 -4 17 -6.5t21 -2.5q22 0 32 11t16 39l102 483h152l-104 -492q-14 -68 -36 -107t-62 -57t-107 -18q-36 0 -62 10z" />
    <glyph glyph-name="uni0237" unicode="&#x237;" horiz-adv-x="269" 
d="M-111 -194l31 140q6 -4 17 -6.5t21 -2.5q22 0 32 11t16 39l102 483h152l-104 -492q-14 -68 -36 -107t-62 -57t-107 -18q-36 0 -62 10z" />
    <glyph glyph-name="jcircumflex" unicode="&#x135;" horiz-adv-x="269" 
d="M-111 -194l31 140q6 -4 17 -6.5t21 -2.5q22 0 32 11t16 39l102 483h152l-104 -492q-14 -68 -36 -107t-62 -57t-107 -18q-36 0 -62 10zM160 546h-119l140 144h96l83 -144h-108l-36 55z" />
    <glyph glyph-name="k" unicode="k" horiz-adv-x="534" 
d="M8 0l156 730h152l-78 -365l127 105h201l-213 -175q47 -62 75.5 -137.5t35.5 -157.5h-157q-12 117 -71 198l-41 -33l-35 -165h-152z" />
    <glyph glyph-name="uni0137" unicode="&#x137;" horiz-adv-x="534" 
d="M8 0l156 730h152l-78 -365l127 105h201l-213 -175q47 -62 75.5 -137.5t35.5 -157.5h-157q-12 117 -71 198l-41 -33l-35 -165h-152zM117 -166q42 4 61 18q-19 0 -30 11.5t-11 28.5q0 27 20.5 42.5t52.5 15.5q29 0 44 -15t15 -43q0 -88 -129 -107z" />
    <glyph glyph-name="kgreenlandic" unicode="&#x138;" horiz-adv-x="534" 
d="M566 470l-213 -175q47 -62 75.5 -137.5t35.5 -157.5h-157q-12 117 -71 198l-41 -33l-35 -165h-152l100 470h152l-22 -105l127 105h201z" />
    <glyph glyph-name="l" unicode="l" horiz-adv-x="313" 
d="M71 18.5q-32 32.5 -32 94.5q0 35 8 70l116 547h152l-117 -550q-2 -14 -2 -19q0 -19 9.5 -30t27.5 -11t31 8l-27 -127q-30 -15 -71 -15q-63 0 -95 32.5z" />
    <glyph glyph-name="lacute" unicode="&#x13a;" horiz-adv-x="313" 
d="M71 18.5q-32 32.5 -32 94.5q0 35 8 70l116 547h152l-117 -550q-2 -14 -2 -19q0 -19 9.5 -30t27.5 -11t31 8l-27 -127q-30 -15 -71 -15q-63 0 -95 32.5zM318 806h-125l86 144h177z" />
    <glyph glyph-name="lcaron" unicode="&#x13e;" horiz-adv-x="438" 
d="M71 18.5q-32 32.5 -32 94.5q0 35 8 70l116 547h152l-117 -550q-2 -14 -2 -19q0 -19 9.5 -30t27.5 -11t31 8l-27 -127q-30 -15 -71 -15q-63 0 -95 32.5zM313 464q40 19 65.5 36t37.5 37q-26 0 -45.5 21t-19.5 52q0 38 26 63t65 25q36 0 56 -21.5t20 -65.5
q0 -66 -38 -114.5t-106 -94.5z" />
    <glyph glyph-name="uni013C" unicode="&#x13c;" horiz-adv-x="313" 
d="M71 18.5q-32 32.5 -32 94.5q0 35 8 70l116 547h152l-117 -550q-2 -14 -2 -19q0 -19 9.5 -30t27.5 -11t31 8l-27 -127q-30 -15 -71 -15q-63 0 -95 32.5zM2 -166q42 4 61 18q-19 0 -30 11.5t-11 28.5q0 27 20.5 42.5t52.5 15.5q29 0 44 -15t15 -43q0 -88 -129 -107z" />
    <glyph glyph-name="ldot" unicode="&#x140;" horiz-adv-x="430" 
d="M71 18.5q-32 32.5 -32 94.5q0 35 8 70l116 547h152l-117 -550q-2 -14 -2 -19q0 -19 9.5 -30t27.5 -11t31 8l-27 -127q-30 -15 -71 -15q-63 0 -95 32.5zM301.5 275.5q-26.5 26.5 -26.5 69.5q0 44 26.5 70t69.5 26t69.5 -26.5t26.5 -69.5t-26.5 -69.5t-69.5 -26.5
t-69.5 26.5z" />
    <glyph glyph-name="lslash" unicode="&#x142;" horiz-adv-x="326" 
d="M327 730l-66 -311l66 36l-33 -154l-66 -36l-18 -85q-2 -14 -2 -19q0 -19 9.5 -30t27.5 -11t31 8l-27 -127q-30 -15 -71 -15q-63 0 -95 32.5t-32 94.5q0 27 6 60l-62 -34l33 153l61 33l86 405h152z" />
    <glyph glyph-name="m" unicode="m" horiz-adv-x="824" 
d="M9 0l99 470h139v-61q23 36 57 55.5t85 19.5q48 0 75.5 -20t38.5 -54q24 35 66 54.5t95 19.5q60 0 91 -33t31 -93q0 -27 -6 -57l-64 -301h-152l62 294q2 10 2 15q0 20 -13 32t-34 12q-47 0 -77 -42l-66 -311h-152l62 294q1 5 1 14q0 20 -12 32.5t-33 12.5q-26 0 -44 -11
t-33 -31l-66 -311h-152z" />
    <glyph glyph-name="n" unicode="n" horiz-adv-x="555" 
d="M9 0l99 470h139v-66q27 36 62 58t87 22q58 0 90.5 -33.5t32.5 -90.5q0 -23 -6 -50l-66 -310h-152l62 293q1 4 1 12q0 21 -14.5 35t-38.5 14q-26 0 -46.5 -13.5t-32.5 -34.5l-65 -306h-152z" />
    <glyph glyph-name="nacute" unicode="&#x144;" horiz-adv-x="555" 
d="M9 0l99 470h139v-66q27 36 62 58t87 22q58 0 90.5 -33.5t32.5 -90.5q0 -23 -6 -50l-66 -310h-152l62 293q1 4 1 12q0 21 -14.5 35t-38.5 14q-26 0 -46.5 -13.5t-32.5 -34.5l-65 -306h-152zM407 546h-125l86 144h177z" />
    <glyph glyph-name="ncaron" unicode="&#x148;" horiz-adv-x="555" 
d="M9 0l99 470h139v-66q27 36 62 58t87 22q58 0 90.5 -33.5t32.5 -90.5q0 -23 -6 -50l-66 -310h-152l62 293q1 4 1 12q0 21 -14.5 35t-38.5 14q-26 0 -46.5 -13.5t-32.5 -34.5l-65 -306h-152zM392 546h-96l-83 144h108l36 -55l56 55h119z" />
    <glyph glyph-name="uni0146" unicode="&#x146;" horiz-adv-x="555" 
d="M9 0l99 470h139v-66q27 36 62 58t87 22q58 0 90.5 -33.5t32.5 -90.5q0 -23 -6 -50l-66 -310h-152l62 293q1 4 1 12q0 21 -14.5 35t-38.5 14q-26 0 -46.5 -13.5t-32.5 -34.5l-65 -306h-152zM124 -166q42 4 61 18q-19 0 -30 11.5t-11 28.5q0 27 20.5 42.5t52.5 15.5
q29 0 44 -15t15 -43q0 -88 -129 -107z" />
    <glyph glyph-name="eng" unicode="&#x14b;" horiz-adv-x="555" 
d="M185 -196l31 140q11 -7 28 -7q22 0 32 11t16 39l65 306q1 4 1 12q0 21 -14.5 35t-38.5 14q-26 0 -46.5 -13.5t-32.5 -34.5l-65 -306h-152l99 470h139v-66q27 36 62 58t87 22q58 0 90.5 -33.5t32.5 -90.5q0 -23 -6 -50l-71 -332q-14 -68 -36 -107t-62 -57t-107 -18
q-31 0 -52 8z" />
    <glyph glyph-name="ntilde" unicode="&#xf1;" horiz-adv-x="555" 
d="M9 0l99 470h139v-66q27 36 62 58t87 22q58 0 90.5 -33.5t32.5 -90.5q0 -23 -6 -50l-66 -310h-152l62 293q1 4 1 12q0 21 -14.5 35t-38.5 14q-26 0 -46.5 -13.5t-32.5 -34.5l-65 -306h-152zM383.5 578.5q-16.5 5.5 -35.5 15.5q-2 1 -16 7.5t-27 6.5t-29.5 -8t-31.5 -25
l-61 53q42 76 124 76q23 0 39 -4.5t33 -12.5q13 -7 22.5 -10t22.5 -3q33 0 62 33l48 -67q-23 -36 -47 -51.5t-65 -15.5q-22 0 -38.5 5.5z" />
    <glyph glyph-name="o" unicode="o" horiz-adv-x="554" 
d="M89.5 36.5q-55.5 50.5 -55.5 147.5q0 89 34.5 157t98.5 105.5t151 37.5q92 0 147 -50.5t55 -147.5q0 -89 -34.5 -157t-98.5 -105.5t-151 -37.5q-91 0 -146.5 50.5zM313.5 138.5q26.5 22.5 40.5 59t14 76.5q0 36 -18 58t-48 22q-35 0 -61.5 -22.5t-40.5 -59t-14 -76.5
q0 -36 17.5 -58t48.5 -22q35 0 61.5 22.5z" />
    <glyph glyph-name="oacute" unicode="&#xf3;" horiz-adv-x="554" 
d="M89.5 36.5q-55.5 50.5 -55.5 147.5q0 89 34.5 157t98.5 105.5t151 37.5q92 0 147 -50.5t55 -147.5q0 -89 -34.5 -157t-98.5 -105.5t-151 -37.5q-91 0 -146.5 50.5zM313.5 138.5q26.5 22.5 40.5 59t14 76.5q0 36 -18 58t-48 22q-35 0 -61.5 -22.5t-40.5 -59t-14 -76.5
q0 -36 17.5 -58t48.5 -22q35 0 61.5 22.5zM407 546h-125l86 144h177z" />
    <glyph glyph-name="obreve" unicode="&#x14f;" horiz-adv-x="554" 
d="M89.5 36.5q-55.5 50.5 -55.5 147.5q0 89 34.5 157t98.5 105.5t151 37.5q92 0 147 -50.5t55 -147.5q0 -89 -34.5 -157t-98.5 -105.5t-151 -37.5q-91 0 -146.5 50.5zM313.5 138.5q26.5 22.5 40.5 59t14 76.5q0 36 -18 58t-48 22q-35 0 -61.5 -22.5t-40.5 -59t-14 -76.5
q0 -36 17.5 -58t48.5 -22q35 0 61.5 22.5zM260 577q-36 31 -36 82q0 15 3 31h100q-2 -10 -2 -15q0 -19 10 -30.5t27 -11.5q23 0 38 15.5t20 41.5h100q-15 -74 -53.5 -109t-106.5 -35q-64 0 -100 31z" />
    <glyph glyph-name="ocircumflex" unicode="&#xf4;" horiz-adv-x="554" 
d="M89.5 36.5q-55.5 50.5 -55.5 147.5q0 89 34.5 157t98.5 105.5t151 37.5q92 0 147 -50.5t55 -147.5q0 -89 -34.5 -157t-98.5 -105.5t-151 -37.5q-91 0 -146.5 50.5zM313.5 138.5q26.5 22.5 40.5 59t14 76.5q0 36 -18 58t-48 22q-35 0 -61.5 -22.5t-40.5 -59t-14 -76.5
q0 -36 17.5 -58t48.5 -22q35 0 61.5 22.5zM302 546h-119l140 144h96l83 -144h-108l-36 55z" />
    <glyph glyph-name="uni1ED1" unicode="&#x1ed1;" horiz-adv-x="554" 
d="M89.5 36.5q-55.5 50.5 -55.5 147.5q0 89 34.5 157t98.5 105.5t151 37.5q92 0 147 -50.5t55 -147.5q0 -89 -34.5 -157t-98.5 -105.5t-151 -37.5q-91 0 -146.5 50.5zM313.5 138.5q26.5 22.5 40.5 59t14 76.5q0 36 -18 58t-48 22q-35 0 -61.5 -22.5t-40.5 -59t-14 -76.5
q0 -36 17.5 -58t48.5 -22q35 0 61.5 22.5zM544 690h-101l66 144h150zM302 546h-119l140 144h96l83 -144h-108l-36 55z" />
    <glyph glyph-name="uni1ED9" unicode="&#x1ed9;" horiz-adv-x="554" 
d="M89.5 36.5q-55.5 50.5 -55.5 147.5q0 89 34.5 157t98.5 105.5t151 37.5q92 0 147 -50.5t55 -147.5q0 -89 -34.5 -157t-98.5 -105.5t-151 -37.5q-91 0 -146.5 50.5zM313.5 138.5q26.5 22.5 40.5 59t14 76.5q0 36 -18 58t-48 22q-35 0 -61.5 -22.5t-40.5 -59t-14 -76.5
q0 -36 17.5 -58t48.5 -22q35 0 61.5 22.5zM144 -175q-21 21 -21 58q0 36 21 57t58 21q36 0 57 -21t21 -57q0 -37 -21 -58t-57 -21q-37 0 -58 21zM302 546h-119l140 144h96l83 -144h-108l-36 55z" />
    <glyph glyph-name="uni1ED3" unicode="&#x1ed3;" horiz-adv-x="554" 
d="M89.5 36.5q-55.5 50.5 -55.5 147.5q0 89 34.5 157t98.5 105.5t151 37.5q92 0 147 -50.5t55 -147.5q0 -89 -34.5 -157t-98.5 -105.5t-151 -37.5q-91 0 -146.5 50.5zM313.5 138.5q26.5 22.5 40.5 59t14 76.5q0 36 -18 58t-48 22q-35 0 -61.5 -22.5t-40.5 -59t-14 -76.5
q0 -36 17.5 -58t48.5 -22q35 0 61.5 22.5zM557 690h-94l-65 144h141zM302 546h-119l140 144h96l83 -144h-108l-36 55z" />
    <glyph glyph-name="uni1ED5" unicode="&#x1ed5;" horiz-adv-x="554" 
d="M89.5 36.5q-55.5 50.5 -55.5 147.5q0 89 34.5 157t98.5 105.5t151 37.5q92 0 147 -50.5t55 -147.5q0 -89 -34.5 -157t-98.5 -105.5t-151 -37.5q-91 0 -146.5 50.5zM313.5 138.5q26.5 22.5 40.5 59t14 76.5q0 36 -18 58t-48 22q-35 0 -61.5 -22.5t-40.5 -59t-14 -76.5
q0 -36 17.5 -58t48.5 -22q35 0 61.5 22.5zM449 701q9 6 14 15.5t5 16.5q0 19 -23 19q-15 0 -36 -9l-22 71q15 11 39 17.5t51 6.5q50 0 76 -20t26 -58q0 -37 -18.5 -62t-58.5 -48zM300 546h-119l140 144h96l83 -144h-108l-36 55z" />
    <glyph glyph-name="uni1ED7" unicode="&#x1ed7;" horiz-adv-x="554" 
d="M89.5 36.5q-55.5 50.5 -55.5 147.5q0 89 34.5 157t98.5 105.5t151 37.5q92 0 147 -50.5t55 -147.5q0 -89 -34.5 -157t-98.5 -105.5t-151 -37.5q-91 0 -146.5 50.5zM313.5 138.5q26.5 22.5 40.5 59t14 76.5q0 36 -18 58t-48 22q-35 0 -61.5 -22.5t-40.5 -59t-14 -76.5
q0 -36 17.5 -58t48.5 -22q35 0 61.5 22.5zM217 764q22 40 52.5 59t74.5 19q23 0 39.5 -5t33.5 -13q26 -12 42 -12q20 0 31 6t32 27l43 -67q-18 -37 -43.5 -50.5t-67.5 -13.5q-21 0 -38 5t-37 14q-28 13 -42 13q-18 0 -34 -8t-35 -25zM307 546h-119l140 144h96l83 -144h-108
l-36 55z" />
    <glyph glyph-name="odieresis" unicode="&#xf6;" horiz-adv-x="554" 
d="M89.5 36.5q-55.5 50.5 -55.5 147.5q0 89 34.5 157t98.5 105.5t151 37.5q92 0 147 -50.5t55 -147.5q0 -89 -34.5 -157t-98.5 -105.5t-151 -37.5q-91 0 -146.5 50.5zM313.5 138.5q26.5 22.5 40.5 59t14 76.5q0 36 -18 58t-48 22q-35 0 -61.5 -22.5t-40.5 -59t-14 -76.5
q0 -36 17.5 -58t48.5 -22q35 0 61.5 22.5zM211.5 575.5q-19.5 19.5 -19.5 54.5t19.5 55t55.5 20q35 0 54.5 -20t19.5 -55t-19.5 -54.5t-54.5 -19.5q-36 0 -55.5 19.5zM400 575.5q-20 19.5 -20 54.5t20 55t55 20t55 -20t20 -55t-20 -54.5t-55 -19.5t-55 19.5z" />
    <glyph glyph-name="uni1ECD" unicode="&#x1ecd;" horiz-adv-x="554" 
d="M89.5 36.5q-55.5 50.5 -55.5 147.5q0 89 34.5 157t98.5 105.5t151 37.5q92 0 147 -50.5t55 -147.5q0 -89 -34.5 -157t-98.5 -105.5t-151 -37.5q-91 0 -146.5 50.5zM313.5 138.5q26.5 22.5 40.5 59t14 76.5q0 36 -18 58t-48 22q-35 0 -61.5 -22.5t-40.5 -59t-14 -76.5
q0 -36 17.5 -58t48.5 -22q35 0 61.5 22.5zM144 -175q-21 21 -21 58q0 36 21 57t58 21q36 0 57 -21t21 -57q0 -37 -21 -58t-57 -21q-37 0 -58 21z" />
    <glyph glyph-name="ograve" unicode="&#xf2;" horiz-adv-x="554" 
d="M89.5 36.5q-55.5 50.5 -55.5 147.5q0 89 34.5 157t98.5 105.5t151 37.5q92 0 147 -50.5t55 -147.5q0 -89 -34.5 -157t-98.5 -105.5t-151 -37.5q-91 0 -146.5 50.5zM313.5 138.5q26.5 22.5 40.5 59t14 76.5q0 36 -18 58t-48 22q-35 0 -61.5 -22.5t-40.5 -59t-14 -76.5
q0 -36 17.5 -58t48.5 -22q35 0 61.5 22.5zM402 546h-118l-86 144h173z" />
    <glyph glyph-name="uni1ECF" unicode="&#x1ecf;" horiz-adv-x="554" 
d="M89.5 36.5q-55.5 50.5 -55.5 147.5q0 89 34.5 157t98.5 105.5t151 37.5q92 0 147 -50.5t55 -147.5q0 -89 -34.5 -157t-98.5 -105.5t-151 -37.5q-91 0 -146.5 50.5zM313.5 138.5q26.5 22.5 40.5 59t14 76.5q0 36 -18 58t-48 22q-35 0 -61.5 -22.5t-40.5 -59t-14 -76.5
q0 -36 17.5 -58t48.5 -22q35 0 61.5 22.5zM331 566q20 20 20 36q0 9 -6 14t-17 5q-16 0 -33 -10l-24 72q16 10 40.5 17t51.5 7q49 0 73 -21t24 -58t-18.5 -61.5t-58.5 -43.5z" />
    <glyph glyph-name="ohorn" unicode="&#x1a1;" horiz-adv-x="554" 
d="M518 614h126l-15 -69q-17 -76 -44 -113.5t-83 -50.5q18 -40 18 -95q0 -89 -34.5 -157t-98.5 -105.5t-151 -37.5q-91 0 -146.5 50.5t-55.5 147.5q0 89 34.5 157t98.5 105.5t151 37.5h3h104q38 0 54.5 16t25.5 55zM313.5 138.5q26.5 22.5 40.5 59t14 76.5q0 36 -18 58
t-48 22q-35 0 -61.5 -22.5t-40.5 -59t-14 -76.5q0 -36 17.5 -58t48.5 -22q35 0 61.5 22.5z" />
    <glyph glyph-name="uni1EDB" unicode="&#x1edb;" horiz-adv-x="554" 
d="M518 614h126l-15 -69q-17 -76 -44 -113.5t-83 -50.5q18 -40 18 -95q0 -89 -34.5 -157t-98.5 -105.5t-151 -37.5q-91 0 -146.5 50.5t-55.5 147.5q0 89 34.5 157t98.5 105.5t151 37.5h3h104q38 0 54.5 16t25.5 55zM313.5 138.5q26.5 22.5 40.5 59t14 76.5q0 36 -18 58
t-48 22q-35 0 -61.5 -22.5t-40.5 -59t-14 -76.5q0 -36 17.5 -58t48.5 -22q35 0 61.5 22.5zM407 546h-125l86 144h177z" />
    <glyph glyph-name="uni1EE3" unicode="&#x1ee3;" horiz-adv-x="554" 
d="M518 614h126l-15 -69q-17 -76 -44 -113.5t-83 -50.5q18 -40 18 -95q0 -89 -34.5 -157t-98.5 -105.5t-151 -37.5q-91 0 -146.5 50.5t-55.5 147.5q0 89 34.5 157t98.5 105.5t151 37.5h3h104q38 0 54.5 16t25.5 55zM313.5 138.5q26.5 22.5 40.5 59t14 76.5q0 36 -18 58
t-48 22q-35 0 -61.5 -22.5t-40.5 -59t-14 -76.5q0 -36 17.5 -58t48.5 -22q35 0 61.5 22.5zM144 -175q-21 21 -21 58q0 36 21 57t58 21q36 0 57 -21t21 -57q0 -37 -21 -58t-57 -21q-37 0 -58 21z" />
    <glyph glyph-name="uni1EDD" unicode="&#x1edd;" horiz-adv-x="554" 
d="M518 614h126l-15 -69q-17 -76 -44 -113.5t-83 -50.5q18 -40 18 -95q0 -89 -34.5 -157t-98.5 -105.5t-151 -37.5q-91 0 -146.5 50.5t-55.5 147.5q0 89 34.5 157t98.5 105.5t151 37.5h3h104q38 0 54.5 16t25.5 55zM313.5 138.5q26.5 22.5 40.5 59t14 76.5q0 36 -18 58
t-48 22q-35 0 -61.5 -22.5t-40.5 -59t-14 -76.5q0 -36 17.5 -58t48.5 -22q35 0 61.5 22.5zM402 546h-118l-86 144h173z" />
    <glyph glyph-name="uni1EDF" unicode="&#x1edf;" horiz-adv-x="554" 
d="M518 614h126l-15 -69q-17 -76 -44 -113.5t-83 -50.5q18 -40 18 -95q0 -89 -34.5 -157t-98.5 -105.5t-151 -37.5q-91 0 -146.5 50.5t-55.5 147.5q0 89 34.5 157t98.5 105.5t151 37.5h3h104q38 0 54.5 16t25.5 55zM313.5 138.5q26.5 22.5 40.5 59t14 76.5q0 36 -18 58
t-48 22q-35 0 -61.5 -22.5t-40.5 -59t-14 -76.5q0 -36 17.5 -58t48.5 -22q35 0 61.5 22.5zM331 566q20 20 20 36q0 9 -6 14t-17 5q-16 0 -33 -10l-24 72q16 10 40.5 17t51.5 7q49 0 73 -21t24 -58t-18.5 -61.5t-58.5 -43.5z" />
    <glyph glyph-name="uni1EE1" unicode="&#x1ee1;" horiz-adv-x="554" 
d="M518 614h126l-15 -69q-17 -76 -44 -113.5t-83 -50.5q18 -40 18 -95q0 -89 -34.5 -157t-98.5 -105.5t-151 -37.5q-91 0 -146.5 50.5t-55.5 147.5q0 89 34.5 157t98.5 105.5t151 37.5h3h104q38 0 54.5 16t25.5 55zM313.5 138.5q26.5 22.5 40.5 59t14 76.5q0 36 -18 58
t-48 22q-35 0 -61.5 -22.5t-40.5 -59t-14 -76.5q0 -36 17.5 -58t48.5 -22q35 0 61.5 22.5zM373.5 578.5q-16.5 5.5 -35.5 15.5q-2 1 -16 7.5t-27 6.5t-29.5 -8t-31.5 -25l-61 53q42 76 124 76q23 0 39 -4.5t33 -12.5q13 -7 22.5 -10t22.5 -3q33 0 62 33l48 -67
q-23 -36 -47 -51.5t-65 -15.5q-22 0 -38.5 5.5z" />
    <glyph glyph-name="ohungarumlaut" unicode="&#x151;" horiz-adv-x="554" 
d="M89.5 36.5q-55.5 50.5 -55.5 147.5q0 89 34.5 157t98.5 105.5t151 37.5q92 0 147 -50.5t55 -147.5q0 -89 -34.5 -157t-98.5 -105.5t-151 -37.5q-91 0 -146.5 50.5zM313.5 138.5q26.5 22.5 40.5 59t14 76.5q0 36 -18 58t-48 22q-35 0 -61.5 -22.5t-40.5 -59t-14 -76.5
q0 -36 17.5 -58t48.5 -22q35 0 61.5 22.5zM296 546h-109l68 144h147zM495 546h-109l68 144h148z" />
    <glyph glyph-name="omacron" unicode="&#x14d;" horiz-adv-x="554" 
d="M89.5 36.5q-55.5 50.5 -55.5 147.5q0 89 34.5 157t98.5 105.5t151 37.5q92 0 147 -50.5t55 -147.5q0 -89 -34.5 -157t-98.5 -105.5t-151 -37.5q-91 0 -146.5 50.5zM313.5 138.5q26.5 22.5 40.5 59t14 76.5q0 36 -18 58t-48 22q-35 0 -61.5 -22.5t-40.5 -59t-14 -76.5
q0 -36 17.5 -58t48.5 -22q35 0 61.5 22.5zM483 581h-267l24 109h267z" />
    <glyph glyph-name="oslash" unicode="&#xf8;" horiz-adv-x="554" 
d="M464 435q56 -53 56 -149q0 -89 -34.5 -157t-98.5 -105.5t-151 -37.5q-31 0 -58 6l-53 -82h-116l81 126q-56 53 -56 148q0 89 34.5 157t98.5 105.5t151 37.5q31 0 58 -6l53 82h116zM178 172l121 187q-37 -1 -65 -25t-43 -61t-15 -77q0 -8 2 -24zM255 111q37 1 65 25t43 61
t15 77q0 12 -3 24z" />
    <glyph glyph-name="otilde" unicode="&#xf5;" horiz-adv-x="554" 
d="M89.5 36.5q-55.5 50.5 -55.5 147.5q0 89 34.5 157t98.5 105.5t151 37.5q92 0 147 -50.5t55 -147.5q0 -89 -34.5 -157t-98.5 -105.5t-151 -37.5q-91 0 -146.5 50.5zM313.5 138.5q26.5 22.5 40.5 59t14 76.5q0 36 -18 58t-48 22q-35 0 -61.5 -22.5t-40.5 -59t-14 -76.5
q0 -36 17.5 -58t48.5 -22q35 0 61.5 22.5zM383.5 578.5q-16.5 5.5 -35.5 15.5q-2 1 -16 7.5t-27 6.5t-29.5 -8t-31.5 -25l-61 53q42 76 124 76q23 0 39 -4.5t33 -12.5q13 -7 22.5 -10t22.5 -3q33 0 62 33l48 -67q-23 -36 -47 -51.5t-65 -15.5q-22 0 -38.5 5.5z" />
    <glyph glyph-name="oe" unicode="&#x153;" horiz-adv-x="872" 
d="M89.5 36.5q-55.5 50.5 -55.5 147.5q0 89 34.5 157t98.5 105.5t151 37.5q98 0 152 -55q74 55 180 55q91 0 142.5 -50.5t51.5 -136.5q0 -48 -18 -105h-314q4 -42 28 -64t66 -22q31 0 58.5 11.5t55.5 34.5l62 -103q-70 -63 -197 -63q-50 0 -92 15.5t-72 45.5
q-74 -61 -185 -61q-91 0 -146.5 50.5zM715 294q0 36 -20 55.5t-59 19.5q-37 0 -64 -20.5t-43 -54.5h186zM313.5 138.5q26.5 22.5 40.5 59t14 76.5q0 36 -18 58t-48 22q-35 0 -61.5 -22.5t-40.5 -59t-14 -76.5q0 -36 17.5 -58t48.5 -22q35 0 61.5 22.5z" />
    <glyph glyph-name="p" unicode="p" horiz-adv-x="573" 
d="M-32 -190l140 660h127v-39q26 26 56.5 39.5t72.5 13.5q76 0 125 -54.5t49 -155.5q0 -72 -30.5 -138.5t-90.5 -108t-144 -41.5q-67 0 -109 33l-44 -209h-152zM324 137.5q28 21.5 43 55t15 68.5q0 42 -23.5 67.5t-58.5 25.5q-36 0 -70 -26l-39 -183q28 -29 68 -29
q37 0 65 21.5z" />
    <glyph glyph-name="thorn" unicode="&#xfe;" horiz-adv-x="573" 
d="M489 429.5q49 -54.5 49 -155.5q0 -72 -30.5 -138.5t-90.5 -108t-144 -41.5q-67 0 -109 33l-44 -209h-152l195 920h151l-58 -280q43 34 108 34q76 0 125 -54.5zM324 137.5q28 21.5 43 55t15 68.5q0 42 -23.5 67.5t-58.5 25.5q-36 0 -70 -26l-39 -183q28 -29 68 -29
q37 0 65 21.5z" />
    <glyph glyph-name="q" unicode="q" horiz-adv-x="572" 
d="M315 14q-51 -28 -109 -28q-75 0 -123 53.5t-48 151.5q0 75 28.5 142t86.5 109t142 42q44 0 74 -14.5t52 -42.5l17 43h129l-140 -660h-152zM343 143l39 183q-22 28 -63 28q-62 0 -95.5 -44t-33.5 -103q0 -41 20.5 -66t58.5 -25q43 0 74 27z" />
    <glyph glyph-name="r" unicode="r" horiz-adv-x="411" 
d="M9 0l99 470h138v-64q21 39 55.5 58.5t85.5 19.5q9 0 21 -1.5t16 -4.5l-31 -145q-28 12 -65 12q-31 0 -61.5 -18.5t-48.5 -52.5l-58 -274h-151z" />
    <glyph glyph-name="racute" unicode="&#x155;" horiz-adv-x="411" 
d="M9 0l99 470h138v-64q21 39 55.5 58.5t85.5 19.5q9 0 21 -1.5t16 -4.5l-31 -145q-28 12 -65 12q-31 0 -61.5 -18.5t-48.5 -52.5l-58 -274h-151zM335 546h-125l86 144h177z" />
    <glyph glyph-name="rcaron" unicode="&#x159;" horiz-adv-x="411" 
d="M9 0l99 470h138v-64q21 39 55.5 58.5t85.5 19.5q9 0 21 -1.5t16 -4.5l-31 -145q-28 12 -65 12q-31 0 -61.5 -18.5t-48.5 -52.5l-58 -274h-151zM320 546h-96l-83 144h108l36 -55l56 55h119z" />
    <glyph glyph-name="uni0157" unicode="&#x157;" horiz-adv-x="411" 
d="M9 0l99 470h138v-64q21 39 55.5 58.5t85.5 19.5q9 0 21 -1.5t16 -4.5l-31 -145q-28 12 -65 12q-31 0 -61.5 -18.5t-48.5 -52.5l-58 -274h-151zM-20 -166q42 4 61 18q-19 0 -30 11.5t-11 28.5q0 27 20.5 42.5t52.5 15.5q29 0 44 -15t15 -43q0 -88 -129 -107z" />
    <glyph glyph-name="s" unicode="s" horiz-adv-x="456" 
d="M63 10.5q-49 24.5 -75 71.5l110 81q18 -28 47 -45t63 -17q27 0 44.5 9.5t17.5 26.5q0 15 -19 26.5t-70 26.5q-56 16 -88 46t-32 83q0 79 56.5 122t162.5 43q61 0 102.5 -21.5t63.5 -59.5l-101 -79q-37 46 -85 46q-24 0 -39.5 -7.5t-15.5 -21.5q0 -12 17 -21t60 -20
q60 -16 98 -50.5t38 -94.5q0 -169 -239 -169q-67 0 -116 24.5z" />
    <glyph glyph-name="sacute" unicode="&#x15b;" horiz-adv-x="456" 
d="M63 10.5q-49 24.5 -75 71.5l110 81q18 -28 47 -45t63 -17q27 0 44.5 9.5t17.5 26.5q0 15 -19 26.5t-70 26.5q-56 16 -88 46t-32 83q0 79 56.5 122t162.5 43q61 0 102.5 -21.5t63.5 -59.5l-101 -79q-37 46 -85 46q-24 0 -39.5 -7.5t-15.5 -21.5q0 -12 17 -21t60 -20
q60 -16 98 -50.5t38 -94.5q0 -169 -239 -169q-67 0 -116 24.5zM358 546h-125l86 144h177z" />
    <glyph glyph-name="scaron" unicode="&#x161;" horiz-adv-x="456" 
d="M63 10.5q-49 24.5 -75 71.5l110 81q18 -28 47 -45t63 -17q27 0 44.5 9.5t17.5 26.5q0 15 -19 26.5t-70 26.5q-56 16 -88 46t-32 83q0 79 56.5 122t162.5 43q61 0 102.5 -21.5t63.5 -59.5l-101 -79q-37 46 -85 46q-24 0 -39.5 -7.5t-15.5 -21.5q0 -12 17 -21t60 -20
q60 -16 98 -50.5t38 -94.5q0 -169 -239 -169q-67 0 -116 24.5zM343 546h-96l-83 144h108l36 -55l56 55h119z" />
    <glyph glyph-name="scedilla" unicode="&#x15f;" horiz-adv-x="456" 
d="M380 249.5q38 -34.5 38 -94.5q0 -76 -51.5 -120t-161.5 -48l-32 -35q39 0 60.5 -18t21.5 -53q0 -96 -126 -96q-28 0 -48 3t-39 11l30 70q27 -12 55 -12q13 0 21 4.5t8 13.5q0 17 -22 17q-6 0 -13 -1.5t-12 -4.5l-39 34l49 72q-91 17 -131 90l110 81q18 -28 47 -45t63 -17
q27 0 44.5 9.5t17.5 26.5q0 15 -19 26.5t-70 26.5q-56 16 -88 46t-32 83q0 79 56.5 122t162.5 43q61 0 102.5 -21.5t63.5 -59.5l-101 -79q-37 46 -85 46q-24 0 -39.5 -7.5t-15.5 -21.5q0 -12 17 -21t60 -20q60 -16 98 -50.5z" />
    <glyph glyph-name="scircumflex" unicode="&#x15d;" horiz-adv-x="456" 
d="M63 10.5q-49 24.5 -75 71.5l110 81q18 -28 47 -45t63 -17q27 0 44.5 9.5t17.5 26.5q0 15 -19 26.5t-70 26.5q-56 16 -88 46t-32 83q0 79 56.5 122t162.5 43q61 0 102.5 -21.5t63.5 -59.5l-101 -79q-37 46 -85 46q-24 0 -39.5 -7.5t-15.5 -21.5q0 -12 17 -21t60 -20
q60 -16 98 -50.5t38 -94.5q0 -169 -239 -169q-67 0 -116 24.5zM253 546h-119l140 144h96l83 -144h-108l-36 55z" />
    <glyph glyph-name="uni0219" unicode="&#x219;" horiz-adv-x="456" 
d="M63 10.5q-49 24.5 -75 71.5l110 81q18 -28 47 -45t63 -17q27 0 44.5 9.5t17.5 26.5q0 15 -19 26.5t-70 26.5q-56 16 -88 46t-32 83q0 79 56.5 122t162.5 43q61 0 102.5 -21.5t63.5 -59.5l-101 -79q-37 46 -85 46q-24 0 -39.5 -7.5t-15.5 -21.5q0 -12 17 -21t60 -20
q60 -16 98 -50.5t38 -94.5q0 -169 -239 -169q-67 0 -116 24.5zM74 -166q42 4 61 18q-19 0 -30 11.5t-11 28.5q0 27 20.5 42.5t52.5 15.5q29 0 44 -15t15 -43q0 -88 -129 -107z" />
    <glyph glyph-name="germandbls" unicode="&#xdf;" horiz-adv-x="594" 
d="M206 4l30 139q26 -22 65 -22q49 0 78 37t29 85t-25 75t-77 27h-27l26 123h22q43 0 69.5 26t26.5 66q0 26 -16 40t-45 14q-32 0 -56 -19.5t-31 -54.5l-115 -540h-152l113 531q23 106 84 159.5t174 53.5q94 0 144 -43.5t50 -118.5q0 -56 -34.5 -102.5t-92.5 -64.5
q106 -42 106 -171q0 -112 -61.5 -185t-187.5 -73q-54 0 -97 18z" />
    <glyph glyph-name="t" unicode="t" horiz-adv-x="383" 
d="M112.5 20.5q-33.5 34.5 -33.5 97.5q0 32 7 64l34 159h-77l27 129h78l25 119l162 43l-35 -162h107l-27 -129h-107l-35 -163q-2 -12 -2 -18q0 -21 11.5 -32.5t31.5 -11.5q31 0 57 19l-28 -129q-37 -20 -97 -20q-65 0 -98.5 34.5z" />
    <glyph glyph-name="tbar" unicode="&#x167;" horiz-adv-x="383" 
d="M380 341h-107l-11 -49h86l-23 -111h-86l-1 -3q-2 -12 -2 -18q0 -21 11.5 -32.5t31.5 -11.5q31 0 57 19l-28 -129q-37 -20 -97 -20q-65 0 -98.5 34.5t-33.5 97.5q0 31 7 63h-63l23 111h64l10 49h-77l27 129h78l25 119l162 43l-35 -162h107z" />
    <glyph glyph-name="tcaron" unicode="&#x165;" horiz-adv-x="383" 
d="M112.5 20.5q-33.5 34.5 -33.5 97.5q0 32 7 64l34 159h-77l27 129h78l25 119l162 43l-35 -162h107l-27 -129h-107l-35 -163q-2 -12 -2 -18q0 -21 11.5 -32.5t31.5 -11.5q31 0 57 19l-28 -129q-37 -20 -97 -20q-65 0 -98.5 34.5zM369 564q40 19 65.5 36t37.5 37
q-26 0 -45.5 21t-19.5 52q0 38 26 63t65 25q36 0 56 -21.5t20 -65.5q0 -66 -38 -114.5t-106 -94.5z" />
    <glyph glyph-name="uni0163" unicode="&#x163;" horiz-adv-x="383" 
d="M273 341l-35 -163q-2 -12 -2 -18q0 -21 11.5 -32.5t31.5 -11.5q31 0 57 19l-28 -129q-28 -15 -69 -19l-33 -35q39 0 60.5 -18t21.5 -53q0 -96 -126 -96q-28 0 -48 3t-39 11l30 70q27 -12 55 -12q13 0 21 4.5t8 13.5q0 17 -22 17q-6 0 -13 -1.5t-12 -4.5l-39 34l51 75
q-75 27 -75 124q0 31 7 63l34 159h-77l27 129h78l25 119l162 43l-35 -162h107l-27 -129h-107z" />
    <glyph glyph-name="uni021B" unicode="&#x21b;" horiz-adv-x="383" 
d="M112.5 20.5q-33.5 34.5 -33.5 97.5q0 32 7 64l34 159h-77l27 129h78l25 119l162 43l-35 -162h107l-27 -129h-107l-35 -163q-2 -12 -2 -18q0 -21 11.5 -32.5t31.5 -11.5q31 0 57 19l-28 -129q-37 -20 -97 -20q-65 0 -98.5 34.5zM107 -166q42 4 61 18q-19 0 -30 11.5
t-11 28.5q0 27 20.5 42.5t52.5 15.5q29 0 44 -15t15 -43q0 -88 -129 -107z" />
    <glyph glyph-name="u" unicode="u" horiz-adv-x="555" 
d="M68.5 19.5q-32.5 33.5 -32.5 90.5q0 23 6 50l66 310h152l-62 -293q-1 -4 -1 -12q0 -21 14.5 -35t38.5 -14q26 0 46.5 13.5t32.5 34.5l65 306h152l-99 -470h-139v66q-27 -36 -62 -58t-87 -22q-58 0 -90.5 33.5z" />
    <glyph glyph-name="uacute" unicode="&#xfa;" horiz-adv-x="555" 
d="M68.5 19.5q-32.5 33.5 -32.5 90.5q0 23 6 50l66 310h152l-62 -293q-1 -4 -1 -12q0 -21 14.5 -35t38.5 -14q26 0 46.5 13.5t32.5 34.5l65 306h152l-99 -470h-139v66q-27 -36 -62 -58t-87 -22q-58 0 -90.5 33.5zM407 546h-125l86 144h177z" />
    <glyph glyph-name="ubreve" unicode="&#x16d;" horiz-adv-x="555" 
d="M68.5 19.5q-32.5 33.5 -32.5 90.5q0 23 6 50l66 310h152l-62 -293q-1 -4 -1 -12q0 -21 14.5 -35t38.5 -14q26 0 46.5 13.5t32.5 34.5l65 306h152l-99 -470h-139v66q-27 -36 -62 -58t-87 -22q-58 0 -90.5 33.5zM260 577q-36 31 -36 82q0 15 3 31h100q-2 -10 -2 -15
q0 -19 10 -30.5t27 -11.5q23 0 38 15.5t20 41.5h100q-15 -74 -53.5 -109t-106.5 -35q-64 0 -100 31z" />
    <glyph glyph-name="ucircumflex" unicode="&#xfb;" horiz-adv-x="555" 
d="M68.5 19.5q-32.5 33.5 -32.5 90.5q0 23 6 50l66 310h152l-62 -293q-1 -4 -1 -12q0 -21 14.5 -35t38.5 -14q26 0 46.5 13.5t32.5 34.5l65 306h152l-99 -470h-139v66q-27 -36 -62 -58t-87 -22q-58 0 -90.5 33.5zM302 546h-119l140 144h96l83 -144h-108l-36 55z" />
    <glyph glyph-name="udieresis" unicode="&#xfc;" horiz-adv-x="555" 
d="M68.5 19.5q-32.5 33.5 -32.5 90.5q0 23 6 50l66 310h152l-62 -293q-1 -4 -1 -12q0 -21 14.5 -35t38.5 -14q26 0 46.5 13.5t32.5 34.5l65 306h152l-99 -470h-139v66q-27 -36 -62 -58t-87 -22q-58 0 -90.5 33.5zM211.5 575.5q-19.5 19.5 -19.5 54.5t19.5 55t55.5 20
q35 0 54.5 -20t19.5 -55t-19.5 -54.5t-54.5 -19.5q-36 0 -55.5 19.5zM400 575.5q-20 19.5 -20 54.5t20 55t55 20t55 -20t20 -55t-20 -54.5t-55 -19.5t-55 19.5z" />
    <glyph glyph-name="uni1EE5" unicode="&#x1ee5;" horiz-adv-x="555" 
d="M68.5 19.5q-32.5 33.5 -32.5 90.5q0 23 6 50l66 310h152l-62 -293q-1 -4 -1 -12q0 -21 14.5 -35t38.5 -14q26 0 46.5 13.5t32.5 34.5l65 306h152l-99 -470h-139v66q-27 -36 -62 -58t-87 -22q-58 0 -90.5 33.5zM145 -175q-21 21 -21 58q0 36 21 57t58 21q36 0 57 -21
t21 -57q0 -37 -21 -58t-57 -21q-37 0 -58 21z" />
    <glyph glyph-name="ugrave" unicode="&#xf9;" horiz-adv-x="555" 
d="M68.5 19.5q-32.5 33.5 -32.5 90.5q0 23 6 50l66 310h152l-62 -293q-1 -4 -1 -12q0 -21 14.5 -35t38.5 -14q26 0 46.5 13.5t32.5 34.5l65 306h152l-99 -470h-139v66q-27 -36 -62 -58t-87 -22q-58 0 -90.5 33.5zM402 546h-118l-86 144h173z" />
    <glyph glyph-name="uni1EE7" unicode="&#x1ee7;" horiz-adv-x="555" 
d="M68.5 19.5q-32.5 33.5 -32.5 90.5q0 23 6 50l66 310h152l-62 -293q-1 -4 -1 -12q0 -21 14.5 -35t38.5 -14q26 0 46.5 13.5t32.5 34.5l65 306h152l-99 -470h-139v66q-27 -36 -62 -58t-87 -22q-58 0 -90.5 33.5zM331 566q20 20 20 36q0 9 -6 14t-17 5q-16 0 -33 -10l-24 72
q16 10 40.5 17t51.5 7q49 0 73 -21t24 -58t-18.5 -61.5t-58.5 -43.5z" />
    <glyph glyph-name="uhorn" unicode="&#x1b0;" horiz-adv-x="555" 
d="M564 600h126l-17 -75q-12 -55 -29 -88t-45.5 -51.5t-75.5 -24.5l-76 -361h-139v66q-27 -36 -62 -58t-87 -22q-58 0 -90.5 33.5t-32.5 90.5q0 23 6 50l66 310h152l-62 -293q-1 -4 -1 -12q0 -21 14.5 -35t38.5 -14q26 0 46.5 13.5t32.5 34.5l65 306h79q31 0 50.5 17
t27.5 54z" />
    <glyph glyph-name="uni1EE9" unicode="&#x1ee9;" horiz-adv-x="555" 
d="M564 600h126l-17 -75q-12 -55 -29 -88t-45.5 -51.5t-75.5 -24.5l-76 -361h-139v66q-27 -36 -62 -58t-87 -22q-58 0 -90.5 33.5t-32.5 90.5q0 23 6 50l66 310h152l-62 -293q-1 -4 -1 -12q0 -21 14.5 -35t38.5 -14q26 0 46.5 13.5t32.5 34.5l65 306h79q31 0 50.5 17
t27.5 54zM407 546h-125l86 144h177z" />
    <glyph glyph-name="uni1EF1" unicode="&#x1ef1;" horiz-adv-x="555" 
d="M564 600h126l-17 -75q-12 -55 -29 -88t-45.5 -51.5t-75.5 -24.5l-76 -361h-139v66q-27 -36 -62 -58t-87 -22q-58 0 -90.5 33.5t-32.5 90.5q0 23 6 50l66 310h152l-62 -293q-1 -4 -1 -12q0 -21 14.5 -35t38.5 -14q26 0 46.5 13.5t32.5 34.5l65 306h79q31 0 50.5 17
t27.5 54zM145 -175q-21 21 -21 58q0 36 21 57t58 21q36 0 57 -21t21 -57q0 -37 -21 -58t-57 -21q-37 0 -58 21z" />
    <glyph glyph-name="uni1EEB" unicode="&#x1eeb;" horiz-adv-x="555" 
d="M564 600h126l-17 -75q-12 -55 -29 -88t-45.5 -51.5t-75.5 -24.5l-76 -361h-139v66q-27 -36 -62 -58t-87 -22q-58 0 -90.5 33.5t-32.5 90.5q0 23 6 50l66 310h152l-62 -293q-1 -4 -1 -12q0 -21 14.5 -35t38.5 -14q26 0 46.5 13.5t32.5 34.5l65 306h79q31 0 50.5 17
t27.5 54zM402 546h-118l-86 144h173z" />
    <glyph glyph-name="uni1EED" unicode="&#x1eed;" horiz-adv-x="555" 
d="M564 600h126l-17 -75q-12 -55 -29 -88t-45.5 -51.5t-75.5 -24.5l-76 -361h-139v66q-27 -36 -62 -58t-87 -22q-58 0 -90.5 33.5t-32.5 90.5q0 23 6 50l66 310h152l-62 -293q-1 -4 -1 -12q0 -21 14.5 -35t38.5 -14q26 0 46.5 13.5t32.5 34.5l65 306h79q31 0 50.5 17
t27.5 54zM331 566q20 20 20 36q0 9 -6 14t-17 5q-16 0 -33 -10l-24 72q16 10 40.5 17t51.5 7q49 0 73 -21t24 -58t-18.5 -61.5t-58.5 -43.5z" />
    <glyph glyph-name="uni1EEF" unicode="&#x1eef;" horiz-adv-x="555" 
d="M564 600h126l-17 -75q-12 -55 -29 -88t-45.5 -51.5t-75.5 -24.5l-76 -361h-139v66q-27 -36 -62 -58t-87 -22q-58 0 -90.5 33.5t-32.5 90.5q0 23 6 50l66 310h152l-62 -293q-1 -4 -1 -12q0 -21 14.5 -35t38.5 -14q26 0 46.5 13.5t32.5 34.5l65 306h79q31 0 50.5 17
t27.5 54zM383.5 578.5q-16.5 5.5 -35.5 15.5q-2 1 -16 7.5t-27 6.5t-29.5 -8t-31.5 -25l-61 53q42 76 124 76q23 0 39 -4.5t33 -12.5q13 -7 22.5 -10t22.5 -3q33 0 62 33l48 -67q-23 -36 -47 -51.5t-65 -15.5q-22 0 -38.5 5.5z" />
    <glyph glyph-name="uhungarumlaut" unicode="&#x171;" horiz-adv-x="555" 
d="M68.5 19.5q-32.5 33.5 -32.5 90.5q0 23 6 50l66 310h152l-62 -293q-1 -4 -1 -12q0 -21 14.5 -35t38.5 -14q26 0 46.5 13.5t32.5 34.5l65 306h152l-99 -470h-139v66q-27 -36 -62 -58t-87 -22q-58 0 -90.5 33.5zM296 546h-109l68 144h147zM495 546h-109l68 144h148z" />
    <glyph glyph-name="umacron" unicode="&#x16b;" horiz-adv-x="555" 
d="M68.5 19.5q-32.5 33.5 -32.5 90.5q0 23 6 50l66 310h152l-62 -293q-1 -4 -1 -12q0 -21 14.5 -35t38.5 -14q26 0 46.5 13.5t32.5 34.5l65 306h152l-99 -470h-139v66q-27 -36 -62 -58t-87 -22q-58 0 -90.5 33.5zM483 581h-267l24 109h267z" />
    <glyph glyph-name="uogonek" unicode="&#x173;" horiz-adv-x="555" 
d="M447 0q-28 -17 -48 -40t-20 -42q0 -11 6 -17t15 -6q11 0 23 6v-85q-19 -12 -68 -12q-39 0 -61 24t-22 65q0 31 15 59.5t43 47.5h-22v66q-27 -36 -62 -58t-87 -22q-58 0 -90.5 33.5t-32.5 90.5q0 23 6 50l66 310h152l-62 -293q-1 -4 -1 -12q0 -21 14.5 -35t38.5 -14
q26 0 46.5 13.5t32.5 34.5l65 306h152z" />
    <glyph glyph-name="uring" unicode="&#x16f;" horiz-adv-x="555" 
d="M68.5 19.5q-32.5 33.5 -32.5 90.5q0 23 6 50l66 310h152l-62 -293q-1 -4 -1 -12q0 -21 14.5 -35t38.5 -14q26 0 46.5 13.5t32.5 34.5l65 306h152l-99 -470h-139v66q-27 -36 -62 -58t-87 -22q-58 0 -90.5 33.5zM281.5 555q-23.5 23 -23.5 58q0 50 32 82.5t88 32.5
q39 0 62.5 -23t23.5 -58q0 -50 -32 -82.5t-88 -32.5q-39 0 -62.5 23zM384 606.5q11 13.5 11 32.5q0 12 -7 20t-19 8q-20 0 -30.5 -13.5t-10.5 -32.5q0 -12 6.5 -20t18.5 -8q20 0 31 13.5z" />
    <glyph glyph-name="utilde" unicode="&#x169;" horiz-adv-x="555" 
d="M68.5 19.5q-32.5 33.5 -32.5 90.5q0 23 6 50l66 310h152l-62 -293q-1 -4 -1 -12q0 -21 14.5 -35t38.5 -14q26 0 46.5 13.5t32.5 34.5l65 306h152l-99 -470h-139v66q-27 -36 -62 -58t-87 -22q-58 0 -90.5 33.5zM383.5 578.5q-16.5 5.5 -35.5 15.5q-2 1 -16 7.5t-27 6.5
t-29.5 -8t-31.5 -25l-61 53q42 76 124 76q23 0 39 -4.5t33 -12.5q13 -7 22.5 -10t22.5 -3q33 0 62 33l48 -67q-23 -36 -47 -51.5t-65 -15.5q-22 0 -38.5 5.5z" />
    <glyph glyph-name="v" unicode="v" horiz-adv-x="512" 
d="M299 0h-184l-54 470h157l17 -307l145 307h171z" />
    <glyph glyph-name="w" unicode="w" horiz-adv-x="766" 
d="M261 0h-172l-28 470h149l4 -295l135 295h159l10 -295l130 295h157l-222 -470h-172l-16 289z" />
    <glyph glyph-name="wacute" unicode="&#x1e83;" horiz-adv-x="766" 
d="M261 0h-172l-28 470h149l4 -295l135 295h159l10 -295l130 295h157l-222 -470h-172l-16 289zM513 546h-125l86 144h177z" />
    <glyph glyph-name="wcircumflex" unicode="&#x175;" horiz-adv-x="766" 
d="M261 0h-172l-28 470h149l4 -295l135 295h159l10 -295l130 295h157l-222 -470h-172l-16 289zM408 546h-119l140 144h96l83 -144h-108l-36 55z" />
    <glyph glyph-name="wdieresis" unicode="&#x1e85;" horiz-adv-x="766" 
d="M261 0h-172l-28 470h149l4 -295l135 295h159l10 -295l130 295h157l-222 -470h-172l-16 289zM317.5 575.5q-19.5 19.5 -19.5 54.5t19.5 55t55.5 20q35 0 54.5 -20t19.5 -55t-19.5 -54.5t-54.5 -19.5q-36 0 -55.5 19.5zM506 575.5q-20 19.5 -20 54.5t20 55t55 20t55 -20
t20 -55t-20 -54.5t-55 -19.5t-55 19.5z" />
    <glyph glyph-name="wgrave" unicode="&#x1e81;" horiz-adv-x="766" 
d="M261 0h-172l-28 470h149l4 -295l135 295h159l10 -295l130 295h157l-222 -470h-172l-16 289zM508 546h-118l-86 144h173z" />
    <glyph glyph-name="x" unicode="x" horiz-adv-x="521" 
d="M138 0h-180l221 254l-108 216h168l42 -113l89 113h180l-204 -225l117 -245h-163l-53 138z" />
    <glyph glyph-name="y" unicode="y" horiz-adv-x="501" 
d="M-76 -178l28 129q29 -21 59 -21q32 0 51 19t44 60l30 51l-77 410h148l37 -228l135 228h161l-336 -539q-32 -52 -58.5 -79.5t-57.5 -39.5t-76 -12q-52 0 -88 22z" />
    <glyph glyph-name="yacute" unicode="&#xfd;" horiz-adv-x="501" 
d="M-76 -178l28 129q29 -21 59 -21q32 0 51 19t44 60l30 51l-77 410h148l37 -228l135 228h161l-336 -539q-32 -52 -58.5 -79.5t-57.5 -39.5t-76 -12q-52 0 -88 22zM380 546h-125l86 144h177z" />
    <glyph glyph-name="ycircumflex" unicode="&#x177;" horiz-adv-x="501" 
d="M-76 -178l28 129q29 -21 59 -21q32 0 51 19t44 60l30 51l-77 410h148l37 -228l135 228h161l-336 -539q-32 -52 -58.5 -79.5t-57.5 -39.5t-76 -12q-52 0 -88 22zM275 546h-119l140 144h96l83 -144h-108l-36 55z" />
    <glyph glyph-name="ydieresis" unicode="&#xff;" horiz-adv-x="501" 
d="M-76 -178l28 129q29 -21 59 -21q32 0 51 19t44 60l30 51l-77 410h148l37 -228l135 228h161l-336 -539q-32 -52 -58.5 -79.5t-57.5 -39.5t-76 -12q-52 0 -88 22zM184.5 575.5q-19.5 19.5 -19.5 54.5t19.5 55t55.5 20q35 0 54.5 -20t19.5 -55t-19.5 -54.5t-54.5 -19.5
q-36 0 -55.5 19.5zM373 575.5q-20 19.5 -20 54.5t20 55t55 20t55 -20t20 -55t-20 -54.5t-55 -19.5t-55 19.5z" />
    <glyph glyph-name="uni1EF5" unicode="&#x1ef5;" horiz-adv-x="501" 
d="M-76 -178l28 129q29 -21 59 -21q32 0 51 19t44 60l30 51l-77 410h148l37 -228l135 228h161l-336 -539q-32 -52 -58.5 -79.5t-57.5 -39.5t-76 -12q-52 0 -88 22zM247 -175q-21 21 -21 58q0 36 21 57t58 21q36 0 57 -21t21 -57q0 -37 -21 -58t-57 -21q-37 0 -58 21z" />
    <glyph glyph-name="ygrave" unicode="&#x1ef3;" horiz-adv-x="501" 
d="M-76 -178l28 129q29 -21 59 -21q32 0 51 19t44 60l30 51l-77 410h148l37 -228l135 228h161l-336 -539q-32 -52 -58.5 -79.5t-57.5 -39.5t-76 -12q-52 0 -88 22zM375 546h-118l-86 144h173z" />
    <glyph glyph-name="uni1EF7" unicode="&#x1ef7;" horiz-adv-x="501" 
d="M-76 -178l28 129q29 -21 59 -21q32 0 51 19t44 60l30 51l-77 410h148l37 -228l135 228h161l-336 -539q-32 -52 -58.5 -79.5t-57.5 -39.5t-76 -12q-52 0 -88 22zM304 566q20 20 20 36q0 9 -6 14t-17 5q-16 0 -33 -10l-24 72q16 10 40.5 17t51.5 7q49 0 73 -21t24 -58
t-18.5 -61.5t-58.5 -43.5z" />
    <glyph glyph-name="uni1EF9" unicode="&#x1ef9;" horiz-adv-x="501" 
d="M-76 -178l28 129q29 -21 59 -21q32 0 51 19t44 60l30 51l-77 410h148l37 -228l135 228h161l-336 -539q-32 -52 -58.5 -79.5t-57.5 -39.5t-76 -12q-52 0 -88 22zM356.5 578.5q-16.5 5.5 -35.5 15.5q-2 1 -16 7.5t-27 6.5t-29.5 -8t-31.5 -25l-61 53q42 76 124 76
q23 0 39 -4.5t33 -12.5q13 -7 22.5 -10t22.5 -3q33 0 62 33l48 -67q-23 -36 -47 -51.5t-65 -15.5q-22 0 -38.5 5.5z" />
    <glyph glyph-name="z" unicode="z" horiz-adv-x="471" 
d="M384 0h-397l27 128l238 213h-180l27 129h373l-26 -122l-238 -219h203z" />
    <glyph glyph-name="zacute" unicode="&#x17a;" horiz-adv-x="471" 
d="M384 0h-397l27 128l238 213h-180l27 129h373l-26 -122l-238 -219h203zM366 546h-125l86 144h177z" />
    <glyph glyph-name="zcaron" unicode="&#x17e;" horiz-adv-x="471" 
d="M384 0h-397l27 128l238 213h-180l27 129h373l-26 -122l-238 -219h203zM351 546h-96l-83 144h108l36 -55l56 55h119z" />
    <glyph glyph-name="zdotaccent" unicode="&#x17c;" horiz-adv-x="471" 
d="M384 0h-397l27 128l238 213h-180l27 129h373l-26 -122l-238 -219h203zM253 561q-24 24 -24 65t24 65.5t66 24.5t65.5 -24t23.5 -66q0 -41 -23.5 -65t-65.5 -24t-66 24z" />
    <glyph glyph-name="uni01B6" unicode="&#x1b6;" horiz-adv-x="471" 
d="M99 470h373l-26 -122l-48 -44h22l-24 -111h-118l-70 -64h203l-27 -129h-397l27 128l73 65h-31l24 111h131l41 37h-180z" />
    <glyph glyph-name="glyph366" horiz-adv-x="534" 
d="M365 470h201l-221 -182l119 -288h-156l-81 191l-32 -26l-35 -165h-152l156 730h152l-78 -365z" />
    <glyph glyph-name="glyph367" horiz-adv-x="534" 
d="M365 470h201l-221 -182l119 -288h-156l-81 191l-32 -26l-35 -165h-152l156 730h152l-78 -365zM117 -166q42 4 61 18q-19 0 -30 11.5t-11 28.5q0 27 20.5 42.5t52.5 15.5q29 0 44 -15t15 -43q0 -88 -129 -107z" />
    <glyph glyph-name="glyph368" horiz-adv-x="534" 
d="M365 470h201l-221 -182l119 -288h-156l-81 191l-32 -26l-35 -165h-152l101 470h152l-22 -104z" />
    <glyph glyph-name="glyph369" horiz-adv-x="269" 
d="M160 0h-152l156 730h152z" />
    <glyph glyph-name="glyph370" horiz-adv-x="269" 
d="M160 0h-152l156 730h152zM320 806h-125l86 144h177z" />
    <glyph glyph-name="glyph371" horiz-adv-x="269" 
d="M160 0h-152l156 730h152zM313 464q40 19 65.5 36t37.5 37q-26 0 -45.5 21t-19.5 52q0 38 26 63t65 25q36 0 56 -21.5t20 -65.5q0 -66 -38 -114.5t-106 -94.5z" />
    <glyph glyph-name="glyph372" horiz-adv-x="269" 
d="M160 0h-152l156 730h152zM-20 -166q42 4 61 18q-19 0 -30 11.5t-11 28.5q0 27 20.5 42.5t52.5 15.5q29 0 44 -15t15 -43q0 -88 -129 -107z" />
    <glyph glyph-name="glyph373" horiz-adv-x="435" 
d="M160 0h-152l156 730h152zM306.5 275.5q-26.5 26.5 -26.5 69.5q0 44 26.5 70t69.5 26t69.5 -26.5t26.5 -69.5t-26.5 -69.5t-69.5 -26.5t-69.5 26.5z" />
    <glyph glyph-name="glyph374" horiz-adv-x="295" 
d="M176 730h152l-66 -311l65 36l-33 -154l-65 -35l-57 -266h-152l37 173l-62 -34l33 153l62 34z" />
    <glyph glyph-name="uniFB01" unicode="&#xfb01;" horiz-adv-x="647" 
d="M41 0l72 341h-69l28 129h69l19 90q20 96 73 140t146 44q28 0 48 -4t40 -12l-27 -129q-24 15 -59 15q-58 0 -71 -61l-18 -83h117l-28 -129h-116l-72 -341h-152zM530 561q-24 24 -24 65t24 65.5t66 24.5t65.5 -24t23.5 -66q0 -41 -23.5 -65t-65.5 -24t-66 24zM539 0h-152
l100 470h152z" />
    <glyph glyph-name="uniFB02" unicode="&#xfb02;" horiz-adv-x="691" 
d="M41 0l72 341h-69l28 129h69l19 90q20 96 73 140t146 44q28 0 48 -4t40 -12l-27 -129q-24 15 -59 15q-58 0 -71 -61l-18 -83h117l-28 -129h-116l-72 -341h-152zM449 18.5q-32 32.5 -32 94.5q0 35 8 70l116 547h152l-117 -550q-2 -14 -2 -19q0 -19 9.5 -30t27.5 -11t31 8
l-27 -127q-30 -15 -71 -15q-63 0 -95 32.5z" />
    <glyph glyph-name="glyph379" horiz-adv-x="647" 
d="M41 0l72 341h-69l28 129h69l19 90q20 96 73 140t146 44q28 0 48 -4t40 -12l-27 -129q-24 15 -59 15q-58 0 -71 -61l-18 -83h117l-28 -129h-116l-72 -341h-152zM538 0h-152l156 730h152z" />
    <glyph glyph-name="glyph380" horiz-adv-x="647" 
d="M41 0l72 341h-69l28 129h69l19 90q20 96 73 140t146 44q28 0 48 -4t40 -12l-27 -129q-24 15 -59 15q-58 0 -71 -61l-18 -83h117l-28 -129h-116l-72 -341h-152zM538 0h-152l156 730h152z" />
    <glyph glyph-name="ordfeminine" unicode="&#xaa;" horiz-adv-x="376" 
d="M373 667q36 -30 36 -80q0 -11 -4 -33l-42 -196h-110v27q-11 -16 -33 -26.5t-53 -10.5q-44 0 -68.5 25t-24.5 62q0 67 55 95.5t160 29.5q2 20 -9.5 31.5t-34.5 11.5q-44 0 -83 -29l-47 71q62 52 156 52q66 0 102 -30zM242.5 439.5q11.5 5.5 24.5 16.5l8 38q-82 -5 -82 -39
q0 -9 6 -15t18 -6q14 0 25.5 5.5z" />
    <glyph glyph-name="ordmasculine" unicode="&#xba;" horiz-adv-x="392" 
d="M123 383.5q-43 35.5 -43 104.5q0 91 53 150t153 59q62 0 105 -35.5t43 -103.5q0 -91 -53 -150.5t-153 -59.5q-62 0 -105 35.5zM296.5 478.5q19.5 29.5 19.5 67.5q0 25 -11 38t-32 13q-36 0 -55.5 -30t-19.5 -67q0 -51 43 -51q36 0 55.5 29.5z" />
    <glyph glyph-name="glyph383" horiz-adv-x="711" 
d="M2 0l31 145h120l3 16q-43 30 -68 81t-25 113q0 103 48 182.5t134 123t197 43.5q87 0 150 -30t96.5 -85.5t33.5 -129.5q0 -99 -52 -177.5t-136 -120.5l-3 -16h105l-31 -145h-267l45 209q50 15 89.5 48.5t61 78t21.5 89.5q0 63 -34 98.5t-99 35.5q-62 0 -107 -25.5
t-68.5 -70.5t-23.5 -102q0 -56 23 -95t67 -57l-45 -209h-266z" />
    <glyph glyph-name="zero" unicode="0" horiz-adv-x="602" 
d="M101.5 49.5q-58.5 63.5 -58.5 186.5q0 122 40.5 229.5t119.5 173t190 65.5q97 0 155 -63.5t58 -186.5q0 -122 -40 -229t-119 -173t-190 -66q-97 0 -155.5 63.5zM365.5 176.5q38.5 51.5 59.5 127t21 142.5q0 61 -21 90t-53 29q-50 0 -88.5 -51t-59.5 -126.5t-21 -142.5
q0 -62 21.5 -91t53.5 -29q49 0 87.5 51.5z" />
    <glyph glyph-name="one" unicode="1" horiz-adv-x="426" 
d="M254 503q-32 -59 -78 -83.5t-114 -27.5l39 183q55 7 108.5 38.5t83.5 76.5h164l-146 -690h-164z" />
    <glyph glyph-name="two" unicode="2" horiz-adv-x="560" 
d="M201 139h308l-30 -139h-484l9 43q21 103 56 163t87 95t144 74q65 27 97.5 57.5t32.5 68.5q0 30 -19.5 47.5t-55.5 17.5q-42 0 -76.5 -25.5t-58.5 -74.5l-116 75q33 79 102.5 121t176.5 42q99 0 154 -49.5t55 -139.5q0 -65 -25 -111t-75 -81.5t-135 -73.5
q-117 -52 -147 -110z" />
    <glyph glyph-name="three" unicode="3" horiz-adv-x="576" 
d="M81 35.5q-62 49.5 -72 132.5l149 58q8 -50 35 -75.5t66 -25.5q53 0 82.5 23.5t29.5 67.5q0 28 -22 47t-66 19h-46l28 131h45q49 0 79 24.5t30 61.5q0 29 -19.5 47t-53.5 18q-71 0 -109 -78l-138 62q34 74 104 114.5t171 40.5q103 0 157 -48t54 -131q0 -61 -30.5 -102.5
t-90.5 -69.5q32 -19 50 -51.5t18 -87.5q0 -64 -31.5 -115.5t-94.5 -81.5t-152 -30q-111 0 -173 49.5z" />
    <glyph glyph-name="four" unicode="4" horiz-adv-x="598" 
d="M605 690l-93 -438h74l-28 -132h-74l-25 -120h-148l25 120h-342l28 132l384 438h199zM420 515l-222 -263h166z" />
    <glyph glyph-name="five" unicode="5" horiz-adv-x="571" 
d="M89.5 25q-56.5 39 -77.5 109l136 65q27 -77 106 -77q57 0 91.5 36.5t34.5 88.5q0 38 -22.5 60.5t-63.5 22.5q-63 0 -112 -54l-118 31l123 383h423l-31 -145h-291l-41 -120q23 18 51.5 27.5t69.5 9.5q83 0 130 -52t47 -142q0 -131 -76 -206.5t-227 -75.5q-96 0 -152.5 39z
" />
    <glyph glyph-name="six" unicode="6" horiz-adv-x="570" 
d="M457 431.5q39 -23.5 61.5 -67t22.5 -101.5q0 -81 -35 -143.5t-103 -98t-163 -35.5q-67 0 -116 27t-74.5 73t-25.5 102q0 67 28 122.5t85 120.5l228 259h200l-219 -237q16 2 24 2q48 0 87 -23.5zM347.5 156.5q30.5 35.5 30.5 87.5q0 35 -21 57.5t-58 22.5q-51 0 -83.5 -37
t-32.5 -89q0 -34 22 -55.5t59 -21.5q53 0 83.5 35.5z" />
    <glyph glyph-name="seven" unicode="7" horiz-adv-x="536" 
d="M98 0q30 185 115 320t197 224h-319l31 146h484l-31 -146q-108 -101 -194 -246t-110 -298h-173z" />
    <glyph glyph-name="eight" unicode="8" horiz-adv-x="579" 
d="M127 9.5q-51 23.5 -78 65t-27 94.5q0 72 39.5 124t106.5 79q-29 19 -46 52t-17 69q0 101 72.5 156t203.5 55q64 0 110.5 -21t71 -57t24.5 -80q0 -137 -126 -191q35 -18 56 -54t21 -87q0 -106 -75 -167t-217 -61q-68 0 -119 23.5zM404 439.5q30 29.5 30 70.5
q0 29 -21 48.5t-55 19.5q-46 0 -75.5 -27.5t-29.5 -71.5q0 -29 21 -49t55 -20q45 0 75 29.5zM350.5 143.5q33.5 30.5 33.5 80.5q0 32 -24 53t-61 21q-53 0 -87 -31t-34 -78q0 -33 24 -54.5t62 -21.5q53 0 86.5 30.5z" />
    <glyph glyph-name="nine" unicode="9" horiz-adv-x="569" 
d="M492 677q49 -27 74.5 -73t25.5 -102q0 -67 -28 -122.5t-85 -120.5l-228 -259h-200l219 237q-16 -2 -24 -2q-48 0 -87 23.5t-61.5 67t-22.5 101.5q0 81 35 143.5t103 98t163 35.5q67 0 116 -27zM400.5 403q32.5 37 32.5 89q0 34 -22 55.5t-59 21.5q-53 0 -83.5 -35.5
t-30.5 -87.5q0 -35 21 -57.5t58 -22.5q51 0 83.5 37z" />
    <glyph glyph-name="glyph394" horiz-adv-x="602" 
d="M548 640.5q58 -63.5 58 -186.5q0 -122 -40 -229t-119 -173t-190 -66q-97 0 -155.5 63.5t-58.5 186.5q0 122 40.5 229.5t119.5 173t190 65.5q97 0 155 -63.5zM294 526.5q-35 -38.5 -57 -99t-30 -124.5l205 247q-18 15 -40 15q-43 0 -78 -38.5zM355.5 164
q34.5 39 56.5 99.5t30 124.5l-206 -247q17 -16 42 -16q43 0 77.5 39z" />
    <glyph glyph-name="glyph395" horiz-adv-x="600" 
d="M99.5 49.5q-58.5 63.5 -58.5 186.5q0 122 40.5 229.5t119.5 173t190 65.5q97 0 155 -63.5t58 -186.5q0 -122 -40 -229t-119 -173t-190 -66q-97 0 -155.5 63.5zM363.5 176.5q38.5 51.5 59.5 127t21 142.5q0 61 -21 90t-53 29q-50 0 -88.5 -51t-59.5 -126.5t-21 -142.5
q0 -62 21.5 -91t53.5 -29q49 0 87.5 51.5z" />
    <glyph glyph-name="glyph396" horiz-adv-x="600" 
d="M367 139h173l-29 -139h-516l29 139h180l77 364q-32 -59 -78 -83.5t-114 -27.5l39 183q55 7 108.5 38.5t83.5 76.5h164z" />
    <glyph glyph-name="glyph397" horiz-adv-x="600" 
d="M220 139h308l-30 -139h-484l9 43q21 103 56 163t87 95t144 74q65 27 97.5 57.5t32.5 68.5q0 30 -19.5 47.5t-55.5 17.5q-42 0 -76.5 -25.5t-58.5 -74.5l-116 75q33 79 102.5 121t176.5 42q99 0 154 -49.5t55 -139.5q0 -65 -25 -111t-75 -81.5t-135 -73.5
q-117 -52 -147 -110z" />
    <glyph glyph-name="glyph398" horiz-adv-x="600" 
d="M98 35.5q-62 49.5 -72 132.5l149 58q8 -50 35 -75.5t66 -25.5q53 0 82.5 23.5t29.5 67.5q0 28 -22 47t-66 19h-46l28 131h45q49 0 79 24.5t30 61.5q0 29 -19.5 47t-53.5 18q-71 0 -109 -78l-138 62q34 74 104 114.5t171 40.5q103 0 157 -48t54 -131q0 -61 -30.5 -102.5
t-90.5 -69.5q32 -19 50 -51.5t18 -87.5q0 -64 -31.5 -115.5t-94.5 -81.5t-152 -30q-111 0 -173 49.5z" />
    <glyph glyph-name="glyph399" horiz-adv-x="600" 
d="M605 690l-93 -438h74l-28 -132h-74l-25 -120h-148l25 120h-342l28 132l384 438h199zM420 515l-222 -263h166z" />
    <glyph glyph-name="glyph400" horiz-adv-x="600" 
d="M117.5 25q-56.5 39 -77.5 109l136 65q27 -77 106 -77q57 0 91.5 36.5t34.5 88.5q0 38 -22.5 60.5t-63.5 22.5q-63 0 -112 -54l-118 31l123 383h423l-31 -145h-291l-41 -120q23 18 51.5 27.5t69.5 9.5q83 0 130 -52t47 -142q0 -131 -76 -206.5t-227 -75.5q-96 0 -152.5 39
z" />
    <glyph glyph-name="glyph401" horiz-adv-x="600" 
d="M472 431.5q39 -23.5 61.5 -67t22.5 -101.5q0 -81 -35 -143.5t-103 -98t-163 -35.5q-67 0 -116 27t-74.5 73t-25.5 102q0 67 28 122.5t85 120.5l228 259h200l-219 -237q16 2 24 2q48 0 87 -23.5zM362.5 156.5q30.5 35.5 30.5 87.5q0 35 -21 57.5t-58 22.5q-51 0 -83.5 -37
t-32.5 -89q0 -34 22 -55.5t59 -21.5q53 0 83.5 35.5z" />
    <glyph glyph-name="glyph402" horiz-adv-x="600" 
d="M139 0q30 185 115 320t197 224h-319l31 146h484l-31 -146q-108 -101 -194 -246t-110 -298h-173z" />
    <glyph glyph-name="glyph403" horiz-adv-x="600" 
d="M138 9.5q-51 23.5 -78 65t-27 94.5q0 72 39.5 124t106.5 79q-29 19 -46 52t-17 69q0 101 72.5 156t203.5 55q64 0 110.5 -21t71 -57t24.5 -80q0 -137 -126 -191q35 -18 56 -54t21 -87q0 -106 -75 -167t-217 -61q-68 0 -119 23.5zM415 439.5q30 29.5 30 70.5
q0 29 -21 48.5t-55 19.5q-46 0 -75.5 -27.5t-29.5 -71.5q0 -29 21 -49t55 -20q45 0 75 29.5zM361.5 143.5q33.5 30.5 33.5 80.5q0 32 -24 53t-61 21q-53 0 -87 -31t-34 -78q0 -33 24 -54.5t62 -21.5q53 0 86.5 30.5z" />
    <glyph glyph-name="glyph404" horiz-adv-x="600" 
d="M508 677q49 -27 74.5 -73t25.5 -102q0 -67 -28 -122.5t-85 -120.5l-228 -259h-200l219 237q-16 -2 -24 -2q-48 0 -87 23.5t-61.5 67t-22.5 101.5q0 81 35 143.5t103 98t163 35.5q67 0 116 -27zM416.5 403q32.5 37 32.5 89q0 34 -22 55.5t-59 21.5q-53 0 -83.5 -35.5
t-30.5 -87.5q0 -35 21 -57.5t58 -22.5q51 0 83.5 37z" />
    <glyph glyph-name="glyph405" horiz-adv-x="600" 
d="M547 640.5q58 -63.5 58 -186.5q0 -122 -40 -229t-119 -173t-190 -66q-97 0 -155.5 63.5t-58.5 186.5q0 122 40.5 229.5t119.5 173t190 65.5q97 0 155 -63.5zM293 526.5q-35 -38.5 -57 -99t-30 -124.5l205 247q-18 15 -40 15q-43 0 -78 -38.5zM354.5 164
q34.5 39 56.5 99.5t30 124.5l-206 -247q17 -16 42 -16q43 0 77.5 39z" />
    <glyph glyph-name="uni2080" unicode="&#x2080;" horiz-adv-x="354" 
d="M17 -71.5q-37 36.5 -37 106.5q0 63 25 121t71 94.5t105 36.5q63 0 98 -36.5t35 -106.5q0 -64 -25 -122t-70.5 -94t-105.5 -36q-59 0 -96 36.5zM182.5 35q22.5 49 22.5 106q0 52 -36 52q-24 0 -42 -24t-28 -60t-10 -70q0 -53 36 -53q35 0 57.5 49z" />
    <glyph glyph-name="uni2081" unicode="&#x2081;" horiz-adv-x="259" 
d="M97 146q-24 -34 -49 -49.5t-65 -16.5l26 122q77 15 116 78h110l-80 -380h-110z" />
    <glyph glyph-name="uni2082" unicode="&#x2082;" horiz-adv-x="310" 
d="M100 -5h146l-20 -95h-274l7 31q17 81 50.5 119.5t96.5 63.5q37 15 54 27t17 28q0 25 -30 25q-37 0 -65 -44l-75 50q21 42 59.5 64.5t91.5 22.5q58 0 92 -27t34 -76q0 -54 -26 -85.5t-86 -55.5q-53 -22 -72 -48z" />
    <glyph glyph-name="uni2083" unicode="&#x2083;" horiz-adv-x="319" 
d="M1 -80q-38 28 -40 73l90 38q3 -22 17.5 -35t36.5 -13q23 0 35.5 11t12.5 29q0 31 -40 31h-20l17 76h20q21 0 35.5 9.5t14.5 25.5q0 31 -33 31q-36 0 -56 -32l-82 35q22 45 60.5 66.5t97.5 21.5q56 0 87.5 -26.5t31.5 -72.5q0 -59 -56 -93q29 -25 29 -70q0 -59 -42 -96
t-120 -37q-58 0 -96 28z" />
    <glyph glyph-name="uni2084" unicode="&#x2084;" horiz-adv-x="334" 
d="M305 280l-49 -235h31l-18 -88h-32l-12 -57h-98l12 57h-189l18 88l203 235h134zM182 161l-99 -116h75z" />
    <glyph glyph-name="uni2085" unicode="&#x2085;" horiz-adv-x="307" 
d="M1.5 -85q-37.5 23 -48.5 62l93 42q10 -37 49 -37q24 0 39 15t15 38q0 17 -10.5 27.5t-29.5 10.5q-29 0 -54 -29l-75 17l74 219h239l-20 -96h-156l-19 -44q11 9 24.5 13.5t37.5 4.5q48 0 73 -30t25 -82q0 -71 -42.5 -112.5t-120.5 -41.5q-56 0 -93.5 23z" />
    <glyph glyph-name="uni2086" unicode="&#x2086;" horiz-adv-x="315" 
d="M170 153q38 -3 64 -34.5t26 -80.5q0 -66 -46 -106t-123 -40q-60 0 -92 32.5t-32 81.5q0 41 15.5 70.5t51.5 69.5l118 134h135zM140.5 -4.5q13.5 15.5 13.5 37.5q0 16 -8.5 26t-23.5 10q-24 0 -37.5 -15t-13.5 -40q0 -16 9.5 -25t24.5 -9q22 0 35.5 15.5z" />
    <glyph glyph-name="uni2087" unicode="&#x2087;" horiz-adv-x="286" 
d="M-4 -100q34 163 163 285h-161l20 95h273l-20 -95q-61 -64 -102 -131t-59 -154h-114z" />
    <glyph glyph-name="uni2088" unicode="&#x2088;" horiz-adv-x="326" 
d="M4 -79q-36 29 -36 80q0 39 21 65.5t53 38.5q-31 25 -31 66q0 53 43 84.5t108 31.5q64 0 97 -28t33 -74q0 -30 -17.5 -55t-48.5 -37q15 -8 26.5 -25t11.5 -41q0 -63 -44.5 -99t-122.5 -36q-57 0 -93 29zM177 140q13 12 13 33q0 13 -9 22.5t-23 9.5q-22 0 -36 -12.5
t-14 -30.5q0 -14 9.5 -24t26.5 -10q20 0 33 12zM147.5 -11q14.5 14 14.5 33q0 15 -9.5 25t-26.5 10q-23 0 -37.5 -13.5t-14.5 -34.5q0 -14 10 -24t27 -10q22 0 36.5 14z" />
    <glyph glyph-name="uni2089" unicode="&#x2089;" horiz-adv-x="312" 
d="M252 256q33 -32 33 -82q0 -41 -15.5 -70.5t-51.5 -69.5l-118 -134h-135l117 127q-38 3 -64 34.5t-26 80.5q0 66 45 106t117 40q65 0 98 -32zM168 126q13 15 13 40q0 16 -9.5 25t-24.5 9q-22 0 -35.5 -15.5t-13.5 -37.5q0 -16 9 -26t26 -10q22 0 35 15z" />
    <glyph glyph-name="zero.dnom" horiz-adv-x="354" 
d="M38 28.5q-37 36.5 -37 106.5q0 63 25 121t71 94.5t105 36.5q63 0 98 -36.5t35 -106.5q0 -64 -25 -122t-70.5 -94t-105.5 -36q-59 0 -96 36.5zM203.5 135q22.5 49 22.5 106q0 52 -36 52q-24 0 -42 -24t-28 -60t-10 -70q0 -53 36 -53q35 0 57.5 49z" />
    <glyph glyph-name="one.dnom" horiz-adv-x="259" 
d="M118 246q-24 -34 -49 -49.5t-65 -16.5l26 122q77 15 116 78h110l-80 -380h-110z" />
    <glyph glyph-name="two.dnom" horiz-adv-x="310" 
d="M121 95h146l-20 -95h-274l7 31q17 81 50.5 119.5t96.5 63.5q37 15 54 27t17 28q0 25 -30 25q-37 0 -65 -44l-75 50q21 42 59.5 64.5t91.5 22.5q58 0 92 -27t34 -76q0 -54 -26 -85.5t-86 -55.5q-53 -22 -72 -48z" />
    <glyph glyph-name="three.dnom" horiz-adv-x="319" 
d="M22 20q-38 28 -40 73l90 38q3 -22 17.5 -35t36.5 -13q23 0 35.5 11t12.5 29q0 31 -40 31h-20l17 76h20q21 0 35.5 9.5t14.5 25.5q0 31 -33 31q-36 0 -56 -32l-82 35q22 45 60.5 66.5t97.5 21.5q56 0 87.5 -26.5t31.5 -72.5q0 -59 -56 -93q29 -25 29 -70q0 -59 -42 -96
t-120 -37q-58 0 -96 28z" />
    <glyph glyph-name="four.dnom" horiz-adv-x="334" 
d="M326 380l-49 -235h31l-18 -88h-32l-12 -57h-98l12 57h-189l18 88l203 235h134zM203 261l-99 -116h75z" />
    <glyph glyph-name="five.dnom" horiz-adv-x="307" 
d="M22.5 15q-37.5 23 -48.5 62l93 42q10 -37 49 -37q24 0 39 15t15 38q0 17 -10.5 27.5t-29.5 10.5q-29 0 -54 -29l-75 17l74 219h239l-20 -96h-156l-19 -44q11 9 24.5 13.5t37.5 4.5q48 0 73 -30t25 -82q0 -71 -42.5 -112.5t-120.5 -41.5q-56 0 -93.5 23z" />
    <glyph glyph-name="six.dnom" horiz-adv-x="315" 
d="M191 253q38 -3 64 -34.5t26 -80.5q0 -66 -46 -106t-123 -40q-60 0 -92 32.5t-32 81.5q0 41 15.5 70.5t51.5 69.5l118 134h135zM161.5 95.5q13.5 15.5 13.5 37.5q0 16 -8.5 26t-23.5 10q-24 0 -37.5 -15t-13.5 -40q0 -16 9.5 -25t24.5 -9q22 0 35.5 15.5z" />
    <glyph glyph-name="seven.dnom" horiz-adv-x="286" 
d="M17 0q34 163 163 285h-161l20 95h273l-20 -95q-61 -64 -102 -131t-59 -154h-114z" />
    <glyph glyph-name="eight.dnom" horiz-adv-x="326" 
d="M25 21q-36 29 -36 80q0 39 21 65.5t53 38.5q-31 25 -31 66q0 53 43 84.5t108 31.5q64 0 97 -28t33 -74q0 -30 -17.5 -55t-48.5 -37q15 -8 26.5 -25t11.5 -41q0 -63 -44.5 -99t-122.5 -36q-57 0 -93 29zM198 240q13 12 13 33q0 13 -9 22.5t-23 9.5q-22 0 -36 -12.5
t-14 -30.5q0 -14 9.5 -24t26.5 -10q20 0 33 12zM168.5 89q14.5 14 14.5 33q0 15 -9.5 25t-26.5 10q-23 0 -37.5 -13.5t-14.5 -34.5q0 -14 10 -24t27 -10q22 0 36.5 14z" />
    <glyph glyph-name="nine.dnom" horiz-adv-x="312" 
d="M273 356q33 -32 33 -82q0 -41 -15.5 -70.5t-51.5 -69.5l-118 -134h-135l117 127q-38 3 -64 34.5t-26 80.5q0 66 45 106t117 40q65 0 98 -32zM189 226q13 15 13 40q0 16 -9.5 25t-24.5 9q-22 0 -35.5 -15.5t-13.5 -37.5q0 -16 9 -26t26 -10q22 0 35 15z" />
    <glyph glyph-name="zero.numr" horiz-adv-x="354" 
d="M104 338.5q-37 36.5 -37 106.5q0 63 25 121t71 94.5t105 36.5q63 0 98 -36.5t35 -106.5q0 -64 -25 -122t-70.5 -94t-105.5 -36q-59 0 -96 36.5zM269.5 445q22.5 49 22.5 106q0 52 -36 52q-24 0 -42 -24t-28 -60t-10 -70q0 -53 36 -53q35 0 57.5 49z" />
    <glyph glyph-name="one.numr" horiz-adv-x="259" 
d="M184 556q-24 -34 -49 -49.5t-65 -16.5l26 122q77 15 116 78h110l-80 -380h-110z" />
    <glyph glyph-name="two.numr" horiz-adv-x="310" 
d="M187 405h146l-20 -95h-274l7 31q17 81 50.5 119.5t96.5 63.5q37 15 54 27t17 28q0 25 -30 25q-37 0 -65 -44l-75 50q21 42 59.5 64.5t91.5 22.5q58 0 92 -27t34 -76q0 -54 -26 -85.5t-86 -55.5q-53 -22 -72 -48z" />
    <glyph glyph-name="three.numr" horiz-adv-x="319" 
d="M88 330q-38 28 -40 73l90 38q3 -22 17.5 -35t36.5 -13q23 0 35.5 11t12.5 29q0 31 -40 31h-20l17 76h20q21 0 35.5 9.5t14.5 25.5q0 31 -33 31q-36 0 -56 -32l-82 35q22 45 60.5 66.5t97.5 21.5q56 0 87.5 -26.5t31.5 -72.5q0 -59 -56 -93q29 -25 29 -70q0 -59 -42 -96
t-120 -37q-58 0 -96 28z" />
    <glyph glyph-name="four.numr" horiz-adv-x="334" 
d="M392 690l-49 -235h31l-18 -88h-32l-12 -57h-98l12 57h-189l18 88l203 235h134zM269 571l-99 -116h75z" />
    <glyph glyph-name="five.numr" horiz-adv-x="307" 
d="M88.5 325q-37.5 23 -48.5 62l93 42q10 -37 49 -37q24 0 39 15t15 38q0 17 -10.5 27.5t-29.5 10.5q-29 0 -54 -29l-75 17l74 219h239l-20 -96h-156l-19 -44q11 9 24.5 13.5t37.5 4.5q48 0 73 -30t25 -82q0 -71 -42.5 -112.5t-120.5 -41.5q-56 0 -93.5 23z" />
    <glyph glyph-name="six.numr" horiz-adv-x="315" 
d="M257 563q38 -3 64 -34.5t26 -80.5q0 -66 -46 -106t-123 -40q-60 0 -92 32.5t-32 81.5q0 41 15.5 70.5t51.5 69.5l118 134h135zM227.5 405.5q13.5 15.5 13.5 37.5q0 16 -8.5 26t-23.5 10q-24 0 -37.5 -15t-13.5 -40q0 -16 9.5 -25t24.5 -9q22 0 35.5 15.5z" />
    <glyph glyph-name="seven.numr" horiz-adv-x="286" 
d="M83 310q34 163 163 285h-161l20 95h273l-20 -95q-61 -64 -102 -131t-59 -154h-114z" />
    <glyph glyph-name="eight.numr" horiz-adv-x="326" 
d="M91 331q-36 29 -36 80q0 39 21 65.5t53 38.5q-31 25 -31 66q0 53 43 84.5t108 31.5q64 0 97 -28t33 -74q0 -30 -17.5 -55t-48.5 -37q15 -8 26.5 -25t11.5 -41q0 -63 -44.5 -99t-122.5 -36q-57 0 -93 29zM264 550q13 12 13 33q0 13 -9 22.5t-23 9.5q-22 0 -36 -12.5
t-14 -30.5q0 -14 9.5 -24t26.5 -10q20 0 33 12zM234.5 399q14.5 14 14.5 33q0 15 -9.5 25t-26.5 10q-23 0 -37.5 -13.5t-14.5 -34.5q0 -14 10 -24t27 -10q22 0 36.5 14z" />
    <glyph glyph-name="nine.numr" horiz-adv-x="312" 
d="M339 666q33 -32 33 -82q0 -41 -15.5 -70.5t-51.5 -69.5l-118 -134h-135l117 127q-38 3 -64 34.5t-26 80.5q0 66 45 106t117 40q65 0 98 -32zM255 536q13 15 13 40q0 16 -9.5 25t-24.5 9q-22 0 -35.5 -15.5t-13.5 -37.5q0 -16 9 -26t26 -10q22 0 35 15z" />
    <glyph glyph-name="uni2070" unicode="&#x2070;" horiz-adv-x="354" 
d="M125 438.5q-37 36.5 -37 106.5q0 63 25 121t71 94.5t105 36.5q63 0 98 -36.5t35 -106.5q0 -64 -25 -122t-70.5 -94t-105.5 -36q-59 0 -96 36.5zM290.5 545q22.5 49 22.5 106q0 52 -36 52q-24 0 -42 -24t-28 -60t-10 -70q0 -53 36 -53q35 0 57.5 49z" />
    <glyph glyph-name="uni00B9" unicode="&#xb9;" horiz-adv-x="259" 
d="M205 656q-24 -34 -49 -49.5t-65 -16.5l26 122q77 15 116 78h110l-80 -380h-110z" />
    <glyph glyph-name="uni00B2" unicode="&#xb2;" horiz-adv-x="310" 
d="M208 505h146l-20 -95h-274l7 31q17 81 50.5 119.5t96.5 63.5q37 15 54 27t17 28q0 25 -30 25q-37 0 -65 -44l-75 50q21 42 59.5 64.5t91.5 22.5q58 0 92 -27t34 -76q0 -54 -26 -85.5t-86 -55.5q-53 -22 -72 -48z" />
    <glyph glyph-name="uni00B3" unicode="&#xb3;" horiz-adv-x="319" 
d="M109 430q-38 28 -40 73l90 38q3 -22 17.5 -35t36.5 -13q23 0 35.5 11t12.5 29q0 31 -40 31h-20l17 76h20q21 0 35.5 9.5t14.5 25.5q0 31 -33 31q-36 0 -56 -32l-82 35q22 45 60.5 66.5t97.5 21.5q56 0 87.5 -26.5t31.5 -72.5q0 -59 -56 -93q29 -25 29 -70q0 -59 -42 -96
t-120 -37q-58 0 -96 28z" />
    <glyph glyph-name="uni2074" unicode="&#x2074;" horiz-adv-x="334" 
d="M413 790l-49 -235h31l-18 -88h-32l-12 -57h-98l12 57h-189l18 88l203 235h134zM290 671l-99 -116h75z" />
    <glyph glyph-name="uni2075" unicode="&#x2075;" horiz-adv-x="307" 
d="M109.5 425q-37.5 23 -48.5 62l93 42q10 -37 49 -37q24 0 39 15t15 38q0 17 -10.5 27.5t-29.5 10.5q-29 0 -54 -29l-75 17l74 219h239l-20 -96h-156l-19 -44q11 9 24.5 13.5t37.5 4.5q48 0 73 -30t25 -82q0 -71 -42.5 -112.5t-120.5 -41.5q-56 0 -93.5 23z" />
    <glyph glyph-name="uni2076" unicode="&#x2076;" horiz-adv-x="315" 
d="M278 663q38 -3 64 -34.5t26 -80.5q0 -66 -46 -106t-123 -40q-60 0 -92 32.5t-32 81.5q0 41 15.5 70.5t51.5 69.5l118 134h135zM248.5 505.5q13.5 15.5 13.5 37.5q0 16 -8.5 26t-23.5 10q-24 0 -37.5 -15t-13.5 -40q0 -16 9.5 -25t24.5 -9q22 0 35.5 15.5z" />
    <glyph glyph-name="uni2077" unicode="&#x2077;" horiz-adv-x="286" 
d="M104 410q34 163 163 285h-161l20 95h273l-20 -95q-61 -64 -102 -131t-59 -154h-114z" />
    <glyph glyph-name="uni2078" unicode="&#x2078;" horiz-adv-x="326" 
d="M112 431q-36 29 -36 80q0 39 21 65.5t53 38.5q-31 25 -31 66q0 53 43 84.5t108 31.5q64 0 97 -28t33 -74q0 -30 -17.5 -55t-48.5 -37q15 -8 26.5 -25t11.5 -41q0 -63 -44.5 -99t-122.5 -36q-57 0 -93 29zM285 650q13 12 13 33q0 13 -9 22.5t-23 9.5q-22 0 -36 -12.5
t-14 -30.5q0 -14 9.5 -24t26.5 -10q20 0 33 12zM255.5 499q14.5 14 14.5 33q0 15 -9.5 25t-26.5 10q-23 0 -37.5 -13.5t-14.5 -34.5q0 -14 10 -24t27 -10q22 0 36.5 14z" />
    <glyph glyph-name="uni2079" unicode="&#x2079;" horiz-adv-x="312" 
d="M360 766q33 -32 33 -82q0 -41 -15.5 -70.5t-51.5 -69.5l-118 -134h-135l117 127q-38 3 -64 34.5t-26 80.5q0 66 45 106t117 40q65 0 98 -32zM276 636q13 15 13 40q0 16 -9.5 25t-24.5 9q-22 0 -35.5 -15.5t-13.5 -37.5q0 -16 9 -26t26 -10q22 0 35 15z" />
    <glyph glyph-name="fraction" unicode="&#x2044;" horiz-adv-x="271" 
d="M-33 0h-142l526 690h142z" />
    <glyph glyph-name="onehalf" unicode="&#xbd;" horiz-adv-x="822" 
d="M184 556q-24 -34 -49 -49.5t-65 -16.5l26 122q77 15 116 78h110l-80 -380h-110zM226 0h-142l526 690h142zM633 95h146l-20 -95h-274l7 31q17 81 50.5 119.5t96.5 63.5q37 15 54 27t17 28q0 25 -30 25q-37 0 -65 -44l-75 50q21 42 59.5 64.5t91.5 22.5q58 0 92 -27t34 -76
q0 -54 -26 -85.5t-86 -55.5q-53 -22 -72 -48z" />
    <glyph glyph-name="onethird" unicode="&#x2153;" horiz-adv-x="822" 
d="M184 556q-24 -34 -49 -49.5t-65 -16.5l26 122q77 15 116 78h110l-80 -380h-110zM226 0h-142l526 690h142zM525 20q-38 28 -40 73l90 38q3 -22 17.5 -35t36.5 -13q23 0 35.5 11t12.5 29q0 31 -40 31h-20l17 76h20q21 0 35.5 9.5t14.5 25.5q0 31 -33 31q-36 0 -56 -32
l-82 35q22 45 60.5 66.5t97.5 21.5q56 0 87.5 -26.5t31.5 -72.5q0 -59 -56 -93q29 -25 29 -70q0 -59 -42 -96t-120 -37q-58 0 -96 28z" />
    <glyph glyph-name="twothirds" unicode="&#x2154;" horiz-adv-x="893" 
d="M187 405h146l-20 -95h-274l7 31q17 81 50.5 119.5t96.5 63.5q37 15 54 27t17 28q0 25 -30 25q-37 0 -65 -44l-75 50q21 42 59.5 64.5t91.5 22.5q58 0 92 -27t34 -76q0 -54 -26 -85.5t-86 -55.5q-53 -22 -72 -48zM297 0h-142l526 690h142zM596 20q-38 28 -40 73l90 38
q3 -22 17.5 -35t36.5 -13q23 0 35.5 11t12.5 29q0 31 -40 31h-20l17 76h20q21 0 35.5 9.5t14.5 25.5q0 31 -33 31q-36 0 -56 -32l-82 35q22 45 60.5 66.5t97.5 21.5q56 0 87.5 -26.5t31.5 -72.5q0 -59 -56 -93q29 -25 29 -70q0 -59 -42 -96t-120 -37q-58 0 -96 28z" />
    <glyph glyph-name="onequarter" unicode="&#xbc;" horiz-adv-x="789" 
d="M184 556q-24 -34 -49 -49.5t-65 -16.5l26 122q77 15 116 78h110l-80 -380h-110zM226 0h-142l526 690h142zM781 380l-49 -235h31l-18 -88h-32l-12 -57h-98l12 57h-189l18 88l203 235h134zM658 261l-99 -116h75z" />
    <glyph glyph-name="threequarters" unicode="&#xbe;" horiz-adv-x="852" 
d="M88 330q-38 28 -40 73l90 38q3 -22 17.5 -35t36.5 -13q23 0 35.5 11t12.5 29q0 31 -40 31h-20l17 76h20q21 0 35.5 9.5t14.5 25.5q0 31 -33 31q-36 0 -56 -32l-82 35q22 45 60.5 66.5t97.5 21.5q56 0 87.5 -26.5t31.5 -72.5q0 -59 -56 -93q29 -25 29 -70q0 -59 -42 -96
t-120 -37q-58 0 -96 28zM289 0h-142l526 690h142zM844 380l-49 -235h31l-18 -88h-32l-12 -57h-98l12 57h-189l18 88l203 235h134zM721 261l-99 -116h75z" />
    <glyph glyph-name="oneeighth" unicode="&#x215b;" horiz-adv-x="841" 
d="M184 556q-24 -34 -49 -49.5t-65 -16.5l26 122q77 15 116 78h110l-80 -380h-110zM226 0h-142l526 690h142zM540 21q-36 29 -36 80q0 39 21 65.5t53 38.5q-31 25 -31 66q0 53 43 84.5t108 31.5q64 0 97 -28t33 -74q0 -30 -17.5 -55t-48.5 -37q15 -8 26.5 -25t11.5 -41
q0 -63 -44.5 -99t-122.5 -36q-57 0 -93 29zM713 240q13 12 13 33q0 13 -9 22.5t-23 9.5q-22 0 -36 -12.5t-14 -30.5q0 -14 9.5 -24t26.5 -10q20 0 33 12zM683.5 89q14.5 14 14.5 33q0 15 -9.5 25t-26.5 10q-23 0 -37.5 -13.5t-14.5 -34.5q0 -14 10 -24t27 -10q22 0 36.5 14z
" />
    <glyph glyph-name="threeeighths" unicode="&#x215c;" horiz-adv-x="904" 
d="M88 330q-38 28 -40 73l90 38q3 -22 17.5 -35t36.5 -13q23 0 35.5 11t12.5 29q0 31 -40 31h-20l17 76h20q21 0 35.5 9.5t14.5 25.5q0 31 -33 31q-36 0 -56 -32l-82 35q22 45 60.5 66.5t97.5 21.5q56 0 87.5 -26.5t31.5 -72.5q0 -59 -56 -93q29 -25 29 -70q0 -59 -42 -96
t-120 -37q-58 0 -96 28zM289 0h-142l526 690h142zM603 21q-36 29 -36 80q0 39 21 65.5t53 38.5q-31 25 -31 66q0 53 43 84.5t108 31.5q64 0 97 -28t33 -74q0 -30 -17.5 -55t-48.5 -37q15 -8 26.5 -25t11.5 -41q0 -63 -44.5 -99t-122.5 -36q-57 0 -93 29zM776 240
q13 12 13 33q0 13 -9 22.5t-23 9.5q-22 0 -36 -12.5t-14 -30.5q0 -14 9.5 -24t26.5 -10q20 0 33 12zM746.5 89q14.5 14 14.5 33q0 15 -9.5 25t-26.5 10q-23 0 -37.5 -13.5t-14.5 -34.5q0 -14 10 -24t27 -10q22 0 36.5 14z" />
    <glyph glyph-name="fiveeighths" unicode="&#x215d;" horiz-adv-x="895" 
d="M88.5 325q-37.5 23 -48.5 62l93 42q10 -37 49 -37q24 0 39 15t15 38q0 17 -10.5 27.5t-29.5 10.5q-29 0 -54 -29l-75 17l74 219h239l-20 -96h-156l-19 -44q11 9 24.5 13.5t37.5 4.5q48 0 73 -30t25 -82q0 -71 -42.5 -112.5t-120.5 -41.5q-56 0 -93.5 23zM280 0h-142
l526 690h142zM594 21q-36 29 -36 80q0 39 21 65.5t53 38.5q-31 25 -31 66q0 53 43 84.5t108 31.5q64 0 97 -28t33 -74q0 -30 -17.5 -55t-48.5 -37q15 -8 26.5 -25t11.5 -41q0 -63 -44.5 -99t-122.5 -36q-57 0 -93 29zM767 240q13 12 13 33q0 13 -9 22.5t-23 9.5
q-22 0 -36 -12.5t-14 -30.5q0 -14 9.5 -24t26.5 -10q20 0 33 12zM737.5 89q14.5 14 14.5 33q0 15 -9.5 25t-26.5 10q-23 0 -37.5 -13.5t-14.5 -34.5q0 -14 10 -24t27 -10q22 0 36.5 14z" />
    <glyph glyph-name="seveneighths" unicode="&#x215e;" horiz-adv-x="828" 
d="M83 310q34 163 163 285h-161l20 95h273l-20 -95q-61 -64 -102 -131t-59 -154h-114zM213 0h-142l526 690h142zM527 21q-36 29 -36 80q0 39 21 65.5t53 38.5q-31 25 -31 66q0 53 43 84.5t108 31.5q64 0 97 -28t33 -74q0 -30 -17.5 -55t-48.5 -37q15 -8 26.5 -25t11.5 -41
q0 -63 -44.5 -99t-122.5 -36q-57 0 -93 29zM700 240q13 12 13 33q0 13 -9 22.5t-23 9.5q-22 0 -36 -12.5t-14 -30.5q0 -14 9.5 -24t26.5 -10q20 0 33 12zM670.5 89q14.5 14 14.5 33q0 15 -9.5 25t-26.5 10q-23 0 -37.5 -13.5t-14.5 -34.5q0 -14 10 -24t27 -10q22 0 36.5 14z
" />
    <glyph glyph-name="glyph456" horiz-adv-x="354" 
d="M279 250.5q35 -36.5 35 -106.5q0 -64 -25 -122t-70.5 -94t-105.5 -36q-59 0 -96 36.5t-37 106.5q0 63 25 121t71 94.5t105 36.5q63 0 98 -36.5zM108 148.5q-24 -50.5 -25 -107.5l102 155q-7 3 -16 3q-37 0 -61 -50.5zM187 30.5q24 50.5 24 110.5v1l-104 -158q7 -4 18 -4
q38 0 62 50.5z" />
    <glyph glyph-name="glyph457" horiz-adv-x="354" 
d="M300 350.5q35 -36.5 35 -106.5q0 -64 -25 -122t-70.5 -94t-105.5 -36q-59 0 -96 36.5t-37 106.5q0 63 25 121t71 94.5t105 36.5q63 0 98 -36.5zM129 248.5q-24 -50.5 -25 -107.5l102 155q-7 3 -16 3q-37 0 -61 -50.5zM208 130.5q24 50.5 24 110.5v1l-104 -158q7 -4 18 -4
q38 0 62 50.5z" />
    <glyph glyph-name="glyph458" horiz-adv-x="354" 
d="M366 660.5q35 -36.5 35 -106.5q0 -64 -25 -122t-70.5 -94t-105.5 -36q-59 0 -96 36.5t-37 106.5q0 63 25 121t71 94.5t105 36.5q63 0 98 -36.5zM195 558.5q-24 -50.5 -25 -107.5l102 155q-7 3 -16 3q-37 0 -61 -50.5zM274 440.5q24 50.5 24 110.5v1l-104 -158q7 -4 18 -4
q38 0 62 50.5z" />
    <glyph glyph-name="glyph459" horiz-adv-x="354" 
d="M387 760.5q35 -36.5 35 -106.5q0 -64 -25 -122t-70.5 -94t-105.5 -36q-59 0 -96 36.5t-37 106.5q0 63 25 121t71 94.5t105 36.5q63 0 98 -36.5zM216 658.5q-24 -50.5 -25 -107.5l102 155q-7 3 -16 3q-37 0 -61 -50.5zM295 540.5q24 50.5 24 110.5v1l-104 -158q7 -4 18 -4
q38 0 62 50.5z" />
    <glyph glyph-name="period" unicode="." horiz-adv-x="269" 
d="M33.5 18.5q-26.5 26.5 -26.5 69.5q0 44 26.5 70t69.5 26t69.5 -26.5t26.5 -69.5t-26.5 -69.5t-69.5 -26.5t-69.5 26.5z" />
    <glyph glyph-name="comma" unicode="," horiz-adv-x="274" 
d="M-22 -99q81 44 108 91h2q-39 0 -61.5 23.5t-22.5 60.5q0 48 29.5 78.5t80.5 30.5q41 0 65.5 -29.5t24.5 -77.5q0 -79 -36.5 -137.5t-113.5 -115.5z" />
    <glyph glyph-name="colon" unicode=":" horiz-adv-x="269" 
d="M33.5 18.5q-26.5 26.5 -26.5 69.5q0 44 26.5 70t69.5 26t69.5 -26.5t26.5 -69.5t-26.5 -69.5t-69.5 -26.5t-69.5 26.5zM96.5 312.5q-26.5 26.5 -26.5 69.5q0 44 26.5 70t69.5 26t69.5 -26.5t26.5 -69.5t-26.5 -69.5t-69.5 -26.5t-69.5 26.5z" />
    <glyph glyph-name="semicolon" unicode=";" horiz-adv-x="274" 
d="M-22 -99q81 44 108 91h2q-39 0 -61.5 23.5t-22.5 60.5q0 48 29.5 78.5t80.5 30.5q41 0 65.5 -29.5t24.5 -77.5q0 -79 -36.5 -137.5t-113.5 -115.5zM96.5 312.5q-26.5 26.5 -26.5 69.5q0 44 26.5 70t69.5 26t69.5 -26.5t26.5 -69.5t-26.5 -69.5t-69.5 -26.5t-69.5 26.5z
" />
    <glyph glyph-name="ellipsis" unicode="&#x2026;" horiz-adv-x="801" 
d="M299.5 18.5q-26.5 26.5 -26.5 69.5q0 44 26.5 70t69.5 26t69.5 -26.5t26.5 -69.5t-26.5 -69.5t-69.5 -26.5t-69.5 26.5zM565.5 18.5q-26.5 26.5 -26.5 69.5q0 44 26.5 70t69.5 26t69.5 -26.5t26.5 -69.5t-26.5 -69.5t-69.5 -26.5t-69.5 26.5zM33.5 18.5
q-26.5 26.5 -26.5 69.5q0 44 26.5 70t69.5 26t69.5 -26.5t26.5 -69.5t-26.5 -69.5t-69.5 -26.5t-69.5 26.5z" />
    <glyph glyph-name="exclam" unicode="!" horiz-adv-x="293" 
d="M206 245h-118l65 445h175zM45.5 18.5q-26.5 26.5 -26.5 69.5q0 44 26.5 70t69.5 26t69.5 -26.5t26.5 -69.5t-26.5 -69.5t-69.5 -26.5t-69.5 26.5z" />
    <glyph glyph-name="exclamdown" unicode="&#xa1;" horiz-adv-x="294" 
d="M110 318.5q-27 26.5 -27 69.5t27 69.5t70 26.5t69.5 -26.5t26.5 -69.5t-26.5 -69.5t-69.5 -26.5t-70 26.5zM144 -190h-175l119 421h118z" />
    <glyph glyph-name="question" unicode="?" horiz-adv-x="545" 
d="M230 389q72 8 122.5 38t50.5 79q0 28 -18.5 44t-49.5 16q-39 0 -69.5 -20t-57.5 -59l-103 90q43 62 103 94.5t151 32.5q99 0 154 -47.5t55 -129.5q0 -93 -57.5 -147.5t-165.5 -69.5l-18 -65h-118zM165.5 18.5q-26.5 26.5 -26.5 69.5q0 44 26.5 70t69.5 26t69.5 -26.5
t26.5 -69.5t-26.5 -69.5t-69.5 -26.5t-69.5 26.5z" />
    <glyph glyph-name="questiondown" unicode="&#xbf;" horiz-adv-x="537" 
d="M237.5 318.5q-26.5 26.5 -26.5 69.5t26.5 69.5t69.5 26.5t69.5 -26.5t26.5 -69.5t-26.5 -69.5t-69.5 -26.5t-69.5 26.5zM33.5 -159q-52.5 45 -52.5 122q0 90 59 149.5t161 73.5l12 45h119l-18 -128q-75 -6 -122 -34t-47 -76q0 -29 16.5 -44t47.5 -15q41 0 70 18.5
t62 58.5l96 -94q-41 -62 -101 -91.5t-160 -29.5q-90 0 -142.5 45z" />
    <glyph glyph-name="periodcentered" unicode="&#xb7;" horiz-adv-x="269" 
d="M88.5 275.5q-26.5 26.5 -26.5 69.5q0 44 26.5 70t69.5 26t69.5 -26.5t26.5 -69.5t-26.5 -69.5t-69.5 -26.5t-69.5 26.5z" />
    <glyph glyph-name="bullet" unicode="&#x2022;" horiz-adv-x="349" 
d="M95.5 242.5q-40.5 40.5 -40.5 102.5t40.5 102.5t102.5 40.5t102.5 -40.5t40.5 -102.5t-40.5 -102.5t-102.5 -40.5t-102.5 40.5z" />
    <glyph glyph-name="asterisk" unicode="*" horiz-adv-x="415" 
d="M265 502l-74 -104l-82 67l105 82l-110 21l49 100l99 -55l7 117h107l-42 -115l102 51l26 -102l-121 -19l66 -85l-99 -62z" />
    <glyph glyph-name="numbersign" unicode="#" horiz-adv-x="635" 
d="M675 533l-27 -122h-98l-24 -132h93l-27 -122h-88l-28 -157h-130l28 157h-134l-28 -157h-131l28 157h-103l27 122h98l24 132h-93l27 122h88l28 157h131l-28 -157h134l28 157h130l-28 -157h103zM262 279h134l24 132h-134z" />
    <glyph glyph-name="slash" unicode="/" horiz-adv-x="447" 
d="M103 -120h-163l433 850h164z" />
    <glyph glyph-name="backslash" unicode="\" horiz-adv-x="447" 
d="M357 -120h-144l-93 850h143z" />
    <glyph glyph-name="parenleft" unicode="(" horiz-adv-x="364" 
d="M119 -120q-35 50 -58.5 125.5t-23.5 164.5q0 174 61 311t188 249h161q-76 -63 -134 -153t-90 -193.5t-32 -204.5q0 -91 18.5 -172.5t51.5 -126.5h-142z" />
    <glyph glyph-name="parenright" unicode=")" horiz-adv-x="364" 
d="M-53 -120q76 63 134 153t90 193.5t32 204.5q0 91 -18.5 172.5t-51.5 126.5h142q35 -50 58.5 -125.5t23.5 -164.5q0 -174 -61 -311t-188 -249h-161z" />
    <glyph glyph-name="braceleft" unicode="{" horiz-adv-x="399" 
d="M201 -120q-134 0 -134 122q0 30 7 64l24 113q2 12 2 17q0 35 -37 44l-34 8l24 114l38 8q24 5 40 20.5t21 40.5l28 133q12 58 33 93.5t61 54t107 18.5h80l-30 -143h-34q-61 0 -73 -60l-26 -123q-10 -48 -34 -70.5t-64 -28.5q28 -5 43.5 -24.5t15.5 -48.5q0 -12 -3 -26
l-27 -125q-2 -12 -2 -17q0 -43 50 -43h34l-30 -141h-80z" />
    <glyph glyph-name="braceright" unicode="}" horiz-adv-x="399" 
d="M-32 -120l30 143h34q61 0 73 60l26 123q10 48 34 70.5t64 28.5q-28 5 -43.5 24.5t-15.5 48.5q0 13 3 26l27 125q2 12 2 17q0 43 -50 43h-34l30 141h80q134 0 134 -122q0 -30 -7 -64l-24 -113q-2 -12 -2 -17q0 -35 37 -44l34 -8l-24 -114l-38 -8q-24 -5 -40 -20.5
t-21 -40.5l-28 -133q-12 -58 -33 -93.5t-61 -54t-107 -18.5h-80z" />
    <glyph glyph-name="bracketleft" unicode="[" horiz-adv-x="354" 
d="M236 -120h-246l180 850h246l-30 -143h-94l-120 -566h94z" />
    <glyph glyph-name="bracketright" unicode="]" horiz-adv-x="354" 
d="M214 -120h-246l30 141h94l120 566h-94l30 143h246z" />
    <glyph glyph-name="hyphen" unicode="-" horiz-adv-x="424" 
d="M377 248h-324l28 132h324z" />
    <glyph glyph-name="uni00AD" unicode="&#xad;" horiz-adv-x="424" 
d="M377 248h-324l28 132h324z" />
    <glyph glyph-name="endash" unicode="&#x2013;" horiz-adv-x="523" 
d="M476 248h-423l28 132h423z" />
    <glyph glyph-name="emdash" unicode="&#x2014;" horiz-adv-x="875" 
d="M828 248h-775l28 132h775z" />
    <glyph glyph-name="underscore" unicode="_" horiz-adv-x="523" 
d="M387 -168h-423l28 132h423z" />
    <glyph glyph-name="glyph486" horiz-adv-x="424" 
d="M383 279h-324l28 132h324z" />
    <glyph glyph-name="glyph487" horiz-adv-x="424" 
d="M383 279h-324l28 132h324z" />
    <glyph glyph-name="glyph488" horiz-adv-x="523" 
d="M482 279h-423l28 132h423z" />
    <glyph glyph-name="glyph489" horiz-adv-x="875" 
d="M834 279h-775l28 132h775z" />
    <glyph glyph-name="quotesinglbase" unicode="&#x201a;" horiz-adv-x="302" 
d="M-20 -99q87 41 116 90q-35 2 -55.5 26t-20.5 59q0 51 29 79.5t81 28.5q39 0 64.5 -28.5t25.5 -76.5q0 -78 -47.5 -143.5t-125.5 -107.5z" />
    <glyph glyph-name="quotedblbase" unicode="&#x201e;" horiz-adv-x="550" 
d="M-20 -99q87 41 116 90q-35 2 -55.5 26t-20.5 59q0 51 29 79.5t81 28.5q39 0 64.5 -28.5t25.5 -76.5q0 -78 -47.5 -143.5t-125.5 -107.5zM228 -99q87 41 116 90q-35 2 -55.5 26t-20.5 59q0 51 29 79.5t81 28.5q39 0 64.5 -28.5t25.5 -76.5q0 -78 -47.5 -143.5
t-125.5 -107.5z" />
    <glyph glyph-name="quotedblleft" unicode="&#x201c;" horiz-adv-x="550" 
d="M119.5 370.5q-25.5 28.5 -25.5 76.5q0 78 47.5 143.5t125.5 107.5l67 -73q-87 -41 -116 -90q35 -2 55.5 -26t20.5 -59q0 -51 -29 -79.5t-81 -28.5q-39 0 -64.5 28.5zM367.5 370.5q-25.5 28.5 -25.5 76.5q0 78 47.5 143.5t125.5 107.5l67 -73q-87 -41 -116 -90
q35 -2 55.5 -26t20.5 -59q0 -51 -29 -79.5t-81 -28.5q-39 0 -64.5 28.5z" />
    <glyph glyph-name="quotedblright" unicode="&#x201d;" horiz-adv-x="550" 
d="M89 415q87 41 116 90q-35 2 -55.5 26t-20.5 59q0 51 29 79.5t81 28.5q39 0 64.5 -28.5t25.5 -76.5q0 -78 -47.5 -143.5t-125.5 -107.5zM337 415q87 41 116 90q-35 2 -55.5 26t-20.5 59q0 51 29 79.5t81 28.5q39 0 64.5 -28.5t25.5 -76.5q0 -78 -47.5 -143.5
t-125.5 -107.5z" />
    <glyph glyph-name="quoteleft" unicode="&#x2018;" horiz-adv-x="302" 
d="M119.5 370.5q-25.5 28.5 -25.5 76.5q0 78 47.5 143.5t125.5 107.5l67 -73q-87 -41 -116 -90q35 -2 55.5 -26t20.5 -59q0 -51 -29 -79.5t-81 -28.5q-39 0 -64.5 28.5z" />
    <glyph glyph-name="quoteright" unicode="&#x2019;" horiz-adv-x="302" 
d="M89 415q87 41 116 90q-35 2 -55.5 26t-20.5 59q0 51 29 79.5t81 28.5q39 0 64.5 -28.5t25.5 -76.5q0 -78 -47.5 -143.5t-125.5 -107.5z" />
    <glyph glyph-name="guillemotleft" unicode="&#xab;" horiz-adv-x="589" 
d="M534 86h-166l-99 182l10 46l163 182h180l-209 -213zM299 86h-166l-99 182l10 46l163 182h180l-209 -213z" />
    <glyph glyph-name="guillemotright" unicode="&#xbb;" horiz-adv-x="588" 
d="M405 86h-180l209 213l-121 197h166l99 -182l-10 -46zM170 86h-180l209 213l-121 197h166l99 -182l-10 -46z" />
    <glyph glyph-name="guilsinglleft" unicode="&#x2039;" horiz-adv-x="354" 
d="M299 86h-166l-99 182l10 46l163 182h180l-209 -213z" />
    <glyph glyph-name="guilsinglright" unicode="&#x203a;" horiz-adv-x="353" 
d="M170 86h-180l209 213l-121 197h166l99 -182l-10 -46z" />
    <glyph glyph-name="quotedbl" unicode="&#x22;" horiz-adv-x="463" 
d="M220 415h-125l38 275h164zM447 415h-125l38 275h164z" />
    <glyph glyph-name="quotesingle" unicode="'" horiz-adv-x="236" 
d="M220 415h-125l38 275h164z" />
    <glyph glyph-name="uni00A0" unicode="&#xa0;" horiz-adv-x="220" 
 />
    <glyph glyph-name="cent" unicode="&#xa2;" horiz-adv-x="541" 
d="M351 233q25 12 56 43l97 -86q-31 -39 -74 -62t-107 -29l-21 -99h-111l21 101q-70 12 -111.5 61t-41.5 137q0 125 67.5 203.5t189.5 89.5l21 98h111l-22 -102q99 -20 140 -97l-121 -71q-17 30 -45 41zM241 237l47 221q-35 -18 -56 -58t-21 -84q0 -52 30 -79z" />
    <glyph glyph-name="currency" unicode="&#xa4;" horiz-adv-x="700" 
d="M577 220l80 -80l-79 -78l-81 81q-55 -29 -123 -29q-70 0 -125 30l-80 -82l-79 78l80 79q-32 54 -32 126q0 71 32 125l-80 80l79 79l82 -82q55 29 123 29q69 0 122 -29l82 82l79 -79l-80 -80q32 -54 32 -125t-32 -125zM437 270q22 26 22 75t-22 75t-63 26t-63.5 -26
t-22.5 -75q0 -48 22.5 -74.5t63.5 -26.5t63 26z" />
    <glyph glyph-name="dollar" unicode="$" horiz-adv-x="604" 
d="M398 416q87 -24 130.5 -69.5t43.5 -124.5q0 -97 -70 -160.5t-195 -73.5l-19 -88h-110l19 90q-143 20 -201 135l130 92q41 -72 101 -89l35 166q-79 24 -125 66t-46 120q0 93 69 153.5t189 69.5l19 87h110l-20 -92q65 -12 106.5 -44.5t65.5 -81.5l-130 -90q-29 57 -71 80z
M264.5 471q9.5 -13 30.5 -24l26 123q-32 -8 -49 -25.5t-17 -41.5q0 -19 9.5 -32zM338 133q31 10 49 29.5t18 45.5q0 17 -10 29t-30 22z" />
    <glyph glyph-name="dong" unicode="&#x20ab;" horiz-adv-x="486" 
d="M555 636l-21 -97h-48l-90 -423h-109v27q-35 -38 -104 -38q-63 0 -104 43t-41 120q0 63 24.5 116.5t75 86t123.5 32.5q27 0 45.5 -5.5t36.5 -17.5l12 59h-109l21 97h109l11 54h131l-11 -54h48zM291 233l30 143q-17 16 -49 16q-49 0 -74.5 -33t-25.5 -76q0 -29 17 -48
t48 -19t54 17zM372 0h-392l16 77h392z" />
    <glyph glyph-name="Euro" unicode="&#x20ac;" horiz-adv-x="696" 
d="M467 149q38 21 66 58l108 -101q-52 -61 -116 -90.5t-159 -29.5q-116 0 -184.5 57t-81.5 167h-87l24 112h63q1 23 6 46h-59l24 113h70q47 103 136.5 163t212.5 60q190 0 250 -125l-136 -89q-34 72 -129 72q-46 0 -84 -21.5t-67 -59.5h207l-50 -113h-211q-6 -23 -9 -46h200
l-50 -112h-147q13 -41 43 -61.5t76 -20.5t84 21z" />
    <glyph glyph-name="florin" unicode="&#x192;" horiz-adv-x="378" 
d="M-73.5 -201.5q-15.5 2.5 -34.5 8.5l27 129q21 -10 45 -10q61 0 73 61l75 354h-69l28 129h69l19 90q20 96 73.5 140t149.5 44q29 0 46.5 -3.5t38.5 -12.5l-28 -129q-28 15 -57 15q-61 0 -73 -61l-17 -83h116l-28 -129h-116l-77 -361q-20 -98 -70.5 -141t-148.5 -43
q-26 0 -41.5 2.5z" />
    <glyph glyph-name="uni20BA" unicode="&#x20ba;" horiz-adv-x="609" 
d="M596 299q-23 -109 -59.5 -172.5t-106 -95t-187.5 -31.5h-206l16 76l-76 -41l29 139l77 41l11 55l-76 -41l30 139l76 41l59 281h161l-39 -183l147 80l-29 -139l-147 -80l-12 -55l147 79l-29 -138l-148 -80l-6 -29h44q66 0 112 40t62 114h150z" />
    <glyph glyph-name="sterling" unicode="&#xa3;" horiz-adv-x="567" 
d="M242 243q-8 -38 -23.5 -58t-43.5 -40h337l-31 -145h-513l31 145q68 26 86 111l1 7h-62l26 123h62l19 89q16 77 46.5 126.5t86 76t144.5 26.5q172 0 212 -149l-146 -72q-11 37 -30.5 56.5t-53.5 19.5q-40 0 -66 -24t-35 -69l-17 -80h186l-26 -123h-186z" />
    <glyph glyph-name="yen" unicode="&#xa5;" horiz-adv-x="635" 
d="M541 690h178l-210 -267h96l-27 -123h-166l-12 -57h146l-26 -122h-146l-25 -121h-161l25 121h-145l26 122h145l12 57h-165l27 123h94l-97 267h168l79 -251z" />
    <glyph glyph-name="uni2219" unicode="&#x2219;" horiz-adv-x="498" 
d="M169.5 242.5q-40.5 40.5 -40.5 102.5t40.5 102.5t102.5 40.5t102.5 -40.5t40.5 -102.5t-40.5 -102.5t-102.5 -40.5t-102.5 40.5z" />
    <glyph glyph-name="uni2215" unicode="&#x2215;" horiz-adv-x="498" 
d="M159 0h-159l387 690h159z" />
    <glyph glyph-name="plus" unicode="+" horiz-adv-x="498" 
d="M285 95h-132l33 153h-153l28 132h153l33 153h132l-33 -153h153l-28 -132h-153z" />
    <glyph glyph-name="minus" unicode="&#x2212;" horiz-adv-x="498" 
d="M471 248h-438l28 132h438z" />
    <glyph glyph-name="multiply" unicode="&#xd7;" horiz-adv-x="498" 
d="M251 221l-153 -128l-80 105l154 124l-97 119l111 91l94 -121l153 126l76 -98l-153 -130l97 -122l-104 -86z" />
    <glyph glyph-name="divide" unicode="&#xf7;" horiz-adv-x="498" 
d="M471 248h-438l28 132h438zM155.5 52.5q-26.5 26.5 -26.5 69.5q0 44 26.5 70t69.5 26t69.5 -26.5t26.5 -69.5t-26.5 -69.5t-69.5 -26.5t-69.5 26.5zM237.5 436.5q-26.5 26.5 -26.5 69.5q0 44 26.5 70t69.5 26t69.5 -26.5t26.5 -69.5t-26.5 -69.5t-69.5 -26.5t-69.5 26.5z
" />
    <glyph glyph-name="equal" unicode="=" horiz-adv-x="498" 
d="M495 363h-438l28 132h438zM446 133h-438l28 132h438z" />
    <glyph glyph-name="notequal" unicode="&#x2260;" horiz-adv-x="498" 
d="M523 495l-28 -132h-117l-68 -98h165l-28 -132h-229l-94 -136l-106 71l45 65h-54l28 132h117l68 98h-165l28 132h229l94 136l106 -71l-45 -65h54z" />
    <glyph glyph-name="greater" unicode="&#x3e;" horiz-adv-x="498" 
d="M471 252l-482 -213l32 150l326 132l-270 133l28 135l393 -215z" />
    <glyph glyph-name="less" unicode="&#x3c;" horiz-adv-x="498" 
d="M454 174l-28 -135l-393 215l27 122l482 213l-32 -150l-326 -132z" />
    <glyph glyph-name="greaterequal" unicode="&#x2265;" horiz-adv-x="498" 
d="M483 305l-470 -151l30 141l270 76l-238 76l28 129l405 -153zM418 0h-438l28 132h438z" />
    <glyph glyph-name="lessequal" unicode="&#x2264;" horiz-adv-x="498" 
d="M478 283l-28 -129l-405 153l25 118l470 151l-30 -141l-270 -76zM418 0h-438l28 132h438z" />
    <glyph glyph-name="plusminus" unicode="&#xb1;" horiz-adv-x="498" 
d="M301 171h-132l23 108h-153l28 132h153l23 108h132l-23 -108h153l-28 -132h-153zM418 0h-438l28 132h438z" />
    <glyph glyph-name="approxequal" unicode="&#x2248;" horiz-adv-x="498" 
d="M320.5 336.5q-21.5 6.5 -53.5 19.5q-26 11 -40.5 15.5t-31.5 4.5q-21 0 -37.5 -9t-36.5 -31l-56 78q48 78 129 78q35 0 58.5 -7t53.5 -21q20 -10 34 -14.5t30 -4.5q29 0 48 11t42 37l46 -86q-21 -43 -51.5 -60t-82.5 -17q-30 0 -51.5 6.5zM278.5 136.5
q-21.5 6.5 -53.5 19.5q-26 11 -40.5 15.5t-31.5 4.5q-21 0 -37.5 -9t-36.5 -31l-56 78q48 78 129 78q35 0 58.5 -7t53.5 -21q20 -10 34 -14.5t30 -4.5q29 0 48 11t42 37l46 -86q-21 -43 -51.5 -60t-82.5 -17q-30 0 -51.5 6.5z" />
    <glyph glyph-name="asciitilde" unicode="~" horiz-adv-x="498" 
d="M300.5 239.5q-21.5 6.5 -53.5 19.5q-26 11 -40.5 15.5t-31.5 4.5q-21 0 -37.5 -9t-36.5 -31l-56 78q48 78 129 78q35 0 58.5 -7t53.5 -21q20 -10 34 -14.5t30 -4.5q29 0 48 11t42 37l46 -86q-21 -43 -51.5 -60t-82.5 -17q-30 0 -51.5 6.5z" />
    <glyph glyph-name="logicalnot" unicode="&#xac;" horiz-adv-x="498" 
d="M443 115h-132l28 133h-306l28 132h438z" />
    <glyph glyph-name="asciicircum" unicode="^" horiz-adv-x="498" 
d="M234 428h-143l189 262h132l77 -262h-126l-34 150z" />
    <glyph glyph-name="infinity" unicode="&#x221e;" horiz-adv-x="677" 
d="M84 220.5q-43 45.5 -43 116.5t43 116.5t116 45.5q101 0 160 -85q59 85 160 85q73 0 116 -45.5t43 -116.5t-43 -116.5t-116 -45.5q-101 0 -160 88q-59 -88 -160 -88q-73 0 -116 45.5zM260 279.5q23 16.5 51 57.5q-28 42 -51 58.5t-57 16.5q-29 0 -47.5 -20t-18.5 -55
t18.5 -54.5t47.5 -19.5q34 0 57 16.5zM565 282.5q18 19.5 18 54.5t-18 55t-47 20q-34 0 -57.5 -16.5t-51.5 -58.5q28 -41 51 -57.5t58 -16.5q29 0 47 19.5z" />
    <glyph glyph-name="integral" unicode="&#x222b;" horiz-adv-x="498" 
d="M-16 -196l23 132q23 -10 46 -10q31 0 48.5 16.5t22.5 44.5l101 573q16 94 74 139t148 45q26 0 42 -3t37 -10l-23 -132q-29 15 -56 15q-30 0 -48 -17t-23 -44l-101 -573q-17 -97 -68.5 -140.5t-148.5 -43.5q-46 0 -74 8z" />
    <glyph glyph-name="Omega" unicode="&#x2126;" horiz-adv-x="711" 
d="M2 0l31 145h120l3 16q-43 30 -68 81t-25 113q0 103 48 182.5t134 123t197 43.5q87 0 150 -30t96.5 -85.5t33.5 -129.5q0 -99 -52 -177.5t-136 -120.5l-3 -16h105l-31 -145h-267l45 209q50 15 89.5 48.5t61 78t21.5 89.5q0 63 -34 98.5t-99 35.5q-62 0 -107 -25.5
t-68.5 -70.5t-23.5 -102q0 -56 23 -95t67 -57l-45 -209h-266z" />
    <glyph glyph-name="Delta" unicode="&#x2206;" horiz-adv-x="660" 
d="M575 0h-590l30 142l323 548h176l91 -548zM396 520l-208 -378h256z" />
    <glyph glyph-name="product" unicode="&#x220f;" horiz-adv-x="716" 
d="M780 690l-31 -145h-81l-139 -655h-161l139 655h-167l-139 -655h-161l139 655h-80l31 145h650z" />
    <glyph glyph-name="summation" unicode="&#x2211;" horiz-adv-x="596" 
d="M468 -110h-485l29 136l254 278l-129 250l29 136h461l-31 -145h-271l123 -261l-224 -249h275z" />
    <glyph glyph-name="radical" unicode="&#x221a;" horiz-adv-x="650" 
d="M363 0h-185l-32 279h-107l28 132h215l14 -248l266 527h170z" />
    <glyph glyph-name="mu" unicode="&#xb5;" horiz-adv-x="555" 
d="M-31 -190l140 660h152l-62 -290q-2 -12 -2 -18q0 -22 13 -34t35 -12q26 0 48 14t37 35l65 305h152l-100 -470h-138v66q-25 -40 -56.5 -60t-88.5 -20h-6l-37 -176h-152z" />
    <glyph glyph-name="partialdiff" unicode="&#x2202;" horiz-adv-x="575" 
d="M88.5 38.5q-56.5 52.5 -56.5 146.5q0 69 29.5 128.5t87 95t138.5 35.5q37 0 65 -8t42 -23q-2 63 -44 125t-120 99l112 96q98 -52 153 -143.5t55 -239.5q0 -100 -31.5 -182t-101 -132t-179.5 -50q-93 0 -149.5 52.5zM338.5 156q32.5 40 42.5 118q-9 19 -30.5 30.5
t-51.5 11.5q-34 0 -59.5 -17.5t-39 -46t-13.5 -58.5q0 -36 20 -57t53 -21q46 0 78.5 40z" />
    <glyph glyph-name="percent" unicode="%" horiz-adv-x="767" 
d="M122.5 390.5q-33.5 32.5 -33.5 95.5q0 60 21 110t61.5 79t95.5 29q62 0 95.5 -32.5t33.5 -94.5q0 -60 -21 -110t-61.5 -79.5t-95.5 -29.5q-62 0 -95.5 32.5zM208 0h-135l532 690h135zM275 484.5q19 40.5 19 83.5q0 25 -8.5 38t-24.5 13q-31 0 -50.5 -41.5t-19.5 -84.5
q0 -23 9 -36t24 -13q32 0 51 40.5zM451.5 18.5q-33.5 32.5 -33.5 95.5q0 60 21 110t61.5 79t95.5 29q62 0 95.5 -32.5t33.5 -94.5q0 -60 -21 -110t-61.5 -79.5t-95.5 -29.5q-62 0 -95.5 32.5zM604 112.5q19 40.5 19 83.5q0 25 -8.5 38t-24.5 13q-31 0 -50.5 -41.5
t-19.5 -84.5q0 -23 9 -36t24 -13q32 0 51 40.5z" />
    <glyph glyph-name="perthousand" unicode="&#x2030;" horiz-adv-x="1092" 
d="M122.5 390.5q-33.5 32.5 -33.5 95.5q0 60 21 110t61.5 79t95.5 29q62 0 95.5 -32.5t33.5 -94.5q0 -60 -21 -110t-61.5 -79.5t-95.5 -29.5q-62 0 -95.5 32.5zM208 0h-135l532 690h135zM275 484.5q19 40.5 19 83.5q0 25 -8.5 38t-24.5 13q-31 0 -50.5 -41.5t-19.5 -84.5
q0 -23 9 -36t24 -13q32 0 51 40.5zM451.5 18.5q-33.5 32.5 -33.5 95.5q0 60 21 110t61.5 79t95.5 29q62 0 95.5 -32.5t33.5 -94.5q0 -60 -21 -110t-61.5 -79.5t-95.5 -29.5q-62 0 -95.5 32.5zM776.5 18.5q-33.5 32.5 -33.5 95.5q0 60 21 110t61.5 79t95.5 29
q62 0 95.5 -32.5t33.5 -94.5q0 -60 -21 -110t-61.5 -79.5t-95.5 -29.5q-62 0 -95.5 32.5zM604 112.5q19 40.5 19 83.5q0 25 -8.5 38t-24.5 13q-31 0 -50.5 -41.5t-19.5 -84.5q0 -23 9 -36t24 -13q32 0 51 40.5zM929 112.5q19 40.5 19 83.5q0 25 -8.5 38t-24.5 13
q-31 0 -50.5 -41.5t-19.5 -84.5q0 -23 9 -36t24 -13q32 0 51 40.5z" />
    <glyph glyph-name="arrowup" unicode="&#x2191;" horiz-adv-x="636" 
d="M357 636l229 -219l-110 -93l-92 126v-396h-132v395l-91 -125l-111 93l230 219h77z" />
    <glyph glyph-name="uni2197" unicode="&#x2197;" horiz-adv-x="585" 
d="M163 588h318l54 -54v-318h-136l24 166l-279 -279l-94 93l280 280l-167 -24v136z" />
    <glyph glyph-name="arrowright" unicode="&#x2192;" horiz-adv-x="682" 
d="M320 503l93 110l219 -230v-76l-219 -230l-93 111l125 91h-395v132h396z" />
    <glyph glyph-name="uni2198" unicode="&#x2198;" horiz-adv-x="585" 
d="M423 308l-24 166h136v-317l-54 -54h-318v136l167 -24l-280 279l94 94z" />
    <glyph glyph-name="arrowdown" unicode="&#x2193;" horiz-adv-x="636" 
d="M384 241l92 126l110 -93l-229 -220h-77l-230 220l111 93l91 -126v395h132v-395z" />
    <glyph glyph-name="uni2199" unicode="&#x2199;" horiz-adv-x="585" 
d="M442 588l93 -94l-280 -279l167 24v-136h-318l-54 54v317h137l-24 -167z" />
    <glyph glyph-name="arrowleft" unicode="&#x2190;" horiz-adv-x="682" 
d="M237 411h395v-132h-395l126 -91l-93 -111l-220 230v76l220 230l93 -110z" />
    <glyph glyph-name="uni2196" unicode="&#x2196;" horiz-adv-x="585" 
d="M255 476l280 -280l-93 -93l-279 280l24 -167h-137v318l54 54h318v-136z" />
    <glyph glyph-name="arrowboth" unicode="&#x2194;" horiz-adv-x="862" 
d="M363 188l-93 -111l-220 230v76l220 230l93 -110l-125 -92h387l-125 92l93 110l219 -230v-76l-219 -230l-93 111l125 91h-387z" />
    <glyph glyph-name="arrowupdn" unicode="&#x2195;" horiz-adv-x="636" 
d="M357 0h-77l-230 220l111 93l91 -125v315l-91 -125l-111 93l230 219h77l229 -219l-110 -93l-92 125v-315l92 125l110 -93z" />
    <glyph glyph-name="lozenge" unicode="&#x25ca;" horiz-adv-x="619" 
d="M344 0h-169l-131 345l277 345h169l131 -345zM211 335l73 -191l171 216l-71 188z" />
    <glyph glyph-name="H22073" unicode="&#x25a1;" horiz-adv-x="590" 
d="M520 120h-450v450h450v-450zM179 469v-248h232v248h-232z" />
    <glyph glyph-name="uni2501" unicode="&#x2501;" horiz-adv-x="566" 
d="M548 258h-530v174h530v-174z" />
    <glyph glyph-name="uni253B" unicode="&#x253b;" horiz-adv-x="681" 
d="M655 258h-630v174h225v298h180v-298h225v-174z" />
    <glyph glyph-name="uni256F" unicode="&#x256f;" horiz-adv-x="427" 
d="M30 285v120h179q29 0 45 15.5t16 44.5v265h126v-263q0 -91 -49 -136.5t-138 -45.5h-179z" />
    <glyph glyph-name="SF060000" unicode="&#x252c;" horiz-adv-x="680" 
d="M430 -40h-180v298h-225v174h630v-174h-225v-298z" />
    <glyph glyph-name="SF100000" unicode="&#x2500;" horiz-adv-x="566" 
d="M548 258h-530v174h530v-174z" />
    <glyph glyph-name="at" unicode="@" horiz-adv-x="927" 
d="M741 499l-89 -254q-4 -14 -4 -18q0 -21 27 -21q30 0 58.5 26.5t46.5 71.5t18 96q0 99 -68 157t-190 58q-105 0 -187.5 -50t-128.5 -134t-46 -181q0 -120 66 -192t185 -72q89 0 138.5 15.5t99.5 44.5l44 -108q-64 -38 -126 -54t-157 -16q-121 0 -207 45t-131 128.5
t-45 195.5q0 138 62 251t180 179.5t279 66.5q114 0 194.5 -39.5t122.5 -111t42 -164.5q0 -86 -32 -160.5t-94 -120t-147 -45.5q-50 0 -80 20t-38 54q-18 -34 -55 -54t-82 -20q-65 0 -103.5 39.5t-38.5 118.5q0 68 29.5 128t85 97t130.5 37q42 0 70 -15.5t41 -38.5l26 40h104
zM500.5 227.5q25.5 21.5 39.5 54.5t14 65q0 25 -13.5 39.5t-38.5 14.5q-35 0 -61 -20.5t-40 -51.5t-14 -63q0 -28 14.5 -44t43.5 -16q30 0 55.5 21.5z" />
    <glyph glyph-name="ampersand" unicode="&#x26;" horiz-adv-x="646" 
d="M665 377q-57 -142 -132 -227q33 -75 49 -150h-174q-2 14 -8 32q-39 -26 -80 -36t-101 -10t-105.5 24t-70.5 66.5t-25 95.5q0 87 46.5 147t131.5 87q-34 58 -34 109q0 54 25.5 97t75.5 67.5t120 24.5q84 0 133.5 -34t61.5 -97l-140 -49q-5 32 -21.5 49.5t-42.5 17.5
q-30 0 -48 -17.5t-18 -49.5q0 -49 51 -103q60 -63 109 -145q33 52 72 140zM306.5 121q24.5 10 52.5 34q-36 86 -92 160q-48 -15 -75 -45.5t-27 -69.5t24 -64t60 -25q33 0 57.5 10z" />
    <glyph glyph-name="paragraph" unicode="&#xb6;" horiz-adv-x="722" 
d="M212 -110l86 403h-39q-50 0 -90 20.5t-63.5 58.5t-23.5 89q0 102 61.5 165.5t179.5 63.5h211l-170 -800h-152zM584 -110h-151l170 800h151z" />
    <glyph glyph-name="section" unicode="&#xa7;" horiz-adv-x="535" 
d="M447.5 429.5q33.5 -16.5 53.5 -48t20 -83.5q0 -87 -84 -139q22 -33 22 -78q0 -96 -65.5 -151t-193.5 -55q-98 0 -152 37.5t-71 97.5l131 69q12 -33 38 -53t62 -20q41 0 65 14.5t24 39.5q0 22 -22.5 34.5t-76.5 22.5q-77 15 -121 53t-44 113q0 43 22.5 79.5t63.5 59.5
q-20 34 -20 79q0 96 64 149.5t195 53.5q92 0 147.5 -38t72.5 -98l-136 -67q-17 37 -41.5 55t-54.5 18q-42 0 -63.5 -15t-21.5 -37t23 -36t76 -27q54 -13 87.5 -29.5zM348 228q15 20 15 42q0 26 -28.5 41t-83.5 26q-22 4 -46 14q-10 -15 -10 -34q0 -29 25 -46t74 -27
q33 -7 54 -16z" />
    <glyph glyph-name="copyright" unicode="&#xa9;" horiz-adv-x="811" 
d="M251 30.5q-80 44.5 -126 126t-46 188.5t46 188.5t126 126t178 44.5t178 -44.5t126 -126t46 -188.5t-46 -188.5t-126 -126t-178 -44.5t-178 44.5zM561 105.5q59 34.5 93 96.5t34 143t-34 143.5t-93 96.5t-132 34q-72 0 -131.5 -34t-93.5 -96.5t-34 -143.5t34 -143
t93.5 -96.5t131.5 -34.5q73 0 132 34.5zM335 171.5q-43 23.5 -67.5 68t-24.5 105.5t25.5 105.5t68.5 68t96 23.5q58 0 100.5 -23.5t62.5 -67.5l-64 -41q-18 30 -39.5 44t-56.5 14q-47 0 -77.5 -32.5t-30.5 -90.5t30.5 -90t75.5 -32q40 0 63 16.5t42 48.5l64 -41
q-28 -48 -72 -73.5t-100 -25.5q-53 0 -96 23.5z" />
    <glyph glyph-name="registered" unicode="&#xae;" horiz-adv-x="463" 
d="M388 679.5q44 -24.5 69.5 -70t25.5 -104.5t-25.5 -104.5t-69.5 -70t-99 -24.5t-99 24.5t-69.5 70t-25.5 104.5t25.5 104.5t69.5 70t99 24.5t99 -24.5zM398.5 388q42.5 43 42.5 117t-42.5 117t-109.5 43t-109.5 -43t-42.5 -117t42.5 -117t109.5 -43t109.5 43zM362 512.5
q-10 -14.5 -27 -21.5l35 -79h-36l-33 74h-43v-74h-32v195h80q30 0 48 -16t18 -45q0 -19 -10 -33.5zM307 518q15 0 24.5 7t9.5 21t-9.5 21.5t-24.5 7.5h-49v-57h49z" />
    <glyph glyph-name="uni2117" unicode="&#x2117;" horiz-adv-x="463" 
d="M190 330.5q-44 24.5 -69.5 70t-25.5 104.5t25.5 104.5t69.5 70t99 24.5t99 -24.5t69.5 -70t25.5 -104.5t-25.5 -104.5t-69.5 -70t-99 -24.5t-99 24.5zM398.5 388q42.5 43 42.5 117t-42.5 117t-109.5 43t-109.5 -43t-42.5 -117t42.5 -117t109.5 -43t109.5 43zM226 412v195
h80q32 0 49 -17t17 -48t-17 -47.5t-48 -16.5h-49v-66h-32zM307 510q14 0 24 9t10 23q0 15 -9.5 24t-24.5 9h-49v-65h49z" />
    <glyph glyph-name="trademark" unicode="&#x2122;" horiz-adv-x="576" 
d="M338 690l-14 -69h-72l-44 -207h-76l44 207h-72l14 69h220zM470 551l57 139h113l-44 -276h-78l33 180l-60 -143h-77v143l-42 -180h-78l72 276h107z" />
    <glyph glyph-name="degree" unicode="&#xb0;" horiz-adv-x="450" 
d="M93.5 395.5q-50.5 49.5 -50.5 129.5t50.5 129.5t131.5 49.5t131.5 -49.5t50.5 -129.5t-50.5 -129.5t-131.5 -49.5t-131.5 49.5zM272.5 474q18.5 19 18.5 51t-19 51.5t-47 19.5t-47 -19.5t-19 -51.5t19 -51t47 -19q29 0 47.5 19z" />
    <glyph glyph-name="bar" unicode="|" horiz-adv-x="253" 
d="M124 -110h-142l194 910h142z" />
    <glyph glyph-name="brokenbar" unicode="&#xa6;" horiz-adv-x="253" 
d="M243 450h-142l75 350h142zM124 -110h-142l75 350h142z" />
    <glyph glyph-name="dagger" unicode="&#x2020;" horiz-adv-x="362" 
d="M312 612h86l-20 -95h-86l-52 -245h-102l52 245h-86l20 95h86l16 78h102z" />
    <glyph glyph-name="uni2113" unicode="&#x2113;" horiz-adv-x="527" 
d="M354.5 112.5q19.5 16.5 36.5 51.5l89 -75q-29 -49 -72.5 -76t-115.5 -27q-77 0 -124.5 50t-56.5 143l-53 -21l-45 114q33 12 100 40q9 119 41.5 207.5t85.5 136.5t120 48q69 0 101.5 -34t32.5 -104q0 -95 -61 -175t-192 -151v-22q0 -122 64 -122q30 0 49.5 16.5z
M296.5 543q-27.5 -56 -42.5 -151q62 44 90.5 90t28.5 90q0 27 -20 27q-29 0 -56.5 -56z" />
    <glyph glyph-name="daggerdbl" unicode="&#x2021;" horiz-adv-x="363" 
d="M241 272h-102l16 78h-86l20 95h86l16 72h-86l20 95h86l16 78h102l-16 -78h86l-20 -95h-86l-16 -72h86l-20 -95h-86z" />
    <glyph glyph-name="estimated" unicode="&#x212e;" horiz-adv-x="774" 
d="M230.5 29q-78.5 43 -122.5 124.5t-44 191.5t44 191.5t122.5 124.5t179.5 43t179.5 -43t122.5 -124t44 -192h-506v-244q66 -49 160 -49q100 0 169.5 49.5t95.5 139.5h70q-28 -121 -117.5 -188t-217.5 -67q-101 0 -179.5 43zM250 411h319v179q-67 48 -159 48
q-94 0 -160 -49v-178z" />
    <glyph glyph-name="uni2120" unicode="&#x2120;" horiz-adv-x="579" 
d="M66 462l61 45q8 -16 22 -24t29 -8t25 5.5t10 14.5q0 11 -9.5 17t-37.5 15q-60 19 -60 76q0 41 33 67t84 26q38 0 61 -15.5t33 -38.5l-58 -39q-9 14 -21 22t-23 8q-16 0 -23.5 -6.5t-7.5 -15.5t11 -15t38 -14q30 -9 45.5 -26t15.5 -52q0 -42 -30 -69t-86 -27
q-81 0 -112 54zM375 414h-78l72 276h107l-3 -139l57 139h113l-44 -276h-78l33 180l-60 -143h-77v143z" />
    <glyph glyph-name="uni02C9" unicode="&#x2c9;" horiz-adv-x="309" 
d="M364 573h-275l26 125h275z" />
    <glyph glyph-name="uni0308" unicode="&#x308;" 
d="M-294.5 575.5q-19.5 19.5 -19.5 54.5t19.5 55t55.5 20q35 0 54.5 -20t19.5 -55t-19.5 -54.5t-54.5 -19.5q-36 0 -55.5 19.5zM-106 575.5q-20 19.5 -20 54.5t20 55t55 20t55 -20t20 -55t-20 -54.5t-55 -19.5t-55 19.5z" />
    <glyph glyph-name="uni0308_gravecomb.ccmp" 
d="M-293.5 575.5q-19.5 19.5 -19.5 54.5t19.5 55t55.5 20q35 0 54.5 -20t19.5 -55t-19.5 -54.5t-54.5 -19.5q-36 0 -55.5 19.5zM-105 575.5q-20 19.5 -20 54.5t20 55t55 20t55 -20t20 -55t-20 -54.5t-55 -19.5t-55 19.5zM-79 730h-118l-86 144h173z" />
    <glyph glyph-name="uni0308_acutecomb.ccmp" 
d="M-293.5 575.5q-19.5 19.5 -19.5 54.5t19.5 55t55.5 20q35 0 54.5 -20t19.5 -55t-19.5 -54.5t-54.5 -19.5q-36 0 -55.5 19.5zM-105 575.5q-20 19.5 -20 54.5t20 55t55 20t55 -20t20 -55t-20 -54.5t-55 -19.5t-55 19.5zM-65 730h-125l86 144h177z" />
    <glyph glyph-name="uni0308_uni030C.ccmp" 
d="M-293.5 575.5q-19.5 19.5 -19.5 54.5t19.5 55t55.5 20q35 0 54.5 -20t19.5 -55t-19.5 -54.5t-54.5 -19.5q-36 0 -55.5 19.5zM-105 575.5q-20 19.5 -20 54.5t20 55t55 20t55 -20t20 -55t-20 -54.5t-55 -19.5t-55 19.5zM-82 730h-96l-83 144h108l36 -55l56 55h119z" />
    <glyph glyph-name="uni0308_uni0304.ccmp" 
d="M-294.5 575.5q-19.5 19.5 -19.5 54.5t19.5 55t55.5 20q35 0 54.5 -20t19.5 -55t-19.5 -54.5t-54.5 -19.5q-36 0 -55.5 19.5zM-106 575.5q-20 19.5 -20 54.5t20 55t55 20t55 -20t20 -55t-20 -54.5t-55 -19.5t-55 19.5zM12 741h-267l24 109h267z" />
    <glyph glyph-name="uni0307" unicode="&#x307;" 
d="M-117 561q-24 24 -24 65t24 65.5t66 24.5t65.5 -24t23.5 -66q0 -41 -23.5 -65t-65.5 -24t-66 24z" />
    <glyph glyph-name="gravecomb" unicode="&#x300;" 
d="M49 546h-118l-86 144h173z" />
    <glyph glyph-name="acutecomb" unicode="&#x301;" 
d="M-59 546h-125l86 144h177z" />
    <glyph glyph-name="uni030B" unicode="&#x30b;" 
d="M-229 546h-109l68 144h147zM-30 546h-109l68 144h148z" />
    <glyph glyph-name="glyph583" 
d="M-195 464q40 19 65.5 36t37.5 37q-26 0 -45.5 21t-19.5 52q0 38 26 63t65 25q36 0 56 -21.5t20 -65.5q0 -66 -38 -114.5t-106 -94.5z" />
    <glyph glyph-name="uni0302" unicode="&#x302;" 
d="M-136 546h-119l140 144h96l83 -144h-108l-36 55z" />
    <glyph glyph-name="uni030C" unicode="&#x30c;" 
d="M-45 546h-96l-83 144h108l36 -55l56 55h119z" />
    <glyph glyph-name="uni0306" unicode="&#x306;" 
d="M-179 577q-36 31 -36 82q0 15 3 31h100q-2 -10 -2 -15q0 -19 10 -30.5t27 -11.5q23 0 38 15.5t20 41.5h100q-15 -74 -53.5 -109t-106.5 -35q-64 0 -100 31z" />
    <glyph glyph-name="uni030A" unicode="&#x30a;" 
d="M-116.5 555q-23.5 23 -23.5 58q0 50 32 82.5t88 32.5q39 0 62.5 -23t23.5 -58q0 -50 -32 -82.5t-88 -32.5q-39 0 -62.5 23zM-14 606.5q11 13.5 11 32.5q0 12 -7 20t-19 8q-20 0 -30.5 -13.5t-10.5 -32.5q0 -12 6.5 -20t18.5 -8q20 0 31 13.5z" />
    <glyph glyph-name="tildecomb" unicode="&#x303;" 
d="M-87.5 578.5q-16.5 5.5 -35.5 15.5q-2 1 -16 7.5t-27 6.5t-29.5 -8t-31.5 -25l-61 53q42 76 124 76q23 0 39 -4.5t33 -12.5q13 -7 22.5 -10t22.5 -3q33 0 62 33l48 -67q-23 -36 -47 -51.5t-65 -15.5q-22 0 -38.5 5.5z" />
    <glyph glyph-name="uni0304" unicode="&#x304;" 
d="M61 581h-267l24 109h267z" />
    <glyph glyph-name="hookabovecomb" unicode="&#x309;" 
d="M-55 566q20 20 20 36q0 9 -6 14t-17 5q-16 0 -33 -10l-24 72q16 10 40.5 17t51.5 7q49 0 73 -21t24 -58t-18.5 -61.5t-58.5 -43.5z" />
    <glyph glyph-name="uni0312" unicode="&#x312;" 
d="M-89 550.5q-15 14.5 -15 41.5q0 32 17.5 57t44 38.5t52.5 13.5l28 -48q-43 -6 -64 -19q18 -1 29.5 -14t11.5 -32q0 -24 -16.5 -38t-47.5 -14q-25 0 -40 14.5z" />
    <glyph glyph-name="uni031B" unicode="&#x31b;" 
d="M-188 358l24 112h20q31 0 50.5 17t27.5 54l13 59h126l-17 -75q-15 -66 -37 -101.5t-62.5 -50.5t-114.5 -15h-30z" />
    <glyph glyph-name="dotbelowcomb" unicode="&#x323;" 
d="M-267 -175q-21 21 -21 58q0 36 21 57t58 21q36 0 57 -21t21 -57q0 -37 -21 -58t-57 -21q-37 0 -58 21z" />
    <glyph glyph-name="uni0324" unicode="&#x324;" 
d="M-452.5 -170q-19.5 20 -19.5 55t19.5 55t55.5 20q35 0 54.5 -20t19.5 -55t-19.5 -55t-54.5 -20q-36 0 -55.5 20zM-264 -170q-20 20 -20 55t20 55t55 20t55 -20t20 -55t-20 -55t-55 -20t-55 20z" />
    <glyph glyph-name="uni0326" unicode="&#x326;" 
d="M-312 -166q42 4 61 18q-19 0 -30 11.5t-11 28.5q0 27 20.5 42.5t52.5 15.5q29 0 44 -15t15 -43q0 -88 -129 -107z" />
    <glyph glyph-name="uni0327" unicode="&#x327;" 
d="M-170 -48q39 0 60.5 -18t21.5 -53q0 -96 -126 -96q-28 0 -48 3t-39 11l30 70q27 -12 55 -12q13 0 21 4.5t8 13.5q0 17 -22 17q-6 0 -13 -1.5t-12 -4.5l-39 34l55 80h93z" />
    <glyph glyph-name="uni0328" unicode="&#x328;" 
d="M-214 -172q-22 24 -22 65t26 76.5t72 49.5l77 -19q-28 -17 -48 -40t-20 -42q0 -11 6 -17t15 -6q11 0 23 6v-85q-20 -12 -68 -12q-39 0 -61 24z" />
    <glyph glyph-name="uni032E" unicode="&#x32e;" 
d="M-330 -165.5q-31 30.5 -31 80.5q0 19 4 36h81q-3 -14 -3 -24q0 -20 10.5 -31.5t30.5 -11.5q26 0 43 18t23 49h84q-15 -78 -50 -112.5t-107 -34.5q-54 0 -85 30.5z" />
    <glyph glyph-name="uni0331" unicode="&#x331;" 
d="M-97 -153h-263l20 98h263z" />
    <glyph glyph-name="dieresis" unicode="&#xa8;" horiz-adv-x="457" 
d="M162.5 575.5q-19.5 19.5 -19.5 54.5t19.5 55t55.5 20q35 0 54.5 -20t19.5 -55t-19.5 -54.5t-54.5 -19.5q-36 0 -55.5 19.5zM351 575.5q-20 19.5 -20 54.5t20 55t55 20t55 -20t20 -55t-20 -54.5t-55 -19.5t-55 19.5z" />
    <glyph glyph-name="dotaccent" unicode="&#x2d9;" horiz-adv-x="269" 
d="M152 561q-24 24 -24 65t24 65.5t66 24.5t65.5 -24t23.5 -66q0 -41 -23.5 -65t-65.5 -24t-66 24z" />
    <glyph glyph-name="grave" unicode="`" horiz-adv-x="315" 
d="M341 546h-118l-86 144h173z" />
    <glyph glyph-name="acute" unicode="&#xb4;" horiz-adv-x="268" 
d="M209 546h-125l86 144h177z" />
    <glyph glyph-name="hungarumlaut" unicode="&#x2dd;" horiz-adv-x="424" 
d="M195 546h-109l68 144h147zM394 546h-109l68 144h148z" />
    <glyph glyph-name="circumflex" unicode="&#x2c6;" horiz-adv-x="323" 
d="M187 546h-119l140 144h96l83 -144h-108l-36 55z" />
    <glyph glyph-name="caron" unicode="&#x2c7;" horiz-adv-x="323" 
d="M278 546h-96l-83 144h108l36 -55l56 55h119z" />
    <glyph glyph-name="breve" unicode="&#x2d8;" horiz-adv-x="324" 
d="M146 577q-36 31 -36 82q0 15 3 31h100q-2 -10 -2 -15q0 -19 10 -30.5t27 -11.5q23 0 38 15.5t20 41.5h100q-15 -74 -53.5 -109t-106.5 -35q-64 0 -100 31z" />
    <glyph glyph-name="ring" unicode="&#x2da;" horiz-adv-x="242" 
d="M125.5 555q-23.5 23 -23.5 58q0 50 32 82.5t88 32.5q39 0 62.5 -23t23.5 -58q0 -50 -32 -82.5t-88 -32.5q-39 0 -62.5 23zM228 606.5q11 13.5 11 32.5q0 12 -7 20t-19 8q-20 0 -30.5 -13.5t-10.5 -32.5q0 -12 6.5 -20t18.5 -8q20 0 31 13.5z" />
    <glyph glyph-name="tilde" unicode="&#x2dc;" horiz-adv-x="395" 
d="M307.5 578.5q-16.5 5.5 -35.5 15.5q-2 1 -16 7.5t-27 6.5t-29.5 -8t-31.5 -25l-61 53q42 76 124 76q23 0 39 -4.5t33 -12.5q13 -7 22.5 -10t22.5 -3q33 0 62 33l48 -67q-23 -36 -47 -51.5t-65 -15.5q-22 0 -38.5 5.5z" />
    <glyph glyph-name="macron" unicode="&#xaf;" horiz-adv-x="309" 
d="M364 573h-275l26 125h275z" />
    <glyph glyph-name="cedilla" unicode="&#xb8;" horiz-adv-x="222" 
d="M50 -48q39 0 60.5 -18t21.5 -53q0 -96 -126 -96q-28 0 -48 3t-39 11l30 70q27 -12 55 -12q13 0 21 4.5t8 13.5q0 17 -22 17q-6 0 -13 -1.5t-12 -4.5l-39 34l55 80h93z" />
    <glyph glyph-name="ogonek" unicode="&#x2db;" horiz-adv-x="179" 
d="M-35 -172q-22 24 -22 65t26 76.5t72 49.5l77 -19q-28 -17 -48 -40t-20 -42q0 -11 6 -17t15 -6q11 0 23 6v-85q-20 -12 -68 -12q-39 0 -61 24z" />
    <glyph glyph-name="uni0306_acutecomb.ccmp" 
d="M-178 577q-36 31 -36 82q0 15 3 31h100q-2 -10 -2 -15q0 -19 10 -30.5t27 -11.5q23 0 38 15.5t20 41.5h100q-15 -74 -53.5 -109t-106.5 -35q-64 0 -100 31zM-1 723h-125l86 144h177z" />
    <glyph glyph-name="uni0306_gravecomb.ccmp" 
d="M-178 577q-36 31 -36 82q0 15 3 31h100q-2 -10 -2 -15q0 -19 10 -30.5t27 -11.5q23 0 38 15.5t20 41.5h100q-15 -74 -53.5 -109t-106.5 -35q-64 0 -100 31zM0 723h-118l-86 144h173z" />
    <glyph glyph-name="uni0306_hookabovecomb.ccmp" 
d="M-178 577q-36 31 -36 82q0 15 3 31h100q-2 -10 -2 -15q0 -19 10 -30.5t27 -11.5q23 0 38 15.5t20 41.5h100q-15 -74 -53.5 -109t-106.5 -35q-64 0 -100 31zM-105 740q20 20 20 36q0 9 -6 14t-17 5q-16 0 -33 -10l-24 72q16 10 40.5 17t51.5 7q49 0 73 -21t24 -58
t-18.5 -61.5t-58.5 -43.5z" />
    <glyph glyph-name="uni0306_tildecomb.ccmp" 
d="M-178 577q-36 31 -36 82q0 15 3 31h100q-2 -10 -2 -15q0 -19 10 -30.5t27 -11.5q23 0 38 15.5t20 41.5h100q-15 -74 -53.5 -109t-106.5 -35q-64 0 -100 31zM-17.5 738.5q-16.5 5.5 -35.5 15.5q-2 1 -16 7.5t-27 6.5t-29.5 -8t-31.5 -25l-61 53q42 76 124 76q23 0 39 -4.5
t33 -12.5q13 -7 22.5 -10t22.5 -3q33 0 62 33l48 -67q-23 -36 -47 -51.5t-65 -15.5q-22 0 -38.5 5.5z" />
    <glyph glyph-name="uni0302_acutecomb.ccmp" 
d="M-9 690h-101l66 144h150zM-251 546h-119l140 144h96l83 -144h-108l-36 55z" />
    <glyph glyph-name="uni0302_gravecomb.ccmp" 
d="M91 690h-94l-65 144h141zM-164 546h-119l140 144h96l83 -144h-108l-36 55z" />
    <glyph glyph-name="uni0302_hookabovecomb.ccmp" 
d="M-21 701q9 6 14 15.5t5 16.5q0 19 -23 19q-15 0 -36 -9l-22 71q15 11 39 17.5t51 6.5q50 0 76 -20t26 -58q0 -37 -18.5 -62t-58.5 -48zM-170 546h-119l140 144h96l83 -144h-108l-36 55z" />
    <glyph glyph-name="uni0302_tildecomb.ccmp" 
d="M-226 764q22 40 52.5 59t74.5 19q23 0 39.5 -5t33.5 -13q26 -12 42 -12q20 0 31 6t32 27l43 -67q-18 -37 -43.5 -50.5t-67.5 -13.5q-21 0 -38 5t-37 14q-28 13 -42 13q-18 0 -34 -8t-35 -25zM-136 546h-119l140 144h96l83 -144h-108l-36 55z" />
    </font>
</defs>
</svg>
