<?xml version="1.0" standalone="no"?>
<!DOCTYPE svg PUBLIC "-//W3C//DTD SVG 1.1//EN" "http://www.w3.org/Graphics/SVG/1.1/DTD/svg11.dtd" >
<svg xmlns="http://www.w3.org/2000/svg" xmlns:xlink="http://www.w3.org/1999/xlink" version="1.1">
<metadata>
Created by FontForge 20201107 at Fri Apr  1 07:00:00 2022
 By Unknown
Copyright (c) October 2022 Discord Inc.
</metadata>
<defs>
<font id="ggsans-Semibold" horiz-adv-x="0" >
  <font-face 
    font-family="gg sans SemiBold"
    font-weight="600"
    font-stretch="normal"
    units-per-em="1000"
    panose-1="0 0 7 0 0 0 0 0 0 0"
    ascent="800"
    descent="-200"
    x-height="470"
    cap-height="690"
    bbox="-364 -213 1011 1094"
    underline-thickness="50"
    underline-position="-100"
    unicode-range="U+0020-FB02"
  />
<missing-glyph horiz-adv-x="600" 
 />
    <glyph glyph-name="f_i.liga" unicode="fi" horiz-adv-x="606" 
d="M102 0v376h-84v94h84v111q0 80 42.5 121.5t123.5 41.5q40 0 77 -13v-96q-34 15 -67 15q-37 0 -51.5 -18t-14.5 -52v-110h120v-94h-120v-376h-110zM432 580.5q-18 18.5 -18 48.5q0 31 18 49.5t49 18.5t49.5 -18.5t18.5 -49.5q0 -30 -18.5 -48.5t-49.5 -18.5t-49 18.5z
M536 0h-110v470h110v-470z" />
    <glyph glyph-name="f_l.liga" unicode="fl" horiz-adv-x="641" 
d="M102 0v376h-84v94h84v111q0 80 42.5 121.5t123.5 41.5q40 0 77 -13v-96q-34 15 -67 15q-37 0 -51.5 -18t-14.5 -52v-110h120v-94h-120v-376h-110zM426 134v596h110v-587q0 -31 10.5 -44.5t34.5 -13.5q22 0 34 9v-94q-22 -12 -58 -12q-131 0 -131 146z" />
    <glyph glyph-name=".notdef" horiz-adv-x="600" 
 />
    <glyph glyph-name="glyph1" horiz-adv-x="600" 
 />
    <glyph glyph-name="space" unicode=" " horiz-adv-x="220" 
 />
    <glyph glyph-name="A" unicode="A" horiz-adv-x="678" 
d="M665 0h-126l-55 154h-290l-55 -154h-126l262 690h128zM339 563l-107 -302h214z" />
    <glyph glyph-name="Aacute" unicode="&#xc1;" horiz-adv-x="678" 
d="M665 0h-126l-55 154h-290l-55 -154h-126l262 690h128zM339 563l-107 -302h214zM383 766h-89l69 144h125z" />
    <glyph glyph-name="Abreve" unicode="&#x102;" horiz-adv-x="678" 
d="M665 0h-126l-55 154h-290l-55 -154h-126l262 690h128zM339 563l-107 -302h214zM240 804q-37 38 -37 106h77q0 -34 15 -54t44 -20t44 20t15 54h77q0 -68 -37 -106t-99 -38t-99 38z" />
    <glyph glyph-name="uni1EAE" unicode="&#x1eae;" horiz-adv-x="678" 
d="M665 0h-126l-55 154h-290l-55 -154h-126l262 690h128zM339 563l-107 -302h214zM240 804q-37 38 -37 106h77q0 -34 15 -54t44 -20t44 20t15 54h77q0 -68 -37 -106t-99 -38t-99 38zM383 943h-89l69 144h125z" />
    <glyph glyph-name="uni1EB6" unicode="&#x1eb6;" horiz-adv-x="678" 
d="M665 0h-126l-55 154h-290l-55 -154h-126l262 690h128zM339 563l-107 -302h214zM294 -153q-17 17 -17 45q0 29 17 46t45 17t45 -17t17 -46q0 -28 -17 -45t-45 -17t-45 17zM240 804q-37 38 -37 106h77q0 -34 15 -54t44 -20t44 20t15 54h77q0 -68 -37 -106t-99 -38t-99 38z
" />
    <glyph glyph-name="uni1EB0" unicode="&#x1eb0;" horiz-adv-x="678" 
d="M665 0h-126l-55 154h-290l-55 -154h-126l262 690h128zM339 563l-107 -302h214zM240 804q-37 38 -37 106h77q0 -34 15 -54t44 -20t44 20t15 54h77q0 -68 -37 -106t-99 -38t-99 38zM383 943h-89l-105 144h126z" />
    <glyph glyph-name="uni1EB2" unicode="&#x1eb2;" horiz-adv-x="678" 
d="M665 0h-126l-55 154h-290l-55 -154h-126l262 690h128zM339 563l-107 -302h214zM240 804q-37 38 -37 106h77q0 -34 15 -54t44 -20t44 20t15 54h77q0 -68 -37 -106t-99 -38t-99 38zM336 957q10 21 10 36q0 14 -9 22t-24 8q-21 0 -37 -11l-26 58q14 10 34 17t43 7
q50 0 75.5 -22.5t25.5 -62.5q0 -45 -45 -84z" />
    <glyph glyph-name="uni1EB4" unicode="&#x1eb4;" horiz-adv-x="678" 
d="M665 0h-126l-55 154h-290l-55 -154h-126l262 690h128zM339 563l-107 -302h214zM240 804q-37 38 -37 106h77q0 -34 15 -54t44 -20t44 20t15 54h77q0 -68 -37 -106t-99 -38t-99 38zM368 966.5q-15 5.5 -37 16.5q-28 15 -44 15q-20 0 -34 -8t-28 -28l-44 45q35 67 102 67
q20 0 35.5 -5t32.5 -15q11 -5 22.5 -9.5t22.5 -4.5q21 0 33.5 7t28.5 29l39 -54q-17 -31 -38.5 -46t-55.5 -15q-20 0 -35 5.5z" />
    <glyph glyph-name="Acircumflex" unicode="&#xc2;" horiz-adv-x="678" 
d="M665 0h-126l-55 154h-290l-55 -154h-126l262 690h128zM339 563l-107 -302h214zM279 766h-85l108 144h73l108 -144h-85l-59 71z" />
    <glyph glyph-name="uni1EA4" unicode="&#x1ea4;" horiz-adv-x="678" 
d="M665 0h-126l-55 154h-290l-55 -154h-126l262 690h128zM339 563l-107 -302h214zM488 910h-77l49 144h111zM279 766h-85l108 144h73l108 -144h-85l-59 71z" />
    <glyph glyph-name="uni1EAC" unicode="&#x1eac;" horiz-adv-x="678" 
d="M665 0h-126l-55 154h-290l-55 -154h-126l262 690h128zM339 563l-107 -302h214zM294 -153q-17 17 -17 45q0 29 17 46t45 17t45 -17t17 -46q0 -28 -17 -45t-45 -17t-45 17zM279 766h-85l108 144h73l108 -144h-85l-59 71z" />
    <glyph glyph-name="uni1EA6" unicode="&#x1ea6;" horiz-adv-x="678" 
d="M665 0h-126l-55 154h-290l-55 -154h-126l262 690h128zM339 563l-107 -302h214zM505 910h-77l-83 144h111zM279 766h-85l108 144h73l108 -144h-85l-59 71z" />
    <glyph glyph-name="uni1EA8" unicode="&#x1ea8;" horiz-adv-x="678" 
d="M665 0h-126l-55 154h-290l-55 -154h-126l262 690h128zM339 563l-107 -302h214zM413 921q11 19 11 36q0 14 -9 22t-24 8q-20 0 -37 -11l-27 58q33 24 77 24q50 0 76 -22.5t26 -62.5q0 -45 -45 -84zM279 766h-85l108 144h73l108 -144h-85l-59 71z" />
    <glyph glyph-name="uni1EAA" unicode="&#x1eaa;" horiz-adv-x="678" 
d="M665 0h-126l-55 154h-290l-55 -154h-126l262 690h128zM339 563l-107 -302h214zM181 990q33 67 102 67q20 0 35.5 -5t32.5 -15q11 -5 22.5 -9.5t22.5 -4.5q21 0 33.5 7t28.5 29l38 -54q-16 -31 -37.5 -46t-55.5 -15q-20 0 -35 5.5t-37 16.5q-28 15 -44 15
q-21 0 -34.5 -7.5t-27.5 -28.5zM279 766h-85l108 144h73l108 -144h-85l-59 71z" />
    <glyph glyph-name="Adieresis" unicode="&#xc4;" horiz-adv-x="678" 
d="M665 0h-126l-55 154h-290l-55 -154h-126l262 690h128zM339 563l-107 -302h214zM210 796.5q-16 16.5 -16 44.5q0 27 16 43.5t44 16.5t44.5 -16.5t16.5 -43.5q0 -28 -16.5 -44.5t-44.5 -16.5t-44 16.5zM379 796.5q-16 16.5 -16 44.5q0 27 16 43.5t44 16.5t44.5 -16.5
t16.5 -43.5q0 -28 -16.5 -44.5t-44.5 -16.5t-44 16.5z" />
    <glyph glyph-name="uni1EA0" unicode="&#x1ea0;" horiz-adv-x="678" 
d="M665 0h-126l-55 154h-290l-55 -154h-126l262 690h128zM339 563l-107 -302h214zM294 -153q-17 17 -17 45q0 29 17 46t45 17t45 -17t17 -46q0 -28 -17 -45t-45 -17t-45 17z" />
    <glyph glyph-name="Agrave" unicode="&#xc0;" horiz-adv-x="678" 
d="M665 0h-126l-55 154h-290l-55 -154h-126l262 690h128zM339 563l-107 -302h214zM383 766h-89l-105 144h126z" />
    <glyph glyph-name="uni1EA2" unicode="&#x1ea2;" horiz-adv-x="678" 
d="M665 0h-126l-55 154h-290l-55 -154h-126l262 690h128zM339 563l-107 -302h214zM336 782q10 21 10 36q0 14 -9 22t-24 8q-21 0 -37 -11l-26 58q14 10 34 17t43 7q50 0 75.5 -22.5t25.5 -62.5q0 -45 -45 -84z" />
    <glyph glyph-name="Amacron" unicode="&#x100;" horiz-adv-x="678" 
d="M665 0h-126l-55 154h-290l-55 -154h-126l262 690h128zM339 563l-107 -302h214zM467 813h-257v85h257v-85z" />
    <glyph glyph-name="Aogonek" unicode="&#x104;" horiz-adv-x="678" 
d="M674 -176q-23 -15 -59 -15q-41 0 -67.5 24t-26.5 65q0 34 13.5 58.5t37.5 43.5h-33l-55 154h-290l-55 -154h-126l262 690h128l262 -690q-60 -35 -60 -80q0 -15 8 -23.5t21 -8.5q8 0 14.5 2t13.5 5zM339 563l-107 -302h214z" />
    <glyph glyph-name="Aring" unicode="&#xc5;" horiz-adv-x="678" 
d="M665 0h-126l-55 154h-290l-55 -154h-126l262 690h128zM339 563l-107 -302h214zM270 779q-28 27 -28 71t28 71t69 27t69 -27t28 -71t-28 -71t-69 -27t-69 27zM368.5 816q10.5 12 10.5 34t-10.5 34t-29.5 12t-29.5 -12t-10.5 -34t10.5 -34t29.5 -12t29.5 12z" />
    <glyph glyph-name="Atilde" unicode="&#xc3;" horiz-adv-x="678" 
d="M665 0h-126l-55 154h-290l-55 -154h-126l262 690h128zM339 563l-107 -302h214zM368 805.5q-15 5.5 -37 16.5q-28 15 -44 15q-20 0 -34 -8t-28 -28l-44 45q35 67 102 67q20 0 35.5 -5t32.5 -15q11 -5 22.5 -9.5t22.5 -4.5q21 0 33.5 7t28.5 29l39 -54q-17 -31 -38.5 -46
t-55.5 -15q-20 0 -35 5.5z" />
    <glyph glyph-name="AE" unicode="&#xc6;" horiz-adv-x="985" 
d="M600 301v-195h338v-106h-454v154h-259l-81 -154h-131l370 690h546v-106h-329v-176h278v-107h-278zM453 584l-171 -323h202v323h-31z" />
    <glyph glyph-name="AEacute" unicode="&#x1fc;" horiz-adv-x="985" 
d="M600 301v-195h338v-106h-454v154h-259l-81 -154h-131l370 690h546v-106h-329v-176h278v-107h-278zM453 584l-171 -323h202v323h-31zM679 766h-89l69 144h125z" />
    <glyph glyph-name="B" unicode="B" horiz-adv-x="619" 
d="M76 0v690h291q82 0 132.5 -48t50.5 -127q0 -62 -28.5 -99.5t-73.5 -54.5q129 -31 129 -170q0 -97 -57.5 -144t-162.5 -47h-281zM327 404q107 0 107 92q0 47 -28 70t-79 23h-135v-185h135zM342 101q54 0 86.5 24t32.5 77t-32.5 77t-86.5 24h-150v-202h150z" />
    <glyph glyph-name="C" unicode="C" horiz-adv-x="646" 
d="M194 28q-71 42 -112 123t-41 194q0 111 41 192.5t112 124t161 42.5q91 0 156.5 -38t102.5 -113l-89 -67q-26 54 -71 83t-99 29q-56 0 -101 -29.5t-70.5 -87t-25.5 -136.5q0 -76 25 -133.5t69.5 -88.5t101.5 -31t101 29t70 83l89 -67q-38 -74 -104 -112.5t-156 -38.5
q-89 0 -160 42z" />
    <glyph glyph-name="Cacute" unicode="&#x106;" horiz-adv-x="646" 
d="M194 28q-71 42 -112 123t-41 194q0 111 41 192.5t112 124t161 42.5q91 0 156.5 -38t102.5 -113l-89 -67q-26 54 -71 83t-99 29q-56 0 -101 -29.5t-70.5 -87t-25.5 -136.5q0 -76 25 -133.5t69.5 -88.5t101.5 -31t101 29t70 83l89 -67q-38 -74 -104 -112.5t-156 -38.5
q-89 0 -160 42zM400 766h-89l69 144h125z" />
    <glyph glyph-name="Ccaron" unicode="&#x10c;" horiz-adv-x="646" 
d="M194 28q-71 42 -112 123t-41 194q0 111 41 192.5t112 124t161 42.5q91 0 156.5 -38t102.5 -113l-89 -67q-26 54 -71 83t-99 29q-56 0 -101 -29.5t-70.5 -87t-25.5 -136.5q0 -76 25 -133.5t69.5 -88.5t101.5 -31t101 29t70 83l89 -67q-38 -74 -104 -112.5t-156 -38.5
q-89 0 -160 42zM391 766h-73l-108 144h85l60 -71l59 71h85z" />
    <glyph glyph-name="Ccedilla" unicode="&#xc7;" horiz-adv-x="646" 
d="M455 121q44 29 70 83l89 -67q-35 -68 -93 -106t-137 -44l-28 -39q42 0 65.5 -19t23.5 -55q0 -37 -24.5 -58.5t-73.5 -21.5q-44 0 -81 17l24 52q26 -12 53 -12q13 0 20.5 6t7.5 17t-7.5 17t-20.5 6q-12 0 -26 -6l-38 28l33 70q-79 9 -140.5 53.5t-96 121.5t-34.5 181
q0 111 41 192.5t112 124t161 42.5q91 0 156.5 -38t102.5 -113l-89 -67q-26 54 -71 83t-99 29q-56 0 -101 -29.5t-70.5 -87t-25.5 -136.5q0 -76 25 -133.5t69.5 -88.5t101.5 -31t101 29z" />
    <glyph glyph-name="Ccircumflex" unicode="&#x108;" horiz-adv-x="646" 
d="M194 28q-71 42 -112 123t-41 194q0 111 41 192.5t112 124t161 42.5q91 0 156.5 -38t102.5 -113l-89 -67q-26 54 -71 83t-99 29q-56 0 -101 -29.5t-70.5 -87t-25.5 -136.5q0 -76 25 -133.5t69.5 -88.5t101.5 -31t101 29t70 83l89 -67q-38 -74 -104 -112.5t-156 -38.5
q-89 0 -160 42zM295 766h-85l108 144h73l108 -144h-85l-59 71z" />
    <glyph glyph-name="Cdotaccent" unicode="&#x10a;" horiz-adv-x="646" 
d="M194 28q-71 42 -112 123t-41 194q0 111 41 192.5t112 124t161 42.5q91 0 156.5 -38t102.5 -113l-89 -67q-26 54 -71 83t-99 29q-56 0 -101 -29.5t-70.5 -87t-25.5 -136.5q0 -76 25 -133.5t69.5 -88.5t101.5 -31t101 29t70 83l89 -67q-38 -74 -104 -112.5t-156 -38.5
q-89 0 -160 42zM306 800.5q-18 18.5 -18 48.5q0 31 18 49.5t49 18.5t49.5 -18.5t18.5 -49.5q0 -30 -18.5 -48.5t-49.5 -18.5t-49 18.5z" />
    <glyph glyph-name="D" unicode="D" horiz-adv-x="672" 
d="M76 0v690h231q152 0 238 -89t86 -256t-86 -256t-238 -89h-231zM307 106q98 0 152.5 57t54.5 182t-54.5 182t-152.5 57h-115v-478h115z" />
    <glyph glyph-name="Eth" unicode="&#xd0;" horiz-adv-x="687" 
d="M323 690q152 0 237.5 -89t85.5 -256t-85.5 -256t-237.5 -89h-224v296h-76v98h76v296h224zM323 106q97 0 152 57t55 182t-55 182t-152 57h-108v-190h163v-98h-163v-190h108z" />
    <glyph glyph-name="Dcaron" unicode="&#x10e;" horiz-adv-x="672" 
d="M76 0v690h231q152 0 238 -89t86 -256t-86 -256t-238 -89h-231zM307 106q98 0 152.5 57t54.5 182t-54.5 182t-152.5 57h-115v-478h115zM320 766h-73l-108 144h85l60 -71l59 71h85z" />
    <glyph glyph-name="Dcroat" unicode="&#x110;" horiz-adv-x="687" 
d="M323 690q152 0 237.5 -89t85.5 -256t-85.5 -256t-237.5 -89h-224v296h-76v98h76v296h224zM323 106q97 0 152 57t55 182t-55 182t-152 57h-108v-190h163v-98h-163v-190h108z" />
    <glyph glyph-name="E" unicode="E" horiz-adv-x="577" 
d="M530 0h-454v690h446v-106h-330v-176h279v-107h-279v-195h338v-106z" />
    <glyph glyph-name="Eacute" unicode="&#xc9;" horiz-adv-x="577" 
d="M530 0h-454v690h446v-106h-330v-176h279v-107h-279v-195h338v-106zM343 766h-89l69 144h125z" />
    <glyph glyph-name="Ebreve" unicode="&#x114;" horiz-adv-x="577" 
d="M530 0h-454v690h446v-106h-330v-176h279v-107h-279v-195h338v-106zM200 804q-37 38 -37 106h77q0 -34 15 -54t44 -20t44 20t15 54h77q0 -68 -37 -106t-99 -38t-99 38z" />
    <glyph glyph-name="Ecaron" unicode="&#x11a;" horiz-adv-x="577" 
d="M530 0h-454v690h446v-106h-330v-176h279v-107h-279v-195h338v-106zM335 766h-73l-108 144h85l60 -71l59 71h85z" />
    <glyph glyph-name="Ecircumflex" unicode="&#xca;" horiz-adv-x="577" 
d="M530 0h-454v690h446v-106h-330v-176h279v-107h-279v-195h338v-106zM239 766h-85l108 144h73l108 -144h-85l-59 71z" />
    <glyph glyph-name="uni1EBE" unicode="&#x1ebe;" horiz-adv-x="577" 
d="M530 0h-454v690h446v-106h-330v-176h279v-107h-279v-195h338v-106zM448 910h-77l49 144h111zM239 766h-85l108 144h73l108 -144h-85l-59 71z" />
    <glyph glyph-name="uni1EC6" unicode="&#x1ec6;" horiz-adv-x="577" 
d="M530 0h-454v690h446v-106h-330v-176h279v-107h-279v-195h338v-106zM251 -153q-17 17 -17 45q0 29 17 46t45 17t45 -17t17 -46q0 -28 -17 -45t-45 -17t-45 17zM239 766h-85l108 144h73l108 -144h-85l-59 71z" />
    <glyph glyph-name="uni1EC0" unicode="&#x1ec0;" horiz-adv-x="577" 
d="M530 0h-454v690h446v-106h-330v-176h279v-107h-279v-195h338v-106zM465 910h-77l-83 144h111zM239 766h-85l108 144h73l108 -144h-85l-59 71z" />
    <glyph glyph-name="uni1EC2" unicode="&#x1ec2;" horiz-adv-x="577" 
d="M530 0h-454v690h446v-106h-330v-176h279v-107h-279v-195h338v-106zM373 921q11 19 11 36q0 14 -9 22t-24 8q-20 0 -37 -11l-27 58q33 24 77 24q50 0 76 -22.5t26 -62.5q0 -45 -45 -84zM239 766h-85l108 144h73l108 -144h-85l-59 71z" />
    <glyph glyph-name="uni1EC4" unicode="&#x1ec4;" horiz-adv-x="577" 
d="M530 0h-454v690h446v-106h-330v-176h279v-107h-279v-195h338v-106zM141 990q33 67 102 67q20 0 35.5 -5t32.5 -15q11 -5 22.5 -9.5t22.5 -4.5q21 0 33.5 7t28.5 29l38 -54q-16 -31 -37.5 -46t-55.5 -15q-20 0 -35 5.5t-37 16.5q-28 15 -44 15q-21 0 -34.5 -7.5
t-27.5 -28.5zM239 766h-85l108 144h73l108 -144h-85l-59 71z" />
    <glyph glyph-name="Edieresis" unicode="&#xcb;" horiz-adv-x="577" 
d="M530 0h-454v690h446v-106h-330v-176h279v-107h-279v-195h338v-106zM170 796.5q-16 16.5 -16 44.5q0 27 16 43.5t44 16.5t44.5 -16.5t16.5 -43.5q0 -28 -16.5 -44.5t-44.5 -16.5t-44 16.5zM339 796.5q-16 16.5 -16 44.5q0 27 16 43.5t44 16.5t44.5 -16.5t16.5 -43.5
q0 -28 -16.5 -44.5t-44.5 -16.5t-44 16.5z" />
    <glyph glyph-name="Edotaccent" unicode="&#x116;" horiz-adv-x="577" 
d="M530 0h-454v690h446v-106h-330v-176h279v-107h-279v-195h338v-106zM249 800.5q-18 18.5 -18 48.5q0 31 18 49.5t49 18.5t49.5 -18.5t18.5 -49.5q0 -30 -18.5 -48.5t-49.5 -18.5t-49 18.5z" />
    <glyph glyph-name="uni1EB8" unicode="&#x1eb8;" horiz-adv-x="577" 
d="M530 0h-454v690h446v-106h-330v-176h279v-107h-279v-195h338v-106zM251 -153q-17 17 -17 45q0 29 17 46t45 17t45 -17t17 -46q0 -28 -17 -45t-45 -17t-45 17z" />
    <glyph glyph-name="Egrave" unicode="&#xc8;" horiz-adv-x="577" 
d="M530 0h-454v690h446v-106h-330v-176h279v-107h-279v-195h338v-106zM343 766h-89l-105 144h126z" />
    <glyph glyph-name="uni1EBA" unicode="&#x1eba;" horiz-adv-x="577" 
d="M530 0h-454v690h446v-106h-330v-176h279v-107h-279v-195h338v-106zM295 782q10 21 10 36q0 14 -9 22t-24 8q-21 0 -37 -11l-26 58q14 10 34 17t43 7q50 0 75.5 -22.5t25.5 -62.5q0 -45 -45 -84z" />
    <glyph glyph-name="Emacron" unicode="&#x112;" horiz-adv-x="577" 
d="M530 0h-454v690h446v-106h-330v-176h279v-107h-279v-195h338v-106zM427 813h-257v85h257v-85z" />
    <glyph glyph-name="Eogonek" unicode="&#x118;" horiz-adv-x="577" 
d="M539 -176q-23 -15 -59 -15q-41 0 -67.5 24t-26.5 65q0 34 13.5 58.5t37.5 43.5h-361v690h446v-106h-330v-176h279v-107h-279v-195h338v-106q-60 -35 -60 -80q0 -15 8 -23.5t21 -8.5q8 0 14.5 2t13.5 5z" />
    <glyph glyph-name="uni1EBC" unicode="&#x1ebc;" horiz-adv-x="577" 
d="M530 0h-454v690h446v-106h-330v-176h279v-107h-279v-195h338v-106zM327 805.5q-15 5.5 -37 16.5q-28 15 -44 15q-20 0 -34 -8t-28 -28l-44 45q35 67 102 67q20 0 35.5 -5t32.5 -15q11 -5 22.5 -9.5t22.5 -4.5q21 0 33.5 7t28.5 29l39 -54q-17 -31 -38.5 -46t-55.5 -15
q-20 0 -35 5.5z" />
    <glyph glyph-name="F" unicode="F" horiz-adv-x="558" 
d="M192 0h-116v690h443v-106h-327v-206h272v-106h-272v-272z" />
    <glyph glyph-name="G" unicode="G" horiz-adv-x="691" 
d="M184.5 30q-67.5 44 -105.5 125.5t-38 189.5q0 110 40.5 191t114.5 124.5t172 43.5q86 0 152 -37t105 -108l-91 -65q-27 50 -70 77t-98 27q-62 0 -109 -29.5t-73 -87t-26 -136.5q0 -116 54.5 -184.5t150.5 -68.5q49 0 91 20.5t65 52.5v107h-178v105h290v-377h-94l-15 70
q-29 -40 -76.5 -62t-108.5 -22q-85 0 -152.5 44z" />
    <glyph glyph-name="Gbreve" unicode="&#x11e;" horiz-adv-x="691" 
d="M184.5 30q-67.5 44 -105.5 125.5t-38 189.5q0 110 40.5 191t114.5 124.5t172 43.5q86 0 152 -37t105 -108l-91 -65q-27 50 -70 77t-98 27q-62 0 -109 -29.5t-73 -87t-26 -136.5q0 -116 54.5 -184.5t150.5 -68.5q49 0 91 20.5t65 52.5v107h-178v105h290v-377h-94l-15 70
q-29 -40 -76.5 -62t-108.5 -22q-85 0 -152.5 44zM263 804q-37 38 -37 106h77q0 -34 15 -54t44 -20t44 20t15 54h77q0 -68 -37 -106t-99 -38t-99 38z" />
    <glyph glyph-name="Gcircumflex" unicode="&#x11c;" horiz-adv-x="691" 
d="M184.5 30q-67.5 44 -105.5 125.5t-38 189.5q0 110 40.5 191t114.5 124.5t172 43.5q86 0 152 -37t105 -108l-91 -65q-27 50 -70 77t-98 27q-62 0 -109 -29.5t-73 -87t-26 -136.5q0 -116 54.5 -184.5t150.5 -68.5q49 0 91 20.5t65 52.5v107h-178v105h290v-377h-94l-15 70
q-29 -40 -76.5 -62t-108.5 -22q-85 0 -152.5 44zM302 766h-85l108 144h73l108 -144h-85l-59 71z" />
    <glyph glyph-name="uni0122" unicode="&#x122;" horiz-adv-x="691" 
d="M184.5 30q-67.5 44 -105.5 125.5t-38 189.5q0 110 40.5 191t114.5 124.5t172 43.5q86 0 152 -37t105 -108l-91 -65q-27 50 -70 77t-98 27q-62 0 -109 -29.5t-73 -87t-26 -136.5q0 -116 54.5 -184.5t150.5 -68.5q49 0 91 20.5t65 52.5v107h-178v105h290v-377h-94l-15 70
q-29 -40 -76.5 -62t-108.5 -22q-85 0 -152.5 44zM306 -178q22 8 34 16t17 20q-21 0 -34 13t-13 33t15 32.5t37 12.5q26 0 41.5 -15t15.5 -43q0 -41 -21 -65.5t-58 -38.5z" />
    <glyph glyph-name="Gdotaccent" unicode="&#x120;" horiz-adv-x="691" 
d="M184.5 30q-67.5 44 -105.5 125.5t-38 189.5q0 110 40.5 191t114.5 124.5t172 43.5q86 0 152 -37t105 -108l-91 -65q-27 50 -70 77t-98 27q-62 0 -109 -29.5t-73 -87t-26 -136.5q0 -116 54.5 -184.5t150.5 -68.5q49 0 91 20.5t65 52.5v107h-178v105h290v-377h-94l-15 70
q-29 -40 -76.5 -62t-108.5 -22q-85 0 -152.5 44zM312 800.5q-18 18.5 -18 48.5q0 31 18 49.5t49 18.5t49.5 -18.5t18.5 -49.5q0 -30 -18.5 -48.5t-49.5 -18.5t-49 18.5z" />
    <glyph glyph-name="H" unicode="H" horiz-adv-x="690" 
d="M192 0h-116v690h116v-283h306v283h116v-690h-116v301h-306v-301z" />
    <glyph glyph-name="Hbar" unicode="&#x126;" horiz-adv-x="730" 
d="M634 608h76v-99h-76v-509h-116v301h-306v-301h-116v509h-76v99h76v82h116v-82h306v82h116v-82zM212 407h306v102h-306v-102z" />
    <glyph glyph-name="Hcircumflex" unicode="&#x124;" horiz-adv-x="690" 
d="M192 0h-116v690h116v-283h306v283h116v-690h-116v301h-306v-301zM285 766h-85l108 144h73l108 -144h-85l-59 71z" />
    <glyph glyph-name="I" unicode="I" horiz-adv-x="268" 
d="M192 0h-116v690h116v-690z" />
    <glyph glyph-name="IJ" unicode="&#x132;" horiz-adv-x="806" 
d="M192 0h-116v690h116v-690zM384 19q-54 33 -82 91l83 70q23 -44 53 -66t71 -22q104 0 104 136v462h117v-454q0 -125 -58 -187.5t-164 -62.5q-70 0 -124 33z" />
    <glyph glyph-name="Iacute" unicode="&#xcd;" horiz-adv-x="268" 
d="M192 0h-116v690h116v-690zM178 766h-89l69 144h125z" />
    <glyph glyph-name="Ibreve" unicode="&#x12c;" horiz-adv-x="268" 
d="M192 0h-116v690h116v-690zM35 804q-37 38 -37 106h77q0 -34 15 -54t44 -20t44 20t15 54h77q0 -68 -37 -106t-99 -38t-99 38z" />
    <glyph glyph-name="Icircumflex" unicode="&#xce;" horiz-adv-x="268" 
d="M192 0h-116v690h116v-690zM74 766h-85l108 144h73l108 -144h-85l-59 71z" />
    <glyph glyph-name="Idieresis" unicode="&#xcf;" horiz-adv-x="268" 
d="M192 0h-116v690h116v-690zM5 796.5q-16 16.5 -16 44.5q0 27 16 43.5t44 16.5t44.5 -16.5t16.5 -43.5q0 -28 -16.5 -44.5t-44.5 -16.5t-44 16.5zM174 796.5q-16 16.5 -16 44.5q0 27 16 43.5t44 16.5t44.5 -16.5t16.5 -43.5q0 -28 -16.5 -44.5t-44.5 -16.5t-44 16.5z" />
    <glyph glyph-name="Idotaccent" unicode="&#x130;" horiz-adv-x="268" 
d="M192 0h-116v690h116v-690zM85 800.5q-18 18.5 -18 48.5q0 31 18 49.5t49 18.5t49.5 -18.5t18.5 -49.5q0 -30 -18.5 -48.5t-49.5 -18.5t-49 18.5z" />
    <glyph glyph-name="uni1ECA" unicode="&#x1eca;" horiz-adv-x="268" 
d="M192 0h-116v690h116v-690zM89 -153q-17 17 -17 45q0 29 17 46t45 17t45 -17t17 -46q0 -28 -17 -45t-45 -17t-45 17z" />
    <glyph glyph-name="Igrave" unicode="&#xcc;" horiz-adv-x="268" 
d="M192 0h-116v690h116v-690zM178 766h-89l-105 144h126z" />
    <glyph glyph-name="uni1EC8" unicode="&#x1ec8;" horiz-adv-x="268" 
d="M192 0h-116v690h116v-690zM131 782q10 21 10 36q0 14 -9 22t-24 8q-21 0 -37 -11l-26 58q14 10 34 17t43 7q50 0 75.5 -22.5t25.5 -62.5q0 -45 -45 -84z" />
    <glyph glyph-name="Imacron" unicode="&#x12a;" horiz-adv-x="268" 
d="M192 0h-116v690h116v-690zM262 813h-257v85h257v-85z" />
    <glyph glyph-name="Iogonek" unicode="&#x12e;" horiz-adv-x="268" 
d="M202 -176q-23 -15 -59 -15q-41 0 -67.5 24t-26.5 65q0 34 13.5 58.5t37.5 43.5h-24v690h116v-690h1q-60 -35 -60 -80q0 -15 8 -23.5t21 -8.5q8 0 14.5 2t13.5 5z" />
    <glyph glyph-name="Itilde" unicode="&#x128;" horiz-adv-x="268" 
d="M192 0h-116v690h116v-690zM163 805.5q-15 5.5 -37 16.5q-28 15 -44 15q-20 0 -34 -8t-28 -28l-44 45q35 67 102 67q20 0 35.5 -5t32.5 -15q11 -5 22.5 -9.5t22.5 -4.5q21 0 33.5 7t28.5 29l39 -54q-17 -31 -38.5 -46t-55.5 -15q-20 0 -35 5.5z" />
    <glyph glyph-name="J" unicode="J" horiz-adv-x="538" 
d="M116 19q-54 33 -82 91l83 70q23 -44 53 -66t71 -22q104 0 104 136v462h117v-454q0 -125 -58 -187.5t-164 -62.5q-70 0 -124 33z" />
    <glyph glyph-name="Jcircumflex" unicode="&#x134;" horiz-adv-x="538" 
d="M116 19q-54 33 -82 91l83 70q23 -44 53 -66t71 -22q104 0 104 136v462h117v-454q0 -125 -58 -187.5t-164 -62.5q-70 0 -124 33zM343 766h-85l108 144h73l108 -144h-85l-59 71z" />
    <glyph glyph-name="K" unicode="K" horiz-adv-x="640" 
d="M76 0v690h116v-297l277 297h147l-245 -266q78 -91 139 -200t99 -224h-133q-26 91 -72.5 179t-108.5 163l-103 -112v-230h-116z" />
    <glyph glyph-name="uni0136" unicode="&#x136;" horiz-adv-x="640" 
d="M76 0v690h116v-297l277 297h147l-245 -266q78 -91 139 -200t99 -224h-133q-26 91 -72.5 179t-108.5 163l-103 -112v-230h-116zM260 -178q22 8 34 16t17 20q-21 0 -34 13t-13 33t15 32.5t37 12.5q26 0 41.5 -15t15.5 -43q0 -41 -21 -65.5t-58 -38.5z" />
    <glyph glyph-name="L" unicode="L" horiz-adv-x="564" 
d="M523 0h-447v690h116v-584h331v-106z" />
    <glyph glyph-name="Lacute" unicode="&#x139;" horiz-adv-x="564" 
d="M523 0h-447v690h116v-584h331v-106zM178 766h-89l69 144h125z" />
    <glyph glyph-name="Lcaron" unicode="&#x13d;" horiz-adv-x="564" 
d="M523 0h-447v690h116v-584h331v-106zM375 478q64 44 76 86q-31 0 -49 18.5t-18 48.5t18.5 48.5t48.5 18.5q31 0 50.5 -22t19.5 -63q0 -59 -26 -102t-67 -77z" />
    <glyph glyph-name="uni013B" unicode="&#x13b;" horiz-adv-x="564" 
d="M523 0h-447v690h116v-584h331v-106zM239 -178q22 8 34 16t17 20q-21 0 -34 13t-13 33t15 32.5t37 12.5q26 0 41.5 -15t15.5 -43q0 -41 -21 -65.5t-58 -38.5z" />
    <glyph glyph-name="Ldot" unicode="&#x13f;" horiz-adv-x="555" 
d="M523 0h-447v690h116v-584h331v-106zM363.5 291q-20.5 21 -20.5 54t21 53.5t54 20.5t53.5 -21t20.5 -53q0 -33 -20.5 -54t-53.5 -21q-34 0 -54.5 21z" />
    <glyph glyph-name="Lslash" unicode="&#x141;" horiz-adv-x="586" 
d="M214 250v-144h330v-106h-446v193l-86 -42v108l86 42v389h116v-332l166 82v-109z" />
    <glyph glyph-name="M" unicode="M" horiz-adv-x="862" 
d="M169 0h-118l79 690h165l138 -451l138 451h161l79 -690h-118l-58 549l-142 -444h-124l-143 444z" />
    <glyph glyph-name="N" unicode="N" horiz-adv-x="709" 
d="M191 0h-115v690h144l298 -524v524h115v-690h-140l-302 526v-526z" />
    <glyph glyph-name="Nacute" unicode="&#x143;" horiz-adv-x="709" 
d="M191 0h-115v690h144l298 -524v524h115v-690h-140l-302 526v-526zM399 766h-89l69 144h125z" />
    <glyph glyph-name="Ncaron" unicode="&#x147;" horiz-adv-x="709" 
d="M191 0h-115v690h144l298 -524v524h115v-690h-140l-302 526v-526zM391 766h-73l-108 144h85l60 -71l59 71h85z" />
    <glyph glyph-name="uni0145" unicode="&#x145;" horiz-adv-x="709" 
d="M191 0h-115v690h144l298 -524v524h115v-690h-140l-302 526v-526zM299 -178q22 8 34 16t17 20q-21 0 -34 13t-13 33t15 32.5t37 12.5q26 0 41.5 -15t15.5 -43q0 -41 -21 -65.5t-58 -38.5z" />
    <glyph glyph-name="Eng" unicode="&#x14a;" horiz-adv-x="709" 
d="M397 -200q-24 4 -34 9v109q14 -6 35 -10.5t35 -4.5q47 0 66 23t19 77l-327 523v-526h-115v690h144l298 -490v490h115v-690q0 -106 -47.5 -155t-145.5 -49q-19 0 -43 4z" />
    <glyph glyph-name="Ntilde" unicode="&#xd1;" horiz-adv-x="709" 
d="M191 0h-115v690h144l298 -524v524h115v-690h-140l-302 526v-526zM384 805.5q-15 5.5 -37 16.5q-28 15 -44 15q-20 0 -34 -8t-28 -28l-44 45q35 67 102 67q20 0 35.5 -5t32.5 -15q11 -5 22.5 -9.5t22.5 -4.5q21 0 33.5 7t28.5 29l39 -54q-17 -31 -38.5 -46t-55.5 -15
q-20 0 -35 5.5z" />
    <glyph glyph-name="O" unicode="O" horiz-adv-x="701" 
d="M189 28.5q-70 42.5 -109 123.5t-39 193t39 193t109 123.5t161 42.5t161.5 -42.5t109.5 -123.5t39 -193t-39 -193t-109.5 -123.5t-161.5 -42.5t-161 42.5zM492.5 157.5q50.5 65.5 50.5 187.5t-50.5 187.5t-142.5 65.5q-91 0 -141.5 -65.5t-50.5 -187.5t50.5 -187.5
t141.5 -65.5q92 0 142.5 65.5z" />
    <glyph glyph-name="Oacute" unicode="&#xd3;" horiz-adv-x="701" 
d="M189 28.5q-70 42.5 -109 123.5t-39 193t39 193t109 123.5t161 42.5t161.5 -42.5t109.5 -123.5t39 -193t-39 -193t-109.5 -123.5t-161.5 -42.5t-161 42.5zM492.5 157.5q50.5 65.5 50.5 187.5t-50.5 187.5t-142.5 65.5q-91 0 -141.5 -65.5t-50.5 -187.5t50.5 -187.5
t141.5 -65.5q92 0 142.5 65.5zM395 766h-89l69 144h125z" />
    <glyph glyph-name="Obreve" unicode="&#x14e;" horiz-adv-x="701" 
d="M189 28.5q-70 42.5 -109 123.5t-39 193t39 193t109 123.5t161 42.5t161.5 -42.5t109.5 -123.5t39 -193t-39 -193t-109.5 -123.5t-161.5 -42.5t-161 42.5zM492.5 157.5q50.5 65.5 50.5 187.5t-50.5 187.5t-142.5 65.5q-91 0 -141.5 -65.5t-50.5 -187.5t50.5 -187.5
t141.5 -65.5q92 0 142.5 65.5zM251 804q-37 38 -37 106h77q0 -34 15 -54t44 -20t44 20t15 54h77q0 -68 -37 -106t-99 -38t-99 38z" />
    <glyph glyph-name="Ocircumflex" unicode="&#xd4;" horiz-adv-x="701" 
d="M189 28.5q-70 42.5 -109 123.5t-39 193t39 193t109 123.5t161 42.5t161.5 -42.5t109.5 -123.5t39 -193t-39 -193t-109.5 -123.5t-161.5 -42.5t-161 42.5zM492.5 157.5q50.5 65.5 50.5 187.5t-50.5 187.5t-142.5 65.5q-91 0 -141.5 -65.5t-50.5 -187.5t50.5 -187.5
t141.5 -65.5q92 0 142.5 65.5zM290 766h-85l108 144h73l108 -144h-85l-59 71z" />
    <glyph glyph-name="uni1ED0" unicode="&#x1ed0;" horiz-adv-x="701" 
d="M189 28.5q-70 42.5 -109 123.5t-39 193t39 193t109 123.5t161 42.5t161.5 -42.5t109.5 -123.5t39 -193t-39 -193t-109.5 -123.5t-161.5 -42.5t-161 42.5zM492.5 157.5q50.5 65.5 50.5 187.5t-50.5 187.5t-142.5 65.5q-91 0 -141.5 -65.5t-50.5 -187.5t50.5 -187.5
t141.5 -65.5q92 0 142.5 65.5zM499 910h-77l49 144h111zM290 766h-85l108 144h73l108 -144h-85l-59 71z" />
    <glyph glyph-name="uni1ED8" unicode="&#x1ed8;" horiz-adv-x="701" 
d="M189 28.5q-70 42.5 -109 123.5t-39 193t39 193t109 123.5t161 42.5t161.5 -42.5t109.5 -123.5t39 -193t-39 -193t-109.5 -123.5t-161.5 -42.5t-161 42.5zM492.5 157.5q50.5 65.5 50.5 187.5t-50.5 187.5t-142.5 65.5q-91 0 -141.5 -65.5t-50.5 -187.5t50.5 -187.5
t141.5 -65.5q92 0 142.5 65.5zM305 -153q-17 17 -17 45q0 29 17 46t45 17t45 -17t17 -46q0 -28 -17 -45t-45 -17t-45 17zM290 766h-85l108 144h73l108 -144h-85l-59 71z" />
    <glyph glyph-name="uni1ED2" unicode="&#x1ed2;" horiz-adv-x="701" 
d="M189 28.5q-70 42.5 -109 123.5t-39 193t39 193t109 123.5t161 42.5t161.5 -42.5t109.5 -123.5t39 -193t-39 -193t-109.5 -123.5t-161.5 -42.5t-161 42.5zM492.5 157.5q50.5 65.5 50.5 187.5t-50.5 187.5t-142.5 65.5q-91 0 -141.5 -65.5t-50.5 -187.5t50.5 -187.5
t141.5 -65.5q92 0 142.5 65.5zM516 910h-77l-83 144h111zM290 766h-85l108 144h73l108 -144h-85l-59 71z" />
    <glyph glyph-name="uni1ED4" unicode="&#x1ed4;" horiz-adv-x="701" 
d="M189 28.5q-70 42.5 -109 123.5t-39 193t39 193t109 123.5t161 42.5t161.5 -42.5t109.5 -123.5t39 -193t-39 -193t-109.5 -123.5t-161.5 -42.5t-161 42.5zM492.5 157.5q50.5 65.5 50.5 187.5t-50.5 187.5t-142.5 65.5q-91 0 -141.5 -65.5t-50.5 -187.5t50.5 -187.5
t141.5 -65.5q92 0 142.5 65.5zM424 921q11 19 11 36q0 14 -9 22t-24 8q-20 0 -37 -11l-27 58q33 24 77 24q50 0 76 -22.5t26 -62.5q0 -45 -45 -84zM290 766h-85l108 144h73l108 -144h-85l-59 71z" />
    <glyph glyph-name="uni1ED6" unicode="&#x1ed6;" horiz-adv-x="701" 
d="M189 28.5q-70 42.5 -109 123.5t-39 193t39 193t109 123.5t161 42.5t161.5 -42.5t109.5 -123.5t39 -193t-39 -193t-109.5 -123.5t-161.5 -42.5t-161 42.5zM492.5 157.5q50.5 65.5 50.5 187.5t-50.5 187.5t-142.5 65.5q-91 0 -141.5 -65.5t-50.5 -187.5t50.5 -187.5
t141.5 -65.5q92 0 142.5 65.5zM192 990q33 67 102 67q20 0 35.5 -5t32.5 -15q11 -5 22.5 -9.5t22.5 -4.5q21 0 33.5 7t28.5 29l38 -54q-16 -31 -37.5 -46t-55.5 -15q-20 0 -35 5.5t-37 16.5q-28 15 -44 15q-21 0 -34.5 -7.5t-27.5 -28.5zM290 766h-85l108 144h73l108 -144
h-85l-59 71z" />
    <glyph glyph-name="Odieresis" unicode="&#xd6;" horiz-adv-x="701" 
d="M189 28.5q-70 42.5 -109 123.5t-39 193t39 193t109 123.5t161 42.5t161.5 -42.5t109.5 -123.5t39 -193t-39 -193t-109.5 -123.5t-161.5 -42.5t-161 42.5zM492.5 157.5q50.5 65.5 50.5 187.5t-50.5 187.5t-142.5 65.5q-91 0 -141.5 -65.5t-50.5 -187.5t50.5 -187.5
t141.5 -65.5q92 0 142.5 65.5zM222 796.5q-16 16.5 -16 44.5q0 27 16 43.5t44 16.5t44.5 -16.5t16.5 -43.5q0 -28 -16.5 -44.5t-44.5 -16.5t-44 16.5zM391 796.5q-16 16.5 -16 44.5q0 27 16 43.5t44 16.5t44.5 -16.5t16.5 -43.5q0 -28 -16.5 -44.5t-44.5 -16.5t-44 16.5z
" />
    <glyph glyph-name="uni1ECC" unicode="&#x1ecc;" horiz-adv-x="701" 
d="M189 28.5q-70 42.5 -109 123.5t-39 193t39 193t109 123.5t161 42.5t161.5 -42.5t109.5 -123.5t39 -193t-39 -193t-109.5 -123.5t-161.5 -42.5t-161 42.5zM492.5 157.5q50.5 65.5 50.5 187.5t-50.5 187.5t-142.5 65.5q-91 0 -141.5 -65.5t-50.5 -187.5t50.5 -187.5
t141.5 -65.5q92 0 142.5 65.5zM305 -153q-17 17 -17 45q0 29 17 46t45 17t45 -17t17 -46q0 -28 -17 -45t-45 -17t-45 17z" />
    <glyph glyph-name="Ograve" unicode="&#xd2;" horiz-adv-x="701" 
d="M189 28.5q-70 42.5 -109 123.5t-39 193t39 193t109 123.5t161 42.5t161.5 -42.5t109.5 -123.5t39 -193t-39 -193t-109.5 -123.5t-161.5 -42.5t-161 42.5zM492.5 157.5q50.5 65.5 50.5 187.5t-50.5 187.5t-142.5 65.5q-91 0 -141.5 -65.5t-50.5 -187.5t50.5 -187.5
t141.5 -65.5q92 0 142.5 65.5zM395 766h-89l-105 144h126z" />
    <glyph glyph-name="uni1ECE" unicode="&#x1ece;" horiz-adv-x="701" 
d="M189 28.5q-70 42.5 -109 123.5t-39 193t39 193t109 123.5t161 42.5t161.5 -42.5t109.5 -123.5t39 -193t-39 -193t-109.5 -123.5t-161.5 -42.5t-161 42.5zM492.5 157.5q50.5 65.5 50.5 187.5t-50.5 187.5t-142.5 65.5q-91 0 -141.5 -65.5t-50.5 -187.5t50.5 -187.5
t141.5 -65.5q92 0 142.5 65.5zM347 782q10 21 10 36q0 14 -9 22t-24 8q-21 0 -37 -11l-26 58q14 10 34 17t43 7q50 0 75.5 -22.5t25.5 -62.5q0 -45 -45 -84z" />
    <glyph glyph-name="Ohorn" unicode="&#x1a0;" horiz-adv-x="701" 
d="M660 784q0 -69 -25.5 -110t-71.5 -53q47 -47 72 -116.5t25 -159.5q0 -112 -39 -193t-109.5 -123.5t-161.5 -42.5t-161 42.5t-109 123.5t-39 193t39 193t109 123.5t161 42.5h158q60 0 60 71v59h92v-50zM492.5 157.5q50.5 65.5 50.5 187.5t-50.5 187.5t-142.5 65.5
q-91 0 -141.5 -65.5t-50.5 -187.5t50.5 -187.5t141.5 -65.5q92 0 142.5 65.5z" />
    <glyph glyph-name="uni1EDA" unicode="&#x1eda;" horiz-adv-x="701" 
d="M660 784q0 -69 -25.5 -110t-71.5 -53q47 -47 72 -116.5t25 -159.5q0 -112 -39 -193t-109.5 -123.5t-161.5 -42.5t-161 42.5t-109 123.5t-39 193t39 193t109 123.5t161 42.5h158q60 0 60 71v59h92v-50zM492.5 157.5q50.5 65.5 50.5 187.5t-50.5 187.5t-142.5 65.5
q-91 0 -141.5 -65.5t-50.5 -187.5t50.5 -187.5t141.5 -65.5q92 0 142.5 65.5zM395 766h-89l69 144h125z" />
    <glyph glyph-name="uni1EE2" unicode="&#x1ee2;" horiz-adv-x="701" 
d="M660 784q0 -69 -25.5 -110t-71.5 -53q47 -47 72 -116.5t25 -159.5q0 -112 -39 -193t-109.5 -123.5t-161.5 -42.5t-161 42.5t-109 123.5t-39 193t39 193t109 123.5t161 42.5h158q60 0 60 71v59h92v-50zM492.5 157.5q50.5 65.5 50.5 187.5t-50.5 187.5t-142.5 65.5
q-91 0 -141.5 -65.5t-50.5 -187.5t50.5 -187.5t141.5 -65.5q92 0 142.5 65.5zM305 -153q-17 17 -17 45q0 29 17 46t45 17t45 -17t17 -46q0 -28 -17 -45t-45 -17t-45 17z" />
    <glyph glyph-name="uni1EDC" unicode="&#x1edc;" horiz-adv-x="701" 
d="M660 784q0 -69 -25.5 -110t-71.5 -53q47 -47 72 -116.5t25 -159.5q0 -112 -39 -193t-109.5 -123.5t-161.5 -42.5t-161 42.5t-109 123.5t-39 193t39 193t109 123.5t161 42.5h158q60 0 60 71v59h92v-50zM492.5 157.5q50.5 65.5 50.5 187.5t-50.5 187.5t-142.5 65.5
q-91 0 -141.5 -65.5t-50.5 -187.5t50.5 -187.5t141.5 -65.5q92 0 142.5 65.5zM395 766h-89l-105 144h126z" />
    <glyph glyph-name="uni1EDE" unicode="&#x1ede;" horiz-adv-x="701" 
d="M660 784q0 -69 -25.5 -110t-71.5 -53q47 -47 72 -116.5t25 -159.5q0 -112 -39 -193t-109.5 -123.5t-161.5 -42.5t-161 42.5t-109 123.5t-39 193t39 193t109 123.5t161 42.5h158q60 0 60 71v59h92v-50zM492.5 157.5q50.5 65.5 50.5 187.5t-50.5 187.5t-142.5 65.5
q-91 0 -141.5 -65.5t-50.5 -187.5t50.5 -187.5t141.5 -65.5q92 0 142.5 65.5zM347 782q10 21 10 36q0 14 -9 22t-24 8q-21 0 -37 -11l-26 58q14 10 34 17t43 7q50 0 75.5 -22.5t25.5 -62.5q0 -45 -45 -84z" />
    <glyph glyph-name="uni1EE0" unicode="&#x1ee0;" horiz-adv-x="701" 
d="M660 784q0 -69 -25.5 -110t-71.5 -53q47 -47 72 -116.5t25 -159.5q0 -112 -39 -193t-109.5 -123.5t-161.5 -42.5t-161 42.5t-109 123.5t-39 193t39 193t109 123.5t161 42.5h158q60 0 60 71v59h92v-50zM492.5 157.5q50.5 65.5 50.5 187.5t-50.5 187.5t-142.5 65.5
q-91 0 -141.5 -65.5t-50.5 -187.5t50.5 -187.5t141.5 -65.5q92 0 142.5 65.5zM379 805.5q-15 5.5 -37 16.5q-28 15 -44 15q-20 0 -34 -8t-28 -28l-44 45q35 67 102 67q20 0 35.5 -5t32.5 -15q11 -5 22.5 -9.5t22.5 -4.5q21 0 33.5 7t28.5 29l39 -54q-17 -31 -38.5 -46
t-55.5 -15q-20 0 -35 5.5z" />
    <glyph glyph-name="Ohungarumlaut" unicode="&#x150;" horiz-adv-x="701" 
d="M189 28.5q-70 42.5 -109 123.5t-39 193t39 193t109 123.5t161 42.5t161.5 -42.5t109.5 -123.5t39 -193t-39 -193t-109.5 -123.5t-161.5 -42.5t-161 42.5zM492.5 157.5q50.5 65.5 50.5 187.5t-50.5 187.5t-142.5 65.5q-91 0 -141.5 -65.5t-50.5 -187.5t50.5 -187.5
t141.5 -65.5q92 0 142.5 65.5zM303 766h-81l45 144h110zM475 766h-81l45 144h109z" />
    <glyph glyph-name="Omacron" unicode="&#x14c;" horiz-adv-x="701" 
d="M189 28.5q-70 42.5 -109 123.5t-39 193t39 193t109 123.5t161 42.5t161.5 -42.5t109.5 -123.5t39 -193t-39 -193t-109.5 -123.5t-161.5 -42.5t-161 42.5zM492.5 157.5q50.5 65.5 50.5 187.5t-50.5 187.5t-142.5 65.5q-91 0 -141.5 -65.5t-50.5 -187.5t50.5 -187.5
t141.5 -65.5q92 0 142.5 65.5zM478 813h-257v85h257v-85z" />
    <glyph glyph-name="Oslash" unicode="&#xd8;" horiz-adv-x="701" 
d="M522 655q65 -44 101.5 -123t36.5 -187q0 -112 -39 -193t-109.5 -123.5t-161.5 -42.5q-45 0 -81 10l-41 -106h-103l55 144q-66 44 -102.5 123.5t-36.5 187.5q0 112 39 193t109 123.5t161 42.5q46 0 83 -10l40 106h104zM221 142l173 452q-19 4 -44 4q-91 0 -141.5 -65.5
t-50.5 -187.5q0 -138 63 -203zM492.5 157.5q50.5 65.5 50.5 187.5q0 137 -63 202l-173 -451q19 -4 43 -4q92 0 142.5 65.5z" />
    <glyph glyph-name="Otilde" unicode="&#xd5;" horiz-adv-x="701" 
d="M189 28.5q-70 42.5 -109 123.5t-39 193t39 193t109 123.5t161 42.5t161.5 -42.5t109.5 -123.5t39 -193t-39 -193t-109.5 -123.5t-161.5 -42.5t-161 42.5zM492.5 157.5q50.5 65.5 50.5 187.5t-50.5 187.5t-142.5 65.5q-91 0 -141.5 -65.5t-50.5 -187.5t50.5 -187.5
t141.5 -65.5q92 0 142.5 65.5zM379 805.5q-15 5.5 -37 16.5q-28 15 -44 15q-20 0 -34 -8t-28 -28l-44 45q35 67 102 67q20 0 35.5 -5t32.5 -15q11 -5 22.5 -9.5t22.5 -4.5q21 0 33.5 7t28.5 29l39 -54q-17 -31 -38.5 -46t-55.5 -15q-20 0 -35 5.5z" />
    <glyph glyph-name="OE" unicode="&#x152;" horiz-adv-x="1045" 
d="M186 28.5q-68 42.5 -106.5 123.5t-38.5 193t38.5 193t106.5 123.5t155 42.5q135 0 202 -97v83h446v-106h-329v-176h278v-107h-278v-195h337v-106h-454v83q-67 -97 -202 -97q-87 0 -155 42.5zM492.5 157.5q50.5 65.5 50.5 187.5t-50.5 187.5t-142.5 65.5
q-91 0 -141.5 -65.5t-50.5 -187.5t50.5 -187.5t141.5 -65.5q92 0 142.5 65.5z" />
    <glyph glyph-name="P" unicode="P" horiz-adv-x="626" 
d="M76 0v690h293q100 0 158.5 -59t58.5 -163t-58.5 -165t-158.5 -61h-177v-242h-116zM352 348q56 0 86.5 29t30.5 89t-30.5 89t-86.5 29h-160v-236h160z" />
    <glyph glyph-name="Thorn" unicode="&#xde;" horiz-adv-x="626" 
d="M76 0v690h116v-121h177q100 0 158.5 -59t58.5 -163t-58.5 -165t-158.5 -61h-177v-121h-116zM352 227q56 0 86.5 29t30.5 89t-30.5 89t-86.5 29h-160v-236h160z" />
    <glyph glyph-name="Q" unicode="Q" horiz-adv-x="701" 
d="M245 3q-95 36 -149.5 122.5t-54.5 219.5q0 112 39 193t109 123.5t161 42.5t161.5 -42.5t109.5 -123.5t39 -193q0 -125 -48 -210t-133 -121l156 -41v-119zM492.5 157.5q50.5 65.5 50.5 187.5t-50.5 187.5t-142.5 65.5q-91 0 -141.5 -65.5t-50.5 -187.5t50.5 -187.5
t141.5 -65.5q92 0 142.5 65.5z" />
    <glyph glyph-name="R" unicode="R" horiz-adv-x="643" 
d="M76 0v690h304q100 0 157 -56t57 -150q0 -74 -35.5 -125.5t-96.5 -72.5q98 -141 147 -286h-128q-49 148 -135 271h-154v-271h-116zM363 378q54 0 84 25.5t30 77.5t-30 77.5t-84 25.5h-171v-206h171z" />
    <glyph glyph-name="Racute" unicode="&#x154;" horiz-adv-x="643" 
d="M76 0v690h304q100 0 157 -56t57 -150q0 -74 -35.5 -125.5t-96.5 -72.5q98 -141 147 -286h-128q-49 148 -135 271h-154v-271h-116zM363 378q54 0 84 25.5t30 77.5t-30 77.5t-84 25.5h-171v-206h171zM357 766h-89l69 144h125z" />
    <glyph glyph-name="Rcaron" unicode="&#x158;" horiz-adv-x="643" 
d="M76 0v690h304q100 0 157 -56t57 -150q0 -74 -35.5 -125.5t-96.5 -72.5q98 -141 147 -286h-128q-49 148 -135 271h-154v-271h-116zM363 378q54 0 84 25.5t30 77.5t-30 77.5t-84 25.5h-171v-206h171zM349 766h-73l-108 144h85l60 -71l59 71h85z" />
    <glyph glyph-name="uni0156" unicode="&#x156;" horiz-adv-x="643" 
d="M76 0v690h304q100 0 157 -56t57 -150q0 -74 -35.5 -125.5t-96.5 -72.5q98 -141 147 -286h-128q-49 148 -135 271h-154v-271h-116zM363 378q54 0 84 25.5t30 77.5t-30 77.5t-84 25.5h-171v-206h171zM261 -178q22 8 34 16t17 20q-21 0 -34 13t-13 33t15 32.5t37 12.5
q26 0 41.5 -15t15.5 -43q0 -41 -21 -65.5t-58 -38.5z" />
    <glyph glyph-name="S" unicode="S" horiz-adv-x="575" 
d="M126.5 23q-64.5 37 -101.5 100l86 74q34 -55 74.5 -81.5t103.5 -26.5t97.5 26.5t34.5 77.5q0 47 -39 71.5t-120 42.5q-208 45 -208 201q0 60 31 104.5t85 68t121 23.5q157 0 240 -130l-82 -67q-34 52 -70 74.5t-88 22.5q-57 0 -90.5 -24t-33.5 -66q0 -32 18 -51.5t49 -32
t85 -25.5q68 -16 114.5 -38t75 -61.5t28.5 -103.5q0 -103 -67.5 -159.5t-183.5 -56.5q-95 0 -159.5 37z" />
    <glyph glyph-name="Sacute" unicode="&#x15a;" horiz-adv-x="575" 
d="M126.5 23q-64.5 37 -101.5 100l86 74q34 -55 74.5 -81.5t103.5 -26.5t97.5 26.5t34.5 77.5q0 47 -39 71.5t-120 42.5q-208 45 -208 201q0 60 31 104.5t85 68t121 23.5q157 0 240 -130l-82 -67q-34 52 -70 74.5t-88 22.5q-57 0 -90.5 -24t-33.5 -66q0 -32 18 -51.5t49 -32
t85 -25.5q68 -16 114.5 -38t75 -61.5t28.5 -103.5q0 -103 -67.5 -159.5t-183.5 -56.5q-95 0 -159.5 37zM332 766h-89l69 144h125z" />
    <glyph glyph-name="Scaron" unicode="&#x160;" horiz-adv-x="575" 
d="M126.5 23q-64.5 37 -101.5 100l86 74q34 -55 74.5 -81.5t103.5 -26.5t97.5 26.5t34.5 77.5q0 47 -39 71.5t-120 42.5q-208 45 -208 201q0 60 31 104.5t85 68t121 23.5q157 0 240 -130l-82 -67q-34 52 -70 74.5t-88 22.5q-57 0 -90.5 -24t-33.5 -66q0 -32 18 -51.5t49 -32
t85 -25.5q68 -16 114.5 -38t75 -61.5t28.5 -103.5q0 -103 -67.5 -159.5t-183.5 -56.5q-95 0 -159.5 37zM324 766h-73l-108 144h85l60 -71l59 71h85z" />
    <glyph glyph-name="Scedilla" unicode="&#x15e;" horiz-adv-x="575" 
d="M478 51q-59 -56 -161 -64l-28 -39q42 0 65.5 -19t23.5 -55q0 -37 -24.5 -58.5t-73.5 -21.5q-44 0 -81 17l24 52q26 -12 53 -12q13 0 20.5 6t7.5 17t-7.5 17t-20.5 6q-12 0 -26 -6l-38 28l32 69q-78 8 -132.5 43.5t-86.5 91.5l86 74q34 -55 74.5 -81.5t103.5 -26.5
t97.5 26.5t34.5 77.5q0 47 -39 71.5t-120 42.5q-208 45 -208 201q0 60 31 104.5t85 68t121 23.5q157 0 240 -130l-82 -67q-34 52 -70 74.5t-88 22.5q-57 0 -90.5 -24t-33.5 -66q0 -32 18 -51.5t49 -32t85 -25.5q68 -16 114.5 -38t75 -61.5t28.5 -103.5q0 -95 -59 -151z" />
    <glyph glyph-name="Scircumflex" unicode="&#x15c;" horiz-adv-x="575" 
d="M126.5 23q-64.5 37 -101.5 100l86 74q34 -55 74.5 -81.5t103.5 -26.5t97.5 26.5t34.5 77.5q0 47 -39 71.5t-120 42.5q-208 45 -208 201q0 60 31 104.5t85 68t121 23.5q157 0 240 -130l-82 -67q-34 52 -70 74.5t-88 22.5q-57 0 -90.5 -24t-33.5 -66q0 -32 18 -51.5t49 -32
t85 -25.5q68 -16 114.5 -38t75 -61.5t28.5 -103.5q0 -103 -67.5 -159.5t-183.5 -56.5q-95 0 -159.5 37zM228 766h-85l108 144h73l108 -144h-85l-59 71z" />
    <glyph glyph-name="uni0218" unicode="&#x218;" horiz-adv-x="575" 
d="M126.5 23q-64.5 37 -101.5 100l86 74q34 -55 74.5 -81.5t103.5 -26.5t97.5 26.5t34.5 77.5q0 47 -39 71.5t-120 42.5q-208 45 -208 201q0 60 31 104.5t85 68t121 23.5q157 0 240 -130l-82 -67q-34 52 -70 74.5t-88 22.5q-57 0 -90.5 -24t-33.5 -66q0 -32 18 -51.5t49 -32
t85 -25.5q68 -16 114.5 -38t75 -61.5t28.5 -103.5q0 -103 -67.5 -159.5t-183.5 -56.5q-95 0 -159.5 37zM232 -178q22 8 34 16t17 20q-21 0 -34 13t-13 33t15 32.5t37 12.5q26 0 41.5 -15t15.5 -43q0 -41 -21 -65.5t-58 -38.5z" />
    <glyph glyph-name="uni1E9E" unicode="&#x1e9e;" horiz-adv-x="632" 
d="M267 4v104q18 -12 40.5 -19t44.5 -7q114 0 114 116q0 109 -129 109h-46v92l130 185h-131q-45 0 -71.5 -24.5t-26.5 -70.5v-489h-116v493q0 92 57 144.5t157 52.5h262v-108l-136 -189q75 -9 120.5 -58t45.5 -139q0 -104 -61.5 -157t-155.5 -53q-54 0 -98 18z" />
    <glyph glyph-name="T" unicode="T" horiz-adv-x="576" 
d="M346 0h-116v584h-206v106h528v-106h-206v-584z" />
    <glyph glyph-name="Tbar" unicode="&#x166;" horiz-adv-x="576" 
d="M552 690v-106h-206v-208h131v-95h-131v-281h-116v281h-131v95h131v208h-206v106h528z" />
    <glyph glyph-name="Tcaron" unicode="&#x164;" horiz-adv-x="576" 
d="M346 0h-116v584h-206v106h528v-106h-206v-584zM324 766h-73l-108 144h85l60 -71l59 71h85z" />
    <glyph glyph-name="uni0162" unicode="&#x162;" horiz-adv-x="576" 
d="M346 0h-116v584h-206v106h528v-106h-206v-584zM289 -52q42 0 65.5 -19t23.5 -55q0 -37 -24.5 -58.5t-73.5 -21.5q-44 0 -81 17l24 52q26 -12 53 -12q13 0 20.5 6t7.5 17t-7.5 17t-20.5 6q-12 0 -26 -6l-38 28l38 81h76z" />
    <glyph glyph-name="uni021A" unicode="&#x21a;" horiz-adv-x="576" 
d="M346 0h-116v584h-206v106h528v-106h-206v-584zM233 -178q22 8 34 16t17 20q-21 0 -34 13t-13 33t15 32.5t37 12.5q26 0 41.5 -15t15.5 -43q0 -41 -21 -65.5t-58 -38.5z" />
    <glyph glyph-name="U" unicode="U" horiz-adv-x="692" 
d="M147 54.5q-71 68.5 -71 209.5v426h116v-424q0 -88 40.5 -131t113.5 -43t113.5 43t40.5 131v424h116v-426q0 -141 -71 -209.5t-199 -68.5t-199 68.5z" />
    <glyph glyph-name="Uacute" unicode="&#xda;" horiz-adv-x="692" 
d="M147 54.5q-71 68.5 -71 209.5v426h116v-424q0 -88 40.5 -131t113.5 -43t113.5 43t40.5 131v424h116v-426q0 -141 -71 -209.5t-199 -68.5t-199 68.5zM390 766h-89l69 144h125z" />
    <glyph glyph-name="Ubreve" unicode="&#x16c;" horiz-adv-x="692" 
d="M147 54.5q-71 68.5 -71 209.5v426h116v-424q0 -88 40.5 -131t113.5 -43t113.5 43t40.5 131v424h116v-426q0 -141 -71 -209.5t-199 -68.5t-199 68.5zM247 804q-37 38 -37 106h77q0 -34 15 -54t44 -20t44 20t15 54h77q0 -68 -37 -106t-99 -38t-99 38z" />
    <glyph glyph-name="Ucircumflex" unicode="&#xdb;" horiz-adv-x="692" 
d="M147 54.5q-71 68.5 -71 209.5v426h116v-424q0 -88 40.5 -131t113.5 -43t113.5 43t40.5 131v424h116v-426q0 -141 -71 -209.5t-199 -68.5t-199 68.5zM286 766h-85l108 144h73l108 -144h-85l-59 71z" />
    <glyph glyph-name="Udieresis" unicode="&#xdc;" horiz-adv-x="692" 
d="M147 54.5q-71 68.5 -71 209.5v426h116v-424q0 -88 40.5 -131t113.5 -43t113.5 43t40.5 131v424h116v-426q0 -141 -71 -209.5t-199 -68.5t-199 68.5zM217 796.5q-16 16.5 -16 44.5q0 27 16 43.5t44 16.5t44.5 -16.5t16.5 -43.5q0 -28 -16.5 -44.5t-44.5 -16.5t-44 16.5z
M386 796.5q-16 16.5 -16 44.5q0 27 16 43.5t44 16.5t44.5 -16.5t16.5 -43.5q0 -28 -16.5 -44.5t-44.5 -16.5t-44 16.5z" />
    <glyph glyph-name="uni1EE4" unicode="&#x1ee4;" horiz-adv-x="692" 
d="M147 54.5q-71 68.5 -71 209.5v426h116v-424q0 -88 40.5 -131t113.5 -43t113.5 43t40.5 131v424h116v-426q0 -141 -71 -209.5t-199 -68.5t-199 68.5zM301 -153q-17 17 -17 45q0 29 17 46t45 17t45 -17t17 -46q0 -28 -17 -45t-45 -17t-45 17z" />
    <glyph glyph-name="Ugrave" unicode="&#xd9;" horiz-adv-x="692" 
d="M147 54.5q-71 68.5 -71 209.5v426h116v-424q0 -88 40.5 -131t113.5 -43t113.5 43t40.5 131v424h116v-426q0 -141 -71 -209.5t-199 -68.5t-199 68.5zM390 766h-89l-105 144h126z" />
    <glyph glyph-name="uni1EE6" unicode="&#x1ee6;" horiz-adv-x="692" 
d="M147 54.5q-71 68.5 -71 209.5v426h116v-424q0 -88 40.5 -131t113.5 -43t113.5 43t40.5 131v424h116v-426q0 -141 -71 -209.5t-199 -68.5t-199 68.5zM343 782q10 21 10 36q0 14 -9 22t-24 8q-21 0 -37 -11l-26 58q14 10 34 17t43 7q50 0 75.5 -22.5t25.5 -62.5
q0 -45 -45 -84z" />
    <glyph glyph-name="Uhorn" unicode="&#x1af;" horiz-adv-x="692" 
d="M659 820h92v-50q0 -83 -36 -124.5t-99 -43.5v-338q0 -141 -71 -209.5t-199 -68.5t-199 68.5t-71 209.5v426h116v-424q0 -88 40.5 -131t113.5 -43t113.5 43t40.5 131v424h99q60 0 60 71v59z" />
    <glyph glyph-name="uni1EE8" unicode="&#x1ee8;" horiz-adv-x="692" 
d="M659 820h92v-50q0 -83 -36 -124.5t-99 -43.5v-338q0 -141 -71 -209.5t-199 -68.5t-199 68.5t-71 209.5v426h116v-424q0 -88 40.5 -131t113.5 -43t113.5 43t40.5 131v424h99q60 0 60 71v59zM390 766h-89l69 144h125z" />
    <glyph glyph-name="uni1EF0" unicode="&#x1ef0;" horiz-adv-x="692" 
d="M659 820h92v-50q0 -83 -36 -124.5t-99 -43.5v-338q0 -141 -71 -209.5t-199 -68.5t-199 68.5t-71 209.5v426h116v-424q0 -88 40.5 -131t113.5 -43t113.5 43t40.5 131v424h99q60 0 60 71v59zM301 -153q-17 17 -17 45q0 29 17 46t45 17t45 -17t17 -46q0 -28 -17 -45t-45 -17
t-45 17z" />
    <glyph glyph-name="uni1EEA" unicode="&#x1eea;" horiz-adv-x="692" 
d="M659 820h92v-50q0 -83 -36 -124.5t-99 -43.5v-338q0 -141 -71 -209.5t-199 -68.5t-199 68.5t-71 209.5v426h116v-424q0 -88 40.5 -131t113.5 -43t113.5 43t40.5 131v424h99q60 0 60 71v59zM390 766h-89l-105 144h126z" />
    <glyph glyph-name="uni1EEC" unicode="&#x1eec;" horiz-adv-x="692" 
d="M659 820h92v-50q0 -83 -36 -124.5t-99 -43.5v-338q0 -141 -71 -209.5t-199 -68.5t-199 68.5t-71 209.5v426h116v-424q0 -88 40.5 -131t113.5 -43t113.5 43t40.5 131v424h99q60 0 60 71v59zM343 782q10 21 10 36q0 14 -9 22t-24 8q-21 0 -37 -11l-26 58q14 10 34 17t43 7
q50 0 75.5 -22.5t25.5 -62.5q0 -45 -45 -84z" />
    <glyph glyph-name="uni1EEE" unicode="&#x1eee;" horiz-adv-x="692" 
d="M659 820h92v-50q0 -83 -36 -124.5t-99 -43.5v-338q0 -141 -71 -209.5t-199 -68.5t-199 68.5t-71 209.5v426h116v-424q0 -88 40.5 -131t113.5 -43t113.5 43t40.5 131v424h99q60 0 60 71v59zM375 805.5q-15 5.5 -37 16.5q-28 15 -44 15q-20 0 -34 -8t-28 -28l-44 45
q35 67 102 67q20 0 35.5 -5t32.5 -15q11 -5 22.5 -9.5t22.5 -4.5q21 0 33.5 7t28.5 29l39 -54q-17 -31 -38.5 -46t-55.5 -15q-20 0 -35 5.5z" />
    <glyph glyph-name="Uhungarumlaut" unicode="&#x170;" horiz-adv-x="692" 
d="M147 54.5q-71 68.5 -71 209.5v426h116v-424q0 -88 40.5 -131t113.5 -43t113.5 43t40.5 131v424h116v-426q0 -141 -71 -209.5t-199 -68.5t-199 68.5zM298 766h-81l45 144h110zM470 766h-81l45 144h109z" />
    <glyph glyph-name="Umacron" unicode="&#x16a;" horiz-adv-x="692" 
d="M147 54.5q-71 68.5 -71 209.5v426h116v-424q0 -88 40.5 -131t113.5 -43t113.5 43t40.5 131v424h116v-426q0 -141 -71 -209.5t-199 -68.5t-199 68.5zM474 813h-257v85h257v-85z" />
    <glyph glyph-name="Uogonek" unicode="&#x172;" horiz-adv-x="692" 
d="M500 690h116v-426q0 -109 -43 -174.5t-122 -89.5q-60 -35 -60 -80q0 -15 8 -23.5t21 -8.5q8 0 14.5 2t13.5 5l12 -71q-23 -15 -59 -15q-41 0 -67.5 24t-26.5 65q0 53 35 88q-126 1 -196 69.5t-70 208.5v426h116v-424q0 -88 40.5 -131t113.5 -43t113.5 43t40.5 131v424z
" />
    <glyph glyph-name="Uring" unicode="&#x16e;" horiz-adv-x="692" 
d="M147 54.5q-71 68.5 -71 209.5v426h116v-424q0 -88 40.5 -131t113.5 -43t113.5 43t40.5 131v424h116v-426q0 -141 -71 -209.5t-199 -68.5t-199 68.5zM277 779q-28 27 -28 71t28 71t69 27t69 -27t28 -71t-28 -71t-69 -27t-69 27zM375.5 816q10.5 12 10.5 34t-10.5 34
t-29.5 12t-29.5 -12t-10.5 -34t10.5 -34t29.5 -12t29.5 12z" />
    <glyph glyph-name="Utilde" unicode="&#x168;" horiz-adv-x="692" 
d="M147 54.5q-71 68.5 -71 209.5v426h116v-424q0 -88 40.5 -131t113.5 -43t113.5 43t40.5 131v424h116v-426q0 -141 -71 -209.5t-199 -68.5t-199 68.5zM375 805.5q-15 5.5 -37 16.5q-28 15 -44 15q-20 0 -34 -8t-28 -28l-44 45q35 67 102 67q20 0 35.5 -5t32.5 -15
q11 -5 22.5 -9.5t22.5 -4.5q21 0 33.5 7t28.5 29l39 -54q-17 -31 -38.5 -46t-55.5 -15q-20 0 -35 5.5z" />
    <glyph glyph-name="V" unicode="V" horiz-adv-x="645" 
d="M387 0h-128l-241 690h126l179 -535l178 535h127z" />
    <glyph glyph-name="W" unicode="W" horiz-adv-x="848" 
d="M291 0h-128l-145 690h119l99 -519l123 419h135l123 -419l99 519h115l-146 -690h-128l-133 458z" />
    <glyph glyph-name="Wacute" unicode="&#x1e82;" horiz-adv-x="848" 
d="M291 0h-128l-145 690h119l99 -519l123 419h135l123 -419l99 519h115l-146 -690h-128l-133 458zM468 766h-89l69 144h125z" />
    <glyph glyph-name="Wcircumflex" unicode="&#x174;" horiz-adv-x="848" 
d="M291 0h-128l-145 690h119l99 -519l123 419h135l123 -419l99 519h115l-146 -690h-128l-133 458zM364 766h-85l108 144h73l108 -144h-85l-59 71z" />
    <glyph glyph-name="Wdieresis" unicode="&#x1e84;" horiz-adv-x="848" 
d="M291 0h-128l-145 690h119l99 -519l123 419h135l123 -419l99 519h115l-146 -690h-128l-133 458zM295 796.5q-16 16.5 -16 44.5q0 27 16 43.5t44 16.5t44.5 -16.5t16.5 -43.5q0 -28 -16.5 -44.5t-44.5 -16.5t-44 16.5zM464 796.5q-16 16.5 -16 44.5q0 27 16 43.5t44 16.5
t44.5 -16.5t16.5 -43.5q0 -28 -16.5 -44.5t-44.5 -16.5t-44 16.5z" />
    <glyph glyph-name="Wgrave" unicode="&#x1e80;" horiz-adv-x="848" 
d="M291 0h-128l-145 690h119l99 -519l123 419h135l123 -419l99 519h115l-146 -690h-128l-133 458zM468 766h-89l-105 144h126z" />
    <glyph glyph-name="X" unicode="X" horiz-adv-x="640" 
d="M155 0h-140l234 360l-210 330h137l144 -241l144 241h137l-210 -330l234 -360h-139l-166 267z" />
    <glyph glyph-name="Y" unicode="Y" horiz-adv-x="615" 
d="M366 0h-117v280l-233 410h130l162 -297l161 297h130l-233 -410v-280z" />
    <glyph glyph-name="Yacute" unicode="&#xdd;" horiz-adv-x="615" 
d="M366 0h-117v280l-233 410h130l162 -297l161 297h130l-233 -410v-280zM352 766h-89l69 144h125z" />
    <glyph glyph-name="Ycircumflex" unicode="&#x176;" horiz-adv-x="615" 
d="M366 0h-117v280l-233 410h130l162 -297l161 297h130l-233 -410v-280zM248 766h-85l108 144h73l108 -144h-85l-59 71z" />
    <glyph glyph-name="Ydieresis" unicode="&#x178;" horiz-adv-x="615" 
d="M366 0h-117v280l-233 410h130l162 -297l161 297h130l-233 -410v-280zM179 796.5q-16 16.5 -16 44.5q0 27 16 43.5t44 16.5t44.5 -16.5t16.5 -43.5q0 -28 -16.5 -44.5t-44.5 -16.5t-44 16.5zM348 796.5q-16 16.5 -16 44.5q0 27 16 43.5t44 16.5t44.5 -16.5t16.5 -43.5
q0 -28 -16.5 -44.5t-44.5 -16.5t-44 16.5z" />
    <glyph glyph-name="uni1EF4" unicode="&#x1ef4;" horiz-adv-x="615" 
d="M366 0h-117v280l-233 410h130l162 -297l161 297h130l-233 -410v-280zM262 -153q-17 17 -17 45q0 29 17 46t45 17t45 -17t17 -46q0 -28 -17 -45t-45 -17t-45 17z" />
    <glyph glyph-name="Ygrave" unicode="&#x1ef2;" horiz-adv-x="615" 
d="M366 0h-117v280l-233 410h130l162 -297l161 297h130l-233 -410v-280zM352 766h-89l-105 144h126z" />
    <glyph glyph-name="uni1EF6" unicode="&#x1ef6;" horiz-adv-x="615" 
d="M366 0h-117v280l-233 410h130l162 -297l161 297h130l-233 -410v-280zM304 782q10 21 10 36q0 14 -9 22t-24 8q-21 0 -37 -11l-26 58q14 10 34 17t43 7q50 0 75.5 -22.5t25.5 -62.5q0 -45 -45 -84z" />
    <glyph glyph-name="uni1EF8" unicode="&#x1ef8;" horiz-adv-x="615" 
d="M366 0h-117v280l-233 410h130l162 -297l161 297h130l-233 -410v-280zM336 805.5q-15 5.5 -37 16.5q-28 15 -44 15q-20 0 -34 -8t-28 -28l-44 45q35 67 102 67q20 0 35.5 -5t32.5 -15q11 -5 22.5 -9.5t22.5 -4.5q21 0 33.5 7t28.5 29l39 -54q-17 -31 -38.5 -46t-55.5 -15
q-20 0 -35 5.5z" />
    <glyph glyph-name="Z" unicode="Z" horiz-adv-x="573" 
d="M525 0h-478v103l332 481h-321v106h456v-103l-331 -481h342v-106z" />
    <glyph glyph-name="Zacute" unicode="&#x179;" horiz-adv-x="573" 
d="M525 0h-478v103l332 481h-321v106h456v-103l-331 -481h342v-106zM331 766h-89l69 144h125z" />
    <glyph glyph-name="Zcaron" unicode="&#x17d;" horiz-adv-x="573" 
d="M525 0h-478v103l332 481h-321v106h456v-103l-331 -481h342v-106zM323 766h-73l-108 144h85l60 -71l59 71h85z" />
    <glyph glyph-name="Zdotaccent" unicode="&#x17b;" horiz-adv-x="573" 
d="M525 0h-478v103l332 481h-321v106h456v-103l-331 -481h342v-106zM238 800.5q-18 18.5 -18 48.5q0 31 18 49.5t49 18.5t49.5 -18.5t18.5 -49.5q0 -30 -18.5 -48.5t-49.5 -18.5t-49 18.5z" />
    <glyph glyph-name="uni01B5" unicode="&#x1b5;" horiz-adv-x="573" 
d="M315 298l-133 -192h343v-106h-478v103l135 195h-85v94h150l133 192h-322v106h456v-103l-135 -195h96v-94h-160z" />
    <glyph glyph-name="glyph177" horiz-adv-x="640" 
d="M469 690h147l-260 -282l253 -408h-134l-199 321l-84 -91v-230h-116v690h116v-298z" />
    <glyph glyph-name="glyph178" horiz-adv-x="640" 
d="M469 690h147l-260 -282l253 -408h-134l-199 321l-84 -91v-230h-116v690h116v-298zM260 -178q22 8 34 16t17 20q-21 0 -34 13t-13 33t15 32.5t37 12.5q26 0 41.5 -15t15.5 -43q0 -41 -21 -65.5t-58 -38.5z" />
    <glyph glyph-name="glyph179" horiz-adv-x="643" 
d="M609 0h-127l-142 271h-148v-271h-116v690h304q100 0 157 -56t57 -150q0 -75 -36.5 -127.5t-100.5 -73.5zM192 584v-206h171q54 0 84 25.5t30 77.5t-30 77.5t-84 25.5h-171z" />
    <glyph glyph-name="glyph180" horiz-adv-x="643" 
d="M609 0h-127l-142 271h-148v-271h-116v690h304q100 0 157 -56t57 -150q0 -75 -36.5 -127.5t-100.5 -73.5zM192 584v-206h171q54 0 84 25.5t30 77.5t-30 77.5t-84 25.5h-171zM357 766h-89l69 144h125z" />
    <glyph glyph-name="glyph181" horiz-adv-x="643" 
d="M609 0h-127l-142 271h-148v-271h-116v690h304q100 0 157 -56t57 -150q0 -75 -36.5 -127.5t-100.5 -73.5zM192 584v-206h171q54 0 84 25.5t30 77.5t-30 77.5t-84 25.5h-171zM349 766h-73l-108 144h85l60 -71l59 71h85z" />
    <glyph glyph-name="glyph182" horiz-adv-x="643" 
d="M609 0h-127l-142 271h-148v-271h-116v690h304q100 0 157 -56t57 -150q0 -75 -36.5 -127.5t-100.5 -73.5zM192 584v-206h171q54 0 84 25.5t30 77.5t-30 77.5t-84 25.5h-171zM257 -178q22 8 34 16t17 20q-21 0 -34 13t-13 33t15 32.5t37 12.5q26 0 41.5 -15t15.5 -43
q0 -41 -21 -65.5t-58 -38.5z" />
    <glyph glyph-name="glyph183" horiz-adv-x="862" 
d="M169 0h-118l79 690h165l138 -556l138 556h161l79 -690h-118l-58 549l-142 -549h-124l-143 549z" />
    <glyph glyph-name="glyph184" horiz-adv-x="848" 
d="M291 0h-128l-145 690h119l99 -519l123 519h135l123 -519l99 519h115l-146 -690h-128l-133 558z" />
    <glyph glyph-name="glyph185" horiz-adv-x="848" 
d="M291 0h-128l-145 690h119l99 -519l123 519h135l123 -519l99 519h115l-146 -690h-128l-133 558zM468 766h-89l69 144h125z" />
    <glyph glyph-name="glyph186" horiz-adv-x="848" 
d="M291 0h-128l-145 690h119l99 -519l123 519h135l123 -519l99 519h115l-146 -690h-128l-133 558zM364 766h-85l108 144h73l108 -144h-85l-59 71z" />
    <glyph glyph-name="glyph187" horiz-adv-x="848" 
d="M291 0h-128l-145 690h119l99 -519l123 519h135l123 -519l99 519h115l-146 -690h-128l-133 558zM295 796.5q-16 16.5 -16 44.5q0 27 16 43.5t44 16.5t44.5 -16.5t16.5 -43.5q0 -28 -16.5 -44.5t-44.5 -16.5t-44 16.5zM464 796.5q-16 16.5 -16 44.5q0 27 16 43.5t44 16.5
t44.5 -16.5t16.5 -43.5q0 -28 -16.5 -44.5t-44.5 -16.5t-44 16.5z" />
    <glyph glyph-name="glyph188" horiz-adv-x="848" 
d="M291 0h-128l-145 690h119l99 -519l123 519h135l123 -519l99 519h115l-146 -690h-128l-133 558zM468 766h-89l-105 144h126z" />
    <glyph glyph-name="a" unicode="a" horiz-adv-x="520" 
d="M96 23q-42 37 -42 104q0 158 288 161v14q0 43 -25 67t-70 24q-32 0 -65.5 -13.5t-62.5 -40.5l-54 69q34 36 83 56t105 20q199 0 199 -182v-302h-101l-9 59q-19 -29 -55.5 -51t-85.5 -22q-63 0 -105 37zM342 137v78q-92 -3 -136 -23.5t-44 -59.5q0 -28 18 -43t49 -15
q65 0 113 63z" />
    <glyph glyph-name="aacute" unicode="&#xe1;" horiz-adv-x="520" 
d="M96 23q-42 37 -42 104q0 158 288 161v14q0 43 -25 67t-70 24q-32 0 -65.5 -13.5t-62.5 -40.5l-54 69q34 36 83 56t105 20q199 0 199 -182v-302h-101l-9 59q-19 -29 -55.5 -51t-85.5 -22q-63 0 -105 37zM342 137v78q-92 -3 -136 -23.5t-44 -59.5q0 -28 18 -43t49 -15
q65 0 113 63zM301 546h-89l69 144h125z" />
    <glyph glyph-name="abreve" unicode="&#x103;" horiz-adv-x="520" 
d="M96 23q-42 37 -42 104q0 158 288 161v14q0 43 -25 67t-70 24q-32 0 -65.5 -13.5t-62.5 -40.5l-54 69q34 36 83 56t105 20q199 0 199 -182v-302h-101l-9 59q-19 -29 -55.5 -51t-85.5 -22q-63 0 -105 37zM342 137v78q-92 -3 -136 -23.5t-44 -59.5q0 -28 18 -43t49 -15
q65 0 113 63zM158 584q-37 38 -37 106h77q0 -34 15 -54t44 -20t44 20t15 54h77q0 -68 -37 -106t-99 -38t-99 38z" />
    <glyph glyph-name="uni1EAF" unicode="&#x1eaf;" horiz-adv-x="520" 
d="M96 23q-42 37 -42 104q0 158 288 161v14q0 43 -25 67t-70 24q-32 0 -65.5 -13.5t-62.5 -40.5l-54 69q34 36 83 56t105 20q199 0 199 -182v-302h-101l-9 59q-19 -29 -55.5 -51t-85.5 -22q-63 0 -105 37zM342 137v78q-92 -3 -136 -23.5t-44 -59.5q0 -28 18 -43t49 -15
q65 0 113 63zM158 584q-37 38 -37 106h77q0 -34 15 -54t44 -20t44 20t15 54h77q0 -68 -37 -106t-99 -38t-99 38zM301 723h-89l69 144h125z" />
    <glyph glyph-name="uni1EB7" unicode="&#x1eb7;" horiz-adv-x="520" 
d="M96 23q-42 37 -42 104q0 158 288 161v14q0 43 -25 67t-70 24q-32 0 -65.5 -13.5t-62.5 -40.5l-54 69q34 36 83 56t105 20q199 0 199 -182v-302h-101l-9 59q-19 -29 -55.5 -51t-85.5 -22q-63 0 -105 37zM342 137v78q-92 -3 -136 -23.5t-44 -59.5q0 -28 18 -43t49 -15
q65 0 113 63zM215 -153q-17 17 -17 45q0 29 17 46t45 17t45 -17t17 -46q0 -28 -17 -45t-45 -17t-45 17zM158 584q-37 38 -37 106h77q0 -34 15 -54t44 -20t44 20t15 54h77q0 -68 -37 -106t-99 -38t-99 38z" />
    <glyph glyph-name="uni1EB1" unicode="&#x1eb1;" horiz-adv-x="520" 
d="M96 23q-42 37 -42 104q0 158 288 161v14q0 43 -25 67t-70 24q-32 0 -65.5 -13.5t-62.5 -40.5l-54 69q34 36 83 56t105 20q199 0 199 -182v-302h-101l-9 59q-19 -29 -55.5 -51t-85.5 -22q-63 0 -105 37zM342 137v78q-92 -3 -136 -23.5t-44 -59.5q0 -28 18 -43t49 -15
q65 0 113 63zM158 584q-37 38 -37 106h77q0 -34 15 -54t44 -20t44 20t15 54h77q0 -68 -37 -106t-99 -38t-99 38zM301 723h-89l-105 144h126z" />
    <glyph glyph-name="uni1EB3" unicode="&#x1eb3;" horiz-adv-x="520" 
d="M96 23q-42 37 -42 104q0 158 288 161v14q0 43 -25 67t-70 24q-32 0 -65.5 -13.5t-62.5 -40.5l-54 69q34 36 83 56t105 20q199 0 199 -182v-302h-101l-9 59q-19 -29 -55.5 -51t-85.5 -22q-63 0 -105 37zM342 137v78q-92 -3 -136 -23.5t-44 -59.5q0 -28 18 -43t49 -15
q65 0 113 63zM158 584q-37 38 -37 106h77q0 -34 15 -54t44 -20t44 20t15 54h77q0 -68 -37 -106t-99 -38t-99 38zM254 737q10 21 10 36q0 14 -9 22t-24 8q-21 0 -37 -11l-26 58q14 10 34 17t43 7q50 0 75.5 -22.5t25.5 -62.5q0 -45 -45 -84z" />
    <glyph glyph-name="uni1EB5" unicode="&#x1eb5;" horiz-adv-x="520" 
d="M96 23q-42 37 -42 104q0 158 288 161v14q0 43 -25 67t-70 24q-32 0 -65.5 -13.5t-62.5 -40.5l-54 69q34 36 83 56t105 20q199 0 199 -182v-302h-101l-9 59q-19 -29 -55.5 -51t-85.5 -22q-63 0 -105 37zM342 137v78q-92 -3 -136 -23.5t-44 -59.5q0 -28 18 -43t49 -15
q65 0 113 63zM158 584q-37 38 -37 106h77q0 -34 15 -54t44 -20t44 20t15 54h77q0 -68 -37 -106t-99 -38t-99 38zM286 746.5q-15 5.5 -37 16.5q-28 15 -44 15q-20 0 -34 -8t-28 -28l-44 45q35 67 102 67q20 0 35.5 -5t32.5 -15q11 -5 22.5 -9.5t22.5 -4.5q21 0 33.5 7
t28.5 29l39 -54q-17 -31 -38.5 -46t-55.5 -15q-20 0 -35 5.5z" />
    <glyph glyph-name="acircumflex" unicode="&#xe2;" horiz-adv-x="520" 
d="M96 23q-42 37 -42 104q0 158 288 161v14q0 43 -25 67t-70 24q-32 0 -65.5 -13.5t-62.5 -40.5l-54 69q34 36 83 56t105 20q199 0 199 -182v-302h-101l-9 59q-19 -29 -55.5 -51t-85.5 -22q-63 0 -105 37zM342 137v78q-92 -3 -136 -23.5t-44 -59.5q0 -28 18 -43t49 -15
q65 0 113 63zM197 546h-85l108 144h73l108 -144h-85l-59 71z" />
    <glyph glyph-name="uni1EA5" unicode="&#x1ea5;" horiz-adv-x="520" 
d="M96 23q-42 37 -42 104q0 158 288 161v14q0 43 -25 67t-70 24q-32 0 -65.5 -13.5t-62.5 -40.5l-54 69q34 36 83 56t105 20q199 0 199 -182v-302h-101l-9 59q-19 -29 -55.5 -51t-85.5 -22q-63 0 -105 37zM342 137v78q-92 -3 -136 -23.5t-44 -59.5q0 -28 18 -43t49 -15
q65 0 113 63zM406 690h-77l49 144h111zM197 546h-85l108 144h73l108 -144h-85l-59 71z" />
    <glyph glyph-name="uni1EAD" unicode="&#x1ead;" horiz-adv-x="520" 
d="M96 23q-42 37 -42 104q0 158 288 161v14q0 43 -25 67t-70 24q-32 0 -65.5 -13.5t-62.5 -40.5l-54 69q34 36 83 56t105 20q199 0 199 -182v-302h-101l-9 59q-19 -29 -55.5 -51t-85.5 -22q-63 0 -105 37zM342 137v78q-92 -3 -136 -23.5t-44 -59.5q0 -28 18 -43t49 -15
q65 0 113 63zM215 -153q-17 17 -17 45q0 29 17 46t45 17t45 -17t17 -46q0 -28 -17 -45t-45 -17t-45 17zM197 546h-85l108 144h73l108 -144h-85l-59 71z" />
    <glyph glyph-name="uni1EA7" unicode="&#x1ea7;" horiz-adv-x="520" 
d="M96 23q-42 37 -42 104q0 158 288 161v14q0 43 -25 67t-70 24q-32 0 -65.5 -13.5t-62.5 -40.5l-54 69q34 36 83 56t105 20q199 0 199 -182v-302h-101l-9 59q-19 -29 -55.5 -51t-85.5 -22q-63 0 -105 37zM342 137v78q-92 -3 -136 -23.5t-44 -59.5q0 -28 18 -43t49 -15
q65 0 113 63zM423 690h-77l-83 144h111zM197 546h-85l108 144h73l108 -144h-85l-59 71z" />
    <glyph glyph-name="uni1EA9" unicode="&#x1ea9;" horiz-adv-x="520" 
d="M96 23q-42 37 -42 104q0 158 288 161v14q0 43 -25 67t-70 24q-32 0 -65.5 -13.5t-62.5 -40.5l-54 69q34 36 83 56t105 20q199 0 199 -182v-302h-101l-9 59q-19 -29 -55.5 -51t-85.5 -22q-63 0 -105 37zM342 137v78q-92 -3 -136 -23.5t-44 -59.5q0 -28 18 -43t49 -15
q65 0 113 63zM331 701q11 19 11 36q0 14 -9 22t-24 8q-20 0 -37 -11l-27 58q33 24 77 24q50 0 76 -22.5t26 -62.5q0 -45 -45 -84zM197 546h-85l108 144h73l108 -144h-85l-59 71z" />
    <glyph glyph-name="uni1EAB" unicode="&#x1eab;" horiz-adv-x="520" 
d="M96 23q-42 37 -42 104q0 158 288 161v14q0 43 -25 67t-70 24q-32 0 -65.5 -13.5t-62.5 -40.5l-54 69q34 36 83 56t105 20q199 0 199 -182v-302h-101l-9 59q-19 -29 -55.5 -51t-85.5 -22q-63 0 -105 37zM342 137v78q-92 -3 -136 -23.5t-44 -59.5q0 -28 18 -43t49 -15
q65 0 113 63zM99 770q33 67 102 67q20 0 35.5 -5t32.5 -15q11 -5 22.5 -9.5t22.5 -4.5q21 0 33.5 7t28.5 29l38 -54q-16 -31 -37.5 -46t-55.5 -15q-20 0 -35 5.5t-37 16.5q-28 15 -44 15q-21 0 -34.5 -7.5t-27.5 -28.5zM197 546h-85l108 144h73l108 -144h-85l-59 71z" />
    <glyph glyph-name="adieresis" unicode="&#xe4;" horiz-adv-x="520" 
d="M96 23q-42 37 -42 104q0 158 288 161v14q0 43 -25 67t-70 24q-32 0 -65.5 -13.5t-62.5 -40.5l-54 69q34 36 83 56t105 20q199 0 199 -182v-302h-101l-9 59q-19 -29 -55.5 -51t-85.5 -22q-63 0 -105 37zM342 137v78q-92 -3 -136 -23.5t-44 -59.5q0 -28 18 -43t49 -15
q65 0 113 63zM128 576.5q-16 16.5 -16 44.5q0 27 16 43.5t44 16.5t44.5 -16.5t16.5 -43.5q0 -28 -16.5 -44.5t-44.5 -16.5t-44 16.5zM297 576.5q-16 16.5 -16 44.5q0 27 16 43.5t44 16.5t44.5 -16.5t16.5 -43.5q0 -28 -16.5 -44.5t-44.5 -16.5t-44 16.5z" />
    <glyph glyph-name="uni1EA1" unicode="&#x1ea1;" horiz-adv-x="520" 
d="M96 23q-42 37 -42 104q0 158 288 161v14q0 43 -25 67t-70 24q-32 0 -65.5 -13.5t-62.5 -40.5l-54 69q34 36 83 56t105 20q199 0 199 -182v-302h-101l-9 59q-19 -29 -55.5 -51t-85.5 -22q-63 0 -105 37zM342 137v78q-92 -3 -136 -23.5t-44 -59.5q0 -28 18 -43t49 -15
q65 0 113 63zM215 -153q-17 17 -17 45q0 29 17 46t45 17t45 -17t17 -46q0 -28 -17 -45t-45 -17t-45 17z" />
    <glyph glyph-name="agrave" unicode="&#xe0;" horiz-adv-x="520" 
d="M96 23q-42 37 -42 104q0 158 288 161v14q0 43 -25 67t-70 24q-32 0 -65.5 -13.5t-62.5 -40.5l-54 69q34 36 83 56t105 20q199 0 199 -182v-302h-101l-9 59q-19 -29 -55.5 -51t-85.5 -22q-63 0 -105 37zM342 137v78q-92 -3 -136 -23.5t-44 -59.5q0 -28 18 -43t49 -15
q65 0 113 63zM301 546h-89l-105 144h126z" />
    <glyph glyph-name="uni1EA3" unicode="&#x1ea3;" horiz-adv-x="520" 
d="M96 23q-42 37 -42 104q0 158 288 161v14q0 43 -25 67t-70 24q-32 0 -65.5 -13.5t-62.5 -40.5l-54 69q34 36 83 56t105 20q199 0 199 -182v-302h-101l-9 59q-19 -29 -55.5 -51t-85.5 -22q-63 0 -105 37zM342 137v78q-92 -3 -136 -23.5t-44 -59.5q0 -28 18 -43t49 -15
q65 0 113 63zM254 562q10 21 10 36q0 14 -9 22t-24 8q-21 0 -37 -11l-26 58q14 10 34 17t43 7q50 0 75.5 -22.5t25.5 -62.5q0 -45 -45 -84z" />
    <glyph glyph-name="amacron" unicode="&#x101;" horiz-adv-x="520" 
d="M96 23q-42 37 -42 104q0 158 288 161v14q0 43 -25 67t-70 24q-32 0 -65.5 -13.5t-62.5 -40.5l-54 69q34 36 83 56t105 20q199 0 199 -182v-302h-101l-9 59q-19 -29 -55.5 -51t-85.5 -22q-63 0 -105 37zM342 137v78q-92 -3 -136 -23.5t-44 -59.5q0 -28 18 -43t49 -15
q65 0 113 63zM385 593h-257v85h257v-85z" />
    <glyph glyph-name="aogonek" unicode="&#x105;" horiz-adv-x="520" 
d="M462 -176q-22 -15 -59 -15q-41 0 -67.5 24t-26.5 65q0 34 13.5 58.5t37.5 43.5h-9l-9 59q-19 -29 -55.5 -51t-85.5 -22q-63 0 -105 37t-42 104q0 158 288 161v14q0 43 -25 67t-70 24q-32 0 -65.5 -13.5t-62.5 -40.5l-54 69q34 36 83 56t105 20q199 0 199 -182v-302h1
q-60 -35 -60 -80q0 -15 8 -23.5t21 -8.5q8 0 14.5 2t13.5 5zM342 215q-92 -3 -136 -23.5t-44 -59.5q0 -28 18 -43t49 -15q65 0 113 63v78z" />
    <glyph glyph-name="aring" unicode="&#xe5;" horiz-adv-x="520" 
d="M96 23q-42 37 -42 104q0 158 288 161v14q0 43 -25 67t-70 24q-32 0 -65.5 -13.5t-62.5 -40.5l-54 69q34 36 83 56t105 20q199 0 199 -182v-302h-101l-9 59q-19 -29 -55.5 -51t-85.5 -22q-63 0 -105 37zM342 137v78q-92 -3 -136 -23.5t-44 -59.5q0 -28 18 -43t49 -15
q65 0 113 63zM188 559q-28 27 -28 71t28 71t69 27t69 -27t28 -71t-28 -71t-69 -27t-69 27zM286.5 596q10.5 12 10.5 34t-10.5 34t-29.5 12t-29.5 -12t-10.5 -34t10.5 -34t29.5 -12t29.5 12z" />
    <glyph glyph-name="atilde" unicode="&#xe3;" horiz-adv-x="520" 
d="M96 23q-42 37 -42 104q0 158 288 161v14q0 43 -25 67t-70 24q-32 0 -65.5 -13.5t-62.5 -40.5l-54 69q34 36 83 56t105 20q199 0 199 -182v-302h-101l-9 59q-19 -29 -55.5 -51t-85.5 -22q-63 0 -105 37zM342 137v78q-92 -3 -136 -23.5t-44 -59.5q0 -28 18 -43t49 -15
q65 0 113 63zM286 585.5q-15 5.5 -37 16.5q-28 15 -44 15q-20 0 -34 -8t-28 -28l-44 45q35 67 102 67q20 0 35.5 -5t32.5 -15q11 -5 22.5 -9.5t22.5 -4.5q21 0 33.5 7t28.5 29l39 -54q-17 -31 -38.5 -46t-55.5 -15q-20 0 -35 5.5z" />
    <glyph glyph-name="ae" unicode="&#xe6;" horiz-adv-x="825" 
d="M96 23q-42 37 -42 104q0 154 288 157v18q0 43 -25 67t-70 24q-32 0 -65.5 -13.5t-62.5 -40.5l-54 69q34 36 83 56t105 20q114 0 163 -67q28 32 68.5 49.5t87.5 17.5q103 0 158 -64.5t55 -172.5q0 -13 -2 -41h-328q7 -60 42 -95t91 -35q39 0 69 15.5t55 45.5l63 -68
q-35 -42 -80 -62.5t-110 -20.5q-63 0 -112.5 25.5t-78.5 72.5q-63 -98 -193 -98q-63 0 -105 37zM685 286q-4 55 -34 82t-80 27q-46 0 -76 -28.5t-39 -80.5h229zM342 137v70q-92 -3 -136 -21.5t-44 -53.5q0 -28 18 -43t49 -15q67 0 113 63z" />
    <glyph glyph-name="aeacute" unicode="&#x1fd;" horiz-adv-x="825" 
d="M96 23q-42 37 -42 104q0 154 288 157v18q0 43 -25 67t-70 24q-32 0 -65.5 -13.5t-62.5 -40.5l-54 69q34 36 83 56t105 20q114 0 163 -67q28 32 68.5 49.5t87.5 17.5q103 0 158 -64.5t55 -172.5q0 -13 -2 -41h-328q7 -60 42 -95t91 -35q39 0 69 15.5t55 45.5l63 -68
q-35 -42 -80 -62.5t-110 -20.5q-63 0 -112.5 25.5t-78.5 72.5q-63 -98 -193 -98q-63 0 -105 37zM685 286q-4 55 -34 82t-80 27q-46 0 -76 -28.5t-39 -80.5h229zM342 137v70q-92 -3 -136 -21.5t-44 -53.5q0 -28 18 -43t49 -15q67 0 113 63zM457 546h-89l69 144h125z" />
    <glyph glyph-name="b" unicode="b" horiz-adv-x="557" 
d="M230 3.5q-35 17.5 -59 48.5l-7 -52h-95v730h110v-297q49 51 130 51q56 0 103 -29t75 -85t28 -135t-28 -135t-75 -85t-103 -29q-44 0 -79 17.5zM368.5 120.5q35.5 40.5 35.5 114.5t-35.5 114.5t-87.5 40.5q-62 0 -102 -57v-196q41 -57 102 -57q52 0 87.5 40.5z" />
    <glyph glyph-name="c" unicode="c" horiz-adv-x="508" 
d="M157 15q-53 29 -84 85.5t-31 135.5q0 80 31.5 135.5t85 84t118.5 28.5q135 0 194 -109l-84 -59q-19 35 -45.5 54t-66.5 19q-54 0 -88 -39.5t-34 -113.5q0 -75 34 -115t88 -40q44 0 72 20.5t48 56.5l79 -62q-29 -52 -80.5 -81t-118.5 -29q-65 0 -118 29z" />
    <glyph glyph-name="cacute" unicode="&#x107;" horiz-adv-x="508" 
d="M157 15q-53 29 -84 85.5t-31 135.5q0 80 31.5 135.5t85 84t118.5 28.5q135 0 194 -109l-84 -59q-19 35 -45.5 54t-66.5 19q-54 0 -88 -39.5t-34 -113.5q0 -75 34 -115t88 -40q44 0 72 20.5t48 56.5l79 -62q-29 -52 -80.5 -81t-118.5 -29q-65 0 -118 29zM320 546h-89
l69 144h125z" />
    <glyph glyph-name="ccaron" unicode="&#x10d;" horiz-adv-x="508" 
d="M157 15q-53 29 -84 85.5t-31 135.5q0 80 31.5 135.5t85 84t118.5 28.5q135 0 194 -109l-84 -59q-19 35 -45.5 54t-66.5 19q-54 0 -88 -39.5t-34 -113.5q0 -75 34 -115t88 -40q44 0 72 20.5t48 56.5l79 -62q-29 -52 -80.5 -81t-118.5 -29q-65 0 -118 29zM312 546h-73
l-108 144h85l60 -71l59 71h85z" />
    <glyph glyph-name="ccedilla" unicode="&#xe7;" horiz-adv-x="508" 
d="M474 96q-26 -45 -69.5 -73.5t-99.5 -34.5l-28 -40q42 0 65.5 -19t23.5 -55q0 -37 -24.5 -58.5t-73.5 -21.5q-44 0 -81 17l24 52q26 -12 53 -12q13 0 20.5 6t7.5 17t-7.5 17t-20.5 6q-12 0 -26 -6l-38 28l33 70q-85 13 -138 77.5t-53 169.5q0 80 31.5 135.5t85 84
t118.5 28.5q135 0 194 -109l-84 -59q-19 35 -45.5 54t-66.5 19q-54 0 -88 -39.5t-34 -113.5q0 -75 34 -115t88 -40q44 0 72 20.5t48 56.5z" />
    <glyph glyph-name="ccircumflex" unicode="&#x109;" horiz-adv-x="508" 
d="M157 15q-53 29 -84 85.5t-31 135.5q0 80 31.5 135.5t85 84t118.5 28.5q135 0 194 -109l-84 -59q-19 35 -45.5 54t-66.5 19q-54 0 -88 -39.5t-34 -113.5q0 -75 34 -115t88 -40q44 0 72 20.5t48 56.5l79 -62q-29 -52 -80.5 -81t-118.5 -29q-65 0 -118 29zM216 546h-85
l108 144h73l108 -144h-85l-59 71z" />
    <glyph glyph-name="cdotaccent" unicode="&#x10b;" horiz-adv-x="508" 
d="M157 15q-53 29 -84 85.5t-31 135.5q0 80 31.5 135.5t85 84t118.5 28.5q135 0 194 -109l-84 -59q-19 35 -45.5 54t-66.5 19q-54 0 -88 -39.5t-34 -113.5q0 -75 34 -115t88 -40q44 0 72 20.5t48 56.5l79 -62q-29 -52 -80.5 -81t-118.5 -29q-65 0 -118 29zM227 580.5
q-18 18.5 -18 48.5q0 31 18 49.5t49 18.5t49.5 -18.5t18.5 -49.5q0 -30 -18.5 -48.5t-49.5 -18.5t-49 18.5z" />
    <glyph glyph-name="d" unicode="d" horiz-adv-x="557" 
d="M145 15q-47 29 -75 85t-28 135t28 135t75 85t103 29q41 0 74 -13.5t55 -37.5v297h110v-730h-94l-8 52q-24 -31 -58.5 -48.5t-78.5 -17.5q-56 0 -103 29zM377 137v196q-40 57 -101 57q-53 0 -88 -40.5t-35 -114.5t35 -114.5t88 -40.5q60 0 101 57z" />
    <glyph glyph-name="eth" unicode="&#xf0;" horiz-adv-x="543" 
d="M401 590q95 -119 95 -302q0 -145 -61 -223.5t-175 -78.5q-61 0 -110 26.5t-78 78t-29 124.5q0 72 28.5 124t76 78.5t103.5 26.5q84 0 128 -57q-15 86 -80 157l-150 -67l-31 72l117 52q-39 27 -87 48l72 76q72 -34 123 -76l117 52l32 -71zM357 129q29 49 29 151
q-20 33 -49 51.5t-66 18.5q-50 0 -83.5 -36t-33.5 -99q0 -64 33.5 -99.5t81.5 -35.5q59 0 88 49z" />
    <glyph glyph-name="dcaron" unicode="&#x10f;" horiz-adv-x="702" 
d="M145 15q-47 29 -75 85t-28 135t28 135t75 85t103 29q41 0 74 -13.5t55 -37.5v297h110v-730h-94l-8 52q-24 -31 -58.5 -48.5t-78.5 -17.5q-56 0 -103 29zM377 137v196q-40 57 -101 57q-53 0 -88 -40.5t-35 -114.5t35 -114.5t88 -40.5q60 0 101 57zM557 478q64 44 76 86
q-31 0 -49 18.5t-18 48.5t18.5 48.5t48.5 18.5q31 0 50.5 -22t19.5 -63q0 -59 -26 -102t-67 -77z" />
    <glyph glyph-name="dcroat" unicode="&#x111;" horiz-adv-x="557" 
d="M554 644v-87h-67v-557h-94l-8 52q-23 -31 -58 -48.5t-79 -17.5q-56 0 -103 29t-75 85t-28 135t28 135t75 85t103 29q78 0 129 -51v124h-144v87h144v86h110v-86h67zM377 136v198q-40 56 -101 56q-53 0 -88 -40.5t-35 -114.5t35 -114.5t88 -40.5q59 0 101 56z" />
    <glyph glyph-name="e" unicode="e" horiz-adv-x="521" 
d="M155 16q-54 30 -83.5 86t-29.5 133t30 133.5t81.5 86t114.5 29.5q103 0 158 -64.5t55 -172.5q0 -13 -2 -41h-328q8 -61 42.5 -95.5t90.5 -34.5q39 0 69 15.5t55 45.5l64 -68q-36 -42 -81 -62.5t-110 -20.5q-72 0 -126 30zM381 286q-4 55 -34 82t-80 27q-46 0 -75.5 -28.5
t-38.5 -80.5h228z" />
    <glyph glyph-name="eacute" unicode="&#xe9;" horiz-adv-x="521" 
d="M155 16q-54 30 -83.5 86t-29.5 133t30 133.5t81.5 86t114.5 29.5q103 0 158 -64.5t55 -172.5q0 -13 -2 -41h-328q8 -61 42.5 -95.5t90.5 -34.5q39 0 69 15.5t55 45.5l64 -68q-36 -42 -81 -62.5t-110 -20.5q-72 0 -126 30zM381 286q-4 55 -34 82t-80 27q-46 0 -75.5 -28.5
t-38.5 -80.5h228zM309 546h-89l69 144h125z" />
    <glyph glyph-name="ebreve" unicode="&#x115;" horiz-adv-x="521" 
d="M155 16q-54 30 -83.5 86t-29.5 133t30 133.5t81.5 86t114.5 29.5q103 0 158 -64.5t55 -172.5q0 -13 -2 -41h-328q8 -61 42.5 -95.5t90.5 -34.5q39 0 69 15.5t55 45.5l64 -68q-36 -42 -81 -62.5t-110 -20.5q-72 0 -126 30zM381 286q-4 55 -34 82t-80 27q-46 0 -75.5 -28.5
t-38.5 -80.5h228zM166 584q-37 38 -37 106h77q0 -34 15 -54t44 -20t44 20t15 54h77q0 -68 -37 -106t-99 -38t-99 38z" />
    <glyph glyph-name="ecaron" unicode="&#x11b;" horiz-adv-x="521" 
d="M155 16q-54 30 -83.5 86t-29.5 133t30 133.5t81.5 86t114.5 29.5q103 0 158 -64.5t55 -172.5q0 -13 -2 -41h-328q8 -61 42.5 -95.5t90.5 -34.5q39 0 69 15.5t55 45.5l64 -68q-36 -42 -81 -62.5t-110 -20.5q-72 0 -126 30zM381 286q-4 55 -34 82t-80 27q-46 0 -75.5 -28.5
t-38.5 -80.5h228zM301 546h-73l-108 144h85l60 -71l59 71h85z" />
    <glyph glyph-name="ecircumflex" unicode="&#xea;" horiz-adv-x="521" 
d="M155 16q-54 30 -83.5 86t-29.5 133t30 133.5t81.5 86t114.5 29.5q103 0 158 -64.5t55 -172.5q0 -13 -2 -41h-328q8 -61 42.5 -95.5t90.5 -34.5q39 0 69 15.5t55 45.5l64 -68q-36 -42 -81 -62.5t-110 -20.5q-72 0 -126 30zM381 286q-4 55 -34 82t-80 27q-46 0 -75.5 -28.5
t-38.5 -80.5h228zM205 546h-85l108 144h73l108 -144h-85l-59 71z" />
    <glyph glyph-name="uni1EBF" unicode="&#x1ebf;" horiz-adv-x="521" 
d="M155 16q-54 30 -83.5 86t-29.5 133t30 133.5t81.5 86t114.5 29.5q103 0 158 -64.5t55 -172.5q0 -13 -2 -41h-328q8 -61 42.5 -95.5t90.5 -34.5q39 0 69 15.5t55 45.5l64 -68q-36 -42 -81 -62.5t-110 -20.5q-72 0 -126 30zM381 286q-4 55 -34 82t-80 27q-46 0 -75.5 -28.5
t-38.5 -80.5h228zM414 690h-77l49 144h111zM205 546h-85l108 144h73l108 -144h-85l-59 71z" />
    <glyph glyph-name="uni1EC7" unicode="&#x1ec7;" horiz-adv-x="521" 
d="M155 16q-54 30 -83.5 86t-29.5 133t30 133.5t81.5 86t114.5 29.5q103 0 158 -64.5t55 -172.5q0 -13 -2 -41h-328q8 -61 42.5 -95.5t90.5 -34.5q39 0 69 15.5t55 45.5l64 -68q-36 -42 -81 -62.5t-110 -20.5q-72 0 -126 30zM381 286q-4 55 -34 82t-80 27q-46 0 -75.5 -28.5
t-38.5 -80.5h228zM216 -153q-17 17 -17 45q0 29 17 46t45 17t45 -17t17 -46q0 -28 -17 -45t-45 -17t-45 17zM205 546h-85l108 144h73l108 -144h-85l-59 71z" />
    <glyph glyph-name="uni1EC1" unicode="&#x1ec1;" horiz-adv-x="521" 
d="M155 16q-54 30 -83.5 86t-29.5 133t30 133.5t81.5 86t114.5 29.5q103 0 158 -64.5t55 -172.5q0 -13 -2 -41h-328q8 -61 42.5 -95.5t90.5 -34.5q39 0 69 15.5t55 45.5l64 -68q-36 -42 -81 -62.5t-110 -20.5q-72 0 -126 30zM381 286q-4 55 -34 82t-80 27q-46 0 -75.5 -28.5
t-38.5 -80.5h228zM431 690h-77l-83 144h111zM205 546h-85l108 144h73l108 -144h-85l-59 71z" />
    <glyph glyph-name="uni1EC3" unicode="&#x1ec3;" horiz-adv-x="521" 
d="M155 16q-54 30 -83.5 86t-29.5 133t30 133.5t81.5 86t114.5 29.5q103 0 158 -64.5t55 -172.5q0 -13 -2 -41h-328q8 -61 42.5 -95.5t90.5 -34.5q39 0 69 15.5t55 45.5l64 -68q-36 -42 -81 -62.5t-110 -20.5q-72 0 -126 30zM381 286q-4 55 -34 82t-80 27q-46 0 -75.5 -28.5
t-38.5 -80.5h228zM339 701q11 19 11 36q0 14 -9 22t-24 8q-20 0 -37 -11l-27 58q33 24 77 24q50 0 76 -22.5t26 -62.5q0 -45 -45 -84zM205 546h-85l108 144h73l108 -144h-85l-59 71z" />
    <glyph glyph-name="uni1EC5" unicode="&#x1ec5;" horiz-adv-x="521" 
d="M155 16q-54 30 -83.5 86t-29.5 133t30 133.5t81.5 86t114.5 29.5q103 0 158 -64.5t55 -172.5q0 -13 -2 -41h-328q8 -61 42.5 -95.5t90.5 -34.5q39 0 69 15.5t55 45.5l64 -68q-36 -42 -81 -62.5t-110 -20.5q-72 0 -126 30zM381 286q-4 55 -34 82t-80 27q-46 0 -75.5 -28.5
t-38.5 -80.5h228zM107 770q33 67 102 67q20 0 35.5 -5t32.5 -15q11 -5 22.5 -9.5t22.5 -4.5q21 0 33.5 7t28.5 29l38 -54q-16 -31 -37.5 -46t-55.5 -15q-20 0 -35 5.5t-37 16.5q-28 15 -44 15q-21 0 -34.5 -7.5t-27.5 -28.5zM205 546h-85l108 144h73l108 -144h-85l-59 71z
" />
    <glyph glyph-name="edieresis" unicode="&#xeb;" horiz-adv-x="521" 
d="M155 16q-54 30 -83.5 86t-29.5 133t30 133.5t81.5 86t114.5 29.5q103 0 158 -64.5t55 -172.5q0 -13 -2 -41h-328q8 -61 42.5 -95.5t90.5 -34.5q39 0 69 15.5t55 45.5l64 -68q-36 -42 -81 -62.5t-110 -20.5q-72 0 -126 30zM381 286q-4 55 -34 82t-80 27q-46 0 -75.5 -28.5
t-38.5 -80.5h228zM136 576.5q-16 16.5 -16 44.5q0 27 16 43.5t44 16.5t44.5 -16.5t16.5 -43.5q0 -28 -16.5 -44.5t-44.5 -16.5t-44 16.5zM305 576.5q-16 16.5 -16 44.5q0 27 16 43.5t44 16.5t44.5 -16.5t16.5 -43.5q0 -28 -16.5 -44.5t-44.5 -16.5t-44 16.5z" />
    <glyph glyph-name="edotaccent" unicode="&#x117;" horiz-adv-x="521" 
d="M155 16q-54 30 -83.5 86t-29.5 133t30 133.5t81.5 86t114.5 29.5q103 0 158 -64.5t55 -172.5q0 -13 -2 -41h-328q8 -61 42.5 -95.5t90.5 -34.5q39 0 69 15.5t55 45.5l64 -68q-36 -42 -81 -62.5t-110 -20.5q-72 0 -126 30zM381 286q-4 55 -34 82t-80 27q-46 0 -75.5 -28.5
t-38.5 -80.5h228zM216 580.5q-18 18.5 -18 48.5q0 31 18 49.5t49 18.5t49.5 -18.5t18.5 -49.5q0 -30 -18.5 -48.5t-49.5 -18.5t-49 18.5z" />
    <glyph glyph-name="uni1EB9" unicode="&#x1eb9;" horiz-adv-x="521" 
d="M155 16q-54 30 -83.5 86t-29.5 133t30 133.5t81.5 86t114.5 29.5q103 0 158 -64.5t55 -172.5q0 -13 -2 -41h-328q8 -61 42.5 -95.5t90.5 -34.5q39 0 69 15.5t55 45.5l64 -68q-36 -42 -81 -62.5t-110 -20.5q-72 0 -126 30zM381 286q-4 55 -34 82t-80 27q-46 0 -75.5 -28.5
t-38.5 -80.5h228zM216 -153q-17 17 -17 45q0 29 17 46t45 17t45 -17t17 -46q0 -28 -17 -45t-45 -17t-45 17z" />
    <glyph glyph-name="egrave" unicode="&#xe8;" horiz-adv-x="521" 
d="M155 16q-54 30 -83.5 86t-29.5 133t30 133.5t81.5 86t114.5 29.5q103 0 158 -64.5t55 -172.5q0 -13 -2 -41h-328q8 -61 42.5 -95.5t90.5 -34.5q39 0 69 15.5t55 45.5l64 -68q-36 -42 -81 -62.5t-110 -20.5q-72 0 -126 30zM381 286q-4 55 -34 82t-80 27q-46 0 -75.5 -28.5
t-38.5 -80.5h228zM309 546h-89l-105 144h126z" />
    <glyph glyph-name="uni1EBB" unicode="&#x1ebb;" horiz-adv-x="521" 
d="M155 16q-54 30 -83.5 86t-29.5 133t30 133.5t81.5 86t114.5 29.5q103 0 158 -64.5t55 -172.5q0 -13 -2 -41h-328q8 -61 42.5 -95.5t90.5 -34.5q39 0 69 15.5t55 45.5l64 -68q-36 -42 -81 -62.5t-110 -20.5q-72 0 -126 30zM381 286q-4 55 -34 82t-80 27q-46 0 -75.5 -28.5
t-38.5 -80.5h228zM262 562q10 21 10 36q0 14 -9 22t-24 8q-21 0 -37 -11l-26 58q14 10 34 17t43 7q50 0 75.5 -22.5t25.5 -62.5q0 -45 -45 -84z" />
    <glyph glyph-name="emacron" unicode="&#x113;" horiz-adv-x="521" 
d="M155 16q-54 30 -83.5 86t-29.5 133t30 133.5t81.5 86t114.5 29.5q103 0 158 -64.5t55 -172.5q0 -13 -2 -41h-328q8 -61 42.5 -95.5t90.5 -34.5q39 0 69 15.5t55 45.5l64 -68q-36 -42 -81 -62.5t-110 -20.5q-72 0 -126 30zM381 286q-4 55 -34 82t-80 27q-46 0 -75.5 -28.5
t-38.5 -80.5h228zM393 593h-257v85h257v-85z" />
    <glyph glyph-name="eogonek" unicode="&#x119;" horiz-adv-x="521" 
d="M426 419.5q55 -64.5 55 -172.5q0 -13 -2 -41h-328q8 -61 42.5 -95.5t90.5 -34.5q39 0 69 15.5t55 45.5l64 -68q-45 -51 -99 -69q-59 -36 -59 -80q0 -15 8 -23.5t21 -8.5q8 0 14.5 2t13.5 5l12 -71q-22 -15 -59 -15q-41 0 -67.5 24t-26.5 65q0 54 36 88
q-103 5 -163.5 71.5t-60.5 177.5q0 77 30 133.5t81.5 86t114.5 29.5q103 0 158 -64.5zM381 286q-4 55 -34 82t-80 27q-46 0 -75.5 -28.5t-38.5 -80.5h228z" />
    <glyph glyph-name="uni1EBD" unicode="&#x1ebd;" horiz-adv-x="521" 
d="M155 16q-54 30 -83.5 86t-29.5 133t30 133.5t81.5 86t114.5 29.5q103 0 158 -64.5t55 -172.5q0 -13 -2 -41h-328q8 -61 42.5 -95.5t90.5 -34.5q39 0 69 15.5t55 45.5l64 -68q-36 -42 -81 -62.5t-110 -20.5q-72 0 -126 30zM381 286q-4 55 -34 82t-80 27q-46 0 -75.5 -28.5
t-38.5 -80.5h228zM294 585.5q-15 5.5 -37 16.5q-28 15 -44 15q-20 0 -34 -8t-28 -28l-44 45q35 67 102 67q20 0 35.5 -5t32.5 -15q11 -5 22.5 -9.5t22.5 -4.5q21 0 33.5 7t28.5 29l39 -54q-17 -31 -38.5 -46t-55.5 -15q-20 0 -35 5.5z" />
    <glyph glyph-name="f" unicode="f" horiz-adv-x="357" 
d="M102 0v376h-84v94h84v111q0 80 42.5 121.5t123.5 41.5q40 0 77 -13v-96q-34 15 -67 15q-37 0 -51.5 -18t-14.5 -52v-110h120v-94h-120v-376h-110z" />
    <glyph glyph-name="g" unicode="g" horiz-adv-x="513" 
d="M86 -167.5q-60 36.5 -60 103.5q0 60 56 92q-32 29 -32 75q0 64 63 95q-24 22 -36.5 53t-12.5 66q0 73 49.5 120t134.5 47q57 0 97 -26l76 88l67 -72l-84 -67q26 -40 26 -90q0 -73 -49 -120t-134 -47q-44 0 -82 16q-25 -17 -25 -41q0 -22 16.5 -33.5t53.5 -11.5h127
q56 0 97 -29.5t41 -89.5q0 -80 -60.5 -122.5t-165.5 -42.5q-103 0 -163 36.5zM306.5 253.5q21.5 23.5 21.5 63.5t-21.5 63.5t-58.5 23.5q-38 0 -60 -23.5t-22 -63.5t21.5 -63.5t59.5 -23.5t59.5 23.5zM378 -52q0 22 -15 33t-40 11h-129q-33 0 -55 7q-17 -19 -17 -46
q0 -37 32.5 -57t94.5 -20q129 0 129 72z" />
    <glyph glyph-name="gbreve" unicode="&#x11f;" horiz-adv-x="513" 
d="M86 -167.5q-60 36.5 -60 103.5q0 60 56 92q-32 29 -32 75q0 64 63 95q-24 22 -36.5 53t-12.5 66q0 73 49.5 120t134.5 47q57 0 97 -26l76 88l67 -72l-84 -67q26 -40 26 -90q0 -73 -49 -120t-134 -47q-44 0 -82 16q-25 -17 -25 -41q0 -22 16.5 -33.5t53.5 -11.5h127
q56 0 97 -29.5t41 -89.5q0 -80 -60.5 -122.5t-165.5 -42.5q-103 0 -163 36.5zM306.5 253.5q21.5 23.5 21.5 63.5t-21.5 63.5t-58.5 23.5q-38 0 -60 -23.5t-22 -63.5t21.5 -63.5t59.5 -23.5t59.5 23.5zM378 -52q0 22 -15 33t-40 11h-129q-33 0 -55 7q-17 -19 -17 -46
q0 -37 32.5 -57t94.5 -20q129 0 129 72zM158 584q-37 38 -37 106h77q0 -34 15 -54t44 -20t44 20t15 54h77q0 -68 -37 -106t-99 -38t-99 38z" />
    <glyph glyph-name="gcircumflex" unicode="&#x11d;" horiz-adv-x="513" 
d="M86 -167.5q-60 36.5 -60 103.5q0 60 56 92q-32 29 -32 75q0 64 63 95q-24 22 -36.5 53t-12.5 66q0 73 49.5 120t134.5 47q57 0 97 -26l76 88l67 -72l-84 -67q26 -40 26 -90q0 -73 -49 -120t-134 -47q-44 0 -82 16q-25 -17 -25 -41q0 -22 16.5 -33.5t53.5 -11.5h127
q56 0 97 -29.5t41 -89.5q0 -80 -60.5 -122.5t-165.5 -42.5q-103 0 -163 36.5zM306.5 253.5q21.5 23.5 21.5 63.5t-21.5 63.5t-58.5 23.5q-38 0 -60 -23.5t-22 -63.5t21.5 -63.5t59.5 -23.5t59.5 23.5zM378 -52q0 22 -15 33t-40 11h-129q-33 0 -55 7q-17 -19 -17 -46
q0 -37 32.5 -57t94.5 -20q129 0 129 72zM197 546h-85l108 144h73l108 -144h-85l-59 71z" />
    <glyph glyph-name="uni0123" unicode="&#x123;" horiz-adv-x="513" 
d="M86 -167.5q-60 36.5 -60 103.5q0 60 56 92q-32 29 -32 75q0 64 63 95q-24 22 -36.5 53t-12.5 66q0 73 49.5 120t134.5 47q57 0 97 -26l76 88l67 -72l-84 -67q26 -40 26 -90q0 -73 -49 -120t-134 -47q-44 0 -82 16q-25 -17 -25 -41q0 -22 16.5 -33.5t53.5 -11.5h127
q56 0 97 -29.5t41 -89.5q0 -80 -60.5 -122.5t-165.5 -42.5q-103 0 -163 36.5zM306.5 253.5q21.5 23.5 21.5 63.5t-21.5 63.5t-58.5 23.5q-38 0 -60 -23.5t-22 -63.5t21.5 -63.5t59.5 -23.5t59.5 23.5zM378 -52q0 22 -15 33t-40 11h-129q-33 0 -55 7q-17 -19 -17 -46
q0 -37 32.5 -57t94.5 -20q129 0 129 72zM217.5 553q-14.5 16 -14.5 47q0 40 21 65.5t53 33.5l34 -35q-22 -8 -34 -16t-16 -20q20 0 33.5 -13t13.5 -33t-14.5 -32.5t-35.5 -12.5q-26 0 -40.5 16z" />
    <glyph glyph-name="gdotaccent" unicode="&#x121;" horiz-adv-x="513" 
d="M86 -167.5q-60 36.5 -60 103.5q0 60 56 92q-32 29 -32 75q0 64 63 95q-24 22 -36.5 53t-12.5 66q0 73 49.5 120t134.5 47q57 0 97 -26l76 88l67 -72l-84 -67q26 -40 26 -90q0 -73 -49 -120t-134 -47q-44 0 -82 16q-25 -17 -25 -41q0 -22 16.5 -33.5t53.5 -11.5h127
q56 0 97 -29.5t41 -89.5q0 -80 -60.5 -122.5t-165.5 -42.5q-103 0 -163 36.5zM306.5 253.5q21.5 23.5 21.5 63.5t-21.5 63.5t-58.5 23.5q-38 0 -60 -23.5t-22 -63.5t21.5 -63.5t59.5 -23.5t59.5 23.5zM378 -52q0 22 -15 33t-40 11h-129q-33 0 -55 7q-17 -19 -17 -46
q0 -37 32.5 -57t94.5 -20q129 0 129 72zM208 580.5q-18 18.5 -18 48.5q0 31 18 49.5t49 18.5t49.5 -18.5t18.5 -49.5q0 -30 -18.5 -48.5t-49.5 -18.5t-49 18.5z" />
    <glyph glyph-name="h" unicode="h" horiz-adv-x="550" 
d="M69 0v730h110v-326q20 35 57 57.5t86 22.5q74 0 116.5 -45.5t42.5 -122.5v-316h-110v304q0 41 -21.5 64t-60.5 23q-35 0 -63.5 -18.5t-46.5 -52.5v-320h-110z" />
    <glyph glyph-name="hbar" unicode="&#x127;" horiz-adv-x="550" 
d="M438.5 438.5q42.5 -45.5 42.5 -122.5v-316h-110v304q0 41 -21.5 64t-60.5 23q-35 0 -63.5 -18.5t-46.5 -52.5v-320h-110v557h-67v87h67v86h110v-86h145v-87h-145v-153q20 35 57 57.5t86 22.5q74 0 116.5 -45.5z" />
    <glyph glyph-name="hcircumflex" unicode="&#x125;" horiz-adv-x="550" 
d="M69 0v730h110v-326q20 35 57 57.5t86 22.5q74 0 116.5 -45.5t42.5 -122.5v-316h-110v304q0 41 -21.5 64t-60.5 23q-35 0 -63.5 -18.5t-46.5 -52.5v-320h-110zM64 806h-85l108 144h73l108 -144h-85l-59 71z" />
    <glyph glyph-name="i" unicode="i" horiz-adv-x="248" 
d="M75 580.5q-18 18.5 -18 48.5q0 31 18 49.5t49 18.5t49.5 -18.5t18.5 -49.5q0 -30 -18.5 -48.5t-49.5 -18.5t-49 18.5zM179 0h-110v470h110v-470z" />
    <glyph glyph-name="dotlessi" unicode="&#x131;" horiz-adv-x="248" 
d="M179 0h-110v470h110v-470z" />
    <glyph glyph-name="iacute" unicode="&#xed;" horiz-adv-x="248" 
d="M179 0h-110v470h110v-470zM168 546h-89l69 144h125z" />
    <glyph glyph-name="ibreve" unicode="&#x12d;" horiz-adv-x="248" 
d="M179 0h-110v470h110v-470zM25 584q-37 38 -37 106h77q0 -34 15 -54t44 -20t44 20t15 54h77q0 -68 -37 -106t-99 -38t-99 38z" />
    <glyph glyph-name="icircumflex" unicode="&#xee;" horiz-adv-x="248" 
d="M179 0h-110v470h110v-470zM64 546h-85l108 144h73l108 -144h-85l-59 71z" />
    <glyph glyph-name="idieresis" unicode="&#xef;" horiz-adv-x="248" 
d="M179 0h-110v470h110v-470zM-5 576.5q-16 16.5 -16 44.5q0 27 16 43.5t44 16.5t44.5 -16.5t16.5 -43.5q0 -28 -16.5 -44.5t-44.5 -16.5t-44 16.5zM164 576.5q-16 16.5 -16 44.5q0 27 16 43.5t44 16.5t44.5 -16.5t16.5 -43.5q0 -28 -16.5 -44.5t-44.5 -16.5t-44 16.5z" />
    <glyph glyph-name="i.locl" horiz-adv-x="248" 
d="M179 0h-110v470h110v-470zM75 580.5q-18 18.5 -18 48.5q0 31 18 49.5t49 18.5t49.5 -18.5t18.5 -49.5q0 -30 -18.5 -48.5t-49.5 -18.5t-49 18.5z" />
    <glyph glyph-name="uni1ECB" unicode="&#x1ecb;" horiz-adv-x="248" 
d="M75 580.5q-18 18.5 -18 48.5q0 31 18 49.5t49 18.5t49.5 -18.5t18.5 -49.5q0 -30 -18.5 -48.5t-49.5 -18.5t-49 18.5zM179 0h-110v470h110v-470zM79 -153q-17 17 -17 45q0 29 17 46t45 17t45 -17t17 -46q0 -28 -17 -45t-45 -17t-45 17z" />
    <glyph glyph-name="igrave" unicode="&#xec;" horiz-adv-x="248" 
d="M179 0h-110v470h110v-470zM168 546h-89l-105 144h126z" />
    <glyph glyph-name="uni1EC9" unicode="&#x1ec9;" horiz-adv-x="248" 
d="M179 0h-110v470h110v-470zM121 562q10 21 10 36q0 14 -9 22t-24 8q-21 0 -37 -11l-26 58q14 10 34 17t43 7q50 0 75.5 -22.5t25.5 -62.5q0 -45 -45 -84z" />
    <glyph glyph-name="ij" unicode="&#x133;" horiz-adv-x="497" 
d="M75 580.5q-18 18.5 -18 48.5q0 31 18 49.5t49 18.5t49.5 -18.5t18.5 -49.5q0 -30 -18.5 -48.5t-49.5 -18.5t-49 18.5zM179 0h-110v470h110v-470zM323 580.5q-18 18.5 -18 48.5q0 31 18 49.5t49 18.5t49.5 -18.5t18.5 -49.5q0 -30 -18.5 -48.5t-49.5 -18.5t-49 18.5z
M234 -200v106q15 -9 37 -9t34 16.5t12 48.5v508h110v-516q0 -74 -39.5 -116t-109.5 -42q-28 0 -44 4z" />
    <glyph glyph-name="imacron" unicode="&#x12b;" horiz-adv-x="248" 
d="M179 0h-110v470h110v-470zM252 593h-257v85h257v-85z" />
    <glyph glyph-name="iogonek" unicode="&#x12f;" horiz-adv-x="248" 
d="M75 580.5q-18 18.5 -18 48.5q0 31 18 49.5t49 18.5t49.5 -18.5t18.5 -49.5q0 -30 -18.5 -48.5t-49.5 -18.5t-49 18.5zM163.5 -110q6.5 2 13.5 5l12 -71q-22 -15 -59 -15q-41 0 -67.5 24t-26.5 65q0 34 13.5 58.5t37.5 43.5h-18v470h110v-470h1q-60 -35 -60 -80
q0 -15 8 -23.5t21 -8.5q8 0 14.5 2z" />
    <glyph glyph-name="itilde" unicode="&#x129;" horiz-adv-x="248" 
d="M179 0h-110v470h110v-470zM153 585.5q-15 5.5 -37 16.5q-28 15 -44 15q-20 0 -34 -8t-28 -28l-44 45q35 67 102 67q20 0 35.5 -5t32.5 -15q11 -5 22.5 -9.5t22.5 -4.5q21 0 33.5 7t28.5 29l39 -54q-17 -31 -38.5 -46t-55.5 -15q-20 0 -35 5.5z" />
    <glyph glyph-name="j" unicode="j" horiz-adv-x="248" 
d="M75 580.5q-18 18.5 -18 48.5q0 31 18 49.5t49 18.5t49.5 -18.5t18.5 -49.5q0 -30 -18.5 -48.5t-49.5 -18.5t-49 18.5zM-14 -200v106q15 -9 37 -9t34 16.5t12 48.5v508h110v-516q0 -74 -39.5 -116t-109.5 -42q-28 0 -44 4z" />
    <glyph glyph-name="uni0237" unicode="&#x237;" horiz-adv-x="248" 
d="M-14 -200v106q15 -9 37 -9t34 16.5t12 48.5v508h110v-516q0 -74 -39.5 -116t-109.5 -42q-28 0 -44 4z" />
    <glyph glyph-name="jcircumflex" unicode="&#x135;" horiz-adv-x="248" 
d="M-14 -200v106q15 -9 37 -9t34 16.5t12 48.5v508h110v-516q0 -74 -39.5 -116t-109.5 -42q-28 0 -44 4zM64 546h-85l108 144h73l108 -144h-85l-59 71z" />
    <glyph glyph-name="k" unicode="k" horiz-adv-x="511" 
d="M69 0v730h110v-419l170 159h134l-182 -172q121 -138 185 -298h-123q-45 127 -136 227l-48 -45v-182h-110z" />
    <glyph glyph-name="uni0137" unicode="&#x137;" horiz-adv-x="511" 
d="M69 0v730h110v-419l170 159h134l-182 -172q121 -138 185 -298h-123q-45 127 -136 227l-48 -45v-182h-110zM200 -178q22 8 34 16t17 20q-21 0 -34 13t-13 33t15 32.5t37 12.5q26 0 41.5 -15t15.5 -43q0 -41 -21 -65.5t-58 -38.5z" />
    <glyph glyph-name="kgreenlandic" unicode="&#x138;" horiz-adv-x="511" 
d="M363 0q-47 131 -137 227l-47 -45v-182h-110v470h110v-160l170 160h134l-181 -172q121 -139 184 -298h-123z" />
    <glyph glyph-name="l" unicode="l" horiz-adv-x="284" 
d="M69 134v596h110v-587q0 -31 10.5 -44.5t34.5 -13.5q22 0 34 9v-94q-22 -12 -58 -12q-131 0 -131 146z" />
    <glyph glyph-name="lacute" unicode="&#x13a;" horiz-adv-x="284" 
d="M69 134v596h110v-587q0 -31 10.5 -44.5t34.5 -13.5q22 0 34 9v-94q-22 -12 -58 -12q-131 0 -131 146zM168 806h-89l69 144h125z" />
    <glyph glyph-name="lcaron" unicode="&#x13e;" horiz-adv-x="394" 
d="M69 134v596h110v-587q0 -31 10.5 -44.5t34.5 -13.5q22 0 34 9v-94q-22 -12 -58 -12q-131 0 -131 146zM249 478q64 44 76 86q-31 0 -49 18.5t-18 48.5t18.5 48.5t48.5 18.5q31 0 50.5 -22t19.5 -63q0 -59 -26 -102t-67 -77z" />
    <glyph glyph-name="uni013C" unicode="&#x13c;" horiz-adv-x="284" 
d="M69 134v596h110v-587q0 -31 10.5 -44.5t34.5 -13.5q22 0 34 9v-94q-22 -12 -58 -12q-131 0 -131 146zM107 -178q22 8 34 16t17 20q-21 0 -34 13t-13 33t15 32.5t37 12.5q26 0 41.5 -15t15.5 -43q0 -41 -21 -65.5t-58 -38.5z" />
    <glyph glyph-name="ldot" unicode="&#x140;" horiz-adv-x="391" 
d="M69 134v596h110v-587q0 -31 10.5 -44.5t34.5 -13.5q22 0 34 9v-94q-22 -12 -58 -12q-131 0 -131 146zM265.5 291q-20.5 21 -20.5 54t21 53.5t54 20.5t53.5 -21t20.5 -53q0 -33 -20.5 -54t-53.5 -21q-34 0 -54.5 21z" />
    <glyph glyph-name="lslash" unicode="&#x142;" horiz-adv-x="302" 
d="M277 94v-94q-23 -12 -58 -12q-131 0 -131 146v70l-65 -41v109l65 41v417h110v-349l65 41v-109l-65 -41v-129q0 -31 10.5 -44.5t34.5 -13.5q22 0 34 9z" />
    <glyph glyph-name="m" unicode="m" horiz-adv-x="818" 
d="M708.5 439.5q40.5 -44.5 40.5 -115.5v-324h-110v306q0 38 -21.5 61t-57.5 23q-59 0 -96 -64v-326h-110v306q0 38 -21.5 61t-56.5 23q-63 0 -97 -64v-326h-110v470h100l10 -60q22 34 53.5 54t81.5 20q51 0 84.5 -22t50.5 -59q22 37 62 59t88 22q69 0 109.5 -44.5z" />
    <glyph glyph-name="n" unicode="n" horiz-adv-x="541" 
d="M69 0v470h100l10 -64q22 35 58 56.5t83 21.5q76 0 114 -43.5t38 -120.5v-320h-110v305q0 40 -19.5 63t-57.5 23q-33 0 -60 -18.5t-46 -50.5v-322h-110z" />
    <glyph glyph-name="nacute" unicode="&#x144;" horiz-adv-x="541" 
d="M69 0v470h100l10 -64q22 35 58 56.5t83 21.5q76 0 114 -43.5t38 -120.5v-320h-110v305q0 40 -19.5 63t-57.5 23q-33 0 -60 -18.5t-46 -50.5v-322h-110zM315 546h-89l69 144h125z" />
    <glyph glyph-name="ncaron" unicode="&#x148;" horiz-adv-x="541" 
d="M69 0v470h100l10 -64q22 35 58 56.5t83 21.5q76 0 114 -43.5t38 -120.5v-320h-110v305q0 40 -19.5 63t-57.5 23q-33 0 -60 -18.5t-46 -50.5v-322h-110zM307 546h-73l-108 144h85l60 -71l59 71h85z" />
    <glyph glyph-name="uni0146" unicode="&#x146;" horiz-adv-x="541" 
d="M69 0v470h100l10 -64q22 35 58 56.5t83 21.5q76 0 114 -43.5t38 -120.5v-320h-110v305q0 40 -19.5 63t-57.5 23q-33 0 -60 -18.5t-46 -50.5v-322h-110zM215 -178q22 8 34 16t17 20q-21 0 -34 13t-13 33t15 32.5t37 12.5q26 0 41.5 -15t15.5 -43q0 -41 -21 -65.5
t-58 -38.5z" />
    <glyph glyph-name="eng" unicode="&#x14b;" horiz-adv-x="541" 
d="M279 -200v106q15 -9 37 -9q21 0 33.5 16.5t12.5 48.5v343q0 40 -19.5 63t-57.5 23q-33 0 -60 -18.5t-46 -50.5v-322h-110v470h100l10 -64q22 35 58 56.5t83 21.5q76 0 114 -43.5t38 -120.5v-366q0 -74 -39.5 -116t-110.5 -42q-27 0 -43 4z" />
    <glyph glyph-name="ntilde" unicode="&#xf1;" horiz-adv-x="541" 
d="M69 0v470h100l10 -64q22 35 58 56.5t83 21.5q76 0 114 -43.5t38 -120.5v-320h-110v305q0 40 -19.5 63t-57.5 23q-33 0 -60 -18.5t-46 -50.5v-322h-110zM299 585.5q-15 5.5 -37 16.5q-28 15 -44 15q-20 0 -34 -8t-28 -28l-44 45q35 67 102 67q20 0 35.5 -5t32.5 -15
q11 -5 22.5 -9.5t22.5 -4.5q21 0 33.5 7t28.5 29l39 -54q-17 -31 -38.5 -46t-55.5 -15q-20 0 -35 5.5z" />
    <glyph glyph-name="o" unicode="o" horiz-adv-x="542" 
d="M155 15q-52 29 -82.5 85t-30.5 135t30.5 135t82.5 85t116 29t116 -29t82.5 -85t30.5 -135t-30.5 -135t-82.5 -85t-116 -29t-116 29zM358 119.5q32 39.5 32 115.5t-32 115.5t-87 39.5t-87 -39.5t-32 -115.5t32 -115.5t87 -39.5t87 39.5z" />
    <glyph glyph-name="oacute" unicode="&#xf3;" horiz-adv-x="542" 
d="M155 15q-52 29 -82.5 85t-30.5 135t30.5 135t82.5 85t116 29t116 -29t82.5 -85t30.5 -135t-30.5 -135t-82.5 -85t-116 -29t-116 29zM358 119.5q32 39.5 32 115.5t-32 115.5t-87 39.5t-87 -39.5t-32 -115.5t32 -115.5t87 -39.5t87 39.5zM315 546h-89l69 144h125z" />
    <glyph glyph-name="obreve" unicode="&#x14f;" horiz-adv-x="542" 
d="M155 15q-52 29 -82.5 85t-30.5 135t30.5 135t82.5 85t116 29t116 -29t82.5 -85t30.5 -135t-30.5 -135t-82.5 -85t-116 -29t-116 29zM358 119.5q32 39.5 32 115.5t-32 115.5t-87 39.5t-87 -39.5t-32 -115.5t32 -115.5t87 -39.5t87 39.5zM172 584q-37 38 -37 106h77
q0 -34 15 -54t44 -20t44 20t15 54h77q0 -68 -37 -106t-99 -38t-99 38z" />
    <glyph glyph-name="ocircumflex" unicode="&#xf4;" horiz-adv-x="542" 
d="M155 15q-52 29 -82.5 85t-30.5 135t30.5 135t82.5 85t116 29t116 -29t82.5 -85t30.5 -135t-30.5 -135t-82.5 -85t-116 -29t-116 29zM358 119.5q32 39.5 32 115.5t-32 115.5t-87 39.5t-87 -39.5t-32 -115.5t32 -115.5t87 -39.5t87 39.5zM211 546h-85l108 144h73l108 -144
h-85l-59 71z" />
    <glyph glyph-name="uni1ED1" unicode="&#x1ed1;" horiz-adv-x="542" 
d="M155 15q-52 29 -82.5 85t-30.5 135t30.5 135t82.5 85t116 29t116 -29t82.5 -85t30.5 -135t-30.5 -135t-82.5 -85t-116 -29t-116 29zM358 119.5q32 39.5 32 115.5t-32 115.5t-87 39.5t-87 -39.5t-32 -115.5t32 -115.5t87 -39.5t87 39.5zM420 690h-77l49 144h111zM211 546
h-85l108 144h73l108 -144h-85l-59 71z" />
    <glyph glyph-name="uni1ED9" unicode="&#x1ed9;" horiz-adv-x="542" 
d="M155 15q-52 29 -82.5 85t-30.5 135t30.5 135t82.5 85t116 29t116 -29t82.5 -85t30.5 -135t-30.5 -135t-82.5 -85t-116 -29t-116 29zM358 119.5q32 39.5 32 115.5t-32 115.5t-87 39.5t-87 -39.5t-32 -115.5t32 -115.5t87 -39.5t87 39.5zM226 -153q-17 17 -17 45
q0 29 17 46t45 17t45 -17t17 -46q0 -28 -17 -45t-45 -17t-45 17zM211 546h-85l108 144h73l108 -144h-85l-59 71z" />
    <glyph glyph-name="uni1ED3" unicode="&#x1ed3;" horiz-adv-x="542" 
d="M155 15q-52 29 -82.5 85t-30.5 135t30.5 135t82.5 85t116 29t116 -29t82.5 -85t30.5 -135t-30.5 -135t-82.5 -85t-116 -29t-116 29zM358 119.5q32 39.5 32 115.5t-32 115.5t-87 39.5t-87 -39.5t-32 -115.5t32 -115.5t87 -39.5t87 39.5zM437 690h-77l-83 144h111zM211 546
h-85l108 144h73l108 -144h-85l-59 71z" />
    <glyph glyph-name="uni1ED5" unicode="&#x1ed5;" horiz-adv-x="542" 
d="M155 15q-52 29 -82.5 85t-30.5 135t30.5 135t82.5 85t116 29t116 -29t82.5 -85t30.5 -135t-30.5 -135t-82.5 -85t-116 -29t-116 29zM358 119.5q32 39.5 32 115.5t-32 115.5t-87 39.5t-87 -39.5t-32 -115.5t32 -115.5t87 -39.5t87 39.5zM345 701q11 19 11 36q0 14 -9 22
t-24 8q-20 0 -37 -11l-27 58q33 24 77 24q50 0 76 -22.5t26 -62.5q0 -45 -45 -84zM211 546h-85l108 144h73l108 -144h-85l-59 71z" />
    <glyph glyph-name="uni1ED7" unicode="&#x1ed7;" horiz-adv-x="542" 
d="M155 15q-52 29 -82.5 85t-30.5 135t30.5 135t82.5 85t116 29t116 -29t82.5 -85t30.5 -135t-30.5 -135t-82.5 -85t-116 -29t-116 29zM358 119.5q32 39.5 32 115.5t-32 115.5t-87 39.5t-87 -39.5t-32 -115.5t32 -115.5t87 -39.5t87 39.5zM113 770q33 67 102 67
q20 0 35.5 -5t32.5 -15q11 -5 22.5 -9.5t22.5 -4.5q21 0 33.5 7t28.5 29l38 -54q-16 -31 -37.5 -46t-55.5 -15q-20 0 -35 5.5t-37 16.5q-28 15 -44 15q-21 0 -34.5 -7.5t-27.5 -28.5zM211 546h-85l108 144h73l108 -144h-85l-59 71z" />
    <glyph glyph-name="odieresis" unicode="&#xf6;" horiz-adv-x="542" 
d="M155 15q-52 29 -82.5 85t-30.5 135t30.5 135t82.5 85t116 29t116 -29t82.5 -85t30.5 -135t-30.5 -135t-82.5 -85t-116 -29t-116 29zM358 119.5q32 39.5 32 115.5t-32 115.5t-87 39.5t-87 -39.5t-32 -115.5t32 -115.5t87 -39.5t87 39.5zM142 576.5q-16 16.5 -16 44.5
q0 27 16 43.5t44 16.5t44.5 -16.5t16.5 -43.5q0 -28 -16.5 -44.5t-44.5 -16.5t-44 16.5zM311 576.5q-16 16.5 -16 44.5q0 27 16 43.5t44 16.5t44.5 -16.5t16.5 -43.5q0 -28 -16.5 -44.5t-44.5 -16.5t-44 16.5z" />
    <glyph glyph-name="uni1ECD" unicode="&#x1ecd;" horiz-adv-x="542" 
d="M155 15q-52 29 -82.5 85t-30.5 135t30.5 135t82.5 85t116 29t116 -29t82.5 -85t30.5 -135t-30.5 -135t-82.5 -85t-116 -29t-116 29zM358 119.5q32 39.5 32 115.5t-32 115.5t-87 39.5t-87 -39.5t-32 -115.5t32 -115.5t87 -39.5t87 39.5zM226 -153q-17 17 -17 45
q0 29 17 46t45 17t45 -17t17 -46q0 -28 -17 -45t-45 -17t-45 17z" />
    <glyph glyph-name="ograve" unicode="&#xf2;" horiz-adv-x="542" 
d="M155 15q-52 29 -82.5 85t-30.5 135t30.5 135t82.5 85t116 29t116 -29t82.5 -85t30.5 -135t-30.5 -135t-82.5 -85t-116 -29t-116 29zM358 119.5q32 39.5 32 115.5t-32 115.5t-87 39.5t-87 -39.5t-32 -115.5t32 -115.5t87 -39.5t87 39.5zM315 546h-89l-105 144h126z" />
    <glyph glyph-name="uni1ECF" unicode="&#x1ecf;" horiz-adv-x="542" 
d="M155 15q-52 29 -82.5 85t-30.5 135t30.5 135t82.5 85t116 29t116 -29t82.5 -85t30.5 -135t-30.5 -135t-82.5 -85t-116 -29t-116 29zM358 119.5q32 39.5 32 115.5t-32 115.5t-87 39.5t-87 -39.5t-32 -115.5t32 -115.5t87 -39.5t87 39.5zM268 562q10 21 10 36q0 14 -9 22
t-24 8q-21 0 -37 -11l-26 58q14 10 34 17t43 7q50 0 75.5 -22.5t25.5 -62.5q0 -45 -45 -84z" />
    <glyph glyph-name="ohorn" unicode="&#x1a1;" horiz-adv-x="542" 
d="M453 614h92v-50q0 -69 -25 -109.5t-71 -52.5q51 -65 51 -167q0 -79 -30.5 -135t-82.5 -85t-116 -29t-116 29t-82.5 85t-30.5 135t30.5 135t82.5 85t116 29h121q31 0 46 17t15 54v59zM358 119.5q32 39.5 32 115.5t-32 115.5t-87 39.5t-87 -39.5t-32 -115.5t32 -115.5
t87 -39.5t87 39.5z" />
    <glyph glyph-name="uni1EDB" unicode="&#x1edb;" horiz-adv-x="542" 
d="M453 614h92v-50q0 -69 -25 -109.5t-71 -52.5q51 -65 51 -167q0 -79 -30.5 -135t-82.5 -85t-116 -29t-116 29t-82.5 85t-30.5 135t30.5 135t82.5 85t116 29h121q31 0 46 17t15 54v59zM358 119.5q32 39.5 32 115.5t-32 115.5t-87 39.5t-87 -39.5t-32 -115.5t32 -115.5
t87 -39.5t87 39.5zM315 546h-89l69 144h125z" />
    <glyph glyph-name="uni1EE3" unicode="&#x1ee3;" horiz-adv-x="542" 
d="M453 614h92v-50q0 -69 -25 -109.5t-71 -52.5q51 -65 51 -167q0 -79 -30.5 -135t-82.5 -85t-116 -29t-116 29t-82.5 85t-30.5 135t30.5 135t82.5 85t116 29h121q31 0 46 17t15 54v59zM358 119.5q32 39.5 32 115.5t-32 115.5t-87 39.5t-87 -39.5t-32 -115.5t32 -115.5
t87 -39.5t87 39.5zM226 -153q-17 17 -17 45q0 29 17 46t45 17t45 -17t17 -46q0 -28 -17 -45t-45 -17t-45 17z" />
    <glyph glyph-name="uni1EDD" unicode="&#x1edd;" horiz-adv-x="542" 
d="M453 614h92v-50q0 -69 -25 -109.5t-71 -52.5q51 -65 51 -167q0 -79 -30.5 -135t-82.5 -85t-116 -29t-116 29t-82.5 85t-30.5 135t30.5 135t82.5 85t116 29h121q31 0 46 17t15 54v59zM358 119.5q32 39.5 32 115.5t-32 115.5t-87 39.5t-87 -39.5t-32 -115.5t32 -115.5
t87 -39.5t87 39.5zM315 546h-89l-105 144h126z" />
    <glyph glyph-name="uni1EDF" unicode="&#x1edf;" horiz-adv-x="542" 
d="M453 614h92v-50q0 -69 -25 -109.5t-71 -52.5q51 -65 51 -167q0 -79 -30.5 -135t-82.5 -85t-116 -29t-116 29t-82.5 85t-30.5 135t30.5 135t82.5 85t116 29h121q31 0 46 17t15 54v59zM358 119.5q32 39.5 32 115.5t-32 115.5t-87 39.5t-87 -39.5t-32 -115.5t32 -115.5
t87 -39.5t87 39.5zM268 562q10 21 10 36q0 14 -9 22t-24 8q-21 0 -37 -11l-26 58q14 10 34 17t43 7q50 0 75.5 -22.5t25.5 -62.5q0 -45 -45 -84z" />
    <glyph glyph-name="uni1EE1" unicode="&#x1ee1;" horiz-adv-x="542" 
d="M453 614h92v-50q0 -69 -25 -109.5t-71 -52.5q51 -65 51 -167q0 -79 -30.5 -135t-82.5 -85t-116 -29t-116 29t-82.5 85t-30.5 135t30.5 135t82.5 85t116 29h121q31 0 46 17t15 54v59zM358 119.5q32 39.5 32 115.5t-32 115.5t-87 39.5t-87 -39.5t-32 -115.5t32 -115.5
t87 -39.5t87 39.5zM300 585.5q-15 5.5 -37 16.5q-28 15 -44 15q-20 0 -34 -8t-28 -28l-44 45q35 67 102 67q20 0 35.5 -5t32.5 -15q11 -5 22.5 -9.5t22.5 -4.5q21 0 33.5 7t28.5 29l39 -54q-17 -31 -38.5 -46t-55.5 -15q-20 0 -35 5.5z" />
    <glyph glyph-name="ohungarumlaut" unicode="&#x151;" horiz-adv-x="542" 
d="M155 15q-52 29 -82.5 85t-30.5 135t30.5 135t82.5 85t116 29t116 -29t82.5 -85t30.5 -135t-30.5 -135t-82.5 -85t-116 -29t-116 29zM358 119.5q32 39.5 32 115.5t-32 115.5t-87 39.5t-87 -39.5t-32 -115.5t32 -115.5t87 -39.5t87 39.5zM223 546h-81l45 144h110zM395 546
h-81l45 144h109z" />
    <glyph glyph-name="omacron" unicode="&#x14d;" horiz-adv-x="542" 
d="M155 15q-52 29 -82.5 85t-30.5 135t30.5 135t82.5 85t116 29t116 -29t82.5 -85t30.5 -135t-30.5 -135t-82.5 -85t-116 -29t-116 29zM358 119.5q32 39.5 32 115.5t-32 115.5t-87 39.5t-87 -39.5t-32 -115.5t32 -115.5t87 -39.5t87 39.5zM399 593h-257v85h257v-85z" />
    <glyph glyph-name="oslash" unicode="&#xf8;" horiz-adv-x="542" 
d="M409 441q43 -32 67 -84t24 -122q0 -79 -30.5 -135t-82.5 -85t-116 -29q-32 0 -59 7l-36 -83h-96l53 119q-43 32 -67 84t-24 122q0 79 30.5 135t82.5 85t116 29q32 0 59 -7l36 83h96zM176 127l115 263q-12 2 -20 2q-56 0 -89.5 -41t-33.5 -116q0 -68 28 -108zM360.5 119
q33.5 41 33.5 116q0 68 -28 108l-115 -263q12 -2 20 -2q56 0 89.5 41z" />
    <glyph glyph-name="otilde" unicode="&#xf5;" horiz-adv-x="542" 
d="M155 15q-52 29 -82.5 85t-30.5 135t30.5 135t82.5 85t116 29t116 -29t82.5 -85t30.5 -135t-30.5 -135t-82.5 -85t-116 -29t-116 29zM358 119.5q32 39.5 32 115.5t-32 115.5t-87 39.5t-87 -39.5t-32 -115.5t32 -115.5t87 -39.5t87 39.5zM300 585.5q-15 5.5 -37 16.5
q-28 15 -44 15q-20 0 -34 -8t-28 -28l-44 45q35 67 102 67q20 0 35.5 -5t32.5 -15q11 -5 22.5 -9.5t22.5 -4.5q21 0 33.5 7t28.5 29l39 -54q-17 -31 -38.5 -46t-55.5 -15q-20 0 -35 5.5z" />
    <glyph glyph-name="oe" unicode="&#x153;" horiz-adv-x="873" 
d="M777.5 420q54.5 -64 54.5 -171q0 -13 -2 -43h-328q8 -61 43 -95.5t91 -34.5q39 0 69 15.5t55 45.5l63 -68q-35 -42 -80 -62.5t-111 -20.5q-59 0 -106 20.5t-79 59.5q-31 -39 -77 -59.5t-99 -20.5q-64 0 -116 29t-82.5 85t-30.5 135t30.5 135t82.5 85t116 29
q53 0 99 -20.5t77 -59.5q30 39 75.5 59.5t97.5 20.5q103 0 157.5 -64zM543 366.5q-30 -28.5 -39 -80.5h228q-3 55 -33 82t-80 27q-46 0 -76 -28.5zM358 119.5q32 39.5 32 115.5t-32 115.5t-87 39.5t-87 -39.5t-32 -115.5t32 -115.5t87 -39.5t87 39.5z" />
    <glyph glyph-name="p" unicode="p" horiz-adv-x="557" 
d="M69 -190v660h95l7 -52q24 31 59 48.5t79 17.5q56 0 103 -29t75 -85t28 -135t-28 -135t-75 -85t-103 -29q-81 0 -130 51v-227h-110zM368.5 120.5q35.5 40.5 35.5 114.5t-35.5 114.5t-87.5 40.5q-61 0 -102 -57v-196q40 -57 102 -57q52 0 87.5 40.5z" />
    <glyph glyph-name="thorn" unicode="&#xfe;" horiz-adv-x="557" 
d="M412 455q47 -29 75 -85t28 -135t-28 -135t-75 -85t-103 -29q-79 0 -130 51v-227h-110v920h110v-302q24 26 57 41t73 15q56 0 103 -29zM368.5 120.5q35.5 40.5 35.5 114.5t-35.5 114.5t-87.5 40.5q-61 0 -102 -57v-196q40 -57 102 -57q52 0 87.5 40.5z" />
    <glyph glyph-name="q" unicode="q" horiz-adv-x="557" 
d="M377 37q-22 -24 -55 -37.5t-74 -13.5q-56 0 -103 29t-75 85t-28 135t28 135t75 85t103 29q44 0 78.5 -17.5t58.5 -48.5l8 52h94v-660h-110v227zM377 137v196q-41 57 -101 57q-53 0 -88 -40.5t-35 -114.5t35 -114.5t88 -40.5q61 0 101 57z" />
    <glyph glyph-name="r" unicode="r" horiz-adv-x="394" 
d="M69 0v470h98l12 -68q21 41 52 61.5t79 20.5q33 0 50 -9v-105q-31 14 -68 14q-36 0 -65 -22t-48 -61v-301h-110z" />
    <glyph glyph-name="racute" unicode="&#x155;" horiz-adv-x="394" 
d="M69 0v470h98l12 -68q21 41 52 61.5t79 20.5q33 0 50 -9v-105q-31 14 -68 14q-36 0 -65 -22t-48 -61v-301h-110zM242 546h-89l69 144h125z" />
    <glyph glyph-name="rcaron" unicode="&#x159;" horiz-adv-x="394" 
d="M69 0v470h98l12 -68q21 41 52 61.5t79 20.5q33 0 50 -9v-105q-31 14 -68 14q-36 0 -65 -22t-48 -61v-301h-110zM233 546h-73l-108 144h85l60 -71l59 71h85z" />
    <glyph glyph-name="uni0157" unicode="&#x157;" horiz-adv-x="394" 
d="M69 0v470h98l12 -68q21 41 52 61.5t79 20.5q33 0 50 -9v-105q-31 14 -68 14q-36 0 -65 -22t-48 -61v-301h-110zM68 -178q22 8 34 16t17 20q-21 0 -34 13t-13 33t15 32.5t37 12.5q26 0 41.5 -15t15.5 -43q0 -41 -21 -65.5t-58 -38.5z" />
    <glyph glyph-name="s" unicode="s" horiz-adv-x="454" 
d="M117 10q-51 24 -81 72l75 61q23 -36 53 -53t72 -17q33 0 54 15.5t21 42.5q0 26 -21 40.5t-69 24.5l-29 6q-64 13 -101.5 44t-37.5 93q0 71 49.5 108t129.5 37q61 0 102 -21t71 -61l-72 -62q-42 57 -105 57q-31 0 -53 -13.5t-22 -37.5q0 -25 23 -38t78 -24l24 -5
q139 -25 139 -137q0 -74 -51.5 -115t-137.5 -41q-60 0 -111 24z" />
    <glyph glyph-name="sacute" unicode="&#x15b;" horiz-adv-x="454" 
d="M117 10q-51 24 -81 72l75 61q23 -36 53 -53t72 -17q33 0 54 15.5t21 42.5q0 26 -21 40.5t-69 24.5l-29 6q-64 13 -101.5 44t-37.5 93q0 71 49.5 108t129.5 37q61 0 102 -21t71 -61l-72 -62q-42 57 -105 57q-31 0 -53 -13.5t-22 -37.5q0 -25 23 -38t78 -24l24 -5
q139 -25 139 -137q0 -74 -51.5 -115t-137.5 -41q-60 0 -111 24zM271 546h-89l69 144h125z" />
    <glyph glyph-name="scaron" unicode="&#x161;" horiz-adv-x="454" 
d="M117 10q-51 24 -81 72l75 61q23 -36 53 -53t72 -17q33 0 54 15.5t21 42.5q0 26 -21 40.5t-69 24.5l-29 6q-64 13 -101.5 44t-37.5 93q0 71 49.5 108t129.5 37q61 0 102 -21t71 -61l-72 -62q-42 57 -105 57q-31 0 -53 -13.5t-22 -37.5q0 -25 23 -38t78 -24l24 -5
q139 -25 139 -137q0 -74 -51.5 -115t-137.5 -41q-60 0 -111 24zM263 546h-73l-108 144h85l60 -71l59 71h85z" />
    <glyph glyph-name="scedilla" unicode="&#x15f;" horiz-adv-x="454" 
d="M373.5 34.5q-43.5 -40.5 -117.5 -47.5l-28 -39q42 0 65.5 -19t23.5 -55q0 -37 -24.5 -58.5t-73.5 -21.5q-44 0 -81 17l24 52q26 -12 53 -12q13 0 20.5 6t7.5 17t-7.5 17t-20.5 6q-12 0 -26 -6l-38 28l33 70q-47 8 -85.5 31.5t-62.5 61.5l75 61q23 -36 53 -53t72 -17
q33 0 54 15.5t21 42.5q0 26 -21 40.5t-69 24.5l-29 6q-64 13 -101.5 44t-37.5 93q0 71 49.5 108t129.5 37q61 0 102 -21t71 -61l-72 -62q-42 57 -105 57q-31 0 -53 -13.5t-22 -37.5q0 -25 23 -38t78 -24l24 -5q139 -25 139 -137q0 -67 -43.5 -107.5z" />
    <glyph glyph-name="scircumflex" unicode="&#x15d;" horiz-adv-x="454" 
d="M117 10q-51 24 -81 72l75 61q23 -36 53 -53t72 -17q33 0 54 15.5t21 42.5q0 26 -21 40.5t-69 24.5l-29 6q-64 13 -101.5 44t-37.5 93q0 71 49.5 108t129.5 37q61 0 102 -21t71 -61l-72 -62q-42 57 -105 57q-31 0 -53 -13.5t-22 -37.5q0 -25 23 -38t78 -24l24 -5
q139 -25 139 -137q0 -74 -51.5 -115t-137.5 -41q-60 0 -111 24zM167 546h-85l108 144h73l108 -144h-85l-59 71z" />
    <glyph glyph-name="uni0219" unicode="&#x219;" horiz-adv-x="454" 
d="M117 10q-51 24 -81 72l75 61q23 -36 53 -53t72 -17q33 0 54 15.5t21 42.5q0 26 -21 40.5t-69 24.5l-29 6q-64 13 -101.5 44t-37.5 93q0 71 49.5 108t129.5 37q61 0 102 -21t71 -61l-72 -62q-42 57 -105 57q-31 0 -53 -13.5t-22 -37.5q0 -25 23 -38t78 -24l24 -5
q139 -25 139 -137q0 -74 -51.5 -115t-137.5 -41q-60 0 -111 24zM172 -178q22 8 34 16t17 20q-21 0 -34 13t-13 33t15 32.5t37 12.5q26 0 41.5 -15t15.5 -43q0 -41 -21 -65.5t-58 -38.5z" />
    <glyph glyph-name="germandbls" unicode="&#xdf;" horiz-adv-x="575" 
d="M242 4v104q18 -12 40.5 -19t44.5 -7q48 0 74 34.5t26 97.5q0 73 -41 110t-107 37h-37v92h28q44 0 73 28.5t29 70.5q0 45 -26.5 71.5t-69.5 26.5q-44 0 -70.5 -26.5t-26.5 -71.5v-552h-110v547q0 60 26.5 104.5t74 68.5t107.5 24q96 0 148.5 -47.5t52.5 -128.5
q0 -51 -25.5 -88.5t-74.5 -58.5q73 -19 114 -71t41 -141q0 -108 -54 -165.5t-139 -57.5q-54 0 -98 18z" />
    <glyph glyph-name="t" unicode="t" horiz-adv-x="385" 
d="M149.5 24.5q-36.5 38.5 -36.5 119.5v232h-89v94h89v128l111 34v-162h129v-94h-129v-224q0 -31 12.5 -51.5t50.5 -20.5q19 0 33.5 5t32.5 17v-92q-38 -24 -94 -24q-73 0 -109.5 38.5z" />
    <glyph glyph-name="tbar" unicode="&#x167;" horiz-adv-x="385" 
d="M353 376h-129v-97h107v-87h-107v-40q0 -31 12.5 -51.5t50.5 -20.5q19 0 33.5 5t32.5 17v-92q-38 -24 -94 -24q-73 0 -109.5 38.5t-36.5 119.5v48h-71v87h71v97h-89v94h89v128l111 34v-162h129v-94z" />
    <glyph glyph-name="tcaron" unicode="&#x165;" horiz-adv-x="385" 
d="M149.5 24.5q-36.5 38.5 -36.5 119.5v232h-89v94h89v128l111 34v-162h129v-94h-129v-224q0 -31 12.5 -51.5t50.5 -20.5q19 0 33.5 5t32.5 17v-92q-38 -24 -94 -24q-73 0 -109.5 38.5zM289 566q64 44 76 86q-31 0 -49 18.5t-18 48.5t18.5 48.5t48.5 18.5q31 0 50.5 -22
t19.5 -63q0 -59 -26 -102t-67 -77z" />
    <glyph glyph-name="uni0163" unicode="&#x163;" horiz-adv-x="385" 
d="M353 376h-129v-224q0 -31 12.5 -51.5t50.5 -20.5q19 0 33.5 5t32.5 17v-92q-30 -18 -67 -23l-28 -39q42 0 65.5 -19t23.5 -55q0 -37 -24.5 -58.5t-73.5 -21.5q-44 0 -81 17l24 52q26 -12 53 -12q13 0 20.5 6t7.5 17t-7.5 17t-20.5 6q-12 0 -26 -6l-38 28l33 71
q-101 21 -101 154v232h-89v94h89v128l111 34v-162h129v-94z" />
    <glyph glyph-name="uni021B" unicode="&#x21b;" horiz-adv-x="385" 
d="M149.5 24.5q-36.5 38.5 -36.5 119.5v232h-89v94h89v128l111 34v-162h129v-94h-129v-224q0 -31 12.5 -51.5t50.5 -20.5q19 0 33.5 5t32.5 17v-92q-38 -24 -94 -24q-73 0 -109.5 38.5zM201 -178q22 8 34 16t17 20q-21 0 -34 13t-13 33t15 32.5t37 12.5q26 0 41.5 -15
t15.5 -43q0 -41 -21 -65.5t-58 -38.5z" />
    <glyph glyph-name="u" unicode="u" horiz-adv-x="541" 
d="M107 29.5q-38 43.5 -38 120.5v320h110v-305q0 -40 19.5 -63t57.5 -23q33 0 60 18.5t46 50.5v322h110v-470h-100l-10 64q-21 -34 -57.5 -56t-83.5 -22q-76 0 -114 43.5z" />
    <glyph glyph-name="uacute" unicode="&#xfa;" horiz-adv-x="541" 
d="M107 29.5q-38 43.5 -38 120.5v320h110v-305q0 -40 19.5 -63t57.5 -23q33 0 60 18.5t46 50.5v322h110v-470h-100l-10 64q-21 -34 -57.5 -56t-83.5 -22q-76 0 -114 43.5zM315 546h-89l69 144h125z" />
    <glyph glyph-name="ubreve" unicode="&#x16d;" horiz-adv-x="541" 
d="M107 29.5q-38 43.5 -38 120.5v320h110v-305q0 -40 19.5 -63t57.5 -23q33 0 60 18.5t46 50.5v322h110v-470h-100l-10 64q-21 -34 -57.5 -56t-83.5 -22q-76 0 -114 43.5zM172 584q-37 38 -37 106h77q0 -34 15 -54t44 -20t44 20t15 54h77q0 -68 -37 -106t-99 -38t-99 38z
" />
    <glyph glyph-name="ucircumflex" unicode="&#xfb;" horiz-adv-x="541" 
d="M107 29.5q-38 43.5 -38 120.5v320h110v-305q0 -40 19.5 -63t57.5 -23q33 0 60 18.5t46 50.5v322h110v-470h-100l-10 64q-21 -34 -57.5 -56t-83.5 -22q-76 0 -114 43.5zM211 546h-85l108 144h73l108 -144h-85l-59 71z" />
    <glyph glyph-name="udieresis" unicode="&#xfc;" horiz-adv-x="541" 
d="M107 29.5q-38 43.5 -38 120.5v320h110v-305q0 -40 19.5 -63t57.5 -23q33 0 60 18.5t46 50.5v322h110v-470h-100l-10 64q-21 -34 -57.5 -56t-83.5 -22q-76 0 -114 43.5zM142 576.5q-16 16.5 -16 44.5q0 27 16 43.5t44 16.5t44.5 -16.5t16.5 -43.5q0 -28 -16.5 -44.5
t-44.5 -16.5t-44 16.5zM311 576.5q-16 16.5 -16 44.5q0 27 16 43.5t44 16.5t44.5 -16.5t16.5 -43.5q0 -28 -16.5 -44.5t-44.5 -16.5t-44 16.5z" />
    <glyph glyph-name="uni1EE5" unicode="&#x1ee5;" horiz-adv-x="541" 
d="M107 29.5q-38 43.5 -38 120.5v320h110v-305q0 -40 19.5 -63t57.5 -23q33 0 60 18.5t46 50.5v322h110v-470h-100l-10 64q-21 -34 -57.5 -56t-83.5 -22q-76 0 -114 43.5zM225 -153q-17 17 -17 45q0 29 17 46t45 17t45 -17t17 -46q0 -28 -17 -45t-45 -17t-45 17z" />
    <glyph glyph-name="ugrave" unicode="&#xf9;" horiz-adv-x="541" 
d="M107 29.5q-38 43.5 -38 120.5v320h110v-305q0 -40 19.5 -63t57.5 -23q33 0 60 18.5t46 50.5v322h110v-470h-100l-10 64q-21 -34 -57.5 -56t-83.5 -22q-76 0 -114 43.5zM315 546h-89l-105 144h126z" />
    <glyph glyph-name="uni1EE7" unicode="&#x1ee7;" horiz-adv-x="541" 
d="M107 29.5q-38 43.5 -38 120.5v320h110v-305q0 -40 19.5 -63t57.5 -23q33 0 60 18.5t46 50.5v322h110v-470h-100l-10 64q-21 -34 -57.5 -56t-83.5 -22q-76 0 -114 43.5zM267 562q10 21 10 36q0 14 -9 22t-24 8q-21 0 -37 -11l-26 58q14 10 34 17t43 7q50 0 75.5 -22.5
t25.5 -62.5q0 -45 -45 -84z" />
    <glyph glyph-name="uhorn" unicode="&#x1b0;" horiz-adv-x="541" 
d="M489 600h92v-50q0 -73 -29 -114.5t-80 -50.5v-385h-100l-10 64q-21 -34 -57.5 -56t-83.5 -22q-76 0 -114 43.5t-38 120.5v320h110v-305q0 -40 19.5 -63t57.5 -23q33 0 60 18.5t46 50.5v322h67q60 0 60 71v59z" />
    <glyph glyph-name="uni1EE9" unicode="&#x1ee9;" horiz-adv-x="541" 
d="M489 600h92v-50q0 -73 -29 -114.5t-80 -50.5v-385h-100l-10 64q-21 -34 -57.5 -56t-83.5 -22q-76 0 -114 43.5t-38 120.5v320h110v-305q0 -40 19.5 -63t57.5 -23q33 0 60 18.5t46 50.5v322h67q60 0 60 71v59zM315 546h-89l69 144h125z" />
    <glyph glyph-name="uni1EF1" unicode="&#x1ef1;" horiz-adv-x="541" 
d="M489 600h92v-50q0 -73 -29 -114.5t-80 -50.5v-385h-100l-10 64q-21 -34 -57.5 -56t-83.5 -22q-76 0 -114 43.5t-38 120.5v320h110v-305q0 -40 19.5 -63t57.5 -23q33 0 60 18.5t46 50.5v322h67q60 0 60 71v59zM225 -153q-17 17 -17 45q0 29 17 46t45 17t45 -17t17 -46
q0 -28 -17 -45t-45 -17t-45 17z" />
    <glyph glyph-name="uni1EEB" unicode="&#x1eeb;" horiz-adv-x="541" 
d="M489 600h92v-50q0 -73 -29 -114.5t-80 -50.5v-385h-100l-10 64q-21 -34 -57.5 -56t-83.5 -22q-76 0 -114 43.5t-38 120.5v320h110v-305q0 -40 19.5 -63t57.5 -23q33 0 60 18.5t46 50.5v322h67q60 0 60 71v59zM315 546h-89l-105 144h126z" />
    <glyph glyph-name="uni1EED" unicode="&#x1eed;" horiz-adv-x="541" 
d="M489 600h92v-50q0 -73 -29 -114.5t-80 -50.5v-385h-100l-10 64q-21 -34 -57.5 -56t-83.5 -22q-76 0 -114 43.5t-38 120.5v320h110v-305q0 -40 19.5 -63t57.5 -23q33 0 60 18.5t46 50.5v322h67q60 0 60 71v59zM267 562q10 21 10 36q0 14 -9 22t-24 8q-21 0 -37 -11l-26 58
q14 10 34 17t43 7q50 0 75.5 -22.5t25.5 -62.5q0 -45 -45 -84z" />
    <glyph glyph-name="uni1EEF" unicode="&#x1eef;" horiz-adv-x="541" 
d="M489 600h92v-50q0 -73 -29 -114.5t-80 -50.5v-385h-100l-10 64q-21 -34 -57.5 -56t-83.5 -22q-76 0 -114 43.5t-38 120.5v320h110v-305q0 -40 19.5 -63t57.5 -23q33 0 60 18.5t46 50.5v322h67q60 0 60 71v59zM299 585.5q-15 5.5 -37 16.5q-28 15 -44 15q-20 0 -34 -8
t-28 -28l-44 45q35 67 102 67q20 0 35.5 -5t32.5 -15q11 -5 22.5 -9.5t22.5 -4.5q21 0 33.5 7t28.5 29l39 -54q-17 -31 -38.5 -46t-55.5 -15q-20 0 -35 5.5z" />
    <glyph glyph-name="uhungarumlaut" unicode="&#x171;" horiz-adv-x="541" 
d="M107 29.5q-38 43.5 -38 120.5v320h110v-305q0 -40 19.5 -63t57.5 -23q33 0 60 18.5t46 50.5v322h110v-470h-100l-10 64q-21 -34 -57.5 -56t-83.5 -22q-76 0 -114 43.5zM223 546h-81l45 144h110zM395 546h-81l45 144h109z" />
    <glyph glyph-name="umacron" unicode="&#x16b;" horiz-adv-x="541" 
d="M107 29.5q-38 43.5 -38 120.5v320h110v-305q0 -40 19.5 -63t57.5 -23q33 0 60 18.5t46 50.5v322h110v-470h-100l-10 64q-21 -34 -57.5 -56t-83.5 -22q-76 0 -114 43.5zM399 593h-257v85h257v-85z" />
    <glyph glyph-name="uogonek" unicode="&#x173;" horiz-adv-x="541" 
d="M481 -176q-23 -15 -59 -15q-41 0 -67.5 24t-26.5 65q0 34 13.5 58.5t37.5 43.5h-7l-10 64q-21 -34 -57.5 -56t-83.5 -22q-76 0 -114 43.5t-38 120.5v320h110v-305q0 -40 19.5 -63t57.5 -23q33 0 60 18.5t46 50.5v322h110v-470q-60 -35 -60 -80q0 -15 8 -23.5t21 -8.5
q8 0 14.5 2t13.5 5z" />
    <glyph glyph-name="uring" unicode="&#x16f;" horiz-adv-x="541" 
d="M107 29.5q-38 43.5 -38 120.5v320h110v-305q0 -40 19.5 -63t57.5 -23q33 0 60 18.5t46 50.5v322h110v-470h-100l-10 64q-21 -34 -57.5 -56t-83.5 -22q-76 0 -114 43.5zM202 559q-28 27 -28 71t28 71t69 27t69 -27t28 -71t-28 -71t-69 -27t-69 27zM300.5 596
q10.5 12 10.5 34t-10.5 34t-29.5 12t-29.5 -12t-10.5 -34t10.5 -34t29.5 -12t29.5 12z" />
    <glyph glyph-name="utilde" unicode="&#x169;" horiz-adv-x="541" 
d="M107 29.5q-38 43.5 -38 120.5v320h110v-305q0 -40 19.5 -63t57.5 -23q33 0 60 18.5t46 50.5v322h110v-470h-100l-10 64q-21 -34 -57.5 -56t-83.5 -22q-76 0 -114 43.5zM299 585.5q-15 5.5 -37 16.5q-28 15 -44 15q-20 0 -34 -8t-28 -28l-44 45q35 67 102 67q20 0 35.5 -5
t32.5 -15q11 -5 22.5 -9.5t22.5 -4.5q21 0 33.5 7t28.5 29l39 -54q-17 -31 -38.5 -46t-55.5 -15q-20 0 -35 5.5z" />
    <glyph glyph-name="v" unicode="v" horiz-adv-x="491" 
d="M310 0h-128l-167 470h117l114 -352l113 352h117z" />
    <glyph glyph-name="w" unicode="w" horiz-adv-x="733" 
d="M272 0h-126l-131 470h112l87 -346l94 346h117l94 -346l88 346h111l-131 -470h-126l-94 343z" />
    <glyph glyph-name="wacute" unicode="&#x1e83;" horiz-adv-x="733" 
d="M272 0h-126l-131 470h112l87 -346l94 346h117l94 -346l88 346h111l-131 -470h-126l-94 343zM411 546h-89l69 144h125z" />
    <glyph glyph-name="wcircumflex" unicode="&#x175;" horiz-adv-x="733" 
d="M272 0h-126l-131 470h112l87 -346l94 346h117l94 -346l88 346h111l-131 -470h-126l-94 343zM307 546h-85l108 144h73l108 -144h-85l-59 71z" />
    <glyph glyph-name="wdieresis" unicode="&#x1e85;" horiz-adv-x="733" 
d="M272 0h-126l-131 470h112l87 -346l94 346h117l94 -346l88 346h111l-131 -470h-126l-94 343zM238 576.5q-16 16.5 -16 44.5q0 27 16 43.5t44 16.5t44.5 -16.5t16.5 -43.5q0 -28 -16.5 -44.5t-44.5 -16.5t-44 16.5zM407 576.5q-16 16.5 -16 44.5q0 27 16 43.5t44 16.5
t44.5 -16.5t16.5 -43.5q0 -28 -16.5 -44.5t-44.5 -16.5t-44 16.5z" />
    <glyph glyph-name="wgrave" unicode="&#x1e81;" horiz-adv-x="733" 
d="M272 0h-126l-131 470h112l87 -346l94 346h117l94 -346l88 346h111l-131 -470h-126l-94 343zM411 546h-89l-105 144h126z" />
    <glyph glyph-name="x" unicode="x" horiz-adv-x="489" 
d="M139 0h-125l169 250l-152 220h124l90 -145l89 145h124l-151 -220l168 -250h-125l-106 171z" />
    <glyph glyph-name="y" unicode="y" horiz-adv-x="486" 
d="M16 -186v95q34 -15 62 -15q36 0 57 22t39 69l16 42l-172 443h115l109 -304l116 304h112l-216 -537q-25 -63 -65.5 -98t-96.5 -35q-44 0 -76 14z" />
    <glyph glyph-name="yacute" unicode="&#xfd;" horiz-adv-x="486" 
d="M16 -186v95q34 -15 62 -15q36 0 57 22t39 69l16 42l-172 443h115l109 -304l116 304h112l-216 -537q-25 -63 -65.5 -98t-96.5 -35q-44 0 -76 14zM287 546h-89l69 144h125z" />
    <glyph glyph-name="ycircumflex" unicode="&#x177;" horiz-adv-x="486" 
d="M16 -186v95q34 -15 62 -15q36 0 57 22t39 69l16 42l-172 443h115l109 -304l116 304h112l-216 -537q-25 -63 -65.5 -98t-96.5 -35q-44 0 -76 14zM183 546h-85l108 144h73l108 -144h-85l-59 71z" />
    <glyph glyph-name="ydieresis" unicode="&#xff;" horiz-adv-x="486" 
d="M16 -186v95q34 -15 62 -15q36 0 57 22t39 69l16 42l-172 443h115l109 -304l116 304h112l-216 -537q-25 -63 -65.5 -98t-96.5 -35q-44 0 -76 14zM114 576.5q-16 16.5 -16 44.5q0 27 16 43.5t44 16.5t44.5 -16.5t16.5 -43.5q0 -28 -16.5 -44.5t-44.5 -16.5t-44 16.5z
M283 576.5q-16 16.5 -16 44.5q0 27 16 43.5t44 16.5t44.5 -16.5t16.5 -43.5q0 -28 -16.5 -44.5t-44.5 -16.5t-44 16.5z" />
    <glyph glyph-name="uni1EF5" unicode="&#x1ef5;" horiz-adv-x="486" 
d="M16 -186v95q34 -15 62 -15q36 0 57 22t39 69l16 42l-172 443h115l109 -304l116 304h112l-216 -537q-25 -63 -65.5 -98t-96.5 -35q-44 0 -76 14zM318 -153q-17 17 -17 45q0 29 17 46t45 17t45 -17t17 -46q0 -28 -17 -45t-45 -17t-45 17z" />
    <glyph glyph-name="ygrave" unicode="&#x1ef3;" horiz-adv-x="486" 
d="M16 -186v95q34 -15 62 -15q36 0 57 22t39 69l16 42l-172 443h115l109 -304l116 304h112l-216 -537q-25 -63 -65.5 -98t-96.5 -35q-44 0 -76 14zM287 546h-89l-105 144h126z" />
    <glyph glyph-name="uni1EF7" unicode="&#x1ef7;" horiz-adv-x="486" 
d="M16 -186v95q34 -15 62 -15q36 0 57 22t39 69l16 42l-172 443h115l109 -304l116 304h112l-216 -537q-25 -63 -65.5 -98t-96.5 -35q-44 0 -76 14zM240 562q10 21 10 36q0 14 -9 22t-24 8q-21 0 -37 -11l-26 58q14 10 34 17t43 7q50 0 75.5 -22.5t25.5 -62.5q0 -45 -45 -84z
" />
    <glyph glyph-name="uni1EF9" unicode="&#x1ef9;" horiz-adv-x="486" 
d="M16 -186v95q34 -15 62 -15q36 0 57 22t39 69l16 42l-172 443h115l109 -304l116 304h112l-216 -537q-25 -63 -65.5 -98t-96.5 -35q-44 0 -76 14zM272 585.5q-15 5.5 -37 16.5q-28 15 -44 15q-20 0 -34 -8t-28 -28l-44 45q35 67 102 67q20 0 35.5 -5t32.5 -15
q11 -5 22.5 -9.5t22.5 -4.5q21 0 33.5 7t28.5 29l39 -54q-17 -31 -38.5 -46t-55.5 -15q-20 0 -35 5.5z" />
    <glyph glyph-name="z" unicode="z" horiz-adv-x="454" 
d="M414 0h-374v93l235 283h-223v94h350v-90l-234 -286h246v-94z" />
    <glyph glyph-name="zacute" unicode="&#x17a;" horiz-adv-x="454" 
d="M414 0h-374v93l235 283h-223v94h350v-90l-234 -286h246v-94zM272 546h-89l69 144h125z" />
    <glyph glyph-name="zcaron" unicode="&#x17e;" horiz-adv-x="454" 
d="M414 0h-374v93l235 283h-223v94h350v-90l-234 -286h246v-94zM263 546h-73l-108 144h85l60 -71l59 71h85z" />
    <glyph glyph-name="zdotaccent" unicode="&#x17c;" horiz-adv-x="454" 
d="M414 0h-374v93l235 283h-223v94h350v-90l-234 -286h246v-94zM178 580.5q-18 18.5 -18 48.5q0 31 18 49.5t49 18.5t49.5 -18.5t18.5 -49.5q0 -30 -18.5 -48.5t-49.5 -18.5t-49 18.5z" />
    <glyph glyph-name="uni01B6" unicode="&#x1b6;" horiz-adv-x="454" 
d="M259 205l-91 -111h246v-94h-374v93l93 112h-59v87h131l70 84h-223v94h350v-90l-72 -88h47v-87h-118z" />
    <glyph glyph-name="glyph366" horiz-adv-x="511" 
d="M486 0h-123l-141 223l-43 -41v-182h-110v730h110v-420l170 160h134l-185 -175z" />
    <glyph glyph-name="glyph367" horiz-adv-x="511" 
d="M486 0h-123l-141 223l-43 -41v-182h-110v730h110v-420l170 160h134l-185 -175zM200 -178q22 8 34 16t17 20q-21 0 -34 13t-13 33t15 32.5t37 12.5q26 0 41.5 -15t15.5 -43q0 -41 -21 -65.5t-58 -38.5z" />
    <glyph glyph-name="glyph368" horiz-adv-x="511" 
d="M486 0h-123l-141 223l-43 -41v-182h-110v470h110v-160l170 160h134l-185 -175z" />
    <glyph glyph-name="glyph369" horiz-adv-x="248" 
d="M179 0h-110v730h110v-730z" />
    <glyph glyph-name="glyph370" horiz-adv-x="248" 
d="M179 0h-110v730h110v-730zM168 806h-89l69 144h125z" />
    <glyph glyph-name="glyph371" horiz-adv-x="248" 
d="M179 0h-110v730h110v-730zM248 478q64 44 76 86q-31 0 -49 18.5t-18 48.5t18.5 48.5t48.5 18.5q31 0 50.5 -22t19.5 -63q0 -59 -26 -102t-67 -77z" />
    <glyph glyph-name="glyph372" horiz-adv-x="248" 
d="M179 0h-110v730h110v-730zM69 -178q22 8 34 16t17 20q-21 0 -34 13t-13 33t15 32.5t37 12.5q26 0 41.5 -15t15.5 -43q0 -41 -21 -65.5t-58 -38.5z" />
    <glyph glyph-name="glyph373" horiz-adv-x="391" 
d="M179 0h-110v730h110v-730zM265.5 291q-20.5 21 -20.5 54t21 53.5t54 20.5t53.5 -21t20.5 -53q0 -33 -20.5 -54t-53.5 -21q-34 0 -54.5 21z" />
    <glyph glyph-name="glyph374" horiz-adv-x="286" 
d="M199 382l64 40v-109l-64 -40v-273h-110v204l-66 -41v109l66 41v417h110v-348z" />
    <glyph glyph-name="uniFB01" unicode="&#xfb01;" horiz-adv-x="606" 
d="M102 0v376h-84v94h84v111q0 80 42.5 121.5t123.5 41.5q40 0 77 -13v-96q-34 15 -67 15q-37 0 -51.5 -18t-14.5 -52v-110h120v-94h-120v-376h-110zM432 580.5q-18 18.5 -18 48.5q0 31 18 49.5t49 18.5t49.5 -18.5t18.5 -49.5q0 -30 -18.5 -48.5t-49.5 -18.5t-49 18.5z
M536 0h-110v470h110v-470z" />
    <glyph glyph-name="uniFB02" unicode="&#xfb02;" horiz-adv-x="641" 
d="M102 0v376h-84v94h84v111q0 80 42.5 121.5t123.5 41.5q40 0 77 -13v-96q-34 15 -67 15q-37 0 -51.5 -18t-14.5 -52v-110h120v-94h-120v-376h-110zM426 134v596h110v-587q0 -31 10.5 -44.5t34.5 -13.5q22 0 34 9v-94q-22 -12 -58 -12q-131 0 -131 146z" />
    <glyph glyph-name="glyph379" horiz-adv-x="606" 
d="M102 0v376h-84v94h84v111q0 80 42.5 121.5t123.5 41.5q40 0 77 -13v-96q-34 15 -67 15q-37 0 -51.5 -18t-14.5 -52v-110h120v-94h-120v-376h-110zM536 0h-110v730h110v-730z" />
    <glyph glyph-name="glyph380" horiz-adv-x="606" 
d="M102 0v376h-84v94h84v111q0 80 42.5 121.5t123.5 41.5q40 0 77 -13v-96q-34 15 -67 15q-37 0 -51.5 -18t-14.5 -52v-110h120v-94h-120v-376h-110zM536 0h-110v730h110v-730z" />
    <glyph glyph-name="ordfeminine" unicode="&#xaa;" horiz-adv-x="368" 
d="M323 564v-206h-85l-7 37q-14 -19 -37.5 -33t-56.5 -14q-45 0 -73 26.5t-28 72.5q0 57 51.5 84.5t143.5 28.5v4q0 27 -16 42.5t-45 15.5q-47 0 -85 -35l-45 55q25 27 60.5 41t76.5 14q146 0 146 -133zM231 455v49q-55 -1 -80.5 -15t-25.5 -36q0 -17 10.5 -26t28.5 -9
q38 0 67 37z" />
    <glyph glyph-name="ordmasculine" unicode="&#xba;" horiz-adv-x="384" 
d="M74.5 393.5q-47.5 45.5 -47.5 129.5q0 56 22.5 95.5t60 59t82.5 19.5t82.5 -19.5t60 -59t22.5 -95.5q0 -84 -47.5 -129.5t-117.5 -45.5t-117.5 45.5zM245.5 451.5q19.5 24.5 19.5 71.5t-19.5 71t-53.5 24t-53.5 -24t-19.5 -71t19.5 -71.5t53.5 -24.5t53.5 24.5z" />
    <glyph glyph-name="glyph383" horiz-adv-x="705" 
d="M61 0v106h138v20q-72 37 -116 111t-44 171q0 91 40.5 158t112 102.5t161.5 35.5t161 -35.5t111.5 -102.5t40.5 -158q0 -98 -44 -171.5t-116 -110.5v-20h138v-106h-250v173q156 59 156 226q0 94 -52 146.5t-145 52.5t-145.5 -52.5t-52.5 -146.5q0 -167 157 -226v-173h-251
z" />
    <glyph glyph-name="zero" unicode="0" horiz-adv-x="594" 
d="M164.5 26q-58.5 40 -92 120.5t-33.5 198.5t33.5 198.5t92 120.5t132.5 40t132 -40t91.5 -120.5t33.5 -198.5t-33.5 -198.5t-91.5 -120.5t-132 -40t-132.5 40zM405 149.5q35 62.5 35 195.5t-35 195.5t-108 62.5t-108 -62.5t-35 -195.5t35 -195.5t108 -62.5t108 62.5z" />
    <glyph glyph-name="one" unicode="1" horiz-adv-x="392" 
d="M200 546q-52 -98 -157 -109v129q45 5 88.5 38t68.5 86h116v-690h-116v546z" />
    <glyph glyph-name="two" unicode="2" horiz-adv-x="545" 
d="M504 101v-101h-458v31q0 79 27 135.5t72 96t113 79.5q72 43 98.5 78t26.5 79q0 47 -30 75.5t-85 28.5q-95 0 -131 -111l-96 48q24 73 80 118.5t151 45.5q105 0 165 -56t60 -150q0 -73 -42.5 -129t-133.5 -108q-69 -41 -105 -78.5t-45 -81.5h333z" />
    <glyph glyph-name="three" unicode="3" horiz-adv-x="561" 
d="M114.5 37.5q-63.5 51.5 -78.5 131.5l102 42q31 -124 138 -124q58 0 92 30t34 85q0 48 -31.5 74.5t-89.5 26.5h-54v98h47q46 0 78 27.5t32 76.5q0 43 -30 70.5t-81 27.5q-49 0 -80.5 -24.5t-45.5 -70.5l-97 38q19 70 75.5 113.5t146.5 43.5q107 0 166 -51.5t59 -136.5
q0 -101 -94 -151q50 -16 81.5 -58t31.5 -105q0 -64 -28.5 -112.5t-83 -75.5t-128.5 -27q-98 0 -161.5 51.5z" />
    <glyph glyph-name="four" unicode="4" horiz-adv-x="574" 
d="M463 238h91v-98h-91v-140h-109v140h-333v98l299 452h143v-452zM354 566l-212 -328h212v328z" />
    <glyph glyph-name="five" unicode="5" horiz-adv-x="557" 
d="M125.5 23.5q-59.5 37.5 -83.5 99.5l94 54q42 -91 138 -91q62 0 95 36t33 98q0 60 -32.5 96t-92.5 36q-38 0 -67.5 -16.5t-48.5 -41.5l-97 31l52 365h377v-105h-291l-29 -192q20 24 55 39t79 15q63 0 110.5 -27.5t73.5 -78t26 -115.5q0 -70 -28.5 -124.5t-84 -85
t-133.5 -30.5q-86 0 -145.5 37.5z" />
    <glyph glyph-name="six" unicode="6" horiz-adv-x="554" 
d="M412 418.5q49 -28.5 76.5 -81t27.5 -120.5q0 -66 -29.5 -118.5t-84 -82.5t-125.5 -30q-72 0 -126.5 29.5t-84 81t-29.5 115.5q0 53 15.5 99.5t46.5 95.5l181 283h133l-168 -254q28 11 57 11q61 0 110 -28.5zM367.5 122q34.5 37 34.5 95q0 59 -34 96t-91 37t-91 -37
t-34 -96q0 -58 34.5 -95t90.5 -37t90.5 37z" />
    <glyph glyph-name="seven" unicode="7" horiz-adv-x="487" 
d="M150 0q-3 174 47 321.5t144 264.5h-316v104h433v-104q-90 -96 -137 -238t-47 -312l1 -36h-125z" />
    <glyph glyph-name="eight" unicode="8" horiz-adv-x="552" 
d="M151.5 12q-53.5 26 -82 73t-28.5 106q0 65 31.5 109t86.5 66q-47 21 -72.5 61.5t-25.5 89.5q0 54 25.5 96.5t74.5 66.5t115 24t115 -24t74.5 -66.5t25.5 -96.5q0 -49 -25.5 -89.5t-72.5 -61.5q55 -22 86.5 -66.5t31.5 -107.5q0 -60 -28.5 -106.5t-82 -73t-124.5 -26.5
t-124.5 26zM354.5 432.5q29.5 28.5 29.5 73.5q0 46 -29 74.5t-79 28.5t-79 -28.5t-29 -74.5q0 -45 29.5 -73.5t78.5 -28.5t78.5 28.5zM365.5 112.5q33.5 31.5 33.5 85.5t-33.5 86t-89.5 32t-89.5 -32t-33.5 -86t33.5 -85.5t89.5 -31.5t89.5 31.5z" />
    <glyph glyph-name="nine" unicode="9" horiz-adv-x="554" 
d="M404 675q54 -29 83 -80.5t29 -116.5q0 -50 -16.5 -95t-49.5 -100l-172 -283h-136l163 252q-25 -9 -54 -9q-61 0 -110 28.5t-76.5 81t-27.5 120.5q0 66 29.5 118.5t84 82.5t126.5 30q73 0 127 -29zM368 376.5q34 36.5 34 95.5t-34 96t-91 37t-91 -37t-34 -96t34 -95.5
t91 -36.5t91 36.5z" />
    <glyph glyph-name="glyph394" horiz-adv-x="594" 
d="M429 664q58 -40 91.5 -120.5t33.5 -198.5t-33.5 -198.5t-91.5 -120.5t-132 -40t-132.5 40t-92 120.5t-33.5 198.5t33.5 198.5t92 120.5t132.5 40t132 -40zM189 540.5q-35 -62.5 -35 -195.5q0 -73 11 -128l213 358q-32 28 -81 28q-73 0 -108 -62.5zM405 149.5
q35 62.5 35 195.5q0 74 -11 129l-213 -359q31 -28 81 -28q73 0 108 62.5z" />
    <glyph glyph-name="glyph395" horiz-adv-x="600" 
d="M167.5 26q-58.5 40 -92 120.5t-33.5 198.5t33.5 198.5t92 120.5t132.5 40t132 -40t91.5 -120.5t33.5 -198.5t-33.5 -198.5t-91.5 -120.5t-132 -40t-132.5 40zM408 149.5q35 62.5 35 195.5t-35 195.5t-108 62.5t-108 -62.5t-35 -195.5t35 -195.5t108 -62.5t108 62.5z" />
    <glyph glyph-name="glyph396" horiz-adv-x="600" 
d="M354 101h170v-101h-456v101h170v445q-52 -98 -157 -109v129q45 5 88.5 38t68.5 86h116v-589z" />
    <glyph glyph-name="glyph397" horiz-adv-x="600" 
d="M536 101v-101h-458v31q0 79 27 135.5t72 96t113 79.5q72 43 98.5 78t26.5 79q0 47 -30 75.5t-85 28.5q-95 0 -131 -111l-96 48q24 73 80 118.5t151 45.5q105 0 165 -56t60 -150q0 -73 -42.5 -129t-133.5 -108q-69 -41 -105 -78.5t-45 -81.5h333z" />
    <glyph glyph-name="glyph398" horiz-adv-x="600" 
d="M138.5 37.5q-63.5 51.5 -78.5 131.5l102 42q31 -124 138 -124q58 0 92 30t34 85q0 48 -31.5 74.5t-89.5 26.5h-54v98h47q46 0 78 27.5t32 76.5q0 43 -30 70.5t-81 27.5q-49 0 -80.5 -24.5t-45.5 -70.5l-97 38q19 70 75.5 113.5t146.5 43.5q107 0 166 -51.5t59 -136.5
q0 -101 -94 -151q50 -16 81.5 -58t31.5 -105q0 -64 -28.5 -112.5t-83 -75.5t-128.5 -27q-98 0 -161.5 51.5z" />
    <glyph glyph-name="glyph399" horiz-adv-x="600" 
d="M475 238h91v-98h-91v-140h-109v140h-333v98l299 452h143v-452zM366 566l-212 -328h212v328z" />
    <glyph glyph-name="glyph400" horiz-adv-x="600" 
d="M164.5 23.5q-59.5 37.5 -83.5 99.5l94 54q42 -91 138 -91q62 0 95 36t33 98q0 60 -32.5 96t-92.5 36q-38 0 -67.5 -16.5t-48.5 -41.5l-97 31l52 365h377v-105h-291l-29 -192q20 24 55 39t79 15q63 0 110.5 -27.5t73.5 -78t26 -115.5q0 -70 -28.5 -124.5t-84 -85
t-133.5 -30.5q-86 0 -145.5 37.5z" />
    <glyph glyph-name="glyph401" horiz-adv-x="600" 
d="M435 418.5q49 -28.5 76.5 -81t27.5 -120.5q0 -66 -29.5 -118.5t-84 -82.5t-125.5 -30q-72 0 -126.5 29.5t-84 81t-29.5 115.5q0 53 15.5 99.5t46.5 95.5l181 283h133l-168 -254q28 11 57 11q61 0 110 -28.5zM390.5 122q34.5 37 34.5 95q0 59 -34 96t-91 37t-91 -37
t-34 -96q0 -58 34.5 -95t90.5 -37t90.5 37z" />
    <glyph glyph-name="glyph402" horiz-adv-x="600" 
d="M199 0q-3 174 47 321.5t144 264.5h-316v104h433v-104q-90 -96 -137 -238t-47 -312l1 -36h-125z" />
    <glyph glyph-name="glyph403" horiz-adv-x="600" 
d="M175.5 12q-53.5 26 -82 73t-28.5 106q0 65 31.5 109t86.5 66q-47 21 -72.5 61.5t-25.5 89.5q0 54 25.5 96.5t74.5 66.5t115 24t115 -24t74.5 -66.5t25.5 -96.5q0 -49 -25.5 -89.5t-72.5 -61.5q55 -22 86.5 -66.5t31.5 -107.5q0 -60 -28.5 -106.5t-82 -73t-124.5 -26.5
t-124.5 26zM378.5 432.5q29.5 28.5 29.5 73.5q0 46 -29 74.5t-79 28.5t-79 -28.5t-29 -74.5q0 -45 29.5 -73.5t78.5 -28.5t78.5 28.5zM389.5 112.5q33.5 31.5 33.5 85.5t-33.5 86t-89.5 32t-89.5 -32t-33.5 -86t33.5 -85.5t89.5 -31.5t89.5 31.5z" />
    <glyph glyph-name="glyph404" horiz-adv-x="600" 
d="M427 675q54 -29 83 -80.5t29 -116.5q0 -50 -16.5 -95t-49.5 -100l-172 -283h-136l163 252q-25 -9 -54 -9q-61 0 -110 28.5t-76.5 81t-27.5 120.5q0 66 29.5 118.5t84 82.5t126.5 30q73 0 127 -29zM391 376.5q34 36.5 34 95.5t-34 96t-91 37t-91 -37t-34 -96t34 -95.5
t91 -36.5t91 36.5z" />
    <glyph glyph-name="glyph405" horiz-adv-x="600" 
d="M432 664q58 -40 91.5 -120.5t33.5 -198.5t-33.5 -198.5t-91.5 -120.5t-132 -40t-132.5 40t-92 120.5t-33.5 198.5t33.5 198.5t92 120.5t132.5 40t132 -40zM192 540.5q-35 -62.5 -35 -195.5q0 -73 11 -128l213 358q-32 28 -81 28q-73 0 -108 -62.5zM408 149.5
q35 62.5 35 195.5q0 74 -11 129l-213 -359q31 -28 81 -28q73 0 108 62.5z" />
    <glyph glyph-name="uni2080" unicode="&#x2080;" horiz-adv-x="349" 
d="M64 -57.5q-44 50.5 -44 147.5t44 147t110 50q67 0 111 -50t44 -147t-44 -147.5t-111 -50.5q-66 0 -110 50.5zM225.5 -4.5q16.5 28.5 16.5 94.5q0 65 -17 93.5t-51 28.5t-51 -28.5t-17 -93.5q0 -66 17 -94.5t51 -28.5q35 0 51.5 28.5z" />
    <glyph glyph-name="uni2081" unicode="&#x2081;" horiz-adv-x="242" 
d="M116 179q-29 -58 -97 -72v96q63 8 97 77h88v-380h-88v279z" />
    <glyph glyph-name="uni2082" unicode="&#x2082;" horiz-adv-x="303" 
d="M287 -24v-76h-265v29q0 74 27 111.5t87 62.5q63 27 63 66q0 21 -13.5 32.5t-36.5 11.5q-22 0 -38.5 -14.5t-23.5 -40.5l-70 38q34 91 136 91q63 0 97 -30.5t34 -84.5q0 -43 -25 -73t-76 -53q-36 -16 -54.5 -31.5t-22.5 -38.5h181z" />
    <glyph glyph-name="uni2083" unicode="&#x2083;" horiz-adv-x="315" 
d="M62.5 -80q-37.5 28 -46.5 72l72 30q9 -29 25 -43t42 -14q27 0 41.5 13.5t14.5 36.5q0 47 -58 47h-19v62h17q24 0 38.5 12.5t14.5 33.5q0 19 -13.5 31.5t-37.5 12.5q-45 0 -61 -42l-70 27q13 40 46.5 64t84.5 24q63 0 97.5 -29t34.5 -78t-49 -79q26 -11 42 -33.5t16 -56.5
q0 -53 -36.5 -86t-102.5 -33q-55 0 -92.5 28z" />
    <glyph glyph-name="uni2084" unicode="&#x2084;" horiz-adv-x="329" 
d="M279 38h41v-72h-41v-66h-80v66h-189v72l164 242h105v-242zM199 192l-100 -154h100v154z" />
    <glyph glyph-name="uni2085" unicode="&#x2085;" horiz-adv-x="298" 
d="M58 -86q-34 22 -46 59l69 36q20 -44 63 -44q27 0 42.5 16.5t15.5 42.5q0 27 -15 43.5t-42 16.5q-18 0 -33 -8.5t-25 -22.5l-68 16l29 211h226v-76h-161l-15 -80q24 26 73 26q54 0 85 -34t31 -91q0 -61 -37 -97t-108 -36q-50 0 -84 22z" />
    <glyph glyph-name="uni2086" unicode="&#x2086;" horiz-adv-x="311" 
d="M259 115.5q34 -34.5 34 -92.5t-36.5 -94.5t-101.5 -36.5q-64 0 -100.5 36t-36.5 90q0 34 10 60t31 57l94 145h101l-92 -132q10 2 15 2q48 0 82 -34.5zM196.5 -20.5q15.5 16.5 15.5 42.5t-15.5 42.5t-41.5 16.5q-25 0 -40.5 -16.5t-15.5 -42.5t15.5 -42.5t40.5 -16.5
q26 0 41.5 16.5z" />
    <glyph glyph-name="uni2087" unicode="&#x2087;" horiz-adv-x="282" 
d="M81 -100q0 95 29.5 169t83.5 135h-184v76h265v-76q-110 -129 -110 -304h-84z" />
    <glyph glyph-name="uni2088" unicode="&#x2088;" horiz-adv-x="318" 
d="M57.5 -76q-38.5 32 -38.5 84q0 35 18 59t43 34q-50 27 -50 79q0 48 33.5 77.5t95.5 29.5t95.5 -29.5t33.5 -77.5q0 -25 -13 -45.5t-37 -33.5q25 -10 42.5 -35t17.5 -58q0 -52 -38 -84t-101 -32t-101.5 32zM194.5 138q13.5 13 13.5 34t-13.5 34t-35.5 13t-36 -13.5
t-14 -33.5t13.5 -33.5t36.5 -13.5q22 0 35.5 13zM199.5 -25q15.5 15 15.5 38t-15.5 38t-40.5 15t-40.5 -15t-15.5 -38t15.5 -38t40.5 -15t40.5 15z" />
    <glyph glyph-name="uni2089" unicode="&#x2089;" horiz-adv-x="309" 
d="M256.5 251.5q36.5 -35.5 36.5 -90.5q0 -33 -10 -59.5t-30 -57.5l-95 -144h-101l91 130l-13 -1q-48 0 -82.5 35t-34.5 93q0 57 36.5 93.5t101.5 36.5q64 0 100.5 -35.5zM197 115q15 17 15 42q0 26 -15 43t-41 17t-40.5 -17t-14.5 -43t14.5 -42.5t40.5 -16.5t41 17z" />
    <glyph glyph-name="zero.dnom" horiz-adv-x="349" 
d="M64 42.5q-44 50.5 -44 147.5t44 147t110 50q67 0 111 -50t44 -147t-44 -147.5t-111 -50.5q-66 0 -110 50.5zM225.5 95.5q16.5 28.5 16.5 94.5q0 65 -17 93.5t-51 28.5t-51 -28.5t-17 -93.5q0 -66 17 -94.5t51 -28.5q35 0 51.5 28.5z" />
    <glyph glyph-name="one.dnom" horiz-adv-x="242" 
d="M116 279q-29 -58 -97 -72v96q63 8 97 77h88v-380h-88v279z" />
    <glyph glyph-name="two.dnom" horiz-adv-x="303" 
d="M287 76v-76h-265v29q0 74 27 111.5t87 62.5q63 27 63 66q0 21 -13.5 32.5t-36.5 11.5q-22 0 -38.5 -14.5t-23.5 -40.5l-70 38q34 91 136 91q63 0 97 -30.5t34 -84.5q0 -43 -25 -73t-76 -53q-36 -16 -54.5 -31.5t-22.5 -38.5h181z" />
    <glyph glyph-name="three.dnom" horiz-adv-x="315" 
d="M62.5 20q-37.5 28 -46.5 72l72 30q9 -29 25 -43t42 -14q27 0 41.5 13.5t14.5 36.5q0 47 -58 47h-19v62h17q24 0 38.5 12.5t14.5 33.5q0 19 -13.5 31.5t-37.5 12.5q-45 0 -61 -42l-70 27q13 40 46.5 64t84.5 24q63 0 97.5 -29t34.5 -78t-49 -79q26 -11 42 -33.5t16 -56.5
q0 -53 -36.5 -86t-102.5 -33q-55 0 -92.5 28z" />
    <glyph glyph-name="four.dnom" horiz-adv-x="329" 
d="M279 138h41v-72h-41v-66h-80v66h-189v72l164 242h105v-242zM199 292l-100 -154h100v154z" />
    <glyph glyph-name="five.dnom" horiz-adv-x="298" 
d="M58 14q-34 22 -46 59l69 36q20 -44 63 -44q27 0 42.5 16.5t15.5 42.5q0 27 -15 43.5t-42 16.5q-18 0 -33 -8.5t-25 -22.5l-68 16l29 211h226v-76h-161l-15 -80q24 26 73 26q54 0 85 -34t31 -91q0 -61 -37 -97t-108 -36q-50 0 -84 22z" />
    <glyph glyph-name="six.dnom" horiz-adv-x="311" 
d="M259 215.5q34 -34.5 34 -92.5t-36.5 -94.5t-101.5 -36.5q-64 0 -100.5 36t-36.5 90q0 34 10 60t31 57l94 145h101l-92 -132q10 2 15 2q48 0 82 -34.5zM196.5 79.5q15.5 16.5 15.5 42.5t-15.5 42.5t-41.5 16.5q-25 0 -40.5 -16.5t-15.5 -42.5t15.5 -42.5t40.5 -16.5
q26 0 41.5 16.5z" />
    <glyph glyph-name="seven.dnom" horiz-adv-x="282" 
d="M81 0q0 95 29.5 169t83.5 135h-184v76h265v-76q-110 -129 -110 -304h-84z" />
    <glyph glyph-name="eight.dnom" horiz-adv-x="318" 
d="M57.5 24q-38.5 32 -38.5 84q0 35 18 59t43 34q-50 27 -50 79q0 48 33.5 77.5t95.5 29.5t95.5 -29.5t33.5 -77.5q0 -25 -13 -45.5t-37 -33.5q25 -10 42.5 -35t17.5 -58q0 -52 -38 -84t-101 -32t-101.5 32zM194.5 238q13.5 13 13.5 34t-13.5 34t-35.5 13t-36 -13.5
t-14 -33.5t13.5 -33.5t36.5 -13.5q22 0 35.5 13zM199.5 75q15.5 15 15.5 38t-15.5 38t-40.5 15t-40.5 -15t-15.5 -38t15.5 -38t40.5 -15t40.5 15z" />
    <glyph glyph-name="nine.dnom" horiz-adv-x="309" 
d="M256.5 351.5q36.5 -35.5 36.5 -90.5q0 -33 -10 -59.5t-30 -57.5l-95 -144h-101l91 130l-13 -1q-48 0 -82.5 35t-34.5 93q0 57 36.5 93.5t101.5 36.5q64 0 100.5 -35.5zM197 215q15 17 15 42q0 26 -15 43t-41 17t-40.5 -17t-14.5 -43t14.5 -42.5t40.5 -16.5t41 17z" />
    <glyph glyph-name="zero.numr" horiz-adv-x="349" 
d="M64 352.5q-44 50.5 -44 147.5t44 147t110 50q67 0 111 -50t44 -147t-44 -147.5t-111 -50.5q-66 0 -110 50.5zM225.5 405.5q16.5 28.5 16.5 94.5q0 65 -17 93.5t-51 28.5t-51 -28.5t-17 -93.5q0 -66 17 -94.5t51 -28.5q35 0 51.5 28.5z" />
    <glyph glyph-name="one.numr" horiz-adv-x="242" 
d="M116 589q-29 -58 -97 -72v96q63 8 97 77h88v-380h-88v279z" />
    <glyph glyph-name="two.numr" horiz-adv-x="303" 
d="M287 386v-76h-265v29q0 74 27 111.5t87 62.5q63 27 63 66q0 21 -13.5 32.5t-36.5 11.5q-22 0 -38.5 -14.5t-23.5 -40.5l-70 38q34 91 136 91q63 0 97 -30.5t34 -84.5q0 -43 -25 -73t-76 -53q-36 -16 -54.5 -31.5t-22.5 -38.5h181z" />
    <glyph glyph-name="three.numr" horiz-adv-x="315" 
d="M62.5 330q-37.5 28 -46.5 72l72 30q9 -29 25 -43t42 -14q27 0 41.5 13.5t14.5 36.5q0 47 -58 47h-19v62h17q24 0 38.5 12.5t14.5 33.5q0 19 -13.5 31.5t-37.5 12.5q-45 0 -61 -42l-70 27q13 40 46.5 64t84.5 24q63 0 97.5 -29t34.5 -78t-49 -79q26 -11 42 -33.5t16 -56.5
q0 -53 -36.5 -86t-102.5 -33q-55 0 -92.5 28z" />
    <glyph glyph-name="four.numr" horiz-adv-x="329" 
d="M279 448h41v-72h-41v-66h-80v66h-189v72l164 242h105v-242zM199 602l-100 -154h100v154z" />
    <glyph glyph-name="five.numr" horiz-adv-x="298" 
d="M58 324q-34 22 -46 59l69 36q20 -44 63 -44q27 0 42.5 16.5t15.5 42.5q0 27 -15 43.5t-42 16.5q-18 0 -33 -8.5t-25 -22.5l-68 16l29 211h226v-76h-161l-15 -80q24 26 73 26q54 0 85 -34t31 -91q0 -61 -37 -97t-108 -36q-50 0 -84 22z" />
    <glyph glyph-name="six.numr" horiz-adv-x="311" 
d="M259 525.5q34 -34.5 34 -92.5t-36.5 -94.5t-101.5 -36.5q-64 0 -100.5 36t-36.5 90q0 34 10 60t31 57l94 145h101l-92 -132q10 2 15 2q48 0 82 -34.5zM196.5 389.5q15.5 16.5 15.5 42.5t-15.5 42.5t-41.5 16.5q-25 0 -40.5 -16.5t-15.5 -42.5t15.5 -42.5t40.5 -16.5
q26 0 41.5 16.5z" />
    <glyph glyph-name="seven.numr" horiz-adv-x="282" 
d="M81 310q0 95 29.5 169t83.5 135h-184v76h265v-76q-110 -129 -110 -304h-84z" />
    <glyph glyph-name="eight.numr" horiz-adv-x="318" 
d="M57.5 334q-38.5 32 -38.5 84q0 35 18 59t43 34q-50 27 -50 79q0 48 33.5 77.5t95.5 29.5t95.5 -29.5t33.5 -77.5q0 -25 -13 -45.5t-37 -33.5q25 -10 42.5 -35t17.5 -58q0 -52 -38 -84t-101 -32t-101.5 32zM194.5 548q13.5 13 13.5 34t-13.5 34t-35.5 13t-36 -13.5
t-14 -33.5t13.5 -33.5t36.5 -13.5q22 0 35.5 13zM199.5 385q15.5 15 15.5 38t-15.5 38t-40.5 15t-40.5 -15t-15.5 -38t15.5 -38t40.5 -15t40.5 15z" />
    <glyph glyph-name="nine.numr" horiz-adv-x="309" 
d="M256.5 661.5q36.5 -35.5 36.5 -90.5q0 -33 -10 -59.5t-30 -57.5l-95 -144h-101l91 130l-13 -1q-48 0 -82.5 35t-34.5 93q0 57 36.5 93.5t101.5 36.5q64 0 100.5 -35.5zM197 525q15 17 15 42q0 26 -15 43t-41 17t-40.5 -17t-14.5 -43t14.5 -42.5t40.5 -16.5t41 17z" />
    <glyph glyph-name="uni2070" unicode="&#x2070;" horiz-adv-x="349" 
d="M64 452.5q-44 50.5 -44 147.5t44 147t110 50q67 0 111 -50t44 -147t-44 -147.5t-111 -50.5q-66 0 -110 50.5zM225.5 505.5q16.5 28.5 16.5 94.5q0 65 -17 93.5t-51 28.5t-51 -28.5t-17 -93.5q0 -66 17 -94.5t51 -28.5q35 0 51.5 28.5z" />
    <glyph glyph-name="uni00B9" unicode="&#xb9;" horiz-adv-x="242" 
d="M116 689q-29 -58 -97 -72v96q63 8 97 77h88v-380h-88v279z" />
    <glyph glyph-name="uni00B2" unicode="&#xb2;" horiz-adv-x="303" 
d="M287 486v-76h-265v29q0 74 27 111.5t87 62.5q63 27 63 66q0 21 -13.5 32.5t-36.5 11.5q-22 0 -38.5 -14.5t-23.5 -40.5l-70 38q34 91 136 91q63 0 97 -30.5t34 -84.5q0 -43 -25 -73t-76 -53q-36 -16 -54.5 -31.5t-22.5 -38.5h181z" />
    <glyph glyph-name="uni00B3" unicode="&#xb3;" horiz-adv-x="315" 
d="M62.5 430q-37.5 28 -46.5 72l72 30q9 -29 25 -43t42 -14q27 0 41.5 13.5t14.5 36.5q0 47 -58 47h-19v62h17q24 0 38.5 12.5t14.5 33.5q0 19 -13.5 31.5t-37.5 12.5q-45 0 -61 -42l-70 27q13 40 46.5 64t84.5 24q63 0 97.5 -29t34.5 -78t-49 -79q26 -11 42 -33.5t16 -56.5
q0 -53 -36.5 -86t-102.5 -33q-55 0 -92.5 28z" />
    <glyph glyph-name="uni2074" unicode="&#x2074;" horiz-adv-x="329" 
d="M279 548h41v-72h-41v-66h-80v66h-189v72l164 242h105v-242zM199 702l-100 -154h100v154z" />
    <glyph glyph-name="uni2075" unicode="&#x2075;" horiz-adv-x="298" 
d="M58 424q-34 22 -46 59l69 36q20 -44 63 -44q27 0 42.5 16.5t15.5 42.5q0 27 -15 43.5t-42 16.5q-18 0 -33 -8.5t-25 -22.5l-68 16l29 211h226v-76h-161l-15 -80q24 26 73 26q54 0 85 -34t31 -91q0 -61 -37 -97t-108 -36q-50 0 -84 22z" />
    <glyph glyph-name="uni2076" unicode="&#x2076;" horiz-adv-x="311" 
d="M259 625.5q34 -34.5 34 -92.5t-36.5 -94.5t-101.5 -36.5q-64 0 -100.5 36t-36.5 90q0 34 10 60t31 57l94 145h101l-92 -132q10 2 15 2q48 0 82 -34.5zM196.5 489.5q15.5 16.5 15.5 42.5t-15.5 42.5t-41.5 16.5q-25 0 -40.5 -16.5t-15.5 -42.5t15.5 -42.5t40.5 -16.5
q26 0 41.5 16.5z" />
    <glyph glyph-name="uni2077" unicode="&#x2077;" horiz-adv-x="282" 
d="M81 410q0 95 29.5 169t83.5 135h-184v76h265v-76q-110 -129 -110 -304h-84z" />
    <glyph glyph-name="uni2078" unicode="&#x2078;" horiz-adv-x="318" 
d="M57.5 434q-38.5 32 -38.5 84q0 35 18 59t43 34q-50 27 -50 79q0 48 33.5 77.5t95.5 29.5t95.5 -29.5t33.5 -77.5q0 -25 -13 -45.5t-37 -33.5q25 -10 42.5 -35t17.5 -58q0 -52 -38 -84t-101 -32t-101.5 32zM194.5 648q13.5 13 13.5 34t-13.5 34t-35.5 13t-36 -13.5
t-14 -33.5t13.5 -33.5t36.5 -13.5q22 0 35.5 13zM199.5 485q15.5 15 15.5 38t-15.5 38t-40.5 15t-40.5 -15t-15.5 -38t15.5 -38t40.5 -15t40.5 15z" />
    <glyph glyph-name="uni2079" unicode="&#x2079;" horiz-adv-x="309" 
d="M256.5 761.5q36.5 -35.5 36.5 -90.5q0 -33 -10 -59.5t-30 -57.5l-95 -144h-101l91 130l-13 -1q-48 0 -82.5 35t-34.5 93q0 57 36.5 93.5t101.5 36.5q64 0 100.5 -35.5zM197 625q15 17 15 42q0 26 -15 43t-41 17t-40.5 -17t-14.5 -43t14.5 -42.5t40.5 -16.5t41 17z" />
    <glyph glyph-name="fraction" unicode="&#x2044;" horiz-adv-x="235" 
d="M-35 0h-99l405 690h98z" />
    <glyph glyph-name="onehalf" unicode="&#xbd;" horiz-adv-x="766" 
d="M116 589q-29 -58 -97 -72v96q63 8 97 77h88v-380h-88v279zM207 0h-99l405 690h98zM750 76v-76h-265v29q0 74 27 111.5t87 62.5q63 27 63 66q0 21 -13.5 32.5t-36.5 11.5q-22 0 -38.5 -14.5t-23.5 -40.5l-70 38q34 91 136 91q63 0 97 -30.5t34 -84.5q0 -43 -25 -73
t-76 -53q-36 -16 -54.5 -31.5t-22.5 -38.5h181z" />
    <glyph glyph-name="onethird" unicode="&#x2153;" horiz-adv-x="773" 
d="M116 589q-29 -58 -97 -72v96q63 8 97 77h88v-380h-88v279zM207 0h-99l405 690h98zM520.5 20q-37.5 28 -46.5 72l72 30q9 -29 25 -43t42 -14q27 0 41.5 13.5t14.5 36.5q0 47 -58 47h-19v62h17q24 0 38.5 12.5t14.5 33.5q0 19 -13.5 31.5t-37.5 12.5q-45 0 -61 -42l-70 27
q13 40 46.5 64t84.5 24q63 0 97.5 -29t34.5 -78t-49 -79q26 -11 42 -33.5t16 -56.5q0 -53 -36.5 -86t-102.5 -33q-55 0 -92.5 28z" />
    <glyph glyph-name="twothirds" unicode="&#x2154;" horiz-adv-x="834" 
d="M287 386v-76h-265v29q0 74 27 111.5t87 62.5q63 27 63 66q0 21 -13.5 32.5t-36.5 11.5q-22 0 -38.5 -14.5t-23.5 -40.5l-70 38q34 91 136 91q63 0 97 -30.5t34 -84.5q0 -43 -25 -73t-76 -53q-36 -16 -54.5 -31.5t-22.5 -38.5h181zM268 0h-99l405 690h98zM581.5 20
q-37.5 28 -46.5 72l72 30q9 -29 25 -43t42 -14q27 0 41.5 13.5t14.5 36.5q0 47 -58 47h-19v62h17q24 0 38.5 12.5t14.5 33.5q0 19 -13.5 31.5t-37.5 12.5q-45 0 -61 -42l-70 27q13 40 46.5 64t84.5 24q63 0 97.5 -29t34.5 -78t-49 -79q26 -11 42 -33.5t16 -56.5
q0 -53 -36.5 -86t-102.5 -33q-55 0 -92.5 28z" />
    <glyph glyph-name="onequarter" unicode="&#xbc;" horiz-adv-x="736" 
d="M116 589q-29 -58 -97 -72v96q63 8 97 77h88v-380h-88v279zM207 0h-99l405 690h98zM686 138h41v-72h-41v-66h-80v66h-189v72l164 242h105v-242zM606 292l-100 -154h100v154z" />
    <glyph glyph-name="threequarters" unicode="&#xbe;" horiz-adv-x="788" 
d="M62.5 330q-37.5 28 -46.5 72l72 30q9 -29 25 -43t42 -14q27 0 41.5 13.5t14.5 36.5q0 47 -58 47h-19v62h17q24 0 38.5 12.5t14.5 33.5q0 19 -13.5 31.5t-37.5 12.5q-45 0 -61 -42l-70 27q13 40 46.5 64t84.5 24q63 0 97.5 -29t34.5 -78t-49 -79q26 -11 42 -33.5t16 -56.5
q0 -53 -36.5 -86t-102.5 -33q-55 0 -92.5 28zM259 0h-99l405 690h98zM738 138h41v-72h-41v-66h-80v66h-189v72l164 242h105v-242zM658 292l-100 -154h100v154z" />
    <glyph glyph-name="oneeighth" unicode="&#x215b;" horiz-adv-x="769" 
d="M116 589q-29 -58 -97 -72v96q63 8 97 77h88v-380h-88v279zM207 0h-99l405 690h98zM508.5 24q-38.5 32 -38.5 84q0 35 18 59t43 34q-50 27 -50 79q0 48 33.5 77.5t95.5 29.5t95.5 -29.5t33.5 -77.5q0 -25 -13 -45.5t-37 -33.5q25 -10 42.5 -35t17.5 -58q0 -52 -38 -84
t-101 -32t-101.5 32zM645.5 238q13.5 13 13.5 34t-13.5 34t-35.5 13t-36 -13.5t-14 -33.5t13.5 -33.5t36.5 -13.5q22 0 35.5 13zM650.5 75q15.5 15 15.5 38t-15.5 38t-40.5 15t-40.5 -15t-15.5 -38t15.5 -38t40.5 -15t40.5 15z" />
    <glyph glyph-name="threeeighths" unicode="&#x215c;" horiz-adv-x="821" 
d="M62.5 330q-37.5 28 -46.5 72l72 30q9 -29 25 -43t42 -14q27 0 41.5 13.5t14.5 36.5q0 47 -58 47h-19v62h17q24 0 38.5 12.5t14.5 33.5q0 19 -13.5 31.5t-37.5 12.5q-45 0 -61 -42l-70 27q13 40 46.5 64t84.5 24q63 0 97.5 -29t34.5 -78t-49 -79q26 -11 42 -33.5t16 -56.5
q0 -53 -36.5 -86t-102.5 -33q-55 0 -92.5 28zM259 0h-99l405 690h98zM560.5 24q-38.5 32 -38.5 84q0 35 18 59t43 34q-50 27 -50 79q0 48 33.5 77.5t95.5 29.5t95.5 -29.5t33.5 -77.5q0 -25 -13 -45.5t-37 -33.5q25 -10 42.5 -35t17.5 -58q0 -52 -38 -84t-101 -32t-101.5 32
zM697.5 238q13.5 13 13.5 34t-13.5 34t-35.5 13t-36 -13.5t-14 -33.5t13.5 -33.5t36.5 -13.5q22 0 35.5 13zM702.5 75q15.5 15 15.5 38t-15.5 38t-40.5 15t-40.5 -15t-15.5 -38t15.5 -38t40.5 -15t40.5 15z" />
    <glyph glyph-name="fiveeighths" unicode="&#x215d;" horiz-adv-x="803" 
d="M58 324q-34 22 -46 59l69 36q20 -44 63 -44q27 0 42.5 16.5t15.5 42.5q0 27 -15 43.5t-42 16.5q-18 0 -33 -8.5t-25 -22.5l-68 16l29 211h226v-76h-161l-15 -80q24 26 73 26q54 0 85 -34t31 -91q0 -61 -37 -97t-108 -36q-50 0 -84 22zM241 0h-99l405 690h98zM542.5 24
q-38.5 32 -38.5 84q0 35 18 59t43 34q-50 27 -50 79q0 48 33.5 77.5t95.5 29.5t95.5 -29.5t33.5 -77.5q0 -25 -13 -45.5t-37 -33.5q25 -10 42.5 -35t17.5 -58q0 -52 -38 -84t-101 -32t-101.5 32zM679.5 238q13.5 13 13.5 34t-13.5 34t-35.5 13t-36 -13.5t-14 -33.5
t13.5 -33.5t36.5 -13.5q22 0 35.5 13zM684.5 75q15.5 15 15.5 38t-15.5 38t-40.5 15t-40.5 -15t-15.5 -38t15.5 -38t40.5 -15t40.5 15z" />
    <glyph glyph-name="seveneighths" unicode="&#x215e;" horiz-adv-x="727" 
d="M81 310q0 95 29.5 169t83.5 135h-184v76h265v-76q-110 -129 -110 -304h-84zM165 0h-99l405 690h98zM466.5 24q-38.5 32 -38.5 84q0 35 18 59t43 34q-50 27 -50 79q0 48 33.5 77.5t95.5 29.5t95.5 -29.5t33.5 -77.5q0 -25 -13 -45.5t-37 -33.5q25 -10 42.5 -35t17.5 -58
q0 -52 -38 -84t-101 -32t-101.5 32zM603.5 238q13.5 13 13.5 34t-13.5 34t-35.5 13t-36 -13.5t-14 -33.5t13.5 -33.5t36.5 -13.5q22 0 35.5 13zM608.5 75q15.5 15 15.5 38t-15.5 38t-40.5 15t-40.5 -15t-15.5 -38t15.5 -38t40.5 -15t40.5 15z" />
    <glyph glyph-name="glyph456" horiz-adv-x="349" 
d="M285 237q44 -50 44 -147t-44 -147.5t-111 -50.5q-66 0 -110 50.5t-44 147.5t44 147t110 50q67 0 111 -50zM123 183.5q-17 -28.5 -17 -93.5q0 -47 9 -74l91 188q-12 8 -32 8q-34 0 -51 -28.5zM225.5 -4.5q16.5 28.5 16.5 94.5q0 39 -7 70l-91 -186q13 -7 30 -7
q35 0 51.5 28.5z" />
    <glyph glyph-name="glyph457" horiz-adv-x="349" 
d="M285 337q44 -50 44 -147t-44 -147.5t-111 -50.5q-66 0 -110 50.5t-44 147.5t44 147t110 50q67 0 111 -50zM123 283.5q-17 -28.5 -17 -93.5q0 -47 9 -74l91 188q-12 8 -32 8q-34 0 -51 -28.5zM225.5 95.5q16.5 28.5 16.5 94.5q0 39 -7 70l-91 -186q13 -7 30 -7
q35 0 51.5 28.5z" />
    <glyph glyph-name="glyph458" horiz-adv-x="349" 
d="M285 647q44 -50 44 -147t-44 -147.5t-111 -50.5q-66 0 -110 50.5t-44 147.5t44 147t110 50q67 0 111 -50zM123 593.5q-17 -28.5 -17 -93.5q0 -47 9 -74l91 188q-12 8 -32 8q-34 0 -51 -28.5zM225.5 405.5q16.5 28.5 16.5 94.5q0 39 -7 70l-91 -186q13 -7 30 -7
q35 0 51.5 28.5z" />
    <glyph glyph-name="glyph459" horiz-adv-x="349" 
d="M285 747q44 -50 44 -147t-44 -147.5t-111 -50.5q-66 0 -110 50.5t-44 147.5t44 147t110 50q67 0 111 -50zM123 693.5q-17 -28.5 -17 -93.5q0 -47 9 -74l91 188q-12 8 -32 8q-34 0 -51 -28.5zM225.5 505.5q16.5 28.5 16.5 94.5q0 39 -7 70l-91 -186q13 -7 30 -7
q35 0 51.5 28.5z" />
    <glyph glyph-name="period" unicode="." horiz-adv-x="252" 
d="M71.5 13q-20.5 21 -20.5 54t21 53.5t54 20.5t53.5 -21t20.5 -53q0 -33 -20.5 -54t-53.5 -21q-34 0 -54.5 21z" />
    <glyph glyph-name="comma" unicode="," horiz-adv-x="264" 
d="M60 -101q58 48 68 93q-35 0 -56 20.5t-21 54.5q0 33 20.5 53.5t53.5 20.5q35 0 56.5 -25t21.5 -69q0 -67 -18.5 -112t-60.5 -89z" />
    <glyph glyph-name="colon" unicode=":" horiz-adv-x="252" 
d="M71.5 13q-20.5 21 -20.5 54t21 53.5t54 20.5t53.5 -21t20.5 -53q0 -33 -20.5 -54t-53.5 -21q-34 0 -54.5 21zM71.5 350q-20.5 21 -20.5 54t21 53.5t54 20.5t53.5 -21t20.5 -53q0 -33 -20.5 -54t-53.5 -21q-34 0 -54.5 21z" />
    <glyph glyph-name="semicolon" unicode=";" horiz-adv-x="264" 
d="M60 -101q58 48 68 93q-35 0 -56 20.5t-21 54.5q0 33 20.5 53.5t53.5 20.5q35 0 56.5 -25t21.5 -69q0 -67 -18.5 -112t-60.5 -89zM71.5 350q-20.5 21 -20.5 54t21 53.5t54 20.5t53.5 -21t20.5 -53q0 -33 -20.5 -54t-53.5 -21q-34 0 -54.5 21z" />
    <glyph glyph-name="ellipsis" unicode="&#x2026;" horiz-adv-x="748" 
d="M319.5 13q-20.5 21 -20.5 54t21 53.5t54 20.5t53.5 -21t20.5 -53q0 -33 -20.5 -54t-53.5 -21q-34 0 -54.5 21zM567.5 13q-20.5 21 -20.5 54t21 53.5t54 20.5t53.5 -21t20.5 -53q0 -33 -20.5 -54t-53.5 -21q-34 0 -54.5 21zM71.5 13q-20.5 21 -20.5 54t21 53.5t54 20.5
t53.5 -21t20.5 -53q0 -33 -20.5 -54t-53.5 -21q-34 0 -54.5 21z" />
    <glyph glyph-name="exclam" unicode="!" horiz-adv-x="270" 
d="M179 230h-88l-18 460h124zM80.5 13q-20.5 21 -20.5 54t21 53.5t54 20.5q34 0 54.5 -20.5t20.5 -53.5t-20.5 -54t-54.5 -21t-54.5 21z" />
    <glyph glyph-name="exclamdown" unicode="&#xa1;" horiz-adv-x="282" 
d="M87.5 355.5q-20.5 20.5 -20.5 53.5q0 34 20.5 54.5t53.5 20.5t53.5 -20.5t20.5 -54.5q0 -33 -20.5 -53.5t-53.5 -20.5t-53.5 20.5zM203 -190h-124l17 436h88z" />
    <glyph glyph-name="question" unicode="?" horiz-adv-x="509" 
d="M202 374q73 12 111.5 42.5t38.5 84.5q0 46 -26.5 73.5t-73.5 27.5q-43 0 -74.5 -22t-56.5 -63l-83 63q32 53 87.5 88.5t134.5 35.5q62 0 109 -25t72 -69t25 -100q0 -80 -48 -129.5t-118 -63.5l-5 -87h-87zM197.5 12.5q-20.5 20.5 -20.5 54.5q0 33 20.5 53.5t54.5 20.5
q33 0 53.5 -20.5t20.5 -53.5q0 -34 -20.5 -54.5t-53.5 -20.5q-34 0 -54.5 20.5z" />
    <glyph glyph-name="questiondown" unicode="&#xbf;" horiz-adv-x="509" 
d="M203.5 355.5q-20.5 20.5 -20.5 53.5q0 34 20.5 54.5t53.5 20.5t53.5 -20.5t20.5 -54.5q0 -33 -20.5 -53.5t-53.5 -20.5t-53.5 20.5zM140 -179q-47 25 -72.5 69t-25.5 100q0 80 48.5 129.5t118.5 63.5l5 63h87l5 -120q-72 -12 -111 -42.5t-39 -84.5q0 -46 26.5 -73.5
t74.5 -27.5q43 0 74.5 22t56.5 63l83 -63q-32 -53 -88 -88.5t-134 -35.5q-62 0 -109 25z" />
    <glyph glyph-name="periodcentered" unicode="&#xb7;" horiz-adv-x="252" 
d="M71.5 291q-20.5 21 -20.5 54t21 53.5t54 20.5t53.5 -21t20.5 -53q0 -33 -20.5 -54t-53.5 -21q-34 0 -54.5 21z" />
    <glyph glyph-name="bullet" unicode="&#x2022;" horiz-adv-x="312" 
d="M68.5 257.5q-34.5 34.5 -34.5 87.5t34.5 87.5t87.5 34.5t87.5 -34.5t34.5 -87.5t-34.5 -87.5t-87.5 -34.5t-87.5 34.5z" />
    <glyph glyph-name="asterisk" unicode="*" horiz-adv-x="407" 
d="M344 660l27 -84l-123 -22l86 -91l-71 -52l-59 111l-60 -111l-71 52l86 91l-123 22l27 84l114 -55l-17 125h87l-16 -125z" />
    <glyph glyph-name="numbersign" unicode="#" horiz-adv-x="668" 
d="M642 512l-16 -92h-103l-22 -150h103l-16 -92h-100l-26 -178h-99l26 178h-158l-26 -178h-99l26 178h-106l16 92h103l22 150h-103l16 92h100l26 178h99l-26 -178h158l26 178h99l-26 -178h106zM244 270h158l22 150h-158z" />
    <glyph glyph-name="slash" unicode="/" horiz-adv-x="443" 
d="M139 -120h-109l274 850h109z" />
    <glyph glyph-name="backslash" unicode="\" horiz-adv-x="443" 
d="M413 -120h-109l-274 850h109z" />
    <glyph glyph-name="parenleft" unicode="(" horiz-adv-x="334" 
d="M201 -120q-73 71 -116.5 178t-43.5 247t43.5 247t116.5 178h107q-73 -80 -113.5 -191.5t-40.5 -233.5t40.5 -233.5t113.5 -191.5h-107z" />
    <glyph glyph-name="parenright" unicode=")" horiz-adv-x="334" 
d="M26 -120q73 80 113.5 191.5t40.5 233.5t-40.5 233.5t-113.5 191.5h107q73 -71 116.5 -178t43.5 -247t-43.5 -247t-116.5 -178h-107z" />
    <glyph glyph-name="braceleft" unicode="{" horiz-adv-x="373" 
d="M257 -120q-68 0 -105 36.5t-37 105.5v172q0 51 -48 61l-38 8v84l38 8q48 11 48 61v172q0 69 37 105.5t105 36.5h68v-103h-40q-29 0 -44.5 -15.5t-15.5 -44.5v-169q0 -38 -19.5 -62.5t-54.5 -30.5q35 -7 54.5 -31.5t19.5 -61.5v-170q0 -29 15.5 -44.5t44.5 -15.5h40v-102
h-68z" />
    <glyph glyph-name="braceright" unicode="}" horiz-adv-x="373" 
d="M47 -120v102h40q29 0 44.5 15.5t15.5 44.5v170q0 37 20 61.5t54 31.5q-34 6 -54 30.5t-20 62.5v169q0 29 -15.5 44.5t-44.5 15.5h-40v103h68q69 0 105.5 -36.5t36.5 -105.5v-172q0 -50 48 -61l39 -8v-84l-39 -8q-48 -11 -48 -61v-172q0 -69 -36.5 -105.5t-105.5 -36.5
h-68z" />
    <glyph glyph-name="bracketleft" unicode="[" horiz-adv-x="333" 
d="M286 -120h-210v850h210v-103h-100v-645h100v-102z" />
    <glyph glyph-name="bracketright" unicode="]" horiz-adv-x="333" 
d="M257 -120h-210v102h100v645h-100v103h210v-850z" />
    <glyph glyph-name="hyphen" unicode="-" horiz-adv-x="415" 
d="M365 266h-315v96h315v-96z" />
    <glyph glyph-name="uni00AD" unicode="&#xad;" horiz-adv-x="428" 
d="M365 266h-315v96h315v-96z" />
    <glyph glyph-name="endash" unicode="&#x2013;" horiz-adv-x="515" 
d="M465 266h-415v96h415v-96z" />
    <glyph glyph-name="emdash" unicode="&#x2014;" horiz-adv-x="831" 
d="M781 266h-731v96h731v-96z" />
    <glyph glyph-name="underscore" unicode="_" horiz-adv-x="515" 
d="M465 -132h-415v96h415v-96z" />
    <glyph glyph-name="glyph486" horiz-adv-x="415" 
d="M365 297h-315v96h315v-96z" />
    <glyph glyph-name="glyph487" horiz-adv-x="415" 
d="M365 297h-315v96h315v-96z" />
    <glyph glyph-name="glyph488" horiz-adv-x="515" 
d="M465 297h-415v96h415v-96z" />
    <glyph glyph-name="glyph489" horiz-adv-x="831" 
d="M781 297h-731v96h731v-96z" />
    <glyph glyph-name="quotesinglbase" unicode="&#x201a;" horiz-adv-x="275" 
d="M54 -128q70 47 83 95q-34 0 -54 20.5t-20 53.5q0 34 20.5 54.5t54.5 20.5q35 0 56.5 -25t21.5 -70q0 -115 -103 -198z" />
    <glyph glyph-name="quotedblbase" unicode="&#x201e;" horiz-adv-x="489" 
d="M54 -128q70 47 83 95q-34 0 -54 20.5t-20 53.5q0 34 20.5 54.5t54.5 20.5q35 0 56.5 -25t21.5 -70q0 -115 -103 -198zM268 -128q70 47 83 95q-34 0 -54 20.5t-20 53.5q0 34 20.5 54.5t54.5 20.5q35 0 56.5 -25t21.5 -70q0 -115 -103 -198z" />
    <glyph glyph-name="quotedblleft" unicode="&#x201c;" horiz-adv-x="483" 
d="M80.5 429.5q-21.5 24.5 -21.5 69.5q0 66 28.5 114t74.5 85l60 -50q-72 -47 -84 -94q34 0 54 -20.5t20 -54.5q0 -33 -20.5 -53.5t-54.5 -20.5q-35 0 -56.5 24.5zM288.5 429.5q-21.5 24.5 -21.5 69.5q0 66 28.5 114t74.5 85l60 -50q-72 -47 -84 -94q34 0 54 -20.5t20 -54.5
q0 -33 -20.5 -53.5t-54.5 -20.5q-35 0 -56.5 24.5z" />
    <glyph glyph-name="quotedblright" unicode="&#x201d;" horiz-adv-x="483" 
d="M54 454q70 47 83 95q-34 0 -54 20.5t-20 53.5q0 34 20.5 54.5t54.5 20.5q35 0 56.5 -25t21.5 -70q0 -115 -103 -198zM262 454q70 47 83 95q-34 0 -54 20.5t-20 53.5q0 34 20.5 54.5t54.5 20.5q35 0 56.5 -25t21.5 -70q0 -115 -103 -198z" />
    <glyph glyph-name="quoteleft" unicode="&#x2018;" horiz-adv-x="275" 
d="M80.5 429.5q-21.5 24.5 -21.5 69.5q0 66 28.5 114t74.5 85l60 -50q-72 -47 -84 -94q34 0 54 -20.5t20 -54.5q0 -33 -20.5 -53.5t-54.5 -20.5q-35 0 -56.5 24.5z" />
    <glyph glyph-name="quoteright" unicode="&#x2019;" horiz-adv-x="275" 
d="M54 454q70 47 83 95q-34 0 -54 20.5t-20 53.5q0 34 20.5 54.5t54.5 20.5q35 0 56.5 -25t21.5 -70q0 -115 -103 -198z" />
    <glyph glyph-name="guillemotleft" unicode="&#xab;" horiz-adv-x="522" 
d="M496 98h-131l-131 176v34l131 176h131l-161 -193zM292 98h-131l-131 176v34l131 176h131l-161 -193z" />
    <glyph glyph-name="guillemotright" unicode="&#xbb;" horiz-adv-x="522" 
d="M361 98h-131l161 193l-161 193h131l131 -176v-34zM157 98h-131l161 193l-161 193h131l131 -176v-34z" />
    <glyph glyph-name="guilsinglleft" unicode="&#x2039;" horiz-adv-x="318" 
d="M292 98h-131l-131 176v34l131 176h131l-161 -193z" />
    <glyph glyph-name="guilsinglright" unicode="&#x203a;" horiz-adv-x="318" 
d="M157 98h-131l161 193l-161 193h131l131 -176v-34z" />
    <glyph glyph-name="quotedbl" unicode="&#x22;" horiz-adv-x="407" 
d="M149 439h-90l-14 251h116zM349 439h-90l-14 251h116z" />
    <glyph glyph-name="quotesingle" unicode="'" horiz-adv-x="207" 
d="M149 439h-90l-14 251h116z" />
    <glyph glyph-name="uni00A0" unicode="&#xa0;" horiz-adv-x="220" 
 />
    <glyph glyph-name="cent" unicode="&#xa2;" horiz-adv-x="516" 
d="M481 205q-25 -42 -65.5 -69t-91.5 -36v-100h-92v100q-84 14 -137 78t-53 168q0 103 53 166t137 78v100h92v-99q52 -8 92 -34.5t63 -69.5l-83 -60q-23 49 -72 68v-301q51 18 78 73zM174 248.5q21 -38.5 58 -53.5v300q-37 -15 -58 -53t-21 -96q0 -59 21 -97.5z" />
    <glyph glyph-name="currency" unicode="&#xa4;" horiz-adv-x="605" 
d="M492 221l87 -87l-65 -65l-86 86q-55 -35 -126 -35q-70 0 -125 35l-86 -86l-65 65l88 86q-33 53 -33 125q0 70 32 124l-87 87l65 65l87 -86q53 35 124 35t125 -36l87 87l65 -65l-88 -87q33 -53 33 -124q0 -70 -32 -124zM384 249q30 35 30 96t-30 96t-82 35t-81.5 -35
t-29.5 -96t29.5 -96t81.5 -35t82 35z" />
    <glyph glyph-name="dollar" unicode="$" horiz-adv-x="581" 
d="M487.5 57.5q-55.5 -55.5 -148.5 -68.5v-89h-91v88q-78 7 -134.5 43t-88.5 91l86 73q27 -44 60 -69.5t77 -33.5v218q-84 20 -140 68.5t-56 131.5q0 79 54.5 129.5t141.5 61.5v89h91v-89q126 -16 194 -125l-82 -67q-28 40 -54 62t-58 31v-201q96 -23 150 -67t54 -132
q0 -89 -55.5 -144.5zM183.5 458q20.5 -21 64.5 -35v179q-39 -8 -62 -31.5t-23 -56.5q0 -35 20.5 -56zM339 93q89 19 89 100q0 36 -21.5 57.5t-67.5 37.5v-195z" />
    <glyph glyph-name="dong" unicode="&#x20ab;" horiz-adv-x="480" 
d="M459 626v-78h-53v-432h-87l-6 39q-19 -23 -47 -36.5t-62 -13.5q-47 0 -86 23.5t-62 68.5t-23 107t23 107t62 68.5t86 23.5q61 0 101 -35v80h-117v78h117v64h101v-64h53zM305 227v155q-30 36 -76 36q-41 0 -68 -30.5t-27 -83.5t27 -83.5t68 -30.5q45 0 76 37zM406 0h-373
v64h373v-64z" />
    <glyph glyph-name="Euro" unicode="&#x20ac;" horiz-adv-x="683" 
d="M562 188l89 -67q-38 -66 -104 -100.5t-153 -34.5q-107 0 -184 60.5t-106 173.5h-83v87h70q-1 12 -1 38t1 38h-70v87h84q28 111 105.5 172.5t183.5 61.5q90 0 154.5 -34t102.5 -101l-89 -67q-26 47 -68.5 71.5t-97.5 24.5q-59 0 -103.5 -33t-66.5 -95h230l-19 -87h-229
l-1 -38q0 -14 2 -38h211l-19 -87h-174q22 -61 66 -94.5t103 -33.5q111 0 166 96z" />
    <glyph glyph-name="florin" unicode="&#x192;" horiz-adv-x="357" 
d="M-14 -195v96q28 -11 52 -11q35 0 49.5 18t14.5 51v417h-84v94h84v111q0 80 42.5 121.5t123.5 41.5q40 0 77 -13v-96q-34 15 -67 15q-37 0 -51.5 -18t-14.5 -52v-110h120v-94h-120v-419q0 -78 -42 -119.5t-121 -41.5q-32 0 -63 9z" />
    <glyph glyph-name="uni20BA" unicode="&#x20ba;" horiz-adv-x="585" 
d="M550 278q0 -130 -68 -204t-199 -74h-182v103l-79 -48v100l79 48v83l-79 -48v100l79 48v304h116v-232l139 85v-101l-139 -85v-82l139 85v-101l-139 -85v-68h66q80 0 119 45t39 127h109z" />
    <glyph glyph-name="sterling" unicode="&#xa3;" horiz-adv-x="541" 
d="M204 236q0 -88 -58 -130h365v-106h-490v106q36 23 51 55.5t15 83.5v33h-66v91h66v106q0 109 62 169t166 60q150 0 205 -137l-95 -54q-17 45 -43 65t-68 20q-52 0 -81 -31.5t-29 -93.5v-104h201v-91h-201v-42z" />
    <glyph glyph-name="yen" unicode="&#xa5;" horiz-adv-x="602" 
d="M458 690h128l-174 -302h102v-91h-155v-66h135v-91h-135v-140h-116v140h-135v91h135v66h-155v91h102l-174 302h129l156 -291z" />
    <glyph glyph-name="uni2219" unicode="&#x2219;" horiz-adv-x="490" 
d="M157.5 257.5q-34.5 34.5 -34.5 87.5t34.5 87.5t87.5 34.5t87.5 -34.5t34.5 -87.5t-34.5 -87.5t-87.5 -34.5t-87.5 34.5z" />
    <glyph glyph-name="uni2215" unicode="&#x2215;" horiz-adv-x="490" 
d="M178 0h-109l243 690h109z" />
    <glyph glyph-name="plus" unicode="+" horiz-adv-x="490" 
d="M293 102h-96v164h-164v96h164v164h96v-164h164v-96h-164v-164z" />
    <glyph glyph-name="minus" unicode="&#x2212;" horiz-adv-x="490" 
d="M457 266h-424v96h424v-96z" />
    <glyph glyph-name="multiply" unicode="&#xd7;" horiz-adv-x="490" 
d="M245 246l-138 -138l-68 68l138 138l-138 138l68 68l138 -138l138 138l68 -68l-138 -138l138 -138l-68 -68z" />
    <glyph glyph-name="divide" unicode="&#xf7;" horiz-adv-x="490" 
d="M457 266h-424v96h424v-96zM190.5 74q-20.5 21 -20.5 54t21 53.5t54 20.5t53.5 -21t20.5 -53q0 -33 -20.5 -54t-53.5 -21q-34 0 -54.5 21zM190.5 447q-20.5 21 -20.5 54t21 53.5t54 20.5t53.5 -21t20.5 -53q0 -33 -20.5 -54t-53.5 -21q-34 0 -54.5 21z" />
    <glyph glyph-name="equal" unicode="=" horiz-adv-x="490" 
d="M457 381h-424v96h424v-96zM457 151h-424v96h424v-96z" />
    <glyph glyph-name="notequal" unicode="&#x2260;" horiz-adv-x="490" 
d="M457 477v-96h-128l-62 -134h190v-96h-235l-60 -128l-87 40l41 88h-83v96h128l62 134h-190v96h235l60 128l87 -40l-41 -88h83z" />
    <glyph glyph-name="greater" unicode="&#x3e;" horiz-adv-x="490" 
d="M457 269l-424 -204v105l318 144l-318 144v105l424 -204v-90z" />
    <glyph glyph-name="less" unicode="&#x3c;" horiz-adv-x="490" 
d="M457 170v-105l-424 204v90l424 204v-105l-318 -144z" />
    <glyph glyph-name="greaterequal" unicode="&#x2265;" horiz-adv-x="490" 
d="M457 312l-424 -160v102l306 103l-306 103v102l424 -160v-90zM457 0h-424v96h424v-96z" />
    <glyph glyph-name="lessequal" unicode="&#x2264;" horiz-adv-x="490" 
d="M457 254v-102l-424 160v90l424 160v-102l-306 -103zM457 0h-424v96h424v-96z" />
    <glyph glyph-name="plusminus" unicode="&#xb1;" horiz-adv-x="490" 
d="M293 169h-96v128h-164v96h164v128h96v-128h164v-96h-164v-128zM457 0h-424v96h424v-96z" />
    <glyph glyph-name="approxequal" unicode="&#x2248;" horiz-adv-x="490" 
d="M293 354q-25 7 -58 20q-30 11 -48 16.5t-36 5.5q-22 0 -36.5 -8.5t-35.5 -31.5l-41 61q17 30 44 48t63 18q27 0 50.5 -6.5t59.5 -19.5q53 -22 84 -22q23 0 39.5 9.5t35.5 33.5l38 -65q-17 -30 -44 -48t-63 -18q-27 0 -52 7zM293 155q-25 7 -58 20q-30 11 -48 16.5
t-36 5.5q-22 0 -36.5 -8.5t-35.5 -31.5l-41 61q17 30 44 48t63 18q27 0 50.5 -6.5t59.5 -19.5q53 -22 84 -22q23 0 39.5 9.5t35.5 33.5l38 -65q-17 -30 -44 -48t-63 -18q-27 0 -52 7z" />
    <glyph glyph-name="asciitilde" unicode="~" horiz-adv-x="490" 
d="M293 253q-25 7 -58 20q-30 11 -48 16.5t-36 5.5q-22 0 -36.5 -8.5t-35.5 -31.5l-41 61q17 30 44 48t63 18q27 0 50.5 -6.5t59.5 -19.5q53 -22 84 -22q23 0 39.5 9.5t35.5 33.5l38 -65q-17 -30 -44 -48t-63 -18q-27 0 -52 7z" />
    <glyph glyph-name="logicalnot" unicode="&#xac;" horiz-adv-x="490" 
d="M452 127h-96v139h-318v96h414v-235z" />
    <glyph glyph-name="asciicircum" unicode="^" horiz-adv-x="474" 
d="M150 434h-100l141 256h92l141 -256h-100l-87 168z" />
    <glyph glyph-name="infinity" unicode="&#x221e;" horiz-adv-x="668" 
d="M59.5 222q-41.5 44 -41.5 115t41.5 115t114.5 44q102 0 160 -94q58 94 160 94q73 0 114.5 -44t41.5 -115t-41.5 -115t-114.5 -44q-102 0 -160 95q-58 -95 -160 -95q-73 0 -114.5 44zM240 269.5q26 20.5 54 67.5q-28 47 -54 67.5t-65 20.5q-34 0 -56.5 -24t-22.5 -64
t22.5 -64t56.5 -24q39 0 65 20.5zM549.5 273q22.5 24 22.5 64t-22.5 64t-56.5 24q-39 0 -65 -20.5t-54 -67.5q28 -47 54 -67.5t65 -20.5q34 0 56.5 24z" />
    <glyph glyph-name="integral" unicode="&#x222b;" horiz-adv-x="490" 
d="M-18 -193l17 94q24 -11 49 -11q35 0 52.5 18t23.5 51l110 622q14 81 60 122t130 41q41 0 77 -13l-17 -96q-32 15 -61 15q-67 0 -79 -70l-110 -623q-14 -84 -57.5 -122.5t-127.5 -38.5q-43 0 -67 11z" />
    <glyph glyph-name="Omega" unicode="&#x2126;" horiz-adv-x="705" 
d="M61 0v106h138v20q-72 37 -116 111t-44 171q0 91 40.5 158t112 102.5t161.5 35.5t161 -35.5t111.5 -102.5t40.5 -158q0 -98 -44 -171.5t-116 -110.5v-20h138v-106h-250v173q156 59 156 226q0 94 -52 146.5t-145 52.5t-145.5 -52.5t-52.5 -146.5q0 -167 157 -226v-173h-251
z" />
    <glyph glyph-name="Delta" unicode="&#x2206;" horiz-adv-x="655" 
d="M613 0h-571v107l221 583h128l222 -583v-107zM327 563l-162 -456h325z" />
    <glyph glyph-name="product" unicode="&#x220f;" horiz-adv-x="622" 
d="M597 690v-106h-79v-694h-116v694h-182v-694h-116v694h-80v106h573z" />
    <glyph glyph-name="summation" unicode="&#x2211;" horiz-adv-x="573" 
d="M515 -110h-456v103l195 300l-184 294v103h434v-106h-299l181 -291l-191 -297h320v-106z" />
    <glyph glyph-name="radical" unicode="&#x221a;" horiz-adv-x="614" 
d="M367 0h-130l-102 297h-102v96h186l84 -275l177 572h117z" />
    <glyph glyph-name="mu" unicode="&#xb5;" horiz-adv-x="541" 
d="M69 -190v660h110v-305q0 -40 19.5 -63t57.5 -23q33 0 60 18.5t46 50.5v322h110v-470h-100l-10 64q-21 -34 -57.5 -56t-83.5 -22q-23 0 -42 8v-184h-110z" />
    <glyph glyph-name="partialdiff" unicode="&#x2202;" horiz-adv-x="537" 
d="M148.5 12.5q-49.5 26.5 -78 78t-28.5 124.5q0 72 28.5 124t76 78.5t103.5 26.5q42 0 74.5 -15t52.5 -42q-15 83 -75 152t-156 110l73 76q276 -125 276 -437q0 -145 -61 -223.5t-175 -78.5q-61 0 -110.5 26.5zM355.5 129q29.5 49 29.5 151q-20 33 -49.5 51.5t-65.5 18.5
q-50 0 -83.5 -36t-33.5 -99q0 -64 33.5 -99.5t81.5 -35.5q58 0 87.5 49z" />
    <glyph glyph-name="percent" unicode="%" horiz-adv-x="735" 
d="M74.5 404.5q-38.5 46.5 -38.5 126.5t38.5 126.5t99.5 46.5t99.5 -46.5t38.5 -126.5t-38.5 -126.5t-99.5 -46.5t-99.5 46.5zM215 0h-99l405 690h98zM232 531q0 104 -58 104t-58 -104t58 -104t58 104zM462 32.5q-38 46.5 -38 126.5t38 126.5t99 46.5q62 0 100 -46.5
t38 -126.5t-38 -126.5t-100 -46.5q-61 0 -99 46.5zM619 159q0 104 -58 104t-58 -104t58 -104t58 104z" />
    <glyph glyph-name="perthousand" unicode="&#x2030;" horiz-adv-x="1047" 
d="M74.5 404.5q-38.5 46.5 -38.5 126.5t38.5 126.5t99.5 46.5t99.5 -46.5t38.5 -126.5t-38.5 -126.5t-99.5 -46.5t-99.5 46.5zM215 0h-99l405 690h98zM232 531q0 104 -58 104t-58 -104t58 -104t58 104zM462 32.5q-38 46.5 -38 126.5t38 126.5t99 46.5q62 0 100 -46.5
t38 -126.5t-38 -126.5t-100 -46.5q-61 0 -99 46.5zM774 32.5q-38 46.5 -38 126.5t38 126.5t99 46.5q62 0 100 -46.5t38 -126.5t-38 -126.5t-100 -46.5q-61 0 -99 46.5zM619 159q0 104 -58 104t-58 -104t58 -104t58 104zM931 159q0 104 -58 104t-58 -104t58 -104t58 104z" />
    <glyph glyph-name="arrowup" unicode="&#x2191;" horiz-adv-x="578" 
d="M314 618l214 -205l-79 -69l-112 139v-411h-96v411l-112 -139l-79 69l214 205h50z" />
    <glyph glyph-name="uni2197" unicode="&#x2197;" horiz-adv-x="538" 
d="M156 564h297l35 -35v-297h-98l18 185l-290 -291l-68 68l291 290l-185 -18v98z" />
    <glyph glyph-name="arrowright" unicode="&#x2192;" horiz-adv-x="646" 
d="M322 505l69 79l205 -214v-50l-205 -214l-69 79l139 112h-411v96h411z" />
    <glyph glyph-name="uni2198" unicode="&#x2198;" horiz-adv-x="538" 
d="M408 273l-18 185h98v-297l-35 -35h-297v98l185 -18l-291 290l68 68z" />
    <glyph glyph-name="arrowdown" unicode="&#x2193;" horiz-adv-x="578" 
d="M337 207l112 139l79 -69l-214 -205h-50l-214 205l79 69l112 -139v411h96v-411z" />
    <glyph glyph-name="uni2199" unicode="&#x2199;" horiz-adv-x="538" 
d="M420 564l68 -68l-291 -290l185 18v-98h-297l-35 35v297h98l-18 -185z" />
    <glyph glyph-name="arrowleft" unicode="&#x2190;" horiz-adv-x="646" 
d="M185 393h411v-96h-411l139 -112l-69 -79l-205 214v50l205 214l69 -79z" />
    <glyph glyph-name="uni2196" unicode="&#x2196;" horiz-adv-x="538" 
d="M197 484l291 -290l-68 -68l-290 291l18 -185h-98v297l35 35h297v-98z" />
    <glyph glyph-name="arrowboth" unicode="&#x2194;" horiz-adv-x="826" 
d="M324 185l-69 -79l-205 214v50l205 214l69 -79l-138 -112h454l-138 112l69 79l205 -214v-50l-205 -214l-69 79l138 112h-454z" />
    <glyph glyph-name="arrowupdn" unicode="&#x2195;" horiz-adv-x="578" 
d="M314 0h-50l-214 205l79 69l112 -138v418l-112 -138l-79 69l214 205h50l214 -205l-79 -69l-112 138v-418l112 138l79 -69z" />
    <glyph glyph-name="lozenge" unicode="&#x25ca;" horiz-adv-x="581" 
d="M350 0h-119l-207 345l207 345h119l207 -345zM149 345l142 -240l141 240l-141 240z" />
    <glyph glyph-name="H22073" unicode="&#x25a1;" horiz-adv-x="590" 
d="M520 120h-450v450h450v-450zM158 490v-290h274v290h-274z" />
    <glyph glyph-name="uni2501" unicode="&#x2501;" horiz-adv-x="566" 
d="M542 276h-518v138h518v-138z" />
    <glyph glyph-name="uni253B" unicode="&#x253b;" horiz-adv-x="673" 
d="M646 276h-618v138h237v316h144v-316h237v-138z" />
    <glyph glyph-name="uni256F" unicode="&#x256f;" horiz-adv-x="427" 
d="M30 300v90h179q76 0 76 75v265h96v-263q0 -82 -46 -124.5t-126 -42.5h-179z" />
    <glyph glyph-name="SF060000" unicode="&#x252c;" horiz-adv-x="673" 
d="M409 -40h-144v316h-237v138h618v-138h-237v-316z" />
    <glyph glyph-name="SF100000" unicode="&#x2500;" horiz-adv-x="566" 
d="M542 276h-518v138h518v-138z" />
    <glyph glyph-name="at" unicode="@" horiz-adv-x="909" 
d="M660 509l-37 -284q-1 -5 -1 -14q0 -44 35 -44q30 0 56.5 26t42 71.5t15.5 101.5q0 84 -36 147t-101 97t-149 34q-96 0 -173.5 -44.5t-122.5 -127t-45 -192.5q0 -90 32 -162.5t102.5 -116t179.5 -43.5q71 0 134.5 17t105.5 42l35 -80q-52 -33 -128 -51t-155 -18
q-135 0 -226 54.5t-135 148t-44 210.5q0 139 58.5 241.5t158.5 157t221 54.5q111 0 198 -45.5t135 -128t48 -188.5q0 -84 -28.5 -149.5t-79.5 -102t-116 -36.5q-41 0 -66 21t-30 54q-18 -34 -56 -54.5t-84 -20.5q-71 0 -113.5 52t-42.5 144q0 71 25.5 126t70.5 85.5
t103 30.5q44 0 73 -18t44 -48l17 53h79zM510 212q32 43 32 111q0 55 -22 84.5t-62 29.5q-49 0 -81 -42.5t-32 -110.5q0 -55 21.5 -85t62.5 -30q49 0 81 43z" />
    <glyph glyph-name="ampersand" unicode="&#x26;" horiz-adv-x="630" 
d="M610 382q-25 -129 -86 -232q49 -77 81 -150h-129q-15 35 -28 61q-39 -36 -86 -55.5t-108 -19.5q-102 0 -162 55t-60 153q0 130 129 197q-54 63 -54 140q0 80 51 126.5t136 46.5q81 0 123.5 -34t60.5 -92l-97 -38q-20 80 -87 80q-38 0 -60.5 -23t-22.5 -61q0 -40 22 -72
t74 -70q79 -60 155 -156q38 81 52 168zM333 94.5q32 16.5 64 51.5q-75 112 -165 184q-43 -18 -67 -52.5t-24 -78.5q0 -55 31.5 -88t87.5 -33q41 0 73 16.5z" />
    <glyph glyph-name="paragraph" unicode="&#xb6;" horiz-adv-x="671" 
d="M292 -110v460h-88q-75 0 -119.5 46.5t-44.5 125.5t44.5 123.5t119.5 44.5h199v-800h-111zM595 -110h-112v800h112v-800z" />
    <glyph glyph-name="section" unicode="&#xa7;" horiz-adv-x="521" 
d="M420 160q42 -42 42 -109q0 -54 -27.5 -93.5t-75.5 -61t-108 -21.5q-80 0 -131.5 35.5t-74.5 94.5l92 53q20 -44 46.5 -63t67.5 -19q45 0 71.5 18.5t26.5 51.5q0 35 -30.5 53t-94.5 30q-68 13 -110.5 32.5t-65.5 54t-23 90.5q0 69 62 113q-41 44 -41 109q0 54 27.5 94
t75.5 61t108 21q81 0 132.5 -35.5t73.5 -94.5l-92 -53q-20 45 -46.5 64t-67.5 19q-45 0 -71.5 -18.5t-26.5 -51.5q0 -35 30 -53t95 -30q68 -14 110.5 -33.5t65.5 -54t23 -89.5q0 -69 -63 -114zM171 261q31 -18 109 -34q40 -9 66 -19q22 24 22 56q0 36 -31 54t-110 35
q-36 7 -65 19q-22 -25 -22 -57q0 -36 31 -54z" />
    <glyph glyph-name="copyright" unicode="&#xa9;" horiz-adv-x="792" 
d="M218 30.5q-80 44.5 -126 126t-46 188.5t46 188.5t126 126t178 44.5t178 -44.5t126 -126t46 -188.5t-46 -188.5t-126 -126t-178 -44.5t-178 44.5zM533 97q61 35 96 99t35 149t-35 149t-96 99t-137 35t-137 -35t-96 -99t-35 -149t35 -149t96 -99t137 -35t137 35zM265 200.5
q-52 52.5 -52 144.5q0 61 24.5 105.5t67.5 68t96 23.5q58 0 99 -23t61 -67l-59 -37q-16 31 -39 45.5t-60 14.5q-51 0 -82.5 -34t-31.5 -96t31.5 -96t80.5 -34q42 0 66.5 17.5t41.5 50.5l59 -38q-26 -48 -69 -72.5t-100 -24.5q-82 0 -134 52.5z" />
    <glyph glyph-name="registered" unicode="&#xae;" horiz-adv-x="452" 
d="M325 679.5q44 -24.5 69.5 -70t25.5 -104.5t-25.5 -104.5t-69.5 -70t-99 -24.5t-99 24.5t-69.5 70t-25.5 104.5t25.5 104.5t69.5 70t99 24.5t99 -24.5zM335.5 388q42.5 43 42.5 117t-42.5 117t-109.5 43t-109.5 -43t-42.5 -117t42.5 -117t109.5 -43t109.5 43zM299 512.5
q-10 -14.5 -27 -21.5l35 -79h-36l-33 74h-43v-74h-32v195h80q30 0 48 -16t18 -45q0 -19 -10 -33.5zM244 518q15 0 24.5 7t9.5 21t-9.5 21.5t-24.5 7.5h-49v-57h49z" />
    <glyph glyph-name="uni2117" unicode="&#x2117;" horiz-adv-x="452" 
d="M127 330.5q-44 24.5 -69.5 70t-25.5 104.5t25.5 104.5t69.5 70t99 24.5t99 -24.5t69.5 -70t25.5 -104.5t-25.5 -104.5t-69.5 -70t-99 -24.5t-99 24.5zM335.5 388q42.5 43 42.5 117t-42.5 117t-109.5 43t-109.5 -43t-42.5 -117t42.5 -117t109.5 -43t109.5 43zM163 412v195
h80q32 0 49 -17t17 -48t-17 -47.5t-48 -16.5h-49v-66h-32zM244 510q14 0 24 9t10 23q0 15 -9.5 24t-24.5 9h-49v-65h49z" />
    <glyph glyph-name="trademark" unicode="&#x2122;" horiz-adv-x="573" 
d="M27 690h211v-56h-75v-220h-62v220h-74v56zM442 690h87l20 -276h-64l-10 199l-42 -160h-63l-41 160l-11 -199h-63l19 276h90l39 -159z" />
    <glyph glyph-name="degree" unicode="&#xb0;" horiz-adv-x="450" 
d="M96 395.5q-50 49.5 -50 129.5t50 129.5t129 49.5t129 -49.5t50 -129.5t-50 -129.5t-129 -49.5t-129 49.5zM288 454.5q24 25.5 24 70.5t-24 70.5t-63 25.5t-63 -25.5t-24 -70.5t24 -70.5t63 -25.5t63 25.5z" />
    <glyph glyph-name="bar" unicode="|" horiz-adv-x="246" 
d="M176 -110h-106v910h106v-910z" />
    <glyph glyph-name="brokenbar" unicode="&#xa6;" horiz-adv-x="246" 
d="M176 438h-106v362h106v-362zM176 -110h-106v362h106v-362z" />
    <glyph glyph-name="dagger" unicode="&#x2020;" horiz-adv-x="363" 
d="M221 606h86v-74h-86v-260h-79v260h-86v74h86v84h79v-84z" />
    <glyph glyph-name="uni2113" unicode="&#x2113;" horiz-adv-x="498" 
d="M339.5 90.5q22.5 17.5 42.5 53.5l65 -55q-55 -103 -170 -103q-73 0 -117.5 53t-49.5 152l-58 -24l-36 85q34 13 95 40q7 124 39 217.5t82 144t113 50.5q62 0 90.5 -32.5t28.5 -96.5q0 -102 -60.5 -183t-195.5 -153v-21q0 -65 17 -105t57 -40q35 0 57.5 17.5zM289 589.5
q-25 -33.5 -45 -95.5t-29 -145q83 53 119 109.5t36 119.5q0 24 -7.5 34.5t-24.5 10.5q-24 0 -49 -33.5z" />
    <glyph glyph-name="daggerdbl" unicode="&#x2021;" horiz-adv-x="363" 
d="M221 272h-79v84h-86v74h86v102h-86v74h86v84h79v-84h86v-74h-86v-102h86v-74h-86v-84z" />
    <glyph glyph-name="estimated" unicode="&#x212e;" horiz-adv-x="752" 
d="M196.5 29q-78.5 43 -122.5 124.5t-44 191.5t44 191.5t122.5 124.5t179.5 43t179.5 -43t122.5 -124t44 -192h-506v-244q66 -49 160 -49q100 0 169.5 49.5t95.5 139.5h70q-28 -121 -117.5 -188t-217.5 -67q-101 0 -179.5 43zM216 411h319v179q-67 48 -159 48
q-94 0 -160 -49v-178z" />
    <glyph glyph-name="uni2120" unicode="&#x2120;" horiz-adv-x="576" 
d="M24 462l44 39q23 -38 61 -38q19 0 29.5 7.5t10.5 22.5t-12.5 23t-41.5 14q-34 7 -57 27t-23 55q0 38 27 61t70 23q63 0 96 -53l-42 -35q-22 36 -55 36q-17 0 -26 -7.5t-9 -19.5q0 -14 12 -21.5t39 -13.5q41 -10 62 -28t21 -56q0 -43 -27 -66.5t-72 -23.5q-72 0 -107 54z
M320 414h-63l19 276h90l39 -159l40 159h87l19 -276h-63l-11 199l-41 -160h-64l-41 160z" />
    <glyph glyph-name="uni02C9" unicode="&#x2c9;" horiz-adv-x="298" 
d="M280 588h-262v95h262v-95z" />
    <glyph glyph-name="uni0308" unicode="&#x308;" 
d="M-338 576.5q-16 16.5 -16 44.5q0 27 16 43.5t44 16.5t44.5 -16.5t16.5 -43.5q0 -28 -16.5 -44.5t-44.5 -16.5t-44 16.5zM-169 576.5q-16 16.5 -16 44.5q0 27 16 43.5t44 16.5t44.5 -16.5t16.5 -43.5q0 -28 -16.5 -44.5t-44.5 -16.5t-44 16.5z" />
    <glyph glyph-name="uni0308_gravecomb.ccmp" 
d="M-338 576.5q-16 16.5 -16 44.5q0 27 16 43.5t44 16.5t44.5 -16.5t16.5 -43.5q0 -28 -16.5 -44.5t-44.5 -16.5t-44 16.5zM-169 576.5q-16 16.5 -16 44.5q0 27 16 43.5t44 16.5t44.5 -16.5t16.5 -43.5q0 -28 -16.5 -44.5t-44.5 -16.5t-44 16.5zM-165 710h-89l-105 144h126z
" />
    <glyph glyph-name="uni0308_acutecomb.ccmp" 
d="M-338 576.5q-16 16.5 -16 44.5q0 27 16 43.5t44 16.5t44.5 -16.5t16.5 -43.5q0 -28 -16.5 -44.5t-44.5 -16.5t-44 16.5zM-169 576.5q-16 16.5 -16 44.5q0 27 16 43.5t44 16.5t44.5 -16.5t16.5 -43.5q0 -28 -16.5 -44.5t-44.5 -16.5t-44 16.5zM-165 710h-89l69 144h125z
" />
    <glyph glyph-name="uni0308_uni030C.ccmp" 
d="M-338 576.5q-16 16.5 -16 44.5q0 27 16 43.5t44 16.5t44.5 -16.5t16.5 -43.5q0 -28 -16.5 -44.5t-44.5 -16.5t-44 16.5zM-169 576.5q-16 16.5 -16 44.5q0 27 16 43.5t44 16.5t44.5 -16.5t16.5 -43.5q0 -28 -16.5 -44.5t-44.5 -16.5t-44 16.5zM-173 710h-73l-108 144h85
l60 -71l59 71h85z" />
    <glyph glyph-name="uni0308_uni0304.ccmp" 
d="M-337 576.5q-16 16.5 -16 44.5q0 27 16 43.5t44 16.5t44.5 -16.5t16.5 -43.5q0 -28 -16.5 -44.5t-44.5 -16.5t-44 16.5zM-168 576.5q-16 16.5 -16 44.5q0 27 16 43.5t44 16.5t44.5 -16.5t16.5 -43.5q0 -28 -16.5 -44.5t-44.5 -16.5t-44 16.5zM-80 745h-257v85h257v-85z
" />
    <glyph glyph-name="uni0307" unicode="&#x307;" 
d="M-173 580.5q-18 18.5 -18 48.5q0 31 18 49.5t49 18.5t49.5 -18.5t18.5 -49.5q0 -30 -18.5 -48.5t-49.5 -18.5t-49 18.5z" />
    <glyph glyph-name="gravecomb" unicode="&#x300;" 
d="M-27 546h-89l-105 144h126z" />
    <glyph glyph-name="acutecomb" unicode="&#x301;" 
d="M-132 546h-89l69 144h125z" />
    <glyph glyph-name="uni030B" unicode="&#x30b;" 
d="M-272 546h-81l45 144h110zM-100 546h-81l45 144h109z" />
    <glyph glyph-name="glyph583" 
d="M-213 478q64 44 76 86q-31 0 -49 18.5t-18 48.5t18.5 48.5t48.5 18.5q31 0 50.5 -22t19.5 -63q0 -59 -26 -102t-67 -77z" />
    <glyph glyph-name="uni0302" unicode="&#x302;" 
d="M-221 546h-85l108 144h73l108 -144h-85l-59 71z" />
    <glyph glyph-name="uni030C" unicode="&#x30c;" 
d="M-125 546h-73l-108 144h85l60 -71l59 71h85z" />
    <glyph glyph-name="uni0306" unicode="&#x306;" 
d="M-261 584q-37 38 -37 106h77q0 -34 15 -54t44 -20t44 20t15 54h77q0 -68 -37 -106t-99 -38t-99 38z" />
    <glyph glyph-name="uni030A" unicode="&#x30a;" 
d="M-190 559q-28 27 -28 71t28 71t69 27t69 -27t28 -71t-28 -71t-69 -27t-69 27zM-91.5 596q10.5 12 10.5 34t-10.5 34t-29.5 12t-29.5 -12t-10.5 -34t10.5 -34t29.5 -12t29.5 12z" />
    <glyph glyph-name="tildecomb" unicode="&#x303;" 
d="M-169 585.5q-15 5.5 -37 16.5q-28 15 -44 15q-20 0 -34 -8t-28 -28l-44 45q35 67 102 67q20 0 35.5 -5t32.5 -15q11 -5 22.5 -9.5t22.5 -4.5q21 0 33.5 7t28.5 29l39 -54q-17 -31 -38.5 -46t-55.5 -15q-20 0 -35 5.5z" />
    <glyph glyph-name="uni0304" unicode="&#x304;" 
d="M-18 593h-257v85h257v-85z" />
    <glyph glyph-name="hookabovecomb" unicode="&#x309;" 
d="M-102 562q10 21 10 36q0 14 -9 22t-24 8q-21 0 -37 -11l-26 58q14 10 34 17t43 7q50 0 75.5 -22.5t25.5 -62.5q0 -45 -45 -84z" />
    <glyph glyph-name="uni0312" unicode="&#x312;" 
d="M-153.5 553q-14.5 16 -14.5 47q0 40 21 65.5t53 33.5l34 -35q-22 -8 -34 -16t-16 -20q20 0 33.5 -13t13.5 -33t-14.5 -32.5t-35.5 -12.5q-26 0 -40.5 16z" />
    <glyph glyph-name="uni031B" unicode="&#x31b;" 
d="M-191 382v88h29q60 0 60 71v59h92v-50q0 -85 -38 -126.5t-104 -41.5h-39z" />
    <glyph glyph-name="dotbelowcomb" unicode="&#x323;" 
d="M-169 -153q-17 17 -17 45q0 29 17 46t45 17t45 -17t17 -46q0 -28 -17 -45t-45 -17t-45 17z" />
    <glyph glyph-name="uni0324" unicode="&#x324;" 
d="M-338 -150.5q-16 16.5 -16 44.5q0 27 16 43.5t44 16.5t44.5 -16.5t16.5 -43.5q0 -28 -16.5 -44.5t-44.5 -16.5t-44 16.5zM-169 -150.5q-16 16.5 -16 44.5q0 27 16 43.5t44 16.5t44.5 -16.5t16.5 -43.5q0 -28 -16.5 -44.5t-44.5 -16.5t-44 16.5z" />
    <glyph glyph-name="uni0326" unicode="&#x326;" 
d="M-171 -178q22 8 34 16t17 20q-21 0 -34 13t-13 33t15 32.5t37 12.5q26 0 41.5 -15t15.5 -43q0 -41 -21 -65.5t-58 -38.5z" />
    <glyph glyph-name="uni0327" unicode="&#x327;" 
d="M-99 -52q42 0 65.5 -19t23.5 -55q0 -37 -24.5 -58.5t-73.5 -21.5q-44 0 -81 17l24 52q26 -12 53 -12q13 0 20.5 6t7.5 17t-7.5 17t-20.5 6q-12 0 -26 -6l-38 28l38 81h76z" />
    <glyph glyph-name="uni0328" unicode="&#x328;" 
d="M-136.5 -167q-26.5 24 -26.5 65q0 43 20 70t58 51l66 -19q-60 -35 -60 -80q0 -15 8 -23.5t21 -8.5q8 0 14.5 2t13.5 5l12 -71q-22 -15 -59 -15q-41 0 -67.5 24z" />
    <glyph glyph-name="uni032E" unicode="&#x32e;" 
d="M-258 -154q-34 36 -34 102h69q0 -32 15 -51t46 -19t46 19t15 51h69q0 -66 -34 -102t-96 -36t-96 36z" />
    <glyph glyph-name="uni0331" unicode="&#x331;" 
d="M-18 -144h-257v80h257v-80z" />
    <glyph glyph-name="dieresis" unicode="&#xa8;" horiz-adv-x="418" 
d="M80 576.5q-16 16.5 -16 44.5q0 27 16 43.5t44 16.5t44.5 -16.5t16.5 -43.5q0 -28 -16.5 -44.5t-44.5 -16.5t-44 16.5zM249 576.5q-16 16.5 -16 44.5q0 27 16 43.5t44 16.5t44.5 -16.5t16.5 -43.5q0 -28 -16.5 -44.5t-44.5 -16.5t-44 16.5z" />
    <glyph glyph-name="dotaccent" unicode="&#x2d9;" horiz-adv-x="248" 
d="M75 580.5q-18 18.5 -18 48.5q0 31 18 49.5t49 18.5t49.5 -18.5t18.5 -49.5q0 -30 -18.5 -48.5t-49.5 -18.5t-49 18.5z" />
    <glyph glyph-name="grave" unicode="`" horiz-adv-x="287" 
d="M240 546h-89l-105 144h126z" />
    <glyph glyph-name="acute" unicode="&#xb4;" horiz-adv-x="247" 
d="M115 546h-89l69 144h125z" />
    <glyph glyph-name="hungarumlaut" unicode="&#x2dd;" horiz-adv-x="379" 
d="M107 546h-81l45 144h110zM279 546h-81l45 144h109z" />
    <glyph glyph-name="circumflex" unicode="&#x2c6;" horiz-adv-x="323" 
d="M102 546h-85l108 144h73l108 -144h-85l-59 71z" />
    <glyph glyph-name="caron" unicode="&#x2c7;" horiz-adv-x="323" 
d="M198 546h-73l-108 144h85l60 -71l59 71h85z" />
    <glyph glyph-name="breve" unicode="&#x2d8;" horiz-adv-x="324" 
d="M63 584q-37 38 -37 106h79q0 -33 14.5 -52.5t42.5 -19.5t42.5 19.5t14.5 52.5h79q0 -68 -37 -106t-99 -38t-99 38z" />
    <glyph glyph-name="ring" unicode="&#x2da;" horiz-adv-x="242" 
d="M52 559q-28 27 -28 71t28 71t69 27t69 -27t28 -71t-28 -71t-69 -27t-69 27zM150.5 596q10.5 12 10.5 34t-10.5 34t-29.5 12t-29.5 -12t-10.5 -34t10.5 -34t29.5 -12t29.5 12z" />
    <glyph glyph-name="tilde" unicode="&#x2dc;" horiz-adv-x="396" 
d="M225 586q-17 6 -36 16q-30 15 -47 15q-20 0 -34 -8t-28 -28l-44 45q35 67 103 67q22 0 38.5 -5t34.5 -15q15 -7 25.5 -10.5t21.5 -3.5q21 0 33.5 7t28.5 29l39 -54q-17 -31 -39 -46t-57 -15q-22 0 -39 6z" />
    <glyph glyph-name="macron" unicode="&#xaf;" horiz-adv-x="298" 
d="M280 588h-262v95h262v-95z" />
    <glyph glyph-name="cedilla" unicode="&#xb8;" horiz-adv-x="199" 
d="M100 -52q42 0 65.5 -19t23.5 -55q0 -37 -24.5 -58.5t-73.5 -21.5q-44 0 -81 17l24 52q26 -12 53 -12q13 0 20.5 6t7.5 17t-7.5 17t-20.5 6q-12 0 -26 -6l-38 28l38 81h76z" />
    <glyph glyph-name="ogonek" unicode="&#x2db;" horiz-adv-x="173" 
d="M36.5 -167q-26.5 24 -26.5 65q0 43 20 70t58 51l66 -19q-60 -35 -60 -80q0 -15 8 -23.5t21 -8.5q8 0 14.5 2t13.5 5l12 -71q-23 -15 -59 -15q-41 0 -67.5 24z" />
    <glyph glyph-name="uni0306_acutecomb.ccmp" 
d="M-261 584q-37 38 -37 106h77q0 -34 15 -54t44 -20t44 20t15 54h77q0 -68 -37 -106t-99 -38t-99 38zM-118 723h-89l69 144h125z" />
    <glyph glyph-name="uni0306_gravecomb.ccmp" 
d="M-261 584q-37 38 -37 106h77q0 -34 15 -54t44 -20t44 20t15 54h77q0 -68 -37 -106t-99 -38t-99 38zM-118 723h-89l-105 144h126z" />
    <glyph glyph-name="uni0306_hookabovecomb.ccmp" 
d="M-261 584q-37 38 -37 106h77q0 -34 15 -54t44 -20t44 20t15 54h77q0 -68 -37 -106t-99 -38t-99 38zM-165 737q10 21 10 36q0 14 -9 22t-24 8q-21 0 -37 -11l-26 58q14 10 34 17t43 7q50 0 75.5 -22.5t25.5 -62.5q0 -45 -45 -84z" />
    <glyph glyph-name="uni0306_tildecomb.ccmp" 
d="M-261 584q-37 38 -37 106h77q0 -34 15 -54t44 -20t44 20t15 54h77q0 -68 -37 -106t-99 -38t-99 38zM-133 746.5q-15 5.5 -37 16.5q-28 15 -44 15q-20 0 -34 -8t-28 -28l-44 45q35 67 102 67q20 0 35.5 -5t32.5 -15q11 -5 22.5 -9.5t22.5 -4.5q21 0 33.5 7t28.5 29l39 -54
q-17 -31 -38.5 -46t-55.5 -15q-20 0 -35 5.5z" />
    <glyph glyph-name="uni0302_acutecomb.ccmp" 
d="M-70 690h-77l49 144h111zM-279 546h-85l108 144h73l108 -144h-85l-59 71z" />
    <glyph glyph-name="uni0302_gravecomb.ccmp" 
d="M-9 690h-77l-83 144h111zM-235 546h-85l108 144h73l108 -144h-85l-59 71z" />
    <glyph glyph-name="uni0302_hookabovecomb.ccmp" 
d="M-104 701q11 19 11 36q0 14 -9 22t-24 8q-20 0 -37 -11l-27 58q33 24 77 24q50 0 76 -22.5t26 -62.5q0 -45 -45 -84zM-238 546h-85l108 144h73l108 -144h-85l-59 71z" />
    <glyph glyph-name="uni0302_tildecomb.ccmp" 
d="M-319 770q33 67 102 67q20 0 35.5 -5t32.5 -15q11 -5 22.5 -9.5t22.5 -4.5q21 0 33.5 7t28.5 29l38 -54q-16 -31 -37.5 -46t-55.5 -15q-20 0 -35 5.5t-37 16.5q-28 15 -44 15q-21 0 -34.5 -7.5t-27.5 -28.5zM-221 546h-85l108 144h73l108 -144h-85l-59 71z" />
    </font>
</defs>
</svg>
