<?xml version="1.0" standalone="no"?>
<!DOCTYPE svg PUBLIC "-//W3C//DTD SVG 1.1//EN" "http://www.w3.org/Graphics/SVG/1.1/DTD/svg11.dtd" >
<svg xmlns="http://www.w3.org/2000/svg" xmlns:xlink="http://www.w3.org/1999/xlink" version="1.1">
<metadata>
Created by FontForge 20201107 at Fri Apr  1 07:00:00 2022
 By Unknown
Copyright (c) October 2022 Discord Inc.
</metadata>
<defs>
<font id="ggsans-ExtraBold" horiz-adv-x="0" >
  <font-face 
    font-family="gg sans ExtraBold"
    font-weight="800"
    font-stretch="normal"
    units-per-em="1000"
    panose-1="0 0 9 0 0 0 0 0 0 0"
    ascent="800"
    descent="-200"
    x-height="470"
    cap-height="690"
    bbox="-436 -222 1061 1101"
    underline-thickness="50"
    underline-position="-100"
    unicode-range="U+0020-FB02"
  />
<missing-glyph horiz-adv-x="600" 
 />
    <glyph glyph-name="f_i.liga" unicode="fi" horiz-adv-x="647" 
d="M90 0v341h-69v129h69v90q0 92 53 138t139 46q26 0 42.5 -3t37.5 -10v-132q-31 15 -60 15q-30 0 -45 -16.5t-15 -44.5v-83h116v-129h-116v-341h-152zM447 561q-24 24 -24 65t24 65.5t66 24.5t65.5 -24t23.5 -66q0 -41 -23.5 -65t-65.5 -24t-66 24zM589 0h-152v470h152
v-470z" />
    <glyph glyph-name="f_l.liga" unicode="fl" horiz-adv-x="691" 
d="M90 0v341h-69v129h69v90q0 92 53 138t139 46q26 0 42.5 -3t37.5 -10v-132q-31 15 -60 15q-30 0 -45 -16.5t-15 -44.5v-83h116v-129h-116v-341h-152zM477 30.5q-40 44.5 -40 142.5v557h152v-550q0 -32 11 -46t36 -14q18 0 30 8v-127q-22 -15 -68 -15q-81 0 -121 44.5z" />
    <glyph glyph-name=".notdef" horiz-adv-x="600" 
 />
    <glyph glyph-name="glyph1" horiz-adv-x="600" 
 />
    <glyph glyph-name="space" unicode=" " horiz-adv-x="220" 
 />
    <glyph glyph-name="A" unicode="A" horiz-adv-x="709" 
d="M703 0h-173l-42 124h-267l-42 -124h-173l260 690h176zM354 520l-85 -254h171z" />
    <glyph glyph-name="Aacute" unicode="&#xc1;" horiz-adv-x="709" 
d="M703 0h-173l-42 124h-267l-42 -124h-173l260 690h176zM354 520l-85 -254h171zM414 766h-118l60 144h169z" />
    <glyph glyph-name="Abreve" unicode="&#x102;" horiz-adv-x="709" 
d="M703 0h-173l-42 124h-267l-42 -124h-173l260 690h176zM354 520l-85 -254h171zM250 804.5q-41 38.5 -41 105.5h100q0 -26 12 -41.5t34 -15.5t34.5 15.5t12.5 41.5h100q0 -67 -41.5 -105.5t-105.5 -38.5t-105 38.5z" />
    <glyph glyph-name="uni1EAE" unicode="&#x1eae;" horiz-adv-x="709" 
d="M703 0h-173l-42 124h-267l-42 -124h-173l260 690h176zM354 520l-85 -254h171zM250 804.5q-41 38.5 -41 105.5h100q0 -26 12 -41.5t34 -15.5t34.5 15.5t12.5 41.5h100q0 -67 -41.5 -105.5t-105.5 -38.5t-105 38.5zM415 943h-118l60 144h169z" />
    <glyph glyph-name="uni1EB6" unicode="&#x1eb6;" horiz-adv-x="709" 
d="M703 0h-173l-42 124h-267l-42 -124h-173l260 690h176zM354 520l-85 -254h171zM297 -175q-21 21 -21 58q0 36 21 57t58 21q36 0 57 -21t21 -57q0 -37 -21 -58t-57 -21q-37 0 -58 21zM250 804.5q-41 38.5 -41 105.5h100q0 -26 12 -41.5t34 -15.5t34.5 15.5t12.5 41.5h100
q0 -67 -41.5 -105.5t-105.5 -38.5t-105 38.5z" />
    <glyph glyph-name="uni1EB0" unicode="&#x1eb0;" horiz-adv-x="709" 
d="M703 0h-173l-42 124h-267l-42 -124h-173l260 690h176zM354 520l-85 -254h171zM250 804.5q-41 38.5 -41 105.5h100q0 -26 12 -41.5t34 -15.5t34.5 15.5t12.5 41.5h100q0 -67 -41.5 -105.5t-105.5 -38.5t-105 38.5zM414 943h-118l-111 144h168z" />
    <glyph glyph-name="uni1EB2" unicode="&#x1eb2;" horiz-adv-x="709" 
d="M703 0h-173l-42 124h-267l-42 -124h-173l260 690h176zM354 520l-85 -254h171zM250 804.5q-41 38.5 -41 105.5h100q0 -26 12 -41.5t34 -15.5t34.5 15.5t12.5 41.5h100q0 -67 -41.5 -105.5t-105.5 -38.5t-105 38.5zM342 959q10 17 10 32q0 10 -7.5 17t-19.5 7
q-18 0 -35 -10l-34 72q41 24 85 24q57 0 85.5 -24t28.5 -69q0 -27 -13.5 -48t-40.5 -43z" />
    <glyph glyph-name="uni1EB4" unicode="&#x1eb4;" horiz-adv-x="709" 
d="M703 0h-173l-42 124h-267l-42 -124h-173l260 690h176zM354 520l-85 -254h171zM250 804.5q-41 38.5 -41 105.5h100q0 -26 12 -41.5t34 -15.5t34.5 15.5t12.5 41.5h100q0 -67 -41.5 -105.5t-105.5 -38.5t-105 38.5zM389 958q-17 5 -40 15q-16 8 -27 11.5t-22 3.5
q-22 0 -35.5 -6.5t-28.5 -26.5l-54 51q38 78 114 78q23 0 38.5 -4t35.5 -13q28 -13 49 -13q22 0 33.5 5.5t30.5 27.5l43 -67q-18 -36 -38.5 -51.5t-59.5 -15.5q-22 0 -39 5z" />
    <glyph glyph-name="Acircumflex" unicode="&#xc2;" horiz-adv-x="709" 
d="M703 0h-173l-42 124h-267l-42 -124h-173l260 690h176zM354 520l-85 -254h171zM307 766h-112l114 144h91l114 -144h-112l-47 55z" />
    <glyph glyph-name="uni1EA4" unicode="&#x1ea4;" horiz-adv-x="709" 
d="M703 0h-173l-42 124h-267l-42 -124h-173l260 690h176zM354 520l-85 -254h171zM518 910h-94l40 144h146zM307 766h-112l114 144h91l114 -144h-112l-47 55z" />
    <glyph glyph-name="uni1EAC" unicode="&#x1eac;" horiz-adv-x="709" 
d="M703 0h-173l-42 124h-267l-42 -124h-173l260 690h176zM354 520l-85 -254h171zM297 -175q-21 21 -21 58q0 36 21 57t58 21q36 0 57 -21t21 -57q0 -37 -21 -58t-57 -21q-37 0 -58 21zM307 766h-112l114 144h91l114 -144h-112l-47 55z" />
    <glyph glyph-name="uni1EA6" unicode="&#x1ea6;" horiz-adv-x="709" 
d="M703 0h-173l-42 124h-267l-42 -124h-173l260 690h176zM354 520l-85 -254h171zM538 910h-94l-92 144h146zM307 766h-112l114 144h91l114 -144h-112l-47 55z" />
    <glyph glyph-name="uni1EA8" unicode="&#x1ea8;" horiz-adv-x="709" 
d="M703 0h-173l-42 124h-267l-42 -124h-173l260 690h176zM354 520l-85 -254h171zM432 917q10 17 10 31q0 10 -7.5 17t-19.5 7q-18 0 -36 -9l-33 71q15 10 38 17t47 7q57 0 85.5 -24t28.5 -68q0 -27 -13.5 -48t-40.5 -44zM307 766h-112l114 144h91l114 -144h-112l-47 55z" />
    <glyph glyph-name="uni1EAA" unicode="&#x1eaa;" horiz-adv-x="709" 
d="M703 0h-173l-42 124h-267l-42 -124h-173l260 690h176zM354 520l-85 -254h171zM182 984q16 36 45 57t70 21q24 0 39.5 -4t35.5 -13q28 -13 48 -13q21 0 34.5 6.5t28.5 26.5l44 -67q-19 -34 -42 -49t-59 -15q-23 0 -39.5 5t-38.5 14q-30 13 -48 13q-20 0 -34.5 -7
t-28.5 -26zM307 766h-112l114 144h91l114 -144h-112l-47 55z" />
    <glyph glyph-name="Adieresis" unicode="&#xc4;" horiz-adv-x="709" 
d="M703 0h-173l-42 124h-267l-42 -124h-173l260 690h176zM354 520l-85 -254h171zM205.5 795.5q-19.5 19.5 -19.5 54.5t19.5 55t55.5 20q35 0 54.5 -20t19.5 -55t-19.5 -54.5t-54.5 -19.5q-36 0 -55.5 19.5zM394 795.5q-20 19.5 -20 54.5t20 55t55 20t55 -20t20 -55
t-20 -54.5t-55 -19.5t-55 19.5z" />
    <glyph glyph-name="uni1EA0" unicode="&#x1ea0;" horiz-adv-x="709" 
d="M703 0h-173l-42 124h-267l-42 -124h-173l260 690h176zM354 520l-85 -254h171zM297 -175q-21 21 -21 58q0 36 21 57t58 21q36 0 57 -21t21 -57q0 -37 -21 -58t-57 -21q-37 0 -58 21z" />
    <glyph glyph-name="Agrave" unicode="&#xc0;" horiz-adv-x="709" 
d="M703 0h-173l-42 124h-267l-42 -124h-173l260 690h176zM354 520l-85 -254h171zM414 766h-118l-111 144h168z" />
    <glyph glyph-name="uni1EA2" unicode="&#x1ea2;" horiz-adv-x="709" 
d="M703 0h-173l-42 124h-267l-42 -124h-173l260 690h176zM354 520l-85 -254h171zM341 785q10 17 10 32q0 10 -7.5 17t-19.5 7q-18 0 -35 -10l-34 72q41 24 85 24q57 0 85.5 -24t28.5 -69q0 -27 -13.5 -48t-40.5 -43z" />
    <glyph glyph-name="Amacron" unicode="&#x100;" horiz-adv-x="709" 
d="M703 0h-173l-42 124h-267l-42 -124h-173l260 690h176zM354 520l-85 -254h171zM488 801h-267v109h267v-109z" />
    <glyph glyph-name="Aogonek" unicode="&#x104;" horiz-adv-x="709" 
d="M712 -184q-19 -12 -59 -12q-45 0 -72.5 26t-27.5 68q0 35 11 59.5t33 42.5h-67l-42 124h-267l-42 -124h-173l260 690h176l261 -690q-51 -35 -51 -76q0 -13 7.5 -21t17.5 -8q11 0 23 6zM354 520l-85 -254h171z" />
    <glyph glyph-name="Aring" unicode="&#xc5;" horiz-adv-x="709" 
d="M703 0h-173l-42 124h-267l-42 -124h-173l260 690h176zM354 520l-85 -254h171zM284 779q-29 27 -29 71t29 71t71 27t71 -27t29 -71t-29 -71t-71 -27t-71 27zM379.5 823q8.5 10 8.5 27t-8.5 27t-24.5 10q-15 0 -23.5 -10t-8.5 -27t8.5 -27t23.5 -10q16 0 24.5 10z" />
    <glyph glyph-name="Atilde" unicode="&#xc3;" horiz-adv-x="709" 
d="M703 0h-173l-42 124h-267l-42 -124h-173l260 690h176zM354 520l-85 -254h171zM389 798q-17 5 -40 15q-16 8 -27 11.5t-22 3.5q-22 0 -35.5 -6.5t-28.5 -26.5l-54 51q38 78 114 78q23 0 38.5 -4t35.5 -13q28 -13 49 -13q22 0 33.5 5.5t30.5 27.5l43 -67
q-18 -36 -38.5 -51.5t-59.5 -15.5q-22 0 -39 5z" />
    <glyph glyph-name="AE" unicode="&#xc6;" horiz-adv-x="1036" 
d="M665 284v-139h327v-145h-488v124h-256l-66 -124h-176l372 690h607v-145h-320v-116h272v-145h-272zM473 545l-149 -279h180v279h-31z" />
    <glyph glyph-name="AEacute" unicode="&#x1fc;" horiz-adv-x="1036" 
d="M665 284v-139h327v-145h-488v124h-256l-66 -124h-176l372 690h607v-145h-320v-116h272v-145h-272zM473 545l-149 -279h180v279h-31zM722 766h-118l60 144h169z" />
    <glyph glyph-name="B" unicode="B" horiz-adv-x="628" 
d="M65 0v690h305q93 0 146 -47.5t53 -127.5q0 -63 -29.5 -100t-79.5 -54q60 -13 97.5 -54.5t37.5 -115.5q0 -95 -59.5 -143t-165.5 -48h-305zM322 419q89 0 89 68t-89 68h-96v-136h96zM332 135q102 0 102 75q0 43 -28 58.5t-74 15.5h-106v-149h106z" />
    <glyph glyph-name="C" unicode="C" horiz-adv-x="659" 
d="M193.5 30q-74.5 44 -115.5 125.5t-41 189.5q0 109 41.5 190.5t115.5 125t171 43.5q189 0 266 -140l-119 -94q-22 41 -60.5 65t-86.5 24q-73 0 -120 -55.5t-47 -158.5q0 -104 47 -159t120 -55q46 0 85.5 24t61.5 65l119 -94q-38 -68 -106 -104t-160 -36q-97 0 -171.5 44z
" />
    <glyph glyph-name="Cacute" unicode="&#x106;" horiz-adv-x="659" 
d="M193.5 30q-74.5 44 -115.5 125.5t-41 189.5q0 109 41.5 190.5t115.5 125t171 43.5q189 0 266 -140l-119 -94q-22 41 -60.5 65t-86.5 24q-73 0 -120 -55.5t-47 -158.5q0 -104 47 -159t120 -55q46 0 85.5 24t61.5 65l119 -94q-38 -68 -106 -104t-160 -36q-97 0 -171.5 44z
M424 766h-118l60 144h169z" />
    <glyph glyph-name="Ccaron" unicode="&#x10c;" horiz-adv-x="659" 
d="M193.5 30q-74.5 44 -115.5 125.5t-41 189.5q0 109 41.5 190.5t115.5 125t171 43.5q189 0 266 -140l-119 -94q-22 41 -60.5 65t-86.5 24q-73 0 -120 -55.5t-47 -158.5q0 -104 47 -159t120 -55q46 0 85.5 24t61.5 65l119 -94q-38 -68 -106 -104t-160 -36q-97 0 -171.5 44z
M410 766h-91l-114 144h112l48 -54l47 54h112z" />
    <glyph glyph-name="Ccedilla" unicode="&#xc7;" horiz-adv-x="659" 
d="M450.5 155q39.5 24 61.5 65l119 -94q-35 -62 -95 -97.5t-140 -41.5l-26 -35q45 -1 71 -21t26 -57q0 -41 -28 -65t-88 -24q-50 0 -84 14l24 65q24 -7 53 -7q11 0 18 4.5t7 12.5q0 10 -6.5 14t-18.5 4q-6 0 -12.5 -1.5t-11.5 -4.5l-46 34l33 70q-81 12 -142 59t-94.5 123
t-33.5 173q0 109 41.5 190.5t115.5 125t171 43.5q189 0 266 -140l-119 -94q-22 41 -60.5 65t-86.5 24q-73 0 -120 -55.5t-47 -158.5q0 -104 47 -159t120 -55q46 0 85.5 24z" />
    <glyph glyph-name="Ccircumflex" unicode="&#x108;" horiz-adv-x="659" 
d="M193.5 30q-74.5 44 -115.5 125.5t-41 189.5q0 109 41.5 190.5t115.5 125t171 43.5q189 0 266 -140l-119 -94q-22 41 -60.5 65t-86.5 24q-73 0 -120 -55.5t-47 -158.5q0 -104 47 -159t120 -55q46 0 85.5 24t61.5 65l119 -94q-38 -68 -106 -104t-160 -36q-97 0 -171.5 44z
M317 766h-112l114 144h91l114 -144h-112l-47 55z" />
    <glyph glyph-name="Cdotaccent" unicode="&#x10a;" horiz-adv-x="659" 
d="M193.5 30q-74.5 44 -115.5 125.5t-41 189.5q0 109 41.5 190.5t115.5 125t171 43.5q189 0 266 -140l-119 -94q-22 41 -60.5 65t-86.5 24q-73 0 -120 -55.5t-47 -158.5q0 -104 47 -159t120 -55q46 0 85.5 24t61.5 65l119 -94q-38 -68 -106 -104t-160 -36q-97 0 -171.5 44z
M299 781q-24 24 -24 65t24 65.5t66 24.5t65.5 -24t23.5 -66q0 -41 -23.5 -65t-65.5 -24t-66 24z" />
    <glyph glyph-name="D" unicode="D" horiz-adv-x="686" 
d="M65 0v690h247q164 0 250.5 -88.5t86.5 -256.5t-86.5 -256.5t-250.5 -88.5h-247zM319 145q79 0 124 47.5t45 152.5q0 200 -169 200h-93v-400h93z" />
    <glyph glyph-name="Eth" unicode="&#xd0;" horiz-adv-x="692" 
d="M318 690q164 0 250.5 -88.5t86.5 -256.5t-86.5 -256.5t-250.5 -88.5h-235v279h-65v133h65v278h235zM325 145q79 0 124 47.5t45 152.5q0 200 -169 200h-81v-133h153v-133h-153v-134h81z" />
    <glyph glyph-name="Dcaron" unicode="&#x10e;" horiz-adv-x="686" 
d="M65 0v690h247q164 0 250.5 -88.5t86.5 -256.5t-86.5 -256.5t-250.5 -88.5h-247zM319 145q79 0 124 47.5t45 152.5q0 200 -169 200h-93v-400h93zM334 766h-91l-114 144h112l48 -54l47 54h112z" />
    <glyph glyph-name="Dcroat" unicode="&#x110;" horiz-adv-x="692" 
d="M318 690q164 0 250.5 -88.5t86.5 -256.5t-86.5 -256.5t-250.5 -88.5h-235v279h-65v133h65v278h235zM325 145q79 0 124 47.5t45 152.5q0 200 -169 200h-81v-133h153v-133h-153v-134h81z" />
    <glyph glyph-name="E" unicode="E" horiz-adv-x="597" 
d="M553 0h-488v690h482v-145h-321v-116h273v-145h-273v-139h327v-145z" />
    <glyph glyph-name="Eacute" unicode="&#xc9;" horiz-adv-x="597" 
d="M553 0h-488v690h482v-145h-321v-116h273v-145h-273v-139h327v-145zM365 766h-118l60 144h169z" />
    <glyph glyph-name="Ebreve" unicode="&#x114;" horiz-adv-x="597" 
d="M553 0h-488v690h482v-145h-321v-116h273v-145h-273v-139h327v-145zM201 804.5q-41 38.5 -41 105.5h100q0 -26 12 -41.5t34 -15.5t34.5 15.5t12.5 41.5h100q0 -67 -41.5 -105.5t-105.5 -38.5t-105 38.5z" />
    <glyph glyph-name="Ecaron" unicode="&#x11a;" horiz-adv-x="597" 
d="M553 0h-488v690h482v-145h-321v-116h273v-145h-273v-139h327v-145zM351 766h-91l-114 144h112l48 -54l47 54h112z" />
    <glyph glyph-name="Ecircumflex" unicode="&#xca;" horiz-adv-x="597" 
d="M553 0h-488v690h482v-145h-321v-116h273v-145h-273v-139h327v-145zM258 766h-112l114 144h91l114 -144h-112l-47 55z" />
    <glyph glyph-name="uni1EBE" unicode="&#x1ebe;" horiz-adv-x="597" 
d="M553 0h-488v690h482v-145h-321v-116h273v-145h-273v-139h327v-145zM469 910h-94l40 144h146zM258 766h-112l114 144h91l114 -144h-112l-47 55z" />
    <glyph glyph-name="uni1EC6" unicode="&#x1ec6;" horiz-adv-x="597" 
d="M553 0h-488v690h482v-145h-321v-116h273v-145h-273v-139h327v-145zM245 -175q-21 21 -21 58q0 36 21 57t58 21q36 0 57 -21t21 -57q0 -37 -21 -58t-57 -21q-37 0 -58 21zM258 766h-112l114 144h91l114 -144h-112l-47 55z" />
    <glyph glyph-name="uni1EC0" unicode="&#x1ec0;" horiz-adv-x="597" 
d="M553 0h-488v690h482v-145h-321v-116h273v-145h-273v-139h327v-145zM489 910h-94l-92 144h146zM258 766h-112l114 144h91l114 -144h-112l-47 55z" />
    <glyph glyph-name="uni1EC2" unicode="&#x1ec2;" horiz-adv-x="597" 
d="M553 0h-488v690h482v-145h-321v-116h273v-145h-273v-139h327v-145zM383 917q10 17 10 31q0 10 -7.5 17t-19.5 7q-18 0 -36 -9l-33 71q15 10 38 17t47 7q57 0 85.5 -24t28.5 -68q0 -27 -13.5 -48t-40.5 -44zM258 766h-112l114 144h91l114 -144h-112l-47 55z" />
    <glyph glyph-name="uni1EC4" unicode="&#x1ec4;" horiz-adv-x="597" 
d="M553 0h-488v690h482v-145h-321v-116h273v-145h-273v-139h327v-145zM133 984q16 36 45 57t70 21q24 0 39.5 -4t35.5 -13q28 -13 48 -13q21 0 34.5 6.5t28.5 26.5l44 -67q-19 -34 -42 -49t-59 -15q-23 0 -39.5 5t-38.5 14q-30 13 -48 13q-20 0 -34.5 -7t-28.5 -26zM258 766
h-112l114 144h91l114 -144h-112l-47 55z" />
    <glyph glyph-name="Edieresis" unicode="&#xcb;" horiz-adv-x="597" 
d="M553 0h-488v690h482v-145h-321v-116h273v-145h-273v-139h327v-145zM156.5 795.5q-19.5 19.5 -19.5 54.5t19.5 55t55.5 20q35 0 54.5 -20t19.5 -55t-19.5 -54.5t-54.5 -19.5q-36 0 -55.5 19.5zM345 795.5q-20 19.5 -20 54.5t20 55t55 20t55 -20t20 -55t-20 -54.5
t-55 -19.5t-55 19.5z" />
    <glyph glyph-name="Edotaccent" unicode="&#x116;" horiz-adv-x="597" 
d="M553 0h-488v690h482v-145h-321v-116h273v-145h-273v-139h327v-145zM240 781q-24 24 -24 65t24 65.5t66 24.5t65.5 -24t23.5 -66q0 -41 -23.5 -65t-65.5 -24t-66 24z" />
    <glyph glyph-name="uni1EB8" unicode="&#x1eb8;" horiz-adv-x="597" 
d="M553 0h-488v690h482v-145h-321v-116h273v-145h-273v-139h327v-145zM245 -175q-21 21 -21 58q0 36 21 57t58 21q36 0 57 -21t21 -57q0 -37 -21 -58t-57 -21q-37 0 -58 21z" />
    <glyph glyph-name="Egrave" unicode="&#xc8;" horiz-adv-x="597" 
d="M553 0h-488v690h482v-145h-321v-116h273v-145h-273v-139h327v-145zM365 766h-118l-111 144h168z" />
    <glyph glyph-name="uni1EBA" unicode="&#x1eba;" horiz-adv-x="597" 
d="M553 0h-488v690h482v-145h-321v-116h273v-145h-273v-139h327v-145zM292 785q10 17 10 32q0 10 -7.5 17t-19.5 7q-18 0 -35 -10l-34 72q41 24 85 24q57 0 85.5 -24t28.5 -69q0 -27 -13.5 -48t-40.5 -43z" />
    <glyph glyph-name="Emacron" unicode="&#x112;" horiz-adv-x="597" 
d="M553 0h-488v690h482v-145h-321v-116h273v-145h-273v-139h327v-145zM439 801h-267v109h267v-109z" />
    <glyph glyph-name="Eogonek" unicode="&#x118;" horiz-adv-x="597" 
d="M562 -184q-20 -12 -59 -12q-45 0 -72.5 26t-27.5 68q0 35 11 59.5t33 42.5h-382v690h482v-145h-321v-116h273v-145h-273v-139h327v-145q-51 -35 -51 -76q0 -13 7.5 -21t17.5 -8q11 0 23 6z" />
    <glyph glyph-name="uni1EBC" unicode="&#x1ebc;" horiz-adv-x="597" 
d="M553 0h-488v690h482v-145h-321v-116h273v-145h-273v-139h327v-145zM340 798q-17 5 -40 15q-16 8 -27 11.5t-22 3.5q-22 0 -35.5 -6.5t-28.5 -26.5l-54 51q38 78 114 78q23 0 38.5 -4t35.5 -13q28 -13 49 -13q22 0 33.5 5.5t30.5 27.5l43 -67q-18 -36 -38.5 -51.5
t-59.5 -15.5q-22 0 -39 5z" />
    <glyph glyph-name="F" unicode="F" horiz-adv-x="583" 
d="M226 0h-161v690h486v-145h-325v-143h264v-145h-264v-257z" />
    <glyph glyph-name="G" unicode="G" horiz-adv-x="715" 
d="M173.5 31.5q-65.5 45.5 -101 127t-35.5 186.5q0 102 38.5 183.5t114.5 128.5t183 47q92 0 166 -38.5t110 -106.5l-124 -89q-53 89 -150 89q-83 0 -130 -57t-47 -157q0 -102 48 -158t131 -56q38 0 70.5 13.5t50.5 37.5v73h-149v139h306v-394h-129l-22 62q-57 -76 -178 -76
q-87 0 -152.5 45.5z" />
    <glyph glyph-name="Gbreve" unicode="&#x11e;" horiz-adv-x="715" 
d="M173.5 31.5q-65.5 45.5 -101 127t-35.5 186.5q0 102 38.5 183.5t114.5 128.5t183 47q92 0 166 -38.5t110 -106.5l-124 -89q-53 89 -150 89q-83 0 -130 -57t-47 -157q0 -102 48 -158t131 -56q38 0 70.5 13.5t50.5 37.5v73h-149v139h306v-394h-129l-22 62q-57 -76 -178 -76
q-87 0 -152.5 45.5zM266 804.5q-41 38.5 -41 105.5h100q0 -26 12 -41.5t34 -15.5t34.5 15.5t12.5 41.5h100q0 -67 -41.5 -105.5t-105.5 -38.5t-105 38.5z" />
    <glyph glyph-name="Gcircumflex" unicode="&#x11c;" horiz-adv-x="715" 
d="M173.5 31.5q-65.5 45.5 -101 127t-35.5 186.5q0 102 38.5 183.5t114.5 128.5t183 47q92 0 166 -38.5t110 -106.5l-124 -89q-53 89 -150 89q-83 0 -130 -57t-47 -157q0 -102 48 -158t131 -56q38 0 70.5 13.5t50.5 37.5v73h-149v139h306v-394h-129l-22 62q-57 -76 -178 -76
q-87 0 -152.5 45.5zM323 766h-112l114 144h91l114 -144h-112l-47 55z" />
    <glyph glyph-name="uni0122" unicode="&#x122;" horiz-adv-x="715" 
d="M173.5 31.5q-65.5 45.5 -101 127t-35.5 186.5q0 102 38.5 183.5t114.5 128.5t183 47q92 0 166 -38.5t110 -106.5l-124 -89q-53 89 -150 89q-83 0 -130 -57t-47 -157q0 -102 48 -158t131 -56q38 0 70.5 13.5t50.5 37.5v73h-149v139h306v-394h-129l-22 62q-57 -76 -178 -76
q-87 0 -152.5 45.5zM303 -171q41 8 56 23q-23 0 -36.5 13t-13.5 35t17.5 36t45.5 14q69 0 69 -65q0 -43 -28.5 -66.5t-73.5 -33.5z" />
    <glyph glyph-name="Gdotaccent" unicode="&#x120;" horiz-adv-x="715" 
d="M173.5 31.5q-65.5 45.5 -101 127t-35.5 186.5q0 102 38.5 183.5t114.5 128.5t183 47q92 0 166 -38.5t110 -106.5l-124 -89q-53 89 -150 89q-83 0 -130 -57t-47 -157q0 -102 48 -158t131 -56q38 0 70.5 13.5t50.5 37.5v73h-149v139h306v-394h-129l-22 62q-57 -76 -178 -76
q-87 0 -152.5 45.5zM305 781q-24 24 -24 65t24 65.5t66 24.5t65.5 -24t23.5 -66q0 -41 -23.5 -65t-65.5 -24t-66 24z" />
    <glyph glyph-name="H" unicode="H" horiz-adv-x="707" 
d="M226 0h-161v690h161v-268h255v268h161v-690h-161v277h-255v-277z" />
    <glyph glyph-name="Hbar" unicode="&#x126;" horiz-adv-x="745" 
d="M661 625h70v-133h-70v-492h-161v277h-255v-277h-161v492h-70v133h70v65h161v-65h255v65h161v-65zM245 419h255v73h-255v-73z" />
    <glyph glyph-name="Hcircumflex" unicode="&#x124;" horiz-adv-x="707" 
d="M226 0h-161v690h161v-268h255v268h161v-690h-161v277h-255v-277zM306 766h-112l114 144h91l114 -144h-112l-47 55z" />
    <glyph glyph-name="I" unicode="I" horiz-adv-x="291" 
d="M226 0h-161v690h161v-690z" />
    <glyph glyph-name="IJ" unicode="&#x132;" horiz-adv-x="851" 
d="M226 0h-161v690h161v-690zM404.5 20.5q-58.5 34.5 -86.5 91.5l113 95q19 -37 43.5 -56.5t62.5 -19.5q88 0 88 112v447h161v-439q0 -132 -62.5 -198.5t-185.5 -66.5q-75 0 -133.5 34.5z" />
    <glyph glyph-name="Iacute" unicode="&#xcd;" horiz-adv-x="291" 
d="M226 0h-161v690h161v-690zM205 766h-118l60 144h169z" />
    <glyph glyph-name="Ibreve" unicode="&#x12c;" horiz-adv-x="291" 
d="M226 0h-161v690h161v-690zM41 804.5q-41 38.5 -41 105.5h100q0 -26 12 -41.5t34 -15.5t34.5 15.5t12.5 41.5h100q0 -67 -41.5 -105.5t-105.5 -38.5t-105 38.5z" />
    <glyph glyph-name="Icircumflex" unicode="&#xce;" horiz-adv-x="291" 
d="M226 0h-161v690h161v-690zM98 766h-112l114 144h91l114 -144h-112l-47 55z" />
    <glyph glyph-name="Idieresis" unicode="&#xcf;" horiz-adv-x="291" 
d="M226 0h-161v690h161v-690zM-3.5 795.5q-19.5 19.5 -19.5 54.5t19.5 55t55.5 20q35 0 54.5 -20t19.5 -55t-19.5 -54.5t-54.5 -19.5q-36 0 -55.5 19.5zM185 795.5q-20 19.5 -20 54.5t20 55t55 20t55 -20t20 -55t-20 -54.5t-55 -19.5t-55 19.5z" />
    <glyph glyph-name="Idotaccent" unicode="&#x130;" horiz-adv-x="291" 
d="M226 0h-161v690h161v-690zM80 781q-24 24 -24 65t24 65.5t66 24.5t65.5 -24t23.5 -66q0 -41 -23.5 -65t-65.5 -24t-66 24z" />
    <glyph glyph-name="uni1ECA" unicode="&#x1eca;" horiz-adv-x="291" 
d="M226 0h-161v690h161v-690zM88 -175q-21 21 -21 58q0 36 21 57t58 21q36 0 57 -21t21 -57q0 -37 -21 -58t-57 -21q-37 0 -58 21z" />
    <glyph glyph-name="Igrave" unicode="&#xcc;" horiz-adv-x="291" 
d="M226 0h-161v690h161v-690zM205 766h-118l-111 144h168z" />
    <glyph glyph-name="uni1EC8" unicode="&#x1ec8;" horiz-adv-x="291" 
d="M226 0h-161v690h161v-690zM132 785q10 17 10 32q0 10 -7.5 17t-19.5 7q-18 0 -35 -10l-34 72q41 24 85 24q57 0 85.5 -24t28.5 -69q0 -27 -13.5 -48t-40.5 -43z" />
    <glyph glyph-name="Imacron" unicode="&#x12a;" horiz-adv-x="291" 
d="M226 0h-161v690h161v-690zM279 801h-267v109h267v-109z" />
    <glyph glyph-name="Iogonek" unicode="&#x12e;" horiz-adv-x="291" 
d="M235 -184q-19 -12 -59 -12q-45 0 -72.5 26t-27.5 68q0 35 11 59.5t33 42.5h-55v690h161v-690q-51 -35 -51 -76q0 -13 7.5 -21t17.5 -8q11 0 23 6z" />
    <glyph glyph-name="Itilde" unicode="&#x128;" horiz-adv-x="291" 
d="M226 0h-161v690h161v-690zM180 798q-17 5 -40 15q-16 8 -27 11.5t-22 3.5q-22 0 -35.5 -6.5t-28.5 -26.5l-54 51q38 78 114 78q23 0 38.5 -4t35.5 -13q28 -13 49 -13q22 0 33.5 5.5t30.5 27.5l43 -67q-18 -36 -38.5 -51.5t-59.5 -15.5q-22 0 -39 5z" />
    <glyph glyph-name="J" unicode="J" horiz-adv-x="560" 
d="M113.5 20.5q-58.5 34.5 -86.5 91.5l113 95q19 -37 43.5 -56.5t62.5 -19.5q88 0 88 112v447h161v-439q0 -132 -62.5 -198.5t-185.5 -66.5q-75 0 -133.5 34.5z" />
    <glyph glyph-name="Jcircumflex" unicode="&#x134;" horiz-adv-x="560" 
d="M113.5 20.5q-58.5 34.5 -86.5 91.5l113 95q19 -37 43.5 -56.5t62.5 -19.5q88 0 88 112v447h161v-439q0 -132 -62.5 -198.5t-185.5 -66.5q-75 0 -133.5 34.5zM367 766h-112l114 144h91l114 -144h-112l-47 55z" />
    <glyph glyph-name="K" unicode="K" horiz-adv-x="674" 
d="M65 0v690h161v-250l236 250h196l-250 -273q74 -83 138 -191.5t103 -225.5h-189q-46 143 -160 300l-74 -80v-220h-161z" />
    <glyph glyph-name="uni0136" unicode="&#x136;" horiz-adv-x="674" 
d="M65 0v690h161v-250l236 250h196l-250 -273q74 -83 138 -191.5t103 -225.5h-189q-46 143 -160 300l-74 -80v-220h-161zM260 -171q41 8 56 23q-23 0 -36.5 13t-13.5 35t17.5 36t45.5 14q69 0 69 -65q0 -43 -28.5 -66.5t-73.5 -33.5z" />
    <glyph glyph-name="L" unicode="L" horiz-adv-x="576" 
d="M537 0h-472v690h161v-545h311v-145z" />
    <glyph glyph-name="Lacute" unicode="&#x139;" horiz-adv-x="576" 
d="M537 0h-472v690h161v-545h311v-145zM205 766h-118l60 144h169z" />
    <glyph glyph-name="Lcaron" unicode="&#x13d;" horiz-adv-x="576" 
d="M537 0h-472v690h161v-545h311v-145zM394 459q66 35 84 78q-38 0 -59 22t-21 59q0 36 22 58t58 22q39 0 62 -26t23 -74q0 -111 -99 -196z" />
    <glyph glyph-name="uni013B" unicode="&#x13b;" horiz-adv-x="576" 
d="M537 0h-472v690h161v-545h311v-145zM233 -171q41 8 56 23q-23 0 -36.5 13t-13.5 35t17.5 36t45.5 14q69 0 69 -65q0 -43 -28.5 -66.5t-73.5 -33.5z" />
    <glyph glyph-name="Ldot" unicode="&#x13f;" horiz-adv-x="576" 
d="M537 0h-472v690h161v-545h311v-145zM362.5 275.5q-26.5 26.5 -26.5 69.5q0 44 26.5 70t69.5 26t69.5 -26.5t26.5 -69.5t-26.5 -69.5t-69.5 -26.5t-69.5 26.5z" />
    <glyph glyph-name="Lslash" unicode="&#x141;" horiz-adv-x="591" 
d="M241 252v-107h311v-145h-472v173l-69 -33v148l69 33v369h161v-290l141 68v-148z" />
    <glyph glyph-name="M" unicode="M" horiz-adv-x="897" 
d="M201 0h-165l77 690h234l105 -391l106 391h226l77 -690h-164l-52 491l-113 -393h-166l-113 393z" />
    <glyph glyph-name="N" unicode="N" horiz-adv-x="734" 
d="M223 0h-158v690h201l245 -469v469h158v-690h-200l-246 470v-470z" />
    <glyph glyph-name="Nacute" unicode="&#x143;" horiz-adv-x="734" 
d="M223 0h-158v690h201l245 -469v469h158v-690h-200l-246 470v-470zM426 766h-118l60 144h169z" />
    <glyph glyph-name="Ncaron" unicode="&#x147;" horiz-adv-x="734" 
d="M223 0h-158v690h201l245 -469v469h158v-690h-200l-246 470v-470zM412 766h-91l-114 144h112l48 -54l47 54h112z" />
    <glyph glyph-name="uni0145" unicode="&#x145;" horiz-adv-x="734" 
d="M223 0h-158v690h201l245 -469v469h158v-690h-200l-246 470v-470zM299 -171q41 8 56 23q-23 0 -36.5 13t-13.5 35t17.5 36t45.5 14q69 0 69 -65q0 -43 -28.5 -66.5t-73.5 -33.5z" />
    <glyph glyph-name="Eng" unicode="&#x14a;" horiz-adv-x="734" 
d="M410 -200.5q-27 3.5 -42 8.5v148q12 -7 35 -12.5t40 -5.5q37 0 52.5 16t15.5 49l-288 467v-470h-158v690h201l245 -419v419h158v-675q0 -108 -48 -163.5t-155 -55.5q-29 0 -56 3.5z" />
    <glyph glyph-name="Ntilde" unicode="&#xd1;" horiz-adv-x="734" 
d="M223 0h-158v690h201l245 -469v469h158v-690h-200l-246 470v-470zM401 798q-17 5 -40 15q-16 8 -27 11.5t-22 3.5q-22 0 -35.5 -6.5t-28.5 -26.5l-54 51q38 78 114 78q23 0 38.5 -4t35.5 -13q28 -13 49 -13q22 0 33.5 5.5t30.5 27.5l43 -67q-18 -36 -38.5 -51.5
t-59.5 -15.5q-22 0 -39 5z" />
    <glyph glyph-name="O" unicode="O" horiz-adv-x="723" 
d="M192.5 29.5q-73.5 43.5 -114.5 124.5t-41 191t41 191t114.5 124.5t168.5 43.5t169 -43.5t115 -124.5t41 -191t-41 -191t-115 -124.5t-169 -43.5t-168.5 43.5zM483 186.5q42 55.5 42 158.5t-42 158.5t-122 55.5t-121.5 -55t-41.5 -159t41.5 -159t121.5 -55t122 55.5z" />
    <glyph glyph-name="Oacute" unicode="&#xd3;" horiz-adv-x="723" 
d="M192.5 29.5q-73.5 43.5 -114.5 124.5t-41 191t41 191t114.5 124.5t168.5 43.5t169 -43.5t115 -124.5t41 -191t-41 -191t-115 -124.5t-169 -43.5t-168.5 43.5zM483 186.5q42 55.5 42 158.5t-42 158.5t-122 55.5t-121.5 -55t-41.5 -159t41.5 -159t121.5 -55t122 55.5z
M420 766h-118l60 144h169z" />
    <glyph glyph-name="Obreve" unicode="&#x14e;" horiz-adv-x="723" 
d="M192.5 29.5q-73.5 43.5 -114.5 124.5t-41 191t41 191t114.5 124.5t168.5 43.5t169 -43.5t115 -124.5t41 -191t-41 -191t-115 -124.5t-169 -43.5t-168.5 43.5zM483 186.5q42 55.5 42 158.5t-42 158.5t-122 55.5t-121.5 -55t-41.5 -159t41.5 -159t121.5 -55t122 55.5z
M256 804.5q-41 38.5 -41 105.5h100q0 -26 12 -41.5t34 -15.5t34.5 15.5t12.5 41.5h100q0 -67 -41.5 -105.5t-105.5 -38.5t-105 38.5z" />
    <glyph glyph-name="Ocircumflex" unicode="&#xd4;" horiz-adv-x="723" 
d="M192.5 29.5q-73.5 43.5 -114.5 124.5t-41 191t41 191t114.5 124.5t168.5 43.5t169 -43.5t115 -124.5t41 -191t-41 -191t-115 -124.5t-169 -43.5t-168.5 43.5zM483 186.5q42 55.5 42 158.5t-42 158.5t-122 55.5t-121.5 -55t-41.5 -159t41.5 -159t121.5 -55t122 55.5z
M313 766h-112l114 144h91l114 -144h-112l-47 55z" />
    <glyph glyph-name="uni1ED0" unicode="&#x1ed0;" horiz-adv-x="723" 
d="M192.5 29.5q-73.5 43.5 -114.5 124.5t-41 191t41 191t114.5 124.5t168.5 43.5t169 -43.5t115 -124.5t41 -191t-41 -191t-115 -124.5t-169 -43.5t-168.5 43.5zM483 186.5q42 55.5 42 158.5t-42 158.5t-122 55.5t-121.5 -55t-41.5 -159t41.5 -159t121.5 -55t122 55.5z
M524 910h-94l40 144h146zM313 766h-112l114 144h91l114 -144h-112l-47 55z" />
    <glyph glyph-name="uni1ED8" unicode="&#x1ed8;" horiz-adv-x="723" 
d="M192.5 29.5q-73.5 43.5 -114.5 124.5t-41 191t41 191t114.5 124.5t168.5 43.5t169 -43.5t115 -124.5t41 -191t-41 -191t-115 -124.5t-169 -43.5t-168.5 43.5zM483 186.5q42 55.5 42 158.5t-42 158.5t-122 55.5t-121.5 -55t-41.5 -159t41.5 -159t121.5 -55t122 55.5z
M303 -175q-21 21 -21 58q0 36 21 57t58 21q36 0 57 -21t21 -57q0 -37 -21 -58t-57 -21q-37 0 -58 21zM313 766h-112l114 144h91l114 -144h-112l-47 55z" />
    <glyph glyph-name="uni1ED2" unicode="&#x1ed2;" horiz-adv-x="723" 
d="M192.5 29.5q-73.5 43.5 -114.5 124.5t-41 191t41 191t114.5 124.5t168.5 43.5t169 -43.5t115 -124.5t41 -191t-41 -191t-115 -124.5t-169 -43.5t-168.5 43.5zM483 186.5q42 55.5 42 158.5t-42 158.5t-122 55.5t-121.5 -55t-41.5 -159t41.5 -159t121.5 -55t122 55.5z
M544 910h-94l-92 144h146zM313 766h-112l114 144h91l114 -144h-112l-47 55z" />
    <glyph glyph-name="uni1ED4" unicode="&#x1ed4;" horiz-adv-x="723" 
d="M192.5 29.5q-73.5 43.5 -114.5 124.5t-41 191t41 191t114.5 124.5t168.5 43.5t169 -43.5t115 -124.5t41 -191t-41 -191t-115 -124.5t-169 -43.5t-168.5 43.5zM483 186.5q42 55.5 42 158.5t-42 158.5t-122 55.5t-121.5 -55t-41.5 -159t41.5 -159t121.5 -55t122 55.5z
M438 917q10 17 10 31q0 10 -7.5 17t-19.5 7q-18 0 -36 -9l-33 71q15 10 38 17t47 7q57 0 85.5 -24t28.5 -68q0 -27 -13.5 -48t-40.5 -44zM313 766h-112l114 144h91l114 -144h-112l-47 55z" />
    <glyph glyph-name="uni1ED6" unicode="&#x1ed6;" horiz-adv-x="723" 
d="M192.5 29.5q-73.5 43.5 -114.5 124.5t-41 191t41 191t114.5 124.5t168.5 43.5t169 -43.5t115 -124.5t41 -191t-41 -191t-115 -124.5t-169 -43.5t-168.5 43.5zM483 186.5q42 55.5 42 158.5t-42 158.5t-122 55.5t-121.5 -55t-41.5 -159t41.5 -159t121.5 -55t122 55.5z
M188 984q16 36 45 57t70 21q24 0 39.5 -4t35.5 -13q28 -13 48 -13q21 0 34.5 6.5t28.5 26.5l44 -67q-19 -34 -42 -49t-59 -15q-23 0 -39.5 5t-38.5 14q-30 13 -48 13q-20 0 -34.5 -7t-28.5 -26zM313 766h-112l114 144h91l114 -144h-112l-47 55z" />
    <glyph glyph-name="Odieresis" unicode="&#xd6;" horiz-adv-x="723" 
d="M192.5 29.5q-73.5 43.5 -114.5 124.5t-41 191t41 191t114.5 124.5t168.5 43.5t169 -43.5t115 -124.5t41 -191t-41 -191t-115 -124.5t-169 -43.5t-168.5 43.5zM483 186.5q42 55.5 42 158.5t-42 158.5t-122 55.5t-121.5 -55t-41.5 -159t41.5 -159t121.5 -55t122 55.5z
M211.5 795.5q-19.5 19.5 -19.5 54.5t19.5 55t55.5 20q35 0 54.5 -20t19.5 -55t-19.5 -54.5t-54.5 -19.5q-36 0 -55.5 19.5zM400 795.5q-20 19.5 -20 54.5t20 55t55 20t55 -20t20 -55t-20 -54.5t-55 -19.5t-55 19.5z" />
    <glyph glyph-name="uni1ECC" unicode="&#x1ecc;" horiz-adv-x="723" 
d="M192.5 29.5q-73.5 43.5 -114.5 124.5t-41 191t41 191t114.5 124.5t168.5 43.5t169 -43.5t115 -124.5t41 -191t-41 -191t-115 -124.5t-169 -43.5t-168.5 43.5zM483 186.5q42 55.5 42 158.5t-42 158.5t-122 55.5t-121.5 -55t-41.5 -159t41.5 -159t121.5 -55t122 55.5z
M303 -175q-21 21 -21 58q0 36 21 57t58 21q36 0 57 -21t21 -57q0 -37 -21 -58t-57 -21q-37 0 -58 21z" />
    <glyph glyph-name="Ograve" unicode="&#xd2;" horiz-adv-x="723" 
d="M192.5 29.5q-73.5 43.5 -114.5 124.5t-41 191t41 191t114.5 124.5t168.5 43.5t169 -43.5t115 -124.5t41 -191t-41 -191t-115 -124.5t-169 -43.5t-168.5 43.5zM483 186.5q42 55.5 42 158.5t-42 158.5t-122 55.5t-121.5 -55t-41.5 -159t41.5 -159t121.5 -55t122 55.5z
M420 766h-118l-111 144h168z" />
    <glyph glyph-name="uni1ECE" unicode="&#x1ece;" horiz-adv-x="723" 
d="M192.5 29.5q-73.5 43.5 -114.5 124.5t-41 191t41 191t114.5 124.5t168.5 43.5t169 -43.5t115 -124.5t41 -191t-41 -191t-115 -124.5t-169 -43.5t-168.5 43.5zM483 186.5q42 55.5 42 158.5t-42 158.5t-122 55.5t-121.5 -55t-41.5 -159t41.5 -159t121.5 -55t122 55.5z
M347 785q10 17 10 32q0 10 -7.5 17t-19.5 7q-18 0 -35 -10l-34 72q41 24 85 24q57 0 85.5 -24t28.5 -69q0 -27 -13.5 -48t-40.5 -43z" />
    <glyph glyph-name="Ohorn" unicode="&#x1a0;" horiz-adv-x="723" 
d="M689 784q0 -139 -93 -177q43 -47 66.5 -113.5t23.5 -148.5q0 -110 -41 -191t-115 -124.5t-169 -43.5t-168.5 43.5t-114.5 124.5t-41 191t41 191t114.5 124.5t168.5 43.5h139q31 0 47 17t16 54v59h126v-50zM483 186.5q42 55.5 42 158.5t-42 158.5t-122 55.5t-121.5 -55
t-41.5 -159t41.5 -159t121.5 -55t122 55.5z" />
    <glyph glyph-name="uni1EDA" unicode="&#x1eda;" horiz-adv-x="723" 
d="M689 784q0 -139 -93 -177q43 -47 66.5 -113.5t23.5 -148.5q0 -110 -41 -191t-115 -124.5t-169 -43.5t-168.5 43.5t-114.5 124.5t-41 191t41 191t114.5 124.5t168.5 43.5h139q31 0 47 17t16 54v59h126v-50zM483 186.5q42 55.5 42 158.5t-42 158.5t-122 55.5t-121.5 -55
t-41.5 -159t41.5 -159t121.5 -55t122 55.5zM420 766h-118l60 144h169z" />
    <glyph glyph-name="uni1EE2" unicode="&#x1ee2;" horiz-adv-x="723" 
d="M689 784q0 -139 -93 -177q43 -47 66.5 -113.5t23.5 -148.5q0 -110 -41 -191t-115 -124.5t-169 -43.5t-168.5 43.5t-114.5 124.5t-41 191t41 191t114.5 124.5t168.5 43.5h139q31 0 47 17t16 54v59h126v-50zM483 186.5q42 55.5 42 158.5t-42 158.5t-122 55.5t-121.5 -55
t-41.5 -159t41.5 -159t121.5 -55t122 55.5zM303 -175q-21 21 -21 58q0 36 21 57t58 21q36 0 57 -21t21 -57q0 -37 -21 -58t-57 -21q-37 0 -58 21z" />
    <glyph glyph-name="uni1EDC" unicode="&#x1edc;" horiz-adv-x="723" 
d="M689 784q0 -139 -93 -177q43 -47 66.5 -113.5t23.5 -148.5q0 -110 -41 -191t-115 -124.5t-169 -43.5t-168.5 43.5t-114.5 124.5t-41 191t41 191t114.5 124.5t168.5 43.5h139q31 0 47 17t16 54v59h126v-50zM483 186.5q42 55.5 42 158.5t-42 158.5t-122 55.5t-121.5 -55
t-41.5 -159t41.5 -159t121.5 -55t122 55.5zM420 766h-118l-111 144h168z" />
    <glyph glyph-name="uni1EDE" unicode="&#x1ede;" horiz-adv-x="723" 
d="M689 784q0 -139 -93 -177q43 -47 66.5 -113.5t23.5 -148.5q0 -110 -41 -191t-115 -124.5t-169 -43.5t-168.5 43.5t-114.5 124.5t-41 191t41 191t114.5 124.5t168.5 43.5h139q31 0 47 17t16 54v59h126v-50zM483 186.5q42 55.5 42 158.5t-42 158.5t-122 55.5t-121.5 -55
t-41.5 -159t41.5 -159t121.5 -55t122 55.5zM347 785q10 17 10 32q0 10 -7.5 17t-19.5 7q-18 0 -35 -10l-34 72q41 24 85 24q57 0 85.5 -24t28.5 -69q0 -27 -13.5 -48t-40.5 -43z" />
    <glyph glyph-name="uni1EE0" unicode="&#x1ee0;" horiz-adv-x="723" 
d="M689 784q0 -139 -93 -177q43 -47 66.5 -113.5t23.5 -148.5q0 -110 -41 -191t-115 -124.5t-169 -43.5t-168.5 43.5t-114.5 124.5t-41 191t41 191t114.5 124.5t168.5 43.5h139q31 0 47 17t16 54v59h126v-50zM483 186.5q42 55.5 42 158.5t-42 158.5t-122 55.5t-121.5 -55
t-41.5 -159t41.5 -159t121.5 -55t122 55.5zM395 798q-17 5 -40 15q-16 8 -27 11.5t-22 3.5q-22 0 -35.5 -6.5t-28.5 -26.5l-54 51q38 78 114 78q23 0 38.5 -4t35.5 -13q28 -13 49 -13q22 0 33.5 5.5t30.5 27.5l43 -67q-18 -36 -38.5 -51.5t-59.5 -15.5q-22 0 -39 5z" />
    <glyph glyph-name="Ohungarumlaut" unicode="&#x150;" horiz-adv-x="723" 
d="M192.5 29.5q-73.5 43.5 -114.5 124.5t-41 191t41 191t114.5 124.5t168.5 43.5t169 -43.5t115 -124.5t41 -191t-41 -191t-115 -124.5t-169 -43.5t-168.5 43.5zM483 186.5q42 55.5 42 158.5t-42 158.5t-122 55.5t-121.5 -55t-41.5 -159t41.5 -159t121.5 -55t122 55.5z
M310 766h-105l42 144h143zM509 766h-105l42 144h144z" />
    <glyph glyph-name="Omacron" unicode="&#x14c;" horiz-adv-x="723" 
d="M192.5 29.5q-73.5 43.5 -114.5 124.5t-41 191t41 191t114.5 124.5t168.5 43.5t169 -43.5t115 -124.5t41 -191t-41 -191t-115 -124.5t-169 -43.5t-168.5 43.5zM483 186.5q42 55.5 42 158.5t-42 158.5t-122 55.5t-121.5 -55t-41.5 -159t41.5 -159t121.5 -55t122 55.5z
M494 801h-267v109h267v-109z" />
    <glyph glyph-name="Oslash" unicode="&#xd8;" horiz-adv-x="722" 
d="M550 648q65 -46 100.5 -123.5t35.5 -179.5q0 -110 -41 -191t-115 -124.5t-169 -43.5q-35 0 -68 6l-40 -102h-140l60 152q-65 46 -100.5 123.5t-35.5 179.5q0 110 41 191t114.5 124.5t168.5 43.5q36 0 69 -6l40 102h140zM233 195l142 364h-14q-80 0 -121.5 -55t-41.5 -159
q0 -95 35 -150zM483 186.5q42 55.5 42 158.5q0 94 -35 149l-142 -363h13q80 0 122 55.5z" />
    <glyph glyph-name="Otilde" unicode="&#xd5;" horiz-adv-x="723" 
d="M192.5 29.5q-73.5 43.5 -114.5 124.5t-41 191t41 191t114.5 124.5t168.5 43.5t169 -43.5t115 -124.5t41 -191t-41 -191t-115 -124.5t-169 -43.5t-168.5 43.5zM483 186.5q42 55.5 42 158.5t-42 158.5t-122 55.5t-121.5 -55t-41.5 -159t41.5 -159t121.5 -55t122 55.5z
M395 798q-17 5 -40 15q-16 8 -27 11.5t-22 3.5q-22 0 -35.5 -6.5t-28.5 -26.5l-54 51q38 78 114 78q23 0 38.5 -4t35.5 -13q28 -13 49 -13q22 0 33.5 5.5t30.5 27.5l43 -67q-18 -36 -38.5 -51.5t-59.5 -15.5q-22 0 -39 5z" />
    <glyph glyph-name="OE" unicode="&#x152;" horiz-adv-x="1057" 
d="M188 29.5q-71 43.5 -111 125t-40 190.5t40 190.5t111 125t160 43.5q58 0 101 -16t76 -52v54h481v-145h-320v-116h272v-145h-272v-139h327v-145h-488v54q-33 -36 -76 -52t-101 -16q-89 0 -160 43.5zM483 186.5q42 55.5 42 158.5t-42 158.5t-122 55.5t-121.5 -55
t-41.5 -159t41.5 -159t121.5 -55t122 55.5z" />
    <glyph glyph-name="P" unicode="P" horiz-adv-x="646" 
d="M65 0v690h321q105 0 166.5 -59t61.5 -167q0 -110 -62 -173.5t-166 -63.5h-160v-227h-161zM354 372q47 0 73 21.5t26 65.5t-26 65t-73 21h-128v-173h128z" />
    <glyph glyph-name="Thorn" unicode="&#xde;" horiz-adv-x="646" 
d="M65 0v690h161v-113h160q105 0 166.5 -59t61.5 -168q0 -110 -62 -173t-166 -63h-160v-114h-161zM354 259q47 0 73 21t26 65t-26 65.5t-73 21.5h-128v-173h128z" />
    <glyph glyph-name="Q" unicode="Q" horiz-adv-x="723" 
d="M229 11q-90 37 -141 124t-51 210q0 110 41 191t114.5 124.5t168.5 43.5t169 -43.5t115 -124.5t41 -191q0 -108 -40 -189.5t-112 -124.5l132 -31v-169zM483 186.5q42 55.5 42 158.5t-42 158.5t-122 55.5t-121.5 -55t-41.5 -159t41.5 -159t121.5 -55t122 55.5z" />
    <glyph glyph-name="R" unicode="R" horiz-adv-x="663" 
d="M65 0v690h320q112 0 171.5 -58.5t59.5 -157.5q0 -73 -32 -126.5t-89 -80.5q98 -125 142 -267h-178q-35 125 -121 243h-112v-243h-161zM355 387q47 0 73.5 19.5t26.5 59.5q0 79 -100 79h-129v-158h129z" />
    <glyph glyph-name="Racute" unicode="&#x154;" horiz-adv-x="663" 
d="M65 0v690h320q112 0 171.5 -58.5t59.5 -157.5q0 -73 -32 -126.5t-89 -80.5q98 -125 142 -267h-178q-35 125 -121 243h-112v-243h-161zM355 387q47 0 73.5 19.5t26.5 59.5q0 79 -100 79h-129v-158h129zM385 766h-118l60 144h169z" />
    <glyph glyph-name="Rcaron" unicode="&#x158;" horiz-adv-x="663" 
d="M65 0v690h320q112 0 171.5 -58.5t59.5 -157.5q0 -73 -32 -126.5t-89 -80.5q98 -125 142 -267h-178q-35 125 -121 243h-112v-243h-161zM355 387q47 0 73.5 19.5t26.5 59.5q0 79 -100 79h-129v-158h129zM371 766h-91l-114 144h112l48 -54l47 54h112z" />
    <glyph glyph-name="uni0156" unicode="&#x156;" horiz-adv-x="663" 
d="M65 0v690h320q112 0 171.5 -58.5t59.5 -157.5q0 -73 -32 -126.5t-89 -80.5q98 -125 142 -267h-178q-35 125 -121 243h-112v-243h-161zM355 387q47 0 73.5 19.5t26.5 59.5q0 79 -100 79h-129v-158h129zM258 -171q41 8 56 23q-23 0 -36.5 13t-13.5 35t17.5 36t45.5 14
q69 0 69 -65q0 -43 -28.5 -66.5t-73.5 -33.5z" />
    <glyph glyph-name="S" unicode="S" horiz-adv-x="592" 
d="M20 122l114 100q63 -97 161 -97q49 0 77 19t28 55q0 35 -32.5 54.5t-106.5 33.5q-92 17 -152 67t-60 139q0 64 32 111.5t89 73.5t132 26q92 0 152.5 -36t100.5 -96l-111 -90q-31 47 -65.5 68t-76.5 21q-47 0 -71.5 -17.5t-24.5 -47.5q0 -34 31 -51.5t101 -33.5
q72 -16 118.5 -38t74.5 -62.5t28 -107.5q0 -111 -71 -169t-190 -58q-193 0 -278 136z" />
    <glyph glyph-name="Sacute" unicode="&#x15a;" horiz-adv-x="592" 
d="M20 122l114 100q63 -97 161 -97q49 0 77 19t28 55q0 35 -32.5 54.5t-106.5 33.5q-92 17 -152 67t-60 139q0 64 32 111.5t89 73.5t132 26q92 0 152.5 -36t100.5 -96l-111 -90q-31 47 -65.5 68t-76.5 21q-47 0 -71.5 -17.5t-24.5 -47.5q0 -34 31 -51.5t101 -33.5
q72 -16 118.5 -38t74.5 -62.5t28 -107.5q0 -111 -71 -169t-190 -58q-193 0 -278 136zM355 766h-118l60 144h169z" />
    <glyph glyph-name="Scaron" unicode="&#x160;" horiz-adv-x="592" 
d="M20 122l114 100q63 -97 161 -97q49 0 77 19t28 55q0 35 -32.5 54.5t-106.5 33.5q-92 17 -152 67t-60 139q0 64 32 111.5t89 73.5t132 26q92 0 152.5 -36t100.5 -96l-111 -90q-31 47 -65.5 68t-76.5 21q-47 0 -71.5 -17.5t-24.5 -47.5q0 -34 31 -51.5t101 -33.5
q72 -16 118.5 -38t74.5 -62.5t28 -107.5q0 -111 -71 -169t-190 -58q-193 0 -278 136zM341 766h-91l-114 144h112l48 -54l47 54h112z" />
    <glyph glyph-name="Scedilla" unicode="&#x15e;" horiz-adv-x="592" 
d="M496 51.5q-63 -57.5 -170 -64.5l-25 -35q45 -1 71 -21t26 -57q0 -41 -28 -65t-88 -24q-50 0 -84 14l24 65q24 -7 53 -7q11 0 18 4.5t7 12.5q0 10 -6.5 14t-18.5 4q-6 0 -12.5 -1.5t-11.5 -4.5l-46 34l33 70q-146 17 -218 132l114 100q63 -97 161 -97q49 0 77 19t28 55
q0 35 -32.5 54.5t-106.5 33.5q-92 17 -152 67t-60 139q0 64 32 111.5t89 73.5t132 26q92 0 152.5 -36t100.5 -96l-111 -90q-31 47 -65.5 68t-76.5 21q-47 0 -71.5 -17.5t-24.5 -47.5q0 -34 31 -51.5t101 -33.5q72 -16 118.5 -38t74.5 -62.5t28 -107.5q0 -104 -63 -161.5z
" />
    <glyph glyph-name="Scircumflex" unicode="&#x15c;" horiz-adv-x="592" 
d="M20 122l114 100q63 -97 161 -97q49 0 77 19t28 55q0 35 -32.5 54.5t-106.5 33.5q-92 17 -152 67t-60 139q0 64 32 111.5t89 73.5t132 26q92 0 152.5 -36t100.5 -96l-111 -90q-31 47 -65.5 68t-76.5 21q-47 0 -71.5 -17.5t-24.5 -47.5q0 -34 31 -51.5t101 -33.5
q72 -16 118.5 -38t74.5 -62.5t28 -107.5q0 -111 -71 -169t-190 -58q-193 0 -278 136zM248 766h-112l114 144h91l114 -144h-112l-47 55z" />
    <glyph glyph-name="uni0218" unicode="&#x218;" horiz-adv-x="592" 
d="M20 122l114 100q63 -97 161 -97q49 0 77 19t28 55q0 35 -32.5 54.5t-106.5 33.5q-92 17 -152 67t-60 139q0 64 32 111.5t89 73.5t132 26q92 0 152.5 -36t100.5 -96l-111 -90q-31 47 -65.5 68t-76.5 21q-47 0 -71.5 -17.5t-24.5 -47.5q0 -34 31 -51.5t101 -33.5
q72 -16 118.5 -38t74.5 -62.5t28 -107.5q0 -111 -71 -169t-190 -58q-193 0 -278 136zM228 -171q41 8 56 23q-23 0 -36.5 13t-13.5 35t17.5 36t45.5 14q69 0 69 -65q0 -43 -28.5 -66.5t-73.5 -33.5z" />
    <glyph glyph-name="uni1E9E" unicode="&#x1e9e;" horiz-adv-x="657" 
d="M290 4v137q37 -20 75 -20q90 0 90 82q0 44 -27 65t-75 21h-62v125l104 131h-98q-31 0 -51 -20t-20 -55v-470h-161v477q0 102 61 157.5t174 55.5h274v-144l-119 -147q74 -15 116 -61.5t42 -144.5q0 -102 -64 -154.5t-161 -52.5q-54 0 -98 18z" />
    <glyph glyph-name="T" unicode="T" horiz-adv-x="621" 
d="M391 0h-161v545h-197v145h555v-145h-197v-545z" />
    <glyph glyph-name="Tbar" unicode="&#x166;" horiz-adv-x="621" 
d="M588 690v-145h-197v-152h128v-129h-128v-264h-161v264h-128v129h128v152h-197v145h555z" />
    <glyph glyph-name="Tcaron" unicode="&#x164;" horiz-adv-x="621" 
d="M391 0h-161v545h-197v145h555v-145h-197v-545zM356 766h-91l-114 144h112l48 -54l47 54h112z" />
    <glyph glyph-name="uni0162" unicode="&#x162;" horiz-adv-x="621" 
d="M391 0h-161v545h-197v145h555v-145h-197v-545zM316 -48q45 -1 71 -21t26 -57q0 -41 -28 -65t-88 -24q-50 0 -84 14l24 65q24 -7 53 -7q11 0 18 4.5t7 12.5q0 10 -6.5 14t-18.5 4q-6 0 -12.5 -1.5t-11.5 -4.5l-46 34l38 80h93z" />
    <glyph glyph-name="uni021A" unicode="&#x21a;" horiz-adv-x="621" 
d="M391 0h-161v545h-197v145h555v-145h-197v-545zM243 -171q41 8 56 23q-23 0 -36.5 13t-13.5 35t17.5 36t45.5 14q69 0 69 -65q0 -43 -28.5 -66.5t-73.5 -33.5z" />
    <glyph glyph-name="U" unicode="U" horiz-adv-x="712" 
d="M142.5 56.5q-77.5 70.5 -77.5 213.5v420h161v-417q0 -70 35 -106t95 -36t95 36t35 106v417h161v-420q0 -143 -77 -213.5t-214 -70.5q-136 0 -213.5 70.5z" />
    <glyph glyph-name="Uacute" unicode="&#xda;" horiz-adv-x="712" 
d="M142.5 56.5q-77.5 70.5 -77.5 213.5v420h161v-417q0 -70 35 -106t95 -36t95 36t35 106v417h161v-420q0 -143 -77 -213.5t-214 -70.5q-136 0 -213.5 70.5zM415 766h-118l60 144h169z" />
    <glyph glyph-name="Ubreve" unicode="&#x16c;" horiz-adv-x="712" 
d="M142.5 56.5q-77.5 70.5 -77.5 213.5v420h161v-417q0 -70 35 -106t95 -36t95 36t35 106v417h161v-420q0 -143 -77 -213.5t-214 -70.5q-136 0 -213.5 70.5zM251 804.5q-41 38.5 -41 105.5h100q0 -26 12 -41.5t34 -15.5t34.5 15.5t12.5 41.5h100q0 -67 -41.5 -105.5
t-105.5 -38.5t-105 38.5z" />
    <glyph glyph-name="Ucircumflex" unicode="&#xdb;" horiz-adv-x="712" 
d="M142.5 56.5q-77.5 70.5 -77.5 213.5v420h161v-417q0 -70 35 -106t95 -36t95 36t35 106v417h161v-420q0 -143 -77 -213.5t-214 -70.5q-136 0 -213.5 70.5zM308 766h-112l114 144h91l114 -144h-112l-47 55z" />
    <glyph glyph-name="Udieresis" unicode="&#xdc;" horiz-adv-x="712" 
d="M142.5 56.5q-77.5 70.5 -77.5 213.5v420h161v-417q0 -70 35 -106t95 -36t95 36t35 106v417h161v-420q0 -143 -77 -213.5t-214 -70.5q-136 0 -213.5 70.5zM206.5 795.5q-19.5 19.5 -19.5 54.5t19.5 55t55.5 20q35 0 54.5 -20t19.5 -55t-19.5 -54.5t-54.5 -19.5
q-36 0 -55.5 19.5zM395 795.5q-20 19.5 -20 54.5t20 55t55 20t55 -20t20 -55t-20 -54.5t-55 -19.5t-55 19.5z" />
    <glyph glyph-name="uni1EE4" unicode="&#x1ee4;" horiz-adv-x="712" 
d="M142.5 56.5q-77.5 70.5 -77.5 213.5v420h161v-417q0 -70 35 -106t95 -36t95 36t35 106v417h161v-420q0 -143 -77 -213.5t-214 -70.5q-136 0 -213.5 70.5zM298 -175q-21 21 -21 58q0 36 21 57t58 21q36 0 57 -21t21 -57q0 -37 -21 -58t-57 -21q-37 0 -58 21z" />
    <glyph glyph-name="Ugrave" unicode="&#xd9;" horiz-adv-x="712" 
d="M142.5 56.5q-77.5 70.5 -77.5 213.5v420h161v-417q0 -70 35 -106t95 -36t95 36t35 106v417h161v-420q0 -143 -77 -213.5t-214 -70.5q-136 0 -213.5 70.5zM415 766h-118l-111 144h168z" />
    <glyph glyph-name="uni1EE6" unicode="&#x1ee6;" horiz-adv-x="712" 
d="M142.5 56.5q-77.5 70.5 -77.5 213.5v420h161v-417q0 -70 35 -106t95 -36t95 36t35 106v417h161v-420q0 -143 -77 -213.5t-214 -70.5q-136 0 -213.5 70.5zM342 785q10 17 10 32q0 10 -7.5 17t-19.5 7q-18 0 -35 -10l-34 72q41 24 85 24q57 0 85.5 -24t28.5 -69
q0 -27 -13.5 -48t-40.5 -43z" />
    <glyph glyph-name="Uhorn" unicode="&#x1af;" horiz-adv-x="712" 
d="M670 820h126v-50q0 -176 -149 -191v-309q0 -143 -77 -213.5t-214 -70.5q-136 0 -213.5 70.5t-77.5 213.5v420h161v-417q0 -70 35 -106t95 -36t95 36t35 106v417h121q31 0 47 17t16 54v59z" />
    <glyph glyph-name="uni1EE8" unicode="&#x1ee8;" horiz-adv-x="712" 
d="M670 820h126v-50q0 -176 -149 -191v-309q0 -143 -77 -213.5t-214 -70.5q-136 0 -213.5 70.5t-77.5 213.5v420h161v-417q0 -70 35 -106t95 -36t95 36t35 106v417h121q31 0 47 17t16 54v59zM415 766h-118l60 144h169z" />
    <glyph glyph-name="uni1EF0" unicode="&#x1ef0;" horiz-adv-x="712" 
d="M670 820h126v-50q0 -176 -149 -191v-309q0 -143 -77 -213.5t-214 -70.5q-136 0 -213.5 70.5t-77.5 213.5v420h161v-417q0 -70 35 -106t95 -36t95 36t35 106v417h121q31 0 47 17t16 54v59zM298 -175q-21 21 -21 58q0 36 21 57t58 21q36 0 57 -21t21 -57q0 -37 -21 -58
t-57 -21q-37 0 -58 21z" />
    <glyph glyph-name="uni1EEA" unicode="&#x1eea;" horiz-adv-x="712" 
d="M670 820h126v-50q0 -176 -149 -191v-309q0 -143 -77 -213.5t-214 -70.5q-136 0 -213.5 70.5t-77.5 213.5v420h161v-417q0 -70 35 -106t95 -36t95 36t35 106v417h121q31 0 47 17t16 54v59zM415 766h-118l-111 144h168z" />
    <glyph glyph-name="uni1EEC" unicode="&#x1eec;" horiz-adv-x="712" 
d="M670 820h126v-50q0 -176 -149 -191v-309q0 -143 -77 -213.5t-214 -70.5q-136 0 -213.5 70.5t-77.5 213.5v420h161v-417q0 -70 35 -106t95 -36t95 36t35 106v417h121q31 0 47 17t16 54v59zM342 785q10 17 10 32q0 10 -7.5 17t-19.5 7q-18 0 -35 -10l-34 72q41 24 85 24
q57 0 85.5 -24t28.5 -69q0 -27 -13.5 -48t-40.5 -43z" />
    <glyph glyph-name="uni1EEE" unicode="&#x1eee;" horiz-adv-x="712" 
d="M670 820h126v-50q0 -176 -149 -191v-309q0 -143 -77 -213.5t-214 -70.5q-136 0 -213.5 70.5t-77.5 213.5v420h161v-417q0 -70 35 -106t95 -36t95 36t35 106v417h121q31 0 47 17t16 54v59zM390 798q-17 5 -40 15q-16 8 -27 11.5t-22 3.5q-22 0 -35.5 -6.5t-28.5 -26.5
l-54 51q38 78 114 78q23 0 38.5 -4t35.5 -13q28 -13 49 -13q22 0 33.5 5.5t30.5 27.5l43 -67q-18 -36 -38.5 -51.5t-59.5 -15.5q-22 0 -39 5z" />
    <glyph glyph-name="Uhungarumlaut" unicode="&#x170;" horiz-adv-x="712" 
d="M142.5 56.5q-77.5 70.5 -77.5 213.5v420h161v-417q0 -70 35 -106t95 -36t95 36t35 106v417h161v-420q0 -143 -77 -213.5t-214 -70.5q-136 0 -213.5 70.5zM305 766h-105l42 144h143zM504 766h-105l42 144h144z" />
    <glyph glyph-name="Umacron" unicode="&#x16a;" horiz-adv-x="712" 
d="M142.5 56.5q-77.5 70.5 -77.5 213.5v420h161v-417q0 -70 35 -106t95 -36t95 36t35 106v417h161v-420q0 -143 -77 -213.5t-214 -70.5q-136 0 -213.5 70.5zM489 801h-267v109h267v-109z" />
    <glyph glyph-name="Uogonek" unicode="&#x172;" horiz-adv-x="712" 
d="M486 690h161v-420q0 -113 -49 -181t-139 -91q-48 -33 -48 -74q0 -13 7.5 -21t17.5 -8q11 0 23 6l12 -85q-19 -12 -59 -12q-45 0 -72.5 26t-27.5 68q0 53 30 88q-130 4 -203.5 74.5t-73.5 209.5v420h161v-417q0 -70 35 -106t95 -36t95 36t35 106v417z" />
    <glyph glyph-name="Uring" unicode="&#x16e;" horiz-adv-x="712" 
d="M142.5 56.5q-77.5 70.5 -77.5 213.5v420h161v-417q0 -70 35 -106t95 -36t95 36t35 106v417h161v-420q0 -143 -77 -213.5t-214 -70.5q-136 0 -213.5 70.5zM285 779q-29 27 -29 71t29 71t71 27t71 -27t29 -71t-29 -71t-71 -27t-71 27zM380.5 823q8.5 10 8.5 27t-8.5 27
t-24.5 10q-15 0 -23.5 -10t-8.5 -27t8.5 -27t23.5 -10q16 0 24.5 10z" />
    <glyph glyph-name="Utilde" unicode="&#x168;" horiz-adv-x="712" 
d="M142.5 56.5q-77.5 70.5 -77.5 213.5v420h161v-417q0 -70 35 -106t95 -36t95 36t35 106v417h161v-420q0 -143 -77 -213.5t-214 -70.5q-136 0 -213.5 70.5zM390 798q-17 5 -40 15q-16 8 -27 11.5t-22 3.5q-22 0 -35.5 -6.5t-28.5 -26.5l-54 51q38 78 114 78q23 0 38.5 -4
t35.5 -13q28 -13 49 -13q22 0 33.5 5.5t30.5 27.5l43 -67q-18 -36 -38.5 -51.5t-59.5 -15.5q-22 0 -39 5z" />
    <glyph glyph-name="V" unicode="V" horiz-adv-x="688" 
d="M429 0h-170l-244 690h179l150 -466l151 466h178z" />
    <glyph glyph-name="W" unicode="W" horiz-adv-x="883" 
d="M327 0h-165l-147 690h168l76 -435l97 335h181l97 -335l76 435h158l-146 -690h-165l-115 400z" />
    <glyph glyph-name="Wacute" unicode="&#x1e82;" horiz-adv-x="883" 
d="M327 0h-165l-147 690h168l76 -435l97 335h181l97 -335l76 435h158l-146 -690h-165l-115 400zM501 766h-118l60 144h169z" />
    <glyph glyph-name="Wcircumflex" unicode="&#x174;" horiz-adv-x="883" 
d="M327 0h-165l-147 690h168l76 -435l97 335h181l97 -335l76 435h158l-146 -690h-165l-115 400zM394 766h-112l114 144h91l114 -144h-112l-47 55z" />
    <glyph glyph-name="Wdieresis" unicode="&#x1e84;" horiz-adv-x="883" 
d="M327 0h-165l-147 690h168l76 -435l97 335h181l97 -335l76 435h158l-146 -690h-165l-115 400zM292.5 795.5q-19.5 19.5 -19.5 54.5t19.5 55t55.5 20q35 0 54.5 -20t19.5 -55t-19.5 -54.5t-54.5 -19.5q-36 0 -55.5 19.5zM481 795.5q-20 19.5 -20 54.5t20 55t55 20t55 -20
t20 -55t-20 -54.5t-55 -19.5t-55 19.5z" />
    <glyph glyph-name="Wgrave" unicode="&#x1e80;" horiz-adv-x="883" 
d="M327 0h-165l-147 690h168l76 -435l97 335h181l97 -335l76 435h158l-146 -690h-165l-115 400zM501 766h-118l-111 144h168z" />
    <glyph glyph-name="X" unicode="X" horiz-adv-x="673" 
d="M202 0h-194l230 357l-206 333h189l116 -207l116 207h189l-207 -333l230 -357h-193l-135 229z" />
    <glyph glyph-name="Y" unicode="Y" horiz-adv-x="651" 
d="M406 0h-161v280l-234 410h181l134 -251l134 251h180l-234 -410v-280z" />
    <glyph glyph-name="Yacute" unicode="&#xdd;" horiz-adv-x="651" 
d="M406 0h-161v280l-234 410h181l134 -251l134 251h180l-234 -410v-280zM385 766h-118l60 144h169z" />
    <glyph glyph-name="Ycircumflex" unicode="&#x176;" horiz-adv-x="651" 
d="M406 0h-161v280l-234 410h181l134 -251l134 251h180l-234 -410v-280zM278 766h-112l114 144h91l114 -144h-112l-47 55z" />
    <glyph glyph-name="Ydieresis" unicode="&#x178;" horiz-adv-x="651" 
d="M406 0h-161v280l-234 410h181l134 -251l134 251h180l-234 -410v-280zM176.5 795.5q-19.5 19.5 -19.5 54.5t19.5 55t55.5 20q35 0 54.5 -20t19.5 -55t-19.5 -54.5t-54.5 -19.5q-36 0 -55.5 19.5zM365 795.5q-20 19.5 -20 54.5t20 55t55 20t55 -20t20 -55t-20 -54.5
t-55 -19.5t-55 19.5z" />
    <glyph glyph-name="uni1EF4" unicode="&#x1ef4;" horiz-adv-x="651" 
d="M406 0h-161v280l-234 410h181l134 -251l134 251h180l-234 -410v-280zM268 -175q-21 21 -21 58q0 36 21 57t58 21q36 0 57 -21t21 -57q0 -37 -21 -58t-57 -21q-37 0 -58 21z" />
    <glyph glyph-name="Ygrave" unicode="&#x1ef2;" horiz-adv-x="651" 
d="M406 0h-161v280l-234 410h181l134 -251l134 251h180l-234 -410v-280zM385 766h-118l-111 144h168z" />
    <glyph glyph-name="uni1EF6" unicode="&#x1ef6;" horiz-adv-x="651" 
d="M406 0h-161v280l-234 410h181l134 -251l134 251h180l-234 -410v-280zM312 785q10 17 10 32q0 10 -7.5 17t-19.5 7q-18 0 -35 -10l-34 72q41 24 85 24q57 0 85.5 -24t28.5 -69q0 -27 -13.5 -48t-40.5 -43z" />
    <glyph glyph-name="uni1EF8" unicode="&#x1ef8;" horiz-adv-x="651" 
d="M406 0h-161v280l-234 410h181l134 -251l134 251h180l-234 -410v-280zM360 798q-17 5 -40 15q-16 8 -27 11.5t-22 3.5q-22 0 -35.5 -6.5t-28.5 -26.5l-54 51q38 78 114 78q23 0 38.5 -4t35.5 -13q28 -13 49 -13q22 0 33.5 5.5t30.5 27.5l43 -67q-18 -36 -38.5 -51.5
t-59.5 -15.5q-22 0 -39 5z" />
    <glyph glyph-name="Z" unicode="Z" horiz-adv-x="596" 
d="M552 0h-508v136l304 409h-293v145h485v-136l-303 -409h315v-145z" />
    <glyph glyph-name="Zacute" unicode="&#x179;" horiz-adv-x="596" 
d="M552 0h-508v136l304 409h-293v145h485v-136l-303 -409h315v-145zM357 766h-118l60 144h169z" />
    <glyph glyph-name="Zcaron" unicode="&#x17d;" horiz-adv-x="596" 
d="M552 0h-508v136l304 409h-293v145h485v-136l-303 -409h315v-145zM343 766h-91l-114 144h112l48 -54l47 54h112z" />
    <glyph glyph-name="Zdotaccent" unicode="&#x17b;" horiz-adv-x="596" 
d="M552 0h-508v136l304 409h-293v145h485v-136l-303 -409h315v-145zM232 781q-24 24 -24 65t24 65.5t66 24.5t65.5 -24t23.5 -66q0 -41 -23.5 -65t-65.5 -24t-66 24z" />
    <glyph glyph-name="uni01B5" unicode="&#x1b5;" horiz-adv-x="596" 
d="M338 281l-101 -136h315v-145h-508v136l108 145h-63v129h159l100 135h-293v145h485v-136l-107 -144h73v-129h-168z" />
    <glyph glyph-name="glyph177" horiz-adv-x="674" 
d="M462 690h196l-262 -286l251 -404h-189l-174 282l-58 -63v-219h-161v690h161v-251z" />
    <glyph glyph-name="glyph178" horiz-adv-x="674" 
d="M462 690h196l-262 -286l251 -404h-189l-174 282l-58 -63v-219h-161v690h161v-251zM260 -171q41 8 56 23q-23 0 -36.5 13t-13.5 35t17.5 36t45.5 14q69 0 69 -65q0 -43 -28.5 -66.5t-73.5 -33.5z" />
    <glyph glyph-name="glyph179" horiz-adv-x="663" 
d="M637 0h-178l-146 243h-87v-243h-161v690h320q112 0 171.5 -58.5t59.5 -157.5q0 -76 -34.5 -131t-95.5 -80zM226 545v-158h129q47 0 73.5 19.5t26.5 59.5q0 79 -100 79h-129z" />
    <glyph glyph-name="glyph180" horiz-adv-x="663" 
d="M637 0h-178l-146 243h-87v-243h-161v690h320q112 0 171.5 -58.5t59.5 -157.5q0 -76 -34.5 -131t-95.5 -80zM226 545v-158h129q47 0 73.5 19.5t26.5 59.5q0 79 -100 79h-129zM385 766h-118l60 144h169z" />
    <glyph glyph-name="glyph181" horiz-adv-x="663" 
d="M637 0h-178l-146 243h-87v-243h-161v690h320q112 0 171.5 -58.5t59.5 -157.5q0 -76 -34.5 -131t-95.5 -80zM226 545v-158h129q47 0 73.5 19.5t26.5 59.5q0 79 -100 79h-129zM371 766h-91l-114 144h112l48 -54l47 54h112z" />
    <glyph glyph-name="glyph182" horiz-adv-x="663" 
d="M637 0h-178l-146 243h-87v-243h-161v690h320q112 0 171.5 -58.5t59.5 -157.5q0 -76 -34.5 -131t-95.5 -80zM226 545v-158h129q47 0 73.5 19.5t26.5 59.5q0 79 -100 79h-129zM258 -171q41 8 56 23q-23 0 -36.5 13t-13.5 35t17.5 36t45.5 14q69 0 69 -65q0 -43 -28.5 -66.5
t-73.5 -33.5z" />
    <glyph glyph-name="glyph183" horiz-adv-x="897" 
d="M201 0h-165l77 690h234l105 -489l106 489h226l77 -690h-164l-52 491l-113 -491h-166l-113 491z" />
    <glyph glyph-name="glyph184" horiz-adv-x="883" 
d="M327 0h-165l-147 690h168l76 -435l97 435h181l97 -435l76 435h158l-146 -690h-165l-115 500z" />
    <glyph glyph-name="glyph185" horiz-adv-x="883" 
d="M327 0h-165l-147 690h168l76 -435l97 435h181l97 -435l76 435h158l-146 -690h-165l-115 500zM501 766h-118l60 144h169z" />
    <glyph glyph-name="glyph186" horiz-adv-x="883" 
d="M327 0h-165l-147 690h168l76 -435l97 435h181l97 -435l76 435h158l-146 -690h-165l-115 500zM394 766h-112l114 144h91l114 -144h-112l-47 55z" />
    <glyph glyph-name="glyph187" horiz-adv-x="883" 
d="M327 0h-165l-147 690h168l76 -435l97 435h181l97 -435l76 435h158l-146 -690h-165l-115 500zM292.5 795.5q-19.5 19.5 -19.5 54.5t19.5 55t55.5 20q35 0 54.5 -20t19.5 -55t-19.5 -54.5t-54.5 -19.5q-36 0 -55.5 19.5zM481 795.5q-20 19.5 -20 54.5t20 55t55 20t55 -20
t20 -55t-20 -54.5t-55 -19.5t-55 19.5z" />
    <glyph glyph-name="glyph188" horiz-adv-x="883" 
d="M327 0h-165l-147 690h168l76 -435l97 435h181l97 -435l76 435h158l-146 -690h-165l-115 500zM501 766h-118l-111 144h168z" />
    <glyph glyph-name="a" unicode="a" horiz-adv-x="532" 
d="M87 25q-39 39 -39 105q0 79 72 118t200 40q-1 33 -22 53t-58 20q-67 0 -116 -44l-71 89q75 78 200 78q219 0 219 -198v-286h-143l-9 47q-27 -31 -56 -46t-73 -15q-65 0 -104 39zM320 140v56q-62 -4 -93.5 -19t-31.5 -39q0 -17 11 -26.5t30 -9.5q46 0 84 38z" />
    <glyph glyph-name="aacute" unicode="&#xe1;" horiz-adv-x="532" 
d="M87 25q-39 39 -39 105q0 79 72 118t200 40q-1 33 -22 53t-58 20q-67 0 -116 -44l-71 89q75 78 200 78q219 0 219 -198v-286h-143l-9 47q-27 -31 -56 -46t-73 -15q-65 0 -104 39zM320 140v56q-62 -4 -93.5 -19t-31.5 -39q0 -17 11 -26.5t30 -9.5q46 0 84 38zM326 546h-118
l60 144h169z" />
    <glyph glyph-name="abreve" unicode="&#x103;" horiz-adv-x="532" 
d="M87 25q-39 39 -39 105q0 79 72 118t200 40q-1 33 -22 53t-58 20q-67 0 -116 -44l-71 89q75 78 200 78q219 0 219 -198v-286h-143l-9 47q-27 -31 -56 -46t-73 -15q-65 0 -104 39zM320 140v56q-62 -4 -93.5 -19t-31.5 -39q0 -17 11 -26.5t30 -9.5q46 0 84 38zM162 584.5
q-41 38.5 -41 105.5h100q0 -26 12 -41.5t34 -15.5t34.5 15.5t12.5 41.5h100q0 -67 -41.5 -105.5t-105.5 -38.5t-105 38.5z" />
    <glyph glyph-name="uni1EAF" unicode="&#x1eaf;" horiz-adv-x="532" 
d="M87 25q-39 39 -39 105q0 79 72 118t200 40q-1 33 -22 53t-58 20q-67 0 -116 -44l-71 89q75 78 200 78q219 0 219 -198v-286h-143l-9 47q-27 -31 -56 -46t-73 -15q-65 0 -104 39zM320 140v56q-62 -4 -93.5 -19t-31.5 -39q0 -17 11 -26.5t30 -9.5q46 0 84 38zM162 584.5
q-41 38.5 -41 105.5h100q0 -26 12 -41.5t34 -15.5t34.5 15.5t12.5 41.5h100q0 -67 -41.5 -105.5t-105.5 -38.5t-105 38.5zM327 723h-118l60 144h169z" />
    <glyph glyph-name="uni1EB7" unicode="&#x1eb7;" horiz-adv-x="532" 
d="M87 25q-39 39 -39 105q0 79 72 118t200 40q-1 33 -22 53t-58 20q-67 0 -116 -44l-71 89q75 78 200 78q219 0 219 -198v-286h-143l-9 47q-27 -31 -56 -46t-73 -15q-65 0 -104 39zM320 140v56q-62 -4 -93.5 -19t-31.5 -39q0 -17 11 -26.5t30 -9.5q46 0 84 38zM209 -175
q-21 21 -21 58q0 36 21 57t58 21q36 0 57 -21t21 -57q0 -37 -21 -58t-57 -21q-37 0 -58 21zM162 584.5q-41 38.5 -41 105.5h100q0 -26 12 -41.5t34 -15.5t34.5 15.5t12.5 41.5h100q0 -67 -41.5 -105.5t-105.5 -38.5t-105 38.5z" />
    <glyph glyph-name="uni1EB1" unicode="&#x1eb1;" horiz-adv-x="532" 
d="M87 25q-39 39 -39 105q0 79 72 118t200 40q-1 33 -22 53t-58 20q-67 0 -116 -44l-71 89q75 78 200 78q219 0 219 -198v-286h-143l-9 47q-27 -31 -56 -46t-73 -15q-65 0 -104 39zM320 140v56q-62 -4 -93.5 -19t-31.5 -39q0 -17 11 -26.5t30 -9.5q46 0 84 38zM162 584.5
q-41 38.5 -41 105.5h100q0 -26 12 -41.5t34 -15.5t34.5 15.5t12.5 41.5h100q0 -67 -41.5 -105.5t-105.5 -38.5t-105 38.5zM326 723h-118l-111 144h168z" />
    <glyph glyph-name="uni1EB3" unicode="&#x1eb3;" horiz-adv-x="532" 
d="M87 25q-39 39 -39 105q0 79 72 118t200 40q-1 33 -22 53t-58 20q-67 0 -116 -44l-71 89q75 78 200 78q219 0 219 -198v-286h-143l-9 47q-27 -31 -56 -46t-73 -15q-65 0 -104 39zM320 140v56q-62 -4 -93.5 -19t-31.5 -39q0 -17 11 -26.5t30 -9.5q46 0 84 38zM162 584.5
q-41 38.5 -41 105.5h100q0 -26 12 -41.5t34 -15.5t34.5 15.5t12.5 41.5h100q0 -67 -41.5 -105.5t-105.5 -38.5t-105 38.5zM254 739q10 17 10 32q0 10 -7.5 17t-19.5 7q-18 0 -35 -10l-34 72q41 24 85 24q57 0 85.5 -24t28.5 -69q0 -27 -13.5 -48t-40.5 -43z" />
    <glyph glyph-name="uni1EB5" unicode="&#x1eb5;" horiz-adv-x="532" 
d="M87 25q-39 39 -39 105q0 79 72 118t200 40q-1 33 -22 53t-58 20q-67 0 -116 -44l-71 89q75 78 200 78q219 0 219 -198v-286h-143l-9 47q-27 -31 -56 -46t-73 -15q-65 0 -104 39zM320 140v56q-62 -4 -93.5 -19t-31.5 -39q0 -17 11 -26.5t30 -9.5q46 0 84 38zM162 584.5
q-41 38.5 -41 105.5h100q0 -26 12 -41.5t34 -15.5t34.5 15.5t12.5 41.5h100q0 -67 -41.5 -105.5t-105.5 -38.5t-105 38.5zM301 738q-17 5 -40 15q-16 8 -27 11.5t-22 3.5q-22 0 -35.5 -6.5t-28.5 -26.5l-54 51q38 78 114 78q23 0 38.5 -4t35.5 -13q28 -13 49 -13
q22 0 33.5 5.5t30.5 27.5l43 -67q-18 -36 -38.5 -51.5t-59.5 -15.5q-22 0 -39 5z" />
    <glyph glyph-name="acircumflex" unicode="&#xe2;" horiz-adv-x="532" 
d="M87 25q-39 39 -39 105q0 79 72 118t200 40q-1 33 -22 53t-58 20q-67 0 -116 -44l-71 89q75 78 200 78q219 0 219 -198v-286h-143l-9 47q-27 -31 -56 -46t-73 -15q-65 0 -104 39zM320 140v56q-62 -4 -93.5 -19t-31.5 -39q0 -17 11 -26.5t30 -9.5q46 0 84 38zM219 546h-112
l114 144h91l114 -144h-112l-47 55z" />
    <glyph glyph-name="uni1EA5" unicode="&#x1ea5;" horiz-adv-x="532" 
d="M87 25q-39 39 -39 105q0 79 72 118t200 40q-1 33 -22 53t-58 20q-67 0 -116 -44l-71 89q75 78 200 78q219 0 219 -198v-286h-143l-9 47q-27 -31 -56 -46t-73 -15q-65 0 -104 39zM320 140v56q-62 -4 -93.5 -19t-31.5 -39q0 -17 11 -26.5t30 -9.5q46 0 84 38zM430 690h-94
l40 144h146zM219 546h-112l114 144h91l114 -144h-112l-47 55z" />
    <glyph glyph-name="uni1EAD" unicode="&#x1ead;" horiz-adv-x="532" 
d="M87 25q-39 39 -39 105q0 79 72 118t200 40q-1 33 -22 53t-58 20q-67 0 -116 -44l-71 89q75 78 200 78q219 0 219 -198v-286h-143l-9 47q-27 -31 -56 -46t-73 -15q-65 0 -104 39zM320 140v56q-62 -4 -93.5 -19t-31.5 -39q0 -17 11 -26.5t30 -9.5q46 0 84 38zM209 -175
q-21 21 -21 58q0 36 21 57t58 21q36 0 57 -21t21 -57q0 -37 -21 -58t-57 -21q-37 0 -58 21zM219 546h-112l114 144h91l114 -144h-112l-47 55z" />
    <glyph glyph-name="uni1EA7" unicode="&#x1ea7;" horiz-adv-x="532" 
d="M87 25q-39 39 -39 105q0 79 72 118t200 40q-1 33 -22 53t-58 20q-67 0 -116 -44l-71 89q75 78 200 78q219 0 219 -198v-286h-143l-9 47q-27 -31 -56 -46t-73 -15q-65 0 -104 39zM320 140v56q-62 -4 -93.5 -19t-31.5 -39q0 -17 11 -26.5t30 -9.5q46 0 84 38zM450 690h-94
l-92 144h146zM219 546h-112l114 144h91l114 -144h-112l-47 55z" />
    <glyph glyph-name="uni1EA9" unicode="&#x1ea9;" horiz-adv-x="532" 
d="M87 25q-39 39 -39 105q0 79 72 118t200 40q-1 33 -22 53t-58 20q-67 0 -116 -44l-71 89q75 78 200 78q219 0 219 -198v-286h-143l-9 47q-27 -31 -56 -46t-73 -15q-65 0 -104 39zM320 140v56q-62 -4 -93.5 -19t-31.5 -39q0 -17 11 -26.5t30 -9.5q46 0 84 38zM344 697
q10 17 10 31q0 10 -7.5 17t-19.5 7q-18 0 -36 -9l-33 71q15 10 38 17t47 7q57 0 85.5 -24t28.5 -68q0 -27 -13.5 -48t-40.5 -44zM219 546h-112l114 144h91l114 -144h-112l-47 55z" />
    <glyph glyph-name="uni1EAB" unicode="&#x1eab;" horiz-adv-x="532" 
d="M87 25q-39 39 -39 105q0 79 72 118t200 40q-1 33 -22 53t-58 20q-67 0 -116 -44l-71 89q75 78 200 78q219 0 219 -198v-286h-143l-9 47q-27 -31 -56 -46t-73 -15q-65 0 -104 39zM320 140v56q-62 -4 -93.5 -19t-31.5 -39q0 -17 11 -26.5t30 -9.5q46 0 84 38zM94 764
q16 36 45 57t70 21q24 0 39.5 -4t35.5 -13q28 -13 48 -13q21 0 34.5 6.5t28.5 26.5l44 -67q-19 -34 -42 -49t-59 -15q-23 0 -39.5 5t-38.5 14q-30 13 -48 13q-20 0 -34.5 -7t-28.5 -26zM219 546h-112l114 144h91l114 -144h-112l-47 55z" />
    <glyph glyph-name="adieresis" unicode="&#xe4;" horiz-adv-x="532" 
d="M87 25q-39 39 -39 105q0 79 72 118t200 40q-1 33 -22 53t-58 20q-67 0 -116 -44l-71 89q75 78 200 78q219 0 219 -198v-286h-143l-9 47q-27 -31 -56 -46t-73 -15q-65 0 -104 39zM320 140v56q-62 -4 -93.5 -19t-31.5 -39q0 -17 11 -26.5t30 -9.5q46 0 84 38zM117.5 575.5
q-19.5 19.5 -19.5 54.5t19.5 55t55.5 20q35 0 54.5 -20t19.5 -55t-19.5 -54.5t-54.5 -19.5q-36 0 -55.5 19.5zM306 575.5q-20 19.5 -20 54.5t20 55t55 20t55 -20t20 -55t-20 -54.5t-55 -19.5t-55 19.5z" />
    <glyph glyph-name="uni1EA1" unicode="&#x1ea1;" horiz-adv-x="532" 
d="M87 25q-39 39 -39 105q0 79 72 118t200 40q-1 33 -22 53t-58 20q-67 0 -116 -44l-71 89q75 78 200 78q219 0 219 -198v-286h-143l-9 47q-27 -31 -56 -46t-73 -15q-65 0 -104 39zM320 140v56q-62 -4 -93.5 -19t-31.5 -39q0 -17 11 -26.5t30 -9.5q46 0 84 38zM209 -175
q-21 21 -21 58q0 36 21 57t58 21q36 0 57 -21t21 -57q0 -37 -21 -58t-57 -21q-37 0 -58 21z" />
    <glyph glyph-name="agrave" unicode="&#xe0;" horiz-adv-x="532" 
d="M87 25q-39 39 -39 105q0 79 72 118t200 40q-1 33 -22 53t-58 20q-67 0 -116 -44l-71 89q75 78 200 78q219 0 219 -198v-286h-143l-9 47q-27 -31 -56 -46t-73 -15q-65 0 -104 39zM320 140v56q-62 -4 -93.5 -19t-31.5 -39q0 -17 11 -26.5t30 -9.5q46 0 84 38zM326 546h-118
l-111 144h168z" />
    <glyph glyph-name="uni1EA3" unicode="&#x1ea3;" horiz-adv-x="532" 
d="M87 25q-39 39 -39 105q0 79 72 118t200 40q-1 33 -22 53t-58 20q-67 0 -116 -44l-71 89q75 78 200 78q219 0 219 -198v-286h-143l-9 47q-27 -31 -56 -46t-73 -15q-65 0 -104 39zM320 140v56q-62 -4 -93.5 -19t-31.5 -39q0 -17 11 -26.5t30 -9.5q46 0 84 38zM253 565
q10 17 10 32q0 10 -7.5 17t-19.5 7q-18 0 -35 -10l-34 72q41 24 85 24q57 0 85.5 -24t28.5 -69q0 -27 -13.5 -48t-40.5 -43z" />
    <glyph glyph-name="amacron" unicode="&#x101;" horiz-adv-x="532" 
d="M87 25q-39 39 -39 105q0 79 72 118t200 40q-1 33 -22 53t-58 20q-67 0 -116 -44l-71 89q75 78 200 78q219 0 219 -198v-286h-143l-9 47q-27 -31 -56 -46t-73 -15q-65 0 -104 39zM320 140v56q-62 -4 -93.5 -19t-31.5 -39q0 -17 11 -26.5t30 -9.5q46 0 84 38zM400 581h-267
v109h267v-109z" />
    <glyph glyph-name="aogonek" unicode="&#x105;" horiz-adv-x="532" 
d="M483 -184q-20 -12 -59 -12q-45 0 -72.5 26t-27.5 68q0 35 11 59.5t33 42.5h-39l-9 47q-27 -31 -56 -46t-73 -15q-65 0 -104 39t-39 105q0 79 72 118t200 40q-1 33 -22 53t-58 20q-67 0 -116 -44l-71 89q75 78 200 78q219 0 219 -198v-286h2q-51 -35 -51 -76
q0 -13 7.5 -21t17.5 -8q11 0 23 6zM320 196q-62 -4 -93.5 -19t-31.5 -39q0 -17 11 -26.5t30 -9.5q46 0 84 38v56z" />
    <glyph glyph-name="aring" unicode="&#xe5;" horiz-adv-x="532" 
d="M87 25q-39 39 -39 105q0 79 72 118t200 40q-1 33 -22 53t-58 20q-67 0 -116 -44l-71 89q75 78 200 78q219 0 219 -198v-286h-143l-9 47q-27 -31 -56 -46t-73 -15q-65 0 -104 39zM320 140v56q-62 -4 -93.5 -19t-31.5 -39q0 -17 11 -26.5t30 -9.5q46 0 84 38zM196 559
q-29 27 -29 71t29 71t71 27t71 -27t29 -71t-29 -71t-71 -27t-71 27zM291.5 603q8.5 10 8.5 27t-8.5 27t-24.5 10q-15 0 -23.5 -10t-8.5 -27t8.5 -27t23.5 -10q16 0 24.5 10z" />
    <glyph glyph-name="atilde" unicode="&#xe3;" horiz-adv-x="532" 
d="M87 25q-39 39 -39 105q0 79 72 118t200 40q-1 33 -22 53t-58 20q-67 0 -116 -44l-71 89q75 78 200 78q219 0 219 -198v-286h-143l-9 47q-27 -31 -56 -46t-73 -15q-65 0 -104 39zM320 140v56q-62 -4 -93.5 -19t-31.5 -39q0 -17 11 -26.5t30 -9.5q46 0 84 38zM301 578
q-17 5 -40 15q-16 8 -27 11.5t-22 3.5q-22 0 -35.5 -6.5t-28.5 -26.5l-54 51q38 78 114 78q23 0 38.5 -4t35.5 -13q28 -13 49 -13q22 0 33.5 5.5t30.5 27.5l43 -67q-18 -36 -38.5 -51.5t-59.5 -15.5q-22 0 -39 5z" />
    <glyph glyph-name="ae" unicode="&#xe6;" horiz-adv-x="828" 
d="M87.5 25q-39.5 39 -39.5 105q0 79 72 118t200 40v2q-2 32 -22.5 51.5t-57.5 19.5q-67 0 -116 -44l-71 89q75 78 200 78q112 0 163 -57q29 28 68.5 42.5t82.5 14.5q117 0 172 -67t55 -173q0 -26 -3 -52h-314q11 -41 39.5 -63.5t72.5 -22.5q33 0 58.5 11.5t50.5 32.5
l73 -101q-76 -63 -188 -63q-63 0 -114 22t-83 66q-28 -39 -71.5 -63.5t-120.5 -24.5q-67 0 -106.5 39zM660 294q-5 35 -27 55t-64 20q-36 0 -59 -20t-32 -55h182zM283.5 112.5q19.5 10.5 36.5 27.5v53q-62 -3 -93.5 -17.5t-31.5 -37.5q0 -17 11.5 -26.5t30.5 -9.5
q27 0 46.5 10.5z" />
    <glyph glyph-name="aeacute" unicode="&#x1fd;" horiz-adv-x="828" 
d="M87.5 25q-39.5 39 -39.5 105q0 79 72 118t200 40v2q-2 32 -22.5 51.5t-57.5 19.5q-67 0 -116 -44l-71 89q75 78 200 78q112 0 163 -57q29 28 68.5 42.5t82.5 14.5q117 0 172 -67t55 -173q0 -26 -3 -52h-314q11 -41 39.5 -63.5t72.5 -22.5q33 0 58.5 11.5t50.5 32.5
l73 -101q-76 -63 -188 -63q-63 0 -114 22t-83 66q-28 -39 -71.5 -63.5t-120.5 -24.5q-67 0 -106.5 39zM660 294q-5 35 -27 55t-64 20q-36 0 -59 -20t-32 -55h182zM283.5 112.5q19.5 10.5 36.5 27.5v53q-62 -3 -93.5 -17.5t-31.5 -37.5q0 -17 11.5 -26.5t30.5 -9.5
q27 0 46.5 10.5zM474 546h-118l60 144h169z" />
    <glyph glyph-name="b" unicode="b" horiz-adv-x="566" 
d="M251 0.5q-30 14.5 -55 42.5l-8 -43h-129v730h152v-278q24 16 50 24t59 8q59 0 106.5 -29t75.5 -85.5t28 -134.5t-28 -134.5t-76 -85.5t-106 -29q-39 0 -69 14.5zM352 150q27 34 27 85t-27 85t-73 34q-42 0 -68 -26v-185q27 -27 68 -27q46 0 73 34z" />
    <glyph glyph-name="c" unicode="c" horiz-adv-x="512" 
d="M157.5 14q-55.5 28 -88.5 84t-33 138q0 83 33.5 139t89.5 82.5t124 26.5q72 0 120.5 -24.5t81.5 -71.5l-112 -84q-17 24 -38 37.5t-53 13.5q-41 0 -67.5 -30.5t-26.5 -88.5t27 -89t70 -31q33 0 54.5 13.5t39.5 37.5l103 -89q-26 -39 -80.5 -65.5t-120.5 -26.5
q-68 0 -123.5 28z" />
    <glyph glyph-name="cacute" unicode="&#x107;" horiz-adv-x="512" 
d="M157.5 14q-55.5 28 -88.5 84t-33 138q0 83 33.5 139t89.5 82.5t124 26.5q72 0 120.5 -24.5t81.5 -71.5l-112 -84q-17 24 -38 37.5t-53 13.5q-41 0 -67.5 -30.5t-26.5 -88.5t27 -89t70 -31q33 0 54.5 13.5t39.5 37.5l103 -89q-26 -39 -80.5 -65.5t-120.5 -26.5
q-68 0 -123.5 28zM341 546h-118l60 144h169z" />
    <glyph glyph-name="ccaron" unicode="&#x10d;" horiz-adv-x="512" 
d="M157.5 14q-55.5 28 -88.5 84t-33 138q0 83 33.5 139t89.5 82.5t124 26.5q72 0 120.5 -24.5t81.5 -71.5l-112 -84q-17 24 -38 37.5t-53 13.5q-41 0 -67.5 -30.5t-26.5 -88.5t27 -89t70 -31q33 0 54.5 13.5t39.5 37.5l103 -89q-26 -39 -80.5 -65.5t-120.5 -26.5
q-68 0 -123.5 28zM327 546h-91l-114 144h112l48 -54l47 54h112z" />
    <glyph glyph-name="ccedilla" unicode="&#xe7;" horiz-adv-x="512" 
d="M339.5 129.5q21.5 13.5 39.5 37.5l103 -89q-23 -34 -68 -59t-101 -31l-26 -36q45 -1 71 -21t26 -57q0 -41 -28 -65t-88 -24q-50 0 -84 14l24 65q24 -7 53 -7q11 0 18 4.5t7 12.5q0 10 -6.5 14t-18.5 4q-6 0 -12.5 -1.5t-11.5 -4.5l-46 34l34 71q-85 16 -137 78.5
t-52 166.5q0 83 33.5 139t89.5 82.5t124 26.5q72 0 120.5 -24.5t81.5 -71.5l-112 -84q-17 24 -38 37.5t-53 13.5q-41 0 -67.5 -30.5t-26.5 -88.5t27 -89t70 -31q33 0 54.5 13.5z" />
    <glyph glyph-name="ccircumflex" unicode="&#x109;" horiz-adv-x="512" 
d="M157.5 14q-55.5 28 -88.5 84t-33 138q0 83 33.5 139t89.5 82.5t124 26.5q72 0 120.5 -24.5t81.5 -71.5l-112 -84q-17 24 -38 37.5t-53 13.5q-41 0 -67.5 -30.5t-26.5 -88.5t27 -89t70 -31q33 0 54.5 13.5t39.5 37.5l103 -89q-26 -39 -80.5 -65.5t-120.5 -26.5
q-68 0 -123.5 28zM234 546h-112l114 144h91l114 -144h-112l-47 55z" />
    <glyph glyph-name="cdotaccent" unicode="&#x10b;" horiz-adv-x="512" 
d="M157.5 14q-55.5 28 -88.5 84t-33 138q0 83 33.5 139t89.5 82.5t124 26.5q72 0 120.5 -24.5t81.5 -71.5l-112 -84q-17 24 -38 37.5t-53 13.5q-41 0 -67.5 -30.5t-26.5 -88.5t27 -89t70 -31q33 0 54.5 13.5t39.5 37.5l103 -89q-26 -39 -80.5 -65.5t-120.5 -26.5
q-68 0 -123.5 28zM216 561q-24 24 -24 65t24 65.5t66 24.5t65.5 -24t23.5 -66q0 -41 -23.5 -65t-65.5 -24t-66 24z" />
    <glyph glyph-name="d" unicode="d" horiz-adv-x="566" 
d="M140.5 15q-48.5 29 -76.5 85.5t-28 134.5t28 134.5t76 85.5t107 29q63 0 109 -32v278h152v-730h-130l-8 44q-50 -58 -123 -58q-58 0 -106.5 29zM356 144v183q-26 27 -68 27q-46 0 -73 -34t-27 -85t27 -85t73 -34q41 0 68 28z" />
    <glyph glyph-name="eth" unicode="&#xf0;" horiz-adv-x="552" 
d="M426 589q94 -120 94 -301q0 -144 -65.5 -223t-188.5 -79q-65 0 -116.5 27t-81 78.5t-29.5 123.5t29 123.5t77.5 78.5t105.5 27q35 0 58.5 -7.5t42.5 -23.5q-17 61 -65 115l-133 -60l-37 87l91 40q-35 22 -72 38l96 100q69 -30 123 -72l104 46l38 -86zM368 274
q-13 19 -37 30.5t-54 11.5q-40 0 -63.5 -29t-23.5 -72q0 -45 24 -72t64 -27q90 0 90 158z" />
    <glyph glyph-name="dcaron" unicode="&#x10f;" horiz-adv-x="735" 
d="M140.5 15q-48.5 29 -76.5 85.5t-28 134.5t28 134.5t76 85.5t107 29q63 0 109 -32v278h152v-730h-130l-8 44q-50 -58 -123 -58q-58 0 -106.5 29zM356 144v183q-26 27 -68 27q-46 0 -73 -34t-27 -85t27 -85t73 -34q41 0 68 28zM566 459q66 35 84 78q-38 0 -59 22t-21 59
q0 36 22 58t58 22q39 0 62 -26t23 -74q0 -111 -99 -196z" />
    <glyph glyph-name="dcroat" unicode="&#x111;" horiz-adv-x="566" 
d="M567 659v-115h-59v-544h-130l-8 44q-50 -58 -123 -58q-58 0 -106.5 29t-76.5 85.5t-28 134.5t28 134.5t76 85.5t107 29q63 0 109 -32v92h-133v115h133v71h152v-71h59zM356 144v183q-26 27 -68 27q-46 0 -73 -34t-27 -85t27 -85t73 -34q41 0 68 28z" />
    <glyph glyph-name="e" unicode="e" horiz-adv-x="536" 
d="M107 48.5q-71 62.5 -71 185.5q0 86 34.5 142t88.5 82t115 26q118 0 173 -68t55 -175q0 -23 -3 -49h-314q10 -41 38.5 -63.5t73.5 -22.5q33 0 58 11t50 33l74 -101q-76 -63 -189 -63q-112 0 -183 62.5zM368 294q-12 75 -92 75q-36 0 -59 -20t-32 -55h183z" />
    <glyph glyph-name="eacute" unicode="&#xe9;" horiz-adv-x="536" 
d="M107 48.5q-71 62.5 -71 185.5q0 86 34.5 142t88.5 82t115 26q118 0 173 -68t55 -175q0 -23 -3 -49h-314q10 -41 38.5 -63.5t73.5 -22.5q33 0 58 11t50 33l74 -101q-76 -63 -189 -63q-112 0 -183 62.5zM368 294q-12 75 -92 75q-36 0 -59 -20t-32 -55h183zM331 546h-118
l60 144h169z" />
    <glyph glyph-name="ebreve" unicode="&#x115;" horiz-adv-x="536" 
d="M107 48.5q-71 62.5 -71 185.5q0 86 34.5 142t88.5 82t115 26q118 0 173 -68t55 -175q0 -23 -3 -49h-314q10 -41 38.5 -63.5t73.5 -22.5q33 0 58 11t50 33l74 -101q-76 -63 -189 -63q-112 0 -183 62.5zM368 294q-12 75 -92 75q-36 0 -59 -20t-32 -55h183zM167 584.5
q-41 38.5 -41 105.5h100q0 -26 12 -41.5t34 -15.5t34.5 15.5t12.5 41.5h100q0 -67 -41.5 -105.5t-105.5 -38.5t-105 38.5z" />
    <glyph glyph-name="ecaron" unicode="&#x11b;" horiz-adv-x="536" 
d="M107 48.5q-71 62.5 -71 185.5q0 86 34.5 142t88.5 82t115 26q118 0 173 -68t55 -175q0 -23 -3 -49h-314q10 -41 38.5 -63.5t73.5 -22.5q33 0 58 11t50 33l74 -101q-76 -63 -189 -63q-112 0 -183 62.5zM368 294q-12 75 -92 75q-36 0 -59 -20t-32 -55h183zM317 546h-91
l-114 144h112l48 -54l47 54h112z" />
    <glyph glyph-name="ecircumflex" unicode="&#xea;" horiz-adv-x="536" 
d="M107 48.5q-71 62.5 -71 185.5q0 86 34.5 142t88.5 82t115 26q118 0 173 -68t55 -175q0 -23 -3 -49h-314q10 -41 38.5 -63.5t73.5 -22.5q33 0 58 11t50 33l74 -101q-76 -63 -189 -63q-112 0 -183 62.5zM368 294q-12 75 -92 75q-36 0 -59 -20t-32 -55h183zM224 546h-112
l114 144h91l114 -144h-112l-47 55z" />
    <glyph glyph-name="uni1EBF" unicode="&#x1ebf;" horiz-adv-x="536" 
d="M107 48.5q-71 62.5 -71 185.5q0 86 34.5 142t88.5 82t115 26q118 0 173 -68t55 -175q0 -23 -3 -49h-314q10 -41 38.5 -63.5t73.5 -22.5q33 0 58 11t50 33l74 -101q-76 -63 -189 -63q-112 0 -183 62.5zM368 294q-12 75 -92 75q-36 0 -59 -20t-32 -55h183zM435 690h-94
l40 144h146zM224 546h-112l114 144h91l114 -144h-112l-47 55z" />
    <glyph glyph-name="uni1EC7" unicode="&#x1ec7;" horiz-adv-x="536" 
d="M107 48.5q-71 62.5 -71 185.5q0 86 34.5 142t88.5 82t115 26q118 0 173 -68t55 -175q0 -23 -3 -49h-314q10 -41 38.5 -63.5t73.5 -22.5q33 0 58 11t50 33l74 -101q-76 -63 -189 -63q-112 0 -183 62.5zM368 294q-12 75 -92 75q-36 0 -59 -20t-32 -55h183zM221 -175
q-21 21 -21 58q0 36 21 57t58 21q36 0 57 -21t21 -57q0 -37 -21 -58t-57 -21q-37 0 -58 21zM224 546h-112l114 144h91l114 -144h-112l-47 55z" />
    <glyph glyph-name="uni1EC1" unicode="&#x1ec1;" horiz-adv-x="536" 
d="M107 48.5q-71 62.5 -71 185.5q0 86 34.5 142t88.5 82t115 26q118 0 173 -68t55 -175q0 -23 -3 -49h-314q10 -41 38.5 -63.5t73.5 -22.5q33 0 58 11t50 33l74 -101q-76 -63 -189 -63q-112 0 -183 62.5zM368 294q-12 75 -92 75q-36 0 -59 -20t-32 -55h183zM455 690h-94
l-92 144h146zM224 546h-112l114 144h91l114 -144h-112l-47 55z" />
    <glyph glyph-name="uni1EC3" unicode="&#x1ec3;" horiz-adv-x="536" 
d="M107 48.5q-71 62.5 -71 185.5q0 86 34.5 142t88.5 82t115 26q118 0 173 -68t55 -175q0 -23 -3 -49h-314q10 -41 38.5 -63.5t73.5 -22.5q33 0 58 11t50 33l74 -101q-76 -63 -189 -63q-112 0 -183 62.5zM368 294q-12 75 -92 75q-36 0 -59 -20t-32 -55h183zM349 697
q10 17 10 31q0 10 -7.5 17t-19.5 7q-18 0 -36 -9l-33 71q15 10 38 17t47 7q57 0 85.5 -24t28.5 -68q0 -27 -13.5 -48t-40.5 -44zM224 546h-112l114 144h91l114 -144h-112l-47 55z" />
    <glyph glyph-name="uni1EC5" unicode="&#x1ec5;" horiz-adv-x="536" 
d="M107 48.5q-71 62.5 -71 185.5q0 86 34.5 142t88.5 82t115 26q118 0 173 -68t55 -175q0 -23 -3 -49h-314q10 -41 38.5 -63.5t73.5 -22.5q33 0 58 11t50 33l74 -101q-76 -63 -189 -63q-112 0 -183 62.5zM368 294q-12 75 -92 75q-36 0 -59 -20t-32 -55h183zM99 764
q16 36 45 57t70 21q24 0 39.5 -4t35.5 -13q28 -13 48 -13q21 0 34.5 6.5t28.5 26.5l44 -67q-19 -34 -42 -49t-59 -15q-23 0 -39.5 5t-38.5 14q-30 13 -48 13q-20 0 -34.5 -7t-28.5 -26zM224 546h-112l114 144h91l114 -144h-112l-47 55z" />
    <glyph glyph-name="edieresis" unicode="&#xeb;" horiz-adv-x="536" 
d="M107 48.5q-71 62.5 -71 185.5q0 86 34.5 142t88.5 82t115 26q118 0 173 -68t55 -175q0 -23 -3 -49h-314q10 -41 38.5 -63.5t73.5 -22.5q33 0 58 11t50 33l74 -101q-76 -63 -189 -63q-112 0 -183 62.5zM368 294q-12 75 -92 75q-36 0 -59 -20t-32 -55h183zM122.5 575.5
q-19.5 19.5 -19.5 54.5t19.5 55t55.5 20q35 0 54.5 -20t19.5 -55t-19.5 -54.5t-54.5 -19.5q-36 0 -55.5 19.5zM311 575.5q-20 19.5 -20 54.5t20 55t55 20t55 -20t20 -55t-20 -54.5t-55 -19.5t-55 19.5z" />
    <glyph glyph-name="edotaccent" unicode="&#x117;" horiz-adv-x="536" 
d="M107 48.5q-71 62.5 -71 185.5q0 86 34.5 142t88.5 82t115 26q118 0 173 -68t55 -175q0 -23 -3 -49h-314q10 -41 38.5 -63.5t73.5 -22.5q33 0 58 11t50 33l74 -101q-76 -63 -189 -63q-112 0 -183 62.5zM368 294q-12 75 -92 75q-36 0 -59 -20t-32 -55h183zM206 561
q-24 24 -24 65t24 65.5t66 24.5t65.5 -24t23.5 -66q0 -41 -23.5 -65t-65.5 -24t-66 24z" />
    <glyph glyph-name="uni1EB9" unicode="&#x1eb9;" horiz-adv-x="536" 
d="M107 48.5q-71 62.5 -71 185.5q0 86 34.5 142t88.5 82t115 26q118 0 173 -68t55 -175q0 -23 -3 -49h-314q10 -41 38.5 -63.5t73.5 -22.5q33 0 58 11t50 33l74 -101q-76 -63 -189 -63q-112 0 -183 62.5zM368 294q-12 75 -92 75q-36 0 -59 -20t-32 -55h183zM221 -175
q-21 21 -21 58q0 36 21 57t58 21q36 0 57 -21t21 -57q0 -37 -21 -58t-57 -21q-37 0 -58 21z" />
    <glyph glyph-name="egrave" unicode="&#xe8;" horiz-adv-x="536" 
d="M107 48.5q-71 62.5 -71 185.5q0 86 34.5 142t88.5 82t115 26q118 0 173 -68t55 -175q0 -23 -3 -49h-314q10 -41 38.5 -63.5t73.5 -22.5q33 0 58 11t50 33l74 -101q-76 -63 -189 -63q-112 0 -183 62.5zM368 294q-12 75 -92 75q-36 0 -59 -20t-32 -55h183zM331 546h-118
l-111 144h168z" />
    <glyph glyph-name="uni1EBB" unicode="&#x1ebb;" horiz-adv-x="536" 
d="M107 48.5q-71 62.5 -71 185.5q0 86 34.5 142t88.5 82t115 26q118 0 173 -68t55 -175q0 -23 -3 -49h-314q10 -41 38.5 -63.5t73.5 -22.5q33 0 58 11t50 33l74 -101q-76 -63 -189 -63q-112 0 -183 62.5zM368 294q-12 75 -92 75q-36 0 -59 -20t-32 -55h183zM258 565
q10 17 10 32q0 10 -7.5 17t-19.5 7q-18 0 -35 -10l-34 72q41 24 85 24q57 0 85.5 -24t28.5 -69q0 -27 -13.5 -48t-40.5 -43z" />
    <glyph glyph-name="emacron" unicode="&#x113;" horiz-adv-x="536" 
d="M107 48.5q-71 62.5 -71 185.5q0 86 34.5 142t88.5 82t115 26q118 0 173 -68t55 -175q0 -23 -3 -49h-314q10 -41 38.5 -63.5t73.5 -22.5q33 0 58 11t50 33l74 -101q-76 -63 -189 -63q-112 0 -183 62.5zM368 294q-12 75 -92 75q-36 0 -59 -20t-32 -55h183zM405 581h-267
v109h267v-109z" />
    <glyph glyph-name="eogonek" unicode="&#x119;" horiz-adv-x="536" 
d="M447 416q55 -68 55 -175q0 -23 -3 -49h-314q10 -41 38.5 -63.5t73.5 -22.5q33 0 58 11t50 33l74 -101q-40 -33 -90 -49q-51 -35 -51 -76q0 -13 7.5 -21t17.5 -8q11 0 23 6l12 -85q-20 -12 -59 -12q-45 0 -72.5 26t-27.5 68q0 53 31 89q-105 6 -169.5 68t-64.5 179
q0 86 34.5 142t88.5 82t115 26q118 0 173 -68zM368 294q-12 75 -92 75q-36 0 -59 -20t-32 -55h183z" />
    <glyph glyph-name="uni1EBD" unicode="&#x1ebd;" horiz-adv-x="536" 
d="M107 48.5q-71 62.5 -71 185.5q0 86 34.5 142t88.5 82t115 26q118 0 173 -68t55 -175q0 -23 -3 -49h-314q10 -41 38.5 -63.5t73.5 -22.5q33 0 58 11t50 33l74 -101q-76 -63 -189 -63q-112 0 -183 62.5zM368 294q-12 75 -92 75q-36 0 -59 -20t-32 -55h183zM306 578
q-17 5 -40 15q-16 8 -27 11.5t-22 3.5q-22 0 -35.5 -6.5t-28.5 -26.5l-54 51q38 78 114 78q23 0 38.5 -4t35.5 -13q28 -13 49 -13q22 0 33.5 5.5t30.5 27.5l43 -67q-18 -36 -38.5 -51.5t-59.5 -15.5q-22 0 -39 5z" />
    <glyph glyph-name="f" unicode="f" horiz-adv-x="378" 
d="M90 0v341h-69v129h69v90q0 92 53 138t139 46q26 0 42.5 -3t37.5 -10v-132q-31 15 -60 15q-30 0 -45 -16.5t-15 -44.5v-83h116v-129h-116v-341h-152z" />
    <glyph glyph-name="g" unicode="g" horiz-adv-x="524" 
d="M81.5 -171.5q-62.5 32.5 -62.5 101.5q0 31 15 54.5t39 37.5q-33 30 -33 75q0 37 17 61t53 39q-52 46 -52 120q0 73 51.5 120t143.5 47q41 0 77 -11l84 91l80 -91l-76 -59q30 -40 30 -97q0 -73 -51 -120t-144 -47q-39 0 -70 9q-17 -9 -17 -23q0 -25 59 -25h106
q69 0 114.5 -37.5t45.5 -106.5q0 -86 -62 -128.5t-177 -42.5q-108 0 -170.5 32.5zM296.5 269q16.5 18 16.5 48t-16.5 48t-43.5 18t-43.5 -17.5t-16.5 -48.5q0 -30 16.5 -48t43.5 -18t43.5 18zM363 -54q0 18 -12.5 27.5t-33.5 9.5h-115q-25 0 -46 3q-11 -11 -11 -29
q0 -59 107 -59q111 0 111 48z" />
    <glyph glyph-name="gbreve" unicode="&#x11f;" horiz-adv-x="524" 
d="M81.5 -171.5q-62.5 32.5 -62.5 101.5q0 31 15 54.5t39 37.5q-33 30 -33 75q0 37 17 61t53 39q-52 46 -52 120q0 73 51.5 120t143.5 47q41 0 77 -11l84 91l80 -91l-76 -59q30 -40 30 -97q0 -73 -51 -120t-144 -47q-39 0 -70 9q-17 -9 -17 -23q0 -25 59 -25h106
q69 0 114.5 -37.5t45.5 -106.5q0 -86 -62 -128.5t-177 -42.5q-108 0 -170.5 32.5zM296.5 269q16.5 18 16.5 48t-16.5 48t-43.5 18t-43.5 -17.5t-16.5 -48.5q0 -30 16.5 -48t43.5 -18t43.5 18zM363 -54q0 18 -12.5 27.5t-33.5 9.5h-115q-25 0 -46 3q-11 -11 -11 -29
q0 -59 107 -59q111 0 111 48zM157 584.5q-41 38.5 -41 105.5h100q0 -26 12 -41.5t34 -15.5t34.5 15.5t12.5 41.5h100q0 -67 -41.5 -105.5t-105.5 -38.5t-105 38.5z" />
    <glyph glyph-name="gcircumflex" unicode="&#x11d;" horiz-adv-x="524" 
d="M331 111q69 0 114.5 -37.5t45.5 -106.5q0 -86 -62 -128.5t-177 -42.5q-108 0 -170.5 32.5t-62.5 101.5q0 31 15 54.5t39 37.5q-33 30 -33 75q0 37 17 61t53 39q-52 46 -52 120q0 73 51.5 120t143.5 47q41 0 77 -11l67 73h-88l-47 55l-48 -55h-112l114 144h91l103 -130
l4 4l80 -91l-76 -59q30 -40 30 -97q0 -73 -51 -120t-144 -47q-39 0 -70 9q-17 -9 -17 -23q0 -25 59 -25h106zM209.5 365.5q-16.5 -17.5 -16.5 -48.5q0 -30 16.5 -48t43.5 -18t43.5 18t16.5 48t-16.5 48t-43.5 18t-43.5 -17.5zM363 -54q0 18 -12.5 27.5t-33.5 9.5h-115
q-25 0 -46 3q-11 -11 -11 -29q0 -59 107 -59q111 0 111 48z" />
    <glyph glyph-name="uni0123" unicode="&#x123;" horiz-adv-x="524" 
d="M81.5 -171.5q-62.5 32.5 -62.5 101.5q0 31 15 54.5t39 37.5q-33 30 -33 75q0 37 17 61t53 39q-52 46 -52 120q0 73 51.5 120t143.5 47q41 0 77 -11l84 91l80 -91l-76 -59q30 -40 30 -97q0 -73 -51 -120t-144 -47q-39 0 -70 9q-17 -9 -17 -23q0 -25 59 -25h106
q69 0 114.5 -37.5t45.5 -106.5q0 -86 -62 -128.5t-177 -42.5q-108 0 -170.5 32.5zM296.5 269q16.5 18 16.5 48t-16.5 48t-43.5 18t-43.5 -17.5t-16.5 -48.5q0 -30 16.5 -48t43.5 -18t43.5 18zM363 -54q0 18 -12.5 27.5t-33.5 9.5h-115q-25 0 -46 3q-11 -11 -11 -29
q0 -59 107 -59q111 0 111 48zM215.5 554.5q-16.5 18.5 -16.5 54.5q0 42 27 67t64 25l35 -44q-40 -8 -56 -23q24 0 37 -14t13 -36t-15.5 -35t-40.5 -13q-31 0 -47.5 18.5z" />
    <glyph glyph-name="gdotaccent" unicode="&#x121;" horiz-adv-x="524" 
d="M81.5 -171.5q-62.5 32.5 -62.5 101.5q0 31 15 54.5t39 37.5q-33 30 -33 75q0 37 17 61t53 39q-52 46 -52 120q0 73 51.5 120t143.5 47q41 0 77 -11l84 91l80 -91l-76 -59q30 -40 30 -97q0 -73 -51 -120t-144 -47q-39 0 -70 9q-17 -9 -17 -23q0 -25 59 -25h106
q69 0 114.5 -37.5t45.5 -106.5q0 -86 -62 -128.5t-177 -42.5q-108 0 -170.5 32.5zM296.5 269q16.5 18 16.5 48t-16.5 48t-43.5 18t-43.5 -17.5t-16.5 -48.5q0 -30 16.5 -48t43.5 -18t43.5 18zM363 -54q0 18 -12.5 27.5t-33.5 9.5h-115q-25 0 -46 3q-11 -11 -11 -29
q0 -59 107 -59q111 0 111 48zM196 561q-24 24 -24 65t24 65.5t66 24.5t65.5 -24t23.5 -66q0 -41 -23.5 -65t-65.5 -24t-66 24z" />
    <glyph glyph-name="h" unicode="h" horiz-adv-x="565" 
d="M59 0v730h152v-323q42 77 137 77q77 0 118 -47.5t41 -124.5v-312h-152v287q0 32 -16.5 49.5t-47.5 17.5q-27 0 -48 -14.5t-32 -36.5v-303h-152z" />
    <glyph glyph-name="hbar" unicode="&#x127;" horiz-adv-x="565" 
d="M466 436.5q41 -47.5 41 -124.5v-312h-152v287q0 32 -16.5 49.5t-47.5 17.5q-27 0 -48 -14.5t-32 -36.5v-303h-152v544h-60v115h60v71h152v-71h133v-115h-133v-137q42 77 137 77q77 0 118 -47.5z" />
    <glyph glyph-name="hcircumflex" unicode="&#x125;" horiz-adv-x="565" 
d="M59 0v730h152v-323q42 77 137 77q77 0 118 -47.5t41 -124.5v-312h-152v287q0 32 -16.5 49.5t-47.5 17.5q-27 0 -48 -14.5t-32 -36.5v-303h-152zM87 806h-112l114 144h91l114 -144h-112l-47 55z" />
    <glyph glyph-name="i" unicode="i" horiz-adv-x="269" 
d="M69 561q-24 24 -24 65t24 65.5t66 24.5t65.5 -24t23.5 -66q0 -41 -23.5 -65t-65.5 -24t-66 24zM211 0h-152v470h152v-470z" />
    <glyph glyph-name="dotlessi" unicode="&#x131;" horiz-adv-x="269" 
d="M211 0h-152v470h152v-470z" />
    <glyph glyph-name="iacute" unicode="&#xed;" horiz-adv-x="269" 
d="M211 0h-152v470h152v-470zM194 546h-118l60 144h169z" />
    <glyph glyph-name="ibreve" unicode="&#x12d;" horiz-adv-x="269" 
d="M211 0h-152v470h152v-470zM30 584.5q-41 38.5 -41 105.5h100q0 -26 12 -41.5t34 -15.5t34.5 15.5t12.5 41.5h100q0 -67 -41.5 -105.5t-105.5 -38.5t-105 38.5z" />
    <glyph glyph-name="icircumflex" unicode="&#xee;" horiz-adv-x="269" 
d="M211 0h-152v470h152v-470zM87 546h-112l114 144h91l114 -144h-112l-47 55z" />
    <glyph glyph-name="idieresis" unicode="&#xef;" horiz-adv-x="269" 
d="M211 0h-152v470h152v-470zM-14.5 575.5q-19.5 19.5 -19.5 54.5t19.5 55t55.5 20q35 0 54.5 -20t19.5 -55t-19.5 -54.5t-54.5 -19.5q-36 0 -55.5 19.5zM174 575.5q-20 19.5 -20 54.5t20 55t55 20t55 -20t20 -55t-20 -54.5t-55 -19.5t-55 19.5z" />
    <glyph glyph-name="i.locl" horiz-adv-x="269" 
d="M211 0h-152v470h152v-470zM69 561q-24 24 -24 65t24 65.5t66 24.5t65.5 -24t23.5 -66q0 -41 -23.5 -65t-65.5 -24t-66 24z" />
    <glyph glyph-name="uni1ECB" unicode="&#x1ecb;" horiz-adv-x="269" 
d="M69 561q-24 24 -24 65t24 65.5t66 24.5t65.5 -24t23.5 -66q0 -41 -23.5 -65t-65.5 -24t-66 24zM211 0h-152v470h152v-470zM77 -175q-21 21 -21 58q0 36 21 57t58 21q36 0 57 -21t21 -57q0 -37 -21 -58t-57 -21q-37 0 -58 21z" />
    <glyph glyph-name="igrave" unicode="&#xec;" horiz-adv-x="269" 
d="M211 0h-152v470h152v-470zM194 546h-118l-111 144h168z" />
    <glyph glyph-name="uni1EC9" unicode="&#x1ec9;" horiz-adv-x="269" 
d="M211 0h-152v470h152v-470zM121 565q10 17 10 32q0 10 -7.5 17t-19.5 7q-18 0 -35 -10l-34 72q41 24 85 24q57 0 85.5 -24t28.5 -69q0 -27 -13.5 -48t-40.5 -43z" />
    <glyph glyph-name="ij" unicode="&#x133;" horiz-adv-x="538" 
d="M69 561q-24 24 -24 65t24 65.5t66 24.5t65.5 -24t23.5 -66q0 -41 -23.5 -65t-65.5 -24t-66 24zM211 0h-152v470h152v-470zM338 561q-24 24 -24 65t24 65.5t66 24.5t65.5 -24t23.5 -66q0 -41 -23.5 -65t-65.5 -24t-66 24zM261 -199v143q12 -7 30 -7q20 0 28.5 12.5
t8.5 37.5v483h152v-492q0 -85 -44.5 -133.5t-129.5 -48.5q-31 0 -45 5z" />
    <glyph glyph-name="imacron" unicode="&#x12b;" horiz-adv-x="269" 
d="M211 0h-152v470h152v-470zM268 581h-267v109h267v-109z" />
    <glyph glyph-name="iogonek" unicode="&#x12f;" horiz-adv-x="269" 
d="M69 561q-24 24 -24 65t24 65.5t66 24.5t65.5 -24t23.5 -66q0 -41 -23.5 -65t-65.5 -24t-66 24zM208 -99l12 -85q-20 -12 -59 -12q-45 0 -72.5 26t-27.5 68q0 35 11 59.5t33 42.5h-46v470h152v-470q-51 -35 -51 -76q0 -13 7.5 -21t17.5 -8q11 0 23 6z" />
    <glyph glyph-name="itilde" unicode="&#x129;" horiz-adv-x="269" 
d="M211 0h-152v470h152v-470zM169 578q-17 5 -40 15q-16 8 -27 11.5t-22 3.5q-22 0 -35.5 -6.5t-28.5 -26.5l-54 51q38 78 114 78q23 0 38.5 -4t35.5 -13q28 -13 49 -13q22 0 33.5 5.5t30.5 27.5l43 -67q-18 -36 -38.5 -51.5t-59.5 -15.5q-22 0 -39 5z" />
    <glyph glyph-name="j" unicode="j" horiz-adv-x="269" 
d="M69 561q-24 24 -24 65t24 65.5t66 24.5t65.5 -24t23.5 -66q0 -41 -23.5 -65t-65.5 -24t-66 24zM-8 -199v143q12 -7 30 -7q20 0 28.5 12.5t8.5 37.5v483h152v-492q0 -85 -44.5 -133.5t-129.5 -48.5q-31 0 -45 5z" />
    <glyph glyph-name="uni0237" unicode="&#x237;" horiz-adv-x="269" 
d="M-8 -199v143q12 -7 30 -7q20 0 28.5 12.5t8.5 37.5v483h152v-492q0 -85 -44.5 -133.5t-129.5 -48.5q-31 0 -45 5z" />
    <glyph glyph-name="jcircumflex" unicode="&#x135;" horiz-adv-x="269" 
d="M-8 -199v143q12 -7 30 -7q20 0 28.5 12.5t8.5 37.5v483h152v-492q0 -85 -44.5 -133.5t-129.5 -48.5q-31 0 -45 5zM87 546h-112l114 144h91l114 -144h-112l-47 55z" />
    <glyph glyph-name="k" unicode="k" horiz-adv-x="534" 
d="M59 0v730h152v-375l114 115h192l-177 -174q118 -138 175 -296h-170q-38 118 -107 196l-27 -27v-169h-152z" />
    <glyph glyph-name="uni0137" unicode="&#x137;" horiz-adv-x="534" 
d="M59 0v730h152v-375l114 115h192l-177 -174q118 -138 175 -296h-170q-38 118 -107 196l-27 -27v-169h-152zM204 -171q41 8 56 23q-23 0 -36.5 13t-13.5 35t17.5 36t45.5 14q69 0 69 -65q0 -43 -28.5 -66.5t-73.5 -33.5z" />
    <glyph glyph-name="kgreenlandic" unicode="&#x138;" horiz-adv-x="534" 
d="M517 470l-177 -174q118 -138 175 -296h-170q-38 118 -107 196l-27 -27v-169h-152v470h152v-115l114 115h192z" />
    <glyph glyph-name="l" unicode="l" horiz-adv-x="313" 
d="M99 30.5q-40 44.5 -40 142.5v557h152v-550q0 -32 11 -46t36 -14q18 0 30 8v-127q-22 -15 -68 -15q-81 0 -121 44.5z" />
    <glyph glyph-name="lacute" unicode="&#x13a;" horiz-adv-x="313" 
d="M99 30.5q-40 44.5 -40 142.5v557h152v-550q0 -32 11 -46t36 -14q18 0 30 8v-127q-22 -15 -68 -15q-81 0 -121 44.5zM193 806h-118l60 144h169z" />
    <glyph glyph-name="lcaron" unicode="&#x13e;" horiz-adv-x="438" 
d="M99 30.5q-40 44.5 -40 142.5v557h152v-550q0 -32 11 -46t36 -14q18 0 30 8v-127q-22 -15 -68 -15q-81 0 -121 44.5zM269 459q66 35 84 78q-38 0 -59 22t-21 59q0 36 22 58t58 22q39 0 62 -26t23 -74q0 -111 -99 -196z" />
    <glyph glyph-name="uni013C" unicode="&#x13c;" horiz-adv-x="313" 
d="M99 30.5q-40 44.5 -40 142.5v557h152v-550q0 -32 11 -46t36 -14q18 0 30 8v-127q-22 -15 -68 -15q-81 0 -121 44.5zM89 -171q41 8 56 23q-23 0 -36.5 13t-13.5 35t17.5 36t45.5 14q69 0 69 -65q0 -43 -28.5 -66.5t-73.5 -33.5z" />
    <glyph glyph-name="ldot" unicode="&#x140;" horiz-adv-x="430" 
d="M99 30.5q-40 44.5 -40 142.5v557h152v-550q0 -32 11 -46t36 -14q18 0 30 8v-127q-22 -15 -68 -15q-81 0 -121 44.5zM280.5 275.5q-26.5 26.5 -26.5 69.5q0 44 26.5 70t69.5 26t69.5 -26.5t26.5 -69.5t-26.5 -69.5t-69.5 -26.5t-69.5 26.5z" />
    <glyph glyph-name="lslash" unicode="&#x142;" horiz-adv-x="326" 
d="M300 128v-127q-22 -15 -68 -15q-81 0 -121 44.5t-40 142.5v2l-56 -36v148l56 36v407h152v-311l56 36v-148l-56 -36v-91q0 -32 11 -46t36 -14q18 0 30 8z" />
    <glyph glyph-name="m" unicode="m" horiz-adv-x="824" 
d="M728.5 438q37.5 -46 37.5 -117v-321h-152v294q0 27 -13.5 43t-38.5 16q-48 0 -74 -42v-311h-152v294q0 27 -13.5 43t-37.5 16q-26 0 -45.5 -11.5t-28.5 -30.5v-311h-152v470h143l9 -61q21 34 51.5 54.5t78.5 20.5q94 0 128 -77q24 37 62 57t88 20q72 0 109.5 -46z" />
    <glyph glyph-name="n" unicode="n" horiz-adv-x="555" 
d="M59 0v470h142l10 -65q19 35 52.5 57t83.5 22q76 0 113 -45t37 -119v-320h-152v293q0 28 -15 44.5t-40 16.5q-26 0 -47 -14t-32 -34v-306h-152z" />
    <glyph glyph-name="nacute" unicode="&#x144;" horiz-adv-x="555" 
d="M59 0v470h142l10 -65q19 35 52.5 57t83.5 22q76 0 113 -45t37 -119v-320h-152v293q0 28 -15 44.5t-40 16.5q-26 0 -47 -14t-32 -34v-306h-152zM337 546h-118l60 144h169z" />
    <glyph glyph-name="ncaron" unicode="&#x148;" horiz-adv-x="555" 
d="M59 0v470h142l10 -65q19 35 52.5 57t83.5 22q76 0 113 -45t37 -119v-320h-152v293q0 28 -15 44.5t-40 16.5q-26 0 -47 -14t-32 -34v-306h-152zM323 546h-91l-114 144h112l48 -54l47 54h112z" />
    <glyph glyph-name="uni0146" unicode="&#x146;" horiz-adv-x="555" 
d="M59 0v470h142l10 -65q19 35 52.5 57t83.5 22q76 0 113 -45t37 -119v-320h-152v293q0 28 -15 44.5t-40 16.5q-26 0 -47 -14t-32 -34v-306h-152zM210 -171q41 8 56 23q-23 0 -36.5 13t-13.5 35t17.5 36t45.5 14q69 0 69 -65q0 -43 -28.5 -66.5t-73.5 -33.5z" />
    <glyph glyph-name="eng" unicode="&#x14b;" horiz-adv-x="555" 
d="M278 -199v143q12 -7 30 -7q20 0 28.5 12.5t8.5 37.5v306q0 28 -15 44.5t-40 16.5q-26 0 -47 -14t-32 -34v-306h-152v470h142l10 -65q19 35 52.5 57t83.5 22q76 0 113 -45t37 -119v-342q0 -85 -44.5 -133.5t-129.5 -48.5q-31 0 -45 5z" />
    <glyph glyph-name="ntilde" unicode="&#xf1;" horiz-adv-x="555" 
d="M59 0v470h142l10 -65q19 35 52.5 57t83.5 22q76 0 113 -45t37 -119v-320h-152v293q0 28 -15 44.5t-40 16.5q-26 0 -47 -14t-32 -34v-306h-152zM312 578q-17 5 -40 15q-16 8 -27 11.5t-22 3.5q-22 0 -35.5 -6.5t-28.5 -26.5l-54 51q38 78 114 78q23 0 38.5 -4t35.5 -13
q28 -13 49 -13q22 0 33.5 5.5t30.5 27.5l43 -67q-18 -36 -38.5 -51.5t-59.5 -15.5q-22 0 -39 5z" />
    <glyph glyph-name="o" unicode="o" horiz-adv-x="554" 
d="M157 13.5q-55 27.5 -88 83.5t-33 138t33 138t88 83.5t120 27.5t120 -27.5t88 -83.5t33 -138t-33 -138t-88 -83.5t-120 -27.5t-120 27.5zM343 146q23 30 23 89q0 60 -23 89.5t-66 29.5t-66 -29.5t-23 -89.5q0 -59 23 -89t66 -30t66 30z" />
    <glyph glyph-name="oacute" unicode="&#xf3;" horiz-adv-x="554" 
d="M157 13.5q-55 27.5 -88 83.5t-33 138t33 138t88 83.5t120 27.5t120 -27.5t88 -83.5t33 -138t-33 -138t-88 -83.5t-120 -27.5t-120 27.5zM343 146q23 30 23 89q0 60 -23 89.5t-66 29.5t-66 -29.5t-23 -89.5q0 -59 23 -89t66 -30t66 30zM336 546h-118l60 144h169z" />
    <glyph glyph-name="obreve" unicode="&#x14f;" horiz-adv-x="554" 
d="M157 13.5q-55 27.5 -88 83.5t-33 138t33 138t88 83.5t120 27.5t120 -27.5t88 -83.5t33 -138t-33 -138t-88 -83.5t-120 -27.5t-120 27.5zM343 146q23 30 23 89q0 60 -23 89.5t-66 29.5t-66 -29.5t-23 -89.5q0 -59 23 -89t66 -30t66 30zM172 584.5q-41 38.5 -41 105.5h100
q0 -26 12 -41.5t34 -15.5t34.5 15.5t12.5 41.5h100q0 -67 -41.5 -105.5t-105.5 -38.5t-105 38.5z" />
    <glyph glyph-name="ocircumflex" unicode="&#xf4;" horiz-adv-x="554" 
d="M157 13.5q-55 27.5 -88 83.5t-33 138t33 138t88 83.5t120 27.5t120 -27.5t88 -83.5t33 -138t-33 -138t-88 -83.5t-120 -27.5t-120 27.5zM343 146q23 30 23 89q0 60 -23 89.5t-66 29.5t-66 -29.5t-23 -89.5q0 -59 23 -89t66 -30t66 30zM229 546h-112l114 144h91l114 -144
h-112l-47 55z" />
    <glyph glyph-name="uni1ED1" unicode="&#x1ed1;" horiz-adv-x="554" 
d="M157 13.5q-55 27.5 -88 83.5t-33 138t33 138t88 83.5t120 27.5t120 -27.5t88 -83.5t33 -138t-33 -138t-88 -83.5t-120 -27.5t-120 27.5zM343 146q23 30 23 89q0 60 -23 89.5t-66 29.5t-66 -29.5t-23 -89.5q0 -59 23 -89t66 -30t66 30zM440 690h-94l40 144h146zM229 546
h-112l114 144h91l114 -144h-112l-47 55z" />
    <glyph glyph-name="uni1ED9" unicode="&#x1ed9;" horiz-adv-x="554" 
d="M157 13.5q-55 27.5 -88 83.5t-33 138t33 138t88 83.5t120 27.5t120 -27.5t88 -83.5t33 -138t-33 -138t-88 -83.5t-120 -27.5t-120 27.5zM343 146q23 30 23 89q0 60 -23 89.5t-66 29.5t-66 -29.5t-23 -89.5q0 -59 23 -89t66 -30t66 30zM219 -175q-21 21 -21 58q0 36 21 57
t58 21q36 0 57 -21t21 -57q0 -37 -21 -58t-57 -21q-37 0 -58 21zM229 546h-112l114 144h91l114 -144h-112l-47 55z" />
    <glyph glyph-name="uni1ED3" unicode="&#x1ed3;" horiz-adv-x="554" 
d="M157 13.5q-55 27.5 -88 83.5t-33 138t33 138t88 83.5t120 27.5t120 -27.5t88 -83.5t33 -138t-33 -138t-88 -83.5t-120 -27.5t-120 27.5zM343 146q23 30 23 89q0 60 -23 89.5t-66 29.5t-66 -29.5t-23 -89.5q0 -59 23 -89t66 -30t66 30zM460 690h-94l-92 144h146zM229 546
h-112l114 144h91l114 -144h-112l-47 55z" />
    <glyph glyph-name="uni1ED5" unicode="&#x1ed5;" horiz-adv-x="554" 
d="M157 13.5q-55 27.5 -88 83.5t-33 138t33 138t88 83.5t120 27.5t120 -27.5t88 -83.5t33 -138t-33 -138t-88 -83.5t-120 -27.5t-120 27.5zM343 146q23 30 23 89q0 60 -23 89.5t-66 29.5t-66 -29.5t-23 -89.5q0 -59 23 -89t66 -30t66 30zM354 697q10 17 10 31q0 10 -7.5 17
t-19.5 7q-18 0 -36 -9l-33 71q15 10 38 17t47 7q57 0 85.5 -24t28.5 -68q0 -27 -13.5 -48t-40.5 -44zM229 546h-112l114 144h91l114 -144h-112l-47 55z" />
    <glyph glyph-name="uni1ED7" unicode="&#x1ed7;" horiz-adv-x="554" 
d="M157 13.5q-55 27.5 -88 83.5t-33 138t33 138t88 83.5t120 27.5t120 -27.5t88 -83.5t33 -138t-33 -138t-88 -83.5t-120 -27.5t-120 27.5zM343 146q23 30 23 89q0 60 -23 89.5t-66 29.5t-66 -29.5t-23 -89.5q0 -59 23 -89t66 -30t66 30zM104 764q16 36 45 57t70 21
q24 0 39.5 -4t35.5 -13q28 -13 48 -13q21 0 34.5 6.5t28.5 26.5l44 -67q-19 -34 -42 -49t-59 -15q-23 0 -39.5 5t-38.5 14q-30 13 -48 13q-20 0 -34.5 -7t-28.5 -26zM229 546h-112l114 144h91l114 -144h-112l-47 55z" />
    <glyph glyph-name="odieresis" unicode="&#xf6;" horiz-adv-x="554" 
d="M157 13.5q-55 27.5 -88 83.5t-33 138t33 138t88 83.5t120 27.5t120 -27.5t88 -83.5t33 -138t-33 -138t-88 -83.5t-120 -27.5t-120 27.5zM343 146q23 30 23 89q0 60 -23 89.5t-66 29.5t-66 -29.5t-23 -89.5q0 -59 23 -89t66 -30t66 30zM127.5 575.5q-19.5 19.5 -19.5 54.5
t19.5 55t55.5 20q35 0 54.5 -20t19.5 -55t-19.5 -54.5t-54.5 -19.5q-36 0 -55.5 19.5zM316 575.5q-20 19.5 -20 54.5t20 55t55 20t55 -20t20 -55t-20 -54.5t-55 -19.5t-55 19.5z" />
    <glyph glyph-name="uni1ECD" unicode="&#x1ecd;" horiz-adv-x="554" 
d="M157 13.5q-55 27.5 -88 83.5t-33 138t33 138t88 83.5t120 27.5t120 -27.5t88 -83.5t33 -138t-33 -138t-88 -83.5t-120 -27.5t-120 27.5zM343 146q23 30 23 89q0 60 -23 89.5t-66 29.5t-66 -29.5t-23 -89.5q0 -59 23 -89t66 -30t66 30zM219 -175q-21 21 -21 58q0 36 21 57
t58 21q36 0 57 -21t21 -57q0 -37 -21 -58t-57 -21q-37 0 -58 21z" />
    <glyph glyph-name="ograve" unicode="&#xf2;" horiz-adv-x="554" 
d="M157 13.5q-55 27.5 -88 83.5t-33 138t33 138t88 83.5t120 27.5t120 -27.5t88 -83.5t33 -138t-33 -138t-88 -83.5t-120 -27.5t-120 27.5zM343 146q23 30 23 89q0 60 -23 89.5t-66 29.5t-66 -29.5t-23 -89.5q0 -59 23 -89t66 -30t66 30zM336 546h-118l-111 144h168z" />
    <glyph glyph-name="uni1ECF" unicode="&#x1ecf;" horiz-adv-x="554" 
d="M157 13.5q-55 27.5 -88 83.5t-33 138t33 138t88 83.5t120 27.5t120 -27.5t88 -83.5t33 -138t-33 -138t-88 -83.5t-120 -27.5t-120 27.5zM343 146q23 30 23 89q0 60 -23 89.5t-66 29.5t-66 -29.5t-23 -89.5q0 -59 23 -89t66 -30t66 30zM263 565q10 17 10 32q0 10 -7.5 17
t-19.5 7q-18 0 -35 -10l-34 72q41 24 85 24q57 0 85.5 -24t28.5 -69q0 -27 -13.5 -48t-40.5 -43z" />
    <glyph glyph-name="ohorn" unicode="&#x1a1;" horiz-adv-x="554" 
d="M563 564q0 -136 -88 -175q43 -62 43 -154q0 -82 -33 -138t-88 -83.5t-120 -27.5t-120 27.5t-88 83.5t-33 138t33 138t88 83.5t120 27.5h97q31 0 47 17t16 54v59h126v-50zM343 146q23 30 23 89q0 60 -23 89.5t-66 29.5t-66 -29.5t-23 -89.5q0 -59 23 -89t66 -30t66 30z
" />
    <glyph glyph-name="uni1EDB" unicode="&#x1edb;" horiz-adv-x="554" 
d="M563 564q0 -136 -88 -175q43 -62 43 -154q0 -82 -33 -138t-88 -83.5t-120 -27.5t-120 27.5t-88 83.5t-33 138t33 138t88 83.5t120 27.5h97q31 0 47 17t16 54v59h126v-50zM343 146q23 30 23 89q0 60 -23 89.5t-66 29.5t-66 -29.5t-23 -89.5q0 -59 23 -89t66 -30t66 30z
M336 546h-118l60 144h169z" />
    <glyph glyph-name="uni1EE3" unicode="&#x1ee3;" horiz-adv-x="554" 
d="M563 564q0 -136 -88 -175q43 -62 43 -154q0 -82 -33 -138t-88 -83.5t-120 -27.5t-120 27.5t-88 83.5t-33 138t33 138t88 83.5t120 27.5h97q31 0 47 17t16 54v59h126v-50zM343 146q23 30 23 89q0 60 -23 89.5t-66 29.5t-66 -29.5t-23 -89.5q0 -59 23 -89t66 -30t66 30z
M219 -175q-21 21 -21 58q0 36 21 57t58 21q36 0 57 -21t21 -57q0 -37 -21 -58t-57 -21q-37 0 -58 21z" />
    <glyph glyph-name="uni1EDD" unicode="&#x1edd;" horiz-adv-x="554" 
d="M563 564q0 -136 -88 -175q43 -62 43 -154q0 -82 -33 -138t-88 -83.5t-120 -27.5t-120 27.5t-88 83.5t-33 138t33 138t88 83.5t120 27.5h97q31 0 47 17t16 54v59h126v-50zM343 146q23 30 23 89q0 60 -23 89.5t-66 29.5t-66 -29.5t-23 -89.5q0 -59 23 -89t66 -30t66 30z
M336 546h-118l-111 144h168z" />
    <glyph glyph-name="uni1EDF" unicode="&#x1edf;" horiz-adv-x="554" 
d="M563 564q0 -136 -88 -175q43 -62 43 -154q0 -82 -33 -138t-88 -83.5t-120 -27.5t-120 27.5t-88 83.5t-33 138t33 138t88 83.5t120 27.5h97q31 0 47 17t16 54v59h126v-50zM343 146q23 30 23 89q0 60 -23 89.5t-66 29.5t-66 -29.5t-23 -89.5q0 -59 23 -89t66 -30t66 30z
M263 565q10 17 10 32q0 10 -7.5 17t-19.5 7q-18 0 -35 -10l-34 72q41 24 85 24q57 0 85.5 -24t28.5 -69q0 -27 -13.5 -48t-40.5 -43z" />
    <glyph glyph-name="uni1EE1" unicode="&#x1ee1;" horiz-adv-x="554" 
d="M563 564q0 -136 -88 -175q43 -62 43 -154q0 -82 -33 -138t-88 -83.5t-120 -27.5t-120 27.5t-88 83.5t-33 138t33 138t88 83.5t120 27.5h97q31 0 47 17t16 54v59h126v-50zM343 146q23 30 23 89q0 60 -23 89.5t-66 29.5t-66 -29.5t-23 -89.5q0 -59 23 -89t66 -30t66 30z
M297 578q-17 5 -40 15q-16 8 -27 11.5t-22 3.5q-22 0 -35.5 -6.5t-28.5 -26.5l-54 51q38 78 114 78q23 0 38.5 -4t35.5 -13q28 -13 49 -13q22 0 33.5 5.5t30.5 27.5l43 -67q-18 -36 -38.5 -51.5t-59.5 -15.5q-22 0 -39 5z" />
    <glyph glyph-name="ohungarumlaut" unicode="&#x151;" horiz-adv-x="554" 
d="M157 13.5q-55 27.5 -88 83.5t-33 138t33 138t88 83.5t120 27.5t120 -27.5t88 -83.5t33 -138t-33 -138t-88 -83.5t-120 -27.5t-120 27.5zM343 146q23 30 23 89q0 60 -23 89.5t-66 29.5t-66 -29.5t-23 -89.5q0 -59 23 -89t66 -30t66 30zM226 546h-105l42 144h143zM425 546
h-105l42 144h144z" />
    <glyph glyph-name="omacron" unicode="&#x14d;" horiz-adv-x="554" 
d="M157 13.5q-55 27.5 -88 83.5t-33 138t33 138t88 83.5t120 27.5t120 -27.5t88 -83.5t33 -138t-33 -138t-88 -83.5t-120 -27.5t-120 27.5zM343 146q23 30 23 89q0 60 -23 89.5t-66 29.5t-66 -29.5t-23 -89.5q0 -59 23 -89t66 -30t66 30zM410 581h-267v109h267v-109z" />
    <glyph glyph-name="oslash" unicode="&#xf8;" horiz-adv-x="554" 
d="M424 440q44 -31 69 -82.5t25 -122.5q0 -82 -33 -138t-88 -83.5t-120 -27.5q-28 0 -48 4l-35 -80h-116l52 120q-44 31 -69 82.5t-25 122.5q0 82 33 138t88 83.5t120 27.5q28 0 48 -4l35 80h116zM192 172l81 187q-42 -2 -67 -34t-25 -90q0 -36 11 -63zM281 111
q42 2 67 34.5t25 89.5q0 35 -10 63z" />
    <glyph glyph-name="otilde" unicode="&#xf5;" horiz-adv-x="554" 
d="M157 13.5q-55 27.5 -88 83.5t-33 138t33 138t88 83.5t120 27.5t120 -27.5t88 -83.5t33 -138t-33 -138t-88 -83.5t-120 -27.5t-120 27.5zM343 146q23 30 23 89q0 60 -23 89.5t-66 29.5t-66 -29.5t-23 -89.5q0 -59 23 -89t66 -30t66 30zM311 578q-17 5 -40 15
q-16 8 -27 11.5t-22 3.5q-22 0 -35.5 -6.5t-28.5 -26.5l-54 51q38 78 114 78q23 0 38.5 -4t35.5 -13q28 -13 49 -13q22 0 33.5 5.5t30.5 27.5l43 -67q-18 -36 -38.5 -51.5t-59.5 -15.5q-22 0 -39 5z" />
    <glyph glyph-name="oe" unicode="&#x153;" horiz-adv-x="875" 
d="M786 416q55 -68 55 -175q0 -23 -3 -49h-314q10 -41 38.5 -63.5t73.5 -22.5q33 0 58 11t50 33l74 -101q-76 -63 -189 -63q-114 0 -183 62q-32 -31 -76 -46.5t-93 -15.5q-65 0 -120 27.5t-88 83.5t-33 138t33 138t88 83.5t120 27.5q49 0 93 -15.5t76 -46.5q33 31 77 46.5
t90 15.5q118 0 173 -68zM556 349q-23 -20 -32 -55h183q-12 75 -92 75q-36 0 -59 -20zM343 146q23 30 23 89q0 60 -23 89.5t-66 29.5t-66 -29.5t-23 -89.5q0 -59 23 -89t66 -30t66 30z" />
    <glyph glyph-name="p" unicode="p" horiz-adv-x="566" 
d="M59 -190v660h129l8 -43q49 57 124 57q59 0 106.5 -29t75.5 -85.5t28 -134.5t-28 -134.5t-76 -85.5t-106 -29q-33 0 -59 8t-50 24v-208h-152zM352 150q27 34 27 85t-27 85t-73 34q-41 0 -68 -27v-184q26 -27 68 -27q46 0 73 34z" />
    <glyph glyph-name="thorn" unicode="&#xfe;" horiz-adv-x="566" 
d="M426.5 455q47.5 -29 75.5 -85.5t28 -134.5t-28 -134.5t-76 -85.5t-106 -29q-33 0 -59 8t-50 24v-208h-152v920h152v-287q44 41 109 41q59 0 106.5 -29zM352 150q27 34 27 85t-27 85t-73 34q-41 0 -68 -27v-184q26 -27 68 -27q46 0 73 34z" />
    <glyph glyph-name="q" unicode="q" horiz-adv-x="567" 
d="M356 18q-46 -32 -109 -32q-58 0 -106.5 29t-76.5 85.5t-28 134.5t28 134.5t76 85.5t107 29q74 0 123 -57l8 43h130v-660h-152v208zM356 143v184q-27 27 -68 27q-46 0 -73 -34t-27 -85t27 -85t73 -34q42 0 68 27z" />
    <glyph glyph-name="r" unicode="r" horiz-adv-x="412" 
d="M59 0v470h140l11 -64q19 38 49 58t76 20q9 0 21 -1.5t17 -4.5v-145q-31 12 -68 12q-30 0 -56 -18t-39 -53v-274h-151z" />
    <glyph glyph-name="racute" unicode="&#x155;" horiz-adv-x="412" 
d="M59 0v470h140l11 -64q19 38 49 58t76 20q9 0 21 -1.5t17 -4.5v-145q-31 12 -68 12q-30 0 -56 -18t-39 -53v-274h-151zM265 546h-118l60 144h169z" />
    <glyph glyph-name="rcaron" unicode="&#x159;" horiz-adv-x="412" 
d="M59 0v470h140l11 -64q19 38 49 58t76 20q9 0 21 -1.5t17 -4.5v-145q-31 12 -68 12q-30 0 -56 -18t-39 -53v-274h-151zM251 546h-91l-114 144h112l48 -54l47 54h112z" />
    <glyph glyph-name="uni0157" unicode="&#x157;" horiz-adv-x="412" 
d="M59 0v470h140l11 -64q19 38 49 58t76 20q9 0 21 -1.5t17 -4.5v-145q-31 12 -68 12q-30 0 -56 -18t-39 -53v-274h-151zM66 -171q41 8 56 23q-23 0 -36.5 13t-13.5 35t17.5 36t45.5 14q69 0 69 -65q0 -43 -28.5 -66.5t-73.5 -33.5z" />
    <glyph glyph-name="s" unicode="s" horiz-adv-x="456" 
d="M112.5 7.5q-53.5 21.5 -89.5 64.5l90 91q52 -62 123 -62q24 0 39 9t15 25q0 18 -19.5 28t-78.5 22l-10 2q-138 28 -138 146q0 76 54.5 113.5t141.5 37.5q115 0 179 -74l-88 -86q-19 21 -45.5 33.5t-54.5 12.5q-19 0 -33.5 -7.5t-14.5 -21.5q0 -15 17 -24t63 -17l22 -4
q147 -26 147 -145q0 -80 -55.5 -122.5t-148.5 -42.5q-62 0 -115.5 21.5z" />
    <glyph glyph-name="sacute" unicode="&#x15b;" horiz-adv-x="456" 
d="M112.5 7.5q-53.5 21.5 -89.5 64.5l90 91q52 -62 123 -62q24 0 39 9t15 25q0 18 -19.5 28t-78.5 22l-10 2q-138 28 -138 146q0 76 54.5 113.5t141.5 37.5q115 0 179 -74l-88 -86q-19 21 -45.5 33.5t-54.5 12.5q-19 0 -33.5 -7.5t-14.5 -21.5q0 -15 17 -24t63 -17l22 -4
q147 -26 147 -145q0 -80 -55.5 -122.5t-148.5 -42.5q-62 0 -115.5 21.5zM287 546h-118l60 144h169z" />
    <glyph glyph-name="scaron" unicode="&#x161;" horiz-adv-x="456" 
d="M112.5 7.5q-53.5 21.5 -89.5 64.5l90 91q52 -62 123 -62q24 0 39 9t15 25q0 18 -19.5 28t-78.5 22l-10 2q-138 28 -138 146q0 76 54.5 113.5t141.5 37.5q115 0 179 -74l-88 -86q-19 21 -45.5 33.5t-54.5 12.5q-19 0 -33.5 -7.5t-14.5 -21.5q0 -15 17 -24t63 -17l22 -4
q147 -26 147 -145q0 -80 -55.5 -122.5t-148.5 -42.5q-62 0 -115.5 21.5zM273 546h-91l-114 144h112l48 -54l47 54h112z" />
    <glyph glyph-name="scedilla" unicode="&#x15f;" horiz-adv-x="456" 
d="M385.5 36q-46.5 -42 -126.5 -49l-26 -35q45 -1 71 -21t26 -57q0 -41 -28 -65t-88 -24q-50 0 -84 14l24 65q24 -7 53 -7q11 0 18 4.5t7 12.5q0 10 -6.5 14t-18.5 4q-6 0 -12.5 -1.5t-11.5 -4.5l-46 34l34 71q-93 16 -148 81l90 91q52 -62 123 -62q24 0 39 9t15 25
q0 18 -19.5 28t-78.5 22l-10 2q-138 28 -138 146q0 76 54.5 113.5t141.5 37.5q115 0 179 -74l-88 -86q-19 21 -45.5 33.5t-54.5 12.5q-19 0 -33.5 -7.5t-14.5 -21.5q0 -15 17 -24t63 -17l22 -4q147 -26 147 -145q0 -73 -46.5 -115z" />
    <glyph glyph-name="scircumflex" unicode="&#x15d;" horiz-adv-x="456" 
d="M112.5 7.5q-53.5 21.5 -89.5 64.5l90 91q52 -62 123 -62q24 0 39 9t15 25q0 18 -19.5 28t-78.5 22l-10 2q-138 28 -138 146q0 76 54.5 113.5t141.5 37.5q115 0 179 -74l-88 -86q-19 21 -45.5 33.5t-54.5 12.5q-19 0 -33.5 -7.5t-14.5 -21.5q0 -15 17 -24t63 -17l22 -4
q147 -26 147 -145q0 -80 -55.5 -122.5t-148.5 -42.5q-62 0 -115.5 21.5zM180 546h-112l114 144h91l114 -144h-112l-47 55z" />
    <glyph glyph-name="uni0219" unicode="&#x219;" horiz-adv-x="456" 
d="M112.5 7.5q-53.5 21.5 -89.5 64.5l90 91q52 -62 123 -62q24 0 39 9t15 25q0 18 -19.5 28t-78.5 22l-10 2q-138 28 -138 146q0 76 54.5 113.5t141.5 37.5q115 0 179 -74l-88 -86q-19 21 -45.5 33.5t-54.5 12.5q-19 0 -33.5 -7.5t-14.5 -21.5q0 -15 17 -24t63 -17l22 -4
q147 -26 147 -145q0 -80 -55.5 -122.5t-148.5 -42.5q-62 0 -115.5 21.5zM160 -171q41 8 56 23q-23 0 -36.5 13t-13.5 35t17.5 36t45.5 14q69 0 69 -65q0 -43 -28.5 -66.5t-73.5 -33.5z" />
    <glyph glyph-name="germandbls" unicode="&#xdf;" horiz-adv-x="586" 
d="M256 4v139q31 -22 70 -22q37 0 59.5 25.5t22.5 73.5q0 56 -30 90.5t-82 34.5h-40v123h22q35 0 57 18t22 54q0 35 -20 54.5t-55 19.5q-32 0 -51.5 -19.5t-19.5 -54.5v-540h-152v531q0 100 62 156.5t164 56.5q105 0 160.5 -48t55.5 -128q0 -107 -94 -147q68 -22 105.5 -71
t37.5 -141q0 -109 -54.5 -166t-143.5 -57q-52 0 -96 18z" />
    <glyph glyph-name="t" unicode="t" horiz-adv-x="383" 
d="M137.5 28.5q-40.5 42.5 -40.5 133.5v179h-77v129h77v119l153 43v-162h107v-129h-107v-163q0 -31 12.5 -46.5t41.5 -15.5t53 19v-126q-33 -23 -93 -23q-86 0 -126.5 42.5z" />
    <glyph glyph-name="tbar" unicode="&#x167;" horiz-adv-x="383" 
d="M357 341h-107v-49h86v-111h-86v-3q0 -31 12.5 -46.5t41.5 -15.5t53 19v-126q-33 -23 -93 -23q-86 0 -126.5 42.5t-40.5 133.5v19h-63v111h63v49h-77v129h77v119l153 43v-162h107v-129z" />
    <glyph glyph-name="tcaron" unicode="&#x165;" horiz-adv-x="383" 
d="M137.5 28.5q-40.5 42.5 -40.5 133.5v179h-77v129h77v119l153 43v-162h107v-129h-107v-163q0 -31 12.5 -46.5t41.5 -15.5t53 19v-126q-33 -23 -93 -23q-86 0 -126.5 42.5zM303 559q66 35 84 78q-38 0 -59 22t-21 59q0 36 22 58t58 22q39 0 62 -26t23 -74q0 -111 -99 -196z
" />
    <glyph glyph-name="uni0163" unicode="&#x163;" horiz-adv-x="383" 
d="M266 -48q45 -1 71 -21t26 -57q0 -41 -28 -65t-88 -24q-50 0 -84 14l24 65q24 -7 53 -7q11 0 18 4.5t7 12.5q0 10 -6.5 14t-18.5 4q-6 0 -12.5 -1.5t-11.5 -4.5l-46 34l34 72q-55 14 -81 55.5t-26 114.5v179h-77v129h77v119l153 43v-162h107v-129h-107v-163
q0 -31 12.5 -46.5t41.5 -15.5t53 19v-126q-24 -17 -65 -22z" />
    <glyph glyph-name="uni021B" unicode="&#x21b;" horiz-adv-x="383" 
d="M137.5 28.5q-40.5 42.5 -40.5 133.5v179h-77v129h77v119l153 43v-162h107v-129h-107v-163q0 -31 12.5 -46.5t41.5 -15.5t53 19v-126q-33 -23 -93 -23q-86 0 -126.5 42.5zM193 -171q41 8 56 23q-23 0 -36.5 13t-13.5 35t17.5 36t45.5 14q69 0 69 -65q0 -43 -28.5 -66.5
t-73.5 -33.5z" />
    <glyph glyph-name="u" unicode="u" horiz-adv-x="555" 
d="M95 31q-37 45 -37 119v320h152v-293q0 -28 15 -44.5t40 -16.5q26 0 47 14.5t32 34.5v305h152v-470h-142l-10 66q-44 -80 -137 -80q-75 0 -112 45z" />
    <glyph glyph-name="uacute" unicode="&#xfa;" horiz-adv-x="555" 
d="M95 31q-37 45 -37 119v320h152v-293q0 -28 15 -44.5t40 -16.5q26 0 47 14.5t32 34.5v305h152v-470h-142l-10 66q-44 -80 -137 -80q-75 0 -112 45zM336 546h-118l60 144h169z" />
    <glyph glyph-name="ubreve" unicode="&#x16d;" horiz-adv-x="555" 
d="M95 31q-37 45 -37 119v320h152v-293q0 -28 15 -44.5t40 -16.5q26 0 47 14.5t32 34.5v305h152v-470h-142l-10 66q-44 -80 -137 -80q-75 0 -112 45zM172 584.5q-41 38.5 -41 105.5h100q0 -26 12 -41.5t34 -15.5t34.5 15.5t12.5 41.5h100q0 -67 -41.5 -105.5t-105.5 -38.5
t-105 38.5z" />
    <glyph glyph-name="ucircumflex" unicode="&#xfb;" horiz-adv-x="555" 
d="M95 31q-37 45 -37 119v320h152v-293q0 -28 15 -44.5t40 -16.5q26 0 47 14.5t32 34.5v305h152v-470h-142l-10 66q-44 -80 -137 -80q-75 0 -112 45zM229 546h-112l114 144h91l114 -144h-112l-47 55z" />
    <glyph glyph-name="udieresis" unicode="&#xfc;" horiz-adv-x="555" 
d="M95 31q-37 45 -37 119v320h152v-293q0 -28 15 -44.5t40 -16.5q26 0 47 14.5t32 34.5v305h152v-470h-142l-10 66q-44 -80 -137 -80q-75 0 -112 45zM127.5 575.5q-19.5 19.5 -19.5 54.5t19.5 55t55.5 20q35 0 54.5 -20t19.5 -55t-19.5 -54.5t-54.5 -19.5q-36 0 -55.5 19.5z
M316 575.5q-20 19.5 -20 54.5t20 55t55 20t55 -20t20 -55t-20 -54.5t-55 -19.5t-55 19.5z" />
    <glyph glyph-name="uni1EE5" unicode="&#x1ee5;" horiz-adv-x="555" 
d="M95 31q-37 45 -37 119v320h152v-293q0 -28 15 -44.5t40 -16.5q26 0 47 14.5t32 34.5v305h152v-470h-142l-10 66q-44 -80 -137 -80q-75 0 -112 45zM219 -175q-21 21 -21 58q0 36 21 57t58 21q36 0 57 -21t21 -57q0 -37 -21 -58t-57 -21q-37 0 -58 21z" />
    <glyph glyph-name="ugrave" unicode="&#xf9;" horiz-adv-x="555" 
d="M95 31q-37 45 -37 119v320h152v-293q0 -28 15 -44.5t40 -16.5q26 0 47 14.5t32 34.5v305h152v-470h-142l-10 66q-44 -80 -137 -80q-75 0 -112 45zM336 546h-118l-111 144h168z" />
    <glyph glyph-name="uni1EE7" unicode="&#x1ee7;" horiz-adv-x="555" 
d="M95 31q-37 45 -37 119v320h152v-293q0 -28 15 -44.5t40 -16.5q26 0 47 14.5t32 34.5v305h152v-470h-142l-10 66q-44 -80 -137 -80q-75 0 -112 45zM263 565q10 17 10 32q0 10 -7.5 17t-19.5 7q-18 0 -35 -10l-34 72q41 24 85 24q57 0 85.5 -24t28.5 -69q0 -27 -13.5 -48
t-40.5 -43z" />
    <glyph glyph-name="uhorn" unicode="&#x1b0;" horiz-adv-x="555" 
d="M486 600h126v-50q0 -156 -116 -185v-365h-142l-10 66q-44 -80 -137 -80q-75 0 -112 45t-37 119v320h152v-293q0 -28 15 -44.5t40 -16.5q26 0 47 14.5t32 34.5v305h79q31 0 47 17t16 54v59z" />
    <glyph glyph-name="uni1EE9" unicode="&#x1ee9;" horiz-adv-x="555" 
d="M486 600h126v-50q0 -156 -116 -185v-365h-142l-10 66q-44 -80 -137 -80q-75 0 -112 45t-37 119v320h152v-293q0 -28 15 -44.5t40 -16.5q26 0 47 14.5t32 34.5v305h79q31 0 47 17t16 54v59zM336 546h-118l60 144h169z" />
    <glyph glyph-name="uni1EF1" unicode="&#x1ef1;" horiz-adv-x="555" 
d="M486 600h126v-50q0 -156 -116 -185v-365h-142l-10 66q-44 -80 -137 -80q-75 0 -112 45t-37 119v320h152v-293q0 -28 15 -44.5t40 -16.5q26 0 47 14.5t32 34.5v305h79q31 0 47 17t16 54v59zM219 -175q-21 21 -21 58q0 36 21 57t58 21q36 0 57 -21t21 -57q0 -37 -21 -58
t-57 -21q-37 0 -58 21z" />
    <glyph glyph-name="uni1EEB" unicode="&#x1eeb;" horiz-adv-x="555" 
d="M486 600h126v-50q0 -156 -116 -185v-365h-142l-10 66q-44 -80 -137 -80q-75 0 -112 45t-37 119v320h152v-293q0 -28 15 -44.5t40 -16.5q26 0 47 14.5t32 34.5v305h79q31 0 47 17t16 54v59zM336 546h-118l-111 144h168z" />
    <glyph glyph-name="uni1EED" unicode="&#x1eed;" horiz-adv-x="555" 
d="M486 600h126v-50q0 -156 -116 -185v-365h-142l-10 66q-44 -80 -137 -80q-75 0 -112 45t-37 119v320h152v-293q0 -28 15 -44.5t40 -16.5q26 0 47 14.5t32 34.5v305h79q31 0 47 17t16 54v59zM263 565q10 17 10 32q0 10 -7.5 17t-19.5 7q-18 0 -35 -10l-34 72q41 24 85 24
q57 0 85.5 -24t28.5 -69q0 -27 -13.5 -48t-40.5 -43z" />
    <glyph glyph-name="uni1EEF" unicode="&#x1eef;" horiz-adv-x="555" 
d="M486 600h126v-50q0 -156 -116 -185v-365h-142l-10 66q-44 -80 -137 -80q-75 0 -112 45t-37 119v320h152v-293q0 -28 15 -44.5t40 -16.5q26 0 47 14.5t32 34.5v305h79q31 0 47 17t16 54v59zM311 578q-17 5 -40 15q-16 8 -27 11.5t-22 3.5q-22 0 -35.5 -6.5t-28.5 -26.5
l-54 51q38 78 114 78q23 0 38.5 -4t35.5 -13q28 -13 49 -13q22 0 33.5 5.5t30.5 27.5l43 -67q-18 -36 -38.5 -51.5t-59.5 -15.5q-22 0 -39 5z" />
    <glyph glyph-name="uhungarumlaut" unicode="&#x171;" horiz-adv-x="555" 
d="M95 31q-37 45 -37 119v320h152v-293q0 -28 15 -44.5t40 -16.5q26 0 47 14.5t32 34.5v305h152v-470h-142l-10 66q-44 -80 -137 -80q-75 0 -112 45zM226 546h-105l42 144h143zM425 546h-105l42 144h144z" />
    <glyph glyph-name="umacron" unicode="&#x16b;" horiz-adv-x="555" 
d="M95 31q-37 45 -37 119v320h152v-293q0 -28 15 -44.5t40 -16.5q26 0 47 14.5t32 34.5v305h152v-470h-142l-10 66q-44 -80 -137 -80q-75 0 -112 45zM410 581h-267v109h267v-109z" />
    <glyph glyph-name="uogonek" unicode="&#x173;" horiz-adv-x="555" 
d="M505 -184q-19 -12 -59 -12q-45 0 -72.5 26t-27.5 68q0 35 11 59.5t33 42.5h-36l-10 66q-44 -80 -137 -80q-75 0 -112 45t-37 119v320h152v-293q0 -28 15 -44.5t40 -16.5q26 0 47 14.5t32 34.5v305h152v-470q-51 -35 -51 -76q0 -13 7.5 -21t17.5 -8q11 0 23 6z" />
    <glyph glyph-name="uring" unicode="&#x16f;" horiz-adv-x="555" 
d="M95 31q-37 45 -37 119v320h152v-293q0 -28 15 -44.5t40 -16.5q26 0 47 14.5t32 34.5v305h152v-470h-142l-10 66q-44 -80 -137 -80q-75 0 -112 45zM206 559q-29 27 -29 71t29 71t71 27t71 -27t29 -71t-29 -71t-71 -27t-71 27zM301.5 603q8.5 10 8.5 27t-8.5 27t-24.5 10
q-15 0 -23.5 -10t-8.5 -27t8.5 -27t23.5 -10q16 0 24.5 10z" />
    <glyph glyph-name="utilde" unicode="&#x169;" horiz-adv-x="555" 
d="M95 31q-37 45 -37 119v320h152v-293q0 -28 15 -44.5t40 -16.5q26 0 47 14.5t32 34.5v305h152v-470h-142l-10 66q-44 -80 -137 -80q-75 0 -112 45zM311 578q-17 5 -40 15q-16 8 -27 11.5t-22 3.5q-22 0 -35.5 -6.5t-28.5 -26.5l-54 51q38 78 114 78q23 0 38.5 -4t35.5 -13
q28 -13 49 -13q22 0 33.5 5.5t30.5 27.5l43 -67q-18 -36 -38.5 -51.5t-59.5 -15.5q-22 0 -39 5z" />
    <glyph glyph-name="v" unicode="v" horiz-adv-x="512" 
d="M347 0h-182l-154 470h163l82 -307l81 307h164z" />
    <glyph glyph-name="w" unicode="w" horiz-adv-x="766" 
d="M305 0h-169l-125 470h152l68 -295l73 295h157l74 -295l67 295h153l-125 -470h-170l-77 289z" />
    <glyph glyph-name="wacute" unicode="&#x1e83;" horiz-adv-x="766" 
d="M305 0h-169l-125 470h152l68 -295l73 295h157l74 -295l67 295h153l-125 -470h-170l-77 289zM442 546h-118l60 144h169z" />
    <glyph glyph-name="wcircumflex" unicode="&#x175;" horiz-adv-x="766" 
d="M305 0h-169l-125 470h152l68 -295l73 295h157l74 -295l67 295h153l-125 -470h-170l-77 289zM335 546h-112l114 144h91l114 -144h-112l-47 55z" />
    <glyph glyph-name="wdieresis" unicode="&#x1e85;" horiz-adv-x="766" 
d="M305 0h-169l-125 470h152l68 -295l73 295h157l74 -295l67 295h153l-125 -470h-170l-77 289zM233.5 575.5q-19.5 19.5 -19.5 54.5t19.5 55t55.5 20q35 0 54.5 -20t19.5 -55t-19.5 -54.5t-54.5 -19.5q-36 0 -55.5 19.5zM422 575.5q-20 19.5 -20 54.5t20 55t55 20t55 -20
t20 -55t-20 -54.5t-55 -19.5t-55 19.5z" />
    <glyph glyph-name="wgrave" unicode="&#x1e81;" horiz-adv-x="766" 
d="M305 0h-169l-125 470h152l68 -295l73 295h157l74 -295l67 295h153l-125 -470h-170l-77 289zM442 546h-118l-111 144h168z" />
    <glyph glyph-name="x" unicode="x" horiz-adv-x="521" 
d="M179 0h-171l168 250l-155 220h175l64 -113l65 113h175l-157 -220l170 -250h-172l-80 138z" />
    <glyph glyph-name="y" unicode="y" horiz-adv-x="502" 
d="M13 -183v129q33 -16 64 -16q32 0 48.5 19.5t32.5 59.5l18 47l-166 414h159l80 -223l85 223h157l-222 -539q-25 -61 -69.5 -96t-96.5 -35q-60 0 -90 17z" />
    <glyph glyph-name="yacute" unicode="&#xfd;" horiz-adv-x="502" 
d="M13 -183v129q33 -16 64 -16q32 0 48.5 19.5t32.5 59.5l18 47l-166 414h159l80 -223l85 223h157l-222 -539q-25 -61 -69.5 -96t-96.5 -35q-60 0 -90 17zM310 546h-118l60 144h169z" />
    <glyph glyph-name="ycircumflex" unicode="&#x177;" horiz-adv-x="502" 
d="M13 -183v129q33 -16 64 -16q32 0 48.5 19.5t32.5 59.5l18 47l-166 414h159l80 -223l85 223h157l-222 -539q-25 -61 -69.5 -96t-96.5 -35q-60 0 -90 17zM203 546h-112l114 144h91l114 -144h-112l-47 55z" />
    <glyph glyph-name="ydieresis" unicode="&#xff;" horiz-adv-x="502" 
d="M13 -183v129q33 -16 64 -16q32 0 48.5 19.5t32.5 59.5l18 47l-166 414h159l80 -223l85 223h157l-222 -539q-25 -61 -69.5 -96t-96.5 -35q-60 0 -90 17zM101.5 575.5q-19.5 19.5 -19.5 54.5t19.5 55t55.5 20q35 0 54.5 -20t19.5 -55t-19.5 -54.5t-54.5 -19.5
q-36 0 -55.5 19.5zM290 575.5q-20 19.5 -20 54.5t20 55t55 20t55 -20t20 -55t-20 -54.5t-55 -19.5t-55 19.5z" />
    <glyph glyph-name="uni1EF5" unicode="&#x1ef5;" horiz-adv-x="502" 
d="M13 -183v129q33 -16 64 -16q32 0 48.5 19.5t32.5 59.5l18 47l-166 414h159l80 -223l85 223h157l-222 -539q-25 -61 -69.5 -96t-96.5 -35q-60 0 -90 17zM323 -175q-21 21 -21 58q0 36 21 57t58 21q36 0 57 -21t21 -57q0 -37 -21 -58t-57 -21q-37 0 -58 21z" />
    <glyph glyph-name="ygrave" unicode="&#x1ef3;" horiz-adv-x="502" 
d="M13 -183v129q33 -16 64 -16q32 0 48.5 19.5t32.5 59.5l18 47l-166 414h159l80 -223l85 223h157l-222 -539q-25 -61 -69.5 -96t-96.5 -35q-60 0 -90 17zM310 546h-118l-111 144h168z" />
    <glyph glyph-name="uni1EF7" unicode="&#x1ef7;" horiz-adv-x="502" 
d="M13 -183v129q33 -16 64 -16q32 0 48.5 19.5t32.5 59.5l18 47l-166 414h159l80 -223l85 223h157l-222 -539q-25 -61 -69.5 -96t-96.5 -35q-60 0 -90 17zM237 565q10 17 10 32q0 10 -7.5 17t-19.5 7q-18 0 -35 -10l-34 72q41 24 85 24q57 0 85.5 -24t28.5 -69
q0 -27 -13.5 -48t-40.5 -43z" />
    <glyph glyph-name="uni1EF9" unicode="&#x1ef9;" horiz-adv-x="502" 
d="M13 -183v129q33 -16 64 -16q32 0 48.5 19.5t32.5 59.5l18 47l-166 414h159l80 -223l85 223h157l-222 -539q-25 -61 -69.5 -96t-96.5 -35q-60 0 -90 17zM285 578q-17 5 -40 15q-16 8 -27 11.5t-22 3.5q-22 0 -35.5 -6.5t-28.5 -26.5l-54 51q38 78 114 78q23 0 38.5 -4
t35.5 -13q28 -13 49 -13q22 0 33.5 5.5t30.5 27.5l43 -67q-18 -36 -38.5 -51.5t-59.5 -15.5q-22 0 -39 5z" />
    <glyph glyph-name="z" unicode="z" horiz-adv-x="471" 
d="M434 0h-397v128l204 213h-192v129h373v-122l-203 -219h215v-129z" />
    <glyph glyph-name="zacute" unicode="&#x17a;" horiz-adv-x="471" 
d="M434 0h-397v128l204 213h-192v129h373v-122l-203 -219h215v-129zM295 546h-118l60 144h169z" />
    <glyph glyph-name="zcaron" unicode="&#x17e;" horiz-adv-x="471" 
d="M434 0h-397v128l204 213h-192v129h373v-122l-203 -219h215v-129zM281 546h-91l-114 144h112l48 -54l47 54h112z" />
    <glyph glyph-name="zdotaccent" unicode="&#x17c;" horiz-adv-x="471" 
d="M434 0h-397v128l204 213h-192v129h373v-122l-203 -219h215v-129zM170 561q-24 24 -24 65t24 65.5t66 24.5t65.5 -24t23.5 -66q0 -41 -23.5 -65t-65.5 -24t-66 24z" />
    <glyph glyph-name="uni01B6" unicode="&#x1b6;" horiz-adv-x="471" 
d="M278 193l-59 -64h215v-129h-397v128l62 65h-34v111h141l35 37h-192v129h373v-122l-41 -44h24v-111h-127z" />
    <glyph glyph-name="glyph366" horiz-adv-x="534" 
d="M325 470h192l-183 -181l181 -289h-170l-113 189l-21 -20v-169h-152v730h152v-375z" />
    <glyph glyph-name="glyph367" horiz-adv-x="534" 
d="M325 470h192l-183 -181l181 -289h-170l-113 189l-21 -20v-169h-152v730h152v-375zM204 -171q41 8 56 23q-23 0 -36.5 13t-13.5 35t17.5 36t45.5 14q69 0 69 -65q0 -43 -28.5 -66.5t-73.5 -33.5z" />
    <glyph glyph-name="glyph368" horiz-adv-x="534" 
d="M325 470h192l-183 -181l181 -289h-170l-113 189l-21 -20v-169h-152v470h152v-115z" />
    <glyph glyph-name="glyph369" horiz-adv-x="270" 
d="M211 0h-152v730h152v-730z" />
    <glyph glyph-name="glyph370" horiz-adv-x="270" 
d="M211 0h-152v730h152v-730zM194 806h-118l60 144h169z" />
    <glyph glyph-name="glyph371" horiz-adv-x="270" 
d="M211 0h-152v730h152v-730zM269 459q66 35 84 78q-38 0 -59 22t-21 59q0 36 22 58t58 22q39 0 62 -26t23 -74q0 -111 -99 -196z" />
    <glyph glyph-name="glyph372" horiz-adv-x="270" 
d="M211 0h-152v730h152v-730zM67 -171q41 8 56 23q-23 0 -36.5 13t-13.5 35t17.5 36t45.5 14q69 0 69 -65q0 -43 -28.5 -66.5t-73.5 -33.5z" />
    <glyph glyph-name="glyph373" horiz-adv-x="430" 
d="M211 0h-152v730h152v-730zM280.5 275.5q-26.5 26.5 -26.5 69.5q0 44 26.5 70t69.5 26t69.5 -26.5t26.5 -69.5t-26.5 -69.5t-69.5 -26.5t-69.5 26.5z" />
    <glyph glyph-name="glyph374" horiz-adv-x="293" 
d="M224 420l55 35v-148l-55 -35v-272h-152v175l-57 -36v148l57 36v407h152v-310z" />
    <glyph glyph-name="uniFB01" unicode="&#xfb01;" horiz-adv-x="647" 
d="M90 0v341h-69v129h69v90q0 92 53 138t139 46q26 0 42.5 -3t37.5 -10v-132q-31 15 -60 15q-30 0 -45 -16.5t-15 -44.5v-83h116v-129h-116v-341h-152zM447 561q-24 24 -24 65t24 65.5t66 24.5t65.5 -24t23.5 -66q0 -41 -23.5 -65t-65.5 -24t-66 24zM589 0h-152v470h152
v-470z" />
    <glyph glyph-name="uniFB02" unicode="&#xfb02;" horiz-adv-x="691" 
d="M90 0v341h-69v129h69v90q0 92 53 138t139 46q26 0 42.5 -3t37.5 -10v-132q-31 15 -60 15q-30 0 -45 -16.5t-15 -44.5v-83h116v-129h-116v-341h-152zM477 30.5q-40 44.5 -40 142.5v557h152v-550q0 -32 11 -46t36 -14q18 0 30 8v-127q-22 -15 -68 -15q-81 0 -121 44.5z" />
    <glyph glyph-name="glyph379" horiz-adv-x="648" 
d="M90 0v341h-69v129h69v90q0 92 53 138t139 46q26 0 42.5 -3t37.5 -10v-132q-31 15 -60 15q-30 0 -45 -16.5t-15 -44.5v-83h116v-129h-116v-341h-152zM589 0h-152v730h152v-730z" />
    <glyph glyph-name="glyph380" horiz-adv-x="648" 
d="M90 0v341h-69v129h69v90q0 92 53 138t139 46q26 0 42.5 -3t37.5 -10v-132q-31 15 -60 15q-30 0 -45 -16.5t-15 -44.5v-83h116v-129h-116v-341h-152zM589 0h-152v730h152v-730z" />
    <glyph glyph-name="ordfeminine" unicode="&#xaa;" horiz-adv-x="376" 
d="M297.5 660q37.5 -37 37.5 -106v-196h-110l-7 30q-2 -2 -12.5 -13t-30 -19t-44.5 -8q-45 0 -72 28t-27 74q0 55 49.5 82t136.5 28q-2 20 -15.5 31.5t-36.5 11.5q-46 0 -78 -29l-55 67q55 56 144 56q83 0 120.5 -37zM218 456v38q-38 -2 -55.5 -12t-17.5 -25q0 -11 7 -17
t18 -6q28 0 48 22z" />
    <glyph glyph-name="ordmasculine" unicode="&#xba;" horiz-adv-x="392" 
d="M74 392.5q-50 44.5 -50 130.5t50 130t122 44t122 -44t50 -130t-50 -130.5t-122 -44.5t-122 44.5zM251 523q0 74 -55 74t-55 -74t55 -74t55 74z" />
    <glyph glyph-name="glyph383" horiz-adv-x="707" 
d="M52 0v145h113v16q-64 37 -98.5 106.5t-34.5 154.5q0 87 40 150.5t112.5 97.5t168.5 34q97 0 169.5 -34t112.5 -97.5t40 -150.5q0 -85 -35 -154.5t-98 -106.5v-16h113v-145h-267v209q59 21 92.5 71.5t33.5 123.5q0 71 -41.5 113t-119.5 42t-119 -41.5t-41 -113.5
q0 -73 33 -123.5t92 -71.5v-209h-266z" />
    <glyph glyph-name="zero" unicode="0" horiz-adv-x="603" 
d="M167 25q-61 39 -97.5 120t-36.5 200t36.5 200t97.5 120t135 39t134.5 -39t97 -120t36.5 -200t-36.5 -200t-97 -120t-134.5 -39t-135 39zM384 175.5q27 50.5 27 169.5t-27 169.5t-82 50.5t-82.5 -50.5t-27.5 -169.5t27.5 -169.5t82.5 -50.5t82 50.5z" />
    <glyph glyph-name="one" unicode="1" horiz-adv-x="426" 
d="M197 503q-23 -54 -66 -79t-102 -32v183q55 7 104 39t64 76h164v-690h-164v503z" />
    <glyph glyph-name="two" unicode="2" horiz-adv-x="560" 
d="M529 139v-139h-484v43q0 94 31 155t72.5 93t115.5 75q64 37 83 66.5t19 61.5t-24 52t-66 20q-38 0 -69 -26t-50 -74l-127 75q64 163 255 163q116 0 178 -57t62 -158q0 -71 -40.5 -127t-139.5 -113q-53 -30 -83.5 -56t-39.5 -54h307z" />
    <glyph glyph-name="three" unicode="3" horiz-adv-x="576" 
d="M114 36.5q-68 50.5 -85 131.5l142 60q15 -51 45 -77t69 -26q43 0 69 21.5t26 60.5q0 75 -100 75h-48v131h45q40 0 65.5 20t25.5 60q0 31 -24 51t-63 20q-80 0 -107 -74l-136 58q26 73 85.5 114t156.5 41q119 0 183 -51.5t64 -142.5q0 -50 -21 -85t-64 -60
q46 -21 71.5 -60t25.5 -103q0 -97 -65.5 -156t-189.5 -59q-102 0 -170 50.5z" />
    <glyph glyph-name="four" unicode="4" horiz-adv-x="598" 
d="M508 252h74v-132h-74v-120h-148v120h-342v132l297 438h193v-438zM360 526l-178 -274h178v274z" />
    <glyph glyph-name="five" unicode="5" horiz-adv-x="571" 
d="M116.5 26q-61.5 40 -83.5 108l131 66q32 -78 114 -78q48 0 74.5 28.5t26.5 75.5q0 48 -26 76t-76 28q-33 0 -60 -14.5t-44 -39.5l-124 31l52 383h412v-145h-293l-17 -129q39 46 123 46q99 0 155.5 -62.5t56.5 -167.5q0 -113 -67 -179.5t-199 -66.5q-94 0 -155.5 40z" />
    <glyph glyph-name="six" unicode="6" horiz-adv-x="569" 
d="M429.5 427.5q48.5 -27.5 78 -80.5t29.5 -124q0 -67 -29.5 -121t-86 -85t-136.5 -31q-78 0 -135.5 30t-87.5 81t-30 115q0 62 17.5 111.5t54.5 105.5l175 261h190l-168 -237q16 2 23 2q57 0 105.5 -27.5zM354 148q25 27 25 73t-25 74.5t-69 28.5q-45 0 -70 -28.5
t-25 -74.5t25 -73t70 -27q44 0 69 27z" />
    <glyph glyph-name="seven" unicode="7" horiz-adv-x="541" 
d="M154 0q-1 12 -1 37q0 146 52 273t146 234h-319v146h484v-146q-92 -83 -141 -212.5t-49 -281.5q0 -33 1 -50h-173z" />
    <glyph glyph-name="eight" unicode="8" horiz-adv-x="579" 
d="M156 12.5q-58 26.5 -89.5 74.5t-31.5 111q0 61 31.5 105t76.5 63q-44 24 -67 60.5t-23 81.5q0 88 62 142t175 54t174.5 -54t61.5 -142q0 -45 -23 -81.5t-67 -60.5q45 -19 76.5 -63.5t31.5 -104.5q0 -63 -31.5 -111t-89 -74.5t-133.5 -26.5t-134 26.5zM354.5 433.5
q24.5 23.5 24.5 60.5t-24.5 60.5t-64.5 23.5q-41 0 -65.5 -23.5t-24.5 -60.5t24.5 -60.5t65.5 -23.5q40 0 64.5 23.5zM363 138.5q27 25.5 27 67.5q0 41 -27 66.5t-73 25.5t-73.5 -25t-27.5 -67t27.5 -67.5t73.5 -25.5t73 25.5z" />
    <glyph glyph-name="nine" unicode="9" horiz-adv-x="569" 
d="M419.5 674.5q57.5 -29.5 87.5 -80.5t30 -115q0 -59 -20 -110.5t-54 -105.5l-165 -263h-189l163 239q-13 -3 -27 -3q-57 0 -105.5 27.5t-78 80t-29.5 123.5q0 68 29.5 121.5t86.5 84.5t136 31q78 0 135.5 -29.5zM354 395q25 28 25 74t-25 73t-70 27q-44 0 -69 -27t-25 -73
t25 -74t69 -28q45 0 70 28z" />
    <glyph glyph-name="glyph394" horiz-adv-x="603" 
d="M436.5 665q60.5 -39 97 -120t36.5 -200t-36.5 -200t-97 -120t-134.5 -39t-135 39t-97.5 120t-36.5 200t36.5 200t97.5 120t135 39t134.5 -39zM219.5 514.5q-27.5 -50.5 -27.5 -169.5q0 -33 1 -47l162 252q-23 15 -53 15q-55 0 -82.5 -50.5zM384 175.5q27 50.5 27 169.5
q0 31 -1 46l-161 -251q23 -15 53 -15q55 0 82 50.5z" />
    <glyph glyph-name="glyph395" horiz-adv-x="600" 
d="M165 25q-61 39 -97.5 120t-36.5 200t36.5 200t97.5 120t135 39t134.5 -39t97 -120t36.5 -200t-36.5 -200t-97 -120t-134.5 -39t-135 39zM382 175.5q27 50.5 27 169.5t-27 169.5t-82 50.5t-82.5 -50.5t-27.5 -169.5t27.5 -169.5t82.5 -50.5t82 50.5z" />
    <glyph glyph-name="glyph396" horiz-adv-x="600" 
d="M387 139h173v-139h-516v139h179v364q-23 -54 -66 -79t-102 -32v183q55 7 104 39t64 76h164v-551z" />
    <glyph glyph-name="glyph397" horiz-adv-x="600" 
d="M548 139v-139h-484v43q0 94 31 155t72.5 93t115.5 75q64 37 83 66.5t19 61.5t-24 52t-66 20q-38 0 -69 -26t-50 -74l-127 75q64 163 255 163q116 0 178 -57t62 -158q0 -71 -40.5 -127t-139.5 -113q-53 -30 -83.5 -56t-39.5 -54h307z" />
    <glyph glyph-name="glyph398" horiz-adv-x="600" 
d="M131 36.5q-68 50.5 -85 131.5l142 60q15 -51 45 -77t69 -26q43 0 69 21.5t26 60.5q0 75 -100 75h-48v131h45q40 0 65.5 20t25.5 60q0 31 -24 51t-63 20q-80 0 -107 -74l-136 58q26 73 85.5 114t156.5 41q119 0 183 -51.5t64 -142.5q0 -50 -21 -85t-64 -60
q46 -21 71.5 -60t25.5 -103q0 -97 -65.5 -156t-189.5 -59q-102 0 -170 50.5z" />
    <glyph glyph-name="glyph399" horiz-adv-x="600" 
d="M508 252h74v-132h-74v-120h-148v120h-342v132l297 438h193v-438zM360 526l-178 -274h178v274z" />
    <glyph glyph-name="glyph400" horiz-adv-x="600" 
d="M144.5 26q-61.5 40 -83.5 108l131 66q32 -78 114 -78q48 0 74.5 28.5t26.5 75.5q0 48 -26 76t-76 28q-33 0 -60 -14.5t-44 -39.5l-124 31l52 383h412v-145h-293l-17 -129q39 46 123 46q99 0 155.5 -62.5t56.5 -167.5q0 -113 -67 -179.5t-199 -66.5q-94 0 -155.5 40z" />
    <glyph glyph-name="glyph401" horiz-adv-x="600" 
d="M444.5 427.5q48.5 -27.5 78 -80.5t29.5 -124q0 -67 -29.5 -121t-86 -85t-136.5 -31q-78 0 -135.5 30t-87.5 81t-30 115q0 62 17.5 111.5t54.5 105.5l175 261h190l-168 -237q16 2 23 2q57 0 105.5 -27.5zM369 148q25 27 25 73t-25 74.5t-69 28.5q-45 0 -70 -28.5
t-25 -74.5t25 -73t70 -27q44 0 69 27z" />
    <glyph glyph-name="glyph402" horiz-adv-x="600" 
d="M195 0q-1 12 -1 37q0 146 52 273t146 234h-319v146h484v-146q-92 -83 -141 -212.5t-49 -281.5q0 -33 1 -50h-173z" />
    <glyph glyph-name="glyph403" horiz-adv-x="600" 
d="M167 12.5q-58 26.5 -89.5 74.5t-31.5 111q0 61 31.5 105t76.5 63q-44 24 -67 60.5t-23 81.5q0 88 62 142t175 54t174.5 -54t61.5 -142q0 -45 -23 -81.5t-67 -60.5q45 -19 76.5 -63.5t31.5 -104.5q0 -63 -31.5 -111t-89 -74.5t-133.5 -26.5t-134 26.5zM365.5 433.5
q24.5 23.5 24.5 60.5t-24.5 60.5t-64.5 23.5q-41 0 -65.5 -23.5t-24.5 -60.5t24.5 -60.5t65.5 -23.5q40 0 64.5 23.5zM374 138.5q27 25.5 27 67.5q0 41 -27 66.5t-73 25.5t-73.5 -25t-27.5 -67t27.5 -67.5t73.5 -25.5t73 25.5z" />
    <glyph glyph-name="glyph404" horiz-adv-x="600" 
d="M435.5 674.5q57.5 -29.5 87.5 -80.5t30 -115q0 -59 -20 -110.5t-54 -105.5l-165 -263h-189l163 239q-13 -3 -27 -3q-57 0 -105.5 27.5t-78 80t-29.5 123.5q0 68 29.5 121.5t86.5 84.5t136 31q78 0 135.5 -29.5zM370 395q25 28 25 74t-25 73t-70 27q-44 0 -69 -27t-25 -73
t25 -74t69 -28q45 0 70 28z" />
    <glyph glyph-name="glyph405" horiz-adv-x="600" 
d="M435.5 665q60.5 -39 97 -120t36.5 -200t-36.5 -200t-97 -120t-134.5 -39t-135 39t-97.5 120t-36.5 200t36.5 200t97.5 120t135 39t134.5 -39zM218.5 514.5q-27.5 -50.5 -27.5 -169.5q0 -33 1 -47l162 252q-23 15 -53 15q-55 0 -82.5 -50.5zM383 175.5q27 50.5 27 169.5
q0 31 -1 46l-161 -251q23 -15 53 -15q55 0 82 50.5z" />
    <glyph glyph-name="uni2080" unicode="&#x2080;" horiz-adv-x="354" 
d="M63 -58.5q-46 49.5 -46 148.5q0 98 46.5 147.5t113.5 49.5q68 0 114 -49.5t46 -147.5q0 -99 -46 -148.5t-114 -49.5t-114 49.5zM215 8.5q13 22.5 13 81.5q0 58 -13 80.5t-38 22.5t-38 -22.5t-13 -80.5t13 -81t38 -23t38 22.5z" />
    <glyph glyph-name="uni2081" unicode="&#x2081;" horiz-adv-x="259" 
d="M116 156q-31 -60 -100 -76v122q36 9 61 27t39 51h110v-380h-110v256z" />
    <glyph glyph-name="uni2082" unicode="&#x2082;" horiz-adv-x="310" 
d="M166.5 18q-14.5 -11 -21.5 -23h152v-95h-274v35q0 75 28.5 113t83.5 63q32 15 44 25.5t12 26.5q0 15 -10 23t-25 8q-37 0 -56 -44l-86 50q18 42 53.5 64.5t92.5 22.5q65 0 101.5 -32t36.5 -90q0 -40 -22 -70.5t-79 -58.5q-16 -7 -30.5 -18z" />
    <glyph glyph-name="uni2083" unicode="&#x2083;" horiz-adv-x="319" 
d="M61 -80.5q-39 27.5 -49 73.5l93 38q14 -48 53 -48q17 0 28 10t11 26q0 35 -46 35h-20v76h20q42 0 42 36q0 13 -10.5 21.5t-27.5 8.5q-37 0 -50 -32l-89 35q16 39 50 63.5t89 24.5q68 0 105 -29t37 -80q0 -48 -45 -77q24 -15 37 -35t13 -54q0 -54 -37 -87t-108 -33
q-57 0 -96 27.5z" />
    <glyph glyph-name="uni2084" unicode="&#x2084;" horiz-adv-x="334" 
d="M295 45h32v-88h-32v-57h-98v57h-189v88l160 235h127v-235zM197 170l-80 -125h80v125z" />
    <glyph glyph-name="uni2085" unicode="&#x2085;" horiz-adv-x="307" 
d="M55.5 -85q-34.5 23 -45.5 63l88 41q13 -37 50 -37q20 0 31.5 12.5t11.5 32.5q0 22 -11.5 34t-33.5 12q-31 0 -51 -29l-79 17l28 219h239v-96h-159l-7 -48q20 22 64 22q56 0 86 -35t30 -93q0 -65 -37.5 -101.5t-116.5 -36.5q-53 0 -87.5 23z" />
    <glyph glyph-name="uni2086" unicode="&#x2086;" horiz-adv-x="315" 
d="M265.5 119.5q34.5 -33.5 34.5 -94.5q0 -59 -36.5 -96t-105.5 -37q-67 0 -105 37t-38 89q0 37 11 65t34 63l90 134h127l-92 -127q46 0 80.5 -33.5zM187 -8q10 12 10 32t-10 32.5t-29 12.5q-20 0 -30.5 -12.5t-10.5 -32.5t10.5 -32t30.5 -12q19 0 29 12z" />
    <glyph glyph-name="uni2087" unicode="&#x2087;" horiz-adv-x="286" 
d="M66 -100q0 168 103 285h-161v95h273v-95q-51 -56 -76 -124t-25 -161h-114z" />
    <glyph glyph-name="uni2088" unicode="&#x2088;" horiz-adv-x="326" 
d="M57 -75.5q-40 32.5 -40 87.5q0 33 16.5 56.5t36.5 32.5q-45 29 -45 75q0 50 35.5 80.5t102.5 30.5t102.5 -30.5t35.5 -80.5q0 -46 -45 -75q20 -10 36.5 -34t16.5 -56q0 -54 -40.5 -86.5t-105.5 -32.5q-66 0 -106 32.5zM191.5 139q11.5 11 11.5 28q0 16 -11.5 27t-28.5 11
t-28.5 -11t-11.5 -27q0 -17 11 -28t29 -11q17 0 28.5 11zM194.5 -13q11.5 12 11.5 30t-11.5 29t-31.5 11t-31.5 -11t-11.5 -29t11.5 -30t31.5 -12t31.5 12z" />
    <glyph glyph-name="uni2089" unicode="&#x2089;" horiz-adv-x="312" 
d="M262 251q38 -36 38 -89q0 -37 -11 -66t-33 -61l-92 -135h-127l94 126h-1q-29 0 -55.5 15t-43 43.5t-16.5 69.5q0 59 36.5 96t106.5 37q66 0 104 -36zM187 123.5q10 12.5 10 32.5t-10 32t-29 12t-29 -12t-10 -32t10 -32.5t29 -12.5t29 12.5z" />
    <glyph glyph-name="zero.dnom" horiz-adv-x="354" 
d="M63 41.5q-46 49.5 -46 148.5q0 98 46.5 147.5t113.5 49.5q68 0 114 -49.5t46 -147.5q0 -99 -46 -148.5t-114 -49.5t-114 49.5zM215 108.5q13 22.5 13 81.5q0 58 -13 80.5t-38 22.5t-38 -22.5t-13 -80.5t13 -81t38 -23t38 22.5z" />
    <glyph glyph-name="one.dnom" horiz-adv-x="259" 
d="M116 256q-31 -60 -100 -76v122q36 9 61 27t39 51h110v-380h-110v256z" />
    <glyph glyph-name="two.dnom" horiz-adv-x="310" 
d="M166.5 118q-14.5 -11 -21.5 -23h152v-95h-274v35q0 75 28.5 113t83.5 63q32 15 44 25.5t12 26.5q0 15 -10 23t-25 8q-37 0 -56 -44l-86 50q18 42 53.5 64.5t92.5 22.5q65 0 101.5 -32t36.5 -90q0 -40 -22 -70.5t-79 -58.5q-16 -7 -30.5 -18z" />
    <glyph glyph-name="three.dnom" horiz-adv-x="319" 
d="M61 19.5q-39 27.5 -49 73.5l93 38q14 -48 53 -48q17 0 28 10t11 26q0 35 -46 35h-20v76h20q42 0 42 36q0 13 -10.5 21.5t-27.5 8.5q-37 0 -50 -32l-89 35q16 39 50 63.5t89 24.5q68 0 105 -29t37 -80q0 -48 -45 -77q24 -15 37 -35t13 -54q0 -54 -37 -87t-108 -33
q-57 0 -96 27.5z" />
    <glyph glyph-name="four.dnom" horiz-adv-x="334" 
d="M295 145h32v-88h-32v-57h-98v57h-189v88l160 235h127v-235zM197 270l-80 -125h80v125z" />
    <glyph glyph-name="five.dnom" horiz-adv-x="307" 
d="M55.5 15q-34.5 23 -45.5 63l88 41q13 -37 50 -37q20 0 31.5 12.5t11.5 32.5q0 22 -11.5 34t-33.5 12q-31 0 -51 -29l-79 17l28 219h239v-96h-159l-7 -48q20 22 64 22q56 0 86 -35t30 -93q0 -65 -37.5 -101.5t-116.5 -36.5q-53 0 -87.5 23z" />
    <glyph glyph-name="six.dnom" horiz-adv-x="315" 
d="M265.5 219.5q34.5 -33.5 34.5 -94.5q0 -59 -36.5 -96t-105.5 -37q-67 0 -105 37t-38 89q0 37 11 65t34 63l90 134h127l-92 -127q46 0 80.5 -33.5zM187 92q10 12 10 32t-10 32.5t-29 12.5q-20 0 -30.5 -12.5t-10.5 -32.5t10.5 -32t30.5 -12q19 0 29 12z" />
    <glyph glyph-name="seven.dnom" horiz-adv-x="286" 
d="M66 0q0 168 103 285h-161v95h273v-95q-51 -56 -76 -124t-25 -161h-114z" />
    <glyph glyph-name="eight.dnom" horiz-adv-x="326" 
d="M57 24.5q-40 32.5 -40 87.5q0 33 16.5 56.5t36.5 32.5q-45 29 -45 75q0 50 35.5 80.5t102.5 30.5t102.5 -30.5t35.5 -80.5q0 -46 -45 -75q20 -10 36.5 -34t16.5 -56q0 -54 -40.5 -86.5t-105.5 -32.5q-66 0 -106 32.5zM191.5 239q11.5 11 11.5 28q0 16 -11.5 27t-28.5 11
t-28.5 -11t-11.5 -27q0 -17 11 -28t29 -11q17 0 28.5 11zM194.5 87q11.5 12 11.5 30t-11.5 29t-31.5 11t-31.5 -11t-11.5 -29t11.5 -30t31.5 -12t31.5 12z" />
    <glyph glyph-name="nine.dnom" horiz-adv-x="312" 
d="M262 351q38 -36 38 -89q0 -37 -11 -66t-33 -61l-92 -135h-127l94 126h-1q-29 0 -55.5 15t-43 43.5t-16.5 69.5q0 59 36.5 96t106.5 37q66 0 104 -36zM187 223.5q10 12.5 10 32.5t-10 32t-29 12t-29 -12t-10 -32t10 -32.5t29 -12.5t29 12.5z" />
    <glyph glyph-name="zero.numr" horiz-adv-x="354" 
d="M63 351.5q-46 49.5 -46 148.5q0 98 46.5 147.5t113.5 49.5q68 0 114 -49.5t46 -147.5q0 -99 -46 -148.5t-114 -49.5t-114 49.5zM215 418.5q13 22.5 13 81.5q0 58 -13 80.5t-38 22.5t-38 -22.5t-13 -80.5t13 -81t38 -23t38 22.5z" />
    <glyph glyph-name="one.numr" horiz-adv-x="259" 
d="M116 566q-31 -60 -100 -76v122q36 9 61 27t39 51h110v-380h-110v256z" />
    <glyph glyph-name="two.numr" horiz-adv-x="310" 
d="M166.5 428q-14.5 -11 -21.5 -23h152v-95h-274v35q0 75 28.5 113t83.5 63q32 15 44 25.5t12 26.5q0 15 -10 23t-25 8q-37 0 -56 -44l-86 50q18 42 53.5 64.5t92.5 22.5q65 0 101.5 -32t36.5 -90q0 -40 -22 -70.5t-79 -58.5q-16 -7 -30.5 -18z" />
    <glyph glyph-name="three.numr" horiz-adv-x="319" 
d="M61 329.5q-39 27.5 -49 73.5l93 38q14 -48 53 -48q17 0 28 10t11 26q0 35 -46 35h-20v76h20q42 0 42 36q0 13 -10.5 21.5t-27.5 8.5q-37 0 -50 -32l-89 35q16 39 50 63.5t89 24.5q68 0 105 -29t37 -80q0 -48 -45 -77q24 -15 37 -35t13 -54q0 -54 -37 -87t-108 -33
q-57 0 -96 27.5z" />
    <glyph glyph-name="four.numr" horiz-adv-x="334" 
d="M295 455h32v-88h-32v-57h-98v57h-189v88l160 235h127v-235zM197 580l-80 -125h80v125z" />
    <glyph glyph-name="five.numr" horiz-adv-x="307" 
d="M55.5 325q-34.5 23 -45.5 63l88 41q13 -37 50 -37q20 0 31.5 12.5t11.5 32.5q0 22 -11.5 34t-33.5 12q-31 0 -51 -29l-79 17l28 219h239v-96h-159l-7 -48q20 22 64 22q56 0 86 -35t30 -93q0 -65 -37.5 -101.5t-116.5 -36.5q-53 0 -87.5 23z" />
    <glyph glyph-name="six.numr" horiz-adv-x="315" 
d="M265.5 529.5q34.5 -33.5 34.5 -94.5q0 -59 -36.5 -96t-105.5 -37q-67 0 -105 37t-38 89q0 37 11 65t34 63l90 134h127l-92 -127q46 0 80.5 -33.5zM187 402q10 12 10 32t-10 32.5t-29 12.5q-20 0 -30.5 -12.5t-10.5 -32.5t10.5 -32t30.5 -12q19 0 29 12z" />
    <glyph glyph-name="seven.numr" horiz-adv-x="286" 
d="M66 310q0 168 103 285h-161v95h273v-95q-51 -56 -76 -124t-25 -161h-114z" />
    <glyph glyph-name="eight.numr" horiz-adv-x="326" 
d="M57 334.5q-40 32.5 -40 87.5q0 33 16.5 56.5t36.5 32.5q-45 29 -45 75q0 50 35.5 80.5t102.5 30.5t102.5 -30.5t35.5 -80.5q0 -46 -45 -75q20 -10 36.5 -34t16.5 -56q0 -54 -40.5 -86.5t-105.5 -32.5q-66 0 -106 32.5zM191.5 549q11.5 11 11.5 28q0 16 -11.5 27t-28.5 11
t-28.5 -11t-11.5 -27q0 -17 11 -28t29 -11q17 0 28.5 11zM194.5 397q11.5 12 11.5 30t-11.5 29t-31.5 11t-31.5 -11t-11.5 -29t11.5 -30t31.5 -12t31.5 12z" />
    <glyph glyph-name="nine.numr" horiz-adv-x="312" 
d="M262 661q38 -36 38 -89q0 -37 -11 -66t-33 -61l-92 -135h-127l94 126h-1q-29 0 -55.5 15t-43 43.5t-16.5 69.5q0 59 36.5 96t106.5 37q66 0 104 -36zM187 533.5q10 12.5 10 32.5t-10 32t-29 12t-29 -12t-10 -32t10 -32.5t29 -12.5t29 12.5z" />
    <glyph glyph-name="uni2070" unicode="&#x2070;" horiz-adv-x="354" 
d="M63 451.5q-46 49.5 -46 148.5q0 98 46.5 147.5t113.5 49.5q68 0 114 -49.5t46 -147.5q0 -99 -46 -148.5t-114 -49.5t-114 49.5zM215 518.5q13 22.5 13 81.5q0 58 -13 80.5t-38 22.5t-38 -22.5t-13 -80.5t13 -81t38 -23t38 22.5z" />
    <glyph glyph-name="uni00B9" unicode="&#xb9;" horiz-adv-x="259" 
d="M116 666q-31 -60 -100 -76v122q36 9 61 27t39 51h110v-380h-110v256z" />
    <glyph glyph-name="uni00B2" unicode="&#xb2;" horiz-adv-x="310" 
d="M166.5 528q-14.5 -11 -21.5 -23h152v-95h-274v35q0 75 28.5 113t83.5 63q32 15 44 25.5t12 26.5q0 15 -10 23t-25 8q-37 0 -56 -44l-86 50q18 42 53.5 64.5t92.5 22.5q65 0 101.5 -32t36.5 -90q0 -40 -22 -70.5t-79 -58.5q-16 -7 -30.5 -18z" />
    <glyph glyph-name="uni00B3" unicode="&#xb3;" horiz-adv-x="319" 
d="M61 429.5q-39 27.5 -49 73.5l93 38q14 -48 53 -48q17 0 28 10t11 26q0 35 -46 35h-20v76h20q42 0 42 36q0 13 -10.5 21.5t-27.5 8.5q-37 0 -50 -32l-89 35q16 39 50 63.5t89 24.5q68 0 105 -29t37 -80q0 -48 -45 -77q24 -15 37 -35t13 -54q0 -54 -37 -87t-108 -33
q-57 0 -96 27.5z" />
    <glyph glyph-name="uni2074" unicode="&#x2074;" horiz-adv-x="334" 
d="M295 555h32v-88h-32v-57h-98v57h-189v88l160 235h127v-235zM197 680l-80 -125h80v125z" />
    <glyph glyph-name="uni2075" unicode="&#x2075;" horiz-adv-x="307" 
d="M55.5 425q-34.5 23 -45.5 63l88 41q13 -37 50 -37q20 0 31.5 12.5t11.5 32.5q0 22 -11.5 34t-33.5 12q-31 0 -51 -29l-79 17l28 219h239v-96h-159l-7 -48q20 22 64 22q56 0 86 -35t30 -93q0 -65 -37.5 -101.5t-116.5 -36.5q-53 0 -87.5 23z" />
    <glyph glyph-name="uni2076" unicode="&#x2076;" horiz-adv-x="315" 
d="M265.5 629.5q34.5 -33.5 34.5 -94.5q0 -59 -36.5 -96t-105.5 -37q-67 0 -105 37t-38 89q0 37 11 65t34 63l90 134h127l-92 -127q46 0 80.5 -33.5zM187 502q10 12 10 32t-10 32.5t-29 12.5q-20 0 -30.5 -12.5t-10.5 -32.5t10.5 -32t30.5 -12q19 0 29 12z" />
    <glyph glyph-name="uni2077" unicode="&#x2077;" horiz-adv-x="286" 
d="M66 410q0 168 103 285h-161v95h273v-95q-51 -56 -76 -124t-25 -161h-114z" />
    <glyph glyph-name="uni2078" unicode="&#x2078;" horiz-adv-x="326" 
d="M57 434.5q-40 32.5 -40 87.5q0 33 16.5 56.5t36.5 32.5q-45 29 -45 75q0 50 35.5 80.5t102.5 30.5t102.5 -30.5t35.5 -80.5q0 -46 -45 -75q20 -10 36.5 -34t16.5 -56q0 -54 -40.5 -86.5t-105.5 -32.5q-66 0 -106 32.5zM191.5 649q11.5 11 11.5 28q0 16 -11.5 27t-28.5 11
t-28.5 -11t-11.5 -27q0 -17 11 -28t29 -11q17 0 28.5 11zM194.5 497q11.5 12 11.5 30t-11.5 29t-31.5 11t-31.5 -11t-11.5 -29t11.5 -30t31.5 -12t31.5 12z" />
    <glyph glyph-name="uni2079" unicode="&#x2079;" horiz-adv-x="312" 
d="M262 761q38 -36 38 -89q0 -37 -11 -66t-33 -61l-92 -135h-127l94 126h-1q-29 0 -55.5 15t-43 43.5t-16.5 69.5q0 59 36.5 96t106.5 37q66 0 104 -36zM187 633.5q10 12.5 10 32.5t-10 32t-29 12t-29 -12t-10 -32t10 -32.5t29 -12.5t29 12.5z" />
    <glyph glyph-name="fraction" unicode="&#x2044;" horiz-adv-x="271" 
d="M3 0h-129l393 690h129z" />
    <glyph glyph-name="onehalf" unicode="&#xbd;" horiz-adv-x="822" 
d="M116 566q-31 -60 -100 -76v122q36 9 61 27t39 51h110v-380h-110v256zM262 0h-129l393 690h129zM678.5 118q-14.5 -11 -21.5 -23h152v-95h-274v35q0 75 28.5 113t83.5 63q32 15 44 25.5t12 26.5q0 15 -10 23t-25 8q-37 0 -56 -44l-86 50q18 42 53.5 64.5t92.5 22.5
q65 0 101.5 -32t36.5 -90q0 -40 -22 -70.5t-79 -58.5q-16 -7 -30.5 -18z" />
    <glyph glyph-name="onethird" unicode="&#x2153;" horiz-adv-x="822" 
d="M116 566q-31 -60 -100 -76v122q36 9 61 27t39 51h110v-380h-110v256zM262 0h-129l393 690h129zM564 19.5q-39 27.5 -49 73.5l93 38q14 -48 53 -48q17 0 28 10t11 26q0 35 -46 35h-20v76h20q42 0 42 36q0 13 -10.5 21.5t-27.5 8.5q-37 0 -50 -32l-89 35q16 39 50 63.5
t89 24.5q68 0 105 -29t37 -80q0 -48 -45 -77q24 -15 37 -35t13 -54q0 -54 -37 -87t-108 -33q-57 0 -96 27.5z" />
    <glyph glyph-name="twothirds" unicode="&#x2154;" horiz-adv-x="873" 
d="M166.5 428q-14.5 -11 -21.5 -23h152v-95h-274v35q0 75 28.5 113t83.5 63q32 15 44 25.5t12 26.5q0 15 -10 23t-25 8q-37 0 -56 -44l-86 50q18 42 53.5 64.5t92.5 22.5q65 0 101.5 -32t36.5 -90q0 -40 -22 -70.5t-79 -58.5q-16 -7 -30.5 -18zM313 0h-129l393 690h129z
M615 19.5q-39 27.5 -49 73.5l93 38q14 -48 53 -48q17 0 28 10t11 26q0 35 -46 35h-20v76h20q42 0 42 36q0 13 -10.5 21.5t-27.5 8.5q-37 0 -50 -32l-89 35q16 39 50 63.5t89 24.5q68 0 105 -29t37 -80q0 -48 -45 -77q24 -15 37 -35t13 -54q0 -54 -37 -87t-108 -33
q-57 0 -96 27.5z" />
    <glyph glyph-name="onequarter" unicode="&#xbc;" horiz-adv-x="789" 
d="M116 566q-31 -60 -100 -76v122q36 9 61 27t39 51h110v-380h-110v256zM262 0h-129l393 690h129zM750 145h32v-88h-32v-57h-98v57h-189v88l160 235h127v-235zM652 270l-80 -125h80v125z" />
    <glyph glyph-name="threequarters" unicode="&#xbe;" horiz-adv-x="822" 
d="M61 329.5q-39 27.5 -49 73.5l93 38q14 -48 53 -48q17 0 28 10t11 26q0 35 -46 35h-20v76h20q42 0 42 36q0 13 -10.5 21.5t-27.5 8.5q-37 0 -50 -32l-89 35q16 39 50 63.5t89 24.5q68 0 105 -29t37 -80q0 -48 -45 -77q24 -15 37 -35t13 -54q0 -54 -37 -87t-108 -33
q-57 0 -96 27.5zM295 0h-129l393 690h129zM783 145h32v-88h-32v-57h-98v57h-189v88l160 235h127v-235zM685 270l-80 -125h80v125z" />
    <glyph glyph-name="oneeighth" unicode="&#x215b;" horiz-adv-x="821" 
d="M116 566q-31 -60 -100 -76v122q36 9 61 27t39 51h110v-380h-110v256zM262 0h-129l393 690h129zM552 24.5q-40 32.5 -40 87.5q0 33 16.5 56.5t36.5 32.5q-45 29 -45 75q0 50 35.5 80.5t102.5 30.5t102.5 -30.5t35.5 -80.5q0 -46 -45 -75q20 -10 36.5 -34t16.5 -56
q0 -54 -40.5 -86.5t-105.5 -32.5q-66 0 -106 32.5zM686.5 239q11.5 11 11.5 28q0 16 -11.5 27t-28.5 11t-28.5 -11t-11.5 -27q0 -17 11 -28t29 -11q17 0 28.5 11zM689.5 87q11.5 12 11.5 30t-11.5 29t-31.5 11t-31.5 -11t-11.5 -29t11.5 -30t31.5 -12t31.5 12z" />
    <glyph glyph-name="threeeighths" unicode="&#x215c;" horiz-adv-x="854" 
d="M61 329.5q-39 27.5 -49 73.5l93 38q14 -48 53 -48q17 0 28 10t11 26q0 35 -46 35h-20v76h20q42 0 42 36q0 13 -10.5 21.5t-27.5 8.5q-37 0 -50 -32l-89 35q16 39 50 63.5t89 24.5q68 0 105 -29t37 -80q0 -48 -45 -77q24 -15 37 -35t13 -54q0 -54 -37 -87t-108 -33
q-57 0 -96 27.5zM295 0h-129l393 690h129zM585 24.5q-40 32.5 -40 87.5q0 33 16.5 56.5t36.5 32.5q-45 29 -45 75q0 50 35.5 80.5t102.5 30.5t102.5 -30.5t35.5 -80.5q0 -46 -45 -75q20 -10 36.5 -34t16.5 -56q0 -54 -40.5 -86.5t-105.5 -32.5q-66 0 -106 32.5zM719.5 239
q11.5 11 11.5 28q0 16 -11.5 27t-28.5 11t-28.5 -11t-11.5 -27q0 -17 11 -28t29 -11q17 0 28.5 11zM722.5 87q11.5 12 11.5 30t-11.5 29t-31.5 11t-31.5 -11t-11.5 -29t11.5 -30t31.5 -12t31.5 12z" />
    <glyph glyph-name="fiveeighths" unicode="&#x215d;" horiz-adv-x="838" 
d="M55.5 325q-34.5 23 -45.5 63l88 41q13 -37 50 -37q20 0 31.5 12.5t11.5 32.5q0 22 -11.5 34t-33.5 12q-31 0 -51 -29l-79 17l28 219h239v-96h-159l-7 -48q20 22 64 22q56 0 86 -35t30 -93q0 -65 -37.5 -101.5t-116.5 -36.5q-53 0 -87.5 23zM279 0h-129l393 690h129z
M569 24.5q-40 32.5 -40 87.5q0 33 16.5 56.5t36.5 32.5q-45 29 -45 75q0 50 35.5 80.5t102.5 30.5t102.5 -30.5t35.5 -80.5q0 -46 -45 -75q20 -10 36.5 -34t16.5 -56q0 -54 -40.5 -86.5t-105.5 -32.5q-66 0 -106 32.5zM703.5 239q11.5 11 11.5 28q0 16 -11.5 27t-28.5 11
t-28.5 -11t-11.5 -27q0 -17 11 -28t29 -11q17 0 28.5 11zM706.5 87q11.5 12 11.5 30t-11.5 29t-31.5 11t-31.5 -11t-11.5 -29t11.5 -30t31.5 -12t31.5 12z" />
    <glyph glyph-name="seveneighths" unicode="&#x215e;" horiz-adv-x="768" 
d="M66 310q0 168 103 285h-161v95h273v-95q-51 -56 -76 -124t-25 -161h-114zM209 0h-129l393 690h129zM499 24.5q-40 32.5 -40 87.5q0 33 16.5 56.5t36.5 32.5q-45 29 -45 75q0 50 35.5 80.5t102.5 30.5t102.5 -30.5t35.5 -80.5q0 -46 -45 -75q20 -10 36.5 -34t16.5 -56
q0 -54 -40.5 -86.5t-105.5 -32.5q-66 0 -106 32.5zM633.5 239q11.5 11 11.5 28q0 16 -11.5 27t-28.5 11t-28.5 -11t-11.5 -27q0 -17 11 -28t29 -11q17 0 28.5 11zM636.5 87q11.5 12 11.5 30t-11.5 29t-31.5 11t-31.5 -11t-11.5 -29t11.5 -30t31.5 -12t31.5 12z" />
    <glyph glyph-name="glyph456" horiz-adv-x="354" 
d="M291 237.5q46 -49.5 46 -147.5q0 -99 -46 -148.5t-114 -49.5t-114 49.5t-46 148.5q0 98 46.5 147.5t113.5 49.5q68 0 114 -49.5zM136.5 173.5q-15.5 -25.5 -15.5 -83.5q0 -30 4 -49l69 155q-9 3 -17 3q-25 0 -40.5 -25.5zM217.5 5.5q15.5 25.5 15.5 84.5q0 30 -4 47
l-68 -154q7 -3 16 -3q25 0 40.5 25.5z" />
    <glyph glyph-name="glyph457" horiz-adv-x="354" 
d="M291 337.5q46 -49.5 46 -147.5q0 -99 -46 -148.5t-114 -49.5t-114 49.5t-46 148.5q0 98 46.5 147.5t113.5 49.5q68 0 114 -49.5zM136.5 273.5q-15.5 -25.5 -15.5 -83.5q0 -30 4 -49l69 155q-9 3 -17 3q-25 0 -40.5 -25.5zM217.5 105.5q15.5 25.5 15.5 84.5q0 30 -4 47
l-68 -154q7 -3 16 -3q25 0 40.5 25.5z" />
    <glyph glyph-name="glyph458" horiz-adv-x="354" 
d="M291 647.5q46 -49.5 46 -147.5q0 -99 -46 -148.5t-114 -49.5t-114 49.5t-46 148.5q0 98 46.5 147.5t113.5 49.5q68 0 114 -49.5zM136.5 583.5q-15.5 -25.5 -15.5 -83.5q0 -30 4 -49l69 155q-9 3 -17 3q-25 0 -40.5 -25.5zM217.5 415.5q15.5 25.5 15.5 84.5q0 30 -4 47
l-68 -154q7 -3 16 -3q25 0 40.5 25.5z" />
    <glyph glyph-name="glyph459" horiz-adv-x="354" 
d="M291 747.5q46 -49.5 46 -147.5q0 -99 -46 -148.5t-114 -49.5t-114 49.5t-46 148.5q0 98 46.5 147.5t113.5 49.5q68 0 114 -49.5zM136.5 683.5q-15.5 -25.5 -15.5 -83.5q0 -30 4 -49l69 155q-9 3 -17 3q-25 0 -40.5 -25.5zM217.5 515.5q15.5 25.5 15.5 84.5q0 30 -4 47
l-68 -154q7 -3 16 -3q25 0 40.5 25.5z" />
    <glyph glyph-name="period" unicode="." horiz-adv-x="264" 
d="M62.5 18.5q-26.5 26.5 -26.5 69.5q0 44 26.5 70t69.5 26t69.5 -26.5t26.5 -69.5t-26.5 -69.5t-69.5 -26.5t-69.5 26.5z" />
    <glyph glyph-name="comma" unicode="," horiz-adv-x="274" 
d="M52 -103q34 26 54 48t30 47h2q-47 0 -74.5 26.5t-27.5 69.5t26.5 70t69.5 27q46 0 74 -33t28 -88q0 -79 -22 -132t-73 -107z" />
    <glyph glyph-name="colon" unicode=":" horiz-adv-x="264" 
d="M62.5 18.5q-26.5 26.5 -26.5 69.5q0 44 26.5 70t69.5 26t69.5 -26.5t26.5 -69.5t-26.5 -69.5t-69.5 -26.5t-69.5 26.5zM62.5 312.5q-26.5 26.5 -26.5 69.5q0 44 26.5 70t69.5 26t69.5 -26.5t26.5 -69.5t-26.5 -69.5t-69.5 -26.5t-69.5 26.5z" />
    <glyph glyph-name="semicolon" unicode=";" horiz-adv-x="274" 
d="M52 -103q34 26 54 48t30 47h2q-47 0 -74.5 26.5t-27.5 69.5t26.5 70t69.5 27q46 0 74 -33t28 -88q0 -79 -22 -132t-73 -107zM62.5 312.5q-26.5 26.5 -26.5 69.5q0 44 26.5 70t69.5 26t69.5 -26.5t26.5 -69.5t-26.5 -69.5t-69.5 -26.5t-69.5 26.5z" />
    <glyph glyph-name="ellipsis" unicode="&#x2026;" horiz-adv-x="796" 
d="M328.5 18.5q-26.5 26.5 -26.5 69.5q0 44 26.5 70t69.5 26t69.5 -26.5t26.5 -69.5t-26.5 -69.5t-69.5 -26.5t-69.5 26.5zM594.5 18.5q-26.5 26.5 -26.5 69.5q0 44 26.5 70t69.5 26t69.5 -26.5t26.5 -69.5t-26.5 -69.5t-69.5 -26.5t-69.5 26.5zM62.5 18.5
q-26.5 26.5 -26.5 69.5q0 44 26.5 70t69.5 26t69.5 -26.5t26.5 -69.5t-26.5 -69.5t-69.5 -26.5t-69.5 26.5z" />
    <glyph glyph-name="exclam" unicode="!" horiz-adv-x="288" 
d="M204 245h-118l-29 445h175zM74.5 18.5q-26.5 26.5 -26.5 69.5q0 44 26.5 70t69.5 26t69.5 -26.5t26.5 -69.5t-26.5 -69.5t-69.5 -26.5t-69.5 26.5z" />
    <glyph glyph-name="exclamdown" unicode="&#xa1;" horiz-adv-x="261" 
d="M61 318.5q-27 26.5 -27 69.5t27 69.5t70 26.5t69.5 -26.5t26.5 -69.5t-26.5 -69.5t-69.5 -26.5t-70 26.5zM218 -190h-175l29 421h118z" />
    <glyph glyph-name="question" unicode="?" horiz-adv-x="545" 
d="M197 389q79 9 114.5 34t35.5 68q0 34 -21.5 54.5t-58.5 20.5q-40 0 -69 -20t-57 -59l-105 96q34 52 95 86.5t150 34.5q105 0 165 -55t60 -147q0 -84 -49 -131t-128 -61l-4 -65h-118zM196.5 18.5q-26.5 26.5 -26.5 69.5q0 44 26.5 70t69.5 26t69.5 -26.5t26.5 -69.5
t-26.5 -69.5t-69.5 -26.5t-69.5 26.5z" />
    <glyph glyph-name="questiondown" unicode="&#xbf;" horiz-adv-x="546" 
d="M210.5 318.5q-26.5 26.5 -26.5 69.5t26.5 69.5t69.5 26.5t69.5 -26.5t26.5 -69.5t-26.5 -69.5t-69.5 -26.5t-69.5 26.5zM99 -149q-60 55 -60 147q0 84 49.5 130t128.5 58l3 45h119l9 -128q-79 -6 -114.5 -30t-35.5 -68q0 -34 21.5 -52.5t59.5 -18.5q40 0 69 19.5t56 57.5
l106 -94q-35 -53 -96 -87t-149 -34q-106 0 -166 55z" />
    <glyph glyph-name="periodcentered" unicode="&#xb7;" horiz-adv-x="264" 
d="M62.5 275.5q-26.5 26.5 -26.5 69.5q0 44 26.5 70t69.5 26t69.5 -26.5t26.5 -69.5t-26.5 -69.5t-69.5 -26.5t-69.5 26.5z" />
    <glyph glyph-name="bullet" unicode="&#x2022;" horiz-adv-x="342" 
d="M68.5 242.5q-40.5 40.5 -40.5 102.5t40.5 102.5t102.5 40.5t102.5 -40.5t40.5 -102.5t-40.5 -102.5t-102.5 -40.5t-102.5 40.5z" />
    <glyph glyph-name="asterisk" unicode="*" horiz-adv-x="415" 
d="M349 666l33 -102l-117 -19l84 -85l-87 -62l-54 105l-55 -105l-87 62l84 85l-117 19l33 102l106 -53l-18 117h107l-18 -117z" />
    <glyph glyph-name="numbersign" unicode="#" horiz-adv-x="701" 
d="M678 533l-22 -122h-98l-20 -132h93l-22 -122h-88l-23 -157h-130l23 157h-134l-23 -157h-131l23 157h-103l22 122h98l20 132h-93l22 122h88l23 157h131l-23 -157h134l23 157h130l-23 -157h103zM274 279h134l20 132h-134z" />
    <glyph glyph-name="slash" unicode="/" horiz-adv-x="447" 
d="M166 -120h-151l266 850h151z" />
    <glyph glyph-name="backslash" unicode="\" horiz-adv-x="447" 
d="M432 -120h-151l-266 850h151z" />
    <glyph glyph-name="parenleft" unicode="(" horiz-adv-x="364" 
d="M181 -120q-66 72 -107 180t-41 245t41 245t107 180h161q-67 -67 -111.5 -186.5t-44.5 -238.5t44.5 -238.5t111.5 -186.5h-161z" />
    <glyph glyph-name="parenright" unicode=")" horiz-adv-x="364" 
d="M22 -120q67 67 111.5 186.5t44.5 238.5t-44.5 238.5t-111.5 186.5h161q66 -72 107 -180t41 -245t-41 -245t-107 -180h-161z" />
    <glyph glyph-name="braceleft" unicode="{" horiz-adv-x="399" 
d="M275 -120q-80 0 -123 43t-43 123v133q0 50 -48 61l-36 8v114l36 8q48 11 48 61v133q0 80 43 123t123 43h80v-143h-34q-29 0 -44.5 -15.5t-15.5 -44.5v-123q0 -40 -20.5 -66.5t-56.5 -32.5q36 -7 56.5 -33t20.5 -66v-125q0 -29 15.5 -44.5t44.5 -15.5h34v-141h-80z" />
    <glyph glyph-name="braceright" unicode="}" horiz-adv-x="399" 
d="M44 -120v141h34q29 0 44.5 15.5t15.5 44.5v125q0 40 20.5 66t56.5 33q-36 6 -56.5 32.5t-20.5 66.5v123q0 29 -15.5 44.5t-44.5 15.5h-34v143h80q80 0 123 -43t43 -123v-133q0 -50 48 -61l36 -8v-114l-36 -8q-48 -11 -48 -61v-133q0 -80 -43 -123t-123 -43h-80z" />
    <glyph glyph-name="bracketleft" unicode="[" horiz-adv-x="355" 
d="M311 -120h-246v850h246v-143h-94v-566h94v-141z" />
    <glyph glyph-name="bracketright" unicode="]" horiz-adv-x="355" 
d="M290 -120h-246v141h94v566h-94v143h246v-850z" />
    <glyph glyph-name="hyphen" unicode="-" horiz-adv-x="424" 
d="M374 248h-324v132h324v-132z" />
    <glyph glyph-name="uni00AD" unicode="&#xad;" horiz-adv-x="428" 
d="M374 248h-324v132h324v-132z" />
    <glyph glyph-name="endash" unicode="&#x2013;" horiz-adv-x="523" 
d="M473 248h-423v132h423v-132z" />
    <glyph glyph-name="emdash" unicode="&#x2014;" horiz-adv-x="875" 
d="M825 248h-775v132h775v-132z" />
    <glyph glyph-name="underscore" unicode="_" horiz-adv-x="523" 
d="M473 -168h-423v132h423v-132z" />
    <glyph glyph-name="glyph486" horiz-adv-x="424" 
d="M374 279h-324v132h324v-132z" />
    <glyph glyph-name="glyph487" horiz-adv-x="424" 
d="M374 279h-324v132h324v-132z" />
    <glyph glyph-name="glyph488" horiz-adv-x="523" 
d="M473 279h-423v132h423v-132z" />
    <glyph glyph-name="glyph489" horiz-adv-x="875" 
d="M825 279h-775v132h775v-132z" />
    <glyph glyph-name="quotesinglbase" unicode="&#x201a;" horiz-adv-x="303" 
d="M51 -154q35 21 60.5 46t35.5 50q-45 2 -68.5 27.5t-23.5 68.5t26.5 69.5t69.5 26.5q46 0 74 -32t28 -88q0 -135 -120 -236z" />
    <glyph glyph-name="quotedblbase" unicode="&#x201e;" horiz-adv-x="551" 
d="M51 -154q35 21 60.5 46t35.5 50q-45 2 -68.5 27.5t-23.5 68.5t26.5 69.5t69.5 26.5q46 0 74 -32t28 -88q0 -135 -120 -236zM299 -154q35 21 60.5 46t35.5 50q-45 2 -68.5 27.5t-23.5 68.5t26.5 69.5t69.5 26.5q46 0 74 -32t28 -88q0 -135 -120 -236z" />
    <glyph glyph-name="quotedblleft" unicode="&#x201c;" horiz-adv-x="550" 
d="M77.5 374.5q-27.5 32.5 -27.5 88.5q0 76 34 134.5t85 100.5l82 -68q-34 -20 -60 -45t-36 -50q45 -2 69 -27.5t24 -69.5q0 -43 -27 -69.5t-70 -26.5q-46 0 -73.5 32.5zM325.5 374.5q-27.5 32.5 -27.5 88.5q0 76 34 134.5t85 100.5l82 -68q-34 -20 -60 -45t-36 -50
q45 -2 69 -27.5t24 -69.5q0 -43 -27 -69.5t-70 -26.5q-46 0 -73.5 32.5z" />
    <glyph glyph-name="quotedblright" unicode="&#x201d;" horiz-adv-x="551" 
d="M51 410q35 21 60.5 46t35.5 50q-45 2 -68.5 27.5t-23.5 68.5t26.5 69.5t69.5 26.5q46 0 74 -32t28 -88q0 -135 -120 -236zM299 410q35 21 60.5 46t35.5 50q-45 2 -68.5 27.5t-23.5 68.5t26.5 69.5t69.5 26.5q46 0 74 -32t28 -88q0 -135 -120 -236z" />
    <glyph glyph-name="quoteleft" unicode="&#x2018;" horiz-adv-x="302" 
d="M77.5 374.5q-27.5 32.5 -27.5 88.5q0 76 34 134.5t85 100.5l82 -68q-34 -20 -60 -45t-36 -50q45 -2 69 -27.5t24 -69.5q0 -43 -27 -69.5t-70 -26.5q-46 0 -73.5 32.5z" />
    <glyph glyph-name="quoteright" unicode="&#x2019;" horiz-adv-x="303" 
d="M51 410q35 21 60.5 46t35.5 50q-45 2 -68.5 27.5t-23.5 68.5t26.5 69.5t69.5 26.5q46 0 74 -32t28 -88q0 -135 -120 -236z" />
    <glyph glyph-name="guillemotleft" unicode="&#xab;" horiz-adv-x="589" 
d="M566 86h-173l-131 182v46l131 182h173l-165 -205zM331 86h-173l-131 182v46l131 182h173l-165 -205z" />
    <glyph glyph-name="guillemotright" unicode="&#xbb;" horiz-adv-x="589" 
d="M431 86h-173l166 205l-166 205h173l131 -182v-46zM196 86h-173l166 205l-166 205h173l131 -182v-46z" />
    <glyph glyph-name="guilsinglleft" unicode="&#x2039;" horiz-adv-x="354" 
d="M331 86h-173l-131 182v46l131 182h173l-165 -205z" />
    <glyph glyph-name="guilsinglright" unicode="&#x203a;" horiz-adv-x="354" 
d="M196 86h-173l166 205l-166 205h173l131 -182v-46z" />
    <glyph glyph-name="quotedbl" unicode="&#x22;" horiz-adv-x="463" 
d="M181 415h-125l-20 275h164zM408 415h-125l-20 275h164z" />
    <glyph glyph-name="quotesingle" unicode="'" horiz-adv-x="236" 
d="M181 415h-125l-20 275h164z" />
    <glyph glyph-name="uni00A0" unicode="&#xa0;" horiz-adv-x="220" 
 />
    <glyph glyph-name="cent" unicode="&#xa2;" horiz-adv-x="534" 
d="M349 231q36 18 53 50l101 -86q-25 -34 -64.5 -59t-89.5 -34v-102h-111v100q-90 14 -146 77t-56 169q0 107 56 168t146 76v100h111v-101q102 -17 158 -97l-110 -82q-14 29 -48 47v-226zM201 277.5q13 -28.5 37 -43.5v224q-50 -31 -50 -112q0 -40 13 -68.5z" />
    <glyph glyph-name="currency" unicode="&#xa4;" horiz-adv-x="613" 
d="M510 220l80 -80l-79 -78l-81 81q-55 -29 -123 -29q-69 0 -125 30l-80 -82l-79 78l80 79q-32 54 -32 126q0 71 32 125l-80 80l79 79l82 -82q55 29 123 29q69 0 122 -29l82 82l79 -79l-80 -80q32 -54 32 -125t-32 -125zM370 270q22 26 22 75t-22 75t-63 26t-63.5 -26
t-22.5 -75q0 -48 22.5 -74.5t63.5 -26.5t63 26z" />
    <glyph glyph-name="dollar" unicode="$" horiz-adv-x="606" 
d="M514.5 60q-58.5 -56 -153.5 -70v-90h-110v88q-80 9 -138.5 44t-92.5 90l116 100q49 -76 115 -92v160q-92 18 -149.5 69.5t-57.5 138.5q0 83 57 136.5t150 65.5v90h110v-90q69 -10 116.5 -44t80.5 -84l-111 -90q-39 63 -86 85v-151q100 -22 156 -68t56 -138
q0 -94 -58.5 -150zM208 469q12 -15 43 -27v128q-26 -9 -40.5 -25.5t-14.5 -36.5q0 -24 12 -39zM361 132q53 17 53 64q0 26 -11.5 42t-41.5 27v-133z" />
    <glyph glyph-name="dong" unicode="&#x20ab;" horiz-adv-x="486" 
d="M469 636v-97h-48v-423h-112l-6 33q-41 -44 -100 -44q-49 0 -88.5 23.5t-62.5 68.5t-23 107q0 63 23 108t62.5 68t88.5 23q27 0 47 -5.5t40 -17.5v59h-109v97h109v54h131v-54h48zM180.5 242q21.5 -26 57.5 -26q30 0 52 17v143q-20 16 -52 16q-36 0 -57.5 -26t-21.5 -62
t21.5 -62zM421 0h-392v77h392v-77z" />
    <glyph glyph-name="Euro" unicode="&#x20ac;" horiz-adv-x="696" 
d="M489.5 147q36.5 19 59.5 53l119 -94q-41 -58 -110 -89t-158 -31q-113 0 -191.5 59t-109.5 165h-81v112h63v23v23h-63v113h81q32 106 110.5 164.5t190.5 58.5q190 0 268 -120l-119 -94q-50 72 -144 72q-46 0 -80.5 -20.5t-54.5 -60.5h208l-26 -113h-209q-1 -7 -1 -23
t1 -23h199l-26 -112h-147q21 -41 55.5 -61.5t80.5 -20.5q48 0 84.5 19z" />
    <glyph glyph-name="florin" unicode="&#x192;" horiz-adv-x="378" 
d="M-17 -196v132q23 -10 47 -10q30 0 45 16.5t15 44.5v354h-69v129h69v90q0 92 53 138t139 46q26 0 42.5 -3t37.5 -10v-132q-31 15 -60 15q-30 0 -45 -16.5t-15 -44.5v-83h116v-129h-116v-361q0 -92 -52.5 -138t-138.5 -46q-39 0 -68 8z" />
    <glyph glyph-name="uni20BA" unicode="&#x20ba;" horiz-adv-x="609" 
d="M582 299q0 -141 -74.5 -220t-215.5 -79h-206v76l-67 -41v133l67 41v61l-67 -41v133l67 41v287h161v-189l130 80v-133l-130 -80v-61l130 79v-132l-130 -80v-29h44q66 0 103.5 40t37.5 114h150z" />
    <glyph glyph-name="sterling" unicode="&#xa3;" horiz-adv-x="567" 
d="M240 243q0 -60 -46 -98h337v-145h-513v145q62 26 62 111v7h-62v123h62v89q0 108 65 168.5t180 60.5q91 0 143.5 -37.5t83.5 -111.5l-131 -72q-16 41 -37.5 58.5t-57.5 17.5q-41 0 -63.5 -24.5t-22.5 -68.5v-80h186v-123h-186v-20z" />
    <glyph glyph-name="yen" unicode="&#xa5;" horiz-adv-x="635" 
d="M449 690h173l-153 -267h95v-123h-166v-57h146v-122h-146v-121h-161v121h-145v122h145v57h-165v123h94l-153 267h173l132 -251z" />
    <glyph glyph-name="uni2219" unicode="&#x2219;" horiz-adv-x="498" 
d="M146.5 242.5q-40.5 40.5 -40.5 102.5t40.5 102.5t102.5 40.5t102.5 -40.5t40.5 -102.5t-40.5 -102.5t-102.5 -40.5t-102.5 40.5z" />
    <glyph glyph-name="uni2215" unicode="&#x2215;" horiz-adv-x="498" 
d="M200 0h-151l249 690h151z" />
    <glyph glyph-name="plus" unicode="+" horiz-adv-x="498" 
d="M315 95h-132v153h-153v132h153v153h132v-153h153v-132h-153v-153z" />
    <glyph glyph-name="minus" unicode="&#x2212;" horiz-adv-x="498" 
d="M468 248h-438v132h438v-132z" />
    <glyph glyph-name="multiply" unicode="&#xd7;" horiz-adv-x="498" 
d="M249 221l-124 -125l-94 94l125 124l-125 125l94 93l124 -124l125 124l93 -93l-124 -125l124 -124l-93 -94z" />
    <glyph glyph-name="divide" unicode="&#xf7;" horiz-adv-x="498" 
d="M468 248h-438v132h438v-132zM180.5 52.5q-26.5 26.5 -26.5 69.5q0 44 26.5 70t69.5 26t69.5 -26.5t26.5 -69.5t-26.5 -69.5t-69.5 -26.5t-69.5 26.5zM180.5 436.5q-26.5 26.5 -26.5 69.5q0 44 26.5 70t69.5 26t69.5 -26.5t26.5 -69.5t-26.5 -69.5t-69.5 -26.5t-69.5 26.5
z" />
    <glyph glyph-name="equal" unicode="=" horiz-adv-x="498" 
d="M468 363h-438v132h438v-132zM468 133h-438v132h438v-132z" />
    <glyph glyph-name="notequal" unicode="&#x2260;" horiz-adv-x="498" 
d="M468 495v-132h-123l-46 -98h169v-132h-230l-64 -136l-120 56l37 80h-61v132h123l46 98h-169v132h230l64 136l120 -56l-37 -80h61z" />
    <glyph glyph-name="greater" unicode="&#x3e;" horiz-adv-x="498" 
d="M468 254l-438 -215v143l298 132l-298 133v142l438 -215v-120z" />
    <glyph glyph-name="less" unicode="&#x3c;" horiz-adv-x="498" 
d="M468 182v-143l-438 215v120l438 215v-142l-298 -133z" />
    <glyph glyph-name="greaterequal" unicode="&#x2265;" horiz-adv-x="498" 
d="M468 305l-438 -151v135l254 76l-254 76v135l438 -151v-120zM468 0h-438v132h438v-132z" />
    <glyph glyph-name="lessequal" unicode="&#x2264;" horiz-adv-x="498" 
d="M468 289v-135l-438 151v120l438 151v-135l-254 -76zM468 0h-438v132h438v-132z" />
    <glyph glyph-name="plusminus" unicode="&#xb1;" horiz-adv-x="498" 
d="M315 171h-132v108h-153v132h153v108h132v-108h153v-132h-153v-108zM468 0h-438v132h438v-132z" />
    <glyph glyph-name="approxequal" unicode="&#x2248;" horiz-adv-x="498" 
d="M300.5 336.5q-24.5 6.5 -63.5 19.5q-31 11 -48 15.5t-34 4.5q-23 0 -37 -8.5t-35 -31.5l-53 78q40 78 113 78q30 0 57 -7t62 -20q31 -11 48 -15.5t33 -4.5q24 0 42 11.5t38 36.5l45 -86q-37 -77 -113 -77q-30 0 -54.5 6.5zM300.5 136.5q-24.5 6.5 -63.5 19.5
q-31 11 -48 15.5t-34 4.5q-23 0 -37 -8.5t-35 -31.5l-53 78q40 78 113 78q30 0 57 -7t62 -20q31 -11 48 -15.5t33 -4.5q24 0 42 11.5t38 36.5l45 -86q-37 -77 -113 -77q-30 0 -54.5 6.5z" />
    <glyph glyph-name="asciitilde" unicode="~" horiz-adv-x="498" 
d="M300.5 239.5q-24.5 6.5 -63.5 19.5q-31 11 -48 15.5t-34 4.5q-23 0 -37 -8.5t-35 -31.5l-53 78q40 78 113 78q30 0 57 -7t62 -20q31 -11 48 -15.5t33 -4.5q24 0 42 11.5t38 36.5l45 -86q-37 -77 -113 -77q-30 0 -54.5 6.5z" />
    <glyph glyph-name="logicalnot" unicode="&#xac;" horiz-adv-x="498" 
d="M468 115h-132v133h-306v132h438v-265z" />
    <glyph glyph-name="asciicircum" unicode="^" horiz-adv-x="498" 
d="M183 428h-133l134 262h131l133 -262h-133l-66 150z" />
    <glyph glyph-name="infinity" unicode="&#x221e;" horiz-adv-x="668" 
d="M58 220.5q-43 45.5 -43 116.5t43 116.5t116 45.5q101 0 160 -85q59 85 160 85q73 0 116 -45.5t43 -116.5t-43 -116.5t-116 -45.5q-101 0 -160 88q-59 -88 -160 -88q-73 0 -116 45.5zM234 279.5q23 16.5 51 57.5q-28 42 -51 58.5t-57 16.5q-29 0 -47.5 -20t-18.5 -55
t18.5 -54.5t47.5 -19.5q34 0 57 16.5zM539 282.5q18 19.5 18 54.5t-18 55t-47 20q-34 0 -57.5 -16.5t-51.5 -58.5q28 -41 51 -57.5t58 -16.5q29 0 47 19.5z" />
    <glyph glyph-name="integral" unicode="&#x222b;" horiz-adv-x="498" 
d="M-30 -196l23 132q23 -10 46 -10q31 0 48.5 16.5t22.5 44.5l101 573q16 94 74 139t148 45q26 0 42 -3t37 -10l-23 -132q-28 15 -56 15q-30 0 -48 -17t-23 -44l-101 -573q-17 -97 -68.5 -140.5t-148.5 -43.5q-46 0 -74 8z" />
    <glyph glyph-name="Omega" unicode="&#x2126;" horiz-adv-x="707" 
d="M52 0v145h113v16q-64 37 -98.5 106.5t-34.5 154.5q0 87 40 150.5t112.5 97.5t168.5 34q97 0 169.5 -34t112.5 -97.5t40 -150.5q0 -85 -35 -154.5t-98 -106.5v-16h113v-145h-267v209q59 21 92.5 71.5t33.5 123.5q0 71 -41.5 113t-119.5 42t-119 -41.5t-41 -113.5
q0 -73 33 -123.5t92 -71.5v-209h-266z" />
    <glyph glyph-name="Delta" unicode="&#x2206;" horiz-adv-x="660" 
d="M625 0h-590v142l207 548h176l207 -548v-142zM330 520l-128 -378h256z" />
    <glyph glyph-name="product" unicode="&#x220f;" horiz-adv-x="716" 
d="M683 690v-145h-81v-655h-161v655h-167v-655h-161v655h-80v145h650z" />
    <glyph glyph-name="summation" unicode="&#x2211;" horiz-adv-x="596" 
d="M541 -110h-485v136l195 264l-182 264v136h461v-145h-268l180 -255l-190 -255h289v-145z" />
    <glyph glyph-name="radical" unicode="&#x221a;" horiz-adv-x="651" 
d="M409 0h-181l-91 279h-107v132h221l67 -248l155 527h163z" />
    <glyph glyph-name="mu" unicode="&#xb5;" horiz-adv-x="555" 
d="M59 -190v660h152v-293q0 -28 15 -44.5t40 -16.5q26 0 47 14.5t32 34.5v305h152v-470h-142l-10 66q-42 -76 -128 -80h-6v-176h-152z" />
    <glyph glyph-name="partialdiff" unicode="&#x2202;" horiz-adv-x="553" 
d="M146.5 13q-51.5 27 -81 78.5t-29.5 123.5t29 123.5t77.5 78.5t105.5 27q35 0 58.5 -7.5t42.5 -23.5q-16 62 -72 123t-144 97l96 100q132 -58 210 -166t78 -279q0 -144 -65.5 -223t-188.5 -79q-65 0 -116.5 27zM365 274q-13 19 -37 30.5t-54 11.5q-40 0 -63.5 -29
t-23.5 -72q0 -45 24 -72t64 -27q90 0 90 158z" />
    <glyph glyph-name="percent" unicode="%" horiz-adv-x="767" 
d="M71 404q-40 46 -40 127t40 127t109 46t109 -46t40 -127t-40 -127t-109 -46t-109 46zM251 0h-128l392 690h129zM214 464q12 20 12 67q0 88 -46 88t-46 -88q0 -47 12 -67t34 -20t34 20zM477.5 32.5q-40.5 46.5 -40.5 126.5t40.5 126.5t109.5 46.5q68 0 108.5 -46.5
t40.5 -126.5t-40.5 -126.5t-108.5 -46.5q-69 0 -109.5 46.5zM621 92q12 20 12 67q0 88 -46 88t-46 -88q0 -47 12 -67t34 -20t34 20z" />
    <glyph glyph-name="perthousand" unicode="&#x2030;" horiz-adv-x="1092" 
d="M71 404q-40 46 -40 127t40 127t109 46t109 -46t40 -127t-40 -127t-109 -46t-109 46zM251 0h-128l392 690h129zM214 464q12 20 12 67q0 88 -46 88t-46 -88q0 -47 12 -67t34 -20t34 20zM477.5 32.5q-40.5 46.5 -40.5 126.5t40.5 126.5t109.5 46.5q68 0 108.5 -46.5
t40.5 -126.5t-40.5 -126.5t-108.5 -46.5q-69 0 -109.5 46.5zM802.5 32.5q-40.5 46.5 -40.5 126.5t40.5 126.5t109.5 46.5q68 0 108.5 -46.5t40.5 -126.5t-40.5 -126.5t-108.5 -46.5q-69 0 -109.5 46.5zM621 92q12 20 12 67q0 88 -46 88t-46 -88q0 -47 12 -67t34 -20t34 20z
M946 92q12 20 12 67q0 88 -46 88t-46 -88q0 -47 12 -67t34 -20t34 20z" />
    <glyph glyph-name="arrowup" unicode="&#x2191;" horiz-adv-x="636" 
d="M357 636l229 -219l-110 -93l-92 126v-396h-132v395l-91 -125l-111 93l230 219h77z" />
    <glyph glyph-name="uni2197" unicode="&#x2197;" horiz-adv-x="585" 
d="M163 588h318l54 -54v-318h-136l24 166l-279 -279l-94 93l280 280l-167 -24v136z" />
    <glyph glyph-name="arrowright" unicode="&#x2192;" horiz-adv-x="682" 
d="M320 503l93 110l219 -230v-76l-219 -230l-93 111l125 91h-395v132h396z" />
    <glyph glyph-name="uni2198" unicode="&#x2198;" horiz-adv-x="585" 
d="M423 308l-24 166h136v-317l-54 -54h-318v136l167 -24l-280 279l94 94z" />
    <glyph glyph-name="arrowdown" unicode="&#x2193;" horiz-adv-x="636" 
d="M384 241l92 126l110 -93l-229 -220h-77l-230 220l111 93l91 -126v395h132v-395z" />
    <glyph glyph-name="uni2199" unicode="&#x2199;" horiz-adv-x="585" 
d="M442 588l93 -94l-280 -279l167 24v-136h-318l-54 54v317h137l-24 -167z" />
    <glyph glyph-name="arrowleft" unicode="&#x2190;" horiz-adv-x="682" 
d="M237 411h395v-132h-395l126 -91l-93 -111l-220 230v76l220 230l93 -110z" />
    <glyph glyph-name="uni2196" unicode="&#x2196;" horiz-adv-x="585" 
d="M255 476l280 -280l-93 -93l-279 280l24 -167h-137v318l54 54h318v-136z" />
    <glyph glyph-name="arrowboth" unicode="&#x2194;" horiz-adv-x="862" 
d="M363 188l-93 -111l-220 230v76l220 230l93 -110l-125 -92h387l-125 92l93 110l219 -230v-76l-219 -230l-93 111l125 91h-387z" />
    <glyph glyph-name="arrowupdn" unicode="&#x2195;" horiz-adv-x="636" 
d="M357 0h-77l-230 220l111 93l91 -125v315l-91 -125l-111 93l230 219h77l229 -219l-110 -93l-92 125v-315l92 125l110 -93z" />
    <glyph glyph-name="lozenge" unicode="&#x25ca;" horiz-adv-x="619" 
d="M394 0h-169l-204 345l204 345h169l204 -345zM190 345l119 -201l120 201l-120 201z" />
    <glyph glyph-name="H22073" unicode="&#x25a1;" horiz-adv-x="590" 
d="M520 120h-450v450h450v-450zM179 469v-248h232v248h-232z" />
    <glyph glyph-name="uni2501" unicode="&#x2501;" horiz-adv-x="566" 
d="M548 258h-530v174h530v-174z" />
    <glyph glyph-name="uni253B" unicode="&#x253b;" horiz-adv-x="681" 
d="M655 258h-630v174h225v298h180v-298h225v-174z" />
    <glyph glyph-name="uni256F" unicode="&#x256f;" horiz-adv-x="427" 
d="M30 285v120h179q29 0 45 15.5t16 44.5v265h126v-263q0 -91 -49 -136.5t-138 -45.5h-179z" />
    <glyph glyph-name="SF060000" unicode="&#x252c;" horiz-adv-x="680" 
d="M430 -40h-180v298h-225v174h630v-174h-225v-298z" />
    <glyph glyph-name="SF100000" unicode="&#x2500;" horiz-adv-x="566" 
d="M548 258h-530v174h530v-174z" />
    <glyph glyph-name="at" unicode="@" horiz-adv-x="914" 
d="M675 499l-35 -254l-1 -10q0 -29 25 -29t45.5 22t32 59t11.5 81q0 73 -31.5 129t-91 87t-142.5 31q-87 0 -160 -38t-116.5 -113.5t-43.5 -183.5q0 -137 73 -215.5t216 -78.5q66 0 135.5 18.5t104.5 41.5l45 -108q-55 -35 -135.5 -52.5t-165.5 -17.5q-128 0 -218.5 51.5
t-137.5 145t-47 216.5q0 145 60.5 247t162 154t224.5 52q122 0 210 -46.5t134.5 -128t46.5 -184.5q0 -80 -26 -144t-77.5 -101t-126.5 -37q-43 0 -73 21t-39 54q-16 -35 -50.5 -55t-83.5 -20q-71 0 -114.5 47t-43.5 140q0 67 24.5 120t69.5 83t105 30q42 0 70.5 -15
t43.5 -39l16 40h104zM501.5 239.5q25.5 33.5 25.5 82.5q0 36 -17.5 57.5t-48.5 21.5q-40 0 -66 -32.5t-26 -81.5q0 -37 17 -59t49 -22q41 0 66.5 33.5z" />
    <glyph glyph-name="ampersand" unicode="&#x26;" horiz-adv-x="646" 
d="M635 377q-26 -136 -86 -221q47 -73 83 -156h-174l-18 39q-38 -29 -80.5 -41t-98.5 -12q-107 0 -170 58.5t-63 157.5q0 64 32.5 113.5t92.5 78.5q-48 56 -48 134q0 51 24.5 91t69.5 62.5t105 22.5q170 0 203 -131l-137 -53q-13 71 -67 71q-27 0 -43.5 -15.5t-16.5 -41.5
q0 -27 16.5 -53t57.5 -62q86 -75 146 -147q27 56 47 142zM326.5 120q24.5 9 48.5 31q-60 90 -133 160q-32 -14 -50 -41t-18 -61q0 -43 26.5 -70.5t68.5 -27.5q33 0 57.5 9z" />
    <glyph glyph-name="paragraph" unicode="&#xb6;" horiz-adv-x="722" 
d="M285 -110v403h-59q-88 0 -141 54.5t-53 147.5q0 94 52.5 144.5t141.5 50.5h211v-800h-152zM657 -110h-151v800h151v-800z" />
    <glyph glyph-name="section" unicode="&#xa7;" horiz-adv-x="539" 
d="M452 166q35 -41 35 -100q0 -88 -64.5 -139.5t-170.5 -51.5q-171 0 -229 136l123 68q20 -39 45.5 -56t60.5 -17q39 0 58.5 13t19.5 35q0 23 -27 38t-84 25q-95 18 -147 57t-52 125q0 69 55 115q-36 44 -36 103q0 87 64.5 137t170.5 50q172 0 229 -136l-122 -67
q-39 73 -107 73q-38 0 -58 -14t-20 -35q0 -24 26.5 -38.5t84.5 -24.5q63 -12 105 -30t68 -54.5t26 -97.5q0 -68 -54 -114zM345 233q6 14 6 31q0 28 -29.5 43t-89.5 26q-17 3 -51 13q-6 -13 -6 -31q0 -28 28.5 -42.5t90.5 -26.5q28 -5 51 -13z" />
    <glyph glyph-name="copyright" unicode="&#xa9;" horiz-adv-x="792" 
d="M218 30.5q-80 44.5 -126 126t-46 188.5t46 188.5t126 126t178 44.5t178 -44.5t126 -126t46 -188.5t-46 -188.5t-126 -126t-178 -44.5t-178 44.5zM528 105.5q59 34.5 93 96.5t34 143t-34 143.5t-93 96.5t-132 34q-72 0 -131.5 -34t-93.5 -96.5t-34 -143.5t34 -143
t93.5 -96.5t131.5 -34.5q73 0 132 34.5zM302 171.5q-43 23.5 -67.5 68t-24.5 105.5t25.5 105.5t68.5 68t96 23.5q58 0 100.5 -23.5t62.5 -67.5l-64 -41q-18 30 -39.5 44t-56.5 14q-47 0 -77.5 -32.5t-30.5 -90.5t30.5 -90t75.5 -32q40 0 63 16.5t42 48.5l64 -41
q-28 -48 -72 -73.5t-100 -25.5q-53 0 -96 23.5z" />
    <glyph glyph-name="registered" unicode="&#xae;" horiz-adv-x="452" 
d="M325 679.5q44 -24.5 69.5 -70t25.5 -104.5t-25.5 -104.5t-69.5 -70t-99 -24.5t-99 24.5t-69.5 70t-25.5 104.5t25.5 104.5t69.5 70t99 24.5t99 -24.5zM335.5 388q42.5 43 42.5 117t-42.5 117t-109.5 43t-109.5 -43t-42.5 -117t42.5 -117t109.5 -43t109.5 43zM299 512.5
q-10 -14.5 -27 -21.5l35 -79h-36l-33 74h-43v-74h-32v195h80q30 0 48 -16t18 -45q0 -19 -10 -33.5zM244 518q15 0 24.5 7t9.5 21t-9.5 21.5t-24.5 7.5h-49v-57h49z" />
    <glyph glyph-name="uni2117" unicode="&#x2117;" horiz-adv-x="452" 
d="M127 330.5q-44 24.5 -69.5 70t-25.5 104.5t25.5 104.5t69.5 70t99 24.5t99 -24.5t69.5 -70t25.5 -104.5t-25.5 -104.5t-69.5 -70t-99 -24.5t-99 24.5zM335.5 388q42.5 43 42.5 117t-42.5 117t-109.5 43t-109.5 -43t-42.5 -117t42.5 -117t109.5 -43t109.5 43zM163 412v195
h80q32 0 49 -17t17 -48t-17 -47.5t-48 -16.5h-49v-66h-32zM244 510q14 0 24 9t10 23q0 15 -9.5 24t-24.5 9h-49v-65h49z" />
    <glyph glyph-name="trademark" unicode="&#x2122;" horiz-adv-x="576" 
d="M21 690h220v-69h-72v-207h-76v207h-72v69zM435 690h108l14 -276h-78l-3 180l-32 -143h-77l-30 143l-4 -180h-78l14 276h112l27 -139z" />
    <glyph glyph-name="degree" unicode="&#xb0;" horiz-adv-x="450" 
d="M93.5 395.5q-50.5 49.5 -50.5 129.5t50.5 129.5t131.5 49.5t131.5 -49.5t50.5 -129.5t-50.5 -129.5t-131.5 -49.5t-131.5 49.5zM272.5 474q18.5 19 18.5 51t-19 51.5t-47 19.5t-47 -19.5t-19 -51.5t19 -51t47 -19q29 0 47.5 19z" />
    <glyph glyph-name="bar" unicode="|" horiz-adv-x="252" 
d="M197 -110h-142v910h142v-910z" />
    <glyph glyph-name="brokenbar" unicode="&#xa6;" horiz-adv-x="252" 
d="M197 450h-142v350h142v-350zM197 -110h-142v350h142v-350z" />
    <glyph glyph-name="dagger" unicode="&#x2020;" horiz-adv-x="362" 
d="M232 612h86v-95h-86v-245h-102v245h-86v95h86v78h102v-78z" />
    <glyph glyph-name="uni2113" unicode="&#x2113;" horiz-adv-x="527" 
d="M354.5 112.5q19.5 16.5 36.5 51.5l89 -75q-29 -49 -72.5 -76t-115.5 -27q-77 0 -124.5 50t-56.5 143l-53 -21l-45 114q33 12 100 40q9 119 41.5 207.5t85.5 136.5t120 48q69 0 101.5 -34t32.5 -104q0 -95 -61 -175t-192 -151v-22q0 -122 64 -122q30 0 49.5 16.5z
M296.5 543q-27.5 -56 -42.5 -151q62 44 90.5 90t28.5 90q0 27 -20 27q-29 0 -56.5 -56z" />
    <glyph glyph-name="daggerdbl" unicode="&#x2021;" horiz-adv-x="362" 
d="M232 272h-102v78h-86v95h86v72h-86v95h86v78h102v-78h86v-95h-86v-72h86v-95h-86v-78z" />
    <glyph glyph-name="estimated" unicode="&#x212e;" horiz-adv-x="752" 
d="M196.5 29q-78.5 43 -122.5 124.5t-44 191.5t44 191.5t122.5 124.5t179.5 43t179.5 -43t122.5 -124t44 -192h-506v-244q66 -49 160 -49q100 0 169.5 49.5t95.5 139.5h70q-28 -121 -117.5 -188t-217.5 -67q-101 0 -179.5 43zM216 411h319v179q-67 48 -159 48
q-94 0 -160 -49v-178z" />
    <glyph glyph-name="uni2120" unicode="&#x2120;" horiz-adv-x="579" 
d="M61.5 422q-26.5 14 -43.5 40l53 48q11 -17 26.5 -26t29.5 -9q13 0 21.5 5.5t8.5 15.5t-10 16t-37 11q-35 7 -58 28t-23 56q0 41 28 65t74 24q38 0 61 -15t39 -39l-51 -42q-21 33 -49 33q-14 0 -20.5 -5t-6.5 -13q0 -10 10.5 -16t33.5 -12q43 -9 64 -28t21 -57
q0 -46 -29 -70t-74 -24q-42 0 -68.5 14zM337 414h-79l14 276h112l27 -139l27 139h109l14 -276h-79l-3 180l-31 -143h-77l-31 143z" />
    <glyph glyph-name="uni02C9" unicode="&#x2c9;" horiz-adv-x="309" 
d="M292 573h-275v125h275v-125z" />
    <glyph glyph-name="uni0308" unicode="&#x308;" 
d="M-378.5 575.5q-19.5 19.5 -19.5 54.5t19.5 55t55.5 20q35 0 54.5 -20t19.5 -55t-19.5 -54.5t-54.5 -19.5q-36 0 -55.5 19.5zM-190 575.5q-20 19.5 -20 54.5t20 55t55 20t55 -20t20 -55t-20 -54.5t-55 -19.5t-55 19.5z" />
    <glyph glyph-name="uni0308_gravecomb.ccmp" 
d="M-377.5 575.5q-19.5 19.5 -19.5 54.5t19.5 55t55.5 20q35 0 54.5 -20t19.5 -55t-19.5 -54.5t-54.5 -19.5q-36 0 -55.5 19.5zM-189 575.5q-20 19.5 -20 54.5t20 55t55 20t55 -20t20 -55t-20 -54.5t-55 -19.5t-55 19.5zM-169 730h-118l-111 144h168z" />
    <glyph glyph-name="uni0308_acutecomb.ccmp" 
d="M-377.5 575.5q-19.5 19.5 -19.5 54.5t19.5 55t55.5 20q35 0 54.5 -20t19.5 -55t-19.5 -54.5t-54.5 -19.5q-36 0 -55.5 19.5zM-189 575.5q-20 19.5 -20 54.5t20 55t55 20t55 -20t20 -55t-20 -54.5t-55 -19.5t-55 19.5zM-169 730h-118l60 144h169z" />
    <glyph glyph-name="uni0308_uni030C.ccmp" 
d="M-377.5 575.5q-19.5 19.5 -19.5 54.5t19.5 55t55.5 20q35 0 54.5 -20t19.5 -55t-19.5 -54.5t-54.5 -19.5q-36 0 -55.5 19.5zM-189 575.5q-20 19.5 -20 54.5t20 55t55 20t55 -20t20 -55t-20 -54.5t-55 -19.5t-55 19.5zM-183 730h-91l-114 144h112l48 -54l47 54h112z" />
    <glyph glyph-name="uni0308_uni0304.ccmp" 
d="M-378.5 575.5q-19.5 19.5 -19.5 54.5t19.5 55t55.5 20q35 0 54.5 -20t19.5 -55t-19.5 -54.5t-54.5 -19.5q-36 0 -55.5 19.5zM-190 575.5q-20 19.5 -20 54.5t20 55t55 20t55 -20t20 -55t-20 -54.5t-55 -19.5t-55 19.5zM-96 741h-267v109h267v-109z" />
    <glyph glyph-name="uni0307" unicode="&#x307;" 
d="M-200 561q-24 24 -24 65t24 65.5t66 24.5t65.5 -24t23.5 -66q0 -41 -23.5 -65t-65.5 -24t-66 24z" />
    <glyph glyph-name="gravecomb" unicode="&#x300;" 
d="M-19 546h-118l-111 144h168z" />
    <glyph glyph-name="acutecomb" unicode="&#x301;" 
d="M-130 546h-118l60 144h169z" />
    <glyph glyph-name="uni030B" unicode="&#x30b;" 
d="M-299 546h-105l42 144h143zM-100 546h-105l42 144h144z" />
    <glyph glyph-name="glyph583" 
d="M-239 459q66 35 84 78q-38 0 -59 22t-21 59q0 36 22 58t58 22q39 0 62 -26t23 -74q0 -111 -99 -196z" />
    <glyph glyph-name="uni0302" unicode="&#x302;" 
d="M-209 546h-112l114 144h91l114 -144h-112l-47 55z" />
    <glyph glyph-name="uni030C" unicode="&#x30c;" 
d="M-116 546h-91l-114 144h112l48 -54l47 54h112z" />
    <glyph glyph-name="uni0306" unicode="&#x306;" 
d="M-268 584.5q-41 38.5 -41 105.5h100q0 -26 12 -41.5t34 -15.5t34.5 15.5t12.5 41.5h100q0 -67 -41.5 -105.5t-105.5 -38.5t-105 38.5z" />
    <glyph glyph-name="uni030A" unicode="&#x30a;" 
d="M-192 559q-29 27 -29 71t29 71t71 27t71 -27t29 -71t-29 -71t-71 -27t-71 27zM-96.5 603q8.5 10 8.5 27t-8.5 27t-24.5 10q-15 0 -23.5 -10t-8.5 -27t8.5 -27t23.5 -10q16 0 24.5 10z" />
    <glyph glyph-name="tildecomb" unicode="&#x303;" 
d="M-161 578q-17 5 -40 15q-16 8 -27 11.5t-22 3.5q-22 0 -35.5 -6.5t-28.5 -26.5l-54 51q38 78 114 78q23 0 38.5 -4t35.5 -13q28 -13 49 -13q22 0 33.5 5.5t30.5 27.5l43 -67q-18 -36 -38.5 -51.5t-59.5 -15.5q-22 0 -39 5z" />
    <glyph glyph-name="uni0304" unicode="&#x304;" 
d="M-13 581h-267v109h267v-109z" />
    <glyph glyph-name="hookabovecomb" unicode="&#x309;" 
d="M-123 565q10 17 10 32q0 10 -7.5 17t-19.5 7q-18 0 -35 -10l-34 72q41 24 85 24q57 0 85.5 -24t28.5 -69q0 -27 -13.5 -48t-40.5 -43z" />
    <glyph glyph-name="uni0312" unicode="&#x312;" 
d="M-210.5 554.5q-16.5 18.5 -16.5 54.5q0 42 27 67t64 25l35 -44q-40 -8 -56 -23q24 0 37 -14t13 -36t-15.5 -35t-40.5 -13q-31 0 -47.5 18.5z" />
    <glyph glyph-name="uni031B" unicode="&#x31b;" 
d="M-209 358v112h20q31 0 47 17t16 54v59h126v-50q0 -98 -45 -145t-134 -47h-30z" />
    <glyph glyph-name="dotbelowcomb" unicode="&#x323;" 
d="M-192 -175q-21 21 -21 58q0 36 21 57t58 21q36 0 57 -21t21 -57q0 -37 -21 -58t-57 -21q-37 0 -58 21z" />
    <glyph glyph-name="uni0324" unicode="&#x324;" 
d="M-377.5 -170q-19.5 20 -19.5 55t19.5 55t55.5 20q35 0 54.5 -20t19.5 -55t-19.5 -55t-54.5 -20q-36 0 -55.5 20zM-189 -170q-20 20 -20 55t20 55t55 20t55 -20t20 -55t-20 -55t-55 -20t-55 20z" />
    <glyph glyph-name="uni0326" unicode="&#x326;" 
d="M-234 -171q41 8 56 23q-23 0 -36.5 13t-13.5 35t17.5 36t45.5 14q69 0 69 -65q0 -43 -28.5 -66.5t-73.5 -33.5z" />
    <glyph glyph-name="uni0327" unicode="&#x327;" 
d="M-107 -48q45 -1 71 -21t26 -57q0 -41 -28 -65t-88 -24q-50 0 -84 14l24 65q24 -7 53 -7q11 0 18 4.5t7 12.5q0 10 -6.5 14t-18.5 4q-6 0 -12.5 -1.5t-11.5 -4.5l-46 34l38 80h93z" />
    <glyph glyph-name="uni0328" unicode="&#x328;" 
d="M-141.5 -170q-27.5 26 -27.5 68q0 44 17.5 71t51.5 50l81 -19q-51 -35 -51 -76q0 -13 7.5 -21t17.5 -8q11 0 23 6l12 -85q-20 -12 -59 -12q-45 0 -72.5 26z" />
    <glyph glyph-name="uni032E" unicode="&#x32e;" 
d="M-260 -157.5q-36 38.5 -36 108.5h81q0 -31 13 -49t40 -18t40.5 18t13.5 49h81q0 -70 -36.5 -108.5t-98.5 -38.5t-98 38.5z" />
    <glyph glyph-name="uni0331" unicode="&#x331;" 
d="M-15 -153h-263v98h263v-98z" />
    <glyph glyph-name="dieresis" unicode="&#xa8;" horiz-adv-x="457" 
d="M79.5 575.5q-19.5 19.5 -19.5 54.5t19.5 55t55.5 20q35 0 54.5 -20t19.5 -55t-19.5 -54.5t-54.5 -19.5q-36 0 -55.5 19.5zM268 575.5q-20 19.5 -20 54.5t20 55t55 20t55 -20t20 -55t-20 -54.5t-55 -19.5t-55 19.5z" />
    <glyph glyph-name="dotaccent" unicode="&#x2d9;" horiz-adv-x="269" 
d="M69 561q-24 24 -24 65t24 65.5t66 24.5t65.5 -24t23.5 -66q0 -41 -23.5 -65t-65.5 -24t-66 24z" />
    <glyph glyph-name="grave" unicode="`" horiz-adv-x="309" 
d="M269 546h-118l-111 144h168z" />
    <glyph glyph-name="acute" unicode="&#xb4;" horiz-adv-x="269" 
d="M138 546h-118l60 144h169z" />
    <glyph glyph-name="hungarumlaut" unicode="&#x2dd;" horiz-adv-x="424" 
d="M125 546h-105l42 144h143zM324 546h-105l42 144h144z" />
    <glyph glyph-name="circumflex" unicode="&#x2c6;" horiz-adv-x="323" 
d="M114 546h-112l114 144h91l114 -144h-112l-47 55z" />
    <glyph glyph-name="caron" unicode="&#x2c7;" horiz-adv-x="323" 
d="M207 546h-91l-114 144h112l48 -54l47 54h112z" />
    <glyph glyph-name="breve" unicode="&#x2d8;" horiz-adv-x="324" 
d="M57 584.5q-41 38.5 -41 105.5h100q0 -26 12 -41.5t34 -15.5t34.5 15.5t12.5 41.5h100q0 -67 -41.5 -105.5t-105.5 -38.5t-105 38.5z" />
    <glyph glyph-name="ring" unicode="&#x2da;" horiz-adv-x="242" 
d="M50 559q-29 27 -29 71t29 71t71 27t71 -27t29 -71t-29 -71t-71 -27t-71 27zM145.5 603q8.5 10 8.5 27t-8.5 27t-24.5 10q-15 0 -23.5 -10t-8.5 -27t8.5 -27t23.5 -10q16 0 24.5 10z" />
    <glyph glyph-name="tilde" unicode="&#x2dc;" horiz-adv-x="392" 
d="M231 578q-17 5 -40 15q-16 8 -27 11.5t-22 3.5q-22 0 -35.5 -6.5t-28.5 -26.5l-54 51q38 78 114 78q23 0 38.5 -4t35.5 -13q28 -13 49 -13q22 0 33.5 5.5t30.5 27.5l43 -67q-18 -36 -38.5 -51.5t-59.5 -15.5q-22 0 -39 5z" />
    <glyph glyph-name="macron" unicode="&#xaf;" horiz-adv-x="309" 
d="M292 573h-275v125h275v-125z" />
    <glyph glyph-name="cedilla" unicode="&#xb8;" horiz-adv-x="220" 
d="M113 -48q45 -1 71 -21t26 -57q0 -41 -28 -65t-88 -24q-50 0 -84 14l24 65q24 -7 53 -7q11 0 18 4.5t7 12.5q0 10 -6.5 14t-18.5 4q-6 0 -12.5 -1.5t-11.5 -4.5l-46 34l38 80h93z" />
    <glyph glyph-name="ogonek" unicode="&#x2db;" horiz-adv-x="179" 
d="M37.5 -170q-27.5 26 -27.5 68q0 44 17.5 71t51.5 50l81 -19q-51 -35 -51 -76q0 -13 7.5 -21t17.5 -8q11 0 23 6l12 -85q-19 -12 -59 -12q-45 0 -72.5 26z" />
    <glyph glyph-name="uni0306_acutecomb.ccmp" 
d="M-267 584.5q-41 38.5 -41 105.5h100q0 -26 12 -41.5t34 -15.5t34.5 15.5t12.5 41.5h100q0 -67 -41.5 -105.5t-105.5 -38.5t-105 38.5zM-102 723h-118l60 144h169z" />
    <glyph glyph-name="uni0306_gravecomb.ccmp" 
d="M-267 584.5q-41 38.5 -41 105.5h100q0 -26 12 -41.5t34 -15.5t34.5 15.5t12.5 41.5h100q0 -67 -41.5 -105.5t-105.5 -38.5t-105 38.5zM-103 723h-118l-111 144h168z" />
    <glyph glyph-name="uni0306_hookabovecomb.ccmp" 
d="M-267 584.5q-41 38.5 -41 105.5h100q0 -26 12 -41.5t34 -15.5t34.5 15.5t12.5 41.5h100q0 -67 -41.5 -105.5t-105.5 -38.5t-105 38.5zM-175 739q10 17 10 32q0 10 -7.5 17t-19.5 7q-18 0 -35 -10l-34 72q41 24 85 24q57 0 85.5 -24t28.5 -69q0 -27 -13.5 -48t-40.5 -43z
" />
    <glyph glyph-name="uni0306_tildecomb.ccmp" 
d="M-267 584.5q-41 38.5 -41 105.5h100q0 -26 12 -41.5t34 -15.5t34.5 15.5t12.5 41.5h100q0 -67 -41.5 -105.5t-105.5 -38.5t-105 38.5zM-128 738q-17 5 -40 15q-16 8 -27 11.5t-22 3.5q-22 0 -35.5 -6.5t-28.5 -26.5l-54 51q38 78 114 78q23 0 38.5 -4t35.5 -13
q28 -13 49 -13q22 0 33.5 5.5t30.5 27.5l43 -67q-18 -36 -38.5 -51.5t-59.5 -15.5q-22 0 -39 5z" />
    <glyph glyph-name="uni0302_acutecomb.ccmp" 
d="M-113 690h-94l40 144h146zM-324 546h-112l114 144h91l114 -144h-112l-47 55z" />
    <glyph glyph-name="uni0302_gravecomb.ccmp" 
d="M-6 690h-94l-92 144h146zM-237 546h-112l114 144h91l114 -144h-112l-47 55z" />
    <glyph glyph-name="uni0302_hookabovecomb.ccmp" 
d="M-118 697q10 17 10 31q0 10 -7.5 17t-19.5 7q-18 0 -36 -9l-33 71q15 10 38 17t47 7q57 0 85.5 -24t28.5 -68q0 -27 -13.5 -48t-40.5 -44zM-243 546h-112l114 144h91l114 -144h-112l-47 55z" />
    <glyph glyph-name="uni0302_tildecomb.ccmp" 
d="M-334 764q16 36 45 57t70 21q24 0 39.5 -4t35.5 -13q28 -13 48 -13q21 0 34.5 6.5t28.5 26.5l44 -67q-19 -34 -42 -49t-59 -15q-23 0 -39.5 5t-38.5 14q-30 13 -48 13q-20 0 -34.5 -7t-28.5 -26zM-209 546h-112l114 144h91l114 -144h-112l-47 55z" />
    </font>
</defs>
</svg>
